<svg width="340" height="192" viewBox="0 0 340 192" fill="none" xmlns="http://www.w3.org/2000/svg">
<g clip-path="url(#clip0_102_157)">
<rect width="340" height="192" rx="16" fill="#F0ECD3" fill-opacity="0.48"/>
<path d="M76.6628 51V34.08H78.6548V41.568H88.8548V34.08H90.8228V51H88.8548V43.272H78.6548V51H76.6628ZM99.5258 51.216C98.4538 51.216 97.5178 50.968 96.7178 50.472C95.9178 49.96 95.2938 49.24 94.8458 48.312C94.4138 47.384 94.1978 46.272 94.1978 44.976C94.1978 43.664 94.4138 42.544 94.8458 41.616C95.2938 40.688 95.9178 39.976 96.7178 39.48C97.5178 38.984 98.4538 38.736 99.5258 38.736C100.614 38.736 101.55 39.016 102.334 39.576C103.134 40.12 103.662 40.864 103.918 41.808H103.63L103.894 38.952H105.766C105.718 39.416 105.67 39.888 105.622 40.368C105.59 40.832 105.574 41.288 105.574 41.736V51H103.63V48.168H103.894C103.638 49.112 103.11 49.856 102.31 50.4C101.51 50.944 100.582 51.216 99.5258 51.216ZM99.9098 49.632C101.062 49.632 101.974 49.24 102.646 48.456C103.318 47.656 103.654 46.496 103.654 44.976C103.654 43.44 103.318 42.28 102.646 41.496C101.974 40.696 101.062 40.296 99.9098 40.296C98.7738 40.296 97.8618 40.696 97.1738 41.496C96.5018 42.28 96.1658 43.44 96.1658 44.976C96.1658 46.496 96.5018 47.656 97.1738 48.456C97.8618 49.24 98.7738 49.632 99.9098 49.632ZM117.27 51V46.104C116.806 46.376 116.302 46.584 115.758 46.728C115.214 46.872 114.63 46.944 114.006 46.944C112.31 46.944 111.046 46.552 110.214 45.768C109.398 44.968 108.99 43.76 108.99 42.144V38.952H110.934V42C110.934 43.168 111.198 44.016 111.726 44.544C112.27 45.056 113.118 45.312 114.27 45.312C114.862 45.312 115.39 45.248 115.854 45.12C116.318 44.992 116.774 44.776 117.222 44.472V38.952H119.166V51H117.27ZM123.018 51V38.952H124.962V43.992H131.586V38.952H133.53V51H131.586V45.552H124.962V51H123.018ZM137.361 51V38.952H139.137V49.2H138.489L146.169 38.952H147.801V51H146.049V40.728H146.697L139.017 51H137.361ZM162.933 51.216C161.781 51.216 160.773 50.968 159.909 50.472C159.061 49.96 158.405 49.24 157.941 48.312C157.477 47.368 157.245 46.256 157.245 44.976C157.245 43.68 157.477 42.568 157.941 41.64C158.405 40.712 159.061 40 159.909 39.504C160.773 38.992 161.781 38.736 162.933 38.736C164.101 38.736 165.109 38.992 165.957 39.504C166.821 40 167.485 40.712 167.949 41.64C168.429 42.568 168.669 43.68 168.669 44.976C168.669 46.256 168.429 47.368 167.949 48.312C167.485 49.24 166.821 49.96 165.957 50.472C165.109 50.968 164.101 51.216 162.933 51.216ZM162.933 49.632C164.085 49.632 164.997 49.24 165.669 48.456C166.341 47.656 166.677 46.496 166.677 44.976C166.677 43.44 166.333 42.28 165.645 41.496C164.973 40.696 164.069 40.296 162.933 40.296C161.797 40.296 160.893 40.696 160.221 41.496C159.549 42.28 159.213 43.44 159.213 44.976C159.213 46.496 159.549 47.656 160.221 48.456C160.893 49.24 161.797 49.632 162.933 49.632ZM176.95 51.216C175.19 51.216 173.79 50.648 172.75 49.512C171.71 48.376 171.19 46.72 171.19 44.544V42.432C171.19 40.208 171.646 38.408 172.558 37.032C173.47 35.656 174.91 34.728 176.878 34.248L181.27 33.144L181.87 34.728L176.998 35.928C176.102 36.152 175.366 36.544 174.79 37.104C174.214 37.648 173.774 38.304 173.47 39.072C173.182 39.824 173.038 40.624 173.038 41.472V42.432H172.75C172.942 41.712 173.254 41.096 173.686 40.584C174.118 40.056 174.646 39.656 175.27 39.384C175.91 39.096 176.614 38.952 177.382 38.952C178.422 38.952 179.334 39.2 180.118 39.696C180.902 40.176 181.51 40.872 181.942 41.784C182.39 42.68 182.614 43.76 182.614 45.024C182.614 46.288 182.382 47.384 181.918 48.312C181.454 49.24 180.798 49.96 179.95 50.472C179.102 50.968 178.102 51.216 176.95 51.216ZM176.902 49.656C178.07 49.656 178.99 49.272 179.662 48.504C180.334 47.72 180.67 46.576 180.67 45.072C180.67 43.584 180.326 42.456 179.638 41.688C178.966 40.904 178.054 40.512 176.902 40.512C175.75 40.512 174.83 40.896 174.142 41.664C173.47 42.432 173.134 43.52 173.134 44.928C173.134 46.496 173.47 47.68 174.142 48.48C174.814 49.264 175.734 49.656 176.902 49.656ZM185.282 56.448L184.826 54.84C185.578 54.664 186.202 54.456 186.698 54.216C187.21 53.992 187.634 53.688 187.97 53.304C188.306 52.92 188.594 52.44 188.834 51.864L189.458 50.448L189.41 51.264L184.154 38.952H186.266L190.61 49.536H189.986L194.282 38.952H196.322L190.754 52.008C190.434 52.776 190.082 53.416 189.698 53.928C189.314 54.456 188.898 54.88 188.45 55.2C188.018 55.536 187.538 55.8 187.01 55.992C186.482 56.184 185.906 56.336 185.282 56.448ZM206.426 51V46.104C205.962 46.376 205.458 46.584 204.914 46.728C204.37 46.872 203.786 46.944 203.162 46.944C201.466 46.944 200.202 46.552 199.37 45.768C198.554 44.968 198.146 43.76 198.146 42.144V38.952H200.09V42C200.09 43.168 200.354 44.016 200.882 44.544C201.426 45.056 202.274 45.312 203.426 45.312C204.018 45.312 204.546 45.248 205.01 45.12C205.474 44.992 205.93 44.776 206.378 44.472V38.952H208.322V51H206.426ZM217.622 51.216C215.734 51.216 214.246 50.672 213.158 49.584C212.07 48.48 211.526 46.952 211.526 45C211.526 43.736 211.766 42.64 212.246 41.712C212.726 40.768 213.398 40.04 214.262 39.528C215.126 39 216.118 38.736 217.238 38.736C218.342 38.736 219.27 38.968 220.022 39.432C220.774 39.896 221.35 40.56 221.75 41.424C222.15 42.272 222.35 43.28 222.35 44.448V45.168H213.014V43.944H221.078L220.67 44.256C220.67 42.976 220.382 41.976 219.806 41.256C219.23 40.536 218.374 40.176 217.238 40.176C216.038 40.176 215.102 40.6 214.43 41.448C213.758 42.28 213.422 43.408 213.422 44.832V45.048C213.422 46.552 213.79 47.696 214.526 48.48C215.278 49.248 216.326 49.632 217.67 49.632C218.39 49.632 219.062 49.528 219.686 49.32C220.326 49.096 220.934 48.736 221.51 48.24L222.182 49.608C221.654 50.12 220.982 50.52 220.166 50.808C219.366 51.08 218.518 51.216 217.622 51.216ZM225.463 51V38.952H227.407V43.992H234.031V38.952H235.975V51H234.031V45.552H227.407V51H225.463ZM239.807 51V38.952H241.583V49.2H240.935L248.615 38.952H250.247V51H248.495V40.728H249.143L241.463 51H239.807ZM259.528 51.216C257.64 51.216 256.152 50.672 255.064 49.584C253.976 48.48 253.432 46.952 253.432 45C253.432 43.736 253.672 42.64 254.152 41.712C254.632 40.768 255.304 40.04 256.168 39.528C257.032 39 258.024 38.736 259.144 38.736C260.248 38.736 261.176 38.968 261.928 39.432C262.68 39.896 263.256 40.56 263.656 41.424C264.056 42.272 264.256 43.28 264.256 44.448V45.168H254.92V43.944H262.984L262.576 44.256C262.576 42.976 262.288 41.976 261.712 41.256C261.136 40.536 260.28 40.176 259.144 40.176C257.944 40.176 257.008 40.6 256.336 41.448C255.664 42.28 255.328 43.408 255.328 44.832V45.048C255.328 46.552 255.696 47.696 256.432 48.48C257.184 49.248 258.232 49.632 259.576 49.632C260.296 49.632 260.968 49.528 261.592 49.32C262.232 49.096 262.84 48.736 263.416 48.24L264.088 49.608C263.56 50.12 262.888 50.52 262.072 50.808C261.272 51.08 260.424 51.216 259.528 51.216ZM89.7665 76V63.88H101.119V76H98.1425V66.184H92.7425V76H89.7665ZM104.628 81.184V66.904C104.628 66.408 104.612 65.904 104.58 65.392C104.548 64.88 104.5 64.376 104.436 63.88H107.34L107.604 66.424H107.34C107.58 65.576 108.084 64.904 108.852 64.408C109.636 63.896 110.54 63.64 111.564 63.64C112.636 63.64 113.572 63.896 114.372 64.408C115.172 64.904 115.796 65.624 116.244 66.568C116.692 67.496 116.916 68.616 116.916 69.928C116.916 71.24 116.692 72.368 116.244 73.312C115.796 74.256 115.172 74.984 114.372 75.496C113.572 75.992 112.636 76.24 111.564 76.24C110.556 76.24 109.668 75.992 108.9 75.496C108.132 75 107.62 74.336 107.364 73.504H107.628V81.184H104.628ZM110.724 73.936C111.684 73.936 112.452 73.608 113.028 72.952C113.604 72.28 113.892 71.272 113.892 69.928C113.892 68.584 113.604 67.584 113.028 66.928C112.452 66.272 111.684 65.944 110.724 65.944C109.78 65.944 109.02 66.272 108.444 66.928C107.868 67.584 107.58 68.584 107.58 69.928C107.58 71.272 107.868 72.28 108.444 72.952C109.02 73.608 109.78 73.936 110.724 73.936ZM118.735 76L120.583 72.808C120.903 72.264 121.295 71.832 121.759 71.512C122.239 71.176 122.735 71.008 123.247 71.008H123.775L123.751 71.272C122.327 71.272 121.231 70.96 120.463 70.336C119.695 69.712 119.311 68.8 119.311 67.6C119.311 66.416 119.703 65.504 120.487 64.864C121.287 64.208 122.455 63.88 123.991 63.88H130.015V76H127.279V71.728H125.911C125.415 71.728 124.975 71.864 124.591 72.136C124.223 72.408 123.911 72.76 123.655 73.192L122.071 76H118.735ZM124.567 69.784H127.279V65.824H124.567C123.751 65.824 123.135 66 122.719 66.352C122.319 66.704 122.119 67.184 122.119 67.792C122.119 68.432 122.319 68.928 122.719 69.28C123.135 69.616 123.751 69.784 124.567 69.784ZM133.431 76V63.88H135.927L140.103 71.128L144.279 63.88H146.775V76H144.135V67.24H144.687L140.799 74.032H139.407L135.519 67.24H136.071V76H133.431ZM155.756 76.24C154.508 76.24 153.428 75.984 152.516 75.472C151.604 74.96 150.892 74.232 150.38 73.288C149.884 72.344 149.636 71.224 149.636 69.928C149.636 68.632 149.884 67.52 150.38 66.592C150.892 65.648 151.604 64.92 152.516 64.408C153.428 63.896 154.508 63.64 155.756 63.64C157.004 63.64 158.084 63.896 158.996 64.408C159.924 64.92 160.636 65.648 161.132 66.592C161.644 67.52 161.9 68.632 161.9 69.928C161.9 71.224 161.644 72.344 161.132 73.288C160.636 74.232 159.924 74.96 158.996 75.472C158.084 75.984 157.004 76.24 155.756 76.24ZM155.756 73.936C156.7 73.936 157.452 73.608 158.012 72.952C158.572 72.28 158.852 71.272 158.852 69.928C158.852 68.584 158.572 67.584 158.012 66.928C157.452 66.272 156.7 65.944 155.756 65.944C154.812 65.944 154.06 66.272 153.5 66.928C152.94 67.584 152.66 68.584 152.66 69.928C152.66 71.272 152.94 72.28 153.5 72.952C154.06 73.608 154.812 73.936 155.756 73.936ZM176.993 76.24C175.745 76.24 174.649 75.984 173.705 75.472C172.777 74.96 172.057 74.232 171.545 73.288C171.033 72.328 170.777 71.192 170.777 69.88C170.777 68.568 171.033 67.448 171.545 66.52C172.073 65.592 172.801 64.88 173.729 64.384C174.657 63.888 175.745 63.64 176.993 63.64C177.793 63.64 178.569 63.768 179.321 64.024C180.089 64.264 180.713 64.616 181.193 65.08L180.281 67.168C179.849 66.768 179.361 66.472 178.817 66.28C178.289 66.072 177.769 65.968 177.257 65.968C176.185 65.968 175.345 66.304 174.737 66.976C174.145 67.648 173.849 68.624 173.849 69.904C173.849 71.184 174.145 72.168 174.737 72.856C175.345 73.544 176.185 73.888 177.257 73.888C177.753 73.888 178.265 73.792 178.793 73.6C179.337 73.408 179.833 73.112 180.281 72.712L181.193 74.776C180.697 75.24 180.065 75.6 179.297 75.856C178.545 76.112 177.777 76.24 176.993 76.24ZM189.703 76.24C187.671 76.24 186.079 75.68 184.927 74.56C183.775 73.44 183.199 71.904 183.199 69.952C183.199 68.688 183.447 67.584 183.943 66.64C184.439 65.696 185.127 64.96 186.007 64.432C186.903 63.904 187.943 63.64 189.127 63.64C190.295 63.64 191.271 63.888 192.055 64.384C192.839 64.88 193.431 65.576 193.831 66.472C194.247 67.368 194.455 68.416 194.455 69.616V70.408H185.623V68.824H192.319L191.911 69.16C191.911 68.04 191.671 67.184 191.191 66.592C190.727 66 190.047 65.704 189.151 65.704C188.159 65.704 187.391 66.056 186.847 66.76C186.319 67.464 186.055 68.448 186.055 69.712V70.024C186.055 71.336 186.375 72.32 187.015 72.976C187.671 73.616 188.591 73.936 189.775 73.936C190.463 73.936 191.103 73.848 191.695 73.672C192.303 73.48 192.879 73.176 193.423 72.76L194.311 74.776C193.735 75.24 193.047 75.6 192.247 75.856C191.447 76.112 190.599 76.24 189.703 76.24ZM197.227 76V63.88H199.939V73.048H199.219L206.107 63.88H208.579V76H205.867V66.808H206.611L199.699 76H197.227ZM202.891 62.776C202.091 62.776 201.387 62.648 200.779 62.392C200.171 62.12 199.667 61.744 199.267 61.264C198.867 60.768 198.579 60.184 198.403 59.512L199.939 58.984C200.211 59.72 200.587 60.264 201.067 60.616C201.547 60.952 202.163 61.12 202.915 61.12C203.667 61.12 204.283 60.952 204.763 60.616C205.243 60.28 205.635 59.744 205.939 59.008L207.403 59.512C207.067 60.584 206.507 61.4 205.723 61.96C204.955 62.504 204.011 62.776 202.891 62.776ZM219.697 76V71.584C219.249 71.792 218.785 71.952 218.305 72.064C217.825 72.176 217.321 72.232 216.793 72.232C215.017 72.232 213.689 71.808 212.809 70.96C211.945 70.112 211.513 68.848 211.513 67.168V63.88H214.489V66.904C214.489 67.928 214.713 68.672 215.161 69.136C215.609 69.584 216.329 69.808 217.321 69.808C217.785 69.808 218.201 69.76 218.569 69.664C218.937 69.568 219.289 69.416 219.625 69.208V63.88H222.601V76H219.697ZM230.785 76.24C229.729 76.24 228.801 75.992 228.001 75.496C227.201 74.984 226.577 74.256 226.129 73.312C225.681 72.368 225.457 71.24 225.457 69.928C225.457 68.616 225.681 67.496 226.129 66.568C226.577 65.624 227.201 64.904 228.001 64.408C228.801 63.896 229.729 63.64 230.785 63.64C231.809 63.64 232.705 63.896 233.473 64.408C234.257 64.904 234.777 65.576 235.033 66.424H234.769L235.033 63.88H237.913C237.865 64.376 237.817 64.88 237.769 65.392C237.737 65.904 237.721 66.408 237.721 66.904V76H234.745L234.721 73.504H235.009C234.753 74.336 234.233 75 233.449 75.496C232.665 75.992 231.777 76.24 230.785 76.24ZM231.625 73.936C232.569 73.936 233.329 73.608 233.905 72.952C234.481 72.28 234.769 71.272 234.769 69.928C234.769 68.584 234.481 67.584 233.905 66.928C233.329 66.272 232.569 65.944 231.625 65.944C230.681 65.944 229.921 66.272 229.345 66.928C228.769 67.584 228.481 68.584 228.481 69.928C228.481 71.272 228.761 72.28 229.321 72.952C229.897 73.608 230.665 73.936 231.625 73.936ZM246.884 76.24C245.636 76.24 244.54 75.984 243.596 75.472C242.668 74.96 241.948 74.232 241.436 73.288C240.924 72.328 240.668 71.192 240.668 69.88C240.668 68.568 240.924 67.448 241.436 66.52C241.964 65.592 242.692 64.88 243.62 64.384C244.548 63.888 245.636 63.64 246.884 63.64C247.684 63.64 248.46 63.768 249.212 64.024C249.98 64.264 250.604 64.616 251.084 65.08L250.172 67.168C249.74 66.768 249.252 66.472 248.708 66.28C248.18 66.072 247.66 65.968 247.148 65.968C246.076 65.968 245.236 66.304 244.628 66.976C244.036 67.648 243.74 68.624 243.74 69.904C243.74 71.184 244.036 72.168 244.628 72.856C245.236 73.544 246.076 73.888 247.148 73.888C247.644 73.888 248.156 73.792 248.684 73.6C249.228 73.408 249.724 73.112 250.172 72.712L251.084 74.776C250.588 75.24 249.956 75.6 249.188 75.856C248.436 76.112 247.668 76.24 246.884 76.24Z" fill="#343434"/>
<g filter="url(#filter0_d_102_157)">
<g clip-path="url(#clip1_102_157)">
<rect x="49" y="95" width="242" height="68" rx="16" fill="url(#paint0_linear_102_157)"/>
<g filter="url(#filter1_f_102_157)">
<path d="M49 95H291V133.461C195.294 147.667 142.321 147.358 49 133.461V95Z" fill="url(#paint1_linear_102_157)" fill-opacity="0.35"/>
</g>
<g filter="url(#filter2_d_102_157)">
<path d="M117.636 135.165C116.736 135.165 115.931 135.06 115.221 134.85C114.521 134.63 113.911 134.325 113.391 133.935L114.096 132.24C114.526 132.56 115.021 132.81 115.581 132.99C116.141 133.16 116.766 133.245 117.456 133.245C118.256 133.245 118.841 133.125 119.211 132.885C119.591 132.645 119.781 132.285 119.781 131.805C119.781 131.375 119.631 131.055 119.331 130.845C119.031 130.635 118.566 130.53 117.936 130.53H115.296V128.73H117.681C118.291 128.73 118.746 128.63 119.046 128.43C119.346 128.22 119.496 127.905 119.496 127.485C119.496 127.095 119.331 126.78 119.001 126.54C118.681 126.3 118.171 126.18 117.471 126.18C116.891 126.18 116.326 126.265 115.776 126.435C115.226 126.605 114.746 126.85 114.336 127.17L113.631 125.46C114.101 125.08 114.696 124.785 115.416 124.575C116.136 124.365 116.906 124.26 117.726 124.26C119.066 124.26 120.071 124.53 120.741 125.07C121.421 125.61 121.761 126.305 121.761 127.155C121.761 127.785 121.571 128.325 121.191 128.775C120.821 129.215 120.311 129.51 119.661 129.66V129.42C120.411 129.55 120.991 129.84 121.401 130.29C121.821 130.73 122.031 131.31 122.031 132.03C122.031 132.65 121.871 133.195 121.551 133.665C121.231 134.135 120.741 134.505 120.081 134.775C119.431 135.035 118.616 135.165 117.636 135.165ZM123.17 135L128.03 124.425H129.965L134.885 135H132.515L131.24 132.06L132.155 132.705H125.87L126.8 132.06L125.525 135H123.17ZM128.99 126.885L127.055 131.475L126.65 130.905H131.375L131.03 131.475L129.05 126.885H128.99ZM136.697 135V124.425H146.192V135H143.867V126.315H139.007V135H136.697ZM149.242 135V124.425H151.402V131.775H151.027L156.757 124.425H158.497V135H156.322V127.65H156.697L150.952 135H149.242ZM166.654 135.165C165.524 135.165 164.554 134.94 163.744 134.49C162.934 134.04 162.309 133.41 161.869 132.6C161.439 131.78 161.224 130.815 161.224 129.705C161.224 128.595 161.439 127.635 161.869 126.825C162.309 126.015 162.934 125.385 163.744 124.935C164.554 124.485 165.524 124.26 166.654 124.26C167.384 124.26 168.049 124.365 168.649 124.575C169.249 124.775 169.759 125.07 170.179 125.46L169.444 127.305C168.984 126.945 168.544 126.69 168.124 126.54C167.714 126.39 167.249 126.315 166.729 126.315C165.739 126.315 164.979 126.61 164.449 127.2C163.929 127.78 163.669 128.615 163.669 129.705C163.669 130.795 163.929 131.635 164.449 132.225C164.979 132.815 165.739 133.11 166.729 133.11C167.249 133.11 167.714 133.035 168.124 132.885C168.544 132.735 168.984 132.48 169.444 132.12L170.179 133.965C169.759 134.345 169.249 134.64 168.649 134.85C168.049 135.06 167.384 135.165 166.654 135.165ZM171.272 135L176.132 124.425H178.067L182.987 135H180.617L179.342 132.06L180.257 132.705H173.972L174.902 132.06L173.627 135H171.272ZM177.092 126.885L175.157 131.475L174.752 130.905H179.477L179.132 131.475L177.152 126.885H177.092ZM185.94 135V126.33H182.58V124.425H191.64V126.33H188.28V135H185.94ZM193.814 135V124.425H196.139V128.7H198.959C200.129 128.7 201.044 128.97 201.704 129.51C202.364 130.04 202.694 130.815 202.694 131.835C202.694 132.855 202.364 133.64 201.704 134.19C201.044 134.73 200.129 135 198.959 135H193.814ZM196.139 133.23H198.659C199.289 133.23 199.749 133.115 200.039 132.885C200.329 132.655 200.474 132.305 200.474 131.835C200.474 131.375 200.329 131.035 200.039 130.815C199.749 130.585 199.289 130.47 198.659 130.47H196.139V133.23ZM210.273 135.165C209.143 135.165 208.173 134.94 207.363 134.49C206.553 134.04 205.928 133.41 205.488 132.6C205.058 131.78 204.843 130.815 204.843 129.705C204.843 128.595 205.058 127.635 205.488 126.825C205.928 126.015 206.553 125.385 207.363 124.935C208.173 124.485 209.143 124.26 210.273 124.26C211.003 124.26 211.668 124.365 212.268 124.575C212.868 124.775 213.378 125.07 213.798 125.46L213.063 127.305C212.603 126.945 212.163 126.69 211.743 126.54C211.333 126.39 210.868 126.315 210.348 126.315C209.358 126.315 208.598 126.61 208.068 127.2C207.548 127.78 207.288 128.615 207.288 129.705C207.288 130.795 207.548 131.635 208.068 132.225C208.598 132.815 209.358 133.11 210.348 133.11C210.868 133.11 211.333 133.035 211.743 132.885C212.163 132.735 212.603 132.48 213.063 132.12L213.798 133.965C213.378 134.345 212.868 134.64 212.268 134.85C211.668 135.06 211.003 135.165 210.273 135.165ZM215.622 135L217.407 131.865C217.647 131.445 217.927 131.135 218.247 130.935C218.567 130.725 218.942 130.62 219.372 130.62H219.957L219.972 130.875C218.762 130.875 217.827 130.59 217.167 130.02C216.507 129.45 216.177 128.66 216.177 127.65C216.177 126.63 216.502 125.84 217.152 125.28C217.812 124.71 218.742 124.425 219.942 124.425H224.907V135H222.582V130.905H221.472C221.132 130.905 220.852 130.96 220.632 131.07C220.412 131.18 220.222 131.375 220.062 131.655L218.172 135H215.622ZM220.347 129.24H222.582V126.21H220.347C219.047 126.21 218.397 126.715 218.397 127.725C218.397 128.735 219.047 129.24 220.347 129.24Z" fill="white"/>
</g>
</g>
</g>
</g>
<defs>
<filter id="filter0_d_102_157" x="17" y="79" width="306" height="132" filterUnits="userSpaceOnUse" color-interpolation-filters="sRGB">
<feFlood flood-opacity="0" result="BackgroundImageFix"/>
<feColorMatrix in="SourceAlpha" type="matrix" values="0 0 0 0 0 0 0 0 0 0 0 0 0 0 0 0 0 0 127 0" result="hardAlpha"/>
<feOffset dy="16"/>
<feGaussianBlur stdDeviation="16"/>
<feComposite in2="hardAlpha" operator="out"/>
<feColorMatrix type="matrix" values="0 0 0 0 0.7125 0 0 0 0 0.681789 0 0 0 0 0.489844 0 0 0 0.56 0"/>
<feBlend mode="normal" in2="BackgroundImageFix" result="effect1_dropShadow_102_157"/>
<feBlend mode="normal" in="SourceGraphic" in2="effect1_dropShadow_102_157" result="shape"/>
</filter>
<filter id="filter1_f_102_157" x="34" y="80" width="272" height="79" filterUnits="userSpaceOnUse" color-interpolation-filters="sRGB">
<feFlood flood-opacity="0" result="BackgroundImageFix"/>
<feBlend mode="normal" in="SourceGraphic" in2="BackgroundImageFix" result="shape"/>
<feGaussianBlur stdDeviation="7.5" result="effect1_foregroundBlur_102_157"/>
</filter>
<filter id="filter2_d_102_157" x="113.391" y="124.26" width="111.516" height="11.905" filterUnits="userSpaceOnUse" color-interpolation-filters="sRGB">
<feFlood flood-opacity="0" result="BackgroundImageFix"/>
<feColorMatrix in="SourceAlpha" type="matrix" values="0 0 0 0 0 0 0 0 0 0 0 0 0 0 0 0 0 0 127 0" result="hardAlpha"/>
<feOffset dy="1"/>
<feComposite in2="hardAlpha" operator="out"/>
<feColorMatrix type="matrix" values="0 0 0 0 0 0 0 0 0 0 0 0 0 0 0 0 0 0 0.24 0"/>
<feBlend mode="normal" in2="BackgroundImageFix" result="effect1_dropShadow_102_157"/>
<feBlend mode="normal" in="SourceGraphic" in2="effect1_dropShadow_102_157" result="shape"/>
</filter>
<linearGradient id="paint0_linear_102_157" x1="170" y1="95" x2="170" y2="163" gradientUnits="userSpaceOnUse">
<stop stop-color="#93D56F"/>
<stop offset="1" stop-color="#659A57"/>
</linearGradient>
<linearGradient id="paint1_linear_102_157" x1="170" y1="95" x2="170" y2="144" gradientUnits="userSpaceOnUse">
<stop stop-color="white" stop-opacity="0.42"/>
<stop offset="1" stop-color="white"/>
</linearGradient>
<clipPath id="clip0_102_157">
<rect width="340" height="192" rx="16" fill="white"/>
</clipPath>
<clipPath id="clip1_102_157">
<rect x="49" y="95" width="242" height="68" rx="16" fill="white"/>
</clipPath>
</defs>
</svg>
