<svg width="340" height="192" viewBox="0 0 340 192" fill="none" xmlns="http://www.w3.org/2000/svg">
<g clip-path="url(#clip0_102_124)">
<rect width="340" height="192" rx="16" fill="#D3F0EE"/>
<circle cx="308" cy="32" r="64" fill="white" fill-opacity="0.64"/>
<path d="M289.753 61.1573C288.111 60.7173 286.882 59.7324 286.067 58.2026C285.252 56.6728 284.971 55.1136 285.224 53.525C283.368 52.855 281.995 51.6332 281.107 49.8597C280.22 48.0861 280.052 46.169 280.604 44.1084C280.794 43.4 281.066 42.7395 281.419 42.1269C281.773 41.5143 282.209 40.9496 282.728 40.4328C282.529 39.7583 282.427 39.0754 282.422 38.384C282.418 37.6926 282.515 36.9766 282.713 36.2361C283.231 34.3042 284.343 32.8251 286.05 31.7986C287.758 30.7721 289.559 30.3921 291.455 30.6585C291.959 29.0337 292.952 27.8072 294.433 26.9791C295.915 26.151 297.477 25.9569 299.119 26.3969C300.053 26.6471 300.836 27.0383 301.47 27.5705C302.104 28.1026 302.657 28.777 303.128 29.5935C303.945 29.1221 304.752 28.8122 305.551 28.664C306.35 28.5157 307.216 28.5666 308.15 28.8168C309.76 29.2482 310.991 30.1907 311.844 31.6443C312.697 33.0979 312.952 34.6587 312.608 36.3266C314.433 36.988 315.833 38.2001 316.81 39.9631C317.787 41.726 318.013 43.5895 317.487 45.5536C317.288 46.2941 317.004 46.9685 316.634 47.5768C316.264 48.1851 315.824 48.7316 315.315 49.2162C315.496 49.9551 315.589 50.7045 315.592 51.4647C315.595 52.2248 315.507 52.9429 315.325 53.619C314.773 55.6797 313.678 57.2238 312.039 58.2514C310.401 59.279 308.61 59.6188 306.668 59.2708C306.093 60.7732 305.061 61.9808 303.575 62.8937C302.088 63.8066 300.539 64.0474 298.929 63.6161C297.963 63.3572 297.169 62.9719 296.547 62.4602C295.925 61.9484 295.362 61.2799 294.859 60.4548C294.01 60.9176 293.188 61.2151 292.394 61.3472C291.599 61.4794 290.719 61.4161 289.753 61.1573ZM303.555 33.7971L297.343 56.9793C297.127 57.7843 297.258 58.5526 297.735 59.2843C298.212 60.016 298.885 60.4983 299.754 60.7312C300.591 60.9555 301.415 60.7794 302.225 60.2027C303.035 59.6261 303.576 58.9601 303.847 58.2046C303.176 57.7486 302.576 57.217 302.049 56.6097C301.521 56.0025 301.119 55.3166 300.84 54.5518C300.678 54.1286 300.678 53.7405 300.842 53.3875C301.005 53.0345 301.299 52.7767 301.722 52.614C302.145 52.4513 302.533 52.4518 302.886 52.6154C303.239 52.779 303.497 53.0724 303.66 53.4956C303.923 54.1873 304.32 54.768 304.849 55.2378C305.379 55.7076 306.014 56.0417 306.755 56.2402C307.978 56.568 309.137 56.4298 310.231 55.8256C311.324 55.2214 312.057 54.2271 312.428 52.8426C312.505 52.5528 312.553 52.2463 312.57 51.9232C312.588 51.6001 312.608 51.2689 312.63 50.9297C311.938 51.193 311.218 51.3365 310.47 51.3603C309.721 51.3841 308.977 51.2968 308.236 51.0983C307.818 50.9862 307.508 50.7566 307.308 50.4096C307.108 50.0626 307.063 49.6798 307.176 49.2612C307.288 48.8427 307.517 48.5332 307.864 48.3328C308.211 48.1325 308.594 48.0884 309.013 48.2006C310.236 48.5284 311.387 48.3537 312.466 47.6765C313.545 46.9993 314.252 46.0328 314.589 44.7771C314.917 43.5536 314.746 42.3864 314.078 41.2755C313.409 40.1646 312.504 39.4217 311.362 39.0467C310.833 39.7331 310.191 40.2944 309.436 40.7305C308.68 41.1665 307.877 41.4259 307.027 41.5086C306.598 41.5661 306.229 41.4588 305.923 41.1868C305.616 40.9148 305.45 40.5684 305.425 40.1475C305.399 39.7266 305.517 39.3526 305.777 39.0255C306.037 38.6984 306.378 38.5222 306.799 38.4969C307.43 38.459 308.009 38.1999 308.534 37.7196C309.06 37.2392 309.422 36.6288 309.62 35.8882C309.87 34.9545 309.776 34.0837 309.337 33.2758C308.897 32.468 308.259 31.9519 307.422 31.7276C306.585 31.5032 305.785 31.5909 305.022 31.9904C304.26 32.3899 303.77 32.9922 303.555 33.7971ZM294.445 56.2029L300.657 33.0207C300.873 32.2157 300.758 31.4517 300.313 30.7287C299.869 30.0056 299.212 29.5276 298.342 29.2947C297.505 29.0704 296.686 29.1961 295.886 29.6718C295.086 30.1475 294.56 30.8522 294.31 31.7859C294.112 32.5265 294.114 33.2259 294.317 33.8843C294.52 34.5427 294.886 35.0461 295.414 35.3945C295.766 35.6269 295.981 35.9519 296.058 36.3696C296.136 36.7873 296.063 37.156 295.84 37.4757C295.575 37.8189 295.232 38.0375 294.81 38.1315C294.388 38.2255 294.005 38.1402 293.662 37.8757C292.958 37.411 292.396 36.8032 291.976 36.0523C291.556 35.3014 291.289 34.4964 291.174 33.6374C290.021 33.432 288.888 33.6373 287.774 34.2533C286.66 34.8693 285.939 35.789 285.611 37.0125C285.275 38.2682 285.404 39.459 286 40.5848C286.595 41.7107 287.505 42.4375 288.728 42.7654C289.147 42.8775 289.456 43.1071 289.657 43.4541C289.857 43.8011 289.901 44.1839 289.789 44.6025C289.677 45.021 289.447 45.3305 289.1 45.5309C288.753 45.7312 288.37 45.7753 287.952 45.6631C287.211 45.4647 286.525 45.1601 285.893 44.7492C285.261 44.3383 284.707 43.8621 284.231 43.3204C284.066 43.5521 283.92 43.8064 283.794 44.0832C283.668 44.36 283.566 44.6433 283.489 44.9331C283.118 46.3176 283.24 47.5669 283.856 48.6809C284.472 49.795 285.392 50.5159 286.615 50.8438C287.324 51.0336 288.035 51.0516 288.749 50.8979C289.463 50.7441 290.103 50.4497 290.668 50.0144C291.012 49.7615 291.388 49.6465 291.796 49.6696C292.204 49.6926 292.534 49.876 292.787 50.2199C293.04 50.5637 293.155 50.9396 293.132 51.3476C293.109 51.7555 292.926 52.086 292.582 52.3389C291.958 52.8621 291.275 53.2569 290.53 53.5233C289.786 53.7898 289.009 53.9526 288.199 54.0117C288.057 54.8017 288.192 55.6489 288.605 56.5534C289.019 57.4579 289.66 58.0266 290.529 58.2595C291.399 58.4924 292.215 58.4091 292.978 58.0096C293.74 57.6101 294.229 57.0078 294.445 56.2029Z" fill="#343434"/>
<path d="M68.235 60.313L67.684 58.432C68.2793 58.3053 68.7797 58.1597 69.185 57.995C69.5903 57.8303 69.926 57.615 70.192 57.349C70.458 57.083 70.6797 56.741 70.857 56.323L71.332 55.202L71.275 56.133L67.095 46.405H69.622L72.624 53.891H72.073L75.094 46.405H77.488L73.118 56.532C72.8267 57.216 72.51 57.7797 72.168 58.223C71.826 58.679 71.4587 59.04 71.066 59.306C70.6733 59.5847 70.2427 59.8 69.774 59.952C69.3053 60.104 68.7923 60.2243 68.235 60.313ZM78.6212 60.104V48.799C78.6212 48.4063 78.6085 48.0073 78.5832 47.602C78.5578 47.1967 78.5198 46.7977 78.4692 46.405H80.7682L80.9772 48.419H80.7682C80.9582 47.7477 81.3572 47.2157 81.9652 46.823C82.5858 46.4177 83.3015 46.215 84.1122 46.215C84.9608 46.215 85.7018 46.4177 86.3352 46.823C86.9685 47.2157 87.4625 47.7857 87.8172 48.533C88.1718 49.2677 88.3492 50.1543 88.3492 51.193C88.3492 52.2317 88.1718 53.1247 87.8172 53.872C87.4625 54.6193 86.9685 55.1957 86.3352 55.601C85.7018 55.9937 84.9608 56.19 84.1122 56.19C83.3142 56.19 82.6112 55.9937 82.0032 55.601C81.3952 55.2083 80.9898 54.6827 80.7872 54.024H80.9962V60.104H78.6212ZM83.4472 54.366C84.2072 54.366 84.8152 54.1063 85.2712 53.587C85.7272 53.055 85.9552 52.257 85.9552 51.193C85.9552 50.129 85.7272 49.3373 85.2712 48.818C84.8152 48.2987 84.2072 48.039 83.4472 48.039C82.6998 48.039 82.0982 48.2987 81.6422 48.818C81.1862 49.3373 80.9582 50.129 80.9582 51.193C80.9582 52.257 81.1862 53.055 81.6422 53.587C82.0982 54.1063 82.6998 54.366 83.4472 54.366ZM94.6152 56.19C93.6272 56.19 92.7722 55.9873 92.0502 55.582C91.3282 55.1767 90.7645 54.6003 90.3592 53.853C89.9665 53.1057 89.7702 52.219 89.7702 51.193C89.7702 50.167 89.9665 49.2867 90.3592 48.552C90.7645 47.8047 91.3282 47.2283 92.0502 46.823C92.7722 46.4177 93.6272 46.215 94.6152 46.215C95.6032 46.215 96.4582 46.4177 97.1802 46.823C97.9148 47.2283 98.4785 47.8047 98.8712 48.552C99.2765 49.2867 99.4792 50.167 99.4792 51.193C99.4792 52.219 99.2765 53.1057 98.8712 53.853C98.4785 54.6003 97.9148 55.1767 97.1802 55.582C96.4582 55.9873 95.6032 56.19 94.6152 56.19ZM94.6152 54.366C95.3625 54.366 95.9578 54.1063 96.4012 53.587C96.8445 53.055 97.0662 52.257 97.0662 51.193C97.0662 50.129 96.8445 49.3373 96.4012 48.818C95.9578 48.2987 95.3625 48.039 94.6152 48.039C93.8678 48.039 93.2725 48.2987 92.8292 48.818C92.3858 49.3373 92.1642 50.129 92.1642 51.193C92.1642 52.257 92.3858 53.055 92.8292 53.587C93.2725 54.1063 93.8678 54.366 94.6152 54.366ZM101.35 56V46.405H103.706V50.167H105.15L107.962 46.405H110.508L106.974 51.193L106.461 50.452C106.815 50.49 107.126 50.585 107.392 50.737C107.67 50.889 107.93 51.1043 108.171 51.383C108.424 51.649 108.671 51.991 108.912 52.409L110.926 56H108.399L106.765 53.112C106.6 52.8207 106.435 52.5927 106.271 52.428C106.106 52.2633 105.922 52.1493 105.72 52.086C105.517 52.0227 105.27 51.991 104.979 51.991H103.706V56H101.35ZM121.085 56.19C120.503 56.19 119.92 56.1267 119.337 56C118.767 55.8733 118.229 55.696 117.722 55.468C117.228 55.24 116.804 54.9677 116.449 54.651L117.247 52.808C117.843 53.2513 118.451 53.587 119.071 53.815C119.705 54.0303 120.363 54.138 121.047 54.138C121.871 54.138 122.51 53.9353 122.966 53.53C123.435 53.112 123.669 52.5547 123.669 51.858C123.669 51.1487 123.448 50.5787 123.004 50.148C122.561 49.7047 121.953 49.483 121.18 49.483C120.636 49.483 120.135 49.5907 119.679 49.806C119.236 50.0087 118.837 50.3253 118.482 50.756H116.867V42.605H125.189V44.619H119.185V48.875H118.596C118.926 48.4317 119.363 48.0897 119.907 47.849C120.465 47.6083 121.085 47.488 121.769 47.488C122.631 47.488 123.378 47.6653 124.011 48.02C124.645 48.3747 125.139 48.875 125.493 49.521C125.848 50.1543 126.025 50.9017 126.025 51.763C126.025 52.637 125.823 53.4097 125.417 54.081C125.025 54.7397 124.455 55.259 123.707 55.639C122.973 56.0063 122.099 56.19 121.085 56.19Z" fill="#343434"/>
<path d="M32 0H51V63.2106C51 65.2511 51 66.2714 50.3853 66.5281C49.7707 66.7847 49.0451 66.0675 47.5939 64.6329L43.1314 60.2215C42.4846 59.5821 42.1612 59.2624 41.7585 59.2568C41.3558 59.2512 41.0236 59.5618 40.3593 60.183L35.366 64.8523C33.9245 66.2003 33.2038 66.8743 32.6019 66.6131C32 66.3519 32 65.3651 32 63.3915V0Z" fill="url(#paint0_linear_102_124)"/>
<path d="M33.488 97.528C33.488 95.736 33.792 94.2 34.4 92.92C35.024 91.624 35.912 90.624 37.064 89.92C38.232 89.216 39.632 88.864 41.264 88.864C42.848 88.864 44.224 89.216 45.392 89.92C46.56 90.624 47.456 91.624 48.08 92.92C48.72 94.2 49.04 95.728 49.04 97.504C49.04 99.296 48.72 100.84 48.08 102.136C47.44 103.432 46.536 104.44 45.368 105.16C44.216 105.864 42.848 106.216 41.264 106.216C39.632 106.216 38.24 105.864 37.088 105.16C35.936 104.44 35.048 103.432 34.424 102.136C33.8 100.84 33.488 99.304 33.488 97.528ZM35.576 97.528C35.576 99.704 36.056 101.408 37.016 102.64C37.976 103.856 39.392 104.464 41.264 104.464C43.056 104.464 44.448 103.856 45.44 102.64C46.448 101.408 46.952 99.704 46.952 97.528C46.952 95.336 46.456 93.64 45.464 92.44C44.472 91.224 43.072 90.616 41.264 90.616C39.392 90.616 37.976 91.224 37.016 92.44C36.056 93.64 35.576 95.336 35.576 97.528ZM57.5711 106.216C55.8111 106.216 54.4111 105.648 53.3711 104.512C52.3311 103.376 51.8111 101.72 51.8111 99.544V97.432C51.8111 95.208 52.2671 93.408 53.1791 92.032C54.0911 90.656 55.5311 89.728 57.4991 89.248L61.8911 88.144L62.4911 89.728L57.6191 90.928C56.7231 91.152 55.9871 91.544 55.4111 92.104C54.8351 92.648 54.3951 93.304 54.0911 94.072C53.8031 94.824 53.6591 95.624 53.6591 96.472V97.432H53.3711C53.5631 96.712 53.8751 96.096 54.3071 95.584C54.7391 95.056 55.2671 94.656 55.8911 94.384C56.5311 94.096 57.2351 93.952 58.0031 93.952C59.0431 93.952 59.9551 94.2 60.7391 94.696C61.5231 95.176 62.1311 95.872 62.5631 96.784C63.0111 97.68 63.2351 98.76 63.2351 100.024C63.2351 101.288 63.0031 102.384 62.5391 103.312C62.0751 104.24 61.4191 104.96 60.5711 105.472C59.7231 105.968 58.7231 106.216 57.5711 106.216ZM57.5231 104.656C58.6911 104.656 59.6111 104.272 60.2831 103.504C60.9551 102.72 61.2911 101.576 61.2911 100.072C61.2911 98.584 60.9471 97.456 60.2591 96.688C59.5871 95.904 58.6751 95.512 57.5231 95.512C56.3711 95.512 55.4511 95.896 54.7631 96.664C54.0911 97.432 53.7551 98.52 53.7551 99.928C53.7551 101.496 54.0911 102.68 54.7631 103.48C55.4351 104.264 56.3551 104.656 57.5231 104.656ZM66.4278 106V93.952H68.3718V98.992H74.9958V93.952H76.9398V106H74.9958V100.552H68.3718V106H66.4278ZM85.8116 106.216C84.6596 106.216 83.6516 105.968 82.7876 105.472C81.9396 104.96 81.2836 104.24 80.8196 103.312C80.3556 102.368 80.1236 101.256 80.1236 99.976C80.1236 98.68 80.3556 97.568 80.8196 96.64C81.2836 95.712 81.9396 95 82.7876 94.504C83.6516 93.992 84.6596 93.736 85.8116 93.736C86.9796 93.736 87.9876 93.992 88.8356 94.504C89.6996 95 90.3636 95.712 90.8276 96.64C91.3076 97.568 91.5476 98.68 91.5476 99.976C91.5476 101.256 91.3076 102.368 90.8276 103.312C90.3636 104.24 89.6996 104.96 88.8356 105.472C87.9876 105.968 86.9796 106.216 85.8116 106.216ZM85.8116 104.632C86.9636 104.632 87.8756 104.24 88.5476 103.456C89.2196 102.656 89.5556 101.496 89.5556 99.976C89.5556 98.44 89.2116 97.28 88.5236 96.496C87.8516 95.696 86.9476 95.296 85.8116 95.296C84.6756 95.296 83.7716 95.696 83.0996 96.496C82.4276 97.28 82.0916 98.44 82.0916 99.976C82.0916 101.496 82.4276 102.656 83.0996 103.456C83.7716 104.24 84.6756 104.632 85.8116 104.632ZM94.7169 106V93.952H100.525C101.917 93.952 102.957 94.224 103.645 94.768C104.349 95.296 104.701 96.08 104.701 97.12C104.701 97.888 104.429 98.536 103.885 99.064C103.357 99.576 102.669 99.88 101.821 99.976V99.688C102.813 99.72 103.605 100.008 104.197 100.552C104.789 101.096 105.085 101.8 105.085 102.664C105.085 103.704 104.701 104.52 103.933 105.112C103.181 105.704 102.109 106 100.717 106H94.7169ZM96.5649 104.68H100.621C101.469 104.68 102.117 104.504 102.565 104.152C103.029 103.784 103.261 103.264 103.261 102.592C103.261 101.92 103.029 101.408 102.565 101.056C102.117 100.704 101.469 100.528 100.621 100.528H96.5649V104.68ZM96.5649 99.208H100.405C101.189 99.208 101.797 99.032 102.229 98.68C102.661 98.328 102.877 97.84 102.877 97.216C102.877 96.592 102.661 96.112 102.229 95.776C101.797 95.424 101.189 95.248 100.405 95.248H96.5649V99.208ZM107.452 106.264L106.732 104.752C107.292 104.496 107.756 104.184 108.124 103.816C108.508 103.432 108.812 102.952 109.036 102.376C109.26 101.784 109.42 101.056 109.516 100.192C109.612 99.312 109.66 98.256 109.66 97.024V93.952H118.348V106H116.428V95.488H111.46V97.096C111.46 98.984 111.324 100.536 111.052 101.752C110.796 102.968 110.372 103.936 109.78 104.656C109.204 105.36 108.428 105.896 107.452 106.264ZM121.226 106L123.146 102.688C123.45 102.16 123.834 101.736 124.298 101.416C124.762 101.08 125.25 100.912 125.762 100.912H126.098L126.074 101.128C124.714 101.128 123.658 100.824 122.906 100.216C122.154 99.592 121.778 98.696 121.778 97.528C121.778 96.408 122.146 95.536 122.882 94.912C123.618 94.272 124.714 93.952 126.17 93.952H131.522V106H129.698V101.344H127.898C127.226 101.344 126.658 101.512 126.194 101.848C125.73 102.184 125.338 102.608 125.018 103.12L123.386 106H121.226ZM126.506 99.976H129.698V95.296H126.506C125.53 95.296 124.802 95.504 124.322 95.92C123.858 96.336 123.626 96.904 123.626 97.624C123.626 98.376 123.858 98.96 124.322 99.376C124.802 99.776 125.53 99.976 126.506 99.976ZM140.806 106.216C138.918 106.216 137.43 105.672 136.342 104.584C135.254 103.48 134.71 101.952 134.71 100C134.71 98.736 134.95 97.64 135.43 96.712C135.91 95.768 136.582 95.04 137.446 94.528C138.31 94 139.302 93.736 140.422 93.736C141.526 93.736 142.454 93.968 143.206 94.432C143.958 94.896 144.534 95.56 144.934 96.424C145.334 97.272 145.534 98.28 145.534 99.448V100.168H136.198V98.944H144.262L143.854 99.256C143.854 97.976 143.566 96.976 142.99 96.256C142.414 95.536 141.558 95.176 140.422 95.176C139.222 95.176 138.286 95.6 137.614 96.448C136.942 97.28 136.605 98.408 136.605 99.832V100.048C136.605 101.552 136.974 102.696 137.71 103.48C138.462 104.248 139.51 104.632 140.854 104.632C141.574 104.632 142.246 104.528 142.87 104.32C143.51 104.096 144.118 103.736 144.694 103.24L145.366 104.608C144.838 105.12 144.166 105.52 143.35 105.808C142.55 106.08 141.702 106.216 140.806 106.216ZM148.647 106V93.952H150.279L154.791 102.04L159.327 93.952H160.959V106H159.231V96.112H159.735L155.295 104.056H154.311L149.847 96.088H150.375V106H148.647ZM170.837 106V93.88H173.333L177.509 101.128L181.685 93.88H184.181V106H181.541V97.24H182.093L178.205 104.032H176.813L172.925 97.24H173.477V106H170.837ZM193.547 106.24C191.515 106.24 189.923 105.68 188.771 104.56C187.619 103.44 187.043 101.904 187.043 99.952C187.043 98.688 187.291 97.584 187.787 96.64C188.283 95.696 188.971 94.96 189.851 94.432C190.747 93.904 191.787 93.64 192.971 93.64C194.139 93.64 195.115 93.888 195.899 94.384C196.683 94.88 197.275 95.576 197.675 96.472C198.091 97.368 198.299 98.416 198.299 99.616V100.408H189.467V98.824H196.163L195.755 99.16C195.755 98.04 195.515 97.184 195.035 96.592C194.571 96 193.891 95.704 192.995 95.704C192.003 95.704 191.235 96.056 190.691 96.76C190.163 97.464 189.899 98.448 189.899 99.712V100.024C189.899 101.336 190.219 102.32 190.859 102.976C191.515 103.616 192.435 103.936 193.619 103.936C194.307 103.936 194.947 103.848 195.539 103.672C196.147 103.48 196.723 103.176 197.267 102.76L198.155 104.776C197.579 105.24 196.891 105.6 196.091 105.856C195.291 106.112 194.443 106.24 193.547 106.24ZM201.071 106V93.88H204.047V98.632H209.519V93.88H212.495V106H209.519V100.936H204.047V106H201.071ZM226.947 106.24C225.267 106.24 223.891 105.776 222.819 104.848C221.763 103.904 221.131 102.6 220.923 100.936H218.835V106H215.907V93.88H218.835V98.632H220.947C221.203 97.064 221.859 95.84 222.915 94.96C223.971 94.08 225.315 93.64 226.947 93.64C228.195 93.64 229.275 93.896 230.187 94.408C231.115 94.904 231.827 95.624 232.323 96.568C232.835 97.496 233.091 98.616 233.091 99.928C233.091 101.224 232.835 102.344 232.323 103.288C231.827 104.232 231.115 104.96 230.187 105.472C229.275 105.984 228.195 106.24 226.947 106.24ZM226.947 103.96C227.891 103.96 228.651 103.632 229.227 102.976C229.803 102.304 230.091 101.288 230.091 99.928C230.091 98.584 229.803 97.584 229.227 96.928C228.651 96.256 227.891 95.92 226.947 95.92C225.987 95.92 225.219 96.256 224.643 96.928C224.083 97.584 223.803 98.584 223.803 99.928C223.803 101.288 224.083 102.304 224.643 102.976C225.219 103.632 225.987 103.96 226.947 103.96ZM33.704 131V118.88H45.056V131H42.08V121.184H36.68V131H33.704ZM48.5656 136.184V121.904C48.5656 121.408 48.5496 120.904 48.5176 120.392C48.4856 119.88 48.4376 119.376 48.3736 118.88H51.2776L51.5416 121.424H51.2776C51.5176 120.576 52.0216 119.904 52.7896 119.408C53.5736 118.896 54.4776 118.64 55.5016 118.64C56.5736 118.64 57.5096 118.896 58.3096 119.408C59.1096 119.904 59.7336 120.624 60.1816 121.568C60.6296 122.496 60.8536 123.616 60.8536 124.928C60.8536 126.24 60.6296 127.368 60.1816 128.312C59.7336 129.256 59.1096 129.984 58.3096 130.496C57.5096 130.992 56.5736 131.24 55.5016 131.24C54.4936 131.24 53.6056 130.992 52.8376 130.496C52.0696 130 51.5576 129.336 51.3016 128.504H51.5656V136.184H48.5656ZM54.6616 128.936C55.6216 128.936 56.3896 128.608 56.9656 127.952C57.5416 127.28 57.8296 126.272 57.8296 124.928C57.8296 123.584 57.5416 122.584 56.9656 121.928C56.3896 121.272 55.6216 120.944 54.6616 120.944C53.7176 120.944 52.9576 121.272 52.3816 121.928C51.8056 122.584 51.5176 123.584 51.5176 124.928C51.5176 126.272 51.8056 127.28 52.3816 127.952C52.9576 128.608 53.7176 128.936 54.6616 128.936ZM69.2486 131.24C68.0006 131.24 66.9206 130.984 66.0086 130.472C65.0966 129.96 64.3846 129.232 63.8726 128.288C63.3766 127.344 63.1286 126.224 63.1286 124.928C63.1286 123.632 63.3766 122.52 63.8726 121.592C64.3846 120.648 65.0966 119.92 66.0086 119.408C66.9206 118.896 68.0006 118.64 69.2486 118.64C70.4966 118.64 71.5766 118.896 72.4886 119.408C73.4166 119.92 74.1286 120.648 74.6246 121.592C75.1366 122.52 75.3926 123.632 75.3926 124.928C75.3926 126.224 75.1366 127.344 74.6246 128.288C74.1286 129.232 73.4166 129.96 72.4886 130.472C71.5766 130.984 70.4966 131.24 69.2486 131.24ZM69.2486 128.936C70.1926 128.936 70.9446 128.608 71.5046 127.952C72.0646 127.28 72.3446 126.272 72.3446 124.928C72.3446 123.584 72.0646 122.584 71.5046 121.928C70.9446 121.272 70.1926 120.944 69.2486 120.944C68.3046 120.944 67.5526 121.272 66.9926 121.928C66.4326 122.584 66.1526 123.584 66.1526 124.928C66.1526 126.272 66.4326 127.28 66.9926 127.952C67.5526 128.608 68.3046 128.936 69.2486 128.936ZM85.3633 136.184V128.648H85.6273C85.3713 129.48 84.9393 130.12 84.3313 130.568C83.7393 131.016 83.0193 131.24 82.1713 131.24C81.2913 131.24 80.5073 130.984 79.8193 130.472C79.1473 129.944 78.6193 129.208 78.2353 128.264C77.8513 127.32 77.6593 126.208 77.6593 124.928C77.6593 123.632 77.8433 122.52 78.2113 121.592C78.5953 120.648 79.1233 119.92 79.7953 119.408C80.4833 118.896 81.2753 118.64 82.1713 118.64C83.0193 118.64 83.7393 118.864 84.3313 119.312C84.9393 119.76 85.3713 120.392 85.6273 121.208H85.3633V113.336H88.3393V121.208H88.0753C88.3313 120.392 88.7553 119.76 89.3473 119.312C89.9553 118.864 90.6833 118.64 91.5312 118.64C92.4273 118.64 93.2113 118.896 93.8833 119.408C94.5713 119.92 95.0993 120.648 95.4673 121.592C95.8513 122.52 96.0433 123.632 96.0433 124.928C96.0433 126.208 95.8513 127.32 95.4673 128.264C95.0993 129.208 94.5713 129.944 93.8833 130.472C93.2113 130.984 92.4273 131.24 91.5312 131.24C90.6993 131.24 89.9793 131.016 89.3713 130.568C88.7793 130.12 88.3473 129.48 88.0753 128.648H88.3393V136.184H85.3633ZM83.0353 128.984C83.7713 128.984 84.3473 128.648 84.7633 127.976C85.1953 127.304 85.4113 126.288 85.4113 124.928C85.4113 123.584 85.1953 122.576 84.7633 121.904C84.3313 121.216 83.7553 120.872 83.0353 120.872C82.2993 120.872 81.7153 121.216 81.2833 121.904C80.8513 122.576 80.6353 123.584 80.6353 124.928C80.6353 126.288 80.8513 127.304 81.2833 127.976C81.7153 128.648 82.2993 128.984 83.0353 128.984ZM90.6673 128.984C91.4033 128.984 91.9873 128.648 92.4193 127.976C92.8513 127.304 93.0673 126.288 93.0673 124.928C93.0673 123.584 92.8433 122.576 92.3953 121.904C91.9633 121.216 91.3873 120.872 90.6673 120.872C89.9313 120.872 89.3473 121.216 88.9153 121.904C88.4993 122.576 88.2913 123.584 88.2913 124.928C88.2913 126.288 88.4993 127.304 88.9153 127.976C89.3473 128.648 89.9313 128.984 90.6673 128.984ZM104.836 131.24C102.804 131.24 101.212 130.68 100.06 129.56C98.9077 128.44 98.3317 126.904 98.3317 124.952C98.3317 123.688 98.5797 122.584 99.0757 121.64C99.5717 120.696 100.26 119.96 101.14 119.432C102.036 118.904 103.076 118.64 104.26 118.64C105.428 118.64 106.404 118.888 107.188 119.384C107.972 119.88 108.564 120.576 108.964 121.472C109.38 122.368 109.588 123.416 109.588 124.616V125.408H100.756V123.824H107.452L107.044 124.16C107.044 123.04 106.804 122.184 106.324 121.592C105.86 121 105.18 120.704 104.284 120.704C103.292 120.704 102.524 121.056 101.98 121.76C101.452 122.464 101.188 123.448 101.188 124.712V125.024C101.188 126.336 101.508 127.32 102.148 127.976C102.804 128.616 103.724 128.936 104.908 128.936C105.596 128.936 106.236 128.848 106.828 128.672C107.436 128.48 108.012 128.176 108.556 127.76L109.444 129.776C108.868 130.24 108.18 130.6 107.38 130.856C106.58 131.112 105.732 131.24 104.836 131.24ZM118.024 131.24C116.776 131.24 115.68 130.984 114.736 130.472C113.808 129.96 113.088 129.232 112.576 128.288C112.064 127.328 111.808 126.192 111.808 124.88C111.808 123.568 112.064 122.448 112.576 121.52C113.104 120.592 113.832 119.88 114.76 119.384C115.688 118.888 116.776 118.64 118.024 118.64C118.824 118.64 119.6 118.768 120.352 119.024C121.12 119.264 121.744 119.616 122.224 120.08L121.312 122.168C120.88 121.768 120.392 121.472 119.848 121.28C119.32 121.072 118.8 120.968 118.288 120.968C117.216 120.968 116.376 121.304 115.768 121.976C115.176 122.648 114.88 123.624 114.88 124.904C114.88 126.184 115.176 127.168 115.768 127.856C116.376 128.544 117.216 128.888 118.288 128.888C118.784 128.888 119.296 128.792 119.824 128.6C120.368 128.408 120.864 128.112 121.312 127.712L122.224 129.776C121.728 130.24 121.096 130.6 120.328 130.856C119.576 131.112 118.808 131.24 118.024 131.24ZM130.446 131.24C129.198 131.24 128.102 130.984 127.158 130.472C126.23 129.96 125.51 129.232 124.998 128.288C124.486 127.328 124.23 126.192 124.23 124.88C124.23 123.568 124.486 122.448 124.998 121.52C125.526 120.592 126.254 119.88 127.182 119.384C128.11 118.888 129.198 118.64 130.446 118.64C131.246 118.64 132.022 118.768 132.774 119.024C133.542 119.264 134.166 119.616 134.646 120.08L133.734 122.168C133.302 121.768 132.814 121.472 132.27 121.28C131.742 121.072 131.222 120.968 130.71 120.968C129.638 120.968 128.798 121.304 128.19 121.976C127.598 122.648 127.302 123.624 127.302 124.904C127.302 126.184 127.598 127.168 128.19 127.856C128.798 128.544 129.638 128.888 130.71 128.888C131.206 128.888 131.718 128.792 132.246 128.6C132.79 128.408 133.286 128.112 133.734 127.712L134.646 129.776C134.15 130.24 133.518 130.6 132.75 130.856C131.998 131.112 131.23 131.24 130.446 131.24ZM137.204 131V118.88H139.916V128.048H139.196L146.084 118.88H148.556V131H145.844V121.808H146.588L139.676 131H137.204ZM151.97 131V118.88H154.682V128.048H153.962L160.85 118.88H163.322V131H160.61V121.808H161.354L154.442 131H151.97ZM157.634 117.776C156.834 117.776 156.13 117.648 155.522 117.392C154.914 117.12 154.41 116.744 154.01 116.264C153.61 115.768 153.322 115.184 153.146 114.512L154.682 113.984C154.954 114.72 155.33 115.264 155.81 115.616C156.29 115.952 156.906 116.12 157.658 116.12C158.41 116.12 159.026 115.952 159.506 115.616C159.986 115.28 160.378 114.744 160.682 114.008L162.146 114.512C161.81 115.584 161.25 116.4 160.466 116.96C159.698 117.504 158.754 117.776 157.634 117.776ZM173.209 131V118.952H181.609V120.512H175.153V131H173.209ZM188.937 131.216C187.785 131.216 186.777 130.968 185.913 130.472C185.065 129.96 184.409 129.24 183.945 128.312C183.481 127.368 183.249 126.256 183.249 124.976C183.249 123.68 183.481 122.568 183.945 121.64C184.409 120.712 185.065 120 185.913 119.504C186.777 118.992 187.785 118.736 188.937 118.736C190.105 118.736 191.113 118.992 191.961 119.504C192.825 120 193.489 120.712 193.953 121.64C194.433 122.568 194.673 123.68 194.673 124.976C194.673 126.256 194.433 127.368 193.953 128.312C193.489 129.24 192.825 129.96 191.961 130.472C191.113 130.968 190.105 131.216 188.937 131.216ZM188.937 129.632C190.089 129.632 191.001 129.24 191.673 128.456C192.345 127.656 192.681 126.496 192.681 124.976C192.681 123.44 192.337 122.28 191.649 121.496C190.977 120.696 190.073 120.296 188.937 120.296C187.801 120.296 186.897 120.696 186.225 121.496C185.553 122.28 185.217 123.44 185.217 124.976C185.217 126.496 185.553 127.656 186.225 128.456C186.897 129.24 187.801 129.632 188.937 129.632ZM196.96 131.264L196.24 129.752C196.8 129.496 197.264 129.184 197.632 128.816C198.016 128.432 198.32 127.952 198.544 127.376C198.768 126.784 198.928 126.056 199.024 125.192C199.12 124.312 199.168 123.256 199.168 122.024V118.952H207.856V131H205.936V120.488H200.968V122.096C200.968 123.984 200.832 125.536 200.56 126.752C200.304 127.968 199.88 128.936 199.288 129.656C198.712 130.36 197.936 130.896 196.96 131.264ZM216.733 131.216C215.581 131.216 214.573 130.968 213.709 130.472C212.861 129.96 212.205 129.24 211.741 128.312C211.277 127.368 211.045 126.256 211.045 124.976C211.045 123.68 211.277 122.568 211.741 121.64C212.205 120.712 212.861 120 213.709 119.504C214.573 118.992 215.581 118.736 216.733 118.736C217.901 118.736 218.909 118.992 219.757 119.504C220.621 120 221.285 120.712 221.749 121.64C222.229 122.568 222.469 123.68 222.469 124.976C222.469 126.256 222.229 127.368 221.749 128.312C221.285 129.24 220.621 129.96 219.757 130.472C218.909 130.968 217.901 131.216 216.733 131.216ZM216.733 129.632C217.885 129.632 218.797 129.24 219.469 128.456C220.141 127.656 220.477 126.496 220.477 124.976C220.477 123.44 220.133 122.28 219.445 121.496C218.773 120.696 217.869 120.296 216.733 120.296C215.597 120.296 214.693 120.696 214.021 121.496C213.349 122.28 213.013 123.44 213.013 124.976C213.013 126.496 213.349 127.656 214.021 128.456C214.693 129.24 215.597 129.632 216.733 129.632ZM225.639 131V118.952H231.447C232.839 118.952 233.879 119.224 234.567 119.768C235.271 120.296 235.623 121.08 235.623 122.12C235.623 122.888 235.351 123.536 234.807 124.064C234.279 124.576 233.591 124.88 232.743 124.976V124.688C233.735 124.72 234.527 125.008 235.119 125.552C235.711 126.096 236.007 126.8 236.007 127.664C236.007 128.704 235.623 129.52 234.855 130.112C234.103 130.704 233.031 131 231.639 131H225.639ZM227.487 129.68H231.543C232.391 129.68 233.039 129.504 233.487 129.152C233.951 128.784 234.183 128.264 234.183 127.592C234.183 126.92 233.951 126.408 233.487 126.056C233.039 125.704 232.391 125.528 231.543 125.528H227.487V129.68ZM227.487 124.208H231.327C232.111 124.208 232.719 124.032 233.151 123.68C233.583 123.328 233.799 122.84 233.799 122.216C233.799 121.592 233.583 121.112 233.151 120.776C232.719 120.424 232.111 120.248 231.327 120.248H227.487V124.208ZM244.47 131.216C242.582 131.216 241.094 130.672 240.006 129.584C238.918 128.48 238.374 126.952 238.374 125C238.374 123.736 238.614 122.64 239.094 121.712C239.574 120.768 240.246 120.04 241.11 119.528C241.974 119 242.966 118.736 244.086 118.736C245.19 118.736 246.118 118.968 246.87 119.432C247.622 119.896 248.198 120.56 248.598 121.424C248.998 122.272 249.198 123.28 249.198 124.448V125.168H239.862V123.944H247.926L247.518 124.256C247.518 122.976 247.23 121.976 246.654 121.256C246.078 120.536 245.222 120.176 244.086 120.176C242.886 120.176 241.95 120.6 241.278 121.448C240.606 122.28 240.27 123.408 240.27 124.832V125.048C240.27 126.552 240.638 127.696 241.374 128.48C242.126 129.248 243.174 129.632 244.518 129.632C245.238 129.632 245.91 129.528 246.534 129.32C247.174 129.096 247.782 128.736 248.358 128.24L249.03 129.608C248.502 130.12 247.83 130.52 247.014 130.808C246.214 131.08 245.366 131.216 244.47 131.216Z" fill="#343434"/>
</g>
<defs>
<linearGradient id="paint0_linear_102_124" x1="41.5" y1="0" x2="41.5" y2="68" gradientUnits="userSpaceOnUse">
<stop stop-color="white" stop-opacity="0.16"/>
<stop offset="1" stop-color="white"/>
</linearGradient>
<clipPath id="clip0_102_124">
<rect width="340" height="192" rx="16" fill="white"/>
</clipPath>
</defs>
</svg>
