<svg width="340" height="192" viewBox="0 0 340 192" fill="none" xmlns="http://www.w3.org/2000/svg">
<g clip-path="url(#clip0_102_149)">
<rect width="340" height="192" rx="16" fill="#D3E2F0"/>
<circle cx="308" cy="32" r="64" fill="white" fill-opacity="0.64"/>
<path d="M304.586 44.052C305.106 44.1913 305.589 44.1327 306.035 43.8762C306.481 43.6196 306.773 43.2321 306.912 42.7135C307.051 42.195 306.991 41.7132 306.734 41.2682C306.476 40.8231 306.087 40.5309 305.567 40.3916C305.047 40.2523 304.564 40.3109 304.118 40.5674C303.673 40.8239 303.38 41.2115 303.241 41.73C303.102 42.2486 303.162 42.7304 303.42 43.1754C303.677 43.6204 304.066 43.9126 304.586 44.052ZM291.13 35.5425L300.306 38.0013L301.042 35.256L291.866 32.7972L291.13 35.5425ZM278.577 56.6985C278.469 52.9425 278.374 49.1983 278.292 45.4657C278.21 41.7332 278.656 38.052 279.628 34.4221C280.38 31.6158 281.996 29.4989 284.477 28.0712C286.958 26.6436 289.605 26.3068 292.419 27.0608L301.596 29.5196C302.793 28.5982 304.113 27.9872 305.554 27.6868C306.995 27.3864 308.449 27.4329 309.917 27.8263C310.682 28.0312 311.261 28.4722 311.653 29.1495C312.045 29.8267 312.139 30.5466 311.935 31.3092C311.886 31.4922 311.814 31.6691 311.719 31.8398C311.624 32.0105 311.525 32.1639 311.423 32.3C311.211 32.6028 311.004 32.9152 310.803 33.2373C310.602 33.5594 310.422 33.8953 310.263 34.2449L313.322 39.5273L317.314 40.5969L313.894 53.3624L308.255 53.6661L302.435 63.0914L292.341 60.3867L293.322 56.7263L289.652 55.7428L288.671 59.4032L278.577 56.6985ZM281.377 54.5065L286.653 55.9203L287.634 52.2599L296.811 54.7187L295.83 58.3791L301.106 59.7929L306.571 50.959L311.68 50.6115L313.826 42.6045L311.44 41.9652L307.136 34.5351C307.371 33.7807 307.669 33.0676 308.029 32.3959C308.389 31.7241 308.759 31.0468 309.139 30.3639C307.895 30.3575 306.673 30.5124 305.474 30.8285C304.275 31.1447 303.257 31.7628 302.42 32.6828L291.684 29.8061C289.665 29.2651 287.745 29.5189 285.923 30.5673C284.101 31.6157 282.921 33.1466 282.381 35.1597C281.539 38.3016 281.159 41.4936 281.241 44.7358C281.323 47.978 281.369 51.2349 281.377 54.5065Z" fill="#343434"/>
<path d="M68.235 60.313L67.684 58.432C68.2793 58.3053 68.7797 58.1597 69.185 57.995C69.5903 57.8303 69.926 57.615 70.192 57.349C70.458 57.083 70.6797 56.741 70.857 56.323L71.332 55.202L71.275 56.133L67.095 46.405H69.622L72.624 53.891H72.073L75.094 46.405H77.488L73.118 56.532C72.8267 57.216 72.51 57.7797 72.168 58.223C71.826 58.679 71.4587 59.04 71.066 59.306C70.6733 59.5847 70.2427 59.8 69.774 59.952C69.3053 60.104 68.7923 60.2243 68.235 60.313ZM78.6212 60.104V48.799C78.6212 48.4063 78.6085 48.0073 78.5832 47.602C78.5578 47.1967 78.5198 46.7977 78.4692 46.405H80.7682L80.9772 48.419H80.7682C80.9582 47.7477 81.3572 47.2157 81.9652 46.823C82.5858 46.4177 83.3015 46.215 84.1122 46.215C84.9608 46.215 85.7018 46.4177 86.3352 46.823C86.9685 47.2157 87.4625 47.7857 87.8172 48.533C88.1718 49.2677 88.3492 50.1543 88.3492 51.193C88.3492 52.2317 88.1718 53.1247 87.8172 53.872C87.4625 54.6193 86.9685 55.1957 86.3352 55.601C85.7018 55.9937 84.9608 56.19 84.1122 56.19C83.3142 56.19 82.6112 55.9937 82.0032 55.601C81.3952 55.2083 80.9898 54.6827 80.7872 54.024H80.9962V60.104H78.6212ZM83.4472 54.366C84.2072 54.366 84.8152 54.1063 85.2712 53.587C85.7272 53.055 85.9552 52.257 85.9552 51.193C85.9552 50.129 85.7272 49.3373 85.2712 48.818C84.8152 48.2987 84.2072 48.039 83.4472 48.039C82.6998 48.039 82.0982 48.2987 81.6422 48.818C81.1862 49.3373 80.9582 50.129 80.9582 51.193C80.9582 52.257 81.1862 53.055 81.6422 53.587C82.0982 54.1063 82.6998 54.366 83.4472 54.366ZM94.6152 56.19C93.6272 56.19 92.7722 55.9873 92.0502 55.582C91.3282 55.1767 90.7645 54.6003 90.3592 53.853C89.9665 53.1057 89.7702 52.219 89.7702 51.193C89.7702 50.167 89.9665 49.2867 90.3592 48.552C90.7645 47.8047 91.3282 47.2283 92.0502 46.823C92.7722 46.4177 93.6272 46.215 94.6152 46.215C95.6032 46.215 96.4582 46.4177 97.1802 46.823C97.9148 47.2283 98.4785 47.8047 98.8712 48.552C99.2765 49.2867 99.4792 50.167 99.4792 51.193C99.4792 52.219 99.2765 53.1057 98.8712 53.853C98.4785 54.6003 97.9148 55.1767 97.1802 55.582C96.4582 55.9873 95.6032 56.19 94.6152 56.19ZM94.6152 54.366C95.3625 54.366 95.9578 54.1063 96.4012 53.587C96.8445 53.055 97.0662 52.257 97.0662 51.193C97.0662 50.129 96.8445 49.3373 96.4012 48.818C95.9578 48.2987 95.3625 48.039 94.6152 48.039C93.8678 48.039 93.2725 48.2987 92.8292 48.818C92.3858 49.3373 92.1642 50.129 92.1642 51.193C92.1642 52.257 92.3858 53.055 92.8292 53.587C93.2725 54.1063 93.8678 54.366 94.6152 54.366ZM101.35 56V46.405H103.706V50.167H105.15L107.962 46.405H110.508L106.974 51.193L106.461 50.452C106.815 50.49 107.126 50.585 107.392 50.737C107.67 50.889 107.93 51.1043 108.171 51.383C108.424 51.649 108.671 51.991 108.912 52.409L110.926 56H108.399L106.765 53.112C106.6 52.8207 106.435 52.5927 106.271 52.428C106.106 52.2633 105.922 52.1493 105.72 52.086C105.517 52.0227 105.27 51.991 104.979 51.991H103.706V56H101.35ZM120.99 56.19C119.42 56.19 118.191 55.8543 117.304 55.183C116.43 54.5117 115.993 53.5807 115.993 52.39C115.993 51.4527 116.278 50.6737 116.848 50.053C117.418 49.4323 118.159 49.065 119.071 48.951V49.35C118.248 49.1727 117.583 48.7863 117.076 48.191C116.582 47.5957 116.335 46.8737 116.335 46.025C116.335 44.8977 116.747 44.0173 117.57 43.384C118.406 42.738 119.546 42.415 120.99 42.415C122.447 42.415 123.587 42.738 124.41 43.384C125.246 44.0173 125.664 44.8977 125.664 46.025C125.664 46.8737 125.424 47.602 124.942 48.21C124.474 48.818 123.834 49.1917 123.023 49.331V48.951C123.923 49.0777 124.645 49.4513 125.189 50.072C125.734 50.68 126.006 51.4527 126.006 52.39C126.006 53.5807 125.563 54.5117 124.676 55.183C123.802 55.8543 122.574 56.19 120.99 56.19ZM120.99 54.29C121.915 54.29 122.605 54.119 123.061 53.777C123.517 53.4223 123.745 52.903 123.745 52.219C123.745 51.535 123.517 51.022 123.061 50.68C122.605 50.338 121.915 50.167 120.99 50.167C120.078 50.167 119.388 50.338 118.919 50.68C118.463 51.022 118.235 51.535 118.235 52.219C118.235 52.903 118.463 53.4223 118.919 53.777C119.388 54.119 120.078 54.29 120.99 54.29ZM120.99 48.267C121.776 48.267 122.371 48.0897 122.776 47.735C123.194 47.3803 123.403 46.8927 123.403 46.272C123.403 45.664 123.194 45.189 122.776 44.847C122.371 44.4923 121.776 44.315 120.99 44.315C120.218 44.315 119.622 44.4923 119.204 44.847C118.799 45.189 118.596 45.664 118.596 46.272C118.596 46.8927 118.799 47.3803 119.204 47.735C119.622 48.0897 120.218 48.267 120.99 48.267Z" fill="#343434"/>
<path d="M32 0H51V63.2106C51 65.2511 51 66.2714 50.3853 66.5281C49.7707 66.7847 49.0451 66.0675 47.5939 64.6329L43.1314 60.2215C42.4846 59.5821 42.1612 59.2624 41.7585 59.2568C41.3558 59.2512 41.0236 59.5618 40.3593 60.183L35.366 64.8523C33.9245 66.2003 33.2038 66.8743 32.6019 66.6131C32 66.3519 32 65.3651 32 63.3915V0Z" fill="url(#paint0_linear_102_149)"/>
<path d="M34.112 106V89.08H40.88C42.672 89.08 44.056 89.464 45.032 90.232C46.008 91 46.496 92.088 46.496 93.496C46.496 94.552 46.176 95.432 45.536 96.136C44.912 96.84 44.04 97.304 42.92 97.528V97.192C44.168 97.336 45.144 97.768 45.848 98.488C46.568 99.192 46.928 100.144 46.928 101.344C46.928 102.848 46.424 104 45.416 104.8C44.424 105.6 43.016 106 41.192 106H34.112ZM36.056 104.392H41C42.216 104.392 43.176 104.16 43.88 103.696C44.6 103.216 44.96 102.424 44.96 101.32C44.96 100.2 44.6 99.408 43.88 98.944C43.176 98.464 42.216 98.224 41 98.224H36.056V104.392ZM36.056 96.64H40.592C41.904 96.64 42.888 96.384 43.544 95.872C44.2 95.36 44.528 94.624 44.528 93.664C44.528 92.672 44.2 91.928 43.544 91.432C42.888 90.92 41.904 90.664 40.592 90.664H36.056V96.64ZM54.9125 106.216C53.8405 106.216 52.9045 105.968 52.1045 105.472C51.3045 104.96 50.6805 104.24 50.2325 103.312C49.8005 102.384 49.5845 101.272 49.5845 99.976C49.5845 98.664 49.8005 97.544 50.2325 96.616C50.6805 95.688 51.3045 94.976 52.1045 94.48C52.9045 93.984 53.8405 93.736 54.9125 93.736C56.0005 93.736 56.9365 94.016 57.7205 94.576C58.5205 95.12 59.0485 95.864 59.3045 96.808H59.0165L59.2805 93.952H61.1525C61.1045 94.416 61.0565 94.888 61.0085 95.368C60.9765 95.832 60.9605 96.288 60.9605 96.736V106H59.0165V103.168H59.2805C59.0245 104.112 58.4965 104.856 57.6965 105.4C56.8965 105.944 55.9685 106.216 54.9125 106.216ZM55.2965 104.632C56.4485 104.632 57.3605 104.24 58.0325 103.456C58.7045 102.656 59.0405 101.496 59.0405 99.976C59.0405 98.44 58.7045 97.28 58.0325 96.496C57.3605 95.696 56.4485 95.296 55.2965 95.296C54.1605 95.296 53.2485 95.696 52.5605 96.496C51.8885 97.28 51.5525 98.44 51.5525 99.976C51.5525 101.496 51.8885 102.656 52.5605 103.456C53.2485 104.24 54.1605 104.632 55.2965 104.632ZM64.8809 106V93.952H66.7289V104.464H71.8409V93.952H73.6649V104.464H78.7769V93.952H80.6489V106H64.8809ZM84.4981 106V93.952H86.2741V104.2H85.6261L93.3061 93.952H94.9381V106H93.1861V95.728H93.8341L86.1541 106H84.4981ZM104.813 106V93.88H116.165V106H113.189V96.184H107.789V106H104.813ZM125.531 106.24C123.499 106.24 121.907 105.68 120.755 104.56C119.603 103.44 119.027 101.904 119.027 99.952C119.027 98.688 119.275 97.584 119.771 96.64C120.267 95.696 120.955 94.96 121.835 94.432C122.731 93.904 123.771 93.64 124.955 93.64C126.123 93.64 127.099 93.888 127.883 94.384C128.667 94.88 129.259 95.576 129.659 96.472C130.075 97.368 130.283 98.416 130.283 99.616V100.408H121.451V98.824H128.147L127.739 99.16C127.739 98.04 127.499 97.184 127.019 96.592C126.555 96 125.875 95.704 124.979 95.704C123.987 95.704 123.219 96.056 122.675 96.76C122.147 97.464 121.883 98.448 121.883 99.712V100.024C121.883 101.336 122.203 102.32 122.843 102.976C123.499 103.616 124.419 103.936 125.603 103.936C126.291 103.936 126.931 103.848 127.523 103.672C128.131 103.48 128.707 103.176 129.251 102.76L130.139 104.776C129.563 105.24 128.875 105.6 128.075 105.856C127.275 106.112 126.427 106.24 125.531 106.24ZM133.152 111.184V96.904C133.152 96.408 133.136 95.904 133.104 95.392C133.072 94.88 133.024 94.376 132.96 93.88H135.864L136.128 96.424H135.864C136.104 95.576 136.608 94.904 137.376 94.408C138.16 93.896 139.064 93.64 140.088 93.64C141.16 93.64 142.096 93.896 142.896 94.408C143.696 94.904 144.32 95.624 144.768 96.568C145.216 97.496 145.44 98.616 145.44 99.928C145.44 101.24 145.216 102.368 144.768 103.312C144.32 104.256 143.696 104.984 142.896 105.496C142.096 105.992 141.16 106.24 140.088 106.24C139.08 106.24 138.192 105.992 137.424 105.496C136.656 105 136.144 104.336 135.888 103.504H136.152V111.184H133.152ZM139.248 103.936C140.208 103.936 140.976 103.608 141.552 102.952C142.128 102.28 142.416 101.272 142.416 99.928C142.416 98.584 142.128 97.584 141.552 96.928C140.976 96.272 140.208 95.944 139.248 95.944C138.304 95.944 137.544 96.272 136.968 96.928C136.392 97.584 136.104 98.584 136.104 99.928C136.104 101.272 136.392 102.28 136.968 102.952C137.544 103.608 138.304 103.936 139.248 103.936ZM148.267 106V93.88H154.723C156.243 93.88 157.355 94.16 158.059 94.72C158.763 95.264 159.115 96.04 159.115 97.048C159.115 97.816 158.859 98.456 158.347 98.968C157.835 99.48 157.155 99.8 156.307 99.928V99.592C157.347 99.656 158.147 99.96 158.707 100.504C159.267 101.048 159.547 101.752 159.547 102.616C159.547 103.656 159.147 104.48 158.347 105.088C157.547 105.696 156.411 106 154.939 106H148.267ZM151.051 104.152H154.627C155.331 104.152 155.867 104.008 156.235 103.72C156.619 103.432 156.811 103.008 156.811 102.448C156.811 101.888 156.619 101.464 156.235 101.176C155.867 100.888 155.331 100.744 154.627 100.744H151.051V104.152ZM151.051 98.896H154.363C155.003 98.896 155.499 98.76 155.851 98.488C156.203 98.2 156.379 97.8 156.379 97.288C156.379 96.776 156.203 96.384 155.851 96.112C155.499 95.84 155.003 95.704 154.363 95.704H151.051V98.896ZM162.165 106V93.88H165.141V97.936H168.333C169.949 97.936 171.165 98.28 171.981 98.968C172.797 99.64 173.205 100.616 173.205 101.896C173.205 102.728 173.013 103.456 172.629 104.08C172.245 104.688 171.685 105.16 170.949 105.496C170.229 105.832 169.357 106 168.333 106H162.165ZM165.141 104.032H167.925C168.741 104.032 169.365 103.864 169.797 103.528C170.229 103.176 170.445 102.648 170.445 101.944C170.445 101.24 170.229 100.728 169.797 100.408C169.381 100.072 168.757 99.904 167.925 99.904H165.141V104.032ZM174.717 106V93.88H177.693V106H174.717ZM187.054 106.24C185.022 106.24 183.43 105.68 182.278 104.56C181.126 103.44 180.55 101.904 180.55 99.952C180.55 98.688 180.798 97.584 181.294 96.64C181.79 95.696 182.478 94.96 183.358 94.432C184.254 93.904 185.294 93.64 186.478 93.64C187.646 93.64 188.622 93.888 189.406 94.384C190.19 94.88 190.782 95.576 191.182 96.472C191.598 97.368 191.806 98.416 191.806 99.616V100.408H182.974V98.824H189.67L189.262 99.16C189.262 98.04 189.022 97.184 188.542 96.592C188.078 96 187.398 95.704 186.502 95.704C185.51 95.704 184.742 96.056 184.198 96.76C183.67 97.464 183.406 98.448 183.406 99.712V100.024C183.406 101.336 183.726 102.32 184.366 102.976C185.022 103.616 185.942 103.936 187.126 103.936C187.814 103.936 188.454 103.848 189.046 103.672C189.654 103.48 190.23 103.176 190.774 102.76L191.662 104.776C191.086 105.24 190.398 105.6 189.598 105.856C188.798 106.112 187.95 106.24 187.054 106.24ZM31.88 131L34.424 126.464C34.744 125.936 35.048 125.504 35.336 125.168C35.64 124.816 35.968 124.544 36.32 124.352C36.672 124.16 37.072 124.04 37.52 123.992L36.896 124.928L32.408 118.88H35.624L39.2 123.632H40.712V118.88H43.688V123.632H45.176L48.728 118.88H51.968L47.456 124.928L46.832 123.992C47.28 124.04 47.68 124.16 48.032 124.352C48.384 124.544 48.712 124.816 49.016 125.168C49.336 125.504 49.648 125.936 49.952 126.464L52.496 131H49.304L47.24 127.352C47.032 126.984 46.824 126.696 46.616 126.488C46.408 126.28 46.176 126.136 45.92 126.056C45.664 125.976 45.352 125.936 44.984 125.936H43.688V131H40.712V125.936H39.392C39.024 125.936 38.712 125.976 38.456 126.056C38.2 126.136 37.968 126.28 37.76 126.488C37.568 126.696 37.36 126.984 37.136 127.352L35.072 131H31.88ZM60.0232 131.24C57.9912 131.24 56.3992 130.68 55.2472 129.56C54.0952 128.44 53.5192 126.904 53.5192 124.952C53.5192 123.688 53.7672 122.584 54.2632 121.64C54.7592 120.696 55.4472 119.96 56.3272 119.432C57.2232 118.904 58.2632 118.64 59.4472 118.64C60.6152 118.64 61.5912 118.888 62.3752 119.384C63.1592 119.88 63.7512 120.576 64.1512 121.472C64.5672 122.368 64.7752 123.416 64.7752 124.616V125.408H55.9432V123.824H62.6392L62.2312 124.16C62.2312 123.04 61.9912 122.184 61.5112 121.592C61.0472 121 60.3672 120.704 59.4712 120.704C58.4792 120.704 57.7112 121.056 57.1672 121.76C56.6392 122.464 56.3752 123.448 56.3752 124.712V125.024C56.3752 126.336 56.6952 127.32 57.3352 127.976C57.9912 128.616 58.9112 128.936 60.0952 128.936C60.7832 128.936 61.4232 128.848 62.0152 128.672C62.6232 128.48 63.1992 128.176 63.7432 127.76L64.6312 129.776C64.0552 130.24 63.3672 130.6 62.5672 130.856C61.7672 131.112 60.9192 131.24 60.0232 131.24ZM67.5478 131V118.88H70.5238V123.632H75.9958V118.88H78.9718V131H75.9958V125.936H70.5238V131H67.5478ZM88.0477 131.24C86.7997 131.24 85.7037 130.984 84.7597 130.472C83.8317 129.96 83.1117 129.232 82.5997 128.288C82.0877 127.328 81.8317 126.192 81.8317 124.88C81.8317 123.568 82.0877 122.448 82.5997 121.52C83.1277 120.592 83.8557 119.88 84.7837 119.384C85.7117 118.888 86.7997 118.64 88.0477 118.64C88.8477 118.64 89.6237 118.768 90.3757 119.024C91.1437 119.264 91.7677 119.616 92.2477 120.08L91.3357 122.168C90.9037 121.768 90.4157 121.472 89.8717 121.28C89.3437 121.072 88.8237 120.968 88.3117 120.968C87.2397 120.968 86.3997 121.304 85.7917 121.976C85.1997 122.648 84.9037 123.624 84.9037 124.904C84.9037 126.184 85.1997 127.168 85.7917 127.856C86.3997 128.544 87.2397 128.888 88.3117 128.888C88.8077 128.888 89.3197 128.792 89.8477 128.6C90.3917 128.408 90.8877 128.112 91.3357 127.712L92.2477 129.776C91.7517 130.24 91.1197 130.6 90.3517 130.856C89.5997 131.112 88.8317 131.24 88.0477 131.24ZM94.8056 131V118.88H97.7816V123.632H99.6056L103.158 118.88H106.374L101.91 124.928L101.262 123.992C101.71 124.04 102.102 124.16 102.438 124.352C102.79 124.544 103.118 124.816 103.422 125.168C103.742 125.504 104.054 125.936 104.358 126.464L106.902 131H103.71L101.646 127.352C101.438 126.984 101.23 126.696 101.022 126.488C100.814 126.28 100.582 126.136 100.326 126.056C100.07 125.976 99.7576 125.936 99.3896 125.936H97.7816V131H94.8056ZM108.493 131V118.88H111.205V128.048H110.485L117.373 118.88H119.845V131H117.133V121.808H117.877L110.965 131H108.493ZM129.211 131.24C127.179 131.24 125.587 130.68 124.435 129.56C123.283 128.44 122.707 126.904 122.707 124.952C122.707 123.688 122.955 122.584 123.451 121.64C123.947 120.696 124.635 119.96 125.515 119.432C126.411 118.904 127.451 118.64 128.635 118.64C129.803 118.64 130.779 118.888 131.563 119.384C132.347 119.88 132.939 120.576 133.339 121.472C133.755 122.368 133.963 123.416 133.963 124.616V125.408H125.131V123.824H131.827L131.419 124.16C131.419 123.04 131.179 122.184 130.699 121.592C130.235 121 129.555 120.704 128.659 120.704C127.667 120.704 126.899 121.056 126.355 121.76C125.827 122.464 125.563 123.448 125.563 124.712V125.024C125.563 126.336 125.883 127.32 126.523 127.976C127.179 128.616 128.099 128.936 129.283 128.936C129.971 128.936 130.611 128.848 131.203 128.672C131.811 128.48 132.387 128.176 132.931 127.76L133.819 129.776C133.243 130.24 132.555 130.6 131.755 130.856C130.955 131.112 130.107 131.24 129.211 131.24ZM142.241 134.12V128.72H143.633C144.113 127.968 144.457 127.088 144.665 126.08C144.889 125.056 145.001 123.808 145.001 122.336V118.88H154.337V128.72H156.305V134.12H153.761V131H144.785V134.12H142.241ZM146.321 128.744H151.529V121.136H147.545V123.008C147.545 124.08 147.441 125.128 147.233 126.152C147.025 127.176 146.721 128.04 146.321 128.744ZM164.461 131.24C162.429 131.24 160.837 130.68 159.685 129.56C158.533 128.44 157.957 126.904 157.957 124.952C157.957 123.688 158.205 122.584 158.701 121.64C159.197 120.696 159.885 119.96 160.765 119.432C161.661 118.904 162.701 118.64 163.885 118.64C165.053 118.64 166.029 118.888 166.813 119.384C167.597 119.88 168.189 120.576 168.589 121.472C169.005 122.368 169.213 123.416 169.213 124.616V125.408H160.381V123.824H167.077L166.669 124.16C166.669 123.04 166.429 122.184 165.949 121.592C165.485 121 164.805 120.704 163.909 120.704C162.917 120.704 162.149 121.056 161.605 121.76C161.077 122.464 160.813 123.448 160.813 124.712V125.024C160.813 126.336 161.133 127.32 161.773 127.976C162.429 128.616 163.349 128.936 164.533 128.936C165.221 128.936 165.861 128.848 166.453 128.672C167.061 128.48 167.637 128.176 168.181 127.76L169.069 129.776C168.493 130.24 167.805 130.6 167.005 130.856C166.205 131.112 165.357 131.24 164.461 131.24ZM171.985 131V118.88H174.961V123.632H180.433V118.88H183.409V131H180.433V125.936H174.961V131H171.985ZM186.821 131V118.88H189.797V122.936H192.989C194.605 122.936 195.821 123.28 196.637 123.968C197.453 124.64 197.861 125.616 197.861 126.896C197.861 127.728 197.669 128.456 197.285 129.08C196.901 129.688 196.341 130.16 195.605 130.496C194.885 130.832 194.013 131 192.989 131H186.821ZM189.797 129.032H192.581C193.397 129.032 194.021 128.864 194.453 128.528C194.885 128.176 195.101 127.648 195.101 126.944C195.101 126.24 194.885 125.728 194.453 125.408C194.037 125.072 193.413 124.904 192.581 124.904H189.797V129.032ZM200.368 131V118.88H209.464V121.232H203.368V131H200.368ZM211.571 131V118.88H214.283V128.048H213.563L220.451 118.88H222.923V131H220.211V121.808H220.955L214.043 131H211.571Z" fill="#343434"/>
</g>
<defs>
<linearGradient id="paint0_linear_102_149" x1="41.5" y1="0" x2="41.5" y2="68" gradientUnits="userSpaceOnUse">
<stop stop-color="white" stop-opacity="0.16"/>
<stop offset="1" stop-color="white"/>
</linearGradient>
<clipPath id="clip0_102_149">
<rect width="340" height="192" rx="16" fill="white"/>
</clipPath>
</defs>
</svg>
