<svg width="340" height="192" viewBox="0 0 340 192" fill="none" xmlns="http://www.w3.org/2000/svg">
<g clip-path="url(#clip0_102_107)">
<rect width="340" height="192" rx="16" fill="#F0D3D3"/>
<circle cx="308" cy="32" r="64" fill="white" fill-opacity="0.64"/>
<path d="M289.009 59.0379C288.542 57.6013 288.222 56.1633 288.051 54.724C287.879 53.2847 287.846 51.6941 287.952 49.9522L281.024 48.0958C281.521 50.5238 282.442 52.6555 283.786 54.4909C285.13 56.3264 286.871 57.842 289.009 59.0379ZM280.844 45.0971L288.185 47.0641C288.29 46.3054 288.407 45.6237 288.537 45.0191C288.666 44.4144 288.833 43.7297 289.038 42.9651C289.21 42.3227 289.392 41.6748 289.583 41.0212C289.775 40.3677 290.027 39.6403 290.34 38.839L283.045 36.8843C282.634 37.561 282.307 38.2027 282.062 38.8092C281.818 39.4158 281.589 40.1167 281.376 40.912C281.163 41.7072 281.016 42.4057 280.937 43.0074C280.858 43.609 280.827 44.3056 280.844 45.0971ZM284.7 34.3773L291.582 36.2214C292.4 34.6374 293.265 33.2462 294.176 32.0479C295.087 30.8496 296.081 29.7717 297.157 28.8143C294.319 29.0047 291.97 29.5143 290.109 30.3433C288.247 31.1724 286.445 32.517 284.7 34.3773ZM294.427 36.9836L303.282 39.3563C303.348 37.2758 303.212 35.428 302.874 33.8131C302.537 32.1982 301.98 30.6967 301.204 29.3087C299.831 30.1536 298.588 31.2138 297.475 32.4894C296.363 33.765 295.347 35.2631 294.427 36.9836ZM306.127 40.1185L312.963 41.9503C312.425 39.6753 311.466 37.5986 310.084 35.7203C308.702 33.842 307.004 32.256 304.99 30.9624C305.444 32.3296 305.758 33.7579 305.932 35.2472C306.107 36.7365 306.172 38.3602 306.127 40.1185ZM292.082 63.3527C289.513 62.6643 287.237 61.5544 285.254 60.0232C283.271 58.492 281.675 56.6792 280.466 54.5849C279.257 52.4906 278.475 50.2076 278.121 47.7359C277.767 45.2642 277.934 42.7437 278.623 40.1743C279.311 37.605 280.431 35.3232 281.981 33.3291C283.532 31.335 285.354 29.7334 287.449 28.5242C289.543 27.3151 291.836 26.5279 294.327 26.1627C296.818 25.7975 299.348 25.9591 301.918 26.6475C304.487 27.336 306.759 28.4611 308.734 30.023C310.708 31.5848 312.3 33.4128 313.509 35.5071C314.719 37.6015 315.496 39.8997 315.842 42.402C316.188 44.9043 316.016 47.4401 315.328 50.0095C315.189 50.5294 315.034 51.0453 314.864 51.5571C314.694 52.0689 314.494 52.5725 314.263 53.0679L311.418 52.3057C311.68 51.8185 311.897 51.344 312.07 50.8822C312.243 50.4204 312.411 49.8836 312.575 49.2718C312.788 48.4765 312.94 47.7551 313.032 47.1076C313.124 46.4601 313.161 45.7406 313.143 44.9491L305.802 42.9821C305.648 43.9243 305.514 44.6998 305.4 45.3085C305.286 45.9173 305.139 46.5581 304.959 47.231C304.844 47.6593 304.72 48.0931 304.585 48.5325C304.451 48.9719 304.251 49.5658 303.985 50.3141L301.186 49.5642C301.42 48.9382 301.613 48.3999 301.767 47.9493C301.92 47.4987 302.067 47.0134 302.206 46.4934C302.378 45.8511 302.529 45.2276 302.658 44.6229C302.787 44.0183 302.918 43.2254 303.049 42.2444L293.185 39.6012C292.808 40.5167 292.525 41.2685 292.335 41.8568C292.144 42.445 291.963 43.0603 291.791 43.7027C291.627 44.3144 291.484 44.9073 291.363 45.4814C291.242 46.0555 291.116 46.833 290.984 47.814L299.105 49.99L298.368 52.7429L290.751 50.7021C290.748 53.1601 290.903 55.1522 291.215 56.6784C291.528 58.2045 292.063 59.5117 292.82 60.5998C293.643 60.099 294.432 59.5074 295.189 58.825C295.945 58.1425 296.657 57.4152 297.323 56.6429L295.368 63.938C294.823 63.8904 294.277 63.8179 293.73 63.7203C293.182 63.6228 292.633 63.5002 292.082 63.3527ZM307.152 65.4728L302.853 58.0264L301.587 62.7521L298.834 62.0145L301.366 52.5629L310.818 55.0955L310.08 57.8484L305.309 56.5698L309.608 64.0162L307.152 65.4728Z" fill="#343434"/>
<path d="M68.235 60.313L67.684 58.432C68.2793 58.3053 68.7797 58.1597 69.185 57.995C69.5903 57.8303 69.926 57.615 70.192 57.349C70.458 57.083 70.6797 56.741 70.857 56.323L71.332 55.202L71.275 56.133L67.095 46.405H69.622L72.624 53.891H72.073L75.094 46.405H77.488L73.118 56.532C72.8267 57.216 72.51 57.7797 72.168 58.223C71.826 58.679 71.4587 59.04 71.066 59.306C70.6733 59.5847 70.2427 59.8 69.774 59.952C69.3053 60.104 68.7923 60.2243 68.235 60.313ZM78.6212 60.104V48.799C78.6212 48.4063 78.6085 48.0073 78.5832 47.602C78.5578 47.1967 78.5198 46.7977 78.4692 46.405H80.7682L80.9772 48.419H80.7682C80.9582 47.7477 81.3572 47.2157 81.9652 46.823C82.5858 46.4177 83.3015 46.215 84.1122 46.215C84.9608 46.215 85.7018 46.4177 86.3352 46.823C86.9685 47.2157 87.4625 47.7857 87.8172 48.533C88.1718 49.2677 88.3492 50.1543 88.3492 51.193C88.3492 52.2317 88.1718 53.1247 87.8172 53.872C87.4625 54.6193 86.9685 55.1957 86.3352 55.601C85.7018 55.9937 84.9608 56.19 84.1122 56.19C83.3142 56.19 82.6112 55.9937 82.0032 55.601C81.3952 55.2083 80.9898 54.6827 80.7872 54.024H80.9962V60.104H78.6212ZM83.4472 54.366C84.2072 54.366 84.8152 54.1063 85.2712 53.587C85.7272 53.055 85.9552 52.257 85.9552 51.193C85.9552 50.129 85.7272 49.3373 85.2712 48.818C84.8152 48.2987 84.2072 48.039 83.4472 48.039C82.6998 48.039 82.0982 48.2987 81.6422 48.818C81.1862 49.3373 80.9582 50.129 80.9582 51.193C80.9582 52.257 81.1862 53.055 81.6422 53.587C82.0982 54.1063 82.6998 54.366 83.4472 54.366ZM94.6152 56.19C93.6272 56.19 92.7722 55.9873 92.0502 55.582C91.3282 55.1767 90.7645 54.6003 90.3592 53.853C89.9665 53.1057 89.7702 52.219 89.7702 51.193C89.7702 50.167 89.9665 49.2867 90.3592 48.552C90.7645 47.8047 91.3282 47.2283 92.0502 46.823C92.7722 46.4177 93.6272 46.215 94.6152 46.215C95.6032 46.215 96.4582 46.4177 97.1802 46.823C97.9148 47.2283 98.4785 47.8047 98.8712 48.552C99.2765 49.2867 99.4792 50.167 99.4792 51.193C99.4792 52.219 99.2765 53.1057 98.8712 53.853C98.4785 54.6003 97.9148 55.1767 97.1802 55.582C96.4582 55.9873 95.6032 56.19 94.6152 56.19ZM94.6152 54.366C95.3625 54.366 95.9578 54.1063 96.4012 53.587C96.8445 53.055 97.0662 52.257 97.0662 51.193C97.0662 50.129 96.8445 49.3373 96.4012 48.818C95.9578 48.2987 95.3625 48.039 94.6152 48.039C93.8678 48.039 93.2725 48.2987 92.8292 48.818C92.3858 49.3373 92.1642 50.129 92.1642 51.193C92.1642 52.257 92.3858 53.055 92.8292 53.587C93.2725 54.1063 93.8678 54.366 94.6152 54.366ZM101.35 56V46.405H103.706V50.167H105.15L107.962 46.405H110.508L106.974 51.193L106.461 50.452C106.815 50.49 107.126 50.585 107.392 50.737C107.67 50.889 107.93 51.1043 108.171 51.383C108.424 51.649 108.671 51.991 108.912 52.409L110.926 56H108.399L106.765 53.112C106.6 52.8207 106.435 52.5927 106.271 52.428C106.106 52.2633 105.922 52.1493 105.72 52.086C105.517 52.0227 105.27 51.991 104.979 51.991H103.706V56H101.35ZM120.781 56.19C119.857 56.19 118.97 56.057 118.121 55.791C117.273 55.5123 116.576 55.1323 116.031 54.651L116.829 52.808C117.425 53.264 118.039 53.5997 118.672 53.815C119.318 54.0303 119.996 54.138 120.705 54.138C121.567 54.138 122.219 53.967 122.662 53.625C123.106 53.283 123.327 52.7827 123.327 52.124C123.327 51.4907 123.106 51.0157 122.662 50.699C122.232 50.3697 121.598 50.205 120.762 50.205H118.596V48.248H120.553C121.275 48.248 121.852 48.0707 122.282 47.716C122.713 47.3613 122.928 46.8737 122.928 46.253C122.928 45.6703 122.726 45.227 122.32 44.923C121.928 44.619 121.358 44.467 120.61 44.467C119.268 44.467 118.083 44.923 117.057 45.835L116.259 44.011C116.804 43.5043 117.475 43.1117 118.273 42.833C119.084 42.5543 119.933 42.415 120.819 42.415C122.213 42.415 123.302 42.7317 124.087 43.365C124.885 43.9857 125.284 44.8533 125.284 45.968C125.284 46.766 125.056 47.4563 124.6 48.039C124.157 48.609 123.543 48.989 122.757 49.179V48.951C123.682 49.103 124.398 49.483 124.904 50.091C125.424 50.6863 125.683 51.4337 125.683 52.333C125.683 53.5237 125.246 54.4673 124.372 55.164C123.498 55.848 122.301 56.19 120.781 56.19Z" fill="#343434"/>
<path d="M32 0H51V63.2106C51 65.2511 51 66.2714 50.3853 66.5281C49.7707 66.7847 49.0451 66.0675 47.5939 64.6329L43.1314 60.2215C42.4846 59.5821 42.1612 59.2624 41.7585 59.2568C41.3558 59.2512 41.0236 59.5618 40.3593 60.183L35.366 64.8523C33.9245 66.2003 33.2038 66.8743 32.6019 66.6131C32 66.3519 32 65.3651 32 63.3915V0Z" fill="url(#paint0_linear_102_107)"/>
<path d="M34.112 106V89.08H36.056V96.616H39.512L38.912 97L44.336 89.08H46.568L40.832 97.336L40.112 96.712C41.136 96.824 42 97.168 42.704 97.744C43.408 98.304 44.024 99.096 44.552 100.12L47.504 106H45.344L42.92 101.032C42.456 100.04 41.904 99.336 41.264 98.92C40.64 98.504 39.864 98.296 38.936 98.296H36.056V106H34.112ZM54.3734 106.216C53.3014 106.216 52.3654 105.968 51.5654 105.472C50.7654 104.96 50.1414 104.24 49.6934 103.312C49.2614 102.384 49.0454 101.272 49.0454 99.976C49.0454 98.664 49.2614 97.544 49.6934 96.616C50.1414 95.688 50.7654 94.976 51.5654 94.48C52.3654 93.984 53.3014 93.736 54.3734 93.736C55.4614 93.736 56.3974 94.016 57.1814 94.576C57.9814 95.12 58.5094 95.864 58.7654 96.808H58.4774L58.7414 93.952H60.6134C60.5654 94.416 60.5174 94.888 60.4694 95.368C60.4374 95.832 60.4214 96.288 60.4214 96.736V106H58.4774V103.168H58.7414C58.4854 104.112 57.9574 104.856 57.1574 105.4C56.3574 105.944 55.4294 106.216 54.3734 106.216ZM54.7574 104.632C55.9094 104.632 56.8214 104.24 57.4934 103.456C58.1654 102.656 58.5014 101.496 58.5014 99.976C58.5014 98.44 58.1654 97.28 57.4934 96.496C56.8214 95.696 55.9094 95.296 54.7574 95.296C53.6214 95.296 52.7094 95.696 52.0214 96.496C51.3494 97.28 51.0134 98.44 51.0134 99.976C51.0134 101.496 51.3494 102.656 52.0214 103.456C52.7094 104.24 53.6214 104.632 54.7574 104.632ZM64.3419 106V93.952H66.2859V99.016H68.5659L72.5499 93.952H74.6859L70.1259 99.784L69.5979 99.184C70.0619 99.232 70.4619 99.344 70.7979 99.52C71.1339 99.696 71.4539 99.96 71.7579 100.312C72.0779 100.664 72.4219 101.152 72.7899 101.776L75.2859 106H73.1979L70.9899 102.256C70.7179 101.792 70.4539 101.44 70.1979 101.2C69.9579 100.96 69.6779 100.792 69.3579 100.696C69.0539 100.6 68.6699 100.552 68.2059 100.552H66.2859V106H64.3419ZM83.1298 111.448L82.6738 109.84C83.4258 109.664 84.0498 109.456 84.5458 109.216C85.0578 108.992 85.4818 108.688 85.8178 108.304C86.1538 107.92 86.4418 107.44 86.6818 106.864L87.3058 105.448L87.2578 106.264L82.0018 93.952H84.1138L88.4578 104.536H87.8338L92.1298 93.952H94.1698L88.6018 107.008C88.2818 107.776 87.9298 108.416 87.5458 108.928C87.1618 109.456 86.7458 109.88 86.2978 110.2C85.8658 110.536 85.3858 110.8 84.8578 110.992C84.3298 111.184 83.7538 111.336 83.1298 111.448ZM101.518 106.216C100.334 106.216 99.3015 105.96 98.4215 105.448C97.5575 104.936 96.8855 104.208 96.4055 103.264C95.9415 102.32 95.7095 101.2 95.7095 99.904C95.7095 98.592 95.9495 97.48 96.4295 96.568C96.9095 95.64 97.5815 94.936 98.4455 94.456C99.3255 93.976 100.35 93.736 101.518 93.736C102.286 93.736 103.03 93.872 103.75 94.144C104.486 94.416 105.094 94.8 105.574 95.296L104.878 96.688C104.398 96.224 103.87 95.88 103.294 95.656C102.734 95.432 102.182 95.32 101.638 95.32C100.39 95.32 99.4215 95.712 98.7335 96.496C98.0455 97.28 97.7015 98.424 97.7015 99.928C97.7015 101.416 98.0455 102.568 98.7335 103.384C99.4215 104.2 100.39 104.608 101.638 104.608C102.166 104.608 102.71 104.504 103.27 104.296C103.846 104.088 104.382 103.744 104.878 103.264L105.574 104.632C105.078 105.144 104.462 105.536 103.726 105.808C102.99 106.08 102.254 106.216 101.518 106.216ZM111.043 106V95.512H106.675V93.952H117.379V95.512H112.987V106H111.043ZM119.493 111.184V96.736C119.493 96.288 119.469 95.832 119.421 95.368C119.389 94.888 119.349 94.416 119.301 93.952H121.173L121.437 96.808H121.149C121.405 95.864 121.925 95.12 122.709 94.576C123.493 94.016 124.429 93.736 125.517 93.736C126.605 93.736 127.541 93.984 128.325 94.48C129.125 94.976 129.749 95.688 130.197 96.616C130.645 97.544 130.869 98.664 130.869 99.976C130.869 101.272 130.645 102.384 130.197 103.312C129.765 104.24 129.149 104.96 128.349 105.472C127.549 105.968 126.605 106.216 125.517 106.216C124.445 106.216 123.517 105.944 122.733 105.4C121.949 104.856 121.429 104.112 121.173 103.168H121.437V111.184H119.493ZM125.133 104.632C126.285 104.632 127.197 104.24 127.869 103.456C128.557 102.656 128.901 101.496 128.901 99.976C128.901 98.44 128.557 97.28 127.869 96.496C127.197 95.696 126.285 95.296 125.133 95.296C123.997 95.296 123.085 95.696 122.397 96.496C121.725 97.28 121.389 98.44 121.389 99.976C121.389 101.496 121.725 102.656 122.397 103.456C123.085 104.24 123.997 104.632 125.133 104.632ZM139.085 106.216C137.933 106.216 136.925 105.968 136.061 105.472C135.213 104.96 134.557 104.24 134.093 103.312C133.629 102.368 133.397 101.256 133.397 99.976C133.397 98.68 133.629 97.568 134.093 96.64C134.557 95.712 135.213 95 136.061 94.504C136.925 93.992 137.933 93.736 139.085 93.736C140.253 93.736 141.261 93.992 142.109 94.504C142.973 95 143.637 95.712 144.101 96.64C144.581 97.568 144.821 98.68 144.821 99.976C144.821 101.256 144.581 102.368 144.101 103.312C143.637 104.24 142.973 104.96 142.109 105.472C141.261 105.968 140.253 106.216 139.085 106.216ZM139.085 104.632C140.237 104.632 141.149 104.24 141.821 103.456C142.493 102.656 142.829 101.496 142.829 99.976C142.829 98.44 142.485 97.28 141.797 96.496C141.125 95.696 140.221 95.296 139.085 95.296C137.949 95.296 137.045 95.696 136.373 96.496C135.701 97.28 135.365 98.44 135.365 99.976C135.365 101.496 135.701 102.656 136.373 103.456C137.045 104.24 137.949 104.632 139.085 104.632ZM153.438 106.216C151.55 106.216 150.062 105.672 148.974 104.584C147.886 103.48 147.342 101.952 147.342 100C147.342 98.736 147.582 97.64 148.062 96.712C148.542 95.768 149.214 95.04 150.078 94.528C150.942 94 151.934 93.736 153.054 93.736C154.158 93.736 155.086 93.968 155.838 94.432C156.59 94.896 157.166 95.56 157.566 96.424C157.966 97.272 158.166 98.28 158.166 99.448V100.168H148.83V98.944H156.894L156.486 99.256C156.486 97.976 156.198 96.976 155.622 96.256C155.046 95.536 154.19 95.176 153.054 95.176C151.854 95.176 150.918 95.6 150.246 96.448C149.574 97.28 149.238 98.408 149.238 99.832V100.048C149.238 101.552 149.606 102.696 150.342 103.48C151.094 104.248 152.142 104.632 153.486 104.632C154.206 104.632 154.878 104.528 155.502 104.32C156.142 104.096 156.75 103.736 157.326 103.24L157.998 104.608C157.47 105.12 156.798 105.52 155.982 105.808C155.182 106.08 154.334 106.216 153.438 106.216ZM161.279 106V93.952H163.223V98.992H169.847V93.952H171.791V106H169.847V100.552H163.223V106H161.279ZM181.665 106V93.88H184.161L188.337 101.128L192.513 93.88H195.009V106H192.369V97.24H192.921L189.033 104.032H187.641L183.753 97.24H184.305V106H181.665ZM198.423 106V93.88H201.135V103.048H200.415L207.303 93.88H209.775V106H207.063V96.808H207.807L200.895 106H198.423ZM213.284 111.184V96.904C213.284 96.408 213.268 95.904 213.236 95.392C213.204 94.88 213.156 94.376 213.092 93.88H215.996L216.26 96.424H215.996C216.236 95.576 216.74 94.904 217.508 94.408C218.292 93.896 219.196 93.64 220.22 93.64C221.292 93.64 222.228 93.896 223.028 94.408C223.828 94.904 224.452 95.624 224.9 96.568C225.348 97.496 225.572 98.616 225.572 99.928C225.572 101.24 225.348 102.368 224.9 103.312C224.452 104.256 223.828 104.984 223.028 105.496C222.228 105.992 221.292 106.24 220.22 106.24C219.212 106.24 218.324 105.992 217.556 105.496C216.788 105 216.276 104.336 216.02 103.504H216.284V111.184H213.284ZM219.38 103.936C220.34 103.936 221.108 103.608 221.684 102.952C222.26 102.28 222.548 101.272 222.548 99.928C222.548 98.584 222.26 97.584 221.684 96.928C221.108 96.272 220.34 95.944 219.38 95.944C218.436 95.944 217.676 96.272 217.1 96.928C216.524 97.584 216.236 98.584 216.236 99.928C216.236 101.272 216.524 102.28 217.1 102.952C217.676 103.608 218.436 103.936 219.38 103.936ZM39.272 131.24C38.024 131.24 36.944 130.984 36.032 130.472C35.12 129.96 34.408 129.232 33.896 128.288C33.4 127.344 33.152 126.224 33.152 124.928C33.152 123.632 33.4 122.52 33.896 121.592C34.408 120.648 35.12 119.92 36.032 119.408C36.944 118.896 38.024 118.64 39.272 118.64C40.52 118.64 41.6 118.896 42.512 119.408C43.44 119.92 44.152 120.648 44.648 121.592C45.16 122.52 45.416 123.632 45.416 124.928C45.416 126.224 45.16 127.344 44.648 128.288C44.152 129.232 43.44 129.96 42.512 130.472C41.6 130.984 40.52 131.24 39.272 131.24ZM39.272 128.936C40.216 128.936 40.968 128.608 41.528 127.952C42.088 127.28 42.368 126.272 42.368 124.928C42.368 123.584 42.088 122.584 41.528 121.928C40.968 121.272 40.216 120.944 39.272 120.944C38.328 120.944 37.576 121.272 37.016 121.928C36.456 122.584 36.176 123.584 36.176 124.928C36.176 126.272 36.456 127.28 37.016 127.952C37.576 128.608 38.328 128.936 39.272 128.936ZM48.2587 131V118.88H51.2347V123.632H56.7067V118.88H59.6827V131H56.7067V125.936H51.2347V131H48.2587ZM62.7826 131.336L61.8466 128.984C62.3746 128.792 62.8146 128.544 63.1666 128.24C63.5346 127.92 63.8226 127.52 64.0306 127.04C64.2546 126.544 64.4146 125.936 64.5106 125.216C64.6066 124.48 64.6546 123.608 64.6546 122.6V118.88H74.3026V131H71.3266V121.184H67.3906V122.696C67.3906 124.44 67.2306 125.904 66.9106 127.088C66.5906 128.256 66.0946 129.184 65.4226 129.872C64.7506 130.56 63.8706 131.048 62.7826 131.336ZM82.4956 131.24C81.4396 131.24 80.5116 130.992 79.7116 130.496C78.9116 129.984 78.2876 129.256 77.8396 128.312C77.3916 127.368 77.1676 126.24 77.1676 124.928C77.1676 123.616 77.3916 122.496 77.8396 121.568C78.2876 120.624 78.9116 119.904 79.7116 119.408C80.5116 118.896 81.4396 118.64 82.4956 118.64C83.5196 118.64 84.4156 118.896 85.1836 119.408C85.9676 119.904 86.4876 120.576 86.7436 121.424H86.4796L86.7436 118.88H89.6236C89.5756 119.376 89.5276 119.88 89.4796 120.392C89.4476 120.904 89.4316 121.408 89.4316 121.904V131H86.4556L86.4316 128.504H86.7196C86.4636 129.336 85.9436 130 85.1596 130.496C84.3756 130.992 83.4876 131.24 82.4956 131.24ZM83.3356 128.936C84.2796 128.936 85.0396 128.608 85.6156 127.952C86.1916 127.28 86.4796 126.272 86.4796 124.928C86.4796 123.584 86.1916 122.584 85.6156 121.928C85.0396 121.272 84.2796 120.944 83.3356 120.944C82.3916 120.944 81.6316 121.272 81.0556 121.928C80.4796 122.584 80.1916 123.584 80.1916 124.928C80.1916 126.272 80.4716 127.28 81.0316 127.952C81.6076 128.608 82.3756 128.936 83.3356 128.936ZM92.9306 131V118.88H95.6426V128.048H94.9226L101.811 118.88H104.283V131H101.571V121.808H102.315L95.4026 131H92.9306ZM98.5946 117.776C97.7946 117.776 97.0906 117.648 96.4826 117.392C95.8746 117.12 95.3706 116.744 94.9706 116.264C94.5706 115.768 94.2826 115.184 94.1066 114.512L95.6426 113.984C95.9146 114.72 96.2906 115.264 96.7706 115.616C97.2506 115.952 97.8666 116.12 98.6186 116.12C99.3706 116.12 99.9866 115.952 100.467 115.616C100.947 115.28 101.339 114.744 101.643 114.008L103.107 114.512C102.771 115.584 102.211 116.4 101.427 116.96C100.659 117.504 99.7146 117.776 98.5946 117.776ZM107.696 131V118.88H110.672V123.632H116.144V118.88H119.12V131H116.144V125.936H110.672V131H107.696ZM127.308 131.24C126.252 131.24 125.324 130.992 124.524 130.496C123.724 129.984 123.1 129.256 122.652 128.312C122.204 127.368 121.98 126.24 121.98 124.928C121.98 123.616 122.204 122.496 122.652 121.568C123.1 120.624 123.724 119.904 124.524 119.408C125.324 118.896 126.252 118.64 127.308 118.64C128.332 118.64 129.228 118.896 129.996 119.408C130.78 119.904 131.3 120.576 131.556 121.424H131.292L131.556 118.88H134.436C134.388 119.376 134.34 119.88 134.292 120.392C134.26 120.904 134.244 121.408 134.244 121.904V131H131.268L131.244 128.504H131.532C131.276 129.336 130.756 130 129.972 130.496C129.188 130.992 128.3 131.24 127.308 131.24ZM128.148 128.936C129.092 128.936 129.852 128.608 130.428 127.952C131.004 127.28 131.292 126.272 131.292 124.928C131.292 123.584 131.004 122.584 130.428 121.928C129.852 121.272 129.092 120.944 128.148 120.944C127.204 120.944 126.444 121.272 125.868 121.928C125.292 122.584 125.004 123.584 125.004 124.928C125.004 126.272 125.284 127.28 125.844 127.952C126.42 128.608 127.188 128.936 128.148 128.936Z" fill="#343434"/>
</g>
<defs>
<linearGradient id="paint0_linear_102_107" x1="41.5" y1="0" x2="41.5" y2="68" gradientUnits="userSpaceOnUse">
<stop stop-color="white" stop-opacity="0.16"/>
<stop offset="1" stop-color="white"/>
</linearGradient>
<clipPath id="clip0_102_107">
<rect width="340" height="192" rx="16" fill="white"/>
</clipPath>
</defs>
</svg>
