<svg width="340" height="192" viewBox="0 0 340 192" fill="none" xmlns="http://www.w3.org/2000/svg">
<g clip-path="url(#clip0_102_141)">
<rect width="340" height="192" rx="16" fill="#F0ECD3"/>
<circle cx="308" cy="32" r="64" fill="white" fill-opacity="0.64"/>
<path d="M274.374 49.8754L272.559 47.6142L284.923 36.1376L288.73 44.0594L299.24 34.1564L302.268 42.9543C301.76 42.8839 301.257 42.8559 300.759 42.8704C300.261 42.8848 299.757 42.9223 299.246 42.9827L298.022 39.2531L287.9 48.8163L284.059 40.8361L274.374 49.8754ZM308.126 69.2226L303.6 61.4038C302.831 61.6908 302.037 61.8561 301.219 61.8997C300.4 61.9432 299.591 61.858 298.792 61.6438C296.61 61.0591 294.961 59.804 293.847 57.8785C292.732 55.953 292.467 53.9016 293.05 51.7245C293.633 49.5473 294.889 47.9036 296.817 46.7934C298.745 45.6831 300.8 45.4203 302.982 46.005C305.164 46.5897 306.813 47.8448 307.927 49.7704C309.042 51.6959 309.308 53.7472 308.724 55.9244C308.511 56.7217 308.172 57.461 307.71 58.1422C307.247 58.8235 306.711 59.4438 306.1 60.0031L310.638 67.7759L308.126 69.2226ZM299.531 58.884C300.945 59.2629 302.275 59.0934 303.522 58.3757C304.768 57.6579 305.58 56.5938 305.958 55.1832C306.336 53.7727 306.165 52.445 305.444 51.2002C304.724 49.9554 303.657 49.1436 302.243 48.7648C300.829 48.386 299.499 48.5555 298.252 49.2732C297.006 49.9909 296.194 51.0551 295.816 52.4656C295.438 53.8762 295.609 55.2039 296.33 56.4487C297.05 57.6934 298.118 58.5052 299.531 58.884ZM306.985 44.7113C306.574 44.4038 306.13 44.1535 305.655 43.9604C305.179 43.7673 304.689 43.5701 304.183 43.3688L318.202 30.5115L320.017 32.7726L306.985 44.7113Z" fill="#343434"/>
<path d="M68.235 60.313L67.684 58.432C68.2793 58.3053 68.7797 58.1597 69.185 57.995C69.5903 57.8303 69.926 57.615 70.192 57.349C70.458 57.083 70.6797 56.741 70.857 56.323L71.332 55.202L71.275 56.133L67.095 46.405H69.622L72.624 53.891H72.073L75.094 46.405H77.488L73.118 56.532C72.8267 57.216 72.51 57.7797 72.168 58.223C71.826 58.679 71.4587 59.04 71.066 59.306C70.6733 59.5847 70.2427 59.8 69.774 59.952C69.3053 60.104 68.7923 60.2243 68.235 60.313ZM78.6212 60.104V48.799C78.6212 48.4063 78.6085 48.0073 78.5832 47.602C78.5578 47.1967 78.5198 46.7977 78.4692 46.405H80.7682L80.9772 48.419H80.7682C80.9582 47.7477 81.3572 47.2157 81.9652 46.823C82.5858 46.4177 83.3015 46.215 84.1122 46.215C84.9608 46.215 85.7018 46.4177 86.3352 46.823C86.9685 47.2157 87.4625 47.7857 87.8172 48.533C88.1718 49.2677 88.3492 50.1543 88.3492 51.193C88.3492 52.2317 88.1718 53.1247 87.8172 53.872C87.4625 54.6193 86.9685 55.1957 86.3352 55.601C85.7018 55.9937 84.9608 56.19 84.1122 56.19C83.3142 56.19 82.6112 55.9937 82.0032 55.601C81.3952 55.2083 80.9898 54.6827 80.7872 54.024H80.9962V60.104H78.6212ZM83.4472 54.366C84.2072 54.366 84.8152 54.1063 85.2712 53.587C85.7272 53.055 85.9552 52.257 85.9552 51.193C85.9552 50.129 85.7272 49.3373 85.2712 48.818C84.8152 48.2987 84.2072 48.039 83.4472 48.039C82.6998 48.039 82.0982 48.2987 81.6422 48.818C81.1862 49.3373 80.9582 50.129 80.9582 51.193C80.9582 52.257 81.1862 53.055 81.6422 53.587C82.0982 54.1063 82.6998 54.366 83.4472 54.366ZM94.6152 56.19C93.6272 56.19 92.7722 55.9873 92.0502 55.582C91.3282 55.1767 90.7645 54.6003 90.3592 53.853C89.9665 53.1057 89.7702 52.219 89.7702 51.193C89.7702 50.167 89.9665 49.2867 90.3592 48.552C90.7645 47.8047 91.3282 47.2283 92.0502 46.823C92.7722 46.4177 93.6272 46.215 94.6152 46.215C95.6032 46.215 96.4582 46.4177 97.1802 46.823C97.9148 47.2283 98.4785 47.8047 98.8712 48.552C99.2765 49.2867 99.4792 50.167 99.4792 51.193C99.4792 52.219 99.2765 53.1057 98.8712 53.853C98.4785 54.6003 97.9148 55.1767 97.1802 55.582C96.4582 55.9873 95.6032 56.19 94.6152 56.19ZM94.6152 54.366C95.3625 54.366 95.9578 54.1063 96.4012 53.587C96.8445 53.055 97.0662 52.257 97.0662 51.193C97.0662 50.129 96.8445 49.3373 96.4012 48.818C95.9578 48.2987 95.3625 48.039 94.6152 48.039C93.8678 48.039 93.2725 48.2987 92.8292 48.818C92.3858 49.3373 92.1642 50.129 92.1642 51.193C92.1642 52.257 92.3858 53.055 92.8292 53.587C93.2725 54.1063 93.8678 54.366 94.6152 54.366ZM101.35 56V46.405H103.706V50.167H105.15L107.962 46.405H110.508L106.974 51.193L106.461 50.452C106.815 50.49 107.126 50.585 107.392 50.737C107.67 50.889 107.93 51.1043 108.171 51.383C108.424 51.649 108.671 51.991 108.912 52.409L110.926 56H108.399L106.765 53.112C106.6 52.8207 106.435 52.5927 106.271 52.428C106.106 52.2633 105.922 52.1493 105.72 52.086C105.517 52.0227 105.27 51.991 104.979 51.991H103.706V56H101.35ZM116.924 56L123.422 43.802V44.657H116.316V42.605H125.683V44.429L119.603 56H116.924Z" fill="#343434"/>
<path d="M32 0H51V63.2106C51 65.2511 51 66.2714 50.3853 66.5281C49.7707 66.7847 49.0451 66.0675 47.5939 64.6329L43.1314 60.2215C42.4846 59.5821 42.1612 59.2624 41.7585 59.2568C41.3558 59.2512 41.0236 59.5618 40.3593 60.183L35.366 64.8523C33.9245 66.2003 33.2038 66.8743 32.6019 66.6131C32 66.3519 32 65.3651 32 63.3915V0Z" fill="url(#paint0_linear_102_141)"/>
<path d="M36.464 106L39.44 100.36L39.488 101.32L31.664 89.08H34.976L41 98.632H40.4L45.416 89.08H48.608L39.68 106H36.464ZM54.1102 106.24C52.8622 106.24 51.7662 105.984 50.8222 105.472C49.8942 104.96 49.1742 104.232 48.6622 103.288C48.1502 102.328 47.8942 101.192 47.8942 99.88C47.8942 98.568 48.1502 97.448 48.6622 96.52C49.1902 95.592 49.9182 94.88 50.8462 94.384C51.7742 93.888 52.8622 93.64 54.1102 93.64C54.9102 93.64 55.6862 93.768 56.4382 94.024C57.2062 94.264 57.8302 94.616 58.3102 95.08L57.3982 97.168C56.9662 96.768 56.4782 96.472 55.9342 96.28C55.4062 96.072 54.8862 95.968 54.3742 95.968C53.3022 95.968 52.4622 96.304 51.8542 96.976C51.2622 97.648 50.9662 98.624 50.9662 99.904C50.9662 101.184 51.2622 102.168 51.8542 102.856C52.4622 103.544 53.3022 103.888 54.3742 103.888C54.8702 103.888 55.3822 103.792 55.9102 103.6C56.4542 103.408 56.9502 103.112 57.3982 102.712L58.3102 104.776C57.8142 105.24 57.1822 105.6 56.4142 105.856C55.6622 106.112 54.8942 106.24 54.1102 106.24ZM60.8681 106V93.88H72.2201V106H69.2441V96.184H63.8441V106H60.8681ZM81.5857 106.24C79.5537 106.24 77.9617 105.68 76.8097 104.56C75.6577 103.44 75.0817 101.904 75.0817 99.952C75.0817 98.688 75.3297 97.584 75.8257 96.64C76.3217 95.696 77.0097 94.96 77.8897 94.432C78.7857 93.904 79.8257 93.64 81.0097 93.64C82.1777 93.64 83.1537 93.888 83.9377 94.384C84.7217 94.88 85.3137 95.576 85.7137 96.472C86.1297 97.368 86.3377 98.416 86.3377 99.616V100.408H77.5057V98.824H84.2017L83.7937 99.16C83.7937 98.04 83.5537 97.184 83.0737 96.592C82.6097 96 81.9297 95.704 81.0337 95.704C80.0417 95.704 79.2737 96.056 78.7297 96.76C78.2017 97.464 77.9377 98.448 77.9377 99.712V100.024C77.9377 101.336 78.2577 102.32 78.8977 102.976C79.5537 103.616 80.4737 103.936 81.6577 103.936C82.3457 103.936 82.9857 103.848 83.5777 103.672C84.1857 103.48 84.7617 103.176 85.3057 102.76L86.1937 104.776C85.6177 105.24 84.9297 105.6 84.1297 105.856C83.3297 106.112 82.4817 106.24 81.5857 106.24ZM89.1103 106V93.88H91.9183V103.696H96.1903V93.88H98.9743V103.696H103.246V93.88H106.054V106H89.1103ZM109.454 106V93.88H112.43V98.632H117.902V93.88H120.878V106H117.902V100.936H112.43V106H109.454ZM124.29 106V93.88H127.266V97.936H130.458C132.074 97.936 133.29 98.28 134.106 98.968C134.922 99.64 135.33 100.616 135.33 101.896C135.33 102.728 135.138 103.456 134.754 104.08C134.37 104.688 133.81 105.16 133.074 105.496C132.354 105.832 131.482 106 130.458 106H124.29ZM127.266 104.032H130.05C130.866 104.032 131.49 103.864 131.922 103.528C132.354 103.176 132.57 102.648 132.57 101.944C132.57 101.24 132.354 100.728 131.922 100.408C131.506 100.072 130.882 99.904 130.05 99.904H127.266V104.032ZM136.842 106V93.88H139.818V106H136.842ZM143.227 106V93.88H145.939V103.048H145.219L152.107 93.88H154.579V106H151.867V96.808H152.611L145.699 106H143.227ZM148.891 92.776C148.091 92.776 147.387 92.648 146.779 92.392C146.171 92.12 145.667 91.744 145.267 91.264C144.867 90.768 144.579 90.184 144.403 89.512L145.939 88.984C146.211 89.72 146.587 90.264 147.067 90.616C147.547 90.952 148.163 91.12 148.915 91.12C149.667 91.12 150.283 90.952 150.763 90.616C151.243 90.28 151.635 89.744 151.939 89.008L153.403 89.512C153.067 90.584 152.507 91.4 151.723 91.96C150.955 92.504 150.011 92.776 148.891 92.776ZM164.579 106V93.88H175.931V106H172.955V96.184H167.555V106H164.579ZM179.441 111.184V96.904C179.441 96.408 179.425 95.904 179.393 95.392C179.361 94.88 179.313 94.376 179.249 93.88H182.153L182.417 96.424H182.153C182.393 95.576 182.897 94.904 183.665 94.408C184.449 93.896 185.353 93.64 186.377 93.64C187.449 93.64 188.385 93.896 189.185 94.408C189.985 94.904 190.609 95.624 191.057 96.568C191.505 97.496 191.729 98.616 191.729 99.928C191.729 101.24 191.505 102.368 191.057 103.312C190.609 104.256 189.985 104.984 189.185 105.496C188.385 105.992 187.449 106.24 186.377 106.24C185.369 106.24 184.481 105.992 183.713 105.496C182.945 105 182.433 104.336 182.177 103.504H182.441V111.184H179.441ZM185.537 103.936C186.497 103.936 187.265 103.608 187.841 102.952C188.417 102.28 188.705 101.272 188.705 99.928C188.705 98.584 188.417 97.584 187.841 96.928C187.265 96.272 186.497 95.944 185.537 95.944C184.593 95.944 183.833 96.272 183.257 96.928C182.681 97.584 182.393 98.584 182.393 99.928C182.393 101.272 182.681 102.28 183.257 102.952C183.833 103.608 184.593 103.936 185.537 103.936ZM200.124 106.24C198.876 106.24 197.796 105.984 196.884 105.472C195.972 104.96 195.26 104.232 194.748 103.288C194.252 102.344 194.004 101.224 194.004 99.928C194.004 98.632 194.252 97.52 194.748 96.592C195.26 95.648 195.972 94.92 196.884 94.408C197.796 93.896 198.876 93.64 200.124 93.64C201.372 93.64 202.452 93.896 203.364 94.408C204.292 94.92 205.004 95.648 205.5 96.592C206.012 97.52 206.268 98.632 206.268 99.928C206.268 101.224 206.012 102.344 205.5 103.288C205.004 104.232 204.292 104.96 203.364 105.472C202.452 105.984 201.372 106.24 200.124 106.24ZM200.124 103.936C201.068 103.936 201.82 103.608 202.38 102.952C202.94 102.28 203.22 101.272 203.22 99.928C203.22 98.584 202.94 97.584 202.38 96.928C201.82 96.272 201.068 95.944 200.124 95.944C199.18 95.944 198.428 96.272 197.868 96.928C197.308 97.584 197.028 98.584 197.028 99.928C197.028 101.272 197.308 102.28 197.868 102.952C198.428 103.608 199.18 103.936 200.124 103.936ZM215.062 106.24C213.03 106.24 211.438 105.68 210.286 104.56C209.134 103.44 208.558 101.904 208.558 99.952C208.558 98.688 208.806 97.584 209.302 96.64C209.798 95.696 210.486 94.96 211.366 94.432C212.262 93.904 213.302 93.64 214.486 93.64C215.654 93.64 216.63 93.888 217.414 94.384C218.198 94.88 218.79 95.576 219.19 96.472C219.606 97.368 219.814 98.416 219.814 99.616V100.408H210.982V98.824H217.678L217.27 99.16C217.27 98.04 217.03 97.184 216.55 96.592C216.086 96 215.406 95.704 214.51 95.704C213.518 95.704 212.75 96.056 212.206 96.76C211.678 97.464 211.414 98.448 211.414 99.712V100.024C211.414 101.336 211.734 102.32 212.374 102.976C213.03 103.616 213.95 103.936 215.134 103.936C215.822 103.936 216.462 103.848 217.054 103.672C217.662 103.48 218.238 103.176 218.782 102.76L219.67 104.776C219.094 105.24 218.406 105.6 217.606 105.856C216.806 106.112 215.958 106.24 215.062 106.24ZM222.587 106V93.88H225.563V98.632H227.387L230.939 93.88H234.155L229.691 99.928L229.043 98.992C229.491 99.04 229.883 99.16 230.219 99.352C230.571 99.544 230.899 99.816 231.203 100.168C231.523 100.504 231.835 100.936 232.139 101.464L234.683 106H231.491L229.427 102.352C229.219 101.984 229.011 101.696 228.803 101.488C228.595 101.28 228.363 101.136 228.107 101.056C227.851 100.976 227.539 100.936 227.171 100.936H225.563V106H222.587ZM238.89 106V96.232H234.738V93.88H246.042V96.232H241.866V106H238.89Z" fill="#343434"/>
</g>
<defs>
<linearGradient id="paint0_linear_102_141" x1="41.5" y1="0" x2="41.5" y2="68" gradientUnits="userSpaceOnUse">
<stop stop-color="white" stop-opacity="0.16"/>
<stop offset="1" stop-color="white"/>
</linearGradient>
<clipPath id="clip0_102_141">
<rect width="340" height="192" rx="16" fill="white"/>
</clipPath>
</defs>
</svg>
