<svg width="340" height="192" viewBox="0 0 340 192" fill="none" xmlns="http://www.w3.org/2000/svg">
<g clip-path="url(#clip0_102_116)">
<rect width="340" height="192" rx="16" fill="#DEF0D3"/>
<circle cx="308" cy="32" r="64" fill="white" fill-opacity="0.64"/>
<path d="M277.742 57.2068C277.007 57.0101 276.439 56.5634 276.035 55.8668C275.632 55.1703 275.528 54.4559 275.724 53.7239L281.719 31.35C281.915 30.6179 282.362 30.0511 283.06 29.6496C283.758 29.2481 284.474 29.1456 285.208 29.3423L293.925 31.6782L295.041 27.5145C295.237 26.7825 295.684 26.2157 296.382 25.8141C297.079 25.4126 297.795 25.3102 298.529 25.5069L306.788 27.7198C307.522 27.9165 308.091 28.3632 308.494 29.0597C308.898 29.7563 309.002 30.4706 308.805 31.2027L307.69 35.3664L316.407 37.7022C317.141 37.8989 317.71 38.3455 318.114 39.0421C318.517 39.7387 318.621 40.453 318.425 41.1851L312.429 63.559C312.233 64.2911 311.786 64.8579 311.089 65.2594C310.391 65.6609 309.675 65.7633 308.941 65.5666L277.742 57.2068ZM296.678 32.4158L304.937 34.6287L306.052 30.4651L297.794 28.2522L296.678 32.4158ZM312.018 54.0823L300.594 51.0211L299.858 53.7664L291.599 51.5534L292.335 48.8082L280.819 45.7224L278.477 54.4615L309.677 62.8214L312.018 54.0823ZM295.088 49.5458L297.841 50.2835L298.576 47.5382L295.824 46.8006L295.088 49.5458ZM281.554 42.9772L293.071 46.0629L293.806 43.3177L302.065 45.5306L301.329 48.2758L312.754 51.337L315.672 40.4475L284.472 32.0876L281.554 42.9772Z" fill="#343434"/>
<path d="M68.235 60.313L67.684 58.432C68.2793 58.3053 68.7797 58.1597 69.185 57.995C69.5903 57.8303 69.926 57.615 70.192 57.349C70.458 57.083 70.6797 56.741 70.857 56.323L71.332 55.202L71.275 56.133L67.095 46.405H69.622L72.624 53.891H72.073L75.094 46.405H77.488L73.118 56.532C72.8267 57.216 72.51 57.7797 72.168 58.223C71.826 58.679 71.4587 59.04 71.066 59.306C70.6733 59.5847 70.2427 59.8 69.774 59.952C69.3053 60.104 68.7923 60.2243 68.235 60.313ZM78.6212 60.104V48.799C78.6212 48.4063 78.6085 48.0073 78.5832 47.602C78.5578 47.1967 78.5198 46.7977 78.4692 46.405H80.7682L80.9772 48.419H80.7682C80.9582 47.7477 81.3572 47.2157 81.9652 46.823C82.5858 46.4177 83.3015 46.215 84.1122 46.215C84.9608 46.215 85.7018 46.4177 86.3352 46.823C86.9685 47.2157 87.4625 47.7857 87.8172 48.533C88.1718 49.2677 88.3492 50.1543 88.3492 51.193C88.3492 52.2317 88.1718 53.1247 87.8172 53.872C87.4625 54.6193 86.9685 55.1957 86.3352 55.601C85.7018 55.9937 84.9608 56.19 84.1122 56.19C83.3142 56.19 82.6112 55.9937 82.0032 55.601C81.3952 55.2083 80.9898 54.6827 80.7872 54.024H80.9962V60.104H78.6212ZM83.4472 54.366C84.2072 54.366 84.8152 54.1063 85.2712 53.587C85.7272 53.055 85.9552 52.257 85.9552 51.193C85.9552 50.129 85.7272 49.3373 85.2712 48.818C84.8152 48.2987 84.2072 48.039 83.4472 48.039C82.6998 48.039 82.0982 48.2987 81.6422 48.818C81.1862 49.3373 80.9582 50.129 80.9582 51.193C80.9582 52.257 81.1862 53.055 81.6422 53.587C82.0982 54.1063 82.6998 54.366 83.4472 54.366ZM94.6152 56.19C93.6272 56.19 92.7722 55.9873 92.0502 55.582C91.3282 55.1767 90.7645 54.6003 90.3592 53.853C89.9665 53.1057 89.7702 52.219 89.7702 51.193C89.7702 50.167 89.9665 49.2867 90.3592 48.552C90.7645 47.8047 91.3282 47.2283 92.0502 46.823C92.7722 46.4177 93.6272 46.215 94.6152 46.215C95.6032 46.215 96.4582 46.4177 97.1802 46.823C97.9148 47.2283 98.4785 47.8047 98.8712 48.552C99.2765 49.2867 99.4792 50.167 99.4792 51.193C99.4792 52.219 99.2765 53.1057 98.8712 53.853C98.4785 54.6003 97.9148 55.1767 97.1802 55.582C96.4582 55.9873 95.6032 56.19 94.6152 56.19ZM94.6152 54.366C95.3625 54.366 95.9578 54.1063 96.4012 53.587C96.8445 53.055 97.0662 52.257 97.0662 51.193C97.0662 50.129 96.8445 49.3373 96.4012 48.818C95.9578 48.2987 95.3625 48.039 94.6152 48.039C93.8678 48.039 93.2725 48.2987 92.8292 48.818C92.3858 49.3373 92.1642 50.129 92.1642 51.193C92.1642 52.257 92.3858 53.055 92.8292 53.587C93.2725 54.1063 93.8678 54.366 94.6152 54.366ZM101.35 56V46.405H103.706V50.167H105.15L107.962 46.405H110.508L106.974 51.193L106.461 50.452C106.815 50.49 107.126 50.585 107.392 50.737C107.67 50.889 107.93 51.1043 108.171 51.383C108.424 51.649 108.671 51.991 108.912 52.409L110.926 56H108.399L106.765 53.112C106.6 52.8207 106.435 52.5927 106.271 52.428C106.106 52.2633 105.922 52.1493 105.72 52.086C105.517 52.0227 105.27 51.991 104.979 51.991H103.706V56H101.35ZM122.054 56V53.378H116.069V51.668L122.434 42.605H124.41V51.516H126.329V53.378H124.41V56H122.054ZM122.054 51.516V45.493H122.51L117.893 52.086V51.516H122.054Z" fill="#343434"/>
<path d="M32 0H51V63.2106C51 65.2511 51 66.2714 50.3853 66.5281C49.7707 66.7847 49.0451 66.0675 47.5939 64.6329L43.1314 60.2215C42.4846 59.5821 42.1612 59.2624 41.7585 59.2568C41.3558 59.2512 41.0236 59.5618 40.3593 60.183L35.366 64.8523C33.9245 66.2003 33.2038 66.8743 32.6019 66.6131C32 66.3519 32 65.3651 32 63.3915V0Z" fill="url(#paint0_linear_102_116)"/>
<path d="M34.112 106V89.08H48.272V106H46.28V90.76H36.056V106H34.112ZM51.6236 106.264L50.9036 104.752C51.4636 104.496 51.9276 104.184 52.2956 103.816C52.6796 103.432 52.9836 102.952 53.2076 102.376C53.4316 101.784 53.5916 101.056 53.6876 100.192C53.7836 99.312 53.8316 98.256 53.8316 97.024V93.952H62.5196V106H60.5996V95.488H55.6316V97.096C55.6316 98.984 55.4956 100.536 55.2236 101.752C54.9676 102.968 54.5436 103.936 53.9516 104.656C53.3756 105.36 52.5996 105.896 51.6236 106.264ZM71.0375 106.216C69.9655 106.216 69.0295 105.968 68.2295 105.472C67.4295 104.96 66.8055 104.24 66.3575 103.312C65.9255 102.384 65.7095 101.272 65.7095 99.976C65.7095 98.664 65.9255 97.544 66.3575 96.616C66.8055 95.688 67.4295 94.976 68.2295 94.48C69.0295 93.984 69.9655 93.736 71.0375 93.736C72.1255 93.736 73.0615 94.016 73.8455 94.576C74.6455 95.12 75.1735 95.864 75.4295 96.808H75.1415L75.4055 93.952H77.2775C77.2295 94.416 77.1815 94.888 77.1335 95.368C77.1015 95.832 77.0855 96.288 77.0855 96.736V106H75.1415V103.168H75.4055C75.1495 104.112 74.6215 104.856 73.8215 105.4C73.0215 105.944 72.0935 106.216 71.0375 106.216ZM71.4215 104.632C72.5735 104.632 73.4855 104.24 74.1575 103.456C74.8295 102.656 75.1655 101.496 75.1655 99.976C75.1655 98.44 74.8295 97.28 74.1575 96.496C73.4855 95.696 72.5735 95.296 71.4215 95.296C70.2855 95.296 69.3735 95.696 68.6855 96.496C68.0135 97.28 67.6775 98.44 67.6775 99.976C67.6775 101.496 68.0135 102.656 68.6855 103.456C69.3735 104.24 70.2855 104.632 71.4215 104.632ZM81.0059 106V93.952H86.8139C88.2059 93.952 89.2459 94.224 89.9339 94.768C90.6379 95.296 90.9899 96.08 90.9899 97.12C90.9899 97.888 90.7179 98.536 90.1739 99.064C89.6459 99.576 88.9579 99.88 88.1099 99.976V99.688C89.1019 99.72 89.8939 100.008 90.4859 100.552C91.0779 101.096 91.3739 101.8 91.3739 102.664C91.3739 103.704 90.9899 104.52 90.2219 105.112C89.4699 105.704 88.3979 106 87.0059 106H81.0059ZM82.8539 104.68H86.9099C87.7579 104.68 88.4059 104.504 88.8539 104.152C89.3179 103.784 89.5499 103.264 89.5499 102.592C89.5499 101.92 89.3179 101.408 88.8539 101.056C88.4059 100.704 87.7579 100.528 86.9099 100.528H82.8539V104.68ZM82.8539 99.208H86.6939C87.4779 99.208 88.0859 99.032 88.5179 98.68C88.9499 98.328 89.1659 97.84 89.1659 97.216C89.1659 96.592 88.9499 96.112 88.5179 95.776C88.0859 95.424 87.4779 95.248 86.6939 95.248H82.8539V99.208ZM94.3888 106V93.952H96.3328V98.992H102.957V93.952H104.901V106H102.957V100.552H96.3328V106H94.3888ZM113.413 106.216C112.341 106.216 111.405 105.968 110.605 105.472C109.805 104.96 109.181 104.24 108.733 103.312C108.301 102.384 108.085 101.272 108.085 99.976C108.085 98.664 108.301 97.544 108.733 96.616C109.181 95.688 109.805 94.976 110.605 94.48C111.405 93.984 112.341 93.736 113.413 93.736C114.501 93.736 115.437 94.016 116.221 94.576C117.021 95.12 117.549 95.864 117.805 96.808H117.517L117.781 93.952H119.653C119.605 94.416 119.557 94.888 119.509 95.368C119.477 95.832 119.461 96.288 119.461 96.736V106H117.517V103.168H117.781C117.525 104.112 116.997 104.856 116.197 105.4C115.397 105.944 114.469 106.216 113.413 106.216ZM113.797 104.632C114.949 104.632 115.861 104.24 116.533 103.456C117.205 102.656 117.541 101.496 117.541 99.976C117.541 98.44 117.205 97.28 116.533 96.496C115.861 95.696 114.949 95.296 113.797 95.296C112.661 95.296 111.749 95.696 111.061 96.496C110.389 97.28 110.053 98.44 110.053 99.976C110.053 101.496 110.389 102.656 111.061 103.456C111.749 104.24 112.661 104.632 113.797 104.632ZM122.421 106L124.341 102.688C124.645 102.16 125.029 101.736 125.493 101.416C125.957 101.08 126.445 100.912 126.957 100.912H127.293L127.269 101.128C125.909 101.128 124.853 100.824 124.101 100.216C123.349 99.592 122.973 98.696 122.973 97.528C122.973 96.408 123.341 95.536 124.077 94.912C124.813 94.272 125.909 93.952 127.365 93.952H132.717V106H130.893V101.344H129.093C128.421 101.344 127.853 101.512 127.389 101.848C126.925 102.184 126.533 102.608 126.213 103.12L124.581 106H122.421ZM127.701 99.976H130.893V95.296H127.701C126.725 95.296 125.997 95.504 125.517 95.92C125.053 96.336 124.821 96.904 124.821 97.624C124.821 98.376 125.053 98.96 125.517 99.376C125.997 99.776 126.725 99.976 127.701 99.976ZM142.811 106V93.952H144.587V104.2H143.939L151.619 93.952H153.251V106H151.499V95.728H152.147L144.467 106H142.811ZM157.084 106V93.952H159.028V98.992H165.652V93.952H167.596V106H165.652V100.552H159.028V106H157.084ZM173.996 106V95.512H169.628V93.952H180.332V95.512H175.94V106H173.996ZM187.751 106.216C185.863 106.216 184.375 105.672 183.287 104.584C182.199 103.48 181.655 101.952 181.655 100C181.655 98.736 181.895 97.64 182.375 96.712C182.855 95.768 183.527 95.04 184.391 94.528C185.255 94 186.247 93.736 187.367 93.736C188.471 93.736 189.399 93.968 190.151 94.432C190.903 94.896 191.479 95.56 191.879 96.424C192.279 97.272 192.479 98.28 192.479 99.448V100.168H183.143V98.944H191.207L190.799 99.256C190.799 97.976 190.511 96.976 189.935 96.256C189.359 95.536 188.503 95.176 187.367 95.176C186.167 95.176 185.231 95.6 184.559 96.448C183.887 97.28 183.551 98.408 183.551 99.832V100.048C183.551 101.552 183.919 102.696 184.655 103.48C185.407 104.248 186.455 104.632 187.799 104.632C188.519 104.632 189.191 104.528 189.815 104.32C190.455 104.096 191.063 103.736 191.639 103.24L192.311 104.608C191.783 105.12 191.111 105.52 190.295 105.808C189.495 106.08 188.647 106.216 187.751 106.216ZM195.592 106V93.952H203.992V95.512H197.536V106H195.592ZM206.375 111.184V96.736C206.375 96.288 206.351 95.832 206.303 95.368C206.271 94.888 206.231 94.416 206.183 93.952H208.055L208.319 96.808H208.031C208.287 95.864 208.807 95.12 209.591 94.576C210.375 94.016 211.311 93.736 212.399 93.736C213.487 93.736 214.423 93.984 215.207 94.48C216.007 94.976 216.631 95.688 217.079 96.616C217.527 97.544 217.751 98.664 217.751 99.976C217.751 101.272 217.527 102.384 217.079 103.312C216.647 104.24 216.031 104.96 215.231 105.472C214.431 105.968 213.487 106.216 212.399 106.216C211.327 106.216 210.399 105.944 209.615 105.4C208.831 104.856 208.311 104.112 208.055 103.168H208.319V111.184H206.375ZM212.015 104.632C213.167 104.632 214.079 104.24 214.751 103.456C215.439 102.656 215.783 101.496 215.783 99.976C215.783 98.44 215.439 97.28 214.751 96.496C214.079 95.696 213.167 95.296 212.015 95.296C210.879 95.296 209.967 95.696 209.279 96.496C208.607 97.28 208.271 98.44 208.271 99.976C208.271 101.496 208.607 102.656 209.279 103.456C209.967 104.24 210.879 104.632 212.015 104.632ZM225.608 106.216C224.536 106.216 223.6 105.968 222.8 105.472C222 104.96 221.376 104.24 220.928 103.312C220.496 102.384 220.28 101.272 220.28 99.976C220.28 98.664 220.496 97.544 220.928 96.616C221.376 95.688 222 94.976 222.8 94.48C223.6 93.984 224.536 93.736 225.608 93.736C226.696 93.736 227.632 94.016 228.416 94.576C229.216 95.12 229.744 95.864 230 96.808H229.712L229.976 93.952H231.848C231.8 94.416 231.752 94.888 231.704 95.368C231.672 95.832 231.656 96.288 231.656 96.736V106H229.712V103.168H229.976C229.72 104.112 229.192 104.856 228.392 105.4C227.592 105.944 226.664 106.216 225.608 106.216ZM225.992 104.632C227.144 104.632 228.056 104.24 228.728 103.456C229.4 102.656 229.736 101.496 229.736 99.976C229.736 98.44 229.4 97.28 228.728 96.496C228.056 95.696 227.144 95.296 225.992 95.296C224.856 95.296 223.944 95.696 223.256 96.496C222.584 97.28 222.248 98.44 222.248 99.976C222.248 101.496 222.584 102.656 223.256 103.456C223.944 104.24 224.856 104.632 225.992 104.632ZM245.992 109.12V106H235.576V93.952H237.52V104.464H243.832V93.952H245.728V104.464H247.648V109.12H245.992ZM250.248 106V93.952H252.024V104.2H251.376L259.056 93.952H260.688V106H258.936V95.728H259.584L251.904 106H250.248ZM263.562 106L265.482 102.688C265.786 102.16 266.17 101.736 266.634 101.416C267.098 101.08 267.586 100.912 268.098 100.912H268.434L268.41 101.128C267.05 101.128 265.994 100.824 265.242 100.216C264.49 99.592 264.114 98.696 264.114 97.528C264.114 96.408 264.482 95.536 265.218 94.912C265.954 94.272 267.05 93.952 268.506 93.952H273.858V106H272.034V101.344H270.234C269.562 101.344 268.994 101.512 268.53 101.848C268.066 102.184 267.674 102.608 267.354 103.12L265.722 106H263.562ZM268.842 99.976H272.034V95.296H268.842C267.866 95.296 267.138 95.504 266.658 95.92C266.194 96.336 265.962 96.904 265.962 97.624C265.962 98.376 266.194 98.96 266.658 99.376C267.138 99.776 267.866 99.976 268.842 99.976ZM33.92 131V118.952H39.728C41.12 118.952 42.16 119.224 42.848 119.768C43.552 120.296 43.904 121.08 43.904 122.12C43.904 122.888 43.632 123.536 43.088 124.064C42.56 124.576 41.872 124.88 41.024 124.976V124.688C42.016 124.72 42.808 125.008 43.4 125.552C43.992 126.096 44.288 126.8 44.288 127.664C44.288 128.704 43.904 129.52 43.136 130.112C42.384 130.704 41.312 131 39.92 131H33.92ZM35.768 129.68H39.824C40.672 129.68 41.32 129.504 41.768 129.152C42.232 128.784 42.464 128.264 42.464 127.592C42.464 126.92 42.232 126.408 41.768 126.056C41.32 125.704 40.672 125.528 39.824 125.528H35.768V129.68ZM35.768 124.208H39.608C40.392 124.208 41 124.032 41.432 123.68C41.864 123.328 42.08 122.84 42.08 122.216C42.08 121.592 41.864 121.112 41.432 120.776C41 120.424 40.392 120.248 39.608 120.248H35.768V124.208ZM53.3446 131V118.88H56.3206V123.632H61.7926V118.88H64.7686V131H61.7926V125.936H56.3206V131H53.3446ZM73.7486 131.24C72.5006 131.24 71.4206 130.984 70.5086 130.472C69.5966 129.96 68.8846 129.232 68.3726 128.288C67.8766 127.344 67.6286 126.224 67.6286 124.928C67.6286 123.632 67.8766 122.52 68.3726 121.592C68.8846 120.648 69.5966 119.92 70.5086 119.408C71.4206 118.896 72.5006 118.64 73.7486 118.64C74.9966 118.64 76.0766 118.896 76.9886 119.408C77.9166 119.92 78.6286 120.648 79.1246 121.592C79.6366 122.52 79.8926 123.632 79.8926 124.928C79.8926 126.224 79.6366 127.344 79.1246 128.288C78.6286 129.232 77.9166 129.96 76.9886 130.472C76.0766 130.984 74.9966 131.24 73.7486 131.24ZM73.7486 128.936C74.6926 128.936 75.4446 128.608 76.0046 127.952C76.5646 127.28 76.8446 126.272 76.8446 124.928C76.8446 123.584 76.5646 122.584 76.0046 121.928C75.4446 121.272 74.6926 120.944 73.7486 120.944C72.8046 120.944 72.0526 121.272 71.4926 121.928C70.9326 122.584 70.6526 123.584 70.6526 124.928C70.6526 126.272 70.9326 127.28 71.4926 127.952C72.0526 128.608 72.8046 128.936 73.7486 128.936ZM82.7353 131V118.88H89.1913C90.7113 118.88 91.8233 119.16 92.5273 119.72C93.2313 120.264 93.5833 121.04 93.5833 122.048C93.5833 122.816 93.3273 123.456 92.8153 123.968C92.3033 124.48 91.6233 124.8 90.7753 124.928V124.592C91.8153 124.656 92.6153 124.96 93.1753 125.504C93.7353 126.048 94.0153 126.752 94.0153 127.616C94.0153 128.656 93.6153 129.48 92.8153 130.088C92.0153 130.696 90.8793 131 89.4073 131H82.7353ZM85.5193 129.152H89.0953C89.7993 129.152 90.3353 129.008 90.7033 128.72C91.0873 128.432 91.2793 128.008 91.2793 127.448C91.2793 126.888 91.0873 126.464 90.7033 126.176C90.3353 125.888 89.7993 125.744 89.0953 125.744H85.5193V129.152ZM85.5193 123.896H88.8313C89.4713 123.896 89.9673 123.76 90.3193 123.488C90.6713 123.2 90.8473 122.8 90.8473 122.288C90.8473 121.776 90.6713 121.384 90.3193 121.112C89.9673 120.84 89.4713 120.704 88.8313 120.704H85.5193V123.896ZM96.6337 131V118.88H99.6097V122.936H102.802C104.418 122.936 105.634 123.28 106.45 123.968C107.266 124.64 107.674 125.616 107.674 126.896C107.674 127.728 107.482 128.456 107.098 129.08C106.714 129.688 106.154 130.16 105.418 130.496C104.698 130.832 103.826 131 102.802 131H96.6337ZM99.6097 129.032H102.394C103.21 129.032 103.834 128.864 104.266 128.528C104.698 128.176 104.914 127.648 104.914 126.944C104.914 126.24 104.698 125.728 104.266 125.408C103.85 125.072 103.226 124.904 102.394 124.904H99.6097V129.032ZM109.186 131V118.88H112.162V131H109.186ZM115.571 131V118.88H118.283V128.048H117.563L124.451 118.88H126.923V131H124.211V121.808H124.955L118.043 131H115.571ZM121.235 117.776C120.435 117.776 119.731 117.648 119.123 117.392C118.515 117.12 118.011 116.744 117.611 116.264C117.211 115.768 116.923 115.184 116.747 114.512L118.283 113.984C118.555 114.72 118.931 115.264 119.411 115.616C119.891 115.952 120.507 116.12 121.259 116.12C122.011 116.12 122.627 115.952 123.107 115.616C123.587 115.28 123.979 114.744 124.283 114.008L125.747 114.512C125.411 115.584 124.851 116.4 124.067 116.96C123.299 117.504 122.355 117.776 121.235 117.776ZM136.923 131V118.88H139.419L143.595 126.128L147.771 118.88H150.267V131H147.627V122.24H148.179L144.291 129.032H142.899L139.011 122.24H139.563V131H136.923ZM153.681 131V118.88H156.393V128.048H155.673L162.561 118.88H165.033V131H162.321V121.808H163.065L156.153 131H153.681ZM168.542 136.184V121.904C168.542 121.408 168.526 120.904 168.494 120.392C168.462 119.88 168.414 119.376 168.35 118.88H171.254L171.518 121.424H171.254C171.494 120.576 171.998 119.904 172.766 119.408C173.55 118.896 174.454 118.64 175.478 118.64C176.55 118.64 177.486 118.896 178.286 119.408C179.086 119.904 179.71 120.624 180.158 121.568C180.606 122.496 180.83 123.616 180.83 124.928C180.83 126.24 180.606 127.368 180.158 128.312C179.71 129.256 179.086 129.984 178.286 130.496C177.486 130.992 176.55 131.24 175.478 131.24C174.47 131.24 173.582 130.992 172.814 130.496C172.046 130 171.534 129.336 171.278 128.504H171.542V136.184H168.542ZM174.638 128.936C175.598 128.936 176.366 128.608 176.942 127.952C177.518 127.28 177.806 126.272 177.806 124.928C177.806 123.584 177.518 122.584 176.942 121.928C176.366 121.272 175.598 120.944 174.638 120.944C173.694 120.944 172.934 121.272 172.358 121.928C171.782 122.584 171.494 123.584 171.494 124.928C171.494 126.272 171.782 127.28 172.358 127.952C172.934 128.608 173.694 128.936 174.638 128.936ZM38.168 156.24C37.08 156.24 36.056 156.112 35.096 155.856C34.152 155.6 33.36 155.232 32.72 154.752L33.56 152.784C34.152 153.216 34.84 153.544 35.624 153.768C36.424 153.992 37.264 154.104 38.144 154.104C39.168 154.104 39.912 153.968 40.376 153.696C40.856 153.408 41.096 152.992 41.096 152.448C41.096 151.936 40.912 151.552 40.544 151.296C40.176 151.024 39.632 150.888 38.912 150.888H35.768V148.824H38.624C39.28 148.824 39.784 148.696 40.136 148.44C40.488 148.184 40.664 147.824 40.664 147.36C40.664 146.864 40.448 146.472 40.016 146.184C39.6 145.896 38.912 145.752 37.952 145.752C37.12 145.752 36.36 145.856 35.672 146.064C34.984 146.256 34.336 146.544 33.728 146.928L32.912 145.056C33.568 144.592 34.36 144.24 35.288 144C36.232 143.76 37.256 143.64 38.36 143.64C39.976 143.64 41.216 143.936 42.08 144.528C42.944 145.12 43.376 145.96 43.376 147.048C43.376 147.784 43.12 148.416 42.608 148.944C42.112 149.472 41.44 149.8 40.592 149.928V149.592C41.584 149.656 42.368 149.952 42.944 150.48C43.52 151.008 43.808 151.72 43.808 152.616C43.808 153.72 43.32 154.6 42.344 155.256C41.368 155.912 39.976 156.24 38.168 156.24ZM51.2066 156.24C50.1506 156.24 49.2226 155.992 48.4226 155.496C47.6226 154.984 46.9986 154.256 46.5506 153.312C46.1026 152.368 45.8786 151.24 45.8786 149.928C45.8786 148.616 46.1026 147.496 46.5506 146.568C46.9986 145.624 47.6226 144.904 48.4226 144.408C49.2226 143.896 50.1506 143.64 51.2066 143.64C52.2306 143.64 53.1266 143.896 53.8946 144.408C54.6786 144.904 55.1986 145.576 55.4546 146.424H55.1906L55.4546 143.88H58.3346C58.2866 144.376 58.2386 144.88 58.1906 145.392C58.1586 145.904 58.1426 146.408 58.1426 146.904V156H55.1666L55.1426 153.504H55.4306C55.1746 154.336 54.6546 155 53.8706 155.496C53.0866 155.992 52.1986 156.24 51.2066 156.24ZM52.0466 153.936C52.9906 153.936 53.7506 153.608 54.3266 152.952C54.9026 152.28 55.1906 151.272 55.1906 149.928C55.1906 148.584 54.9026 147.584 54.3266 146.928C53.7506 146.272 52.9906 145.944 52.0466 145.944C51.1026 145.944 50.3426 146.272 49.7666 146.928C49.1906 147.584 48.9026 148.584 48.9026 149.928C48.9026 151.272 49.1826 152.28 49.7426 152.952C50.3186 153.608 51.0866 153.936 52.0466 153.936ZM61.7375 161.184V146.904C61.7375 146.408 61.7215 145.904 61.6895 145.392C61.6575 144.88 61.6095 144.376 61.5455 143.88H64.4495L64.7135 146.424H64.4495C64.6895 145.576 65.1935 144.904 65.9615 144.408C66.7455 143.896 67.6495 143.64 68.6735 143.64C69.7455 143.64 70.6815 143.896 71.4815 144.408C72.2815 144.904 72.9055 145.624 73.3535 146.568C73.8015 147.496 74.0255 148.616 74.0255 149.928C74.0255 151.24 73.8015 152.368 73.3535 153.312C72.9055 154.256 72.2815 154.984 71.4815 155.496C70.6815 155.992 69.7455 156.24 68.6735 156.24C67.6655 156.24 66.7775 155.992 66.0095 155.496C65.2415 155 64.7295 154.336 64.4735 153.504H64.7375V161.184H61.7375ZM67.8335 153.936C68.7935 153.936 69.5615 153.608 70.1375 152.952C70.7135 152.28 71.0015 151.272 71.0015 149.928C71.0015 148.584 70.7135 147.584 70.1375 146.928C69.5615 146.272 68.7935 145.944 67.8335 145.944C66.8895 145.944 66.1295 146.272 65.5535 146.928C64.9775 147.584 64.6895 148.584 64.6895 149.928C64.6895 151.272 64.9775 152.28 65.5535 152.952C66.1295 153.608 66.8895 153.936 67.8335 153.936ZM81.6284 156.24C80.5724 156.24 79.6444 155.992 78.8444 155.496C78.0444 154.984 77.4204 154.256 76.9724 153.312C76.5244 152.368 76.3004 151.24 76.3004 149.928C76.3004 148.616 76.5244 147.496 76.9724 146.568C77.4204 145.624 78.0444 144.904 78.8444 144.408C79.6444 143.896 80.5724 143.64 81.6284 143.64C82.6524 143.64 83.5484 143.896 84.3164 144.408C85.1004 144.904 85.6204 145.576 85.8764 146.424H85.6124L85.8764 143.88H88.7564C88.7084 144.376 88.6604 144.88 88.6124 145.392C88.5804 145.904 88.5644 146.408 88.5644 146.904V156H85.5884L85.5644 153.504H85.8524C85.5964 154.336 85.0764 155 84.2924 155.496C83.5084 155.992 82.6204 156.24 81.6284 156.24ZM82.4684 153.936C83.4124 153.936 84.1724 153.608 84.7484 152.952C85.3244 152.28 85.6124 151.272 85.6124 149.928C85.6124 148.584 85.3244 147.584 84.7484 146.928C84.1724 146.272 83.4124 145.944 82.4684 145.944C81.5244 145.944 80.7644 146.272 80.1884 146.928C79.6124 147.584 79.3244 148.584 79.3244 149.928C79.3244 151.272 79.6044 152.28 80.1644 152.952C80.7404 153.608 81.5084 153.936 82.4684 153.936ZM97.7514 156.24C95.8474 156.24 94.3274 155.664 93.1914 154.512C92.0714 153.36 91.5114 151.672 91.5114 149.448V147.384C91.5114 145.096 92.0314 143.256 93.0714 141.864C94.1114 140.472 95.6794 139.552 97.7754 139.104L102.215 138.096L103.031 140.448L98.0394 141.552C97.2074 141.728 96.5194 142.064 95.9754 142.56C95.4314 143.04 95.0234 143.616 94.7514 144.288C94.4794 144.96 94.3434 145.68 94.3434 146.448V147.72H93.9354C94.1114 147 94.4074 146.376 94.8234 145.848C95.2394 145.304 95.7674 144.88 96.4074 144.576C97.0474 144.272 97.7754 144.12 98.5914 144.12C99.6154 144.12 100.511 144.36 101.279 144.84C102.063 145.304 102.679 145.984 103.127 146.88C103.575 147.76 103.799 148.816 103.799 150.048C103.799 151.312 103.543 152.408 103.031 153.336C102.535 154.264 101.831 154.984 100.919 155.496C100.023 155.992 98.9674 156.24 97.7514 156.24ZM97.6554 153.96C98.6474 153.96 99.4154 153.648 99.9594 153.024C100.519 152.384 100.799 151.432 100.799 150.168C100.799 148.936 100.519 148 99.9594 147.36C99.3994 146.704 98.6314 146.376 97.6554 146.376C96.6794 146.376 95.9114 146.696 95.3514 147.336C94.7914 147.976 94.5114 148.888 94.5114 150.072C94.5114 151.368 94.7914 152.344 95.3514 153C95.9114 153.64 96.6794 153.96 97.6554 153.96ZM112.21 156.24C110.962 156.24 109.882 155.984 108.97 155.472C108.058 154.96 107.346 154.232 106.834 153.288C106.338 152.344 106.09 151.224 106.09 149.928C106.09 148.632 106.338 147.52 106.834 146.592C107.346 145.648 108.058 144.92 108.97 144.408C109.882 143.896 110.962 143.64 112.21 143.64C113.458 143.64 114.538 143.896 115.45 144.408C116.378 144.92 117.09 145.648 117.586 146.592C118.098 147.52 118.354 148.632 118.354 149.928C118.354 151.224 118.098 152.344 117.586 153.288C117.09 154.232 116.378 154.96 115.45 155.472C114.538 155.984 113.458 156.24 112.21 156.24ZM112.21 153.936C113.154 153.936 113.906 153.608 114.466 152.952C115.026 152.28 115.306 151.272 115.306 149.928C115.306 148.584 115.026 147.584 114.466 146.928C113.906 146.272 113.154 145.944 112.21 145.944C111.266 145.944 110.514 146.272 109.954 146.928C109.394 147.584 109.114 148.584 109.114 149.928C109.114 151.272 109.394 152.28 109.954 152.952C110.514 153.608 111.266 153.936 112.21 153.936ZM123.812 156V146.232H119.66V143.88H130.964V146.232H126.788V156H123.812ZM132.821 156V143.88H135.797V148.632H137.621L141.173 143.88H144.389L139.925 149.928L139.277 148.992C139.725 149.04 140.117 149.16 140.453 149.352C140.805 149.544 141.133 149.816 141.437 150.168C141.757 150.504 142.069 150.936 142.373 151.464L144.917 156H141.725L139.661 152.352C139.453 151.984 139.245 151.696 139.037 151.488C138.829 151.28 138.597 151.136 138.341 151.056C138.085 150.976 137.773 150.936 137.405 150.936H135.797V156H132.821ZM151.285 156.24C150.229 156.24 149.301 155.992 148.501 155.496C147.701 154.984 147.077 154.256 146.629 153.312C146.181 152.368 145.957 151.24 145.957 149.928C145.957 148.616 146.181 147.496 146.629 146.568C147.077 145.624 147.701 144.904 148.501 144.408C149.301 143.896 150.229 143.64 151.285 143.64C152.309 143.64 153.205 143.896 153.973 144.408C154.757 144.904 155.277 145.576 155.533 146.424H155.269L155.533 143.88H158.413C158.365 144.376 158.317 144.88 158.269 145.392C158.237 145.904 158.221 146.408 158.221 146.904V156H155.245L155.221 153.504H155.509C155.253 154.336 154.733 155 153.949 155.496C153.165 155.992 152.277 156.24 151.285 156.24ZM152.125 153.936C153.069 153.936 153.829 153.608 154.405 152.952C154.981 152.28 155.269 151.272 155.269 149.928C155.269 148.584 154.981 147.584 154.405 146.928C153.829 146.272 153.069 145.944 152.125 145.944C151.181 145.944 150.421 146.272 149.845 146.928C149.269 147.584 148.981 148.584 148.981 149.928C148.981 151.272 149.261 152.28 149.821 152.952C150.397 153.608 151.165 153.936 152.125 153.936Z" fill="#343434"/>
</g>
<defs>
<linearGradient id="paint0_linear_102_116" x1="41.5" y1="0" x2="41.5" y2="68" gradientUnits="userSpaceOnUse">
<stop stop-color="white" stop-opacity="0.16"/>
<stop offset="1" stop-color="white"/>
</linearGradient>
<clipPath id="clip0_102_116">
<rect width="340" height="192" rx="16" fill="white"/>
</clipPath>
</defs>
</svg>
