<svg width="340" height="192" viewBox="0 0 340 192" fill="none" xmlns="http://www.w3.org/2000/svg">
<g clip-path="url(#clip0_102_91)">
<rect width="340" height="192" rx="16" fill="#F0ECD3"/>
<circle cx="308" cy="32" r="64" fill="white" fill-opacity="0.64"/>
<path d="M279.242 59.9473L281.468 51.6403C280.089 49.4764 279.194 47.1402 278.784 44.6319C278.374 42.1236 278.501 39.6298 279.165 37.1506C280.459 32.321 283.242 28.6668 287.515 26.1881C291.787 23.7094 296.328 23.1143 301.137 24.4029C305.144 25.4768 308.378 27.6115 310.838 30.807C313.298 34.0025 314.484 37.6245 314.395 41.673L314.219 52.9103C314.227 53.3954 314.037 53.7845 313.649 54.0774C313.261 54.3704 312.827 54.4524 312.346 54.3236L307.873 53.1251L306.061 59.8866C305.846 60.6916 305.382 61.3006 304.67 61.7137C303.958 62.1268 303.201 62.226 302.4 62.0112L297.59 60.7226L296.555 64.5863L293.67 63.8131L295.481 57.0517L303.176 59.1134L305.764 49.4542L311.247 50.9232L311.412 41.65C311.479 38.3207 310.48 35.318 308.413 32.642C306.347 29.966 303.663 28.1856 300.36 27.3007C296.353 26.2269 292.573 26.7066 289.021 28.74C285.47 30.7734 283.155 33.8025 282.076 37.8272C281.524 39.8878 281.423 41.9657 281.772 44.0608C282.121 46.1559 282.871 48.1341 284.022 49.9953L284.703 51.1095L282.128 60.7205L279.242 59.9473ZM293.89 51.4489C294.435 51.5949 294.941 51.5322 295.409 51.2607C295.877 50.9892 296.185 50.5798 296.331 50.0325C296.478 49.4851 296.416 48.9769 296.147 48.5078C295.877 48.0388 295.47 47.7312 294.925 47.5852C294.38 47.4391 293.874 47.5018 293.406 47.7733C292.938 48.0448 292.63 48.4542 292.484 49.0016C292.337 49.5489 292.399 50.0571 292.668 50.5262C292.938 50.9953 293.345 51.3028 293.89 51.4489ZM294.104 44.8804L297.037 45.6664C297.253 44.8615 297.532 44.2374 297.874 43.7942C298.216 43.3509 298.803 42.8611 299.634 42.3245C300.383 41.8352 301.119 41.3336 301.841 40.8196C302.563 40.3056 303.066 39.5173 303.351 38.4548C303.713 37.1025 303.498 35.8199 302.707 34.6069C301.915 33.394 300.749 32.5814 299.211 32.169C297.928 31.8254 296.667 31.8842 295.426 32.3456C294.186 32.8069 293.198 33.5774 292.462 34.657L294.809 36.4766C295.223 35.8284 295.769 35.3621 296.447 35.0778C297.124 34.7934 297.8 34.7415 298.473 34.9219C299.178 35.1109 299.712 35.4609 300.073 35.9718C300.434 36.4827 300.533 37.0441 300.369 37.6558C300.188 38.332 299.826 38.882 299.283 39.3059C298.74 39.7297 298.122 40.1423 297.43 40.5436C296.608 41.048 295.93 41.591 295.396 42.1726C294.862 42.7543 294.431 43.6568 294.104 44.8804Z" fill="#343434"/>
<path d="M68.235 60.313L67.684 58.432C68.2793 58.3053 68.7797 58.1597 69.185 57.995C69.5903 57.8303 69.926 57.615 70.192 57.349C70.458 57.083 70.6797 56.741 70.857 56.323L71.332 55.202L71.275 56.133L67.095 46.405H69.622L72.624 53.891H72.073L75.094 46.405H77.488L73.118 56.532C72.8267 57.216 72.51 57.7797 72.168 58.223C71.826 58.679 71.4587 59.04 71.066 59.306C70.6733 59.5847 70.2427 59.8 69.774 59.952C69.3053 60.104 68.7923 60.2243 68.235 60.313ZM78.6212 60.104V48.799C78.6212 48.4063 78.6085 48.0073 78.5832 47.602C78.5578 47.1967 78.5198 46.7977 78.4692 46.405H80.7682L80.9772 48.419H80.7682C80.9582 47.7477 81.3572 47.2157 81.9652 46.823C82.5858 46.4177 83.3015 46.215 84.1122 46.215C84.9608 46.215 85.7018 46.4177 86.3352 46.823C86.9685 47.2157 87.4625 47.7857 87.8172 48.533C88.1718 49.2677 88.3492 50.1543 88.3492 51.193C88.3492 52.2317 88.1718 53.1247 87.8172 53.872C87.4625 54.6193 86.9685 55.1957 86.3352 55.601C85.7018 55.9937 84.9608 56.19 84.1122 56.19C83.3142 56.19 82.6112 55.9937 82.0032 55.601C81.3952 55.2083 80.9898 54.6827 80.7872 54.024H80.9962V60.104H78.6212ZM83.4472 54.366C84.2072 54.366 84.8152 54.1063 85.2712 53.587C85.7272 53.055 85.9552 52.257 85.9552 51.193C85.9552 50.129 85.7272 49.3373 85.2712 48.818C84.8152 48.2987 84.2072 48.039 83.4472 48.039C82.6998 48.039 82.0982 48.2987 81.6422 48.818C81.1862 49.3373 80.9582 50.129 80.9582 51.193C80.9582 52.257 81.1862 53.055 81.6422 53.587C82.0982 54.1063 82.6998 54.366 83.4472 54.366ZM94.6152 56.19C93.6272 56.19 92.7722 55.9873 92.0502 55.582C91.3282 55.1767 90.7645 54.6003 90.3592 53.853C89.9665 53.1057 89.7702 52.219 89.7702 51.193C89.7702 50.167 89.9665 49.2867 90.3592 48.552C90.7645 47.8047 91.3282 47.2283 92.0502 46.823C92.7722 46.4177 93.6272 46.215 94.6152 46.215C95.6032 46.215 96.4582 46.4177 97.1802 46.823C97.9148 47.2283 98.4785 47.8047 98.8712 48.552C99.2765 49.2867 99.4792 50.167 99.4792 51.193C99.4792 52.219 99.2765 53.1057 98.8712 53.853C98.4785 54.6003 97.9148 55.1767 97.1802 55.582C96.4582 55.9873 95.6032 56.19 94.6152 56.19ZM94.6152 54.366C95.3625 54.366 95.9578 54.1063 96.4012 53.587C96.8445 53.055 97.0662 52.257 97.0662 51.193C97.0662 50.129 96.8445 49.3373 96.4012 48.818C95.9578 48.2987 95.3625 48.039 94.6152 48.039C93.8678 48.039 93.2725 48.2987 92.8292 48.818C92.3858 49.3373 92.1642 50.129 92.1642 51.193C92.1642 52.257 92.3858 53.055 92.8292 53.587C93.2725 54.1063 93.8678 54.366 94.6152 54.366ZM101.35 56V46.405H103.706V50.167H105.15L107.962 46.405H110.508L106.974 51.193L106.461 50.452C106.815 50.49 107.126 50.585 107.392 50.737C107.67 50.889 107.93 51.1043 108.171 51.383C108.424 51.649 108.671 51.991 108.912 52.409L110.926 56H108.399L106.765 53.112C106.6 52.8207 106.435 52.5927 106.271 52.428C106.106 52.2633 105.922 52.1493 105.72 52.086C105.517 52.0227 105.27 51.991 104.979 51.991H103.706V56H101.35ZM117.399 56V53.967H120.477V44.657H121.655L117.703 47.013V44.695L121.18 42.605H122.928V53.967H125.816V56H117.399Z" fill="#343434"/>
<path d="M32 0H51V63.2106C51 65.2511 51 66.2714 50.3853 66.5281C49.7707 66.7847 49.0451 66.0675 47.5939 64.6329L43.1314 60.2215C42.4846 59.5821 42.1612 59.2624 41.7585 59.2568C41.3558 59.2512 41.0236 59.5618 40.3593 60.183L35.366 64.8523C33.9245 66.2003 33.2038 66.8743 32.6019 66.6131C32 66.3519 32 65.3651 32 63.3915V0Z" fill="url(#paint0_linear_102_91)"/>
<path d="M44.168 106V99.376C43.704 99.584 43.12 99.752 42.416 99.88C41.712 100.008 41.008 100.072 40.304 100.072C38.032 100.072 36.288 99.488 35.072 98.32C33.872 97.152 33.272 95.384 33.272 93.016V89.08H36.344V92.872C36.344 94.472 36.696 95.64 37.4 96.376C38.12 97.096 39.2 97.456 40.64 97.456C41.248 97.456 41.848 97.4 42.44 97.288C43.048 97.176 43.624 96.992 44.168 96.736V89.08H47.24V106H44.168ZM56.7419 106.24C54.7099 106.24 53.1179 105.68 51.9659 104.56C50.8139 103.44 50.2379 101.904 50.2379 99.952C50.2379 98.688 50.4859 97.584 50.9819 96.64C51.4779 95.696 52.1659 94.96 53.0459 94.432C53.9419 93.904 54.9819 93.64 56.1659 93.64C57.3339 93.64 58.3099 93.888 59.0939 94.384C59.8779 94.88 60.4699 95.576 60.8699 96.472C61.2859 97.368 61.4939 98.416 61.4939 99.616V100.408H52.6619V98.824H59.3579L58.9499 99.16C58.9499 98.04 58.7099 97.184 58.2299 96.592C57.7659 96 57.0859 95.704 56.1899 95.704C55.1979 95.704 54.4299 96.056 53.8859 96.76C53.3579 97.464 53.0939 98.448 53.0939 99.712V100.024C53.0939 101.336 53.4139 102.32 54.0539 102.976C54.7099 103.616 55.6299 103.936 56.8139 103.936C57.5019 103.936 58.1419 103.848 58.7339 103.672C59.3419 103.48 59.9179 103.176 60.4619 102.76L61.3499 104.776C60.7739 105.24 60.0859 105.6 59.2859 105.856C58.4859 106.112 57.6379 106.24 56.7419 106.24ZM69.9305 106.24C68.6825 106.24 67.5865 105.984 66.6425 105.472C65.7145 104.96 64.9945 104.232 64.4825 103.288C63.9705 102.328 63.7145 101.192 63.7145 99.88C63.7145 98.568 63.9705 97.448 64.4825 96.52C65.0105 95.592 65.7385 94.88 66.6665 94.384C67.5945 93.888 68.6825 93.64 69.9305 93.64C70.7305 93.64 71.5065 93.768 72.2585 94.024C73.0265 94.264 73.6505 94.616 74.1305 95.08L73.2185 97.168C72.7865 96.768 72.2985 96.472 71.7545 96.28C71.2265 96.072 70.7065 95.968 70.1945 95.968C69.1225 95.968 68.2825 96.304 67.6745 96.976C67.0825 97.648 66.7865 98.624 66.7865 99.904C66.7865 101.184 67.0825 102.168 67.6745 102.856C68.2825 103.544 69.1225 103.888 70.1945 103.888C70.6905 103.888 71.2025 103.792 71.7305 103.6C72.2745 103.408 72.7705 103.112 73.2185 102.712L74.1305 104.776C73.6345 105.24 73.0025 105.6 72.2345 105.856C71.4825 106.112 70.7145 106.24 69.9305 106.24ZM79.3044 106V96.232H75.1524V93.88H86.4564V96.232H82.2804V106H79.3044ZM88.3134 106V93.88H91.2894V98.632H96.7614V93.88H99.7374V106H96.7614V100.936H91.2894V106H88.3134ZM108.717 106.24C107.469 106.24 106.389 105.984 105.477 105.472C104.565 104.96 103.853 104.232 103.341 103.288C102.845 102.344 102.597 101.224 102.597 99.928C102.597 98.632 102.845 97.52 103.341 96.592C103.853 95.648 104.565 94.92 105.477 94.408C106.389 93.896 107.469 93.64 108.717 93.64C109.965 93.64 111.045 93.896 111.957 94.408C112.885 94.92 113.597 95.648 114.093 96.592C114.605 97.52 114.861 98.632 114.861 99.928C114.861 101.224 114.605 102.344 114.093 103.288C113.597 104.232 112.885 104.96 111.957 105.472C111.045 105.984 109.965 106.24 108.717 106.24ZM108.717 103.936C109.661 103.936 110.413 103.608 110.973 102.952C111.533 102.28 111.813 101.272 111.813 99.928C111.813 98.584 111.533 97.584 110.973 96.928C110.413 96.272 109.661 95.944 108.717 95.944C107.773 95.944 107.021 96.272 106.461 96.928C105.901 97.584 105.621 98.584 105.621 99.928C105.621 101.272 105.901 102.28 106.461 102.952C107.021 103.608 107.773 103.936 108.717 103.936ZM123.368 106.24C122.12 106.24 121.024 105.984 120.08 105.472C119.152 104.96 118.432 104.232 117.92 103.288C117.408 102.328 117.152 101.192 117.152 99.88C117.152 98.568 117.408 97.448 117.92 96.52C118.448 95.592 119.176 94.88 120.104 94.384C121.032 93.888 122.12 93.64 123.368 93.64C124.168 93.64 124.944 93.768 125.696 94.024C126.464 94.264 127.088 94.616 127.568 95.08L126.656 97.168C126.224 96.768 125.736 96.472 125.192 96.28C124.664 96.072 124.144 95.968 123.632 95.968C122.56 95.968 121.72 96.304 121.112 96.976C120.52 97.648 120.224 98.624 120.224 99.904C120.224 101.184 120.52 102.168 121.112 102.856C121.72 103.544 122.56 103.888 123.632 103.888C124.128 103.888 124.64 103.792 125.168 103.6C125.712 103.408 126.208 103.112 126.656 102.712L127.568 104.776C127.072 105.24 126.44 105.6 125.672 105.856C124.92 106.112 124.152 106.24 123.368 106.24ZM132.742 106V96.232H128.59V93.88H139.894V96.232H135.718V106H132.742ZM141.751 106V93.88H144.727V97.936H147.919C149.535 97.936 150.751 98.28 151.567 98.968C152.383 99.64 152.791 100.616 152.791 101.896C152.791 102.728 152.599 103.456 152.215 104.08C151.831 104.688 151.271 105.16 150.535 105.496C149.815 105.832 148.943 106 147.919 106H141.751ZM144.727 104.032H147.511C148.327 104.032 148.951 103.864 149.383 103.528C149.815 103.176 150.031 102.648 150.031 101.944C150.031 101.24 149.815 100.728 149.383 100.408C148.967 100.072 148.343 99.904 147.511 99.904H144.727V104.032ZM166.932 106.216C165.748 106.216 164.716 105.96 163.836 105.448C162.972 104.936 162.3 104.208 161.82 103.264C161.356 102.32 161.124 101.2 161.124 99.904C161.124 98.592 161.364 97.48 161.844 96.568C162.324 95.64 162.996 94.936 163.86 94.456C164.74 93.976 165.764 93.736 166.932 93.736C167.7 93.736 168.444 93.872 169.164 94.144C169.9 94.416 170.508 94.8 170.988 95.296L170.292 96.688C169.812 96.224 169.284 95.88 168.708 95.656C168.148 95.432 167.596 95.32 167.052 95.32C165.804 95.32 164.836 95.712 164.148 96.496C163.46 97.28 163.116 98.424 163.116 99.928C163.116 101.416 163.46 102.568 164.148 103.384C164.836 104.2 165.804 104.608 167.052 104.608C167.58 104.608 168.124 104.504 168.684 104.296C169.26 104.088 169.796 103.744 170.292 103.264L170.988 104.632C170.492 105.144 169.876 105.536 169.14 105.808C168.404 106.08 167.668 106.216 166.932 106.216ZM185.307 106.216C184.123 106.216 183.091 105.96 182.211 105.448C181.347 104.936 180.675 104.208 180.195 103.264C179.731 102.32 179.499 101.2 179.499 99.904C179.499 98.592 179.739 97.48 180.219 96.568C180.699 95.64 181.371 94.936 182.235 94.456C183.115 93.976 184.139 93.736 185.307 93.736C186.075 93.736 186.819 93.872 187.539 94.144C188.275 94.416 188.883 94.8 189.363 95.296L188.667 96.688C188.187 96.224 187.659 95.88 187.083 95.656C186.523 95.432 185.971 95.32 185.427 95.32C184.179 95.32 183.211 95.712 182.523 96.496C181.835 97.28 181.491 98.424 181.491 99.928C181.491 101.416 181.835 102.568 182.523 103.384C183.211 104.2 184.179 104.608 185.427 104.608C185.955 104.608 186.499 104.504 187.059 104.296C187.635 104.088 188.171 103.744 188.667 103.264L189.363 104.632C188.867 105.144 188.251 105.536 187.515 105.808C186.779 106.08 186.043 106.216 185.307 106.216ZM197.304 106.216C196.152 106.216 195.144 105.968 194.28 105.472C193.432 104.96 192.776 104.24 192.312 103.312C191.848 102.368 191.616 101.256 191.616 99.976C191.616 98.68 191.848 97.568 192.312 96.64C192.776 95.712 193.432 95 194.28 94.504C195.144 93.992 196.152 93.736 197.304 93.736C198.472 93.736 199.48 93.992 200.328 94.504C201.192 95 201.856 95.712 202.32 96.64C202.8 97.568 203.04 98.68 203.04 99.976C203.04 101.256 202.8 102.368 202.32 103.312C201.856 104.24 201.192 104.96 200.328 105.472C199.48 105.968 198.472 106.216 197.304 106.216ZM197.304 104.632C198.456 104.632 199.368 104.24 200.04 103.456C200.712 102.656 201.048 101.496 201.048 99.976C201.048 98.44 200.704 97.28 200.016 96.496C199.344 95.696 198.44 95.296 197.304 95.296C196.168 95.296 195.264 95.696 194.592 96.496C193.92 97.28 193.584 98.44 193.584 99.976C193.584 101.496 193.92 102.656 194.592 103.456C195.264 104.24 196.168 104.632 197.304 104.632ZM211.321 106.216C209.561 106.216 208.161 105.648 207.121 104.512C206.081 103.376 205.561 101.72 205.561 99.544V97.432C205.561 95.208 206.017 93.408 206.929 92.032C207.841 90.656 209.281 89.728 211.249 89.248L215.641 88.144L216.241 89.728L211.369 90.928C210.473 91.152 209.737 91.544 209.161 92.104C208.585 92.648 208.145 93.304 207.841 94.072C207.553 94.824 207.409 95.624 207.409 96.472V97.432H207.121C207.313 96.712 207.625 96.096 208.057 95.584C208.489 95.056 209.017 94.656 209.641 94.384C210.281 94.096 210.985 93.952 211.753 93.952C212.793 93.952 213.705 94.2 214.489 94.696C215.273 95.176 215.881 95.872 216.313 96.784C216.761 97.68 216.985 98.76 216.985 100.024C216.985 101.288 216.753 102.384 216.289 103.312C215.825 104.24 215.169 104.96 214.321 105.472C213.473 105.968 212.473 106.216 211.321 106.216ZM211.273 104.656C212.441 104.656 213.361 104.272 214.033 103.504C214.705 102.72 215.041 101.576 215.041 100.072C215.041 98.584 214.697 97.456 214.009 96.688C213.337 95.904 212.425 95.512 211.273 95.512C210.121 95.512 209.201 95.896 208.513 96.664C207.841 97.432 207.505 98.52 207.505 99.928C207.505 101.496 207.841 102.68 208.513 103.48C209.185 104.264 210.105 104.656 211.273 104.656ZM225.218 106.216C224.066 106.216 223.058 105.968 222.194 105.472C221.346 104.96 220.69 104.24 220.226 103.312C219.762 102.368 219.53 101.256 219.53 99.976C219.53 98.68 219.762 97.568 220.226 96.64C220.69 95.712 221.346 95 222.194 94.504C223.058 93.992 224.066 93.736 225.218 93.736C226.386 93.736 227.394 93.992 228.242 94.504C229.106 95 229.77 95.712 230.234 96.64C230.714 97.568 230.954 98.68 230.954 99.976C230.954 101.256 230.714 102.368 230.234 103.312C229.77 104.24 229.106 104.96 228.242 105.472C227.394 105.968 226.386 106.216 225.218 106.216ZM225.218 104.632C226.37 104.632 227.282 104.24 227.954 103.456C228.626 102.656 228.962 101.496 228.962 99.976C228.962 98.44 228.618 97.28 227.93 96.496C227.258 95.696 226.354 95.296 225.218 95.296C224.082 95.296 223.178 95.696 222.506 96.496C221.834 97.28 221.498 98.44 221.498 99.976C221.498 101.496 221.834 102.656 222.506 103.456C223.178 104.24 224.082 104.632 225.218 104.632ZM234.123 106V93.952H235.899V104.2H235.251L242.931 93.952H244.563V106H242.811V95.728H243.459L235.779 106H234.123ZM239.331 92.824C238.675 92.824 238.067 92.712 237.507 92.488C236.947 92.264 236.459 91.928 236.043 91.48C235.627 91.016 235.315 90.448 235.107 89.776L236.259 89.344C236.547 90.112 236.939 90.68 237.435 91.048C237.947 91.416 238.587 91.6 239.355 91.6C240.123 91.6 240.755 91.432 241.251 91.096C241.747 90.76 242.179 90.184 242.547 89.368L243.651 89.776C243.235 90.864 242.651 91.648 241.899 92.128C241.163 92.592 240.307 92.824 239.331 92.824Z" fill="#343434"/>
</g>
<defs>
<linearGradient id="paint0_linear_102_91" x1="41.5" y1="0" x2="41.5" y2="68" gradientUnits="userSpaceOnUse">
<stop stop-color="white" stop-opacity="0.16"/>
<stop offset="1" stop-color="white"/>
</linearGradient>
<clipPath id="clip0_102_91">
<rect width="340" height="192" rx="16" fill="white"/>
</clipPath>
</defs>
</svg>
