<svg width="340" height="192" viewBox="0 0 340 192" fill="none" xmlns="http://www.w3.org/2000/svg">
<g clip-path="url(#clip0_102_132)">
<rect width="340" height="192" rx="16" fill="#DBD3F0"/>
<circle cx="308" cy="32" r="64" fill="white" fill-opacity="0.64"/>
<path d="M290.04 66.1311C286.376 65.1494 283.628 63.0495 281.795 59.8312C279.962 56.613 279.542 53.1505 280.535 49.4439L283.818 37.1931C284.811 33.4865 286.906 30.6979 290.102 28.8274C293.299 26.9568 296.729 26.5124 300.393 27.4941C304.056 28.4757 306.805 30.5757 308.638 33.7939C310.471 37.0122 310.891 40.4746 309.898 44.1812L306.615 56.432C305.622 60.1387 303.527 62.9272 300.33 64.7978C297.134 66.6683 293.704 67.1128 290.04 66.1311ZM298.255 41.0616L307.103 43.4325C307.785 40.8881 307.568 38.406 306.453 35.9861C305.338 33.5662 303.523 31.8341 301.007 30.7898L298.255 41.0616ZM286.612 37.9419L295.461 40.3128L298.213 30.041C295.512 29.6878 293.074 30.2801 290.898 31.8182C288.723 33.3562 287.294 35.3975 286.612 37.9419ZM290.798 63.304C293.623 64.061 296.308 63.6948 298.854 62.2053C301.399 60.7158 303.055 58.5418 303.821 55.6833L306.346 46.2596L285.854 40.769L283.329 50.1926C282.563 53.0511 282.91 55.7617 284.37 58.3244C285.83 60.8871 287.972 62.5469 290.798 63.304Z" fill="#343434"/>
<path d="M68.235 60.313L67.684 58.432C68.2793 58.3053 68.7797 58.1597 69.185 57.995C69.5903 57.8303 69.926 57.615 70.192 57.349C70.458 57.083 70.6797 56.741 70.857 56.323L71.332 55.202L71.275 56.133L67.095 46.405H69.622L72.624 53.891H72.073L75.094 46.405H77.488L73.118 56.532C72.8267 57.216 72.51 57.7797 72.168 58.223C71.826 58.679 71.4587 59.04 71.066 59.306C70.6733 59.5847 70.2427 59.8 69.774 59.952C69.3053 60.104 68.7923 60.2243 68.235 60.313ZM78.6212 60.104V48.799C78.6212 48.4063 78.6085 48.0073 78.5832 47.602C78.5578 47.1967 78.5198 46.7977 78.4692 46.405H80.7682L80.9772 48.419H80.7682C80.9582 47.7477 81.3572 47.2157 81.9652 46.823C82.5858 46.4177 83.3015 46.215 84.1122 46.215C84.9608 46.215 85.7018 46.4177 86.3352 46.823C86.9685 47.2157 87.4625 47.7857 87.8172 48.533C88.1718 49.2677 88.3492 50.1543 88.3492 51.193C88.3492 52.2317 88.1718 53.1247 87.8172 53.872C87.4625 54.6193 86.9685 55.1957 86.3352 55.601C85.7018 55.9937 84.9608 56.19 84.1122 56.19C83.3142 56.19 82.6112 55.9937 82.0032 55.601C81.3952 55.2083 80.9898 54.6827 80.7872 54.024H80.9962V60.104H78.6212ZM83.4472 54.366C84.2072 54.366 84.8152 54.1063 85.2712 53.587C85.7272 53.055 85.9552 52.257 85.9552 51.193C85.9552 50.129 85.7272 49.3373 85.2712 48.818C84.8152 48.2987 84.2072 48.039 83.4472 48.039C82.6998 48.039 82.0982 48.2987 81.6422 48.818C81.1862 49.3373 80.9582 50.129 80.9582 51.193C80.9582 52.257 81.1862 53.055 81.6422 53.587C82.0982 54.1063 82.6998 54.366 83.4472 54.366ZM94.6152 56.19C93.6272 56.19 92.7722 55.9873 92.0502 55.582C91.3282 55.1767 90.7645 54.6003 90.3592 53.853C89.9665 53.1057 89.7702 52.219 89.7702 51.193C89.7702 50.167 89.9665 49.2867 90.3592 48.552C90.7645 47.8047 91.3282 47.2283 92.0502 46.823C92.7722 46.4177 93.6272 46.215 94.6152 46.215C95.6032 46.215 96.4582 46.4177 97.1802 46.823C97.9148 47.2283 98.4785 47.8047 98.8712 48.552C99.2765 49.2867 99.4792 50.167 99.4792 51.193C99.4792 52.219 99.2765 53.1057 98.8712 53.853C98.4785 54.6003 97.9148 55.1767 97.1802 55.582C96.4582 55.9873 95.6032 56.19 94.6152 56.19ZM94.6152 54.366C95.3625 54.366 95.9578 54.1063 96.4012 53.587C96.8445 53.055 97.0662 52.257 97.0662 51.193C97.0662 50.129 96.8445 49.3373 96.4012 48.818C95.9578 48.2987 95.3625 48.039 94.6152 48.039C93.8678 48.039 93.2725 48.2987 92.8292 48.818C92.3858 49.3373 92.1642 50.129 92.1642 51.193C92.1642 52.257 92.3858 53.055 92.8292 53.587C93.2725 54.1063 93.8678 54.366 94.6152 54.366ZM101.35 56V46.405H103.706V50.167H105.15L107.962 46.405H110.508L106.974 51.193L106.461 50.452C106.815 50.49 107.126 50.585 107.392 50.737C107.67 50.889 107.93 51.1043 108.171 51.383C108.424 51.649 108.671 51.991 108.912 52.409L110.926 56H108.399L106.765 53.112C106.6 52.8207 106.435 52.5927 106.271 52.428C106.106 52.2633 105.922 52.1493 105.72 52.086C105.517 52.0227 105.27 51.991 104.979 51.991H103.706V56H101.35ZM121.465 56.19C119.781 56.19 118.476 55.6073 117.551 54.442C116.639 53.2767 116.183 51.6427 116.183 49.54C116.183 48.02 116.418 46.7343 116.886 45.683C117.355 44.619 118.02 43.8083 118.881 43.251C119.755 42.6937 120.8 42.415 122.016 42.415C122.738 42.415 123.454 42.548 124.163 42.814C124.873 43.0673 125.481 43.4347 125.987 43.916L125.17 45.74C124.702 45.3093 124.195 44.9927 123.65 44.79C123.106 44.5747 122.555 44.467 121.997 44.467C120.857 44.467 119.99 44.8533 119.394 45.626C118.799 46.3987 118.501 47.5513 118.501 49.084V50.509H118.273C118.375 49.863 118.59 49.312 118.919 48.856C119.249 48.3873 119.673 48.0327 120.192 47.792C120.712 47.5387 121.288 47.412 121.921 47.412C122.707 47.412 123.403 47.5957 124.011 47.963C124.619 48.3303 125.094 48.837 125.436 49.483C125.791 50.129 125.968 50.87 125.968 51.706C125.968 52.5673 125.772 53.34 125.379 54.024C124.999 54.6953 124.474 55.2273 123.802 55.62C123.131 56 122.352 56.19 121.465 56.19ZM121.332 54.252C121.801 54.252 122.213 54.1507 122.567 53.948C122.922 53.7453 123.194 53.4603 123.384 53.093C123.587 52.713 123.688 52.2823 123.688 51.801C123.688 51.307 123.587 50.8763 123.384 50.509C123.194 50.1417 122.922 49.8567 122.567 49.654C122.213 49.4387 121.801 49.331 121.332 49.331C120.864 49.331 120.452 49.4387 120.097 49.654C119.743 49.8567 119.464 50.1417 119.261 50.509C119.059 50.8763 118.957 51.307 118.957 51.801C118.957 52.2823 119.059 52.713 119.261 53.093C119.464 53.4603 119.743 53.7453 120.097 53.948C120.452 54.1507 120.864 54.252 121.332 54.252Z" fill="#343434"/>
<path d="M32 0H51V63.2106C51 65.2511 51 66.2714 50.3853 66.5281C49.7707 66.7847 49.0451 66.0675 47.5939 64.6329L43.1314 60.2215C42.4846 59.5821 42.1612 59.2624 41.7585 59.2568C41.3558 59.2512 41.0236 59.5618 40.3593 60.183L35.366 64.8523C33.9245 66.2003 33.2038 66.8743 32.6019 66.6131C32 66.3519 32 65.3651 32 63.3915V0Z" fill="url(#paint0_linear_102_132)"/>
<path d="M34.112 106V89.08H48.272V106H46.28V90.76H36.056V106H34.112ZM57.3116 106.216C56.1596 106.216 55.1516 105.968 54.2876 105.472C53.4396 104.96 52.7836 104.24 52.3196 103.312C51.8556 102.368 51.6236 101.256 51.6236 99.976C51.6236 98.68 51.8556 97.568 52.3196 96.64C52.7836 95.712 53.4396 95 54.2876 94.504C55.1516 93.992 56.1596 93.736 57.3116 93.736C58.4796 93.736 59.4876 93.992 60.3356 94.504C61.1996 95 61.8636 95.712 62.3276 96.64C62.8076 97.568 63.0476 98.68 63.0476 99.976C63.0476 101.256 62.8076 102.368 62.3276 103.312C61.8636 104.24 61.1996 104.96 60.3356 105.472C59.4876 105.968 58.4796 106.216 57.3116 106.216ZM57.3116 104.632C58.4636 104.632 59.3756 104.24 60.0476 103.456C60.7196 102.656 61.0556 101.496 61.0556 99.976C61.0556 98.44 60.7116 97.28 60.0236 96.496C59.3516 95.696 58.4476 95.296 57.3116 95.296C56.1756 95.296 55.2716 95.696 54.5996 96.496C53.9276 97.28 53.5916 98.44 53.5916 99.976C53.5916 101.496 53.9276 102.656 54.5996 103.456C55.2716 104.24 56.1756 104.632 57.3116 104.632ZM65.3345 106.264L64.6145 104.752C65.1745 104.496 65.6385 104.184 66.0065 103.816C66.3905 103.432 66.6945 102.952 66.9185 102.376C67.1425 101.784 67.3025 101.056 67.3985 100.192C67.4945 99.312 67.5425 98.256 67.5425 97.024V93.952H76.2305V106H74.3105V95.488H69.3425V97.096C69.3425 98.984 69.2065 100.536 68.9345 101.752C68.6785 102.968 68.2545 103.936 67.6625 104.656C67.0865 105.36 66.3105 105.896 65.3345 106.264ZM79.6844 111.448L79.2284 109.84C79.9804 109.664 80.6044 109.456 81.1004 109.216C81.6124 108.992 82.0364 108.688 82.3724 108.304C82.7084 107.92 82.9964 107.44 83.2364 106.864L83.8604 105.448L83.8124 106.264L78.5564 93.952H80.6684L85.0124 104.536H84.3884L88.6844 93.952H90.7244L85.1564 107.008C84.8364 107.776 84.4844 108.416 84.1004 108.928C83.7164 109.456 83.3004 109.88 82.8524 110.2C82.4204 110.536 81.9404 110.8 81.4124 110.992C80.8844 111.184 80.3084 111.336 79.6844 111.448ZM100.829 106V101.104C100.365 101.376 99.8608 101.584 99.3168 101.728C98.7728 101.872 98.1888 101.944 97.5648 101.944C95.8688 101.944 94.6048 101.552 93.7728 100.768C92.9568 99.968 92.5488 98.76 92.5488 97.144V93.952H94.4928V97C94.4928 98.168 94.7568 99.016 95.2848 99.544C95.8288 100.056 96.6768 100.312 97.8288 100.312C98.4208 100.312 98.9488 100.248 99.4128 100.12C99.8768 99.992 100.333 99.776 100.781 99.472V93.952H102.725V106H100.829ZM106.576 106V93.952H108.352V104.2H107.704L115.384 93.952H117.016V106H115.264V95.728H115.912L108.232 106H106.576ZM126.988 111.184V96.904C126.988 96.408 126.972 95.904 126.94 95.392C126.908 94.88 126.86 94.376 126.796 93.88H129.7L129.964 96.424H129.7C129.94 95.576 130.444 94.904 131.212 94.408C131.996 93.896 132.9 93.64 133.924 93.64C134.996 93.64 135.932 93.896 136.732 94.408C137.532 94.904 138.156 95.624 138.604 96.568C139.052 97.496 139.276 98.616 139.276 99.928C139.276 101.24 139.052 102.368 138.604 103.312C138.156 104.256 137.532 104.984 136.732 105.496C135.932 105.992 134.996 106.24 133.924 106.24C132.916 106.24 132.028 105.992 131.26 105.496C130.492 105 129.98 104.336 129.724 103.504H129.988V111.184H126.988ZM133.084 103.936C134.044 103.936 134.812 103.608 135.388 102.952C135.964 102.28 136.252 101.272 136.252 99.928C136.252 98.584 135.964 97.584 135.388 96.928C134.812 96.272 134.044 95.944 133.084 95.944C132.14 95.944 131.38 96.272 130.804 96.928C130.228 97.584 129.94 98.584 129.94 99.928C129.94 101.272 130.228 102.28 130.804 102.952C131.38 103.608 132.14 103.936 133.084 103.936ZM146.878 106.24C145.822 106.24 144.894 105.992 144.094 105.496C143.294 104.984 142.67 104.256 142.222 103.312C141.774 102.368 141.55 101.24 141.55 99.928C141.55 98.616 141.774 97.496 142.222 96.568C142.67 95.624 143.294 94.904 144.094 94.408C144.894 93.896 145.822 93.64 146.878 93.64C147.902 93.64 148.798 93.896 149.566 94.408C150.35 94.904 150.87 95.576 151.126 96.424H150.862L151.126 93.88H154.006C153.958 94.376 153.91 94.88 153.862 95.392C153.83 95.904 153.814 96.408 153.814 96.904V106H150.838L150.814 103.504H151.102C150.846 104.336 150.326 105 149.542 105.496C148.758 105.992 147.87 106.24 146.878 106.24ZM147.718 103.936C148.662 103.936 149.422 103.608 149.998 102.952C150.574 102.28 150.862 101.272 150.862 99.928C150.862 98.584 150.574 97.584 149.998 96.928C149.422 96.272 148.662 95.944 147.718 95.944C146.774 95.944 146.014 96.272 145.438 96.928C144.862 97.584 144.574 98.584 144.574 99.928C144.574 101.272 144.854 102.28 145.414 102.952C145.99 103.608 146.758 103.936 147.718 103.936ZM163.001 106.24C161.097 106.24 159.577 105.664 158.441 104.512C157.321 103.36 156.761 101.672 156.761 99.448V97.384C156.761 95.096 157.281 93.256 158.321 91.864C159.361 90.472 160.929 89.552 163.025 89.104L167.465 88.096L168.281 90.448L163.289 91.552C162.457 91.728 161.769 92.064 161.225 92.56C160.681 93.04 160.273 93.616 160.001 94.288C159.729 94.96 159.593 95.68 159.593 96.448V97.72H159.185C159.361 97 159.657 96.376 160.073 95.848C160.489 95.304 161.017 94.88 161.657 94.576C162.297 94.272 163.025 94.12 163.841 94.12C164.865 94.12 165.761 94.36 166.529 94.84C167.313 95.304 167.929 95.984 168.377 96.88C168.825 97.76 169.049 98.816 169.049 100.048C169.049 101.312 168.793 102.408 168.281 103.336C167.785 104.264 167.081 104.984 166.169 105.496C165.273 105.992 164.217 106.24 163.001 106.24ZM162.905 103.96C163.897 103.96 164.665 103.648 165.209 103.024C165.769 102.384 166.049 101.432 166.049 100.168C166.049 98.936 165.769 98 165.209 97.36C164.649 96.704 163.881 96.376 162.905 96.376C161.929 96.376 161.161 96.696 160.601 97.336C160.041 97.976 159.761 98.888 159.761 100.072C159.761 101.368 160.041 102.344 160.601 103C161.161 103.64 161.929 103.96 162.905 103.96ZM177.46 106.24C176.212 106.24 175.132 105.984 174.22 105.472C173.308 104.96 172.596 104.232 172.084 103.288C171.588 102.344 171.34 101.224 171.34 99.928C171.34 98.632 171.588 97.52 172.084 96.592C172.596 95.648 173.308 94.92 174.22 94.408C175.132 93.896 176.212 93.64 177.46 93.64C178.708 93.64 179.788 93.896 180.7 94.408C181.628 94.92 182.34 95.648 182.836 96.592C183.348 97.52 183.604 98.632 183.604 99.928C183.604 101.224 183.348 102.344 182.836 103.288C182.34 104.232 181.628 104.96 180.7 105.472C179.788 105.984 178.708 106.24 177.46 106.24ZM177.46 103.936C178.404 103.936 179.156 103.608 179.716 102.952C180.276 102.28 180.556 101.272 180.556 99.928C180.556 98.584 180.276 97.584 179.716 96.928C179.156 96.272 178.404 95.944 177.46 95.944C176.516 95.944 175.764 96.272 175.204 96.928C174.644 97.584 174.364 98.584 174.364 99.928C174.364 101.272 174.644 102.28 175.204 102.952C175.764 103.608 176.516 103.936 177.46 103.936ZM189.062 106V96.232H184.91V93.88H196.214V96.232H192.038V106H189.062ZM198.044 111.448L197.348 109.072C198.1 108.912 198.732 108.728 199.244 108.52C199.756 108.312 200.18 108.04 200.516 107.704C200.852 107.368 201.132 106.936 201.356 106.408L201.956 104.992L201.884 106.168L196.604 93.88H199.796L203.588 103.336H202.892L206.708 93.88H209.732L204.212 106.672C203.844 107.536 203.444 108.248 203.012 108.808C202.58 109.384 202.116 109.84 201.62 110.176C201.124 110.528 200.58 110.8 199.988 110.992C199.396 111.184 198.748 111.336 198.044 111.448ZM33.704 131V118.88H36.2L40.376 126.128L44.552 118.88H47.048V131H44.408V122.24H44.96L41.072 129.032H39.68L35.792 122.24H36.344V131H33.704ZM56.4138 131.24C54.3818 131.24 52.7898 130.68 51.6378 129.56C50.4858 128.44 49.9098 126.904 49.9098 124.952C49.9098 123.688 50.1578 122.584 50.6538 121.64C51.1498 120.696 51.8378 119.96 52.7178 119.432C53.6138 118.904 54.6538 118.64 55.8378 118.64C57.0058 118.64 57.9818 118.888 58.7658 119.384C59.5498 119.88 60.1418 120.576 60.5418 121.472C60.9578 122.368 61.1658 123.416 61.1658 124.616V125.408H52.3338V123.824H59.0298L58.6218 124.16C58.6218 123.04 58.3818 122.184 57.9018 121.592C57.4378 121 56.7578 120.704 55.8618 120.704C54.8698 120.704 54.1018 121.056 53.5578 121.76C53.0298 122.464 52.7658 123.448 52.7658 124.712V125.024C52.7658 126.336 53.0858 127.32 53.7258 127.976C54.3818 128.616 55.3018 128.936 56.4858 128.936C57.1738 128.936 57.8138 128.848 58.4058 128.672C59.0138 128.48 59.5898 128.176 60.1338 127.76L61.0218 129.776C60.4458 130.24 59.7578 130.6 58.9578 130.856C58.1578 131.112 57.3098 131.24 56.4138 131.24ZM71.6424 131V126.584C71.1944 126.792 70.7304 126.952 70.2504 127.064C69.7704 127.176 69.2664 127.232 68.7384 127.232C66.9624 127.232 65.6344 126.808 64.7544 125.96C63.8904 125.112 63.4584 123.848 63.4584 122.168V118.88H66.4344V121.904C66.4344 122.928 66.6584 123.672 67.1064 124.136C67.5544 124.584 68.2744 124.808 69.2664 124.808C69.7304 124.808 70.1464 124.76 70.5144 124.664C70.8824 124.568 71.2344 124.416 71.5704 124.208V118.88H74.5464V131H71.6424ZM80.57 131V121.232H76.418V118.88H87.722V121.232H83.546V131H80.57ZM89.579 131V118.88H92.555V122.936H95.747C97.363 122.936 98.579 123.28 99.395 123.968C100.211 124.64 100.619 125.616 100.619 126.896C100.619 127.728 100.427 128.456 100.043 129.08C99.659 129.688 99.099 130.16 98.363 130.496C97.643 130.832 96.771 131 95.747 131H89.579ZM92.555 129.032H95.339C96.155 129.032 96.779 128.864 97.211 128.528C97.643 128.176 97.859 127.648 97.859 126.944C97.859 126.24 97.643 125.728 97.211 125.408C96.795 125.072 96.171 124.904 95.339 124.904H92.555V129.032ZM102.131 131V118.88H105.107V131H102.131ZM114.99 131V118.952H120.798C122.19 118.952 123.23 119.224 123.918 119.768C124.622 120.296 124.974 121.08 124.974 122.12C124.974 122.888 124.702 123.536 124.158 124.064C123.63 124.576 122.942 124.88 122.094 124.976V124.688C123.086 124.72 123.878 125.008 124.47 125.552C125.062 126.096 125.358 126.8 125.358 127.664C125.358 128.704 124.974 129.52 124.206 130.112C123.454 130.704 122.382 131 120.99 131H114.99ZM116.838 129.68H120.894C121.742 129.68 122.39 129.504 122.838 129.152C123.302 128.784 123.534 128.264 123.534 127.592C123.534 126.92 123.302 126.408 122.838 126.056C122.39 125.704 121.742 125.528 120.894 125.528H116.838V129.68ZM116.838 124.208H120.678C121.462 124.208 122.07 124.032 122.502 123.68C122.934 123.328 123.15 122.84 123.15 122.216C123.15 121.592 122.934 121.112 122.502 120.776C122.07 120.424 121.462 120.248 120.678 120.248H116.838V124.208ZM139.671 131.216C138.519 131.216 137.511 130.968 136.647 130.472C135.799 129.96 135.143 129.24 134.679 128.312C134.215 127.368 133.983 126.256 133.983 124.976C133.983 123.68 134.215 122.568 134.679 121.64C135.143 120.712 135.799 120 136.647 119.504C137.511 118.992 138.519 118.736 139.671 118.736C140.839 118.736 141.847 118.992 142.695 119.504C143.559 120 144.223 120.712 144.687 121.64C145.167 122.568 145.407 123.68 145.407 124.976C145.407 126.256 145.167 127.368 144.687 128.312C144.223 129.24 143.559 129.96 142.695 130.472C141.847 130.968 140.839 131.216 139.671 131.216ZM139.671 129.632C140.823 129.632 141.735 129.24 142.407 128.456C143.079 127.656 143.415 126.496 143.415 124.976C143.415 123.44 143.071 122.28 142.383 121.496C141.711 120.696 140.807 120.296 139.671 120.296C138.535 120.296 137.631 120.696 136.959 121.496C136.287 122.28 135.951 123.44 135.951 124.976C135.951 126.496 136.287 127.656 136.959 128.456C137.631 129.24 138.535 129.632 139.671 129.632ZM148.576 131V118.952H150.52V123.992H157.144V118.952H159.088V131H157.144V125.552H150.52V131H148.576ZM162.272 131.264L161.552 129.752C162.112 129.496 162.576 129.184 162.944 128.816C163.328 128.432 163.632 127.952 163.856 127.376C164.08 126.784 164.24 126.056 164.336 125.192C164.432 124.312 164.48 123.256 164.48 122.024V118.952H173.168V131H171.248V120.488H166.28V122.096C166.28 123.984 166.144 125.536 165.872 126.752C165.616 127.968 165.192 128.936 164.6 129.656C164.024 130.36 163.248 130.896 162.272 131.264ZM181.686 131.216C180.614 131.216 179.678 130.968 178.878 130.472C178.078 129.96 177.454 129.24 177.006 128.312C176.574 127.384 176.358 126.272 176.358 124.976C176.358 123.664 176.574 122.544 177.006 121.616C177.454 120.688 178.078 119.976 178.878 119.48C179.678 118.984 180.614 118.736 181.686 118.736C182.774 118.736 183.71 119.016 184.494 119.576C185.294 120.12 185.822 120.864 186.078 121.808H185.79L186.054 118.952H187.926C187.878 119.416 187.83 119.888 187.782 120.368C187.75 120.832 187.734 121.288 187.734 121.736V131H185.79V128.168H186.054C185.798 129.112 185.27 129.856 184.47 130.4C183.67 130.944 182.742 131.216 181.686 131.216ZM182.07 129.632C183.222 129.632 184.134 129.24 184.806 128.456C185.478 127.656 185.814 126.496 185.814 124.976C185.814 123.44 185.478 122.28 184.806 121.496C184.134 120.696 183.222 120.296 182.07 120.296C180.934 120.296 180.022 120.696 179.334 121.496C178.662 122.28 178.326 123.44 178.326 124.976C178.326 126.496 178.662 127.656 179.334 128.456C180.022 129.24 180.934 129.632 182.07 129.632ZM191.654 131V118.952H193.43V129.2H192.782L200.462 118.952H202.094V131H200.342V120.728H200.99L193.31 131H191.654ZM196.862 117.824C196.206 117.824 195.598 117.712 195.038 117.488C194.478 117.264 193.99 116.928 193.574 116.48C193.158 116.016 192.846 115.448 192.638 114.776L193.79 114.344C194.078 115.112 194.47 115.68 194.966 116.048C195.478 116.416 196.118 116.6 196.886 116.6C197.654 116.6 198.286 116.432 198.782 116.096C199.278 115.76 199.71 115.184 200.078 114.368L201.182 114.776C200.766 115.864 200.182 116.648 199.43 117.128C198.694 117.592 197.838 117.824 196.862 117.824ZM205.928 131V118.952H207.872V123.992H214.496V118.952H216.44V131H214.496V125.552H207.872V131H205.928ZM225.72 131.216C223.832 131.216 222.344 130.672 221.256 129.584C220.168 128.48 219.624 126.952 219.624 125C219.624 123.736 219.864 122.64 220.344 121.712C220.824 120.768 221.496 120.04 222.36 119.528C223.224 119 224.216 118.736 225.336 118.736C226.44 118.736 227.368 118.968 228.12 119.432C228.872 119.896 229.448 120.56 229.848 121.424C230.248 122.272 230.448 123.28 230.448 124.448V125.168H221.112V123.944H229.176L228.768 124.256C228.768 122.976 228.48 121.976 227.904 121.256C227.328 120.536 226.472 120.176 225.336 120.176C224.136 120.176 223.2 120.6 222.528 121.448C221.856 122.28 221.52 123.408 221.52 124.832V125.048C221.52 126.552 221.888 127.696 222.624 128.48C223.376 129.248 224.424 129.632 225.768 129.632C226.488 129.632 227.16 129.528 227.784 129.32C228.424 129.096 229.032 128.736 229.608 128.24L230.28 129.608C229.752 130.12 229.08 130.52 228.264 130.808C227.464 131.08 226.616 131.216 225.72 131.216Z" fill="#343434"/>
</g>
<defs>
<linearGradient id="paint0_linear_102_132" x1="41.5" y1="0" x2="41.5" y2="68" gradientUnits="userSpaceOnUse">
<stop stop-color="white" stop-opacity="0.16"/>
<stop offset="1" stop-color="white"/>
</linearGradient>
<clipPath id="clip0_102_132">
<rect width="340" height="192" rx="16" fill="white"/>
</clipPath>
</defs>
</svg>
