<svg width="340" height="192" viewBox="0 0 340 192" fill="none" xmlns="http://www.w3.org/2000/svg">
<g clip-path="url(#clip0_102_99)">
<rect width="340" height="192" rx="16" fill="#D3E2F0"/>
<circle cx="308" cy="32" r="64" fill="white" fill-opacity="0.64"/>
<path d="M278.748 53.5031L279.968 48.949C280.263 47.8509 280.807 46.9149 281.601 46.141C282.395 45.3672 283.404 44.8847 284.628 44.6936C287.224 44.2812 289.548 44.1077 291.601 44.1732C293.654 44.2386 295.646 44.5302 297.578 45.0478C298.512 45.298 299.487 45.6198 300.503 46.0133C301.519 46.4067 302.535 46.8954 303.552 47.4794L300.55 49.2193C299.923 48.9821 299.302 48.7552 298.687 48.5385C298.072 48.3218 297.443 48.1272 296.799 47.9547C294.932 47.4543 293.188 47.1688 291.568 47.0981C289.947 47.0275 287.787 47.2015 285.087 47.6203C284.47 47.732 283.976 47.9978 283.605 48.4176C283.233 48.8373 282.987 49.2733 282.866 49.7255L282.425 51.3727L297.831 55.5009L299.95 59.1842L278.748 53.5031ZM304.862 61.3311L299.882 52.6753L302.456 51.184L305.952 57.2615L319.004 49.6986L320.488 52.2769L304.862 61.3311ZM298.383 42.0441C296.258 41.4747 294.701 40.3305 293.712 38.6116C292.723 36.8928 292.514 34.9675 293.086 32.8358C293.657 30.7041 294.8 29.1411 296.516 28.1469C298.232 27.1527 300.152 26.9404 302.277 27.5098C304.402 28.0792 305.959 29.2233 306.948 30.9422C307.937 32.6611 308.146 34.5864 307.575 36.7181C307.003 38.8498 305.86 40.4127 304.144 41.4069C302.428 42.4011 300.508 42.6135 298.383 42.0441ZM299.162 39.1372C300.417 39.4737 301.566 39.3401 302.608 38.7365C303.65 38.1329 304.339 37.2012 304.677 35.9416C305.014 34.682 304.883 33.5303 304.283 32.4867C303.682 31.4431 302.754 30.7531 301.498 30.4166C300.243 30.0802 299.094 30.2137 298.052 30.8173C297.011 31.421 296.321 32.3526 295.983 33.6122C295.646 34.8719 295.777 36.0235 296.378 37.0671C296.978 38.1107 297.906 38.8007 299.162 39.1372Z" fill="#343434"/>
<path d="M68.235 60.313L67.684 58.432C68.2793 58.3053 68.7797 58.1597 69.185 57.995C69.5903 57.8303 69.926 57.615 70.192 57.349C70.458 57.083 70.6797 56.741 70.857 56.323L71.332 55.202L71.275 56.133L67.095 46.405H69.622L72.624 53.891H72.073L75.094 46.405H77.488L73.118 56.532C72.8267 57.216 72.51 57.7797 72.168 58.223C71.826 58.679 71.4587 59.04 71.066 59.306C70.6733 59.5847 70.2427 59.8 69.774 59.952C69.3053 60.104 68.7923 60.2243 68.235 60.313ZM78.6212 60.104V48.799C78.6212 48.4063 78.6085 48.0073 78.5832 47.602C78.5578 47.1967 78.5198 46.7977 78.4692 46.405H80.7682L80.9772 48.419H80.7682C80.9582 47.7477 81.3572 47.2157 81.9652 46.823C82.5858 46.4177 83.3015 46.215 84.1122 46.215C84.9608 46.215 85.7018 46.4177 86.3352 46.823C86.9685 47.2157 87.4625 47.7857 87.8172 48.533C88.1718 49.2677 88.3492 50.1543 88.3492 51.193C88.3492 52.2317 88.1718 53.1247 87.8172 53.872C87.4625 54.6193 86.9685 55.1957 86.3352 55.601C85.7018 55.9937 84.9608 56.19 84.1122 56.19C83.3142 56.19 82.6112 55.9937 82.0032 55.601C81.3952 55.2083 80.9898 54.6827 80.7872 54.024H80.9962V60.104H78.6212ZM83.4472 54.366C84.2072 54.366 84.8152 54.1063 85.2712 53.587C85.7272 53.055 85.9552 52.257 85.9552 51.193C85.9552 50.129 85.7272 49.3373 85.2712 48.818C84.8152 48.2987 84.2072 48.039 83.4472 48.039C82.6998 48.039 82.0982 48.2987 81.6422 48.818C81.1862 49.3373 80.9582 50.129 80.9582 51.193C80.9582 52.257 81.1862 53.055 81.6422 53.587C82.0982 54.1063 82.6998 54.366 83.4472 54.366ZM94.6152 56.19C93.6272 56.19 92.7722 55.9873 92.0502 55.582C91.3282 55.1767 90.7645 54.6003 90.3592 53.853C89.9665 53.1057 89.7702 52.219 89.7702 51.193C89.7702 50.167 89.9665 49.2867 90.3592 48.552C90.7645 47.8047 91.3282 47.2283 92.0502 46.823C92.7722 46.4177 93.6272 46.215 94.6152 46.215C95.6032 46.215 96.4582 46.4177 97.1802 46.823C97.9148 47.2283 98.4785 47.8047 98.8712 48.552C99.2765 49.2867 99.4792 50.167 99.4792 51.193C99.4792 52.219 99.2765 53.1057 98.8712 53.853C98.4785 54.6003 97.9148 55.1767 97.1802 55.582C96.4582 55.9873 95.6032 56.19 94.6152 56.19ZM94.6152 54.366C95.3625 54.366 95.9578 54.1063 96.4012 53.587C96.8445 53.055 97.0662 52.257 97.0662 51.193C97.0662 50.129 96.8445 49.3373 96.4012 48.818C95.9578 48.2987 95.3625 48.039 94.6152 48.039C93.8678 48.039 93.2725 48.2987 92.8292 48.818C92.3858 49.3373 92.1642 50.129 92.1642 51.193C92.1642 52.257 92.3858 53.055 92.8292 53.587C93.2725 54.1063 93.8678 54.366 94.6152 54.366ZM101.35 56V46.405H103.706V50.167H105.15L107.962 46.405H110.508L106.974 51.193L106.461 50.452C106.815 50.49 107.126 50.585 107.392 50.737C107.67 50.889 107.93 51.1043 108.171 51.383C108.424 51.649 108.671 51.991 108.912 52.409L110.926 56H108.399L106.765 53.112C106.6 52.8207 106.435 52.5927 106.271 52.428C106.106 52.2633 105.922 52.1493 105.72 52.086C105.517 52.0227 105.27 51.991 104.979 51.991H103.706V56H101.35ZM116.772 56V54.195L121.218 49.559C121.776 48.9763 122.187 48.438 122.453 47.944C122.719 47.45 122.852 46.9433 122.852 46.424C122.852 45.778 122.65 45.2903 122.244 44.961C121.839 44.6317 121.25 44.467 120.477 44.467C119.857 44.467 119.261 44.581 118.691 44.809C118.121 45.0243 117.564 45.3663 117.019 45.835L116.221 44.011C116.766 43.5297 117.437 43.1433 118.235 42.852C119.046 42.5607 119.895 42.415 120.781 42.415C122.225 42.415 123.334 42.738 124.106 43.384C124.879 44.03 125.265 44.9547 125.265 46.158C125.265 46.994 125.069 47.792 124.676 48.552C124.284 49.2993 123.676 50.0847 122.852 50.908L119.147 54.613V53.967H125.797V56H116.772Z" fill="#343434"/>
<path d="M32 0H51V63.2106C51 65.2511 51 66.2714 50.3853 66.5281C49.7707 66.7847 49.0451 66.0675 47.5939 64.6329L43.1314 60.2215C42.4846 59.5821 42.1612 59.2624 41.7585 59.2568C41.3558 59.2512 41.0236 59.5618 40.3593 60.183L35.366 64.8523C33.9245 66.2003 33.2038 66.8743 32.6019 66.6131C32 66.3519 32 65.3651 32 63.3915V0Z" fill="url(#paint0_linear_102_99)"/>
<path d="M34.112 106V89.08H48.272V106H46.28V90.76H36.056V106H34.112ZM57.3116 106.216C56.1596 106.216 55.1516 105.968 54.2876 105.472C53.4396 104.96 52.7836 104.24 52.3196 103.312C51.8556 102.368 51.6236 101.256 51.6236 99.976C51.6236 98.68 51.8556 97.568 52.3196 96.64C52.7836 95.712 53.4396 95 54.2876 94.504C55.1516 93.992 56.1596 93.736 57.3116 93.736C58.4796 93.736 59.4876 93.992 60.3356 94.504C61.1996 95 61.8636 95.712 62.3276 96.64C62.8076 97.568 63.0476 98.68 63.0476 99.976C63.0476 101.256 62.8076 102.368 62.3276 103.312C61.8636 104.24 61.1996 104.96 60.3356 105.472C59.4876 105.968 58.4796 106.216 57.3116 106.216ZM57.3116 104.632C58.4636 104.632 59.3756 104.24 60.0476 103.456C60.7196 102.656 61.0556 101.496 61.0556 99.976C61.0556 98.44 60.7116 97.28 60.0236 96.496C59.3516 95.696 58.4476 95.296 57.3116 95.296C56.1756 95.296 55.2716 95.696 54.5996 96.496C53.9276 97.28 53.5916 98.44 53.5916 99.976C53.5916 101.496 53.9276 102.656 54.5996 103.456C55.2716 104.24 56.1756 104.632 57.3116 104.632ZM73.9929 106V101.104C73.5289 101.376 73.0249 101.584 72.4809 101.728C71.9369 101.872 71.3529 101.944 70.7289 101.944C69.0329 101.944 67.7689 101.552 66.9369 100.768C66.1209 99.968 65.7129 98.76 65.7129 97.144V93.952H67.6569V97C67.6569 98.168 67.9209 99.016 68.4489 99.544C68.9929 100.056 69.8409 100.312 70.9929 100.312C71.5849 100.312 72.1129 100.248 72.5769 100.12C73.0409 99.992 73.4969 99.776 73.9449 99.472V93.952H75.8889V106H73.9929ZM85.1883 106.216C83.3003 106.216 81.8123 105.672 80.7243 104.584C79.6363 103.48 79.0923 101.952 79.0923 100C79.0923 98.736 79.3323 97.64 79.8123 96.712C80.2923 95.768 80.9643 95.04 81.8283 94.528C82.6923 94 83.6843 93.736 84.8043 93.736C85.9083 93.736 86.8363 93.968 87.5883 94.432C88.3403 94.896 88.9163 95.56 89.3163 96.424C89.7163 97.272 89.9163 98.28 89.9163 99.448V100.168H80.5803V98.944H88.6443L88.2363 99.256C88.2363 97.976 87.9483 96.976 87.3723 96.256C86.7963 95.536 85.9403 95.176 84.8043 95.176C83.6043 95.176 82.6683 95.6 81.9963 96.448C81.3243 97.28 80.9883 98.408 80.9883 99.832V100.048C80.9883 101.552 81.3563 102.696 82.0923 103.48C82.8443 104.248 83.8923 104.632 85.2363 104.632C85.9563 104.632 86.6283 104.528 87.2523 104.32C87.8923 104.096 88.5003 103.736 89.0763 103.24L89.7483 104.608C89.2203 105.12 88.5483 105.52 87.7323 105.808C86.9323 106.08 86.0843 106.216 85.1883 106.216ZM93.0294 106V93.952H94.6614L99.1734 102.04L103.709 93.952H105.341V106H103.613V96.112H104.117L99.6774 104.056H98.6934L94.2294 96.088H94.7574V106H93.0294ZM108.794 111.448L108.338 109.84C109.09 109.664 109.714 109.456 110.21 109.216C110.722 108.992 111.146 108.688 111.482 108.304C111.818 107.92 112.106 107.44 112.346 106.864L112.97 105.448L112.922 106.264L107.666 93.952H109.778L114.122 104.536H113.498L117.794 93.952H119.834L114.266 107.008C113.946 107.776 113.594 108.416 113.21 108.928C112.826 109.456 112.41 109.88 111.962 110.2C111.53 110.536 111.05 110.8 110.522 110.992C109.994 111.184 109.418 111.336 108.794 111.448ZM128.204 106V93.88H139.556V106H136.58V96.184H131.18V106H128.204ZM148.538 106.24C147.29 106.24 146.21 105.984 145.298 105.472C144.386 104.96 143.674 104.232 143.162 103.288C142.666 102.344 142.418 101.224 142.418 99.928C142.418 98.632 142.666 97.52 143.162 96.592C143.674 95.648 144.386 94.92 145.298 94.408C146.21 93.896 147.29 93.64 148.538 93.64C149.786 93.64 150.866 93.896 151.778 94.408C152.706 94.92 153.418 95.648 153.914 96.592C154.426 97.52 154.682 98.632 154.682 99.928C154.682 101.224 154.426 102.344 153.914 103.288C153.418 104.232 152.706 104.96 151.778 105.472C150.866 105.984 149.786 106.24 148.538 106.24ZM148.538 103.936C149.482 103.936 150.234 103.608 150.794 102.952C151.354 102.28 151.634 101.272 151.634 99.928C151.634 98.584 151.354 97.584 150.794 96.928C150.234 96.272 149.482 95.944 148.538 95.944C147.594 95.944 146.842 96.272 146.282 96.928C145.722 97.584 145.442 98.584 145.442 99.928C145.442 101.272 145.722 102.28 146.282 102.952C146.842 103.608 147.594 103.936 148.538 103.936ZM156.978 106.336L156.042 103.984C156.57 103.792 157.01 103.544 157.362 103.24C157.73 102.92 158.018 102.52 158.226 102.04C158.45 101.544 158.61 100.936 158.706 100.216C158.802 99.48 158.85 98.608 158.85 97.6V93.88H168.498V106H165.522V96.184H161.586V97.696C161.586 99.44 161.426 100.904 161.106 102.088C160.786 103.256 160.29 104.184 159.618 104.872C158.946 105.56 158.066 106.048 156.978 106.336ZM171.771 111.448L171.075 109.072C171.827 108.912 172.459 108.728 172.971 108.52C173.483 108.312 173.907 108.04 174.243 107.704C174.579 107.368 174.859 106.936 175.083 106.408L175.683 104.992L175.611 106.168L170.331 93.88H173.523L177.315 103.336H176.619L180.435 93.88H183.459L177.939 106.672C177.571 107.536 177.171 108.248 176.739 108.808C176.307 109.384 175.843 109.84 175.347 110.176C174.851 110.528 174.307 110.8 173.715 110.992C173.123 111.184 172.475 111.336 171.771 111.448ZM192.978 106V101.584C192.53 101.792 192.066 101.952 191.586 102.064C191.106 102.176 190.602 102.232 190.074 102.232C188.298 102.232 186.97 101.808 186.09 100.96C185.226 100.112 184.794 98.848 184.794 97.168V93.88H187.77V96.904C187.77 97.928 187.994 98.672 188.442 99.136C188.89 99.584 189.61 99.808 190.602 99.808C191.066 99.808 191.482 99.76 191.85 99.664C192.218 99.568 192.57 99.416 192.906 99.208V93.88H195.882V106H192.978ZM199.29 106V93.88H202.002V103.048H201.282L208.17 93.88H210.642V106H207.93V96.808H208.674L201.762 106H199.29ZM216.672 106V96.232H212.52V93.88H223.824V96.232H219.648V106H216.672ZM231.227 106.24C229.979 106.24 228.883 105.984 227.939 105.472C227.011 104.96 226.291 104.232 225.779 103.288C225.267 102.328 225.011 101.192 225.011 99.88C225.011 98.568 225.267 97.448 225.779 96.52C226.307 95.592 227.035 94.88 227.963 94.384C228.891 93.888 229.979 93.64 231.227 93.64C232.027 93.64 232.803 93.768 233.555 94.024C234.323 94.264 234.947 94.616 235.427 95.08L234.515 97.168C234.083 96.768 233.595 96.472 233.051 96.28C232.523 96.072 232.003 95.968 231.491 95.968C230.419 95.968 229.579 96.304 228.971 96.976C228.379 97.648 228.083 98.624 228.083 99.904C228.083 101.184 228.379 102.168 228.971 102.856C229.579 103.544 230.419 103.888 231.491 103.888C231.987 103.888 232.499 103.792 233.027 103.6C233.571 103.408 234.067 103.112 234.515 102.712L235.427 104.776C234.931 105.24 234.299 105.6 233.531 105.856C232.779 106.112 232.011 106.24 231.227 106.24ZM236.977 106L238.825 102.808C239.145 102.264 239.537 101.832 240.001 101.512C240.481 101.176 240.977 101.008 241.489 101.008H242.017L241.993 101.272C240.569 101.272 239.473 100.96 238.705 100.336C237.937 99.712 237.553 98.8 237.553 97.6C237.553 96.416 237.945 95.504 238.729 94.864C239.529 94.208 240.697 93.88 242.233 93.88H248.257V106H245.521V101.728H244.153C243.657 101.728 243.217 101.864 242.833 102.136C242.465 102.408 242.153 102.76 241.897 103.192L240.313 106H236.977ZM242.809 99.784H245.521V95.824H242.809C241.993 95.824 241.377 96 240.961 96.352C240.561 96.704 240.361 97.184 240.361 97.792C240.361 98.432 240.561 98.928 240.961 99.28C241.377 99.616 241.993 99.784 242.809 99.784ZM33.56 136.448L32.864 134.072C33.616 133.912 34.248 133.728 34.76 133.52C35.272 133.312 35.696 133.04 36.032 132.704C36.368 132.368 36.648 131.936 36.872 131.408L37.472 129.992L37.4 131.168L32.12 118.88H35.312L39.104 128.336H38.408L42.224 118.88H45.248L39.728 131.672C39.36 132.536 38.96 133.248 38.528 133.808C38.096 134.384 37.632 134.84 37.136 135.176C36.64 135.528 36.096 135.8 35.504 135.992C34.912 136.184 34.264 136.336 33.56 136.448ZM53.6493 131V118.88H56.6253V123.632H58.4493L62.0013 118.88H65.2173L60.7533 124.928L60.1053 123.992C60.5533 124.04 60.9453 124.16 61.2813 124.352C61.6333 124.544 61.9613 124.816 62.2653 125.168C62.5853 125.504 62.8973 125.936 63.2013 126.464L65.7453 131H62.5533L60.4893 127.352C60.2813 126.984 60.0733 126.696 59.8653 126.488C59.6573 126.28 59.4253 126.136 59.1693 126.056C58.9133 125.976 58.6013 125.936 58.2333 125.936H56.6253V131H53.6493ZM72.1128 131.24C71.0568 131.24 70.1288 130.992 69.3288 130.496C68.5288 129.984 67.9048 129.256 67.4568 128.312C67.0088 127.368 66.7848 126.24 66.7848 124.928C66.7848 123.616 67.0088 122.496 67.4568 121.568C67.9048 120.624 68.5288 119.904 69.3288 119.408C70.1288 118.896 71.0568 118.64 72.1128 118.64C73.1368 118.64 74.0328 118.896 74.8008 119.408C75.5848 119.904 76.1048 120.576 76.3608 121.424H76.0968L76.3608 118.88H79.2408C79.1928 119.376 79.1448 119.88 79.0968 120.392C79.0648 120.904 79.0488 121.408 79.0488 121.904V131H76.0728L76.0488 128.504H76.3368C76.0808 129.336 75.5608 130 74.7768 130.496C73.9928 130.992 73.1048 131.24 72.1128 131.24ZM72.9528 128.936C73.8968 128.936 74.6568 128.608 75.2328 127.952C75.8088 127.28 76.0968 126.272 76.0968 124.928C76.0968 123.584 75.8088 122.584 75.2328 121.928C74.6568 121.272 73.8968 120.944 72.9528 120.944C72.0088 120.944 71.2488 121.272 70.6728 121.928C70.0968 122.584 69.8088 123.584 69.8088 124.928C69.8088 126.272 70.0888 127.28 70.6488 127.952C71.2248 128.608 71.9928 128.936 72.9528 128.936ZM80.7237 131L83.2678 126.464C83.5878 125.936 83.8918 125.504 84.1798 125.168C84.4838 124.816 84.8118 124.544 85.1638 124.352C85.5158 124.16 85.9158 124.04 86.3638 123.992L85.7398 124.928L81.2518 118.88H84.4678L88.0438 123.632H89.5558V118.88H92.5318V123.632H94.0198L97.5718 118.88H100.812L96.2998 124.928L95.6758 123.992C96.1238 124.04 96.5238 124.16 96.8758 124.352C97.2278 124.544 97.5558 124.816 97.8598 125.168C98.1798 125.504 98.4918 125.936 98.7958 126.464L101.34 131H98.1478L96.0838 127.352C95.8758 126.984 95.6678 126.696 95.4598 126.488C95.2518 126.28 95.0198 126.136 94.7638 126.056C94.5078 125.976 94.1958 125.936 93.8278 125.936H92.5318V131H89.5558V125.936H88.2358C87.8678 125.936 87.5558 125.976 87.2998 126.056C87.0438 126.136 86.8118 126.28 86.6038 126.488C86.4118 126.696 86.2038 126.984 85.9798 127.352L83.9158 131H80.7237ZM101.835 134.12V128.72H103.227C103.707 127.968 104.051 127.088 104.259 126.08C104.483 125.056 104.595 123.808 104.595 122.336V118.88H113.931V128.72H115.899V134.12H113.355V131H104.379V134.12H101.835ZM105.915 128.744H111.123V121.136H107.139V123.008C107.139 124.08 107.035 125.128 106.827 126.152C106.619 127.176 106.315 128.04 105.915 128.744ZM123.67 131.24C122.422 131.24 121.342 130.984 120.43 130.472C119.518 129.96 118.806 129.232 118.294 128.288C117.798 127.344 117.55 126.224 117.55 124.928C117.55 123.632 117.798 122.52 118.294 121.592C118.806 120.648 119.518 119.92 120.43 119.408C121.342 118.896 122.422 118.64 123.67 118.64C124.918 118.64 125.998 118.896 126.91 119.408C127.838 119.92 128.55 120.648 129.046 121.592C129.558 122.52 129.814 123.632 129.814 124.928C129.814 126.224 129.558 127.344 129.046 128.288C128.55 129.232 127.838 129.96 126.91 130.472C125.998 130.984 124.918 131.24 123.67 131.24ZM123.67 128.936C124.614 128.936 125.366 128.608 125.926 127.952C126.486 127.28 126.766 126.272 126.766 124.928C126.766 123.584 126.486 122.584 125.926 121.928C125.366 121.272 124.614 120.944 123.67 120.944C122.726 120.944 121.974 121.272 121.414 121.928C120.854 122.584 120.574 123.584 120.574 124.928C120.574 126.272 120.854 127.28 121.414 127.952C121.974 128.608 122.726 128.936 123.67 128.936ZM132.657 131V118.88H135.369V128.048H134.649L141.537 118.88H144.009V131H141.297V121.808H142.041L135.129 131H132.657ZM138.321 117.776C137.521 117.776 136.817 117.648 136.209 117.392C135.601 117.12 135.097 116.744 134.697 116.264C134.297 115.768 134.009 115.184 133.833 114.512L135.369 113.984C135.641 114.72 136.017 115.264 136.497 115.616C136.977 115.952 137.593 116.12 138.345 116.12C139.097 116.12 139.713 115.952 140.193 115.616C140.673 115.28 141.065 114.744 141.369 114.008L142.833 114.512C142.497 115.584 141.937 116.4 141.153 116.96C140.385 117.504 139.441 117.776 138.321 117.776ZM149.847 126.584V125.888C149.847 125.072 149.999 124.312 150.303 123.608C150.623 122.888 151.183 122.08 151.983 121.184C152.607 120.496 153.047 119.896 153.303 119.384C153.559 118.856 153.687 118.32 153.687 117.776C153.687 117.088 153.439 116.552 152.943 116.168C152.447 115.768 151.759 115.568 150.879 115.568C150.255 115.568 149.655 115.656 149.079 115.832C148.503 115.992 147.951 116.216 147.423 116.504V114.704C147.951 114.432 148.527 114.224 149.151 114.08C149.791 113.936 150.431 113.864 151.071 113.864C151.983 113.864 152.783 114.016 153.471 114.32C154.159 114.608 154.695 115.032 155.079 115.592C155.479 116.136 155.679 116.808 155.679 117.608C155.679 118.12 155.599 118.616 155.439 119.096C155.279 119.56 155.031 120.032 154.695 120.512C154.359 120.976 153.927 121.488 153.399 122.048C152.615 122.848 152.063 123.552 151.743 124.16C151.423 124.752 151.231 125.36 151.167 125.984L151.095 126.584H149.847ZM149.223 131V128.552H151.695V131H149.223Z" fill="#343434"/>
</g>
<defs>
<linearGradient id="paint0_linear_102_99" x1="41.5" y1="0" x2="41.5" y2="68" gradientUnits="userSpaceOnUse">
<stop stop-color="white" stop-opacity="0.16"/>
<stop offset="1" stop-color="white"/>
</linearGradient>
<clipPath id="clip0_102_99">
<rect width="340" height="192" rx="16" fill="white"/>
</clipPath>
</defs>
</svg>
