<svg width="594" height="114" viewBox="0 0 594 114" fill="none" xmlns="http://www.w3.org/2000/svg">
<path d="M4.72182 59V12.47H47.6218V59H35.6098V22.238H16.7998V59H4.72182ZM54.5039 73.256V34.58C54.5039 33.084 54.4599 31.566 54.3719 30.026C54.2839 28.486 54.1519 26.968 53.9759 25.472H65.3279L66.0539 31.412H65.3939C66.0099 29.432 67.3739 27.826 69.4859 26.594C71.5979 25.362 73.9519 24.746 76.5479 24.746C79.4519 24.746 82.0039 25.45 84.2039 26.858C86.4039 28.222 88.1199 30.224 89.3519 32.864C90.6279 35.46 91.2659 38.584 91.2659 42.236C91.2659 45.844 90.6279 48.968 89.3519 51.608C88.1199 54.248 86.4039 56.272 84.2039 57.68C82.0039 59.044 79.4519 59.726 76.5479 59.726C73.9959 59.726 71.6859 59.154 69.6179 58.01C67.5499 56.822 66.1859 55.26 65.5259 53.324H66.2519V73.256H54.5039ZM72.7859 51.014C74.8099 51.014 76.4159 50.332 77.6039 48.968C78.8359 47.56 79.4519 45.316 79.4519 42.236C79.4519 39.156 78.8359 36.934 77.6039 35.57C76.4159 34.162 74.8099 33.458 72.7859 33.458C70.8059 33.458 69.1999 34.162 67.9679 35.57C66.7359 36.934 66.1199 39.156 66.1199 42.236C66.1199 45.316 66.7359 47.56 67.9679 48.968C69.1999 50.332 70.8059 51.014 72.7859 51.014ZM113.253 59.726C109.513 59.726 106.279 59.022 103.551 57.614C100.823 56.206 98.7106 54.204 97.2146 51.608C95.7186 48.968 94.9706 45.844 94.9706 42.236C94.9706 38.584 95.7186 35.46 97.2146 32.864C98.7106 30.268 100.823 28.266 103.551 26.858C106.279 25.45 109.513 24.746 113.253 24.746C116.949 24.746 120.161 25.45 122.889 26.858C125.617 28.266 127.729 30.29 129.225 32.93C130.721 35.526 131.469 38.628 131.469 42.236C131.469 45.8 130.721 48.902 129.225 51.542C127.729 54.182 125.617 56.206 122.889 57.614C120.161 59.022 116.949 59.726 113.253 59.726ZM113.253 51.014C115.189 51.014 116.729 50.332 117.873 48.968C119.017 47.56 119.589 45.316 119.589 42.236C119.589 39.156 119.017 36.934 117.873 35.57C116.729 34.162 115.189 33.458 113.253 33.458C111.273 33.458 109.711 34.162 108.567 35.57C107.423 36.934 106.851 39.156 106.851 42.236C106.851 45.316 107.423 47.56 108.567 48.968C109.711 50.332 111.273 51.014 113.253 51.014ZM136.469 59V25.472H163.793V34.514H148.217V59H136.469ZM167.632 73.256V34.58C167.632 33.084 167.588 31.566 167.5 30.026C167.412 28.486 167.28 26.968 167.104 25.472H178.456L179.182 31.412H178.522C179.138 29.432 180.502 27.826 182.614 26.594C184.726 25.362 187.08 24.746 189.676 24.746C192.58 24.746 195.132 25.45 197.332 26.858C199.532 28.222 201.248 30.224 202.48 32.864C203.756 35.46 204.394 38.584 204.394 42.236C204.394 45.844 203.756 48.968 202.48 51.608C201.248 54.248 199.532 56.272 197.332 57.68C195.132 59.044 192.58 59.726 189.676 59.726C187.124 59.726 184.814 59.154 182.746 58.01C180.678 56.822 179.314 55.26 178.654 53.324H179.38V73.256H167.632ZM185.914 51.014C187.938 51.014 189.544 50.332 190.732 48.968C191.964 47.56 192.58 45.316 192.58 42.236C192.58 39.156 191.964 36.934 190.732 35.57C189.544 34.162 187.938 33.458 185.914 33.458C183.934 33.458 182.328 34.162 181.096 35.57C179.864 36.934 179.248 39.156 179.248 42.236C179.248 45.316 179.864 47.56 181.096 48.968C182.328 50.332 183.934 51.014 185.914 51.014ZM222.817 59.726C219.913 59.726 217.361 59.044 215.161 57.68C212.961 56.272 211.223 54.248 209.947 51.608C208.715 48.968 208.099 45.844 208.099 42.236C208.099 38.584 208.715 35.46 209.947 32.864C211.223 30.224 212.961 28.222 215.161 26.858C217.361 25.45 219.913 24.746 222.817 24.746C225.413 24.746 227.745 25.362 229.813 26.594C231.925 27.826 233.311 29.432 233.971 31.412H233.311L234.037 25.472H245.323C245.191 26.968 245.059 28.486 244.927 30.026C244.839 31.566 244.795 33.084 244.795 34.58V59H233.179L233.047 53.324H233.839C233.179 55.26 231.793 56.822 229.681 58.01C227.613 59.154 225.325 59.726 222.817 59.726ZM226.579 51.014C228.559 51.014 230.165 50.332 231.397 48.968C232.629 47.56 233.245 45.316 233.245 42.236C233.245 39.156 232.629 36.934 231.397 35.57C230.165 34.162 228.559 33.458 226.579 33.458C224.599 33.458 222.993 34.162 221.761 35.57C220.529 36.934 219.913 39.156 219.913 42.236C219.913 45.316 220.507 47.56 221.695 48.968C222.927 50.332 224.555 51.014 226.579 51.014ZM251.338 59V25.472H261.04L271.402 42.632L281.698 25.472H291.466V59H281.17V38.672H282.82L274.042 53.522H268.762L259.984 38.672H261.634V59H251.338ZM297.705 59V25.472H307.407L317.769 42.632L328.065 25.472H337.833V59H327.537V38.672H329.187L320.409 53.522H315.129L306.351 38.672H308.001V59H297.705ZM357.537 59.726C354.633 59.726 352.081 59.044 349.881 57.68C347.681 56.272 345.943 54.248 344.667 51.608C343.435 48.968 342.819 45.844 342.819 42.236C342.819 38.584 343.435 35.46 344.667 32.864C345.943 30.224 347.681 28.222 349.881 26.858C352.081 25.45 354.633 24.746 357.537 24.746C360.133 24.746 362.465 25.362 364.533 26.594C366.645 27.826 368.031 29.432 368.691 31.412H368.031L368.757 25.472H380.043C379.911 26.968 379.779 28.486 379.647 30.026C379.559 31.566 379.515 33.084 379.515 34.58V59H367.899L367.767 53.324H368.559C367.899 55.26 366.513 56.822 364.401 58.01C362.333 59.154 360.045 59.726 357.537 59.726ZM361.299 51.014C363.279 51.014 364.885 50.332 366.117 48.968C367.349 47.56 367.965 45.316 367.965 42.236C367.965 39.156 367.349 36.934 366.117 35.57C364.885 34.162 363.279 33.458 361.299 33.458C359.319 33.458 357.713 34.162 356.481 35.57C355.249 36.934 354.633 39.156 354.633 42.236C354.633 45.316 355.227 47.56 356.415 48.968C357.647 50.332 359.275 51.014 361.299 51.014ZM403.486 59V25.472H415.168V37.484H418.6L426.916 25.472H439.324L427.312 42.83L425.2 39.068C426.388 39.2 427.466 39.574 428.434 40.19C429.446 40.762 430.37 41.51 431.206 42.434C432.042 43.314 432.746 44.348 433.318 45.536L440.578 59H428.104L422.956 49.298C422.56 48.55 422.142 47.978 421.702 47.582C421.306 47.142 420.844 46.834 420.316 46.658C419.788 46.482 419.172 46.394 418.468 46.394H415.168V59H403.486ZM442.45 73.982L439.678 64.874C441.79 64.478 443.55 64.038 444.958 63.554C446.41 63.114 447.598 62.498 448.522 61.706C449.446 60.914 450.172 59.88 450.7 58.604L452.35 54.776L452.086 59.198L437.434 25.472H449.842L458.422 47.714H456.244L465.088 25.472H476.704L461.656 59.726C460.468 62.41 459.192 64.61 457.828 66.326C456.508 68.042 455.056 69.406 453.472 70.418C451.932 71.43 450.238 72.178 448.39 72.662C446.586 73.19 444.606 73.63 442.45 73.982ZM478.696 73.256V34.58C478.696 33.084 478.652 31.566 478.564 30.026C478.476 28.486 478.344 26.968 478.168 25.472H489.52L490.246 31.412H489.586C490.202 29.432 491.566 27.826 493.678 26.594C495.79 25.362 498.144 24.746 500.74 24.746C503.644 24.746 506.196 25.45 508.396 26.858C510.596 28.222 512.312 30.224 513.544 32.864C514.82 35.46 515.458 38.584 515.458 42.236C515.458 45.844 514.82 48.968 513.544 51.608C512.312 54.248 510.596 56.272 508.396 57.68C506.196 59.044 503.644 59.726 500.74 59.726C498.188 59.726 495.878 59.154 493.81 58.01C491.742 56.822 490.378 55.26 489.718 53.324H490.444V73.256H478.696ZM496.978 51.014C499.002 51.014 500.608 50.332 501.796 48.968C503.028 47.56 503.644 45.316 503.644 42.236C503.644 39.156 503.028 36.934 501.796 35.57C500.608 34.162 499.002 33.458 496.978 33.458C494.998 33.458 493.392 34.162 492.16 35.57C490.928 36.934 490.312 39.156 490.312 42.236C490.312 45.316 490.928 47.56 492.16 48.968C493.392 50.332 494.998 51.014 496.978 51.014ZM537.642 59.726C533.946 59.726 530.712 59.022 527.94 57.614C525.168 56.206 523.012 54.204 521.472 51.608C519.932 48.968 519.162 45.822 519.162 42.17C519.162 38.518 519.932 35.394 521.472 32.798C523.012 30.202 525.168 28.222 527.94 26.858C530.712 25.45 533.946 24.746 537.642 24.746C539.93 24.746 542.174 25.054 544.374 25.67C546.574 26.286 548.356 27.166 549.72 28.31L546.42 36.296C545.364 35.416 544.154 34.756 542.79 34.316C541.47 33.832 540.172 33.59 538.896 33.59C536.476 33.59 534.584 34.316 533.22 35.768C531.9 37.22 531.24 39.354 531.24 42.17C531.24 44.986 531.9 47.142 533.22 48.638C534.584 50.09 536.476 50.816 538.896 50.816C540.128 50.816 541.426 50.596 542.79 50.156C544.154 49.672 545.364 49.012 546.42 48.176L549.72 56.162C548.312 57.262 546.508 58.142 544.308 58.802C542.152 59.418 539.93 59.726 537.642 59.726ZM567.357 59.726C564.453 59.726 561.901 59.044 559.701 57.68C557.501 56.272 555.763 54.248 554.487 51.608C553.255 48.968 552.639 45.844 552.639 42.236C552.639 38.584 553.255 35.46 554.487 32.864C555.763 30.224 557.501 28.222 559.701 26.858C561.901 25.45 564.453 24.746 567.357 24.746C569.953 24.746 572.285 25.362 574.353 26.594C576.465 27.826 577.851 29.432 578.511 31.412H577.851L578.577 25.472H589.863C589.731 26.968 589.599 28.486 589.467 30.026C589.379 31.566 589.335 33.084 589.335 34.58V59H577.719L577.587 53.324H578.379C577.719 55.26 576.333 56.822 574.221 58.01C572.153 59.154 569.865 59.726 567.357 59.726ZM571.119 51.014C573.099 51.014 574.705 50.332 575.937 48.968C577.169 47.56 577.785 45.316 577.785 42.236C577.785 39.156 577.169 36.934 575.937 35.57C574.705 34.162 573.099 33.458 571.119 33.458C569.139 33.458 567.533 34.162 566.301 35.57C565.069 36.934 564.453 39.156 564.453 42.236C564.453 45.316 565.047 47.56 566.235 48.968C567.467 50.332 569.095 51.014 571.119 51.014Z" fill="#343434"/>
<path fill-rule="evenodd" clip-rule="evenodd" d="M210.162 102.617C208.852 104.235 208.167 104.857 207 104.857V114C210.88 114 213.222 111.193 214.688 109.383C216.343 107.339 216.617 107.143 217.093 107.143C218.138 107.143 218.535 107.566 219.761 109.232C219.787 109.268 219.814 109.304 219.841 109.341C221.145 111.115 223.265 114 227.187 114C231.067 114 233.409 111.193 234.875 109.383C236.53 107.339 236.804 107.143 237.28 107.143C238.324 107.143 238.722 107.566 239.948 109.232C239.974 109.268 240.001 109.304 240.028 109.341C241.332 111.115 243.452 114 247.374 114C251.203 114 253.499 111.108 254.889 109.317C256.507 107.231 256.71 107.143 257.047 107.143C257.929 107.143 258.259 107.469 259.454 109.163C259.483 109.204 259.513 109.246 259.543 109.289C260.778 111.043 262.859 114 266.72 114C270.6 114 272.942 111.193 274.408 109.383C276.063 107.339 276.337 107.143 276.813 107.143C277.857 107.143 278.254 107.566 279.481 109.232C279.507 109.268 279.534 109.304 279.561 109.341C280.865 111.115 282.985 114 286.907 114C290.787 114 293.129 111.193 294.595 109.383C296.25 107.339 296.524 107.143 297 107.143C298.044 107.143 298.441 107.566 299.668 109.232C299.694 109.268 299.721 109.304 299.748 109.341C301.052 111.115 303.172 114 307.093 114C310.974 114 313.316 111.193 314.782 109.383C316.437 107.339 316.711 107.143 317.187 107.143C318.231 107.143 318.628 107.566 319.855 109.232C319.881 109.268 319.907 109.304 319.934 109.341C321.239 111.115 323.359 114 327.28 114C331.109 114 333.405 111.108 334.795 109.317C336.413 107.231 336.617 107.143 336.953 107.143C337.835 107.143 338.166 107.469 339.361 109.163C339.39 109.204 339.419 109.246 339.449 109.289C340.684 111.043 342.766 114 346.626 114C350.506 114 352.849 111.193 354.315 109.383C355.969 107.339 356.244 107.143 356.72 107.143C357.764 107.143 358.161 107.566 359.387 109.232C359.414 109.268 359.44 109.304 359.467 109.341C360.771 111.115 362.892 114 366.813 114C370.693 114 373.035 111.193 374.502 109.383C376.156 107.339 376.431 107.143 376.907 107.143C377.951 107.143 378.348 107.566 379.574 109.232L379.654 109.341C380.958 111.115 383.078 114 387 114V104.857C385.956 104.857 385.559 104.434 384.332 102.768L384.252 102.659C382.948 100.885 380.828 98 376.907 98C373.627 98 371.461 100.741 370.263 102.256C370.16 102.386 370.064 102.508 369.975 102.617C368.665 104.235 367.98 104.857 366.813 104.857C365.769 104.857 365.372 104.434 364.145 102.768C364.119 102.732 364.093 102.696 364.066 102.659C362.761 100.885 360.641 98 356.72 98C353.44 98 351.274 100.741 350.076 102.256C349.973 102.386 349.877 102.508 349.788 102.617C348.479 104.235 347.793 104.857 346.626 104.857C345.744 104.857 345.414 104.531 344.219 102.837C344.19 102.796 344.16 102.754 344.13 102.711C342.895 100.957 340.814 98 336.953 98C333.705 98 331.571 100.824 330.439 102.323C330.34 102.454 330.248 102.575 330.164 102.683C328.894 104.32 328.288 104.857 327.28 104.857C326.236 104.857 325.839 104.434 324.613 102.768C324.586 102.732 324.56 102.696 324.533 102.659C323.229 100.885 321.108 98 317.187 98C313.908 98 311.741 100.741 310.543 102.256C310.44 102.386 310.344 102.508 310.255 102.617C308.946 104.235 308.26 104.857 307.093 104.857C306.049 104.857 305.652 104.434 304.426 102.768C304.4 102.732 304.373 102.696 304.346 102.659C303.042 100.885 300.922 98 297 98C293.721 98 291.554 100.741 290.356 102.256C290.253 102.386 290.157 102.508 290.069 102.617C288.759 104.235 288.073 104.857 286.907 104.857C285.862 104.857 285.465 104.434 284.239 102.768C284.213 102.732 284.186 102.696 284.159 102.659C282.855 100.885 280.735 98 276.813 98C273.534 98 271.367 100.741 270.17 102.256C270.066 102.386 269.97 102.508 269.882 102.617C268.572 104.235 267.886 104.857 266.72 104.857C265.838 104.857 265.507 104.531 264.312 102.837C264.283 102.796 264.254 102.754 264.224 102.711C262.989 100.957 260.907 98 257.047 98C253.799 98 251.665 100.824 250.532 102.323C250.433 102.454 250.341 102.575 250.258 102.683C248.987 104.32 248.381 104.857 247.374 104.857C246.33 104.857 245.932 104.434 244.706 102.768C244.68 102.732 244.653 102.696 244.626 102.659C243.322 100.885 241.202 98 237.28 98C234.001 98 231.835 100.741 230.637 102.256C230.534 102.386 230.438 102.508 230.349 102.617C229.039 104.235 228.353 104.857 227.187 104.857C226.143 104.857 225.746 104.434 224.519 102.768C224.493 102.732 224.466 102.696 224.439 102.659C223.135 100.885 221.015 98 217.093 98C213.814 98 211.648 100.741 210.45 102.256C210.347 102.386 210.251 102.508 210.162 102.617Z" fill="#F0D3D3"/>
</svg>
