<svg width="40" height="98" viewBox="0 0 40 98" fill="none" xmlns="http://www.w3.org/2000/svg">
<path fill-rule="evenodd" clip-rule="evenodd" d="M38.5313 44.9217C39.2392 27.4136 31.1398 10.914 23.4311 1.07406L24.2183 0.457361C32.0217 10.4182 40.2509 27.1446 39.5305 44.9621C38.8174 62.6002 29.3377 81.2073 2.26096 95.3128L5.39968 96.337C5.66219 96.4227 5.80557 96.705 5.71991 96.9675C5.63424 97.23 5.35198 97.3734 5.08947 97.2877L0.811461 95.8917C0.54894 95.8061 0.405572 95.5238 0.491232 95.2613L1.88719 90.9833C1.97285 90.7208 2.25511 90.5774 2.51763 90.6631C2.78015 90.7487 2.92352 91.031 2.83785 91.2935L1.81914 94.4155C28.6067 80.4541 37.8348 62.1498 38.5313 44.9217Z" fill="url(#paint0_linear_99_17)"/>
<defs>
<linearGradient id="paint0_linear_99_17" x1="43.374" y1="18.8524" x2="-14.3506" y2="81.2452" gradientUnits="userSpaceOnUse">
<stop stop-color="#343434" stop-opacity="0"/>
<stop offset="1" stop-color="#343434"/>
</linearGradient>
</defs>
</svg>
