<svg width="48" height="48" viewBox="0 0 48 48" fill="none" xmlns="http://www.w3.org/2000/svg">
<rect width="48" height="48" rx="24" fill="white"/>
<path d="M27.7733 23.0533L22.1199 17.4C21.996 17.275 21.8485 17.1758 21.686 17.1082C21.5235 17.0405 21.3493 17.0056 21.1733 17.0056C20.9972 17.0056 20.823 17.0405 20.6605 17.1082C20.498 17.1758 20.3505 17.275 20.2266 17.4C19.9783 17.6498 19.8389 17.9878 19.8389 18.34C19.8389 18.6923 19.9783 19.0302 20.2266 19.28L24.9466 24L20.2266 28.72C19.9783 28.9698 19.8389 29.3078 19.8389 29.66C19.8389 30.0123 19.9783 30.3502 20.2266 30.6C20.3512 30.7236 20.4989 30.8214 20.6614 30.8877C20.8238 30.9541 20.9978 30.9877 21.1733 30.9867C21.3487 30.9877 21.5227 30.9541 21.6851 30.8877C21.8476 30.8214 21.9953 30.7236 22.1199 30.6L27.7733 24.9467C27.8982 24.8227 27.9974 24.6753 28.0651 24.5128C28.1328 24.3503 28.1677 24.176 28.1677 24C28.1677 23.824 28.1328 23.6497 28.0651 23.4872C27.9974 23.3248 27.8982 23.1773 27.7733 23.0533Z" fill="#343434"/>
</svg>
