<svg width="48" height="48" viewBox="0 0 48 48" fill="none" xmlns="http://www.w3.org/2000/svg">
<rect width="48" height="48" rx="24" transform="matrix(-1 0 0 1 48 0)" fill="white"/>
<path d="M20.2267 23.0533L25.8801 17.4C26.004 17.275 26.1515 17.1758 26.314 17.1082C26.4765 17.0405 26.6507 17.0056 26.8267 17.0056C27.0028 17.0056 27.177 17.0405 27.3395 17.1082C27.502 17.1758 27.6495 17.275 27.7734 17.4C28.0217 17.6498 28.1611 17.9878 28.1611 18.34C28.1611 18.6923 28.0217 19.0302 27.7734 19.28L23.0534 24L27.7734 28.72C28.0217 28.9698 28.1611 29.3078 28.1611 29.66C28.1611 30.0123 28.0217 30.3502 27.7734 30.6C27.6488 30.7236 27.5011 30.8214 27.3386 30.8877C27.1762 30.9541 27.0022 30.9877 26.8267 30.9867C26.6513 30.9877 26.4773 30.9541 26.3149 30.8877C26.1524 30.8214 26.0047 30.7236 25.8801 30.6L20.2267 24.9467C20.1018 24.8227 20.0026 24.6753 19.9349 24.5128C19.8672 24.3503 19.8323 24.176 19.8323 24C19.8323 23.824 19.8672 23.6497 19.9349 23.4872C20.0026 23.3248 20.1018 23.1773 20.2267 23.0533Z" fill="#343434"/>
</svg>
