<svg width="280" height="68" viewBox="0 0 280 68" fill="none" xmlns="http://www.w3.org/2000/svg">
<g clip-path="url(#clip0_112_266)">
<rect width="280" height="68" rx="16" fill="url(#paint0_linear_112_266)"/>
<g filter="url(#filter0_f_112_266)">
<path d="M0 0H280V38.461C169.266 52.6674 107.974 52.3577 0 38.461V0Z" fill="url(#paint1_linear_112_266)" fill-opacity="0.35"/>
</g>
<g filter="url(#filter1_d_112_266)">
<path d="M21.5409 40V29.425H31.0359V40H28.7109V31.315H23.8509V40H21.5409ZM33.7714 34.705C33.7714 33.605 33.9764 32.65 34.3864 31.84C34.8064 31.02 35.4064 30.385 36.1864 29.935C36.9664 29.485 37.8914 29.26 38.9614 29.26C40.0314 29.26 40.9564 29.485 41.7364 29.935C42.5164 30.385 43.1164 31.02 43.5364 31.84C43.9664 32.65 44.1814 33.6 44.1814 34.69C44.1814 35.8 43.9664 36.765 43.5364 37.585C43.1164 38.395 42.5164 39.03 41.7364 39.49C40.9564 39.94 40.0314 40.165 38.9614 40.165C37.8914 40.165 36.9664 39.94 36.1864 39.49C35.4164 39.03 34.8214 38.39 34.4014 37.57C33.9814 36.75 33.7714 35.795 33.7714 34.705ZM36.2164 34.705C36.2164 35.795 36.4414 36.65 36.8914 37.27C37.3514 37.88 38.0414 38.185 38.9614 38.185C39.8614 38.185 40.5464 37.88 41.0164 37.27C41.4864 36.65 41.7214 35.795 41.7214 34.705C41.7214 33.605 41.4864 32.755 41.0164 32.155C40.5564 31.545 39.8714 31.24 38.9614 31.24C38.0414 31.24 37.3514 31.545 36.8914 32.155C36.4414 32.755 36.2164 33.605 36.2164 34.705ZM46.9103 40V29.425H56.4053V40H54.0803V31.315H49.2203V40H46.9103ZM59.4558 40V29.425H64.3908C65.5808 29.425 66.4808 29.715 67.0908 30.295C67.7108 30.865 68.0208 31.65 68.0208 32.65C68.0208 33.64 67.7108 34.43 67.0908 35.02C66.4808 35.6 65.5808 35.89 64.3908 35.89H61.7958V40H59.4558ZM61.7958 34.075H64.0908C64.6508 34.075 65.0658 33.95 65.3358 33.7C65.6158 33.45 65.7558 33.1 65.7558 32.65C65.7558 32.2 65.6158 31.855 65.3358 31.615C65.0658 31.365 64.6508 31.24 64.0908 31.24H61.7958V34.075ZM70.0164 34.705C70.0164 33.605 70.2214 32.65 70.6314 31.84C71.0514 31.02 71.6514 30.385 72.4314 29.935C73.2114 29.485 74.1364 29.26 75.2064 29.26C76.2764 29.26 77.2014 29.485 77.9814 29.935C78.7614 30.385 79.3614 31.02 79.7814 31.84C80.2114 32.65 80.4264 33.6 80.4264 34.69C80.4264 35.8 80.2114 36.765 79.7814 37.585C79.3614 38.395 78.7614 39.03 77.9814 39.49C77.2014 39.94 76.2764 40.165 75.2064 40.165C74.1364 40.165 73.2114 39.94 72.4314 39.49C71.6614 39.03 71.0664 38.39 70.6464 37.57C70.2264 36.75 70.0164 35.795 70.0164 34.705ZM72.4614 34.705C72.4614 35.795 72.6864 36.65 73.1364 37.27C73.5964 37.88 74.2864 38.185 75.2064 38.185C76.1064 38.185 76.7914 37.88 77.2614 37.27C77.7314 36.65 77.9664 35.795 77.9664 34.705C77.9664 33.605 77.7314 32.755 77.2614 32.155C76.8014 31.545 76.1164 31.24 75.2064 31.24C74.2864 31.24 73.5964 31.545 73.1364 32.155C72.6864 32.755 72.4614 33.605 72.4614 34.705ZM83.1552 40V29.425H90.9552V31.21H85.3752V33.7H88.3002C89.4702 33.7 90.3852 33.97 91.0452 34.51C91.7052 35.04 92.0352 35.815 92.0352 36.835C92.0352 37.855 91.7052 38.64 91.0452 39.19C90.3852 39.73 89.4702 40 88.3002 40H83.1552ZM85.3752 38.23H88.0002C88.6302 38.23 89.0902 38.115 89.3802 37.885C89.6702 37.655 89.8152 37.305 89.8152 36.835C89.8152 36.375 89.6702 36.035 89.3802 35.815C89.0902 35.585 88.6302 35.47 88.0002 35.47H85.3752V38.23ZM94.1845 34.705C94.1845 33.605 94.3895 32.65 94.7995 31.84C95.2195 31.02 95.8195 30.385 96.5995 29.935C97.3795 29.485 98.3045 29.26 99.3745 29.26C100.445 29.26 101.37 29.485 102.15 29.935C102.93 30.385 103.53 31.02 103.95 31.84C104.38 32.65 104.595 33.6 104.595 34.69C104.595 35.8 104.38 36.765 103.95 37.585C103.53 38.395 102.93 39.03 102.15 39.49C101.37 39.94 100.445 40.165 99.3745 40.165C98.3045 40.165 97.3795 39.94 96.5995 39.49C95.8295 39.03 95.2345 38.39 94.8145 37.57C94.3945 36.75 94.1845 35.795 94.1845 34.705ZM96.6295 34.705C96.6295 35.795 96.8545 36.65 97.3045 37.27C97.7645 37.88 98.4545 38.185 99.3745 38.185C100.275 38.185 100.96 37.88 101.43 37.27C101.9 36.65 102.135 35.795 102.135 34.705C102.135 33.605 101.9 32.755 101.43 32.155C100.97 31.545 100.285 31.24 99.3745 31.24C98.4545 31.24 97.7645 31.545 97.3045 32.155C96.8545 32.755 96.6295 33.605 96.6295 34.705ZM107.323 40V29.425H112.198C113.358 29.425 114.253 29.67 114.883 30.16C115.513 30.65 115.828 31.32 115.828 32.17C115.828 32.8 115.638 33.335 115.258 33.775C114.888 34.215 114.378 34.51 113.728 34.66V34.42C114.488 34.55 115.073 34.84 115.483 35.29C115.903 35.73 116.113 36.305 116.113 37.015C116.113 37.955 115.778 38.69 115.108 39.22C114.448 39.74 113.533 40 112.363 40H107.323ZM109.558 38.26H112.078C112.658 38.26 113.103 38.15 113.413 37.93C113.723 37.71 113.878 37.36 113.878 36.88C113.878 36.39 113.723 36.04 113.413 35.83C113.103 35.61 112.658 35.5 112.078 35.5H109.558V38.26ZM109.558 33.775H111.778C112.388 33.775 112.838 33.665 113.128 33.445C113.418 33.225 113.563 32.895 113.563 32.455C113.563 32.025 113.418 31.7 113.128 31.48C112.838 31.26 112.388 31.15 111.778 31.15H109.558V33.775ZM117.276 40L122.136 29.425H124.071L128.991 40H126.621L125.346 37.06L126.261 37.705H119.976L120.906 37.06L119.631 40H117.276ZM123.096 31.885L121.161 36.475L120.756 35.905H125.481L125.136 36.475L123.156 31.885H123.096ZM131.944 40V31.33H128.584V29.425H137.644V31.33H134.284V40H131.944ZM139.818 40V29.425H142.143V33.7H144.963C146.133 33.7 147.048 33.97 147.708 34.51C148.368 35.04 148.698 35.815 148.698 36.835C148.698 37.855 148.368 38.64 147.708 39.19C147.048 39.73 146.133 40 144.963 40H139.818ZM142.143 38.23H144.663C145.293 38.23 145.753 38.115 146.043 37.885C146.333 37.655 146.478 37.305 146.478 36.835C146.478 36.375 146.333 36.035 146.043 35.815C145.753 35.585 145.293 35.47 144.663 35.47H142.143V38.23ZM156.296 40V29.425H164.096V31.21H158.516V33.7H161.441C162.611 33.7 163.526 33.97 164.186 34.51C164.846 35.04 165.176 35.815 165.176 36.835C165.176 37.855 164.846 38.64 164.186 39.19C163.526 39.73 162.611 40 161.441 40H156.296ZM158.516 38.23H161.141C161.771 38.23 162.231 38.115 162.521 37.885C162.811 37.655 162.956 37.305 162.956 36.835C162.956 36.375 162.811 36.035 162.521 35.815C162.231 35.585 161.771 35.47 161.141 35.47H158.516V38.23ZM167.64 40V29.425H174.99V31.24H169.875V33.715H174.63V35.545H169.875V38.185H174.99V40H167.64ZM182.635 40.165C181.505 40.165 180.535 39.94 179.725 39.49C178.915 39.04 178.29 38.41 177.85 37.6C177.42 36.78 177.205 35.815 177.205 34.705C177.205 33.595 177.42 32.635 177.85 31.825C178.29 31.015 178.915 30.385 179.725 29.935C180.535 29.485 181.505 29.26 182.635 29.26C183.365 29.26 184.03 29.365 184.63 29.575C185.23 29.775 185.74 30.07 186.16 30.46L185.425 32.305C184.965 31.945 184.525 31.69 184.105 31.54C183.695 31.39 183.23 31.315 182.71 31.315C181.72 31.315 180.96 31.61 180.43 32.2C179.91 32.78 179.65 33.615 179.65 34.705C179.65 35.795 179.91 36.635 180.43 37.225C180.96 37.815 181.72 38.11 182.71 38.11C183.23 38.11 183.695 38.035 184.105 37.885C184.525 37.735 184.965 37.48 185.425 37.12L186.16 38.965C185.74 39.345 185.23 39.64 184.63 39.85C184.03 40.06 183.365 40.165 182.635 40.165ZM188.688 40V29.425H198.183V40H195.858V31.315H190.998V40H188.688ZM201.489 40.27L200.334 38.59C200.754 38.35 201.119 38.075 201.429 37.765C201.749 37.445 202.009 37.06 202.209 36.61C202.409 36.16 202.559 35.615 202.659 34.975C202.759 34.335 202.809 33.57 202.809 32.68V29.425H210.759V40H208.434V31.315H204.954V33.25C204.954 34.21 204.874 35.07 204.714 35.83C204.564 36.58 204.339 37.24 204.039 37.81C203.749 38.38 203.389 38.87 202.959 39.28C202.529 39.68 202.039 40.01 201.489 40.27ZM212.564 40L217.424 29.425H219.359L224.279 40H221.909L220.634 37.06L221.549 37.705H215.264L216.194 37.06L214.919 40H212.564ZM218.384 31.885L216.449 36.475L216.044 35.905H220.769L220.424 36.475L218.444 31.885H218.384ZM227.232 40V31.33H223.872V29.425H232.932V31.33H229.572V40H227.232ZM235.106 40V29.425H237.446V33.67H242.291V29.425H244.646V40H242.291V35.605H237.446V40H235.106ZM247.38 34.705C247.38 33.605 247.585 32.65 247.995 31.84C248.415 31.02 249.015 30.385 249.795 29.935C250.575 29.485 251.5 29.26 252.57 29.26C253.64 29.26 254.565 29.485 255.345 29.935C256.125 30.385 256.725 31.02 257.145 31.84C257.575 32.65 257.79 33.6 257.79 34.69C257.79 35.8 257.575 36.765 257.145 37.585C256.725 38.395 256.125 39.03 255.345 39.49C254.565 39.94 253.64 40.165 252.57 40.165C251.5 40.165 250.575 39.94 249.795 39.49C249.025 39.03 248.43 38.39 248.01 37.57C247.59 36.75 247.38 35.795 247.38 34.705ZM249.825 34.705C249.825 35.795 250.05 36.65 250.5 37.27C250.96 37.88 251.65 38.185 252.57 38.185C253.47 38.185 254.155 37.88 254.625 37.27C255.095 36.65 255.33 35.795 255.33 34.705C255.33 33.605 255.095 32.755 254.625 32.155C254.165 31.545 253.48 31.24 252.57 31.24C251.65 31.24 250.96 31.545 250.5 32.155C250.05 32.755 249.825 33.605 249.825 34.705Z" fill="white"/>
</g>
</g>
<defs>
<filter id="filter0_f_112_266" x="-15" y="-15" width="310" height="79" filterUnits="userSpaceOnUse" color-interpolation-filters="sRGB">
<feFlood flood-opacity="0" result="BackgroundImageFix"/>
<feBlend mode="normal" in="SourceGraphic" in2="BackgroundImageFix" result="shape"/>
<feGaussianBlur stdDeviation="7.5" result="effect1_foregroundBlur_112_266"/>
</filter>
<filter id="filter1_d_112_266" x="21.5409" y="29.26" width="236.249" height="12.01" filterUnits="userSpaceOnUse" color-interpolation-filters="sRGB">
<feFlood flood-opacity="0" result="BackgroundImageFix"/>
<feColorMatrix in="SourceAlpha" type="matrix" values="0 0 0 0 0 0 0 0 0 0 0 0 0 0 0 0 0 0 127 0" result="hardAlpha"/>
<feOffset dy="1"/>
<feComposite in2="hardAlpha" operator="out"/>
<feColorMatrix type="matrix" values="0 0 0 0 0 0 0 0 0 0 0 0 0 0 0 0 0 0 0.24 0"/>
<feBlend mode="normal" in2="BackgroundImageFix" result="effect1_dropShadow_112_266"/>
<feBlend mode="normal" in="SourceGraphic" in2="effect1_dropShadow_112_266" result="shape"/>
</filter>
<linearGradient id="paint0_linear_112_266" x1="140" y1="0" x2="140" y2="68" gradientUnits="userSpaceOnUse">
<stop stop-color="#93D56F"/>
<stop offset="1" stop-color="#659A57"/>
</linearGradient>
<linearGradient id="paint1_linear_112_266" x1="140" y1="0" x2="140" y2="49" gradientUnits="userSpaceOnUse">
<stop stop-color="white" stop-opacity="0.42"/>
<stop offset="1" stop-color="white"/>
</linearGradient>
<clipPath id="clip0_112_266">
<rect width="280" height="68" rx="16" fill="white"/>
</clipPath>
</defs>
</svg>
