<svg width="361" height="40" viewBox="0 0 361 40" fill="none" xmlns="http://www.w3.org/2000/svg">
<path d="M37.109 19V16.967H40.187V7.657H41.365L37.413 10.013V7.695L40.89 5.605H42.638V16.967H45.526V19H37.109ZM51.8076 19.19C51.2249 19.19 50.6422 19.1267 50.0596 19C49.4896 18.8733 48.9512 18.696 48.4446 18.468C47.9506 18.24 47.5262 17.9677 47.1716 17.651L47.9696 15.808C48.5649 16.2513 49.1729 16.587 49.7936 16.815C50.4269 17.0303 51.0856 17.138 51.7696 17.138C52.5929 17.138 53.2326 16.9353 53.6886 16.53C54.1572 16.112 54.3916 15.5547 54.3916 14.858C54.3916 14.1487 54.1699 13.5787 53.7266 13.148C53.2832 12.7047 52.6752 12.483 51.9026 12.483C51.3579 12.483 50.8576 12.5907 50.4016 12.806C49.9582 13.0087 49.5592 13.3253 49.2046 13.756H47.5896V5.605H55.9116V7.619H49.9076V11.875H49.3186C49.6479 11.4317 50.0849 11.0897 50.6296 10.849C51.1869 10.6083 51.8076 10.488 52.4916 10.488C53.3529 10.488 54.1002 10.6653 54.7336 11.02C55.3669 11.3747 55.8609 11.875 56.2156 12.521C56.5702 13.1543 56.7476 13.9017 56.7476 14.763C56.7476 15.637 56.5449 16.4097 56.1396 17.081C55.7469 17.7397 55.1769 18.259 54.4296 18.639C53.6949 19.0063 52.8209 19.19 51.8076 19.19ZM67.692 19.19C66.704 19.19 65.8364 18.9873 65.089 18.582C64.3544 18.1767 63.7844 17.6003 63.379 16.853C62.9737 16.093 62.771 15.1937 62.771 14.155C62.771 13.1163 62.9737 12.2297 63.379 11.495C63.797 10.7603 64.3734 10.1967 65.108 9.804C65.8427 9.41133 66.704 9.215 67.692 9.215C68.3254 9.215 68.9397 9.31633 69.535 9.519C70.143 9.709 70.637 9.98767 71.017 10.355L70.295 12.008C69.953 11.6913 69.5667 11.457 69.136 11.305C68.718 11.1403 68.3064 11.058 67.901 11.058C67.0524 11.058 66.3874 11.324 65.906 11.856C65.4374 12.388 65.203 13.1607 65.203 14.174C65.203 15.1873 65.4374 15.9663 65.906 16.511C66.3874 17.0557 67.0524 17.328 67.901 17.328C68.2937 17.328 68.699 17.252 69.117 17.1C69.5477 16.948 69.9404 16.7137 70.295 16.397L71.017 18.031C70.6244 18.3983 70.124 18.6833 69.516 18.886C68.9207 19.0887 68.3127 19.19 67.692 19.19ZM77.374 19.19C75.7653 19.19 74.505 18.7467 73.593 17.86C72.681 16.9733 72.225 15.7573 72.225 14.212C72.225 13.2113 72.4213 12.3373 72.814 11.59C73.2067 10.8427 73.7513 10.26 74.448 9.842C75.1573 9.424 75.9807 9.215 76.918 9.215C77.8427 9.215 78.6153 9.41133 79.236 9.804C79.8567 10.1967 80.3253 10.7477 80.642 11.457C80.9713 12.1663 81.136 12.996 81.136 13.946V14.573H74.144V13.319H79.445L79.122 13.585C79.122 12.6983 78.932 12.0207 78.552 11.552C78.1847 11.0833 77.6463 10.849 76.937 10.849C76.1517 10.849 75.5437 11.1277 75.113 11.685C74.695 12.2423 74.486 13.0213 74.486 14.022V14.269C74.486 15.3077 74.7393 16.0867 75.246 16.606C75.7653 17.1127 76.4937 17.366 77.431 17.366C77.9757 17.366 78.4823 17.2963 78.951 17.157C79.4323 17.005 79.8883 16.7643 80.319 16.435L81.022 18.031C80.566 18.3983 80.0213 18.6833 79.388 18.886C78.7547 19.0887 78.0833 19.19 77.374 19.19ZM82.951 19V9.405H85.307V13.167H89.639V9.405H91.995V19H89.639V14.991H85.307V19H82.951ZM96.3871 19V11.267H93.1001V9.405H102.049V11.267H98.7431V19H96.3871ZM102.341 19L103.804 16.473C104.058 16.0423 104.368 15.7003 104.735 15.447C105.115 15.181 105.508 15.048 105.913 15.048H106.331L106.312 15.257C105.185 15.257 104.317 15.01 103.709 14.516C103.101 14.022 102.797 13.3 102.797 12.35C102.797 11.4127 103.108 10.6907 103.728 10.184C104.362 9.66467 105.286 9.405 106.502 9.405H111.271V19H109.105V15.618H108.022C107.63 15.618 107.281 15.7257 106.977 15.941C106.686 16.1563 106.439 16.435 106.236 16.777L104.982 19H102.341ZM106.958 14.079H109.105V10.944H106.958C106.312 10.944 105.825 11.0833 105.495 11.362C105.179 11.6407 105.02 12.0207 105.02 12.502C105.02 13.0087 105.179 13.4013 105.495 13.68C105.825 13.946 106.312 14.079 106.958 14.079ZM118.098 19.19C116.591 19.19 115.387 18.734 114.488 17.822C113.601 16.91 113.158 15.5737 113.158 13.813V12.179C113.158 10.3677 113.57 8.911 114.393 7.809C115.216 6.707 116.458 5.97867 118.117 5.624L121.632 4.826L122.278 6.688L118.326 7.562C117.667 7.70133 117.123 7.96733 116.692 8.36C116.261 8.74 115.938 9.196 115.723 9.728C115.508 10.26 115.4 10.83 115.4 11.438V12.445H115.077C115.216 11.875 115.451 11.381 115.78 10.963C116.109 10.5323 116.527 10.1967 117.034 9.956C117.541 9.71533 118.117 9.595 118.763 9.595C119.574 9.595 120.283 9.785 120.891 10.165C121.512 10.5323 121.999 11.0707 122.354 11.78C122.709 12.4767 122.886 13.3127 122.886 14.288C122.886 15.2887 122.683 16.1563 122.278 16.891C121.885 17.6257 121.328 18.1957 120.606 18.601C119.897 18.9937 119.061 19.19 118.098 19.19ZM118.022 17.385C118.807 17.385 119.415 17.138 119.846 16.644C120.289 16.1373 120.511 15.3837 120.511 14.383C120.511 13.4077 120.289 12.6667 119.846 12.16C119.403 11.6407 118.795 11.381 118.022 11.381C117.249 11.381 116.641 11.6343 116.198 12.141C115.755 12.6477 115.533 13.3697 115.533 14.307C115.533 15.333 115.755 16.1057 116.198 16.625C116.641 17.1317 117.249 17.385 118.022 17.385ZM124.832 23.104V11.799C124.832 11.4063 124.819 11.0073 124.794 10.602C124.769 10.1967 124.731 9.79767 124.68 9.405H126.979L127.188 11.419H126.979C127.169 10.7477 127.568 10.2157 128.176 9.823C128.797 9.41767 129.512 9.215 130.323 9.215C131.172 9.215 131.913 9.41767 132.546 9.823C133.179 10.2157 133.673 10.7857 134.028 11.533C134.383 12.2677 134.56 13.1543 134.56 14.193C134.56 15.2317 134.383 16.1247 134.028 16.872C133.673 17.6193 133.179 18.1957 132.546 18.601C131.913 18.9937 131.172 19.19 130.323 19.19C129.525 19.19 128.822 18.9937 128.214 18.601C127.606 18.2083 127.201 17.6827 126.998 17.024H127.207V23.104H124.832ZM129.658 17.366C130.418 17.366 131.026 17.1063 131.482 16.587C131.938 16.055 132.166 15.257 132.166 14.193C132.166 13.129 131.938 12.3373 131.482 11.818C131.026 11.2987 130.418 11.039 129.658 11.039C128.911 11.039 128.309 11.2987 127.853 11.818C127.397 12.3373 127.169 13.129 127.169 14.193C127.169 15.257 127.397 16.055 127.853 16.587C128.309 17.1063 128.911 17.366 129.658 17.366ZM135.62 19L137.083 16.473C137.336 16.0423 137.647 15.7003 138.014 15.447C138.394 15.181 138.787 15.048 139.192 15.048H139.61L139.591 15.257C138.464 15.257 137.596 15.01 136.988 14.516C136.38 14.022 136.076 13.3 136.076 12.35C136.076 11.4127 136.386 10.6907 137.007 10.184C137.64 9.66467 138.565 9.405 139.781 9.405H144.55V19H142.384V15.618H141.301C140.908 15.618 140.56 15.7257 140.256 15.941C139.965 16.1563 139.718 16.435 139.515 16.777L138.261 19H135.62ZM140.237 14.079H142.384V10.944H140.237C139.591 10.944 139.103 11.0833 138.774 11.362C138.457 11.6407 138.299 12.0207 138.299 12.502C138.299 13.0087 138.457 13.4013 138.774 13.68C139.103 13.946 139.591 14.079 140.237 14.079Z" fill="#343434"/>
<path d="M38.861 36.117C38.211 36.117 37.6477 35.9827 37.171 35.714C36.6943 35.4367 36.3217 35.0423 36.053 34.531C35.793 34.011 35.663 33.3957 35.663 32.685C35.663 31.983 35.7973 31.385 36.066 30.891C36.3347 30.3883 36.7073 30.007 37.184 29.747C37.6607 29.4783 38.2197 29.344 38.861 29.344C39.2857 29.344 39.6973 29.4177 40.096 29.565C40.4947 29.7037 40.8197 29.9073 41.071 30.176L40.668 31.008C40.4167 30.7653 40.1393 30.5877 39.836 30.475C39.5327 30.3537 39.2337 30.293 38.939 30.293C38.2977 30.293 37.795 30.501 37.431 30.917C37.067 31.3243 36.885 31.918 36.885 32.698C36.885 33.4867 37.067 34.0933 37.431 34.518C37.795 34.9427 38.2977 35.155 38.939 35.155C39.225 35.155 39.5197 35.0987 39.823 34.986C40.1263 34.8733 40.408 34.6957 40.668 34.453L41.071 35.272C40.811 35.5493 40.4773 35.7617 40.07 35.909C39.6713 36.0477 39.2683 36.117 38.861 36.117ZM44.0196 36V30.41H41.6666V29.461H47.5426V30.41H45.1896V36H44.0196ZM51.1554 36.117C50.5834 36.117 50.0808 35.9827 49.6474 35.714C49.2141 35.4453 48.8761 35.0553 48.6334 34.544C48.3908 34.0327 48.2694 33.426 48.2694 32.724C48.2694 32.022 48.3908 31.4197 48.6334 30.917C48.8761 30.4057 49.2141 30.0157 49.6474 29.747C50.0808 29.4783 50.5834 29.344 51.1554 29.344C51.7361 29.344 52.2388 29.4913 52.6634 29.786C53.0968 30.072 53.3828 30.4663 53.5214 30.969H53.3654L53.5084 29.461H54.6524C54.6264 29.721 54.6004 29.981 54.5744 30.241C54.5571 30.501 54.5484 30.7567 54.5484 31.008V36H53.3654V34.505H53.5084C53.3698 34.999 53.0838 35.3933 52.6504 35.688C52.2258 35.974 51.7274 36.117 51.1554 36.117ZM51.4284 35.181C52.0178 35.181 52.4901 34.973 52.8454 34.557C53.2008 34.141 53.3784 33.53 53.3784 32.724C53.3784 31.918 53.2008 31.3113 52.8454 30.904C52.4901 30.4967 52.0178 30.293 51.4284 30.293C50.8391 30.293 50.3624 30.4967 49.9984 30.904C49.6431 31.3113 49.4654 31.918 49.4654 32.724C49.4654 33.53 49.6431 34.141 49.9984 34.557C50.3538 34.973 50.8304 35.181 51.4284 35.181ZM56.6702 38.808V31.008C56.6702 30.7567 56.6615 30.501 56.6442 30.241C56.6269 29.981 56.6009 29.721 56.5662 29.461H57.7102L57.8532 30.969H57.7102C57.8402 30.4663 58.1175 30.072 58.5422 29.786C58.9669 29.4913 59.4739 29.344 60.0632 29.344C60.6439 29.344 61.1509 29.4783 61.5842 29.747C62.0175 30.0157 62.3512 30.4057 62.5852 30.917C62.8279 31.4197 62.9492 32.022 62.9492 32.724C62.9492 33.426 62.8279 34.0327 62.5852 34.544C62.3512 35.0553 62.0175 35.4453 61.5842 35.714C61.1509 35.9827 60.6439 36.117 60.0632 36.117C59.4825 36.117 58.9799 35.974 58.5552 35.688C58.1392 35.3933 57.8575 34.999 57.7102 34.505H57.8532V38.808H56.6702ZM59.7902 35.181C60.3882 35.181 60.8649 34.973 61.2202 34.557C61.5755 34.141 61.7532 33.53 61.7532 32.724C61.7532 31.918 61.5755 31.3113 61.2202 30.904C60.8649 30.4967 60.3882 30.293 59.7902 30.293C59.1922 30.293 58.7155 30.4967 58.3602 30.904C58.0135 31.3113 57.8402 31.918 57.8402 32.724C57.8402 33.53 58.0135 34.141 58.3602 34.557C58.7155 34.973 59.1922 35.181 59.7902 35.181ZM66.0459 36V30.41H63.6929V29.461H69.5689V30.41H67.2159V36H66.0459ZM76.8695 36.117C76.2282 36.117 75.6735 35.9827 75.2055 35.714C74.7375 35.4367 74.3735 35.0467 74.1135 34.544C73.8535 34.0327 73.7235 33.426 73.7235 32.724C73.7235 32.0307 73.8535 31.4327 74.1135 30.93C74.3735 30.4187 74.7375 30.0287 75.2055 29.76C75.6735 29.4827 76.2282 29.344 76.8695 29.344C77.5109 29.344 78.0655 29.4827 78.5335 29.76C79.0102 30.0287 79.3742 30.4187 79.6255 30.93C79.8855 31.4327 80.0155 32.0307 80.0155 32.724C80.0155 33.426 79.8855 34.0327 79.6255 34.544C79.3742 35.0467 79.0102 35.4367 78.5335 35.714C78.0655 35.9827 77.5109 36.117 76.8695 36.117ZM76.8695 35.181C77.4589 35.181 77.9312 34.973 78.2865 34.557C78.6419 34.141 78.8195 33.53 78.8195 32.724C78.8195 31.918 78.6419 31.3113 78.2865 30.904C77.9312 30.4967 77.4589 30.293 76.8695 30.293C76.2715 30.293 75.7949 30.4967 75.4395 30.904C75.0929 31.3113 74.9195 31.918 74.9195 32.724C74.9195 33.53 75.0929 34.141 75.4395 34.557C75.7949 34.973 76.2715 35.181 76.8695 35.181ZM84.5514 36.117C83.5721 36.117 82.7964 35.8093 82.2244 35.194C81.6524 34.5787 81.3664 33.6773 81.3664 32.49V31.359C81.3664 30.1457 81.6221 29.1663 82.1334 28.421C82.6448 27.6757 83.4378 27.173 84.5124 26.913L86.9044 26.315L87.2554 27.277L84.6034 27.914C84.1268 28.0267 83.7324 28.2303 83.4204 28.525C83.1084 28.8197 82.8744 29.1663 82.7184 29.565C82.5711 29.9637 82.4974 30.3883 82.4974 30.839V31.398H82.3154C82.4194 31.008 82.5841 30.67 82.8094 30.384C83.0434 30.098 83.3338 29.8813 83.6804 29.734C84.0271 29.578 84.4084 29.5 84.8244 29.5C85.3878 29.5 85.8818 29.63 86.3064 29.89C86.7311 30.15 87.0604 30.527 87.2944 31.021C87.5371 31.5063 87.6584 32.087 87.6584 32.763C87.6584 33.4563 87.5284 34.0543 87.2684 34.557C87.0171 35.0597 86.6574 35.4453 86.1894 35.714C85.7214 35.9827 85.1754 36.117 84.5514 36.117ZM84.5124 35.181C85.1191 35.181 85.5958 34.9817 85.9424 34.583C86.2978 34.1843 86.4754 33.5907 86.4754 32.802C86.4754 32.0307 86.2978 31.4413 85.9424 31.034C85.5958 30.6267 85.1191 30.423 84.5124 30.423C83.9058 30.423 83.4248 30.6223 83.0694 31.021C82.7228 31.4197 82.5494 31.9873 82.5494 32.724C82.5494 33.5473 82.7228 34.1627 83.0694 34.57C83.4248 34.9773 83.9058 35.181 84.5124 35.181ZM89.0634 38.951L88.7904 37.989C89.1978 37.8937 89.5358 37.781 89.8044 37.651C90.0731 37.5297 90.2984 37.3693 90.4804 37.17C90.6624 36.9707 90.8228 36.7193 90.9614 36.416L91.2864 35.636L91.2604 36.13L88.4134 29.461H89.6874L91.9624 35.064H91.6244L93.8994 29.461H95.1214L92.1184 36.507C91.9364 36.9317 91.7371 37.287 91.5204 37.573C91.3124 37.859 91.0828 38.093 90.8314 38.275C90.5888 38.457 90.3201 38.6 90.0254 38.704C89.7308 38.808 89.4101 38.8903 89.0634 38.951ZM100.516 36V33.413C100.264 33.5517 99.9957 33.66 99.7097 33.738C99.4237 33.8073 99.1204 33.842 98.7997 33.842C97.8637 33.842 97.1704 33.6253 96.7197 33.192C96.2777 32.75 96.0567 32.087 96.0567 31.203V29.461H97.2267V31.112C97.2267 31.7273 97.3654 32.1737 97.6427 32.451C97.9287 32.7197 98.3707 32.854 98.9687 32.854C99.2721 32.854 99.5451 32.8237 99.7877 32.763C100.03 32.6937 100.264 32.5853 100.49 32.438V29.461H101.673V36H100.516ZM106.721 36.117C105.681 36.117 104.858 35.818 104.251 35.22C103.653 34.622 103.354 33.7987 103.354 32.75C103.354 32.0567 103.484 31.4587 103.744 30.956C104.013 30.4447 104.381 30.0503 104.849 29.773C105.317 29.487 105.863 29.344 106.487 29.344C107.085 29.344 107.592 29.474 108.008 29.734C108.424 29.9853 108.741 30.345 108.957 30.813C109.174 31.281 109.282 31.8357 109.282 32.477V32.867H104.277V32.165H108.476L108.255 32.334C108.255 31.658 108.104 31.1337 107.8 30.761C107.506 30.3883 107.068 30.202 106.487 30.202C105.855 30.202 105.365 30.423 105.018 30.865C104.672 31.2983 104.498 31.892 104.498 32.646V32.763C104.498 33.5603 104.693 34.1627 105.083 34.57C105.482 34.9773 106.032 35.181 106.734 35.181C107.124 35.181 107.488 35.1247 107.826 35.012C108.164 34.8993 108.489 34.713 108.801 34.453L109.191 35.272C108.897 35.5407 108.528 35.7487 108.086 35.896C107.653 36.0433 107.198 36.117 106.721 36.117ZM110.929 36V29.461H112.099V32.165H115.557V29.461H116.727V36H115.557V33.101H112.099V36H110.929ZM118.749 36V29.461H119.828V34.882H119.477L123.533 29.461H124.521V36H123.442V30.566H123.806L119.737 36H118.749ZM126.024 36L127.051 34.219C127.216 33.933 127.424 33.7033 127.675 33.53C127.927 33.348 128.191 33.257 128.468 33.257H128.676L128.663 33.374C127.927 33.374 127.35 33.2093 126.934 32.88C126.518 32.542 126.31 32.0567 126.31 31.424C126.31 30.8 126.514 30.319 126.921 29.981C127.329 29.6343 127.935 29.461 128.741 29.461H131.718V36H130.626V33.53H129.69C129.352 33.53 129.062 33.6167 128.819 33.79C128.577 33.9547 128.377 34.1757 128.221 34.453L127.337 36H126.024ZM128.949 32.711H130.626V30.267H128.949C128.438 30.267 128.057 30.3753 127.805 30.592C127.563 30.8087 127.441 31.1077 127.441 31.489C127.441 31.879 127.563 32.1823 127.805 32.399C128.057 32.607 128.438 32.711 128.949 32.711Z" fill="#343434"/>
<path d="M0 9.5C0 4.2533 4.2533 0 9.5 0V0C14.7467 0 19 4.25329 19 9.5V35.2106C19 37.2511 19 38.2714 18.3853 38.5281C17.7707 38.7847 17.0451 38.0675 15.5939 36.6329L11.1314 32.2215C10.4846 31.5821 10.1612 31.2624 9.75851 31.2568C9.35579 31.2512 9.02364 31.5618 8.35935 32.183L3.36604 36.8523C1.92453 38.2003 1.20378 38.8743 0.60189 38.6131C0 38.3519 0 37.3651 0 35.3915V9.5Z" fill="url(#paint0_linear_27_1270)"/>
<path d="M238.764 19V16.378H232.779V14.668L239.144 5.605H241.12V14.516H243.039V16.378H241.12V19H238.764ZM238.764 14.516V8.493H239.22L234.603 15.086V14.516H238.764ZM249.195 19V9.405H251.551V13.167H255.883V9.405H258.239V19H255.883V14.991H251.551V19H249.195ZM265.273 19.19C263.664 19.19 262.404 18.7467 261.492 17.86C260.58 16.9733 260.124 15.7573 260.124 14.212C260.124 13.2113 260.32 12.3373 260.713 11.59C261.105 10.8427 261.65 10.26 262.347 9.842C263.056 9.424 263.879 9.215 264.817 9.215C265.741 9.215 266.514 9.41133 267.135 9.804C267.755 10.1967 268.224 10.7477 268.541 11.457C268.87 12.1663 269.035 12.996 269.035 13.946V14.573H262.043V13.319H267.344L267.021 13.585C267.021 12.6983 266.831 12.0207 266.451 11.552C266.083 11.0833 265.545 10.849 264.836 10.849C264.05 10.849 263.442 11.1277 263.012 11.685C262.594 12.2423 262.385 13.0213 262.385 14.022V14.269C262.385 15.3077 262.638 16.0867 263.145 16.606C263.664 17.1127 264.392 17.366 265.33 17.366C265.874 17.366 266.381 17.2963 266.85 17.157C267.331 17.005 267.787 16.7643 268.218 16.435L268.921 18.031C268.465 18.3983 267.92 18.6833 267.287 18.886C266.653 19.0887 265.982 19.19 265.273 19.19ZM269.995 21.47V17.195H271.097C271.477 16.5997 271.749 15.903 271.914 15.105C272.091 14.2943 272.18 13.3063 272.18 12.141V9.405H279.571V17.195H281.129V21.47H279.115V19H272.009V21.47H269.995ZM273.225 17.214H277.348V11.191H274.194V12.673C274.194 13.5217 274.111 14.3513 273.947 15.162C273.782 15.9727 273.541 16.6567 273.225 17.214ZM287.205 19.19C285.596 19.19 284.336 18.7467 283.424 17.86C282.512 16.9733 282.056 15.7573 282.056 14.212C282.056 13.2113 282.252 12.3373 282.645 11.59C283.038 10.8427 283.582 10.26 284.279 9.842C284.988 9.424 285.812 9.215 286.749 9.215C287.674 9.215 288.446 9.41133 289.067 9.804C289.688 10.1967 290.156 10.7477 290.473 11.457C290.802 12.1663 290.967 12.996 290.967 13.946V14.573H283.975V13.319H289.276L288.953 13.585C288.953 12.6983 288.763 12.0207 288.383 11.552C288.016 11.0833 287.477 10.849 286.768 10.849C285.983 10.849 285.375 11.1277 284.944 11.685C284.526 12.2423 284.317 13.0213 284.317 14.022V14.269C284.317 15.3077 284.57 16.0867 285.077 16.606C285.596 17.1127 286.325 17.366 287.262 17.366C287.807 17.366 288.313 17.2963 288.782 17.157C289.263 17.005 289.719 16.7643 290.15 16.435L290.853 18.031C290.397 18.3983 289.852 18.6833 289.219 18.886C288.586 19.0887 287.914 19.19 287.205 19.19ZM292.535 19.266L291.794 17.404C292.212 17.252 292.56 17.0557 292.839 16.815C293.13 16.5617 293.358 16.245 293.523 15.865C293.7 15.4723 293.827 14.991 293.903 14.421C293.979 13.8383 294.017 13.148 294.017 12.35V9.405H301.655V19H299.299V11.229H296.183V12.426C296.183 13.8067 296.056 14.9657 295.803 15.903C295.55 16.8277 295.157 17.5623 294.625 18.107C294.093 18.6517 293.396 19.038 292.535 19.266ZM303.98 19V9.405H306.127V16.663H305.557L311.01 9.405H312.967V19H310.82V11.723H311.409L305.937 19H303.98Z" fill="#343434"/>
<path d="M233.014 36V29.461H238.773V36H237.603V30.384H234.184V36H233.014ZM240.835 38.808V31.008C240.835 30.7567 240.827 30.501 240.809 30.241C240.792 29.981 240.766 29.721 240.731 29.461H241.875L242.018 30.969H241.875C242.005 30.4663 242.283 30.072 242.707 29.786C243.132 29.4913 243.639 29.344 244.228 29.344C244.809 29.344 245.316 29.4783 245.749 29.747C246.183 30.0157 246.516 30.4057 246.75 30.917C246.993 31.4197 247.114 32.022 247.114 32.724C247.114 33.426 246.993 34.0327 246.75 34.544C246.516 35.0553 246.183 35.4453 245.749 35.714C245.316 35.9827 244.809 36.117 244.228 36.117C243.648 36.117 243.145 35.974 242.72 35.688C242.304 35.3933 242.023 34.999 241.875 34.505H242.018V38.808H240.835ZM243.955 35.181C244.553 35.181 245.03 34.973 245.385 34.557C245.741 34.141 245.918 33.53 245.918 32.724C245.918 31.918 245.741 31.3113 245.385 30.904C245.03 30.4967 244.553 30.293 243.955 30.293C243.357 30.293 242.881 30.4967 242.525 30.904C242.179 31.3113 242.005 31.918 242.005 32.724C242.005 33.53 242.179 34.141 242.525 34.557C242.881 34.973 243.357 35.181 243.955 35.181ZM251.602 36.117C250.961 36.117 250.406 35.9827 249.938 35.714C249.47 35.4367 249.106 35.0467 248.846 34.544C248.586 34.0327 248.456 33.426 248.456 32.724C248.456 32.0307 248.586 31.4327 248.846 30.93C249.106 30.4187 249.47 30.0287 249.938 29.76C250.406 29.4827 250.961 29.344 251.602 29.344C252.243 29.344 252.798 29.4827 253.266 29.76C253.743 30.0287 254.107 30.4187 254.358 30.93C254.618 31.4327 254.748 32.0307 254.748 32.724C254.748 33.426 254.618 34.0327 254.358 34.544C254.107 35.0467 253.743 35.4367 253.266 35.714C252.798 35.9827 252.243 36.117 251.602 36.117ZM251.602 35.181C252.191 35.181 252.664 34.973 253.019 34.557C253.374 34.141 253.552 33.53 253.552 32.724C253.552 31.918 253.374 31.3113 253.019 30.904C252.664 30.4967 252.191 30.293 251.602 30.293C251.004 30.293 250.527 30.4967 250.172 30.904C249.825 31.3113 249.652 31.918 249.652 32.724C249.652 33.53 249.825 34.141 250.172 34.557C250.527 34.973 251.004 35.181 251.602 35.181ZM255.761 37.69V35.077H256.476C256.771 34.635 256.983 34.115 257.113 33.517C257.252 32.919 257.321 32.2083 257.321 31.385V29.461H262.014V35.077H263.054V37.69H262.04V36H256.788V37.69H255.761ZM257.594 35.09H260.909V30.371H258.361V31.593C258.361 32.2517 258.296 32.893 258.166 33.517C258.036 34.1323 257.845 34.6567 257.594 35.09ZM267.217 36.117C266.576 36.117 266.021 35.9827 265.553 35.714C265.085 35.4367 264.721 35.0467 264.461 34.544C264.201 34.0327 264.071 33.426 264.071 32.724C264.071 32.0307 264.201 31.4327 264.461 30.93C264.721 30.4187 265.085 30.0287 265.553 29.76C266.021 29.4827 266.576 29.344 267.217 29.344C267.859 29.344 268.413 29.4827 268.881 29.76C269.358 30.0287 269.722 30.4187 269.973 30.93C270.233 31.4327 270.363 32.0307 270.363 32.724C270.363 33.426 270.233 34.0327 269.973 34.544C269.722 35.0467 269.358 35.4367 268.881 35.714C268.413 35.9827 267.859 36.117 267.217 36.117ZM267.217 35.181C267.807 35.181 268.279 34.973 268.634 34.557C268.99 34.141 269.167 33.53 269.167 32.724C269.167 31.918 268.99 31.3113 268.634 30.904C268.279 30.4967 267.807 30.293 267.217 30.293C266.619 30.293 266.143 30.4967 265.787 30.904C265.441 31.3113 265.267 31.918 265.267 32.724C265.267 33.53 265.441 34.141 265.787 34.557C266.143 34.973 266.619 35.181 267.217 35.181ZM271.613 36.156L271.197 35.233C271.5 35.0943 271.752 34.9297 271.951 34.739C272.159 34.5397 272.319 34.2883 272.432 33.985C272.553 33.6817 272.64 33.3047 272.692 32.854C272.744 32.4033 272.77 31.8573 272.77 31.216V29.461H277.593V36H276.423V30.384H273.862V31.242C273.862 32.2473 273.784 33.0793 273.628 33.738C273.481 34.388 273.242 34.9037 272.913 35.285C272.592 35.6663 272.159 35.9567 271.613 36.156ZM278.604 36L279.956 33.673C280.156 33.3523 280.338 33.0967 280.502 32.906C280.667 32.7153 280.84 32.5723 281.022 32.477C281.213 32.373 281.434 32.308 281.685 32.282L281.399 32.646L278.916 29.461H280.216L282.335 32.165H283.336V29.461H284.506V32.165H285.494L287.6 29.461H288.913L286.43 32.646L286.131 32.282C286.383 32.308 286.599 32.373 286.781 32.477C286.972 32.5723 287.154 32.7153 287.327 32.906C287.501 33.0967 287.683 33.3523 287.873 33.673L289.225 36H287.964L286.781 33.985C286.643 33.751 286.508 33.569 286.378 33.439C286.248 33.309 286.101 33.218 285.936 33.166C285.78 33.114 285.581 33.088 285.338 33.088H284.506V36H283.336V33.088H282.491C282.249 33.088 282.045 33.114 281.88 33.166C281.724 33.218 281.581 33.309 281.451 33.439C281.33 33.569 281.196 33.751 281.048 33.985L279.878 36H278.604ZM290.244 36V29.461H291.323V34.882H290.972L295.028 29.461H296.016V36H294.937V30.566H295.301L291.232 36H290.244ZM299.443 36V30.41H297.09V29.461H302.966V30.41H300.613V36H299.443ZM307.022 36.117C305.982 36.117 305.159 35.818 304.552 35.22C303.954 34.622 303.655 33.7987 303.655 32.75C303.655 32.0567 303.785 31.4587 304.045 30.956C304.314 30.4447 304.682 30.0503 305.15 29.773C305.618 29.487 306.164 29.344 306.788 29.344C307.386 29.344 307.893 29.474 308.309 29.734C308.725 29.9853 309.042 30.345 309.258 30.813C309.475 31.281 309.583 31.8357 309.583 32.477V32.867H304.578V32.165H308.777L308.556 32.334C308.556 31.658 308.405 31.1337 308.101 30.761C307.807 30.3883 307.369 30.202 306.788 30.202C306.156 30.202 305.666 30.423 305.319 30.865C304.973 31.2983 304.799 31.892 304.799 32.646V32.763C304.799 33.5603 304.994 34.1627 305.384 34.57C305.783 34.9773 306.333 35.181 307.035 35.181C307.425 35.181 307.789 35.1247 308.127 35.012C308.465 34.8993 308.79 34.713 309.102 34.453L309.492 35.272C309.198 35.5407 308.829 35.7487 308.387 35.896C307.954 36.0433 307.499 36.117 307.022 36.117ZM310.918 36.156L310.502 35.233C310.805 35.0943 311.056 34.9297 311.256 34.739C311.464 34.5397 311.624 34.2883 311.737 33.985C311.858 33.6817 311.945 33.3047 311.997 32.854C312.049 32.4033 312.075 31.8573 312.075 31.216V29.461H316.898V36H315.728V30.384H313.167V31.242C313.167 32.2473 313.089 33.0793 312.933 33.738C312.785 34.388 312.547 34.9037 312.218 35.285C311.897 35.6663 311.464 35.9567 310.918 36.156ZM318.923 36V29.461H320.093V31.775H322.017C322.867 31.775 323.504 31.957 323.928 32.321C324.362 32.6763 324.578 33.192 324.578 33.868C324.578 34.3013 324.479 34.6783 324.279 34.999C324.08 35.3197 323.79 35.5667 323.408 35.74C323.027 35.9133 322.563 36 322.017 36H318.923ZM320.093 35.181H321.887C322.399 35.181 322.789 35.077 323.057 34.869C323.326 34.6523 323.46 34.323 323.46 33.881C323.46 33.439 323.326 33.114 323.057 32.906C322.797 32.698 322.407 32.594 321.887 32.594H320.093V35.181ZM326.096 36V29.461H327.266V32.165H330.724V29.461H331.894V36H330.724V33.101H327.266V36H326.096ZM336.711 36.117C336.07 36.117 335.515 35.9827 335.047 35.714C334.579 35.4367 334.215 35.0467 333.955 34.544C333.695 34.0327 333.565 33.426 333.565 32.724C333.565 32.0307 333.695 31.4327 333.955 30.93C334.215 30.4187 334.579 30.0287 335.047 29.76C335.515 29.4827 336.07 29.344 336.711 29.344C337.353 29.344 337.907 29.4827 338.375 29.76C338.852 30.0287 339.216 30.4187 339.467 30.93C339.727 31.4327 339.857 32.0307 339.857 32.724C339.857 33.426 339.727 34.0327 339.467 34.544C339.216 35.0467 338.852 35.4367 338.375 35.714C337.907 35.9827 337.353 36.117 336.711 36.117ZM336.711 35.181C337.301 35.181 337.773 34.973 338.128 34.557C338.484 34.141 338.661 33.53 338.661 32.724C338.661 31.918 338.484 31.3113 338.128 30.904C337.773 30.4967 337.301 30.293 336.711 30.293C336.113 30.293 335.637 30.4967 335.281 30.904C334.935 31.3113 334.761 31.918 334.761 32.724C334.761 33.53 334.935 34.141 335.281 34.557C335.637 34.973 336.113 35.181 336.711 35.181ZM344.393 36.117C343.743 36.117 343.18 35.9827 342.703 35.714C342.227 35.4367 341.854 35.0423 341.585 34.531C341.325 34.011 341.195 33.3957 341.195 32.685C341.195 31.983 341.33 31.385 341.598 30.891C341.867 30.3883 342.24 30.007 342.716 29.747C343.193 29.4783 343.752 29.344 344.393 29.344C344.818 29.344 345.23 29.4177 345.628 29.565C346.027 29.7037 346.352 29.9073 346.603 30.176L346.2 31.008C345.949 30.7653 345.672 30.5877 345.368 30.475C345.065 30.3537 344.766 30.293 344.471 30.293C343.83 30.293 343.327 30.501 342.963 30.917C342.599 31.3243 342.417 31.918 342.417 32.698C342.417 33.4867 342.599 34.0933 342.963 34.518C343.327 34.9427 343.83 35.155 344.471 35.155C344.757 35.155 345.052 35.0987 345.355 34.986C345.659 34.8733 345.94 34.6957 346.2 34.453L346.603 35.272C346.343 35.5493 346.01 35.7617 345.602 35.909C345.204 36.0477 344.801 36.117 344.393 36.117ZM349.552 36V30.41H347.199V29.461H353.075V30.41H350.722V36H349.552ZM354.153 36V29.461H355.323V31.775H357.247C358.096 31.775 358.733 31.957 359.158 32.321C359.591 32.6763 359.808 33.192 359.808 33.868C359.808 34.3013 359.708 34.6783 359.509 34.999C359.309 35.3197 359.019 35.5667 358.638 35.74C358.256 35.9133 357.793 36 357.247 36H354.153ZM355.323 35.181H357.117C357.628 35.181 358.018 35.077 358.287 34.869C358.555 34.6523 358.69 34.323 358.69 33.881C358.69 33.439 358.555 33.114 358.287 32.906C358.027 32.698 357.637 32.594 357.117 32.594H355.323V35.181Z" fill="#343434"/>
<path d="M197 9.5C197 4.2533 201.253 0 206.5 0C211.747 0 216 4.25329 216 9.5V35.2106C216 37.2511 216 38.2714 215.385 38.5281C214.771 38.7847 214.045 38.0675 212.594 36.6329L208.131 32.2215C207.485 31.5821 207.161 31.2624 206.759 31.2568C206.356 31.2512 206.024 31.5618 205.359 32.183L200.366 36.8523C198.925 38.2003 198.204 38.8743 197.602 38.6131C197 38.3519 197 37.3651 197 35.3915V9.5Z" fill="url(#paint1_linear_27_1270)"/>
<defs>
<linearGradient id="paint0_linear_27_1270" x1="9.5" y1="0" x2="9.5" y2="40" gradientUnits="userSpaceOnUse">
<stop stop-color="#FB79A8"/>
<stop offset="1" stop-color="#F55567"/>
</linearGradient>
<linearGradient id="paint1_linear_27_1270" x1="206.5" y1="0" x2="206.5" y2="40" gradientUnits="userSpaceOnUse">
<stop stop-color="#79CAFB"/>
<stop offset="1" stop-color="#678ED1"/>
</linearGradient>
</defs>
</svg>
