<svg width="361" height="40" viewBox="0 0 361 40" fill="none" xmlns="http://www.w3.org/2000/svg">
<path d="M37.109 19V16.967H40.187V7.657H41.365L37.413 10.013V7.695L40.89 5.605H42.638V16.967H45.526V19H37.109ZM47.4946 19V17.195L51.9406 12.559C52.4979 11.9763 52.9096 11.438 53.1756 10.944C53.4416 10.45 53.5746 9.94333 53.5746 9.424C53.5746 8.778 53.3719 8.29033 52.9666 7.961C52.5612 7.63167 51.9722 7.467 51.1996 7.467C50.5789 7.467 49.9836 7.581 49.4136 7.809C48.8436 8.02433 48.2862 8.36633 47.7416 8.835L46.9436 7.011C47.4882 6.52967 48.1596 6.14333 48.9576 5.852C49.7682 5.56067 50.6169 5.415 51.5036 5.415C52.9476 5.415 54.0559 5.738 54.8286 6.384C55.6012 7.03 55.9876 7.95467 55.9876 9.158C55.9876 9.994 55.7912 10.792 55.3986 11.552C55.0059 12.2993 54.3979 13.0847 53.5746 13.908L49.8696 17.613V16.967H56.5196V19H47.4946ZM66.989 19.19C66.153 19.19 65.4184 18.9937 64.785 18.601C64.1517 18.1957 63.6577 17.6193 63.303 16.872C62.9484 16.1247 62.771 15.2317 62.771 14.193C62.771 13.1543 62.9484 12.2677 63.303 11.533C63.6577 10.7857 64.1517 10.2157 64.785 9.823C65.4184 9.41767 66.153 9.215 66.989 9.215C67.7997 9.215 68.509 9.41767 69.117 9.823C69.7377 10.2157 70.1494 10.7477 70.352 11.419H70.143L70.352 9.405H72.632C72.594 9.79767 72.556 10.1967 72.518 10.602C72.4927 11.0073 72.48 11.4063 72.48 11.799V19H70.124L70.105 17.024H70.333C70.1304 17.6827 69.7187 18.2083 69.098 18.601C68.4774 18.9937 67.7744 19.19 66.989 19.19ZM67.654 17.366C68.4014 17.366 69.003 17.1063 69.459 16.587C69.915 16.055 70.143 15.257 70.143 14.193C70.143 13.129 69.915 12.3373 69.459 11.818C69.003 11.2987 68.4014 11.039 67.654 11.039C66.9067 11.039 66.305 11.2987 65.849 11.818C65.393 12.3373 65.165 13.129 65.165 14.193C65.165 15.257 65.3867 16.055 65.83 16.587C66.286 17.1063 66.894 17.366 67.654 17.366ZM74.87 19V9.405H83.857V19H81.501V11.229H77.226V19H74.87ZM86.2555 23.104V11.799C86.2555 11.4063 86.2428 11.0073 86.2175 10.602C86.1921 10.1967 86.1541 9.79767 86.1035 9.405H88.4025L88.6115 11.419H88.4025C88.5925 10.7477 88.9915 10.2157 89.5995 9.823C90.2201 9.41767 90.9358 9.215 91.7465 9.215C92.5951 9.215 93.3361 9.41767 93.9695 9.823C94.6028 10.2157 95.0968 10.7857 95.4515 11.533C95.8061 12.2677 95.9835 13.1543 95.9835 14.193C95.9835 15.2317 95.8061 16.1247 95.4515 16.872C95.0968 17.6193 94.6028 18.1957 93.9695 18.601C93.3361 18.9937 92.5951 19.19 91.7465 19.19C90.9485 19.19 90.2455 18.9937 89.6375 18.601C89.0295 18.2083 88.6241 17.6827 88.4215 17.024H88.6305V23.104H86.2555ZM91.0815 17.366C91.8415 17.366 92.4495 17.1063 92.9055 16.587C93.3615 16.055 93.5895 15.257 93.5895 14.193C93.5895 13.129 93.3615 12.3373 92.9055 11.818C92.4495 11.2987 91.8415 11.039 91.0815 11.039C90.3341 11.039 89.7325 11.2987 89.2765 11.818C88.8205 12.3373 88.5925 13.129 88.5925 14.193C88.5925 15.257 88.8205 16.055 89.2765 16.587C89.7325 17.1063 90.3341 17.366 91.0815 17.366ZM102.553 19.19C100.945 19.19 99.6845 18.7467 98.7725 17.86C97.8605 16.9733 97.4045 15.7573 97.4045 14.212C97.4045 13.2113 97.6008 12.3373 97.9935 11.59C98.3861 10.8427 98.9308 10.26 99.6275 9.842C100.337 9.424 101.16 9.215 102.097 9.215C103.022 9.215 103.795 9.41133 104.415 9.804C105.036 10.1967 105.505 10.7477 105.821 11.457C106.151 12.1663 106.315 12.996 106.315 13.946V14.573H99.3235V13.319H104.624L104.301 13.585C104.301 12.6983 104.111 12.0207 103.731 11.552C103.364 11.0833 102.826 10.849 102.116 10.849C101.331 10.849 100.723 11.1277 100.292 11.685C99.8745 12.2423 99.6655 13.0213 99.6655 14.022V14.269C99.6655 15.3077 99.9188 16.0867 100.425 16.606C100.945 17.1127 101.673 17.366 102.61 17.366C103.155 17.366 103.662 17.2963 104.13 17.157C104.612 17.005 105.068 16.7643 105.498 16.435L106.201 18.031C105.745 18.3983 105.201 18.6833 104.567 18.886C103.934 19.0887 103.263 19.19 102.553 19.19ZM107.883 19.266L107.142 17.404C107.56 17.252 107.909 17.0557 108.187 16.815C108.479 16.5617 108.707 16.245 108.871 15.865C109.049 15.4723 109.175 14.991 109.251 14.421C109.327 13.8383 109.365 13.148 109.365 12.35V9.405H117.003V19H114.647V11.229H111.531V12.426C111.531 13.8067 111.405 14.9657 111.151 15.903C110.898 16.8277 110.505 17.5623 109.973 18.107C109.441 18.6517 108.745 19.038 107.883 19.266ZM118.531 19L119.994 16.473C120.247 16.0423 120.557 15.7003 120.925 15.447C121.305 15.181 121.697 15.048 122.103 15.048H122.521L122.502 15.257C121.374 15.257 120.507 15.01 119.899 14.516C119.291 14.022 118.987 13.3 118.987 12.35C118.987 11.4127 119.297 10.6907 119.918 10.184C120.551 9.66467 121.476 9.405 122.692 9.405H127.461V19H125.295V15.618H124.212C123.819 15.618 123.471 15.7257 123.167 15.941C122.875 16.1563 122.628 16.435 122.426 16.777L121.172 19H118.531ZM123.148 14.079H125.295V10.944H123.148C122.502 10.944 122.014 11.0833 121.685 11.362C121.368 11.6407 121.21 12.0207 121.21 12.502C121.21 13.0087 121.368 13.4013 121.685 13.68C122.014 13.946 122.502 14.079 123.148 14.079Z" fill="#343434"/>
<path d="M38.861 36.117C38.211 36.117 37.6477 35.9827 37.171 35.714C36.6943 35.4367 36.3217 35.0423 36.053 34.531C35.793 34.011 35.663 33.3957 35.663 32.685C35.663 31.983 35.7973 31.385 36.066 30.891C36.3347 30.3883 36.7073 30.007 37.184 29.747C37.6607 29.4783 38.2197 29.344 38.861 29.344C39.2857 29.344 39.6973 29.4177 40.096 29.565C40.4947 29.7037 40.8197 29.9073 41.071 30.176L40.668 31.008C40.4167 30.7653 40.1393 30.5877 39.836 30.475C39.5327 30.3537 39.2337 30.293 38.939 30.293C38.2977 30.293 37.795 30.501 37.431 30.917C37.067 31.3243 36.885 31.918 36.885 32.698C36.885 33.4867 37.067 34.0933 37.431 34.518C37.795 34.9427 38.2977 35.155 38.939 35.155C39.225 35.155 39.5197 35.0987 39.823 34.986C40.1263 34.8733 40.408 34.6957 40.668 34.453L41.071 35.272C40.811 35.5493 40.4773 35.7617 40.07 35.909C39.6713 36.0477 39.2683 36.117 38.861 36.117ZM44.0196 36V30.41H41.6666V29.461H47.5426V30.41H45.1896V36H44.0196ZM51.1554 36.117C50.5834 36.117 50.0808 35.9827 49.6474 35.714C49.2141 35.4453 48.8761 35.0553 48.6334 34.544C48.3908 34.0327 48.2694 33.426 48.2694 32.724C48.2694 32.022 48.3908 31.4197 48.6334 30.917C48.8761 30.4057 49.2141 30.0157 49.6474 29.747C50.0808 29.4783 50.5834 29.344 51.1554 29.344C51.7361 29.344 52.2388 29.4913 52.6634 29.786C53.0968 30.072 53.3828 30.4663 53.5214 30.969H53.3654L53.5084 29.461H54.6524C54.6264 29.721 54.6004 29.981 54.5744 30.241C54.5571 30.501 54.5484 30.7567 54.5484 31.008V36H53.3654V34.505H53.5084C53.3698 34.999 53.0838 35.3933 52.6504 35.688C52.2258 35.974 51.7274 36.117 51.1554 36.117ZM51.4284 35.181C52.0178 35.181 52.4901 34.973 52.8454 34.557C53.2008 34.141 53.3784 33.53 53.3784 32.724C53.3784 31.918 53.2008 31.3113 52.8454 30.904C52.4901 30.4967 52.0178 30.293 51.4284 30.293C50.8391 30.293 50.3624 30.4967 49.9984 30.904C49.6431 31.3113 49.4654 31.918 49.4654 32.724C49.4654 33.53 49.6431 34.141 49.9984 34.557C50.3538 34.973 50.8304 35.181 51.4284 35.181ZM56.6702 38.808V31.008C56.6702 30.7567 56.6615 30.501 56.6442 30.241C56.6269 29.981 56.6009 29.721 56.5662 29.461H57.7102L57.8532 30.969H57.7102C57.8402 30.4663 58.1175 30.072 58.5422 29.786C58.9669 29.4913 59.4739 29.344 60.0632 29.344C60.6439 29.344 61.1509 29.4783 61.5842 29.747C62.0175 30.0157 62.3512 30.4057 62.5852 30.917C62.8279 31.4197 62.9492 32.022 62.9492 32.724C62.9492 33.426 62.8279 34.0327 62.5852 34.544C62.3512 35.0553 62.0175 35.4453 61.5842 35.714C61.1509 35.9827 60.6439 36.117 60.0632 36.117C59.4825 36.117 58.9799 35.974 58.5552 35.688C58.1392 35.3933 57.8575 34.999 57.7102 34.505H57.8532V38.808H56.6702ZM59.7902 35.181C60.3882 35.181 60.8649 34.973 61.2202 34.557C61.5755 34.141 61.7532 33.53 61.7532 32.724C61.7532 31.918 61.5755 31.3113 61.2202 30.904C60.8649 30.4967 60.3882 30.293 59.7902 30.293C59.1922 30.293 58.7155 30.4967 58.3602 30.904C58.0135 31.3113 57.8402 31.918 57.8402 32.724C57.8402 33.53 58.0135 34.141 58.3602 34.557C58.7155 34.973 59.1922 35.181 59.7902 35.181ZM66.0459 36V30.41H63.6929V29.461H69.5689V30.41H67.2159V36H66.0459ZM76.8695 36.117C76.2282 36.117 75.6735 35.9827 75.2055 35.714C74.7375 35.4367 74.3735 35.0467 74.1135 34.544C73.8535 34.0327 73.7235 33.426 73.7235 32.724C73.7235 32.0307 73.8535 31.4327 74.1135 30.93C74.3735 30.4187 74.7375 30.0287 75.2055 29.76C75.6735 29.4827 76.2282 29.344 76.8695 29.344C77.5109 29.344 78.0655 29.4827 78.5335 29.76C79.0102 30.0287 79.3742 30.4187 79.6255 30.93C79.8855 31.4327 80.0155 32.0307 80.0155 32.724C80.0155 33.426 79.8855 34.0327 79.6255 34.544C79.3742 35.0467 79.0102 35.4367 78.5335 35.714C78.0655 35.9827 77.5109 36.117 76.8695 36.117ZM76.8695 35.181C77.4589 35.181 77.9312 34.973 78.2865 34.557C78.6419 34.141 78.8195 33.53 78.8195 32.724C78.8195 31.918 78.6419 31.3113 78.2865 30.904C77.9312 30.4967 77.4589 30.293 76.8695 30.293C76.2715 30.293 75.7949 30.4967 75.4395 30.904C75.0929 31.3113 74.9195 31.918 74.9195 32.724C74.9195 33.53 75.0929 34.141 75.4395 34.557C75.7949 34.973 76.2715 35.181 76.8695 35.181ZM84.5514 36.117C83.5721 36.117 82.7964 35.8093 82.2244 35.194C81.6524 34.5787 81.3664 33.6773 81.3664 32.49V31.359C81.3664 30.1457 81.6221 29.1663 82.1334 28.421C82.6448 27.6757 83.4378 27.173 84.5124 26.913L86.9044 26.315L87.2554 27.277L84.6034 27.914C84.1268 28.0267 83.7324 28.2303 83.4204 28.525C83.1084 28.8197 82.8744 29.1663 82.7184 29.565C82.5711 29.9637 82.4974 30.3883 82.4974 30.839V31.398H82.3154C82.4194 31.008 82.5841 30.67 82.8094 30.384C83.0434 30.098 83.3338 29.8813 83.6804 29.734C84.0271 29.578 84.4084 29.5 84.8244 29.5C85.3878 29.5 85.8818 29.63 86.3064 29.89C86.7311 30.15 87.0604 30.527 87.2944 31.021C87.5371 31.5063 87.6584 32.087 87.6584 32.763C87.6584 33.4563 87.5284 34.0543 87.2684 34.557C87.0171 35.0597 86.6574 35.4453 86.1894 35.714C85.7214 35.9827 85.1754 36.117 84.5514 36.117ZM84.5124 35.181C85.1191 35.181 85.5958 34.9817 85.9424 34.583C86.2978 34.1843 86.4754 33.5907 86.4754 32.802C86.4754 32.0307 86.2978 31.4413 85.9424 31.034C85.5958 30.6267 85.1191 30.423 84.5124 30.423C83.9058 30.423 83.4248 30.6223 83.0694 31.021C82.7228 31.4197 82.5494 31.9873 82.5494 32.724C82.5494 33.5473 82.7228 34.1627 83.0694 34.57C83.4248 34.9773 83.9058 35.181 84.5124 35.181ZM89.0634 38.951L88.7904 37.989C89.1978 37.8937 89.5358 37.781 89.8044 37.651C90.0731 37.5297 90.2984 37.3693 90.4804 37.17C90.6624 36.9707 90.8228 36.7193 90.9614 36.416L91.2864 35.636L91.2604 36.13L88.4134 29.461H89.6874L91.9624 35.064H91.6244L93.8994 29.461H95.1214L92.1184 36.507C91.9364 36.9317 91.7371 37.287 91.5204 37.573C91.3124 37.859 91.0828 38.093 90.8314 38.275C90.5888 38.457 90.3201 38.6 90.0254 38.704C89.7308 38.808 89.4101 38.8903 89.0634 38.951ZM100.516 36V33.413C100.264 33.5517 99.9957 33.66 99.7097 33.738C99.4237 33.8073 99.1204 33.842 98.7997 33.842C97.8637 33.842 97.1704 33.6253 96.7197 33.192C96.2777 32.75 96.0567 32.087 96.0567 31.203V29.461H97.2267V31.112C97.2267 31.7273 97.3654 32.1737 97.6427 32.451C97.9287 32.7197 98.3707 32.854 98.9687 32.854C99.2721 32.854 99.5451 32.8237 99.7877 32.763C100.03 32.6937 100.264 32.5853 100.49 32.438V29.461H101.673V36H100.516ZM106.721 36.117C105.681 36.117 104.858 35.818 104.251 35.22C103.653 34.622 103.354 33.7987 103.354 32.75C103.354 32.0567 103.484 31.4587 103.744 30.956C104.013 30.4447 104.381 30.0503 104.849 29.773C105.317 29.487 105.863 29.344 106.487 29.344C107.085 29.344 107.592 29.474 108.008 29.734C108.424 29.9853 108.741 30.345 108.957 30.813C109.174 31.281 109.282 31.8357 109.282 32.477V32.867H104.277V32.165H108.476L108.255 32.334C108.255 31.658 108.104 31.1337 107.8 30.761C107.506 30.3883 107.068 30.202 106.487 30.202C105.855 30.202 105.365 30.423 105.018 30.865C104.672 31.2983 104.498 31.892 104.498 32.646V32.763C104.498 33.5603 104.693 34.1627 105.083 34.57C105.482 34.9773 106.032 35.181 106.734 35.181C107.124 35.181 107.488 35.1247 107.826 35.012C108.164 34.8993 108.489 34.713 108.801 34.453L109.191 35.272C108.897 35.5407 108.528 35.7487 108.086 35.896C107.653 36.0433 107.198 36.117 106.721 36.117ZM110.929 36V29.461H112.099V32.165H115.557V29.461H116.727V36H115.557V33.101H112.099V36H110.929ZM118.749 36V29.461H119.828V34.882H119.477L123.533 29.461H124.521V36H123.442V30.566H123.806L119.737 36H118.749ZM126.024 36L127.051 34.219C127.216 33.933 127.424 33.7033 127.675 33.53C127.927 33.348 128.191 33.257 128.468 33.257H128.676L128.663 33.374C127.927 33.374 127.35 33.2093 126.934 32.88C126.518 32.542 126.31 32.0567 126.31 31.424C126.31 30.8 126.514 30.319 126.921 29.981C127.329 29.6343 127.935 29.461 128.741 29.461H131.718V36H130.626V33.53H129.69C129.352 33.53 129.062 33.6167 128.819 33.79C128.577 33.9547 128.377 34.1757 128.221 34.453L127.337 36H126.024ZM128.949 32.711H130.626V30.267H128.949C128.438 30.267 128.057 30.3753 127.805 30.592C127.563 30.8087 127.441 31.1077 127.441 31.489C127.441 31.879 127.563 32.1823 127.805 32.399C128.057 32.607 128.438 32.711 128.949 32.711Z" fill="#343434"/>
<path d="M0 9.5C0 4.2533 4.2533 0 9.5 0V0C14.7467 0 19 4.25329 19 9.5V35.2106C19 37.2511 19 38.2714 18.3853 38.5281C17.7707 38.7847 17.0451 38.0675 15.5939 36.6329L11.1314 32.2215C10.4846 31.5821 10.1612 31.2624 9.75851 31.2568C9.35579 31.2512 9.02364 31.5618 8.35935 32.183L3.36604 36.8523C1.92453 38.2003 1.20378 38.8743 0.60189 38.6131C0 38.3519 0 37.3651 0 35.3915V9.5Z" fill="url(#paint0_linear_98_202)"/>
<path d="M238.764 19V16.378H232.779V14.668L239.144 5.605H241.12V14.516H243.039V16.378H241.12V19H238.764ZM238.764 14.516V8.493H239.22L234.603 15.086V14.516H238.764ZM249.195 19V9.405H251.551V13.167H255.883V9.405H258.239V19H255.883V14.991H251.551V19H249.195ZM265.273 19.19C263.664 19.19 262.404 18.7467 261.492 17.86C260.58 16.9733 260.124 15.7573 260.124 14.212C260.124 13.2113 260.32 12.3373 260.713 11.59C261.105 10.8427 261.65 10.26 262.347 9.842C263.056 9.424 263.879 9.215 264.817 9.215C265.741 9.215 266.514 9.41133 267.135 9.804C267.755 10.1967 268.224 10.7477 268.541 11.457C268.87 12.1663 269.035 12.996 269.035 13.946V14.573H262.043V13.319H267.344L267.021 13.585C267.021 12.6983 266.831 12.0207 266.451 11.552C266.083 11.0833 265.545 10.849 264.836 10.849C264.05 10.849 263.442 11.1277 263.012 11.685C262.594 12.2423 262.385 13.0213 262.385 14.022V14.269C262.385 15.3077 262.638 16.0867 263.145 16.606C263.664 17.1127 264.392 17.366 265.33 17.366C265.874 17.366 266.381 17.2963 266.85 17.157C267.331 17.005 267.787 16.7643 268.218 16.435L268.921 18.031C268.465 18.3983 267.92 18.6833 267.287 18.886C266.653 19.0887 265.982 19.19 265.273 19.19ZM269.995 21.47V17.195H271.097C271.477 16.5997 271.749 15.903 271.914 15.105C272.091 14.2943 272.18 13.3063 272.18 12.141V9.405H279.571V17.195H281.129V21.47H279.115V19H272.009V21.47H269.995ZM273.225 17.214H277.348V11.191H274.194V12.673C274.194 13.5217 274.111 14.3513 273.947 15.162C273.782 15.9727 273.541 16.6567 273.225 17.214ZM287.205 19.19C285.596 19.19 284.336 18.7467 283.424 17.86C282.512 16.9733 282.056 15.7573 282.056 14.212C282.056 13.2113 282.252 12.3373 282.645 11.59C283.038 10.8427 283.582 10.26 284.279 9.842C284.988 9.424 285.812 9.215 286.749 9.215C287.674 9.215 288.446 9.41133 289.067 9.804C289.688 10.1967 290.156 10.7477 290.473 11.457C290.802 12.1663 290.967 12.996 290.967 13.946V14.573H283.975V13.319H289.276L288.953 13.585C288.953 12.6983 288.763 12.0207 288.383 11.552C288.016 11.0833 287.477 10.849 286.768 10.849C285.983 10.849 285.375 11.1277 284.944 11.685C284.526 12.2423 284.317 13.0213 284.317 14.022V14.269C284.317 15.3077 284.57 16.0867 285.077 16.606C285.596 17.1127 286.325 17.366 287.262 17.366C287.807 17.366 288.313 17.2963 288.782 17.157C289.263 17.005 289.719 16.7643 290.15 16.435L290.853 18.031C290.397 18.3983 289.852 18.6833 289.219 18.886C288.586 19.0887 287.914 19.19 287.205 19.19ZM292.535 19.266L291.794 17.404C292.212 17.252 292.56 17.0557 292.839 16.815C293.13 16.5617 293.358 16.245 293.523 15.865C293.7 15.4723 293.827 14.991 293.903 14.421C293.979 13.8383 294.017 13.148 294.017 12.35V9.405H301.655V19H299.299V11.229H296.183V12.426C296.183 13.8067 296.056 14.9657 295.803 15.903C295.55 16.8277 295.157 17.5623 294.625 18.107C294.093 18.6517 293.396 19.038 292.535 19.266ZM303.98 19V9.405H306.127V16.663H305.557L311.01 9.405H312.967V19H310.82V11.723H311.409L305.937 19H303.98Z" fill="#343434"/>
<path d="M233.014 36V29.461H238.773V36H237.603V30.384H234.184V36H233.014ZM240.835 38.808V31.008C240.835 30.7567 240.827 30.501 240.809 30.241C240.792 29.981 240.766 29.721 240.731 29.461H241.875L242.018 30.969H241.875C242.005 30.4663 242.283 30.072 242.707 29.786C243.132 29.4913 243.639 29.344 244.228 29.344C244.809 29.344 245.316 29.4783 245.749 29.747C246.183 30.0157 246.516 30.4057 246.75 30.917C246.993 31.4197 247.114 32.022 247.114 32.724C247.114 33.426 246.993 34.0327 246.75 34.544C246.516 35.0553 246.183 35.4453 245.749 35.714C245.316 35.9827 244.809 36.117 244.228 36.117C243.648 36.117 243.145 35.974 242.72 35.688C242.304 35.3933 242.023 34.999 241.875 34.505H242.018V38.808H240.835ZM243.955 35.181C244.553 35.181 245.03 34.973 245.385 34.557C245.741 34.141 245.918 33.53 245.918 32.724C245.918 31.918 245.741 31.3113 245.385 30.904C245.03 30.4967 244.553 30.293 243.955 30.293C243.357 30.293 242.881 30.4967 242.525 30.904C242.179 31.3113 242.005 31.918 242.005 32.724C242.005 33.53 242.179 34.141 242.525 34.557C242.881 34.973 243.357 35.181 243.955 35.181ZM251.602 36.117C250.961 36.117 250.406 35.9827 249.938 35.714C249.47 35.4367 249.106 35.0467 248.846 34.544C248.586 34.0327 248.456 33.426 248.456 32.724C248.456 32.0307 248.586 31.4327 248.846 30.93C249.106 30.4187 249.47 30.0287 249.938 29.76C250.406 29.4827 250.961 29.344 251.602 29.344C252.243 29.344 252.798 29.4827 253.266 29.76C253.743 30.0287 254.107 30.4187 254.358 30.93C254.618 31.4327 254.748 32.0307 254.748 32.724C254.748 33.426 254.618 34.0327 254.358 34.544C254.107 35.0467 253.743 35.4367 253.266 35.714C252.798 35.9827 252.243 36.117 251.602 36.117ZM251.602 35.181C252.191 35.181 252.664 34.973 253.019 34.557C253.374 34.141 253.552 33.53 253.552 32.724C253.552 31.918 253.374 31.3113 253.019 30.904C252.664 30.4967 252.191 30.293 251.602 30.293C251.004 30.293 250.527 30.4967 250.172 30.904C249.825 31.3113 249.652 31.918 249.652 32.724C249.652 33.53 249.825 34.141 250.172 34.557C250.527 34.973 251.004 35.181 251.602 35.181ZM255.761 37.69V35.077H256.476C256.771 34.635 256.983 34.115 257.113 33.517C257.252 32.919 257.321 32.2083 257.321 31.385V29.461H262.014V35.077H263.054V37.69H262.04V36H256.788V37.69H255.761ZM257.594 35.09H260.909V30.371H258.361V31.593C258.361 32.2517 258.296 32.893 258.166 33.517C258.036 34.1323 257.845 34.6567 257.594 35.09ZM267.217 36.117C266.576 36.117 266.021 35.9827 265.553 35.714C265.085 35.4367 264.721 35.0467 264.461 34.544C264.201 34.0327 264.071 33.426 264.071 32.724C264.071 32.0307 264.201 31.4327 264.461 30.93C264.721 30.4187 265.085 30.0287 265.553 29.76C266.021 29.4827 266.576 29.344 267.217 29.344C267.859 29.344 268.413 29.4827 268.881 29.76C269.358 30.0287 269.722 30.4187 269.973 30.93C270.233 31.4327 270.363 32.0307 270.363 32.724C270.363 33.426 270.233 34.0327 269.973 34.544C269.722 35.0467 269.358 35.4367 268.881 35.714C268.413 35.9827 267.859 36.117 267.217 36.117ZM267.217 35.181C267.807 35.181 268.279 34.973 268.634 34.557C268.99 34.141 269.167 33.53 269.167 32.724C269.167 31.918 268.99 31.3113 268.634 30.904C268.279 30.4967 267.807 30.293 267.217 30.293C266.619 30.293 266.143 30.4967 265.787 30.904C265.441 31.3113 265.267 31.918 265.267 32.724C265.267 33.53 265.441 34.141 265.787 34.557C266.143 34.973 266.619 35.181 267.217 35.181ZM271.613 36.156L271.197 35.233C271.5 35.0943 271.752 34.9297 271.951 34.739C272.159 34.5397 272.319 34.2883 272.432 33.985C272.553 33.6817 272.64 33.3047 272.692 32.854C272.744 32.4033 272.77 31.8573 272.77 31.216V29.461H277.593V36H276.423V30.384H273.862V31.242C273.862 32.2473 273.784 33.0793 273.628 33.738C273.481 34.388 273.242 34.9037 272.913 35.285C272.592 35.6663 272.159 35.9567 271.613 36.156ZM278.604 36L279.956 33.673C280.156 33.3523 280.338 33.0967 280.502 32.906C280.667 32.7153 280.84 32.5723 281.022 32.477C281.213 32.373 281.434 32.308 281.685 32.282L281.399 32.646L278.916 29.461H280.216L282.335 32.165H283.336V29.461H284.506V32.165H285.494L287.6 29.461H288.913L286.43 32.646L286.131 32.282C286.383 32.308 286.599 32.373 286.781 32.477C286.972 32.5723 287.154 32.7153 287.327 32.906C287.501 33.0967 287.683 33.3523 287.873 33.673L289.225 36H287.964L286.781 33.985C286.643 33.751 286.508 33.569 286.378 33.439C286.248 33.309 286.101 33.218 285.936 33.166C285.78 33.114 285.581 33.088 285.338 33.088H284.506V36H283.336V33.088H282.491C282.249 33.088 282.045 33.114 281.88 33.166C281.724 33.218 281.581 33.309 281.451 33.439C281.33 33.569 281.196 33.751 281.048 33.985L279.878 36H278.604ZM290.244 36V29.461H291.323V34.882H290.972L295.028 29.461H296.016V36H294.937V30.566H295.301L291.232 36H290.244ZM299.443 36V30.41H297.09V29.461H302.966V30.41H300.613V36H299.443ZM307.022 36.117C305.982 36.117 305.159 35.818 304.552 35.22C303.954 34.622 303.655 33.7987 303.655 32.75C303.655 32.0567 303.785 31.4587 304.045 30.956C304.314 30.4447 304.682 30.0503 305.15 29.773C305.618 29.487 306.164 29.344 306.788 29.344C307.386 29.344 307.893 29.474 308.309 29.734C308.725 29.9853 309.042 30.345 309.258 30.813C309.475 31.281 309.583 31.8357 309.583 32.477V32.867H304.578V32.165H308.777L308.556 32.334C308.556 31.658 308.405 31.1337 308.101 30.761C307.807 30.3883 307.369 30.202 306.788 30.202C306.156 30.202 305.666 30.423 305.319 30.865C304.973 31.2983 304.799 31.892 304.799 32.646V32.763C304.799 33.5603 304.994 34.1627 305.384 34.57C305.783 34.9773 306.333 35.181 307.035 35.181C307.425 35.181 307.789 35.1247 308.127 35.012C308.465 34.8993 308.79 34.713 309.102 34.453L309.492 35.272C309.198 35.5407 308.829 35.7487 308.387 35.896C307.954 36.0433 307.499 36.117 307.022 36.117ZM310.918 36.156L310.502 35.233C310.805 35.0943 311.056 34.9297 311.256 34.739C311.464 34.5397 311.624 34.2883 311.737 33.985C311.858 33.6817 311.945 33.3047 311.997 32.854C312.049 32.4033 312.075 31.8573 312.075 31.216V29.461H316.898V36H315.728V30.384H313.167V31.242C313.167 32.2473 313.089 33.0793 312.933 33.738C312.785 34.388 312.547 34.9037 312.218 35.285C311.897 35.6663 311.464 35.9567 310.918 36.156ZM318.923 36V29.461H320.093V31.775H322.017C322.867 31.775 323.504 31.957 323.928 32.321C324.362 32.6763 324.578 33.192 324.578 33.868C324.578 34.3013 324.479 34.6783 324.279 34.999C324.08 35.3197 323.79 35.5667 323.408 35.74C323.027 35.9133 322.563 36 322.017 36H318.923ZM320.093 35.181H321.887C322.399 35.181 322.789 35.077 323.057 34.869C323.326 34.6523 323.46 34.323 323.46 33.881C323.46 33.439 323.326 33.114 323.057 32.906C322.797 32.698 322.407 32.594 321.887 32.594H320.093V35.181ZM326.096 36V29.461H327.266V32.165H330.724V29.461H331.894V36H330.724V33.101H327.266V36H326.096ZM336.711 36.117C336.07 36.117 335.515 35.9827 335.047 35.714C334.579 35.4367 334.215 35.0467 333.955 34.544C333.695 34.0327 333.565 33.426 333.565 32.724C333.565 32.0307 333.695 31.4327 333.955 30.93C334.215 30.4187 334.579 30.0287 335.047 29.76C335.515 29.4827 336.07 29.344 336.711 29.344C337.353 29.344 337.907 29.4827 338.375 29.76C338.852 30.0287 339.216 30.4187 339.467 30.93C339.727 31.4327 339.857 32.0307 339.857 32.724C339.857 33.426 339.727 34.0327 339.467 34.544C339.216 35.0467 338.852 35.4367 338.375 35.714C337.907 35.9827 337.353 36.117 336.711 36.117ZM336.711 35.181C337.301 35.181 337.773 34.973 338.128 34.557C338.484 34.141 338.661 33.53 338.661 32.724C338.661 31.918 338.484 31.3113 338.128 30.904C337.773 30.4967 337.301 30.293 336.711 30.293C336.113 30.293 335.637 30.4967 335.281 30.904C334.935 31.3113 334.761 31.918 334.761 32.724C334.761 33.53 334.935 34.141 335.281 34.557C335.637 34.973 336.113 35.181 336.711 35.181ZM344.393 36.117C343.743 36.117 343.18 35.9827 342.703 35.714C342.227 35.4367 341.854 35.0423 341.585 34.531C341.325 34.011 341.195 33.3957 341.195 32.685C341.195 31.983 341.33 31.385 341.598 30.891C341.867 30.3883 342.24 30.007 342.716 29.747C343.193 29.4783 343.752 29.344 344.393 29.344C344.818 29.344 345.23 29.4177 345.628 29.565C346.027 29.7037 346.352 29.9073 346.603 30.176L346.2 31.008C345.949 30.7653 345.672 30.5877 345.368 30.475C345.065 30.3537 344.766 30.293 344.471 30.293C343.83 30.293 343.327 30.501 342.963 30.917C342.599 31.3243 342.417 31.918 342.417 32.698C342.417 33.4867 342.599 34.0933 342.963 34.518C343.327 34.9427 343.83 35.155 344.471 35.155C344.757 35.155 345.052 35.0987 345.355 34.986C345.659 34.8733 345.94 34.6957 346.2 34.453L346.603 35.272C346.343 35.5493 346.01 35.7617 345.602 35.909C345.204 36.0477 344.801 36.117 344.393 36.117ZM349.552 36V30.41H347.199V29.461H353.075V30.41H350.722V36H349.552ZM354.153 36V29.461H355.323V31.775H357.247C358.096 31.775 358.733 31.957 359.158 32.321C359.591 32.6763 359.808 33.192 359.808 33.868C359.808 34.3013 359.708 34.6783 359.509 34.999C359.309 35.3197 359.019 35.5667 358.638 35.74C358.256 35.9133 357.793 36 357.247 36H354.153ZM355.323 35.181H357.117C357.628 35.181 358.018 35.077 358.287 34.869C358.555 34.6523 358.69 34.323 358.69 33.881C358.69 33.439 358.555 33.114 358.287 32.906C358.027 32.698 357.637 32.594 357.117 32.594H355.323V35.181Z" fill="#343434"/>
<path d="M197 9.5C197 4.2533 201.253 0 206.5 0V0C211.747 0 216 4.25329 216 9.5V35.2106C216 37.2511 216 38.2714 215.385 38.5281C214.771 38.7847 214.045 38.0675 212.594 36.6329L208.131 32.2215C207.485 31.5821 207.161 31.2624 206.759 31.2568C206.356 31.2512 206.024 31.5618 205.359 32.183L200.366 36.8523C198.925 38.2003 198.204 38.8743 197.602 38.6131C197 38.3519 197 37.3651 197 35.3915V9.5Z" fill="url(#paint1_linear_98_202)"/>
<defs>
<linearGradient id="paint0_linear_98_202" x1="9.5" y1="0" x2="9.5" y2="40" gradientUnits="userSpaceOnUse">
<stop stop-color="#FB79A8"/>
<stop offset="1" stop-color="#F55567"/>
</linearGradient>
<linearGradient id="paint1_linear_98_202" x1="206.5" y1="0" x2="206.5" y2="40" gradientUnits="userSpaceOnUse">
<stop stop-color="#79CAFB"/>
<stop offset="1" stop-color="#678ED1"/>
</linearGradient>
</defs>
</svg>
