<svg width="148" height="14" viewBox="0 0 148 14" fill="none" xmlns="http://www.w3.org/2000/svg">
<path d="M0.77002 6.05799C0.77002 5.02199 0.956686 4.12599 1.33002 3.36999C1.71269 2.61399 2.25869 2.03066 2.96802 1.61999C3.67735 1.19999 4.52202 0.98999 5.50202 0.98999C6.47269 0.98999 7.31269 1.19999 8.02202 1.61999C8.73135 2.03066 9.27735 2.61399 9.66002 3.36999C10.052 4.12599 10.248 5.01732 10.248 6.04399C10.248 7.07999 10.052 7.98066 9.66002 8.74599C9.27735 9.50199 8.73135 10.09 8.02202 10.51C7.31269 10.93 6.47269 11.14 5.50202 11.14C4.52202 11.14 3.67735 10.93 2.96802 10.51C2.26802 10.09 1.72669 9.50199 1.34402 8.74599C0.961353 7.98066 0.77002 7.08466 0.77002 6.05799ZM2.66002 6.05799C2.66002 7.16866 2.89802 8.03666 3.37402 8.66199C3.85002 9.28732 4.55935 9.59999 5.50202 9.59999C6.41669 9.59999 7.12135 9.28732 7.61602 8.66199C8.11069 8.03666 8.35802 7.16866 8.35802 6.05799C8.35802 4.93799 8.11069 4.06999 7.61602 3.45399C7.13069 2.83799 6.42602 2.52999 5.50202 2.52999C4.55935 2.52999 3.85002 2.83799 3.37402 3.45399C2.89802 4.06999 2.66002 4.93799 2.66002 6.05799Z" fill="#343434"/>
<path d="M15.514 11V2.61399H12.252V1.12999H20.582V2.61399H17.32V11H15.514Z" fill="#343434"/>
<path d="M26.814 11.14C25.9646 11.14 25.2086 11.0373 24.546 10.832C23.8833 10.6173 23.3233 10.3233 22.866 9.94999L23.44 8.61999C23.86 8.95599 24.336 9.21266 24.868 9.38999C25.4 9.55799 26.0066 9.64199 26.688 9.64199C27.5093 9.64199 28.1113 9.51599 28.494 9.26399C28.8766 9.00266 29.068 8.61532 29.068 8.10199C29.068 7.62599 28.9093 7.27599 28.592 7.05199C28.2746 6.81866 27.7846 6.70199 27.122 6.70199H24.644V5.28799H26.898C27.5326 5.28799 28.0086 5.17599 28.326 4.95199C28.6526 4.71866 28.816 4.37332 28.816 3.91599C28.816 3.47732 28.6433 3.13199 28.298 2.87999C27.9526 2.61866 27.4206 2.48799 26.702 2.48799C26.1326 2.48799 25.5866 2.57199 25.064 2.73999C24.5413 2.90799 24.0746 3.15532 23.664 3.48199L23.09 2.15199C23.5286 1.77866 24.0793 1.49399 24.742 1.29799C25.414 1.09266 26.1233 0.98999 26.87 0.98999C28.0926 0.98999 29.012 1.23732 29.628 1.73199C30.2533 2.22666 30.566 2.87532 30.566 3.67799C30.566 4.27532 30.3886 4.78399 30.034 5.20399C29.6793 5.61466 29.194 5.88999 28.578 6.02999V5.81999C29.278 5.92266 29.824 6.18399 30.216 6.60399C30.6173 7.02399 30.818 7.57466 30.818 8.25599C30.818 8.83466 30.6686 9.34332 30.37 9.78199C30.0806 10.2113 29.6373 10.5473 29.04 10.79C28.452 11.0233 27.71 11.14 26.814 11.14Z" fill="#343434"/>
<path d="M34.2141 11V1.12999H36.0061V5.25999H38.3721C39.4547 5.25999 40.2994 5.50266 40.9061 5.98799C41.5127 6.46399 41.8161 7.17332 41.8161 8.11599C41.8161 9.04932 41.5127 9.76332 40.9061 10.258C40.2994 10.7527 39.4547 11 38.3721 11H34.2141ZM36.0061 9.61399H38.1621C38.8247 9.61399 39.31 9.49266 39.618 9.24999C39.926 8.99799 40.0801 8.61999 40.0801 8.11599C40.0801 7.62132 39.926 7.25266 39.618 7.00999C39.31 6.75799 38.8247 6.63199 38.1621 6.63199H36.0061V9.61399ZM43.1181 11V1.12999H44.9101V11H43.1181Z" fill="#343434"/>
<path d="M48.7593 11V1.12999H53.0853C54.1586 1.12999 54.9846 1.35866 55.5633 1.81599C56.142 2.26399 56.4313 2.88932 56.4313 3.69199C56.4313 4.28932 56.254 4.79332 55.8993 5.20399C55.5446 5.61466 55.0546 5.88999 54.4293 6.02999V5.81999C55.148 5.92266 55.7033 6.18399 56.0953 6.60399C56.4966 7.01466 56.6973 7.56066 56.6973 8.24199C56.6973 9.11932 56.394 9.80066 55.7873 10.286C55.1806 10.762 54.336 11 53.2533 11H48.7593ZM50.4953 9.62799H53.0433C53.65 9.62799 54.1213 9.51599 54.4573 9.29199C54.7933 9.05866 54.9613 8.68066 54.9613 8.15799C54.9613 7.62599 54.7933 7.24799 54.4573 7.02399C54.1213 6.79066 53.65 6.67399 53.0433 6.67399H50.4953V9.62799ZM50.4953 5.31599H52.7773C53.4213 5.31599 53.8973 5.19932 54.2053 4.96599C54.5226 4.72332 54.6813 4.36866 54.6813 3.90199C54.6813 3.43532 54.5226 3.08532 54.2053 2.85199C53.8973 2.60932 53.4213 2.48799 52.7773 2.48799H50.4953V5.31599Z" fill="#343434"/>
<path d="M60.1053 11V1.12999H61.8973V5.25999H64.2633C65.346 5.25999 66.1906 5.50266 66.7973 5.98799C67.404 6.46399 67.7073 7.17332 67.7073 8.11599C67.7073 9.04932 67.404 9.76332 66.7973 10.258C66.1906 10.7527 65.346 11 64.2633 11H60.1053ZM61.8973 9.61399H64.0533C64.716 9.61399 65.2013 9.49266 65.5093 9.24999C65.8173 8.99799 65.9713 8.61999 65.9713 8.11599C65.9713 7.62132 65.8173 7.25266 65.5093 7.00999C65.2013 6.75799 64.716 6.63199 64.0533 6.63199H61.8973V9.61399ZM69.0093 11V1.12999H70.8013V11H69.0093Z" fill="#343434"/>
<path d="M81.6843 11L83.4203 7.70999L83.4483 8.26999L78.8843 1.12999H80.8163L84.3303 6.70199H83.9803L86.9063 1.12999H88.7683L83.5603 11H81.6843Z" fill="#343434"/>
<path d="M97.3603 11V7.13599C97.0896 7.25732 96.749 7.35532 96.3383 7.42999C95.9276 7.50466 95.517 7.54199 95.1063 7.54199C93.781 7.54199 92.7636 7.20132 92.0543 6.51999C91.3543 5.83866 91.0043 4.80732 91.0043 3.42599V1.12999H92.7963V3.34199C92.7963 4.27532 93.0016 4.95666 93.4123 5.38599C93.8323 5.80599 94.4623 6.01599 95.3023 6.01599C95.657 6.01599 96.007 5.98332 96.3523 5.91799C96.707 5.85266 97.043 5.74532 97.3603 5.59599V1.12999H99.1523V11H97.3603Z" fill="#343434"/>
<path d="M103.001 11V1.12999H109.651V2.54399H104.737V5.27399H109.329V6.70199H104.737V9.57199H109.651V11H103.001Z" fill="#343434"/>
<path d="M113.007 11V1.12999H114.813V5.24599H119.867V1.12999H121.673V11H119.867V6.74399H114.813V11H113.007Z" fill="#343434"/>
<path d="M125.529 11V1.12999H127.195V8.57799H126.859L132.571 1.12999H133.929V11H132.249V3.55199H132.585L126.859 11H125.529Z" fill="#343434"/>
<path d="M146.275 13.31V11H137.777V1.12999H139.555V9.51599H144.623V1.12999H146.415V9.51599H147.857V13.31H146.275Z" fill="#343434"/>
</svg>
