<svg width="95" height="12" viewBox="0 0 95 12" fill="none" xmlns="http://www.w3.org/2000/svg">
<path d="M0.77002 6.05799C0.77002 5.02199 0.956686 4.12599 1.33002 3.36999C1.71269 2.61399 2.25869 2.03066 2.96802 1.61999C3.67735 1.19999 4.52202 0.98999 5.50202 0.98999C6.47269 0.98999 7.31269 1.19999 8.02202 1.61999C8.73135 2.03066 9.27735 2.61399 9.66002 3.36999C10.052 4.12599 10.248 5.01732 10.248 6.04399C10.248 7.07999 10.052 7.98066 9.66002 8.74599C9.27735 9.50199 8.73135 10.09 8.02202 10.51C7.31269 10.93 6.47269 11.14 5.50202 11.14C4.52202 11.14 3.67735 10.93 2.96802 10.51C2.26802 10.09 1.72669 9.50199 1.34402 8.74599C0.961353 7.98066 0.77002 7.08466 0.77002 6.05799ZM2.66002 6.05799C2.66002 7.16866 2.89802 8.03666 3.37402 8.66199C3.85002 9.28732 4.55935 9.59999 5.50202 9.59999C6.41669 9.59999 7.12135 9.28732 7.61602 8.66199C8.11069 8.03666 8.35802 7.16866 8.35802 6.05799C8.35802 4.93799 8.11069 4.06999 7.61602 3.45399C7.13069 2.83799 6.42602 2.52999 5.50202 2.52999C4.55935 2.52999 3.85002 2.83799 3.37402 3.45399C2.89802 4.06999 2.66002 4.93799 2.66002 6.05799Z" fill="#343434"/>
<path d="M13.7916 11V1.12999H20.8336V2.52999H15.5136V5.25999H18.3836C19.4662 5.25999 20.3109 5.50266 20.9176 5.98799C21.5242 6.46399 21.8276 7.17332 21.8276 8.11599C21.8276 9.04932 21.5242 9.76332 20.9176 10.258C20.3109 10.7527 19.4662 11 18.3836 11H13.7916ZM15.5136 9.61399H18.1736C18.8362 9.61399 19.3216 9.49266 19.6296 9.24999C19.9376 8.99799 20.0916 8.61999 20.0916 8.11599C20.0916 7.62132 19.9376 7.25266 19.6296 7.00999C19.3216 6.76732 18.8362 6.64599 18.1736 6.64599H15.5136V9.61399Z" fill="#343434"/>
<path d="M29.5537 11L34.0197 1.12999H35.5317L40.0537 11H38.2197L37.0157 8.22799L37.7437 8.71799H31.8217L32.5777 8.22799L31.3737 11H29.5537ZM34.7617 3.06199L32.7877 7.73799L32.4237 7.30399H37.1277L36.8337 7.73799L34.8177 3.06199H34.7617Z" fill="#343434"/>
<path d="M42.8257 11V1.12999H47.1517C48.225 1.12999 49.051 1.35866 49.6297 1.81599C50.2084 2.26399 50.4977 2.88932 50.4977 3.69199C50.4977 4.28932 50.3204 4.79332 49.9657 5.20399C49.611 5.61466 49.121 5.88999 48.4957 6.02999V5.81999C49.2144 5.92266 49.7697 6.18399 50.1617 6.60399C50.563 7.01466 50.7637 7.56066 50.7637 8.24199C50.7637 9.11932 50.4604 9.80066 49.8537 10.286C49.247 10.762 48.4024 11 47.3197 11H42.8257ZM44.5617 9.62799H47.1097C47.7164 9.62799 48.1877 9.51599 48.5237 9.29199C48.8597 9.05866 49.0277 8.68066 49.0277 8.15799C49.0277 7.62599 48.8597 7.24799 48.5237 7.02399C48.1877 6.79066 47.7164 6.67399 47.1097 6.67399H44.5617V9.62799ZM44.5617 5.31599H46.8437C47.4877 5.31599 47.9637 5.19932 48.2717 4.96599C48.589 4.72332 48.7477 4.36866 48.7477 3.90199C48.7477 3.43532 48.589 3.08532 48.2717 2.85199C47.9637 2.60932 47.4877 2.48799 46.8437 2.48799H44.5617V5.31599Z" fill="#343434"/>
<path d="M56.359 11V2.61399H53.097V1.12999H61.427V2.61399H58.165V11H56.359Z" fill="#343434"/>
<path d="M63.5278 6.05799C63.5278 5.02199 63.7144 4.12599 64.0877 3.36999C64.4704 2.61399 65.0164 2.03066 65.7258 1.61999C66.4351 1.19999 67.2798 0.98999 68.2598 0.98999C69.2304 0.98999 70.0704 1.19999 70.7798 1.61999C71.4891 2.03066 72.0351 2.61399 72.4178 3.36999C72.8098 4.12599 73.0058 5.01732 73.0058 6.04399C73.0058 7.07999 72.8098 7.98066 72.4178 8.74599C72.0351 9.50199 71.4891 10.09 70.7798 10.51C70.0704 10.93 69.2304 11.14 68.2598 11.14C67.2798 11.14 66.4351 10.93 65.7258 10.51C65.0258 10.09 64.4844 9.50199 64.1017 8.74599C63.7191 7.98066 63.5278 7.08466 63.5278 6.05799ZM65.4178 6.05799C65.4178 7.16866 65.6558 8.03666 66.1318 8.66199C66.6078 9.28732 67.3171 9.59999 68.2598 9.59999C69.1744 9.59999 69.8791 9.28732 70.3738 8.66199C70.8684 8.03666 71.1158 7.16866 71.1158 6.05799C71.1158 4.93799 70.8684 4.06999 70.3738 3.45399C69.8884 2.83799 69.1838 2.52999 68.2598 2.52999C67.3171 2.52999 66.6078 2.83799 66.1318 3.45399C65.6558 4.06999 65.4178 4.93799 65.4178 6.05799Z" fill="#343434"/>
<path d="M76.5493 11V1.12999H80.9313C82.014 1.12999 82.84 1.39132 83.4093 1.91399C83.9786 2.43666 84.2633 3.15532 84.2633 4.06999C84.2633 4.97532 83.9786 5.69399 83.4093 6.22599C82.84 6.75799 82.014 7.02399 80.9313 7.02399H78.3553V11H76.5493ZM78.3553 5.59599H80.7213C81.3186 5.59599 81.7666 5.46532 82.0653 5.20399C82.364 4.93332 82.5133 4.55532 82.5133 4.06999C82.5133 3.58466 82.364 3.21132 82.0653 2.94999C81.7666 2.67932 81.3186 2.54399 80.7213 2.54399H78.3553V5.59599Z" fill="#343434"/>
<path d="M87.5535 11V1.12999H94.2035V2.54399H89.2895V5.27399H93.8815V6.70199H89.2895V9.57199H94.2035V11H87.5535Z" fill="#343434"/>
</svg>
