<svg width="168" height="12" viewBox="0 0 168 12" fill="none" xmlns="http://www.w3.org/2000/svg">
<path d="M0.092041 11V1.12999H8.73004V11H6.93804V2.59999H1.87004V11H0.092041Z" fill="#343434"/>
<path d="M12.5865 11V1.12999H16.9685C18.0512 1.12999 18.8772 1.39132 19.4465 1.91399C20.0158 2.43666 20.3005 3.15532 20.3005 4.06999C20.3005 4.97532 20.0158 5.69399 19.4465 6.22599C18.8772 6.75799 18.0512 7.02399 16.9685 7.02399H14.3925V11H12.5865ZM14.3925 5.59599H16.7585C17.3558 5.59599 17.8038 5.46532 18.1025 5.20399C18.4012 4.93332 18.5505 4.55532 18.5505 4.06999C18.5505 3.58466 18.4012 3.21132 18.1025 2.94999C17.8038 2.67932 17.3558 2.54399 16.7585 2.54399H14.3925V5.59599Z" fill="#343434"/>
<path d="M23.132 6.05799C23.132 5.02199 23.3187 4.12599 23.692 3.36999C24.0747 2.61399 24.6207 2.03066 25.33 1.61999C26.0393 1.19999 26.884 0.98999 27.864 0.98999C28.8347 0.98999 29.6747 1.19999 30.384 1.61999C31.0933 2.03066 31.6393 2.61399 32.022 3.36999C32.414 4.12599 32.61 5.01732 32.61 6.04399C32.61 7.07999 32.414 7.98066 32.022 8.74599C31.6393 9.50199 31.0933 10.09 30.384 10.51C29.6747 10.93 28.8347 11.14 27.864 11.14C26.884 11.14 26.0393 10.93 25.33 10.51C24.63 10.09 24.0887 9.50199 23.706 8.74599C23.3233 7.98066 23.132 7.08466 23.132 6.05799ZM25.022 6.05799C25.022 7.16866 25.26 8.03666 25.736 8.66199C26.212 9.28732 26.9213 9.59999 27.864 9.59999C28.7787 9.59999 29.4833 9.28732 29.978 8.66199C30.4727 8.03666 30.72 7.16866 30.72 6.05799C30.72 4.93799 30.4727 4.06999 29.978 3.45399C29.4927 2.83799 28.788 2.52999 27.864 2.52999C26.9213 2.52999 26.212 2.83799 25.736 3.45399C25.26 4.06999 25.022 4.93799 25.022 6.05799Z" fill="#343434"/>
<path d="M36.1535 11V1.12999H42.8455V2.59999H37.9455V11H36.1535Z" fill="#343434"/>
<path d="M45.8452 11V1.12999H50.2272C51.3099 1.12999 52.1359 1.39132 52.7052 1.91399C53.2746 2.43666 53.5592 3.15532 53.5592 4.06999C53.5592 4.97532 53.2746 5.69399 52.7052 6.22599C52.1359 6.75799 51.3099 7.02399 50.2272 7.02399H47.6512V11H45.8452ZM47.6512 5.59599H50.0172C50.6146 5.59599 51.0626 5.46532 51.3612 5.20399C51.6599 4.93332 51.8092 4.55532 51.8092 4.06999C51.8092 3.58466 51.6599 3.21132 51.3612 2.94999C51.0626 2.67932 50.6146 2.54399 50.0172 2.54399H47.6512V5.59599Z" fill="#343434"/>
<path d="M54.7047 11L59.1707 1.12999H60.6827L65.2047 11H63.3707L62.1667 8.22799L62.8947 8.71799H56.9727L57.7287 8.22799L56.5247 11H54.7047ZM59.9127 3.06199L57.9387 7.73799L57.5747 7.30399H62.2787L61.9847 7.73799L59.9687 3.06199H59.9127Z" fill="#343434"/>
<path d="M67.9907 11V1.12999H69.5727L73.1987 9.29199H72.7647L76.3907 1.12999H77.9587V11H76.3207V3.67799H76.8247L73.5067 11H72.4287L69.1107 3.67799H69.6287V11H67.9907Z" fill="#343434"/>
<path d="M81.8524 11V1.12999H83.4344L87.0604 9.29199H86.6264L90.2524 1.12999H91.8204V11H90.1824V3.67799H90.6864L87.3684 11H86.2904L82.9724 3.67799H83.4904V11H81.8524Z" fill="#343434"/>
<path d="M94.608 11L99.074 1.12999H100.586L105.108 11H103.274L102.07 8.22799L102.798 8.71799H96.876L97.632 8.22799L96.428 11H94.608ZM99.816 3.06199L97.842 7.73799L97.478 7.30399H102.182L101.888 7.73799L99.872 3.06199H99.816Z" fill="#343434"/>
<path d="M113.402 11V1.12999H115.18V5.32999H116.86L116.496 5.56799L119.408 1.12999H121.396L118.148 5.90399L117.462 5.39999C118.096 5.49332 118.624 5.71266 119.044 6.05799C119.473 6.39399 119.846 6.86999 120.164 7.48599L121.914 11H119.968L118.61 8.15799C118.376 7.66332 118.096 7.31332 117.77 7.10799C117.452 6.90266 117.046 6.79999 116.552 6.79999H115.18V11H113.402Z" fill="#343434"/>
<path d="M126.26 11L127.996 7.70999L128.024 8.26999L123.46 1.12999H125.392L128.906 6.70199H128.556L131.482 1.12999H133.344L128.136 11H126.26Z" fill="#343434"/>
<path d="M135.93 11V1.12999H140.312C141.394 1.12999 142.22 1.39132 142.79 1.91399C143.359 2.43666 143.644 3.15532 143.644 4.06999C143.644 4.97532 143.359 5.69399 142.79 6.22599C142.22 6.75799 141.394 7.02399 140.312 7.02399H137.736V11H135.93ZM137.736 5.59599H140.102C140.699 5.59599 141.147 5.46532 141.446 5.20399C141.744 4.93332 141.894 4.55532 141.894 4.06999C141.894 3.58466 141.744 3.21132 141.446 2.94999C141.147 2.67932 140.699 2.54399 140.102 2.54399H137.736V5.59599Z" fill="#343434"/>
<path d="M151.389 11.14C150.363 11.14 149.481 10.9347 148.743 10.524C148.015 10.104 147.455 9.51599 147.063 8.75999C146.671 7.99466 146.475 7.09399 146.475 6.05799C146.475 5.02199 146.671 4.12599 147.063 3.36999C147.455 2.61399 148.015 2.03066 148.743 1.61999C149.481 1.19999 150.363 0.98999 151.389 0.98999C152.08 0.98999 152.701 1.08799 153.251 1.28399C153.811 1.47999 154.292 1.76932 154.693 2.15199L154.105 3.57999C153.667 3.22532 153.242 2.97332 152.831 2.82399C152.43 2.66532 151.968 2.58599 151.445 2.58599C150.447 2.58599 149.681 2.88932 149.149 3.49599C148.627 4.09332 148.365 4.94732 148.365 6.05799C148.365 7.16866 148.627 8.02732 149.149 8.63399C149.681 9.24066 150.447 9.54399 151.445 9.54399C151.968 9.54399 152.43 9.46932 152.831 9.31999C153.242 9.16132 153.667 8.89999 154.105 8.53599L154.693 9.96399C154.292 10.3373 153.811 10.6267 153.251 10.832C152.701 11.0373 152.08 11.14 151.389 11.14Z" fill="#343434"/>
<path d="M156.764 11L161.23 1.12999H162.742L167.264 11H165.43L164.226 8.22799L164.954 8.71799H159.032L159.788 8.22799L158.584 11H156.764ZM161.972 3.06199L159.998 7.73799L159.634 7.30399H164.338L164.044 7.73799L162.028 3.06199H161.972Z" fill="#343434"/>
</svg>
