<svg width="304" height="128" viewBox="0 0 304 128" fill="none" xmlns="http://www.w3.org/2000/svg">
<rect width="304" height="128" rx="16" fill="url(#paint0_linear_112_121)"/>
<path d="M35.6 45L37.796 40.86L37.832 41.472L31.928 32.31H33.746L38.66 39.978H38.3L42.35 32.31H44.096L37.364 45H35.6ZM47.7672 45.162C46.9752 45.162 46.2372 45.06 45.5532 44.856C44.8692 44.652 44.3052 44.364 43.8612 43.992L44.4012 42.858C44.8452 43.218 45.3492 43.488 45.9132 43.668C46.4772 43.848 47.0892 43.938 47.7492 43.938C48.6132 43.938 49.2372 43.812 49.6212 43.56C50.0172 43.296 50.2152 42.918 50.2152 42.426C50.2152 41.958 50.0532 41.604 49.7292 41.364C49.4052 41.124 48.9312 41.004 48.3072 41.004H46.1112V39.816H48.1092C48.6732 39.816 49.1112 39.696 49.4232 39.456C49.7472 39.204 49.9092 38.862 49.9092 38.43C49.9092 37.986 49.7292 37.638 49.3692 37.386C49.0092 37.122 48.4572 36.99 47.7132 36.99C47.0892 36.99 46.5192 37.074 46.0032 37.242C45.4872 37.398 44.9952 37.638 44.5272 37.962L44.0052 36.9C44.4972 36.516 45.0732 36.234 45.7332 36.054C46.3932 35.874 47.1132 35.784 47.8932 35.784C49.0332 35.784 49.9032 36.006 50.5032 36.45C51.1152 36.882 51.4212 37.5 51.4212 38.304C51.4212 38.868 51.2292 39.354 50.8452 39.762C50.4612 40.158 49.9512 40.398 49.3152 40.482V40.248C50.0352 40.284 50.6172 40.506 51.0612 40.914C51.5052 41.31 51.7272 41.838 51.7272 42.498C51.7272 43.302 51.3912 43.95 50.7192 44.442C50.0472 44.922 49.0632 45.162 47.7672 45.162ZM53.9177 45V35.946H55.5377V39.69H60.3257V35.946H61.9457V45H60.3257V40.986H55.5377V45H53.9177ZM68.2558 45.162C67.4638 45.162 66.7678 44.976 66.1678 44.604C65.5678 44.232 65.0998 43.692 64.7638 42.984C64.4278 42.276 64.2598 41.436 64.2598 40.464C64.2598 39.492 64.4278 38.658 64.7638 37.962C65.0998 37.254 65.5678 36.714 66.1678 36.342C66.7678 35.97 67.4638 35.784 68.2558 35.784C69.0598 35.784 69.7558 35.988 70.3438 36.396C70.9438 36.792 71.3398 37.338 71.5318 38.034H71.3158L71.5138 35.946H73.0978C73.0618 36.306 73.0258 36.666 72.9898 37.026C72.9658 37.386 72.9538 37.74 72.9538 38.088V45H71.3158V42.93H71.5138C71.3218 43.614 70.9258 44.16 70.3258 44.568C69.7378 44.964 69.0478 45.162 68.2558 45.162ZM68.6338 43.866C69.4498 43.866 70.1038 43.578 70.5958 43.002C71.0878 42.426 71.3338 41.58 71.3338 40.464C71.3338 39.348 71.0878 38.508 70.5958 37.944C70.1038 37.38 69.4498 37.098 68.6338 37.098C67.8178 37.098 67.1578 37.38 66.6538 37.944C66.1618 38.508 65.9158 39.348 65.9158 40.464C65.9158 41.58 66.1618 42.426 66.6538 43.002C67.1458 43.578 67.8058 43.866 68.6338 43.866ZM80.0136 45.162C78.5736 45.162 77.4336 44.748 76.5936 43.92C75.7656 43.092 75.3516 41.952 75.3516 40.5C75.3516 39.54 75.5316 38.712 75.8916 38.016C76.2636 37.308 76.7736 36.762 77.4216 36.378C78.0696 35.982 78.8256 35.784 79.6896 35.784C80.5176 35.784 81.2196 35.964 81.7956 36.324C82.3716 36.672 82.8096 37.17 83.1096 37.818C83.4096 38.466 83.5596 39.234 83.5596 40.122V40.662H76.6296V39.69H82.4436L82.1376 39.924C82.1376 38.988 81.9276 38.262 81.5076 37.746C81.0996 37.23 80.4936 36.972 79.6896 36.972C78.8136 36.972 78.1356 37.278 77.6556 37.89C77.1756 38.49 76.9356 39.312 76.9356 40.356V40.518C76.9356 41.622 77.2056 42.456 77.7456 43.02C78.2976 43.584 79.0596 43.866 80.0316 43.866C80.5716 43.866 81.0756 43.788 81.5436 43.632C82.0116 43.476 82.4616 43.218 82.8936 42.858L83.4336 43.992C83.0256 44.364 82.5156 44.652 81.9036 44.856C81.3036 45.06 80.6736 45.162 80.0136 45.162ZM85.8395 45V35.946H87.3875V43.722H91.0775V35.946H92.6255V43.722H96.2975V35.946H97.8635V45H85.8395ZM100.675 45V35.946H102.295V39.15H104.959C106.135 39.15 107.017 39.402 107.605 39.906C108.205 40.398 108.505 41.112 108.505 42.048C108.505 42.648 108.367 43.17 108.091 43.614C107.815 44.058 107.413 44.4 106.885 44.64C106.357 44.88 105.715 45 104.959 45H100.675ZM102.295 43.866H104.779C105.487 43.866 106.027 43.722 106.399 43.434C106.771 43.134 106.957 42.678 106.957 42.066C106.957 41.454 106.771 41.004 106.399 40.716C106.039 40.428 105.499 40.284 104.779 40.284H102.295V43.866ZM111.129 47.142L110.391 46.566C110.727 46.218 110.955 45.888 111.075 45.576C111.195 45.276 111.255 44.964 111.255 44.64L111.615 45H110.301V43.002H112.299V44.388C112.299 44.904 112.215 45.378 112.047 45.81C111.879 46.254 111.573 46.698 111.129 47.142ZM119.554 45V35.946H125.98V37.26H121.192V45H119.554ZM126.722 47.34V43.722H127.712C128.12 43.11 128.414 42.39 128.594 41.562C128.786 40.734 128.882 39.75 128.882 38.61V35.946H135.38V43.722H136.82V47.34H135.416V45H128.144V47.34H126.722ZM129.26 43.74H133.85V37.206H130.322V38.898C130.322 39.81 130.232 40.698 130.052 41.562C129.872 42.414 129.608 43.14 129.26 43.74ZM142.891 45.162C141.451 45.162 140.311 44.748 139.471 43.92C138.643 43.092 138.229 41.952 138.229 40.5C138.229 39.54 138.409 38.712 138.769 38.016C139.141 37.308 139.651 36.762 140.299 36.378C140.947 35.982 141.703 35.784 142.567 35.784C143.395 35.784 144.097 35.964 144.673 36.324C145.249 36.672 145.687 37.17 145.987 37.818C146.287 38.466 146.437 39.234 146.437 40.122V40.662H139.507V39.69H145.321L145.015 39.924C145.015 38.988 144.805 38.262 144.385 37.746C143.977 37.23 143.371 36.972 142.567 36.972C141.691 36.972 141.013 37.278 140.533 37.89C140.053 38.49 139.813 39.312 139.813 40.356V40.518C139.813 41.622 140.083 42.456 140.623 43.02C141.175 43.584 141.937 43.866 142.909 43.866C143.449 43.866 143.953 43.788 144.421 43.632C144.889 43.476 145.339 43.218 145.771 42.858L146.311 43.992C145.903 44.364 145.393 44.652 144.781 44.856C144.181 45.06 143.551 45.162 142.891 45.162ZM153.463 45V35.946H154.957V43.452H154.471L160.087 35.946H161.455V45H159.961V37.476H160.465L154.831 45H153.463ZM168.876 45V35.91H171.108V39.474H172.476L175.14 35.91H177.552L174.204 40.446L173.718 39.744C174.054 39.78 174.348 39.87 174.6 40.014C174.864 40.158 175.11 40.362 175.338 40.626C175.578 40.878 175.812 41.202 176.04 41.598L177.948 45H175.554L174.006 42.264C173.85 41.988 173.694 41.772 173.538 41.616C173.382 41.46 173.208 41.352 173.016 41.292C172.824 41.232 172.59 41.202 172.314 41.202H171.108V45H168.876ZM182.723 45.18C181.931 45.18 181.235 44.994 180.635 44.622C180.035 44.238 179.567 43.692 179.231 42.984C178.895 42.276 178.727 41.43 178.727 40.446C178.727 39.462 178.895 38.622 179.231 37.926C179.567 37.218 180.035 36.678 180.635 36.306C181.235 35.922 181.931 35.73 182.723 35.73C183.491 35.73 184.163 35.922 184.739 36.306C185.327 36.678 185.717 37.182 185.909 37.818H185.711L185.909 35.91H188.069C188.033 36.282 187.997 36.66 187.961 37.044C187.937 37.428 187.925 37.806 187.925 38.178V45H185.693L185.675 43.128H185.891C185.699 43.752 185.309 44.25 184.721 44.622C184.133 44.994 183.467 45.18 182.723 45.18ZM183.353 43.452C184.061 43.452 184.631 43.206 185.063 42.714C185.495 42.21 185.711 41.454 185.711 40.446C185.711 39.438 185.495 38.688 185.063 38.196C184.631 37.704 184.061 37.458 183.353 37.458C182.645 37.458 182.075 37.704 181.643 38.196C181.211 38.688 180.995 39.438 180.995 40.446C180.995 41.454 181.205 42.21 181.625 42.714C182.057 43.206 182.633 43.452 183.353 43.452ZM190.549 45V35.91H192.781V39.474H194.149L196.813 35.91H199.225L195.877 40.446L195.391 39.744C195.727 39.78 196.021 39.87 196.273 40.014C196.537 40.158 196.783 40.362 197.011 40.626C197.251 40.878 197.485 41.202 197.713 41.598L199.621 45H197.227L195.679 42.264C195.523 41.988 195.367 41.772 195.211 41.616C195.055 41.46 194.881 41.352 194.689 41.292C194.497 41.232 194.263 41.202 193.987 41.202H192.781V45H190.549ZM210.021 45.18C208.593 45.18 207.453 44.748 206.601 43.884C205.761 43.02 205.341 41.754 205.341 40.086V38.538C205.341 36.822 205.731 35.442 206.511 34.398C207.291 33.354 208.467 32.664 210.039 32.328L213.369 31.572L213.981 33.336L210.237 34.164C209.613 34.296 209.097 34.548 208.689 34.92C208.281 35.28 207.975 35.712 207.771 36.216C207.567 36.72 207.465 37.26 207.465 37.836V38.79H207.159C207.291 38.25 207.513 37.782 207.825 37.386C208.137 36.978 208.533 36.66 209.013 36.432C209.493 36.204 210.039 36.09 210.651 36.09C211.419 36.09 212.091 36.27 212.667 36.63C213.255 36.978 213.717 37.488 214.053 38.16C214.389 38.82 214.557 39.612 214.557 40.536C214.557 41.484 214.365 42.306 213.981 43.002C213.609 43.698 213.081 44.238 212.397 44.622C211.725 44.994 210.933 45.18 210.021 45.18ZM209.949 43.47C210.693 43.47 211.269 43.236 211.677 42.768C212.097 42.288 212.307 41.574 212.307 40.626C212.307 39.702 212.097 39 211.677 38.52C211.257 38.028 210.681 37.782 209.949 37.782C209.217 37.782 208.641 38.022 208.221 38.502C207.801 38.982 207.591 39.666 207.591 40.554C207.591 41.526 207.801 42.258 208.221 42.75C208.641 43.23 209.217 43.47 209.949 43.47ZM216.688 45V35.91H218.92V38.952H221.314C222.526 38.952 223.438 39.21 224.05 39.726C224.662 40.23 224.968 40.962 224.968 41.922C224.968 42.546 224.824 43.092 224.536 43.56C224.248 44.016 223.828 44.37 223.276 44.622C222.736 44.874 222.082 45 221.314 45H216.688ZM218.92 43.524H221.008C221.62 43.524 222.088 43.398 222.412 43.146C222.736 42.882 222.898 42.486 222.898 41.958C222.898 41.43 222.736 41.046 222.412 40.806C222.1 40.554 221.632 40.428 221.008 40.428H218.92V43.524ZM226.102 45V35.91H228.334V45H226.102ZM235.139 45.18C234.203 45.18 233.381 44.988 232.673 44.604C231.977 44.22 231.437 43.674 231.053 42.966C230.669 42.246 230.477 41.394 230.477 40.41C230.477 39.426 230.669 38.586 231.053 37.89C231.449 37.194 231.995 36.66 232.691 36.288C233.387 35.916 234.203 35.73 235.139 35.73C235.739 35.73 236.321 35.826 236.885 36.018C237.461 36.198 237.929 36.462 238.289 36.81L237.605 38.376C237.281 38.076 236.915 37.854 236.507 37.71C236.111 37.554 235.721 37.476 235.337 37.476C234.533 37.476 233.903 37.728 233.447 38.232C233.003 38.736 232.781 39.468 232.781 40.428C232.781 41.388 233.003 42.126 233.447 42.642C233.903 43.158 234.533 43.416 235.337 43.416C235.709 43.416 236.093 43.344 236.489 43.2C236.897 43.056 237.269 42.834 237.605 42.534L238.289 44.082C237.917 44.43 237.443 44.7 236.867 44.892C236.303 45.084 235.727 45.18 235.139 45.18ZM242.17 45V37.674H239.056V35.91H247.534V37.674H244.402V45H242.17ZM248.998 48.888V38.178C248.998 37.806 248.986 37.428 248.962 37.044C248.938 36.66 248.902 36.282 248.854 35.91H251.032L251.23 37.818H251.032C251.212 37.182 251.59 36.678 252.166 36.306C252.754 35.922 253.432 35.73 254.2 35.73C255.004 35.73 255.706 35.922 256.306 36.306C256.906 36.678 257.374 37.218 257.71 37.926C258.046 38.622 258.214 39.462 258.214 40.446C258.214 41.43 258.046 42.276 257.71 42.984C257.374 43.692 256.906 44.238 256.306 44.622C255.706 44.994 255.004 45.18 254.2 45.18C253.444 45.18 252.778 44.994 252.202 44.622C251.626 44.25 251.242 43.752 251.05 43.128H251.248V48.888H248.998ZM253.57 43.452C254.29 43.452 254.866 43.206 255.298 42.714C255.73 42.21 255.946 41.454 255.946 40.446C255.946 39.438 255.73 38.688 255.298 38.196C254.866 37.704 254.29 37.458 253.57 37.458C252.862 37.458 252.292 37.704 251.86 38.196C251.428 38.688 251.212 39.438 251.212 40.446C251.212 41.454 251.428 42.21 251.86 42.714C252.292 43.206 252.862 43.452 253.57 43.452ZM264.511 45.18C263.575 45.18 262.765 44.988 262.081 44.604C261.397 44.22 260.863 43.674 260.479 42.966C260.107 42.258 259.921 41.418 259.921 40.446C259.921 39.474 260.107 38.64 260.479 37.944C260.863 37.236 261.397 36.69 262.081 36.306C262.765 35.922 263.575 35.73 264.511 35.73C265.447 35.73 266.257 35.922 266.941 36.306C267.637 36.69 268.171 37.236 268.543 37.944C268.927 38.64 269.119 39.474 269.119 40.446C269.119 41.418 268.927 42.258 268.543 42.966C268.171 43.674 267.637 44.22 266.941 44.604C266.257 44.988 265.447 45.18 264.511 45.18ZM264.511 43.452C265.219 43.452 265.783 43.206 266.203 42.714C266.623 42.21 266.833 41.454 266.833 40.446C266.833 39.438 266.623 38.688 266.203 38.196C265.783 37.704 265.219 37.458 264.511 37.458C263.803 37.458 263.239 37.704 262.819 38.196C262.399 38.688 262.189 39.438 262.189 40.446C262.189 41.454 262.399 42.21 262.819 42.714C263.239 43.206 263.803 43.452 264.511 43.452ZM33.278 65V55.91H35.51V59.474H39.614V55.91H41.846V65H39.614V61.202H35.51V65H33.278ZM47.987 65.18C47.195 65.18 46.499 64.994 45.899 64.622C45.299 64.238 44.831 63.692 44.495 62.984C44.159 62.276 43.991 61.43 43.991 60.446C43.991 59.462 44.159 58.622 44.495 57.926C44.831 57.218 45.299 56.678 45.899 56.306C46.499 55.922 47.195 55.73 47.987 55.73C48.755 55.73 49.427 55.922 50.003 56.306C50.591 56.678 50.981 57.182 51.173 57.818H50.975L51.173 55.91H53.333C53.297 56.282 53.261 56.66 53.225 57.044C53.201 57.428 53.189 57.806 53.189 58.178V65H50.957L50.939 63.128H51.155C50.963 63.752 50.573 64.25 49.985 64.622C49.397 64.994 48.731 65.18 47.987 65.18ZM48.617 63.452C49.325 63.452 49.895 63.206 50.327 62.714C50.759 62.21 50.975 61.454 50.975 60.446C50.975 59.438 50.759 58.688 50.327 58.196C49.895 57.704 49.325 57.458 48.617 57.458C47.909 57.458 47.339 57.704 46.907 58.196C46.475 58.688 46.259 59.438 46.259 60.446C46.259 61.454 46.469 62.21 46.889 62.714C47.321 63.206 47.897 63.452 48.617 63.452ZM55.8132 65V55.91H57.8472V62.786H57.3072L62.4732 55.91H64.3272V65H62.2932V58.106H62.8512L57.6672 65H55.8132ZM60.0612 55.082C59.4612 55.082 58.9332 54.986 58.4772 54.794C58.0212 54.59 57.6432 54.308 57.3432 53.948C57.0432 53.576 56.8272 53.138 56.6952 52.634L57.8472 52.238C58.0512 52.79 58.3332 53.198 58.6932 53.462C59.0532 53.714 59.5152 53.84 60.0792 53.84C60.6432 53.84 61.1052 53.714 61.4652 53.462C61.8252 53.21 62.1192 52.808 62.3472 52.256L63.4452 52.634C63.1932 53.438 62.7732 54.05 62.1852 54.47C61.6092 54.878 60.9012 55.082 60.0612 55.082ZM68.8494 65V57.674H65.7354V55.91H74.2134V57.674H71.0814V65H68.8494ZM75.6061 65V55.91H77.6401V62.786H77.1001L82.2661 55.91H84.1201V65H82.0861V58.106H82.6441L77.4601 65H75.6061ZM91.6918 68.888V58.178C91.6918 57.806 91.6798 57.428 91.6558 57.044C91.6318 56.66 91.5958 56.282 91.5478 55.91H93.7258L93.9238 57.818H93.7258C93.9058 57.182 94.2838 56.678 94.8598 56.306C95.4478 55.922 96.1258 55.73 96.8938 55.73C97.6978 55.73 98.3998 55.922 98.9998 56.306C99.5998 56.678 100.068 57.218 100.404 57.926C100.74 58.622 100.908 59.462 100.908 60.446C100.908 61.43 100.74 62.276 100.404 62.984C100.068 63.692 99.5998 64.238 98.9998 64.622C98.3998 64.994 97.6978 65.18 96.8938 65.18C96.1378 65.18 95.4718 64.994 94.8958 64.622C94.3198 64.25 93.9358 63.752 93.7438 63.128H93.9418V68.888H91.6918ZM96.2638 63.452C96.9838 63.452 97.5598 63.206 97.9918 62.714C98.4238 62.21 98.6398 61.454 98.6398 60.446C98.6398 59.438 98.4238 58.688 97.9918 58.196C97.5598 57.704 96.9838 57.458 96.2638 57.458C95.5558 57.458 94.9858 57.704 94.5538 58.196C94.1218 58.688 93.9058 59.438 93.9058 60.446C93.9058 61.454 94.1218 62.21 94.5538 62.714C94.9858 63.206 95.5558 63.452 96.2638 63.452ZM106.61 65.18C105.818 65.18 105.122 64.994 104.522 64.622C103.922 64.238 103.454 63.692 103.118 62.984C102.782 62.276 102.614 61.43 102.614 60.446C102.614 59.462 102.782 58.622 103.118 57.926C103.454 57.218 103.922 56.678 104.522 56.306C105.122 55.922 105.818 55.73 106.61 55.73C107.378 55.73 108.05 55.922 108.626 56.306C109.214 56.678 109.604 57.182 109.796 57.818H109.598L109.796 55.91H111.956C111.92 56.282 111.884 56.66 111.848 57.044C111.824 57.428 111.812 57.806 111.812 58.178V65H109.58L109.562 63.128H109.778C109.586 63.752 109.196 64.25 108.608 64.622C108.02 64.994 107.354 65.18 106.61 65.18ZM107.24 63.452C107.948 63.452 108.518 63.206 108.95 62.714C109.382 62.21 109.598 61.454 109.598 60.446C109.598 59.438 109.382 58.688 108.95 58.196C108.518 57.704 107.948 57.458 107.24 57.458C106.532 57.458 105.962 57.704 105.53 58.196C105.098 58.688 104.882 59.438 104.882 60.446C104.882 61.454 105.092 62.21 105.512 62.714C105.944 63.206 106.52 63.452 107.24 63.452ZM118.702 65.18C117.274 65.18 116.134 64.748 115.282 63.884C114.442 63.02 114.022 61.754 114.022 60.086V58.538C114.022 56.822 114.412 55.442 115.192 54.398C115.972 53.354 117.148 52.664 118.72 52.328L122.05 51.572L122.662 53.336L118.918 54.164C118.294 54.296 117.778 54.548 117.37 54.92C116.962 55.28 116.656 55.712 116.452 56.216C116.248 56.72 116.146 57.26 116.146 57.836V58.79H115.84C115.972 58.25 116.194 57.782 116.506 57.386C116.818 56.978 117.214 56.66 117.694 56.432C118.174 56.204 118.72 56.09 119.332 56.09C120.1 56.09 120.772 56.27 121.348 56.63C121.936 56.978 122.398 57.488 122.734 58.16C123.07 58.82 123.238 59.612 123.238 60.536C123.238 61.484 123.046 62.306 122.662 63.002C122.29 63.698 121.762 64.238 121.078 64.622C120.406 64.994 119.614 65.18 118.702 65.18ZM118.63 63.47C119.374 63.47 119.95 63.236 120.358 62.768C120.778 62.288 120.988 61.574 120.988 60.626C120.988 59.702 120.778 59 120.358 58.52C119.938 58.028 119.362 57.782 118.63 57.782C117.898 57.782 117.322 58.022 116.902 58.502C116.482 58.982 116.272 59.666 116.272 60.554C116.272 61.526 116.482 62.258 116.902 62.75C117.322 63.23 117.898 63.47 118.63 63.47ZM129.546 65.18C128.61 65.18 127.8 64.988 127.116 64.604C126.432 64.22 125.898 63.674 125.514 62.966C125.142 62.258 124.956 61.418 124.956 60.446C124.956 59.474 125.142 58.64 125.514 57.944C125.898 57.236 126.432 56.69 127.116 56.306C127.8 55.922 128.61 55.73 129.546 55.73C130.482 55.73 131.292 55.922 131.976 56.306C132.672 56.69 133.206 57.236 133.578 57.944C133.962 58.64 134.154 59.474 134.154 60.446C134.154 61.418 133.962 62.258 133.578 62.966C133.206 63.674 132.672 64.22 131.976 64.604C131.292 64.988 130.482 65.18 129.546 65.18ZM129.546 63.452C130.254 63.452 130.818 63.206 131.238 62.714C131.658 62.21 131.868 61.454 131.868 60.446C131.868 59.438 131.658 58.688 131.238 58.196C130.818 57.704 130.254 57.458 129.546 57.458C128.838 57.458 128.274 57.704 127.854 58.196C127.434 58.688 127.224 59.438 127.224 60.446C127.224 61.454 127.434 62.21 127.854 62.714C128.274 63.206 128.838 63.452 129.546 63.452ZM138.248 65V57.674H135.134V55.91H143.612V57.674H140.48V65H138.248ZM144.984 69.086L144.462 67.304C145.026 67.184 145.5 67.046 145.884 66.89C146.268 66.734 146.586 66.53 146.838 66.278C147.09 66.026 147.3 65.702 147.468 65.306L147.918 64.244L147.864 65.126L143.904 55.91H146.298L149.142 63.002H148.62L151.482 55.91H153.75L149.61 65.504C149.334 66.152 149.034 66.686 148.71 67.106C148.386 67.538 148.038 67.88 147.666 68.132C147.294 68.396 146.886 68.6 146.442 68.744C145.998 68.888 145.512 69.002 144.984 69.086ZM160.051 65V55.91H164.893C166.033 55.91 166.867 56.12 167.395 56.54C167.923 56.948 168.187 57.53 168.187 58.286C168.187 58.862 167.995 59.342 167.611 59.726C167.227 60.11 166.717 60.35 166.081 60.446V60.194C166.861 60.242 167.461 60.47 167.881 60.878C168.301 61.286 168.511 61.814 168.511 62.462C168.511 63.242 168.211 63.86 167.611 64.316C167.011 64.772 166.159 65 165.055 65H160.051ZM162.139 63.614H164.821C165.349 63.614 165.751 63.506 166.027 63.29C166.315 63.074 166.459 62.756 166.459 62.336C166.459 61.916 166.315 61.598 166.027 61.382C165.751 61.166 165.349 61.058 164.821 61.058H162.139V63.614ZM162.139 59.672H164.623C165.103 59.672 165.475 59.57 165.739 59.366C166.003 59.15 166.135 58.85 166.135 58.466C166.135 58.082 166.003 57.788 165.739 57.584C165.475 57.38 165.103 57.278 164.623 57.278H162.139V59.672ZM179.591 65.18C178.655 65.18 177.845 64.988 177.161 64.604C176.477 64.22 175.943 63.674 175.559 62.966C175.187 62.258 175.001 61.418 175.001 60.446C175.001 59.474 175.187 58.64 175.559 57.944C175.943 57.236 176.477 56.69 177.161 56.306C177.845 55.922 178.655 55.73 179.591 55.73C180.527 55.73 181.337 55.922 182.021 56.306C182.717 56.69 183.251 57.236 183.623 57.944C184.007 58.64 184.199 59.474 184.199 60.446C184.199 61.418 184.007 62.258 183.623 62.966C183.251 63.674 182.717 64.22 182.021 64.604C181.337 64.988 180.527 65.18 179.591 65.18ZM179.591 63.452C180.299 63.452 180.863 63.206 181.283 62.714C181.703 62.21 181.913 61.454 181.913 60.446C181.913 59.438 181.703 58.688 181.283 58.196C180.863 57.704 180.299 57.458 179.591 57.458C178.883 57.458 178.319 57.704 177.899 58.196C177.479 58.688 177.269 59.438 177.269 60.446C177.269 61.454 177.479 62.21 177.899 62.714C178.319 63.206 178.883 63.452 179.591 63.452ZM186.331 65V55.91H188.563V59.474H192.667V55.91H194.899V65H192.667V61.202H188.563V65H186.331ZM197.224 65.252L196.522 63.488C196.918 63.344 197.248 63.158 197.512 62.93C197.788 62.69 198.004 62.39 198.16 62.03C198.328 61.658 198.448 61.202 198.52 60.662C198.592 60.11 198.628 59.456 198.628 58.7V55.91H205.864V65H203.632V57.638H200.68V58.772C200.68 60.08 200.56 61.178 200.32 62.066C200.08 62.942 199.708 63.638 199.204 64.154C198.7 64.67 198.04 65.036 197.224 65.252ZM212.008 65.18C211.216 65.18 210.52 64.994 209.92 64.622C209.32 64.238 208.852 63.692 208.516 62.984C208.18 62.276 208.012 61.43 208.012 60.446C208.012 59.462 208.18 58.622 208.516 57.926C208.852 57.218 209.32 56.678 209.92 56.306C210.52 55.922 211.216 55.73 212.008 55.73C212.776 55.73 213.448 55.922 214.024 56.306C214.612 56.678 215.002 57.182 215.194 57.818H214.996L215.194 55.91H217.354C217.318 56.282 217.282 56.66 217.246 57.044C217.222 57.428 217.21 57.806 217.21 58.178V65H214.978L214.96 63.128H215.176C214.984 63.752 214.594 64.25 214.006 64.622C213.418 64.994 212.752 65.18 212.008 65.18ZM212.638 63.452C213.346 63.452 213.916 63.206 214.348 62.714C214.78 62.21 214.996 61.454 214.996 60.446C214.996 59.438 214.78 58.688 214.348 58.196C213.916 57.704 213.346 57.458 212.638 57.458C211.93 57.458 211.36 57.704 210.928 58.196C210.496 58.688 210.28 59.438 210.28 60.446C210.28 61.454 210.49 62.21 210.91 62.714C211.342 63.206 211.918 63.452 212.638 63.452ZM219.835 65V55.91H221.869V62.786H221.329L226.495 55.91H228.349V65H226.315V58.106H226.873L221.689 65H219.835ZM224.083 55.082C223.483 55.082 222.955 54.986 222.499 54.794C222.043 54.59 221.665 54.308 221.365 53.948C221.065 53.576 220.849 53.138 220.717 52.634L221.869 52.238C222.073 52.79 222.355 53.198 222.715 53.462C223.075 53.714 223.537 53.84 224.101 53.84C224.665 53.84 225.127 53.714 225.487 53.462C225.847 53.21 226.141 52.808 226.369 52.256L227.467 52.634C227.215 53.438 226.795 54.05 226.207 54.47C225.631 54.878 224.923 55.082 224.083 55.082ZM230.909 65V55.91H233.141V59.474H237.245V55.91H239.477V65H237.245V61.202H233.141V65H230.909ZM246.5 65.18C244.976 65.18 243.782 64.76 242.918 63.92C242.054 63.08 241.622 61.928 241.622 60.464C241.622 59.516 241.808 58.688 242.18 57.98C242.552 57.272 243.068 56.72 243.728 56.324C244.4 55.928 245.18 55.73 246.068 55.73C246.944 55.73 247.676 55.916 248.264 56.288C248.852 56.66 249.296 57.182 249.596 57.854C249.908 58.526 250.064 59.312 250.064 60.212V60.806H243.44V59.618H248.462L248.156 59.87C248.156 59.03 247.976 58.388 247.616 57.944C247.268 57.5 246.758 57.278 246.086 57.278C245.342 57.278 244.766 57.542 244.358 58.07C243.962 58.598 243.764 59.336 243.764 60.284V60.518C243.764 61.502 244.004 62.24 244.484 62.732C244.976 63.212 245.666 63.452 246.554 63.452C247.07 63.452 247.55 63.386 247.994 63.254C248.45 63.11 248.882 62.882 249.29 62.57L249.956 64.082C249.524 64.43 249.008 64.7 248.408 64.892C247.808 65.084 247.172 65.18 246.5 65.18ZM252.791 67.142L252.053 66.566C252.389 66.218 252.617 65.888 252.737 65.576C252.857 65.276 252.917 64.964 252.917 64.64L253.277 65H251.963V63.002H253.961V64.388C253.961 64.904 253.877 65.378 253.709 65.81C253.541 66.254 253.235 66.698 252.791 67.142ZM32.468 87.34V83.722H33.458C33.866 83.11 34.16 82.39 34.34 81.562C34.532 80.734 34.628 79.75 34.628 78.61V75.946H41.126V83.722H42.566V87.34H41.162V85H33.89V87.34H32.468ZM35.006 83.74H39.596V77.206H36.068V78.898C36.068 79.81 35.978 80.698 35.798 81.562C35.618 82.414 35.354 83.14 35.006 83.74ZM47.9706 85.162C47.1786 85.162 46.4826 84.976 45.8826 84.604C45.2826 84.232 44.8146 83.692 44.4786 82.984C44.1426 82.276 43.9746 81.436 43.9746 80.464C43.9746 79.492 44.1426 78.658 44.4786 77.962C44.8146 77.254 45.2826 76.714 45.8826 76.342C46.4826 75.97 47.1786 75.784 47.9706 75.784C48.7746 75.784 49.4706 75.988 50.0586 76.396C50.6586 76.792 51.0546 77.338 51.2466 78.034H51.0306L51.2286 75.946H52.8126C52.7766 76.306 52.7406 76.666 52.7046 77.026C52.6806 77.386 52.6686 77.74 52.6686 78.088V85H51.0306V82.93H51.2286C51.0366 83.614 50.6406 84.16 50.0406 84.568C49.4526 84.964 48.7626 85.162 47.9706 85.162ZM48.3486 83.866C49.1646 83.866 49.8186 83.578 50.3106 83.002C50.8026 82.426 51.0486 81.58 51.0486 80.464C51.0486 79.348 50.8026 78.508 50.3106 77.944C49.8186 77.38 49.1646 77.098 48.3486 77.098C47.5326 77.098 46.8726 77.38 46.3686 77.944C45.8766 78.508 45.6306 79.348 45.6306 80.464C45.6306 81.58 45.8766 82.426 46.3686 83.002C46.8606 83.578 47.5206 83.866 48.3486 83.866ZM54.1484 85L56.0204 81.778C56.2964 81.334 56.5484 80.98 56.7764 80.716C57.0044 80.452 57.2444 80.254 57.4964 80.122C57.7604 79.978 58.0664 79.888 58.4144 79.852L58.0184 80.356L54.5804 75.946H56.3804L59.3144 79.69H60.7004V75.946H62.3204V79.69H63.6884L66.6044 75.946H68.4224L64.9844 80.356L64.5704 79.852C64.9184 79.888 65.2184 79.978 65.4704 80.122C65.7344 80.254 65.9864 80.452 66.2264 80.716C66.4664 80.98 66.7184 81.334 66.9824 81.778L68.8544 85H67.1084L65.4704 82.21C65.2784 81.886 65.0924 81.634 64.9124 81.454C64.7324 81.274 64.5284 81.148 64.3004 81.076C64.0844 81.004 63.8084 80.968 63.4724 80.968H62.3204V85H60.7004V80.968H59.5304C59.1944 80.968 58.9124 81.004 58.6844 81.076C58.4684 81.148 58.2704 81.274 58.0904 81.454C57.9224 81.634 57.7364 81.886 57.5324 82.21L55.9124 85H54.1484ZM74.4413 85.162C73.0013 85.162 71.8613 84.748 71.0213 83.92C70.1933 83.092 69.7793 81.952 69.7793 80.5C69.7793 79.54 69.9593 78.712 70.3193 78.016C70.6913 77.308 71.2013 76.762 71.8493 76.378C72.4973 75.982 73.2533 75.784 74.1173 75.784C74.9453 75.784 75.6473 75.964 76.2233 76.324C76.7993 76.672 77.2373 77.17 77.5373 77.818C77.8373 78.466 77.9873 79.234 77.9873 80.122V80.662H71.0573V79.69H76.8713L76.5653 79.924C76.5653 78.988 76.3553 78.262 75.9353 77.746C75.5273 77.23 74.9213 76.972 74.1173 76.972C73.2413 76.972 72.5633 77.278 72.0833 77.89C71.6033 78.49 71.3633 79.312 71.3633 80.356V80.518C71.3633 81.622 71.6333 82.456 72.1733 83.02C72.7253 83.584 73.4873 83.866 74.4593 83.866C74.9993 83.866 75.5033 83.788 75.9713 83.632C76.4393 83.476 76.8893 83.218 77.3213 82.858L77.8613 83.992C77.4533 84.364 76.9433 84.652 76.3313 84.856C75.7313 85.06 75.1013 85.162 74.4413 85.162ZM85.0134 85V75.946H86.6334V79.69H91.4214V75.946H93.0414V85H91.4214V80.986H86.6334V85H85.0134ZM100.018 85.162C98.5775 85.162 97.4375 84.748 96.5975 83.92C95.7695 83.092 95.3555 81.952 95.3555 80.5C95.3555 79.54 95.5355 78.712 95.8955 78.016C96.2675 77.308 96.7775 76.762 97.4255 76.378C98.0735 75.982 98.8295 75.784 99.6935 75.784C100.522 75.784 101.224 75.964 101.8 76.324C102.376 76.672 102.814 77.17 103.114 77.818C103.414 78.466 103.564 79.234 103.564 80.122V80.662H96.6335V79.69H102.448L102.142 79.924C102.142 78.988 101.932 78.262 101.512 77.746C101.104 77.23 100.498 76.972 99.6935 76.972C98.8175 76.972 98.1395 77.278 97.6595 77.89C97.1795 78.49 96.9395 79.312 96.9395 80.356V80.518C96.9395 81.622 97.2095 82.456 97.7495 83.02C98.3015 83.584 99.0635 83.866 100.036 83.866C100.576 83.866 101.08 83.788 101.548 83.632C102.016 83.476 102.466 83.218 102.898 82.858L103.438 83.992C103.03 84.364 102.52 84.652 101.908 84.856C101.308 85.06 100.678 85.162 100.018 85.162ZM110.59 85V75.946H112.084V83.452H111.598L117.214 75.946H118.582V85H117.088V77.476H117.592L111.958 85H110.59ZM121.383 85V75.946H122.751L126.081 81.868L129.429 75.946H130.779V85H129.339V77.782H129.735L126.495 83.542H125.685L122.445 77.764H122.823V85H121.383ZM137.758 85.162C136.318 85.162 135.178 84.748 134.338 83.92C133.51 83.092 133.096 81.952 133.096 80.5C133.096 79.54 133.276 78.712 133.636 78.016C134.008 77.308 134.518 76.762 135.166 76.378C135.814 75.982 136.57 75.784 137.434 75.784C138.262 75.784 138.964 75.964 139.54 76.324C140.116 76.672 140.554 77.17 140.854 77.818C141.154 78.466 141.304 79.234 141.304 80.122V80.662H134.374V79.69H140.188L139.882 79.924C139.882 78.988 139.672 78.262 139.252 77.746C138.844 77.23 138.238 76.972 137.434 76.972C136.558 76.972 135.88 77.278 135.4 77.89C134.92 78.49 134.68 79.312 134.68 80.356V80.518C134.68 81.622 134.95 82.456 135.49 83.02C136.042 83.584 136.804 83.866 137.776 83.866C138.316 83.866 138.82 83.788 139.288 83.632C139.756 83.476 140.206 83.218 140.638 82.858L141.178 83.992C140.77 84.364 140.26 84.652 139.648 84.856C139.048 85.06 138.418 85.162 137.758 85.162ZM142.864 85L144.286 82.534C144.514 82.138 144.802 81.82 145.15 81.58C145.498 81.328 145.864 81.202 146.248 81.202H146.536L146.518 81.364C145.498 81.364 144.7 81.136 144.124 80.68C143.548 80.212 143.26 79.54 143.26 78.664C143.26 77.8 143.542 77.134 144.106 76.666C144.67 76.186 145.51 75.946 146.626 75.946H150.748V85H149.236V81.58H147.94C147.472 81.58 147.07 81.7 146.734 81.94C146.398 82.168 146.122 82.474 145.906 82.858L144.682 85H142.864ZM146.914 80.446H149.236V77.062H146.914C146.206 77.062 145.678 77.212 145.33 77.512C144.994 77.812 144.826 78.226 144.826 78.754C144.826 79.294 144.994 79.714 145.33 80.014C145.678 80.302 146.206 80.446 146.914 80.446ZM162.167 85.162C161.279 85.162 160.511 84.976 159.863 84.604C159.215 84.22 158.711 83.68 158.351 82.984C157.991 82.276 157.811 81.436 157.811 80.464C157.811 79.504 157.991 78.676 158.351 77.98C158.711 77.272 159.215 76.732 159.863 76.36C160.511 75.976 161.279 75.784 162.167 75.784C163.055 75.784 163.823 75.976 164.471 76.36C165.131 76.732 165.635 77.272 165.983 77.98C166.343 78.676 166.523 79.504 166.523 80.464C166.523 81.436 166.343 82.276 165.983 82.984C165.635 83.68 165.131 84.22 164.471 84.604C163.823 84.976 163.055 85.162 162.167 85.162ZM162.167 83.866C162.983 83.866 163.637 83.578 164.129 83.002C164.621 82.426 164.867 81.58 164.867 80.464C164.867 79.348 164.621 78.508 164.129 77.944C163.637 77.38 162.983 77.098 162.167 77.098C161.339 77.098 160.679 77.38 160.187 77.944C159.707 78.508 159.467 79.348 159.467 80.464C159.467 81.58 159.707 82.426 160.187 83.002C160.679 83.578 161.339 83.866 162.167 83.866ZM168.861 85V75.946H176.835V85H175.215V77.224H170.481V85H168.861ZM179.636 85V75.946H181.256V79.15H183.92C185.096 79.15 185.978 79.402 186.566 79.906C187.166 80.398 187.466 81.112 187.466 82.048C187.466 82.648 187.328 83.17 187.052 83.614C186.776 84.058 186.374 84.4 185.846 84.64C185.318 84.88 184.676 85 183.92 85H179.636ZM181.256 83.866H183.74C184.46 83.866 185 83.722 185.36 83.434C185.732 83.134 185.918 82.678 185.918 82.066C185.918 81.454 185.732 81.004 185.36 80.716C185 80.428 184.46 80.284 183.74 80.284H181.256V83.866ZM188.78 85V75.946H190.4V85H188.78ZM195.151 85V77.26H191.893V75.946H200.029V77.26H196.771V85H195.151ZM205.031 85.162C204.239 85.162 203.543 84.976 202.943 84.604C202.343 84.232 201.875 83.692 201.539 82.984C201.203 82.276 201.035 81.436 201.035 80.464C201.035 79.492 201.203 78.658 201.539 77.962C201.875 77.254 202.343 76.714 202.943 76.342C203.543 75.97 204.239 75.784 205.031 75.784C205.835 75.784 206.531 75.988 207.119 76.396C207.719 76.792 208.115 77.338 208.307 78.034H208.091L208.289 75.946H209.873C209.837 76.306 209.801 76.666 209.765 77.026C209.741 77.386 209.729 77.74 209.729 78.088V85H208.091V82.93H208.289C208.097 83.614 207.701 84.16 207.101 84.568C206.513 84.964 205.823 85.162 205.031 85.162ZM205.409 83.866C206.225 83.866 206.879 83.578 207.371 83.002C207.863 82.426 208.109 81.58 208.109 80.464C208.109 79.348 207.863 78.508 207.371 77.944C206.879 77.38 206.225 77.098 205.409 77.098C204.593 77.098 203.933 77.38 203.429 77.944C202.937 78.508 202.691 79.348 202.691 80.464C202.691 81.58 202.937 82.426 203.429 83.002C203.921 83.578 204.581 83.866 205.409 83.866Z" fill="#343434"/>
<circle cx="282" cy="22" r="6" fill="#DEF0D3"/>
<defs>
<linearGradient id="paint0_linear_112_121" x1="152" y1="0" x2="152" y2="128" gradientUnits="userSpaceOnUse">
<stop stop-color="white"/>
<stop offset="1" stop-color="white" stop-opacity="0.8"/>
</linearGradient>
</defs>
</svg>
