<svg width="411" height="128" viewBox="0 0 411 128" fill="none" xmlns="http://www.w3.org/2000/svg">
<rect width="411" height="128" rx="16" fill="url(#paint0_linear_112_2)"/>
<path d="M36.2 48L38.762 43.17L38.804 43.884L31.916 33.195H34.037L39.77 42.141H39.35L44.075 33.195H46.112L38.258 48H36.2ZM50.395 48.189C49.471 48.189 48.61 48.07 47.812 47.832C47.014 47.594 46.356 47.258 45.838 46.824L46.468 45.501C46.986 45.921 47.574 46.236 48.232 46.446C48.89 46.656 49.604 46.761 50.374 46.761C51.382 46.761 52.11 46.614 52.558 46.32C53.02 46.012 53.251 45.571 53.251 44.997C53.251 44.451 53.062 44.038 52.684 43.758C52.306 43.478 51.753 43.338 51.025 43.338H48.463V41.952H50.794C51.452 41.952 51.963 41.812 52.327 41.532C52.705 41.238 52.894 40.839 52.894 40.335C52.894 39.817 52.684 39.411 52.264 39.117C51.844 38.809 51.2 38.655 50.332 38.655C49.604 38.655 48.939 38.753 48.337 38.949C47.735 39.131 47.161 39.411 46.615 39.789L46.006 38.55C46.58 38.102 47.252 37.773 48.022 37.563C48.792 37.353 49.632 37.248 50.542 37.248C51.872 37.248 52.887 37.507 53.587 38.025C54.301 38.529 54.658 39.25 54.658 40.188C54.658 40.846 54.434 41.413 53.986 41.889C53.538 42.351 52.943 42.631 52.201 42.729V42.456C53.041 42.498 53.72 42.757 54.238 43.233C54.756 43.695 55.015 44.311 55.015 45.081C55.015 46.019 54.623 46.775 53.839 47.349C53.055 47.909 51.907 48.189 50.395 48.189ZM57.5706 48V37.437H59.4606V41.805H65.0466V37.437H66.9366V48H65.0466V43.317H59.4606V48H57.5706ZM74.2984 48.189C73.3744 48.189 72.5624 47.972 71.8624 47.538C71.1624 47.104 70.6164 46.474 70.2244 45.648C69.8324 44.822 69.6364 43.842 69.6364 42.708C69.6364 41.574 69.8324 40.601 70.2244 39.789C70.6164 38.963 71.1624 38.333 71.8624 37.899C72.5624 37.465 73.3744 37.248 74.2984 37.248C75.2364 37.248 76.0484 37.486 76.7344 37.962C77.4344 38.424 77.8964 39.061 78.1204 39.873H77.8684L78.0994 37.437H79.9474C79.9054 37.857 79.8634 38.277 79.8214 38.697C79.7934 39.117 79.7794 39.53 79.7794 39.936V48H77.8684V45.585H78.0994C77.8754 46.383 77.4134 47.02 76.7134 47.496C76.0274 47.958 75.2224 48.189 74.2984 48.189ZM74.7394 46.677C75.6914 46.677 76.4544 46.341 77.0284 45.669C77.6024 44.997 77.8894 44.01 77.8894 42.708C77.8894 41.406 77.6024 40.426 77.0284 39.768C76.4544 39.11 75.6914 38.781 74.7394 38.781C73.7874 38.781 73.0174 39.11 72.4294 39.768C71.8554 40.426 71.5684 41.406 71.5684 42.708C71.5684 44.01 71.8554 44.997 72.4294 45.669C73.0034 46.341 73.7734 46.677 74.7394 46.677ZM88.0159 48.189C86.3359 48.189 85.0059 47.706 84.0259 46.74C83.0599 45.774 82.5769 44.444 82.5769 42.75C82.5769 41.63 82.7869 40.664 83.2069 39.852C83.6409 39.026 84.2359 38.389 84.9919 37.941C85.7479 37.479 86.6299 37.248 87.6379 37.248C88.6039 37.248 89.4229 37.458 90.0949 37.878C90.7669 38.284 91.2779 38.865 91.6279 39.621C91.9779 40.377 92.1529 41.273 92.1529 42.309V42.939H84.0679V41.805H90.8509L90.4939 42.078C90.4939 40.986 90.2489 40.139 89.7589 39.537C89.2829 38.935 88.5759 38.634 87.6379 38.634C86.6159 38.634 85.8249 38.991 85.2649 39.705C84.7049 40.405 84.4249 41.364 84.4249 42.582V42.771C84.4249 44.059 84.7399 45.032 85.3699 45.69C86.0139 46.348 86.9029 46.677 88.0369 46.677C88.6669 46.677 89.2549 46.586 89.8009 46.404C90.3469 46.222 90.8719 45.921 91.3759 45.501L92.0059 46.824C91.5299 47.258 90.9349 47.594 90.2209 47.832C89.5209 48.07 88.7859 48.189 88.0159 48.189ZM94.8128 48V37.437H96.6188V46.509H100.924V37.437H102.73V46.509H107.014V37.437H108.841V48H94.8128ZM112.121 48V37.437H114.011V41.175H117.119C118.491 41.175 119.52 41.469 120.206 42.057C120.906 42.631 121.256 43.464 121.256 44.556C121.256 45.256 121.095 45.865 120.773 46.383C120.451 46.901 119.982 47.3 119.366 47.58C118.75 47.86 118.001 48 117.119 48H112.121ZM114.011 46.677H116.909C117.735 46.677 118.365 46.509 118.799 46.173C119.233 45.823 119.45 45.291 119.45 44.577C119.45 43.863 119.233 43.338 118.799 43.002C118.379 42.666 117.749 42.498 116.909 42.498H114.011V46.677ZM124.317 50.499L123.456 49.827C123.848 49.421 124.114 49.036 124.254 48.672C124.394 48.322 124.464 47.958 124.464 47.58L124.884 48H123.351V45.669H125.682V47.286C125.682 47.888 125.584 48.441 125.388 48.945C125.192 49.463 124.835 49.981 124.317 50.499ZM134.147 48V37.437H141.644V38.97H136.058V48H134.147ZM142.509 50.73V46.509H143.664C144.14 45.795 144.483 44.955 144.693 43.989C144.917 43.023 145.029 41.875 145.029 40.545V37.437H152.61V46.509H154.29V50.73H152.652V48H144.168V50.73H142.509ZM145.47 46.53H150.825V38.907H146.709V40.881C146.709 41.945 146.604 42.981 146.394 43.989C146.184 44.983 145.876 45.83 145.47 46.53ZM161.372 48.189C159.692 48.189 158.362 47.706 157.382 46.74C156.416 45.774 155.933 44.444 155.933 42.75C155.933 41.63 156.143 40.664 156.563 39.852C156.997 39.026 157.592 38.389 158.348 37.941C159.104 37.479 159.986 37.248 160.994 37.248C161.96 37.248 162.779 37.458 163.451 37.878C164.123 38.284 164.634 38.865 164.984 39.621C165.334 40.377 165.509 41.273 165.509 42.309V42.939H157.424V41.805H164.207L163.85 42.078C163.85 40.986 163.605 40.139 163.115 39.537C162.639 38.935 161.932 38.634 160.994 38.634C159.972 38.634 159.181 38.991 158.621 39.705C158.061 40.405 157.781 41.364 157.781 42.582V42.771C157.781 44.059 158.096 45.032 158.726 45.69C159.37 46.348 160.259 46.677 161.393 46.677C162.023 46.677 162.611 46.586 163.157 46.404C163.703 46.222 164.228 45.921 164.732 45.501L165.362 46.824C164.886 47.258 164.291 47.594 163.577 47.832C162.877 48.07 162.142 48.189 161.372 48.189ZM173.706 48V37.437H175.449V46.194H174.882L181.434 37.437H183.03V48H181.287V39.222H181.875L175.302 48H173.706ZM191.688 48V37.395H194.292V41.553H195.888L198.996 37.395H201.81L197.904 42.687L197.337 41.868C197.729 41.91 198.072 42.015 198.366 42.183C198.674 42.351 198.961 42.589 199.227 42.897C199.507 43.191 199.78 43.569 200.046 44.031L202.272 48H199.479L197.673 44.808C197.491 44.486 197.309 44.234 197.127 44.052C196.945 43.87 196.742 43.744 196.518 43.674C196.294 43.604 196.021 43.569 195.699 43.569H194.292V48H191.688ZM207.844 48.21C206.92 48.21 206.108 47.993 205.408 47.559C204.708 47.111 204.162 46.474 203.77 45.648C203.378 44.822 203.182 43.835 203.182 42.687C203.182 41.539 203.378 40.559 203.77 39.747C204.162 38.921 204.708 38.291 205.408 37.857C206.108 37.409 206.92 37.185 207.844 37.185C208.74 37.185 209.524 37.409 210.196 37.857C210.882 38.291 211.337 38.879 211.561 39.621H211.33L211.561 37.395H214.081C214.039 37.829 213.997 38.27 213.955 38.718C213.927 39.166 213.913 39.607 213.913 40.041V48H211.309L211.288 45.816H211.54C211.316 46.544 210.861 47.125 210.175 47.559C209.489 47.993 208.712 48.21 207.844 48.21ZM208.579 46.194C209.405 46.194 210.07 45.907 210.574 45.333C211.078 44.745 211.33 43.863 211.33 42.687C211.33 41.511 211.078 40.636 210.574 40.062C210.07 39.488 209.405 39.201 208.579 39.201C207.753 39.201 207.088 39.488 206.584 40.062C206.08 40.636 205.828 41.511 205.828 42.687C205.828 43.863 206.073 44.745 206.563 45.333C207.067 45.907 207.739 46.194 208.579 46.194ZM216.974 48V37.395H219.578V41.553H221.174L224.282 37.395H227.096L223.19 42.687L222.623 41.868C223.015 41.91 223.358 42.015 223.652 42.183C223.96 42.351 224.247 42.589 224.513 42.897C224.793 43.191 225.066 43.569 225.332 44.031L227.558 48H224.765L222.959 44.808C222.777 44.486 222.595 44.234 222.413 44.052C222.231 43.87 222.028 43.744 221.804 43.674C221.58 43.604 221.307 43.569 220.985 43.569H219.578V48H216.974ZM239.691 48.21C238.025 48.21 236.695 47.706 235.701 46.698C234.721 45.69 234.231 44.213 234.231 42.267V40.461C234.231 38.459 234.686 36.849 235.596 35.631C236.506 34.413 237.878 33.608 239.712 33.216L243.597 32.334L244.311 34.392L239.943 35.358C239.215 35.512 238.613 35.806 238.137 36.24C237.661 36.66 237.304 37.164 237.066 37.752C236.828 38.34 236.709 38.97 236.709 39.642V40.755H236.352C236.506 40.125 236.765 39.579 237.129 39.117C237.493 38.641 237.955 38.27 238.515 38.004C239.075 37.738 239.712 37.605 240.426 37.605C241.322 37.605 242.106 37.815 242.778 38.235C243.464 38.641 244.003 39.236 244.395 40.02C244.787 40.79 244.983 41.714 244.983 42.792C244.983 43.898 244.759 44.857 244.311 45.669C243.877 46.481 243.261 47.111 242.463 47.559C241.679 47.993 240.755 48.21 239.691 48.21ZM239.607 46.215C240.475 46.215 241.147 45.942 241.623 45.396C242.113 44.836 242.358 44.003 242.358 42.897C242.358 41.819 242.113 41 241.623 40.44C241.133 39.866 240.461 39.579 239.607 39.579C238.753 39.579 238.081 39.859 237.591 40.419C237.101 40.979 236.856 41.777 236.856 42.813C236.856 43.947 237.101 44.801 237.591 45.375C238.081 45.935 238.753 46.215 239.607 46.215ZM247.47 48V37.395H250.074V40.944H252.867C254.281 40.944 255.345 41.245 256.059 41.847C256.773 42.435 257.13 43.289 257.13 44.409C257.13 45.137 256.962 45.774 256.626 46.32C256.29 46.852 255.8 47.265 255.156 47.559C254.526 47.853 253.763 48 252.867 48H247.47ZM250.074 46.278H252.51C253.224 46.278 253.77 46.131 254.148 45.837C254.526 45.529 254.715 45.067 254.715 44.451C254.715 43.835 254.526 43.387 254.148 43.107C253.784 42.813 253.238 42.666 252.51 42.666H250.074V46.278ZM258.453 48V37.395H261.057V48H258.453ZM268.996 48.21C267.904 48.21 266.945 47.986 266.119 47.538C265.307 47.09 264.677 46.453 264.229 45.627C263.781 44.787 263.557 43.793 263.557 42.645C263.557 41.497 263.781 40.517 264.229 39.705C264.691 38.893 265.328 38.27 266.14 37.836C266.952 37.402 267.904 37.185 268.996 37.185C269.696 37.185 270.375 37.297 271.033 37.521C271.705 37.731 272.251 38.039 272.671 38.445L271.873 40.272C271.495 39.922 271.068 39.663 270.592 39.495C270.13 39.313 269.675 39.222 269.227 39.222C268.289 39.222 267.554 39.516 267.022 40.104C266.504 40.692 266.245 41.546 266.245 42.666C266.245 43.786 266.504 44.647 267.022 45.249C267.554 45.851 268.289 46.152 269.227 46.152C269.661 46.152 270.109 46.068 270.571 45.9C271.047 45.732 271.481 45.473 271.873 45.123L272.671 46.929C272.237 47.335 271.684 47.65 271.012 47.874C270.354 48.098 269.682 48.21 268.996 48.21ZM277.198 48V39.453H273.565V37.395H283.456V39.453H279.802V48H277.198ZM285.165 52.536V40.041C285.165 39.607 285.151 39.166 285.123 38.718C285.095 38.27 285.053 37.829 284.997 37.395H287.538L287.769 39.621H287.538C287.748 38.879 288.189 38.291 288.861 37.857C289.547 37.409 290.338 37.185 291.234 37.185C292.172 37.185 292.991 37.409 293.691 37.857C294.391 38.291 294.937 38.921 295.329 39.747C295.721 40.559 295.917 41.539 295.917 42.687C295.917 43.835 295.721 44.822 295.329 45.648C294.937 46.474 294.391 47.111 293.691 47.559C292.991 47.993 292.172 48.21 291.234 48.21C290.352 48.21 289.575 47.993 288.903 47.559C288.231 47.125 287.783 46.544 287.559 45.816H287.79V52.536H285.165ZM290.499 46.194C291.339 46.194 292.011 45.907 292.515 45.333C293.019 44.745 293.271 43.863 293.271 42.687C293.271 41.511 293.019 40.636 292.515 40.062C292.011 39.488 291.339 39.201 290.499 39.201C289.673 39.201 289.008 39.488 288.504 40.062C288 40.636 287.748 41.511 287.748 42.687C287.748 43.863 288 44.745 288.504 45.333C289.008 45.907 289.673 46.194 290.499 46.194ZM303.262 48.21C302.17 48.21 301.225 47.986 300.427 47.538C299.629 47.09 299.006 46.453 298.558 45.627C298.124 44.801 297.907 43.821 297.907 42.687C297.907 41.553 298.124 40.58 298.558 39.768C299.006 38.942 299.629 38.305 300.427 37.857C301.225 37.409 302.17 37.185 303.262 37.185C304.354 37.185 305.299 37.409 306.097 37.857C306.909 38.305 307.532 38.942 307.966 39.768C308.414 40.58 308.638 41.553 308.638 42.687C308.638 43.821 308.414 44.801 307.966 45.627C307.532 46.453 306.909 47.09 306.097 47.538C305.299 47.986 304.354 48.21 303.262 48.21ZM303.262 46.194C304.088 46.194 304.746 45.907 305.236 45.333C305.726 44.745 305.971 43.863 305.971 42.687C305.971 41.511 305.726 40.636 305.236 40.062C304.746 39.488 304.088 39.201 303.262 39.201C302.436 39.201 301.778 39.488 301.288 40.062C300.798 40.636 300.553 41.511 300.553 42.687C300.553 43.863 300.798 44.745 301.288 45.333C301.778 45.907 302.436 46.194 303.262 46.194ZM316.888 48V37.395H319.492V41.553H324.28V37.395H326.884V48H324.28V43.569H319.492V48H316.888ZM334.049 48.21C333.125 48.21 332.313 47.993 331.613 47.559C330.913 47.111 330.367 46.474 329.975 45.648C329.583 44.822 329.387 43.835 329.387 42.687C329.387 41.539 329.583 40.559 329.975 39.747C330.367 38.921 330.913 38.291 331.613 37.857C332.313 37.409 333.125 37.185 334.049 37.185C334.945 37.185 335.729 37.409 336.401 37.857C337.087 38.291 337.542 38.879 337.766 39.621H337.535L337.766 37.395H340.286C340.244 37.829 340.202 38.27 340.16 38.718C340.132 39.166 340.118 39.607 340.118 40.041V48H337.514L337.493 45.816H337.745C337.521 46.544 337.066 47.125 336.38 47.559C335.694 47.993 334.917 48.21 334.049 48.21ZM334.784 46.194C335.61 46.194 336.275 45.907 336.779 45.333C337.283 44.745 337.535 43.863 337.535 42.687C337.535 41.511 337.283 40.636 336.779 40.062C336.275 39.488 335.61 39.201 334.784 39.201C333.958 39.201 333.293 39.488 332.789 40.062C332.285 40.636 332.033 41.511 332.033 42.687C332.033 43.863 332.278 44.745 332.768 45.333C333.272 45.907 333.944 46.194 334.784 46.194ZM343.179 48V37.395H345.552V45.417H344.922L350.949 37.395H353.112V48H350.739V39.957H351.39L345.342 48H343.179ZM348.135 36.429C347.435 36.429 346.819 36.317 346.287 36.093C345.755 35.855 345.314 35.526 344.964 35.106C344.614 34.672 344.362 34.161 344.208 33.573L345.552 33.111C345.79 33.755 346.119 34.231 346.539 34.539C346.959 34.833 347.498 34.98 348.156 34.98C348.814 34.98 349.353 34.833 349.773 34.539C350.193 34.245 350.536 33.776 350.802 33.132L352.083 33.573C351.789 34.511 351.299 35.225 350.613 35.715C349.941 36.191 349.115 36.429 348.135 36.429ZM358.388 48V39.453H354.755V37.395H364.646V39.453H360.992V48H358.388ZM366.271 48V37.395H368.644V45.417H368.014L374.041 37.395H376.204V48H373.831V39.957H374.482L368.434 48H366.271ZM33.575 76.536V64.041C33.575 63.607 33.561 63.166 33.533 62.718C33.505 62.27 33.463 61.829 33.407 61.395H35.948L36.179 63.621H35.948C36.158 62.879 36.599 62.291 37.271 61.857C37.957 61.409 38.748 61.185 39.644 61.185C40.582 61.185 41.401 61.409 42.101 61.857C42.801 62.291 43.347 62.921 43.739 63.747C44.131 64.559 44.327 65.539 44.327 66.687C44.327 67.835 44.131 68.822 43.739 69.648C43.347 70.474 42.801 71.111 42.101 71.559C41.401 71.993 40.582 72.21 39.644 72.21C38.762 72.21 37.985 71.993 37.313 71.559C36.641 71.125 36.193 70.544 35.969 69.816H36.2V76.536H33.575ZM38.909 70.194C39.749 70.194 40.421 69.907 40.925 69.333C41.429 68.745 41.681 67.863 41.681 66.687C41.681 65.511 41.429 64.636 40.925 64.062C40.421 63.488 39.749 63.201 38.909 63.201C38.083 63.201 37.418 63.488 36.914 64.062C36.41 64.636 36.158 65.511 36.158 66.687C36.158 67.863 36.41 68.745 36.914 69.333C37.418 69.907 38.083 70.194 38.909 70.194ZM50.9796 72.21C50.0556 72.21 49.2436 71.993 48.5436 71.559C47.8436 71.111 47.2976 70.474 46.9056 69.648C46.5136 68.822 46.3176 67.835 46.3176 66.687C46.3176 65.539 46.5136 64.559 46.9056 63.747C47.2976 62.921 47.8436 62.291 48.5436 61.857C49.2436 61.409 50.0556 61.185 50.9796 61.185C51.8756 61.185 52.6596 61.409 53.3316 61.857C54.0176 62.291 54.4726 62.879 54.6966 63.621H54.4656L54.6966 61.395H57.2166C57.1746 61.829 57.1326 62.27 57.0906 62.718C57.0626 63.166 57.0486 63.607 57.0486 64.041V72H54.4446L54.4236 69.816H54.6756C54.4516 70.544 53.9966 71.125 53.3106 71.559C52.6246 71.993 51.8476 72.21 50.9796 72.21ZM51.7146 70.194C52.5406 70.194 53.2056 69.907 53.7096 69.333C54.2136 68.745 54.4656 67.863 54.4656 66.687C54.4656 65.511 54.2136 64.636 53.7096 64.062C53.2056 63.488 52.5406 63.201 51.7146 63.201C50.8886 63.201 50.2236 63.488 49.7196 64.062C49.2156 64.636 48.9636 65.511 48.9636 66.687C48.9636 67.863 49.2086 68.745 49.6986 69.333C50.2026 69.907 50.8746 70.194 51.7146 70.194ZM65.0871 72.21C63.4211 72.21 62.0911 71.706 61.0971 70.698C60.1171 69.69 59.6271 68.213 59.6271 66.267V64.461C59.6271 62.459 60.0821 60.849 60.9921 59.631C61.9021 58.413 63.2741 57.608 65.1081 57.216L68.9931 56.334L69.7071 58.392L65.3391 59.358C64.6111 59.512 64.0091 59.806 63.5331 60.24C63.0571 60.66 62.7001 61.164 62.4621 61.752C62.2241 62.34 62.1051 62.97 62.1051 63.642V64.755H61.7481C61.9021 64.125 62.1611 63.579 62.5251 63.117C62.8891 62.641 63.3511 62.27 63.9111 62.004C64.4711 61.738 65.1081 61.605 65.8221 61.605C66.7181 61.605 67.5021 61.815 68.1741 62.235C68.8601 62.641 69.3991 63.236 69.7911 64.02C70.1831 64.79 70.3791 65.714 70.3791 66.792C70.3791 67.898 70.1551 68.857 69.7071 69.669C69.2731 70.481 68.6571 71.111 67.8591 71.559C67.0751 71.993 66.1511 72.21 65.0871 72.21ZM65.0031 70.215C65.8711 70.215 66.5431 69.942 67.0191 69.396C67.5091 68.836 67.7541 68.003 67.7541 66.897C67.7541 65.819 67.5091 65 67.0191 64.44C66.5291 63.866 65.8571 63.579 65.0031 63.579C64.1491 63.579 63.4771 63.859 62.9871 64.419C62.4971 64.979 62.2521 65.777 62.2521 66.813C62.2521 67.947 62.4971 68.801 62.9871 69.375C63.4771 69.935 64.1491 70.215 65.0031 70.215ZM77.738 72.21C76.646 72.21 75.701 71.986 74.903 71.538C74.105 71.09 73.482 70.453 73.034 69.627C72.6 68.801 72.383 67.821 72.383 66.687C72.383 65.553 72.6 64.58 73.034 63.768C73.482 62.942 74.105 62.305 74.903 61.857C75.701 61.409 76.646 61.185 77.738 61.185C78.83 61.185 79.775 61.409 80.573 61.857C81.385 62.305 82.008 62.942 82.442 63.768C82.89 64.58 83.114 65.553 83.114 66.687C83.114 67.821 82.89 68.801 82.442 69.627C82.008 70.453 81.385 71.09 80.573 71.538C79.775 71.986 78.83 72.21 77.738 72.21ZM77.738 70.194C78.564 70.194 79.222 69.907 79.712 69.333C80.202 68.745 80.447 67.863 80.447 66.687C80.447 65.511 80.202 64.636 79.712 64.062C79.222 63.488 78.564 63.201 77.738 63.201C76.912 63.201 76.254 63.488 75.764 64.062C75.274 64.636 75.029 65.511 75.029 66.687C75.029 67.863 75.274 68.745 75.764 69.333C76.254 69.907 76.912 70.194 77.738 70.194ZM87.8904 72V63.453H84.2574V61.395H94.1484V63.453H90.4944V72H87.8904ZM95.7498 76.767L95.1408 74.688C95.7988 74.548 96.3518 74.387 96.7998 74.205C97.2478 74.023 97.6188 73.785 97.9128 73.491C98.2068 73.197 98.4518 72.819 98.6478 72.357L99.1728 71.118L99.1098 72.147L94.4898 61.395H97.2828L100.601 69.669H99.9918L103.331 61.395H105.977L101.147 72.588C100.825 73.344 100.475 73.967 100.097 74.457C99.7188 74.961 99.3128 75.36 98.8788 75.654C98.4448 75.962 97.9688 76.2 97.4508 76.368C96.9328 76.536 96.3658 76.669 95.7498 76.767ZM113.328 72V61.395H118.977C120.307 61.395 121.28 61.64 121.896 62.13C122.512 62.606 122.82 63.285 122.82 64.167C122.82 64.839 122.596 65.399 122.148 65.847C121.7 66.295 121.105 66.575 120.363 66.687V66.393C121.273 66.449 121.973 66.715 122.463 67.191C122.953 67.667 123.198 68.283 123.198 69.039C123.198 69.949 122.848 70.67 122.148 71.202C121.448 71.734 120.454 72 119.166 72H113.328ZM115.764 70.383H118.893C119.509 70.383 119.978 70.257 120.3 70.005C120.636 69.753 120.804 69.382 120.804 68.892C120.804 68.402 120.636 68.031 120.3 67.779C119.978 67.527 119.509 67.401 118.893 67.401H115.764V70.383ZM115.764 65.784H118.662C119.222 65.784 119.656 65.665 119.964 65.427C120.272 65.175 120.426 64.825 120.426 64.377C120.426 63.929 120.272 63.586 119.964 63.348C119.656 63.11 119.222 62.991 118.662 62.991H115.764V65.784ZM136.124 72.21C135.032 72.21 134.087 71.986 133.289 71.538C132.491 71.09 131.868 70.453 131.42 69.627C130.986 68.801 130.769 67.821 130.769 66.687C130.769 65.553 130.986 64.58 131.42 63.768C131.868 62.942 132.491 62.305 133.289 61.857C134.087 61.409 135.032 61.185 136.124 61.185C137.216 61.185 138.161 61.409 138.959 61.857C139.771 62.305 140.394 62.942 140.828 63.768C141.276 64.58 141.5 65.553 141.5 66.687C141.5 67.821 141.276 68.801 140.828 69.627C140.394 70.453 139.771 71.09 138.959 71.538C138.161 71.986 137.216 72.21 136.124 72.21ZM136.124 70.194C136.95 70.194 137.608 69.907 138.098 69.333C138.588 68.745 138.833 67.863 138.833 66.687C138.833 65.511 138.588 64.636 138.098 64.062C137.608 63.488 136.95 63.201 136.124 63.201C135.298 63.201 134.64 63.488 134.15 64.062C133.66 64.636 133.415 65.511 133.415 66.687C133.415 67.863 133.66 68.745 134.15 69.333C134.64 69.907 135.298 70.194 136.124 70.194ZM143.987 72V61.395H146.591V65.553H151.379V61.395H153.983V72H151.379V67.569H146.591V72H143.987ZM156.696 72.294L155.877 70.236C156.339 70.068 156.724 69.851 157.032 69.585C157.354 69.305 157.606 68.955 157.788 68.535C157.984 68.101 158.124 67.569 158.208 66.939C158.292 66.295 158.334 65.532 158.334 64.65V61.395H166.776V72H164.172V63.411H160.728V64.734C160.728 66.26 160.588 67.541 160.308 68.577C160.028 69.599 159.594 70.411 159.006 71.013C158.418 71.615 157.648 72.042 156.696 72.294ZM173.944 72.21C173.02 72.21 172.208 71.993 171.508 71.559C170.808 71.111 170.262 70.474 169.87 69.648C169.478 68.822 169.282 67.835 169.282 66.687C169.282 65.539 169.478 64.559 169.87 63.747C170.262 62.921 170.808 62.291 171.508 61.857C172.208 61.409 173.02 61.185 173.944 61.185C174.84 61.185 175.624 61.409 176.296 61.857C176.982 62.291 177.437 62.879 177.661 63.621H177.43L177.661 61.395H180.181C180.139 61.829 180.097 62.27 180.055 62.718C180.027 63.166 180.013 63.607 180.013 64.041V72H177.409L177.388 69.816H177.64C177.416 70.544 176.961 71.125 176.275 71.559C175.589 71.993 174.812 72.21 173.944 72.21ZM174.679 70.194C175.505 70.194 176.17 69.907 176.674 69.333C177.178 68.745 177.43 67.863 177.43 66.687C177.43 65.511 177.178 64.636 176.674 64.062C176.17 63.488 175.505 63.201 174.679 63.201C173.853 63.201 173.188 63.488 172.684 64.062C172.18 64.636 171.928 65.511 171.928 66.687C171.928 67.863 172.173 68.745 172.663 69.333C173.167 69.907 173.839 70.194 174.679 70.194ZM183.075 72V61.395H185.448V69.417H184.818L190.845 61.395H193.008V72H190.635V63.957H191.286L185.238 72H183.075ZM188.031 60.429C187.331 60.429 186.715 60.317 186.183 60.093C185.651 59.855 185.21 59.526 184.86 59.106C184.51 58.672 184.258 58.161 184.104 57.573L185.448 57.111C185.686 57.755 186.015 58.231 186.435 58.539C186.855 58.833 187.394 58.98 188.052 58.98C188.71 58.98 189.249 58.833 189.669 58.539C190.089 58.245 190.432 57.776 190.698 57.132L191.979 57.573C191.685 58.511 191.195 59.225 190.509 59.715C189.837 60.191 189.011 60.429 188.031 60.429ZM195.995 72V61.395H198.599V65.553H203.387V61.395H205.991V72H203.387V67.569H198.599V72H195.995ZM214.184 72.21C212.406 72.21 211.013 71.72 210.005 70.74C208.997 69.76 208.493 68.416 208.493 66.708C208.493 65.602 208.71 64.636 209.144 63.81C209.578 62.984 210.18 62.34 210.95 61.878C211.734 61.416 212.644 61.185 213.68 61.185C214.702 61.185 215.556 61.402 216.242 61.836C216.928 62.27 217.446 62.879 217.796 63.663C218.16 64.447 218.342 65.364 218.342 66.414V67.107H210.614V65.721H216.473L216.116 66.015C216.116 65.035 215.906 64.286 215.486 63.768C215.08 63.25 214.485 62.991 213.701 62.991C212.833 62.991 212.161 63.299 211.685 63.915C211.223 64.531 210.992 65.392 210.992 66.498V66.771C210.992 67.919 211.272 68.78 211.832 69.354C212.406 69.914 213.211 70.194 214.247 70.194C214.849 70.194 215.409 70.117 215.927 69.963C216.459 69.795 216.963 69.529 217.439 69.165L218.216 70.929C217.712 71.335 217.11 71.65 216.41 71.874C215.71 72.098 214.968 72.21 214.184 72.21ZM221.524 74.499L220.663 73.827C221.055 73.421 221.321 73.036 221.461 72.672C221.601 72.322 221.671 71.958 221.671 71.58L222.091 72H220.558V69.669H222.889V71.286C222.889 71.888 222.791 72.441 222.595 72.945C222.399 73.463 222.042 73.981 221.524 74.499ZM230.262 74.73V70.509H231.417C231.893 69.795 232.236 68.955 232.446 67.989C232.67 67.023 232.782 65.875 232.782 64.545V61.437H240.363V70.509H242.043V74.73H240.405V72H231.921V74.73H230.262ZM233.223 70.53H238.578V62.907H234.462V64.881C234.462 65.945 234.357 66.981 234.147 67.989C233.937 68.983 233.629 69.83 233.223 70.53ZM248.348 72.189C247.424 72.189 246.612 71.972 245.912 71.538C245.212 71.104 244.666 70.474 244.274 69.648C243.882 68.822 243.686 67.842 243.686 66.708C243.686 65.574 243.882 64.601 244.274 63.789C244.666 62.963 245.212 62.333 245.912 61.899C246.612 61.465 247.424 61.248 248.348 61.248C249.286 61.248 250.098 61.486 250.784 61.962C251.484 62.424 251.946 63.061 252.17 63.873H251.918L252.149 61.437H253.997C253.955 61.857 253.913 62.277 253.871 62.697C253.843 63.117 253.829 63.53 253.829 63.936V72H251.918V69.585H252.149C251.925 70.383 251.463 71.02 250.763 71.496C250.077 71.958 249.272 72.189 248.348 72.189ZM248.789 70.677C249.741 70.677 250.504 70.341 251.078 69.669C251.652 68.997 251.939 68.01 251.939 66.708C251.939 65.406 251.652 64.426 251.078 63.768C250.504 63.11 249.741 62.781 248.789 62.781C247.837 62.781 247.067 63.11 246.479 63.768C245.905 64.426 245.618 65.406 245.618 66.708C245.618 68.01 245.905 68.997 246.479 69.669C247.053 70.341 247.823 70.677 248.789 70.677ZM255.556 72L257.74 68.241C258.062 67.723 258.356 67.31 258.622 67.002C258.888 66.694 259.168 66.463 259.462 66.309C259.77 66.141 260.127 66.036 260.533 65.994L260.071 66.582L256.06 61.437H258.16L261.583 65.805H263.2V61.437H265.09V65.805H266.686L270.088 61.437H272.209L268.198 66.582L267.715 65.994C268.121 66.036 268.471 66.141 268.765 66.309C269.073 66.463 269.367 66.694 269.647 67.002C269.927 67.31 270.221 67.723 270.529 68.241L272.713 72H270.676L268.765 68.745C268.541 68.367 268.324 68.073 268.114 67.863C267.904 67.653 267.666 67.506 267.4 67.422C267.148 67.338 266.826 67.296 266.434 67.296H265.09V72H263.2V67.296H261.835C261.443 67.296 261.114 67.338 260.848 67.422C260.596 67.506 260.365 67.653 260.155 67.863C259.959 68.073 259.742 68.367 259.504 68.745L257.614 72H255.556ZM279.231 72.189C277.551 72.189 276.221 71.706 275.241 70.74C274.275 69.774 273.792 68.444 273.792 66.75C273.792 65.63 274.002 64.664 274.422 63.852C274.856 63.026 275.451 62.389 276.207 61.941C276.963 61.479 277.845 61.248 278.853 61.248C279.819 61.248 280.638 61.458 281.31 61.878C281.982 62.284 282.493 62.865 282.843 63.621C283.193 64.377 283.368 65.273 283.368 66.309V66.939H275.283V65.805H282.066L281.709 66.078C281.709 64.986 281.464 64.139 280.974 63.537C280.498 62.935 279.791 62.634 278.853 62.634C277.831 62.634 277.04 62.991 276.48 63.705C275.92 64.405 275.64 65.364 275.64 66.582V66.771C275.64 68.059 275.955 69.032 276.585 69.69C277.229 70.348 278.118 70.677 279.252 70.677C279.882 70.677 280.47 70.586 281.016 70.404C281.562 70.222 282.087 69.921 282.591 69.501L283.221 70.824C282.745 71.258 282.15 71.594 281.436 71.832C280.736 72.07 280.001 72.189 279.231 72.189ZM33.638 96V85.437H35.528V89.805H41.114V85.437H43.004V96H41.114V91.317H35.528V96H33.638ZM51.1428 96.189C49.4628 96.189 48.1328 95.706 47.1528 94.74C46.1868 93.774 45.7038 92.444 45.7038 90.75C45.7038 89.63 45.9138 88.664 46.3338 87.852C46.7678 87.026 47.3628 86.389 48.1188 85.941C48.8748 85.479 49.7568 85.248 50.7648 85.248C51.7308 85.248 52.5498 85.458 53.2218 85.878C53.8938 86.284 54.4048 86.865 54.7548 87.621C55.1048 88.377 55.2798 89.273 55.2798 90.309V90.939H47.1948V89.805H53.9778L53.6208 90.078C53.6208 88.986 53.3758 88.139 52.8858 87.537C52.4098 86.935 51.7028 86.634 50.7648 86.634C49.7428 86.634 48.9518 86.991 48.3918 87.705C47.8318 88.405 47.5518 89.364 47.5518 90.582V90.771C47.5518 92.059 47.8668 93.032 48.4968 93.69C49.1408 94.348 50.0298 94.677 51.1638 94.677C51.7938 94.677 52.3818 94.586 52.9278 94.404C53.4738 94.222 53.9988 93.921 54.5028 93.501L55.1328 94.824C54.6568 95.258 54.0618 95.594 53.3478 95.832C52.6478 96.07 51.9128 96.189 51.1428 96.189ZM63.4769 96V85.437H65.2199V94.194H64.6529L71.2049 85.437H72.8009V96H71.0579V87.222H71.6459L65.0729 96H63.4769ZM76.0687 96V85.437H77.6647L81.5497 92.346L85.4557 85.437H87.0307V96H85.3507V87.579H85.8127L82.0327 94.299H81.0877L77.3077 87.558H77.7487V96H76.0687ZM95.1731 96.189C93.4931 96.189 92.1631 95.706 91.1831 94.74C90.2171 93.774 89.7341 92.444 89.7341 90.75C89.7341 89.63 89.9441 88.664 90.3641 87.852C90.7981 87.026 91.3931 86.389 92.1491 85.941C92.9051 85.479 93.7871 85.248 94.7951 85.248C95.7611 85.248 96.5801 85.458 97.2521 85.878C97.9241 86.284 98.4351 86.865 98.7851 87.621C99.1351 88.377 99.3101 89.273 99.3101 90.309V90.939H91.2251V89.805H98.0081L97.6511 90.078C97.6511 88.986 97.4061 88.139 96.9161 87.537C96.4401 86.935 95.7331 86.634 94.7951 86.634C93.7731 86.634 92.9821 86.991 92.4221 87.705C91.8621 88.405 91.5821 89.364 91.5821 90.582V90.771C91.5821 92.059 91.8971 93.032 92.5271 93.69C93.1711 94.348 94.0601 94.677 95.1941 94.677C95.8241 94.677 96.4121 94.586 96.9581 94.404C97.5041 94.222 98.0291 93.921 98.5331 93.501L99.1631 94.824C98.6871 95.258 98.0921 95.594 97.3781 95.832C96.6781 96.07 95.9431 96.189 95.1731 96.189ZM101.13 96L102.789 93.123C103.055 92.661 103.391 92.29 103.797 92.01C104.203 91.716 104.63 91.569 105.078 91.569H105.414L105.393 91.758C104.203 91.758 103.272 91.492 102.6 90.96C101.928 90.414 101.592 89.63 101.592 88.608C101.592 87.6 101.921 86.823 102.579 86.277C103.237 85.717 104.217 85.437 105.519 85.437H110.328V96H108.564V92.01H107.052C106.506 92.01 106.037 92.15 105.645 92.43C105.253 92.696 104.931 93.053 104.679 93.501L103.251 96H101.13ZM105.855 90.687H108.564V86.739H105.855C105.029 86.739 104.413 86.914 104.007 87.264C103.615 87.614 103.419 88.097 103.419 88.713C103.419 89.343 103.615 89.833 104.007 90.183C104.413 90.519 105.029 90.687 105.855 90.687ZM123.65 96.189C122.614 96.189 121.718 95.972 120.962 95.538C120.206 95.09 119.618 94.46 119.198 93.648C118.778 92.822 118.568 91.842 118.568 90.708C118.568 89.588 118.778 88.622 119.198 87.81C119.618 86.984 120.206 86.354 120.962 85.92C121.718 85.472 122.614 85.248 123.65 85.248C124.686 85.248 125.582 85.472 126.338 85.92C127.108 86.354 127.696 86.984 128.102 87.81C128.522 88.622 128.732 89.588 128.732 90.708C128.732 91.842 128.522 92.822 128.102 93.648C127.696 94.46 127.108 95.09 126.338 95.538C125.582 95.972 124.686 96.189 123.65 96.189ZM123.65 94.677C124.602 94.677 125.365 94.341 125.939 93.669C126.513 92.997 126.8 92.01 126.8 90.708C126.8 89.406 126.513 88.426 125.939 87.768C125.365 87.11 124.602 86.781 123.65 86.781C122.684 86.781 121.914 87.11 121.34 87.768C120.78 88.426 120.5 89.406 120.5 90.708C120.5 92.01 120.78 92.997 121.34 93.669C121.914 94.341 122.684 94.677 123.65 94.677ZM131.46 96V85.437H140.763V96H138.873V86.928H133.35V96H131.46ZM144.032 96V85.437H145.922V89.175H149.03C150.402 89.175 151.431 89.469 152.117 90.057C152.817 90.631 153.167 91.464 153.167 92.556C153.167 93.256 153.006 93.865 152.684 94.383C152.362 94.901 151.893 95.3 151.277 95.58C150.661 95.86 149.912 96 149.03 96H144.032ZM145.922 94.677H148.82C149.66 94.677 150.29 94.509 150.71 94.173C151.144 93.823 151.361 93.291 151.361 92.577C151.361 91.863 151.144 91.338 150.71 91.002C150.29 90.666 149.66 90.498 148.82 90.498H145.922V94.677ZM154.7 96V85.437H156.59V96H154.7ZM162.132 96V86.97H158.331V85.437H167.823V86.97H164.022V96H162.132ZM173.659 96.189C172.735 96.189 171.923 95.972 171.223 95.538C170.523 95.104 169.977 94.474 169.585 93.648C169.193 92.822 168.997 91.842 168.997 90.708C168.997 89.574 169.193 88.601 169.585 87.789C169.977 86.963 170.523 86.333 171.223 85.899C171.923 85.465 172.735 85.248 173.659 85.248C174.597 85.248 175.409 85.486 176.095 85.962C176.795 86.424 177.257 87.061 177.481 87.873H177.229L177.46 85.437H179.308C179.266 85.857 179.224 86.277 179.182 86.697C179.154 87.117 179.14 87.53 179.14 87.936V96H177.229V93.585H177.46C177.236 94.383 176.774 95.02 176.074 95.496C175.388 95.958 174.583 96.189 173.659 96.189ZM174.1 94.677C175.052 94.677 175.815 94.341 176.389 93.669C176.963 92.997 177.25 92.01 177.25 90.708C177.25 89.406 176.963 88.426 176.389 87.768C175.815 87.11 175.052 86.781 174.1 86.781C173.148 86.781 172.378 87.11 171.79 87.768C171.216 88.426 170.929 89.406 170.929 90.708C170.929 92.01 171.216 92.997 171.79 93.669C172.364 94.341 173.134 94.677 174.1 94.677Z" fill="#343434"/>
<circle cx="385" cy="26" r="6" fill="#DEF0D3"/>
<defs>
<linearGradient id="paint0_linear_112_2" x1="205.5" y1="0" x2="205.5" y2="128" gradientUnits="userSpaceOnUse">
<stop stop-color="white"/>
<stop offset="1" stop-color="white" stop-opacity="0.8"/>
</linearGradient>
</defs>
</svg>
