<svg width="411" height="128" viewBox="0 0 411 128" fill="none" xmlns="http://www.w3.org/2000/svg">
<rect width="411" height="128" rx="16" fill="url(#paint0_linear_99_75)"/>
<path d="M33.6382 48V33.195H46.5952V48H43.9072V35.4H36.3052V48H33.6382Z" fill="#343434"/>
<path d="M54.5849 48.21C53.4929 48.21 52.5479 47.986 51.7499 47.538C50.9519 47.09 50.3289 46.453 49.8809 45.627C49.4469 44.801 49.2299 43.821 49.2299 42.687C49.2299 41.553 49.4469 40.58 49.8809 39.768C50.3289 38.942 50.9519 38.305 51.7499 37.857C52.5479 37.409 53.4929 37.185 54.5849 37.185C55.6769 37.185 56.6219 37.409 57.4199 37.857C58.2319 38.305 58.8549 38.942 59.2889 39.768C59.7369 40.58 59.9609 41.553 59.9609 42.687C59.9609 43.821 59.7369 44.801 59.2889 45.627C58.8549 46.453 58.2319 47.09 57.4199 47.538C56.6219 47.986 55.6769 48.21 54.5849 48.21ZM54.5849 46.194C55.4109 46.194 56.0689 45.907 56.5589 45.333C57.0489 44.745 57.2939 43.863 57.2939 42.687C57.2939 41.511 57.0489 40.636 56.5589 40.062C56.0689 39.488 55.4109 39.201 54.5849 39.201C53.7589 39.201 53.1009 39.488 52.6109 40.062C52.1209 40.636 51.8759 41.511 51.8759 42.687C51.8759 43.863 52.1209 44.745 52.6109 45.333C53.1009 45.907 53.7589 46.194 54.5849 46.194Z" fill="#343434"/>
<path d="M61.5032 50.73V46.005H62.7212C63.1412 45.347 63.4422 44.577 63.6242 43.695C63.8202 42.799 63.9182 41.707 63.9182 40.419V37.395H72.0872V46.005H73.8092V50.73H71.5832V48H63.7292V50.73H61.5032ZM65.0732 46.026H69.6302V39.369H66.1442V41.007C66.1442 41.945 66.0532 42.862 65.8712 43.758C65.6892 44.654 65.4232 45.41 65.0732 46.026Z" fill="#343434"/>
<path d="M74.7923 50.73V46.005H76.0103C76.4303 45.347 76.7313 44.577 76.9133 43.695C77.1093 42.799 77.2073 41.707 77.2073 40.419V37.395H85.3763V46.005H87.0983V50.73H84.8723V48H77.0183V50.73H74.7923ZM78.3623 46.026H82.9193V39.369H79.4333V41.007C79.4333 41.945 79.3423 42.862 79.1603 43.758C78.9783 44.654 78.7123 45.41 78.3623 46.026Z" fill="#343434"/>
<path d="M94.2343 48.21C92.4563 48.21 91.0633 47.72 90.0553 46.74C89.0473 45.76 88.5433 44.416 88.5433 42.708C88.5433 41.602 88.7603 40.636 89.1943 39.81C89.6283 38.984 90.2303 38.34 91.0003 37.878C91.7843 37.416 92.6943 37.185 93.7303 37.185C94.7523 37.185 95.6063 37.402 96.2923 37.836C96.9783 38.27 97.4963 38.879 97.8463 39.663C98.2103 40.447 98.3923 41.364 98.3923 42.414V43.107H90.6643V41.721H96.5233L96.1663 42.015C96.1663 41.035 95.9563 40.286 95.5363 39.768C95.1303 39.25 94.5353 38.991 93.7513 38.991C92.8833 38.991 92.2113 39.299 91.7353 39.915C91.2733 40.531 91.0423 41.392 91.0423 42.498V42.771C91.0423 43.919 91.3223 44.78 91.8823 45.354C92.4563 45.914 93.2613 46.194 94.2973 46.194C94.8993 46.194 95.4593 46.117 95.9773 45.963C96.5093 45.795 97.0133 45.529 97.4893 45.165L98.2663 46.929C97.7623 47.335 97.1603 47.65 96.4603 47.874C95.7603 48.098 95.0183 48.21 94.2343 48.21Z" fill="#343434"/>
<path d="M100.902 52.536V40.041C100.902 39.607 100.888 39.166 100.86 38.718C100.832 38.27 100.79 37.829 100.734 37.395H103.275L103.506 39.621H103.275C103.485 38.879 103.926 38.291 104.598 37.857C105.284 37.409 106.075 37.185 106.971 37.185C107.909 37.185 108.728 37.409 109.428 37.857C110.128 38.291 110.674 38.921 111.066 39.747C111.458 40.559 111.654 41.539 111.654 42.687C111.654 43.835 111.458 44.822 111.066 45.648C110.674 46.474 110.128 47.111 109.428 47.559C108.728 47.993 107.909 48.21 106.971 48.21C106.089 48.21 105.312 47.993 104.64 47.559C103.968 47.125 103.52 46.544 103.296 45.816H103.527V52.536H100.902ZM106.236 46.194C107.076 46.194 107.748 45.907 108.252 45.333C108.756 44.745 109.008 43.863 109.008 42.687C109.008 41.511 108.756 40.636 108.252 40.062C107.748 39.488 107.076 39.201 106.236 39.201C105.41 39.201 104.745 39.488 104.241 40.062C103.737 40.636 103.485 41.511 103.485 42.687C103.485 43.863 103.737 44.745 104.241 45.333C104.745 45.907 105.41 46.194 106.236 46.194Z" fill="#343434"/>
<path d="M112.532 48L114.758 44.031C115.038 43.569 115.304 43.191 115.556 42.897C115.822 42.589 116.109 42.351 116.417 42.183C116.725 42.015 117.075 41.91 117.467 41.868L116.921 42.687L112.994 37.395H115.808L118.937 41.553H120.26V37.395H122.864V41.553H124.166L127.274 37.395H130.109L126.161 42.687L125.615 41.868C126.007 41.91 126.357 42.015 126.665 42.183C126.973 42.351 127.26 42.589 127.526 42.897C127.806 43.191 128.079 43.569 128.345 44.031L130.571 48H127.778L125.972 44.808C125.79 44.486 125.608 44.234 125.426 44.052C125.244 43.87 125.041 43.744 124.817 43.674C124.593 43.604 124.32 43.569 123.998 43.569H122.864V48H120.26V43.569H119.105C118.783 43.569 118.51 43.604 118.286 43.674C118.062 43.744 117.859 43.87 117.677 44.052C117.509 44.234 117.327 44.486 117.131 44.808L115.325 48H112.532Z" fill="#343434"/>
<path d="M131.949 48V37.395H134.553V41.553H136.149L139.257 37.395H142.071L138.165 42.687L137.598 41.868C137.99 41.91 138.333 42.015 138.627 42.183C138.935 42.351 139.222 42.589 139.488 42.897C139.768 43.191 140.041 43.569 140.307 44.031L142.533 48H139.74L137.934 44.808C137.752 44.486 137.57 44.234 137.388 44.052C137.206 43.87 137.003 43.744 136.779 43.674C136.555 43.604 136.282 43.569 135.96 43.569H134.553V48H131.949Z" fill="#343434"/>
<path d="M143.8 52.767L143.191 50.688C143.849 50.548 144.402 50.387 144.85 50.205C145.298 50.023 145.669 49.785 145.963 49.491C146.257 49.197 146.502 48.819 146.698 48.357L147.223 47.118L147.16 48.147L142.54 37.395H145.333L148.651 45.669H148.042L151.381 37.395H154.027L149.197 48.588C148.875 49.344 148.525 49.967 148.147 50.457C147.769 50.961 147.363 51.36 146.929 51.654C146.495 51.962 146.019 52.2 145.501 52.368C144.983 52.536 144.416 52.669 143.8 52.767Z" fill="#343434"/>
<path d="M161.299 48V37.437H166.507C167.753 37.437 168.677 37.675 169.279 38.151C169.895 38.627 170.203 39.313 170.203 40.209C170.203 40.881 169.972 41.448 169.51 41.91C169.048 42.358 168.446 42.631 167.704 42.729V42.456C168.586 42.484 169.279 42.743 169.783 43.233C170.301 43.709 170.56 44.325 170.56 45.081C170.56 45.977 170.217 46.691 169.531 47.223C168.859 47.741 167.914 48 166.696 48H161.299ZM163.105 46.74H166.57C167.284 46.74 167.83 46.593 168.208 46.299C168.586 45.991 168.775 45.557 168.775 44.997C168.775 44.423 168.586 43.989 168.208 43.695C167.83 43.401 167.284 43.254 166.57 43.254H163.105V46.74ZM163.105 41.994H166.339C166.997 41.994 167.508 41.847 167.872 41.553C168.236 41.259 168.418 40.853 168.418 40.335C168.418 39.803 168.236 39.397 167.872 39.117C167.508 38.837 166.997 38.697 166.339 38.697H163.105V41.994Z" fill="#343434"/>
<path d="M177.577 50.73V46.509H178.732C179.208 45.795 179.551 44.955 179.761 43.989C179.985 43.023 180.097 41.875 180.097 40.545V37.437H187.678V46.509H189.358V50.73H187.72V48H179.236V50.73H177.577ZM180.538 46.53H185.893V38.907H181.777V40.881C181.777 41.945 181.672 42.981 181.462 43.989C181.252 44.983 180.944 45.83 180.538 46.53Z" fill="#343434"/>
<path d="M196.441 48.189C194.761 48.189 193.431 47.706 192.451 46.74C191.485 45.774 191.002 44.444 191.002 42.75C191.002 41.63 191.212 40.664 191.632 39.852C192.066 39.026 192.661 38.389 193.417 37.941C194.173 37.479 195.055 37.248 196.063 37.248C197.029 37.248 197.848 37.458 198.52 37.878C199.192 38.284 199.703 38.865 200.053 39.621C200.403 40.377 200.578 41.273 200.578 42.309V42.939H192.493V41.805H199.276L198.919 42.078C198.919 40.986 198.674 40.139 198.184 39.537C197.708 38.935 197.001 38.634 196.063 38.634C195.041 38.634 194.25 38.991 193.69 39.705C193.13 40.405 192.85 41.364 192.85 42.582V42.771C192.85 44.059 193.165 45.032 193.795 45.69C194.439 46.348 195.328 46.677 196.462 46.677C197.092 46.677 197.68 46.586 198.226 46.404C198.772 46.222 199.297 45.921 199.801 45.501L200.431 46.824C199.955 47.258 199.36 47.594 198.646 47.832C197.946 48.07 197.211 48.189 196.441 48.189Z" fill="#343434"/>
<path d="M203.238 48V37.437H205.128V41.805H207.039L210.441 37.437H212.52L208.572 42.582L208.068 41.994C208.474 42.036 208.824 42.141 209.118 42.309C209.412 42.463 209.692 42.694 209.958 43.002C210.238 43.31 210.539 43.723 210.861 44.241L213.045 48H210.987L209.076 44.745C208.866 44.367 208.656 44.073 208.446 43.863C208.236 43.653 207.998 43.506 207.732 43.422C207.48 43.338 207.158 43.296 206.766 43.296H205.128V48H203.238Z" fill="#343434"/>
<path d="M214.744 52.536V39.936C214.744 39.53 214.73 39.117 214.702 38.697C214.674 38.277 214.632 37.857 214.576 37.437H216.424L216.655 39.873H216.424C216.634 39.061 217.082 38.424 217.768 37.962C218.454 37.486 219.273 37.248 220.225 37.248C221.163 37.248 221.982 37.465 222.682 37.899C223.382 38.333 223.921 38.963 224.299 39.789C224.691 40.601 224.887 41.574 224.887 42.708C224.887 43.842 224.691 44.822 224.299 45.648C223.921 46.474 223.382 47.104 222.682 47.538C221.982 47.972 221.163 48.189 220.225 48.189C219.287 48.189 218.475 47.958 217.789 47.496C217.117 47.02 216.662 46.383 216.424 45.585H216.655V52.536H214.744ZM219.784 46.677C220.75 46.677 221.52 46.341 222.094 45.669C222.668 44.997 222.955 44.01 222.955 42.708C222.955 41.406 222.668 40.426 222.094 39.768C221.52 39.11 220.75 38.781 219.784 38.781C218.818 38.781 218.048 39.11 217.474 39.768C216.914 40.426 216.634 41.406 216.634 42.708C216.634 44.01 216.914 44.997 217.474 45.669C218.048 46.341 218.818 46.677 219.784 46.677Z" fill="#343434"/>
<path d="M232.494 48.189C230.814 48.189 229.484 47.706 228.504 46.74C227.538 45.774 227.055 44.444 227.055 42.75C227.055 41.63 227.265 40.664 227.685 39.852C228.119 39.026 228.714 38.389 229.47 37.941C230.226 37.479 231.108 37.248 232.116 37.248C233.082 37.248 233.901 37.458 234.573 37.878C235.245 38.284 235.756 38.865 236.106 39.621C236.456 40.377 236.631 41.273 236.631 42.309V42.939H228.546V41.805H235.329L234.972 42.078C234.972 40.986 234.727 40.139 234.237 39.537C233.761 38.935 233.054 38.634 232.116 38.634C231.094 38.634 230.303 38.991 229.743 39.705C229.183 40.405 228.903 41.364 228.903 42.582V42.771C228.903 44.059 229.218 45.032 229.848 45.69C230.492 46.348 231.381 46.677 232.515 46.677C233.145 46.677 233.733 46.586 234.279 46.404C234.825 46.222 235.35 45.921 235.854 45.501L236.484 46.824C236.008 47.258 235.413 47.594 234.699 47.832C233.999 48.07 233.264 48.189 232.494 48.189Z" fill="#343434"/>
<path d="M241.559 48V38.97H237.758V37.437H247.25V38.97H243.449V48H241.559Z" fill="#343434"/>
<path d="M253.801 48.189C252.121 48.189 250.791 47.706 249.811 46.74C248.845 45.774 248.362 44.444 248.362 42.75C248.362 41.63 248.572 40.664 248.992 39.852C249.426 39.026 250.021 38.389 250.777 37.941C251.533 37.479 252.415 37.248 253.423 37.248C254.389 37.248 255.208 37.458 255.88 37.878C256.552 38.284 257.063 38.865 257.413 39.621C257.763 40.377 257.938 41.273 257.938 42.309V42.939H249.853V41.805H256.636L256.279 42.078C256.279 40.986 256.034 40.139 255.544 39.537C255.068 38.935 254.361 38.634 253.423 38.634C252.401 38.634 251.61 38.991 251.05 39.705C250.49 40.405 250.21 41.364 250.21 42.582V42.771C250.21 44.059 250.525 45.032 251.155 45.69C251.799 46.348 252.688 46.677 253.822 46.677C254.452 46.677 255.04 46.586 255.586 46.404C256.132 46.222 256.657 45.921 257.161 45.501L257.791 46.824C257.315 47.258 256.72 47.594 256.006 47.832C255.306 48.07 254.571 48.189 253.801 48.189Z" fill="#343434"/>
<path d="M391 26C391 29.3137 388.314 32 385 32C381.686 32 379 29.3137 379 26C379 22.6863 381.686 20 385 20C388.314 20 391 22.6863 391 26Z" fill="#F0D3D3"/>
<defs>
<linearGradient id="paint0_linear_99_75" x1="205.5" y1="0" x2="205.5" y2="128" gradientUnits="userSpaceOnUse">
<stop stop-color="white"/>
<stop offset="1" stop-color="white" stop-opacity="0.8"/>
</linearGradient>
</defs>
</svg>
