<svg width="411" height="128" viewBox="0 0 411 128" fill="none" xmlns="http://www.w3.org/2000/svg">
<rect width="411" height="128" rx="16" fill="url(#paint0_linear_99_57)"/>
<path d="M33.8062 48V33.195H46.3012V48H44.3692V34.833H35.7382V48H33.8062Z" fill="#343434"/>
<path d="M54.2518 48.189C53.2158 48.189 52.3198 47.972 51.5638 47.538C50.8078 47.09 50.2198 46.46 49.7998 45.648C49.3798 44.822 49.1698 43.842 49.1698 42.708C49.1698 41.588 49.3798 40.622 49.7998 39.81C50.2198 38.984 50.8078 38.354 51.5638 37.92C52.3198 37.472 53.2158 37.248 54.2518 37.248C55.2878 37.248 56.1838 37.472 56.9398 37.92C57.7098 38.354 58.2978 38.984 58.7038 39.81C59.1238 40.622 59.3338 41.588 59.3338 42.708C59.3338 43.842 59.1238 44.822 58.7038 45.648C58.2978 46.46 57.7098 47.09 56.9398 47.538C56.1838 47.972 55.2878 48.189 54.2518 48.189ZM54.2518 46.677C55.2038 46.677 55.9668 46.341 56.5408 45.669C57.1148 44.997 57.4018 44.01 57.4018 42.708C57.4018 41.406 57.1148 40.426 56.5408 39.768C55.9668 39.11 55.2038 38.781 54.2518 38.781C53.2858 38.781 52.5158 39.11 51.9418 39.768C51.3818 40.426 51.1018 41.406 51.1018 42.708C51.1018 44.01 51.3818 44.997 51.9418 45.669C52.5158 46.341 53.2858 46.677 54.2518 46.677Z" fill="#343434"/>
<path d="M62.062 48V37.437H63.805V46.194H63.238L69.79 37.437H71.386V48H69.643V39.222H70.231L63.658 48H62.062ZM66.724 36.471C66.122 36.471 65.569 36.366 65.065 36.156C64.561 35.946 64.127 35.645 63.763 35.253C63.413 34.847 63.147 34.343 62.965 33.741L64.057 33.342C64.309 34.014 64.652 34.511 65.086 34.833C65.52 35.141 66.066 35.295 66.724 35.295C67.396 35.295 67.949 35.148 68.383 34.854C68.817 34.56 69.195 34.063 69.517 33.363L70.546 33.741C70.196 34.693 69.685 35.386 69.013 35.82C68.355 36.254 67.592 36.471 66.724 36.471Z" fill="#343434"/>
<path d="M74.6538 48V37.437H76.2498L80.1348 44.346L84.0408 37.437H85.6158V48H83.9358V39.579H84.3978L80.6178 46.299H79.6728L75.8928 39.558H76.3338V48H74.6538Z" fill="#343434"/>
<path d="M93.7583 48.189C92.0783 48.189 90.7483 47.706 89.7683 46.74C88.8023 45.774 88.3193 44.444 88.3193 42.75C88.3193 41.63 88.5293 40.664 88.9493 39.852C89.3833 39.026 89.9783 38.389 90.7343 37.941C91.4903 37.479 92.3723 37.248 93.3803 37.248C94.3463 37.248 95.1653 37.458 95.8373 37.878C96.5093 38.284 97.0203 38.865 97.3703 39.621C97.7203 40.377 97.8953 41.273 97.8953 42.309V42.939H89.8103V41.805H96.5933L96.2363 42.078C96.2363 40.986 95.9913 40.139 95.5013 39.537C95.0253 38.935 94.3183 38.634 93.3803 38.634C92.3583 38.634 91.5673 38.991 91.0073 39.705C90.4473 40.405 90.1673 41.364 90.1673 42.582V42.771C90.1673 44.059 90.4823 45.032 91.1123 45.69C91.7563 46.348 92.6453 46.677 93.7793 46.677C94.4093 46.677 94.9973 46.586 95.5433 46.404C96.0893 46.222 96.6143 45.921 97.1183 45.501L97.7483 46.824C97.2723 47.258 96.6773 47.594 95.9633 47.832C95.2633 48.07 94.5283 48.189 93.7583 48.189ZM94.2623 35.274V33.321H96.2153V35.274H94.2623ZM90.5453 35.274V33.321H92.4983V35.274H90.5453Z" fill="#343434"/>
<path d="M100.555 48V37.437H102.361V46.509H106.666V37.437H108.472V46.509H112.756V37.437H114.583V48H100.555Z" fill="#343434"/>
<path d="M117.864 48V37.437H119.754V41.175H122.862C124.234 41.175 125.263 41.469 125.949 42.057C126.649 42.631 126.999 43.464 126.999 44.556C126.999 45.256 126.838 45.865 126.516 46.383C126.194 46.901 125.725 47.3 125.109 47.58C124.493 47.86 123.744 48 122.862 48H117.864ZM119.754 46.677H122.652C123.478 46.677 124.108 46.509 124.542 46.173C124.976 45.823 125.193 45.291 125.193 44.577C125.193 43.863 124.976 43.338 124.542 43.002C124.122 42.666 123.492 42.498 122.652 42.498H119.754V46.677Z" fill="#343434"/>
<path d="M130.06 50.499L129.199 49.827C129.591 49.421 129.857 49.036 129.997 48.672C130.137 48.322 130.207 47.958 130.207 47.58L130.627 48H129.094V45.669H131.425V47.286C131.425 47.888 131.327 48.441 131.131 48.945C130.935 49.463 130.578 49.981 130.06 50.499Z" fill="#343434"/>
<path d="M139.742 48V37.395H142.346V41.553H143.942L147.05 37.395H149.864L145.958 42.687L145.391 41.868C145.783 41.91 146.126 42.015 146.42 42.183C146.728 42.351 147.015 42.589 147.281 42.897C147.561 43.191 147.834 43.569 148.1 44.031L150.326 48H147.533L145.727 44.808C145.545 44.486 145.363 44.234 145.181 44.052C144.999 43.87 144.796 43.744 144.572 43.674C144.348 43.604 144.075 43.569 143.753 43.569H142.346V48H139.742Z" fill="#343434"/>
<path d="M155.898 48.21C154.974 48.21 154.162 47.993 153.462 47.559C152.762 47.111 152.216 46.474 151.824 45.648C151.432 44.822 151.236 43.835 151.236 42.687C151.236 41.539 151.432 40.559 151.824 39.747C152.216 38.921 152.762 38.291 153.462 37.857C154.162 37.409 154.974 37.185 155.898 37.185C156.794 37.185 157.578 37.409 158.25 37.857C158.936 38.291 159.391 38.879 159.615 39.621H159.384L159.615 37.395H162.135C162.093 37.829 162.051 38.27 162.009 38.718C161.981 39.166 161.967 39.607 161.967 40.041V48H159.363L159.342 45.816H159.594C159.37 46.544 158.915 47.125 158.229 47.559C157.543 47.993 156.766 48.21 155.898 48.21ZM156.633 46.194C157.459 46.194 158.124 45.907 158.628 45.333C159.132 44.745 159.384 43.863 159.384 42.687C159.384 41.511 159.132 40.636 158.628 40.062C158.124 39.488 157.459 39.201 156.633 39.201C155.807 39.201 155.142 39.488 154.638 40.062C154.134 40.636 153.882 41.511 153.882 42.687C153.882 43.863 154.127 44.745 154.617 45.333C155.121 45.907 155.793 46.194 156.633 46.194Z" fill="#343434"/>
<path d="M165.028 48V37.395H167.632V41.553H169.228L172.336 37.395H175.15L171.244 42.687L170.677 41.868C171.069 41.91 171.412 42.015 171.706 42.183C172.014 42.351 172.301 42.589 172.567 42.897C172.847 43.191 173.12 43.569 173.386 44.031L175.612 48H172.819L171.013 44.808C170.831 44.486 170.649 44.234 170.467 44.052C170.285 43.87 170.082 43.744 169.858 43.674C169.634 43.604 169.361 43.569 169.039 43.569H167.632V48H165.028Z" fill="#343434"/>
<path d="M186.674 48.21C185.722 48.21 184.826 48.098 183.986 47.874C183.16 47.65 182.467 47.328 181.907 46.908L182.642 45.186C183.16 45.564 183.762 45.851 184.448 46.047C185.148 46.243 185.883 46.341 186.653 46.341C187.549 46.341 188.2 46.222 188.606 45.984C189.026 45.732 189.236 45.368 189.236 44.892C189.236 44.444 189.075 44.108 188.753 43.884C188.431 43.646 187.955 43.527 187.325 43.527H184.574V41.721H187.073C187.647 41.721 188.088 41.609 188.396 41.385C188.704 41.161 188.858 40.846 188.858 40.44C188.858 40.006 188.669 39.663 188.291 39.411C187.927 39.159 187.325 39.033 186.485 39.033C185.757 39.033 185.092 39.124 184.49 39.306C183.888 39.474 183.321 39.726 182.789 40.062L182.075 38.424C182.649 38.018 183.342 37.71 184.154 37.5C184.98 37.29 185.876 37.185 186.842 37.185C188.256 37.185 189.341 37.444 190.097 37.962C190.853 38.48 191.231 39.215 191.231 40.167C191.231 40.811 191.007 41.364 190.559 41.826C190.125 42.288 189.537 42.575 188.795 42.687V42.393C189.663 42.449 190.349 42.708 190.853 43.17C191.357 43.632 191.609 44.255 191.609 45.039C191.609 46.005 191.182 46.775 190.328 47.349C189.474 47.923 188.256 48.21 186.674 48.21Z" fill="#343434"/>
<path d="M198.082 48.21C197.158 48.21 196.346 47.993 195.646 47.559C194.946 47.111 194.4 46.474 194.008 45.648C193.616 44.822 193.42 43.835 193.42 42.687C193.42 41.539 193.616 40.559 194.008 39.747C194.4 38.921 194.946 38.291 195.646 37.857C196.346 37.409 197.158 37.185 198.082 37.185C198.978 37.185 199.762 37.409 200.434 37.857C201.12 38.291 201.575 38.879 201.799 39.621H201.568L201.799 37.395H204.319C204.277 37.829 204.235 38.27 204.193 38.718C204.165 39.166 204.151 39.607 204.151 40.041V48H201.547L201.526 45.816H201.778C201.554 46.544 201.099 47.125 200.413 47.559C199.727 47.993 198.95 48.21 198.082 48.21ZM198.817 46.194C199.643 46.194 200.308 45.907 200.812 45.333C201.316 44.745 201.568 43.863 201.568 42.687C201.568 41.511 201.316 40.636 200.812 40.062C200.308 39.488 199.643 39.201 198.817 39.201C197.991 39.201 197.326 39.488 196.822 40.062C196.318 40.636 196.066 41.511 196.066 42.687C196.066 43.863 196.311 44.745 196.801 45.333C197.305 45.907 197.977 46.194 198.817 46.194Z" fill="#343434"/>
<path d="M207.297 52.536V40.041C207.297 39.607 207.283 39.166 207.255 38.718C207.227 38.27 207.185 37.829 207.129 37.395H209.67L209.901 39.621H209.67C209.88 38.879 210.321 38.291 210.993 37.857C211.679 37.409 212.47 37.185 213.366 37.185C214.304 37.185 215.123 37.409 215.823 37.857C216.523 38.291 217.069 38.921 217.461 39.747C217.853 40.559 218.049 41.539 218.049 42.687C218.049 43.835 217.853 44.822 217.461 45.648C217.069 46.474 216.523 47.111 215.823 47.559C215.123 47.993 214.304 48.21 213.366 48.21C212.484 48.21 211.707 47.993 211.035 47.559C210.363 47.125 209.915 46.544 209.691 45.816H209.922V52.536H207.297ZM212.631 46.194C213.471 46.194 214.143 45.907 214.647 45.333C215.151 44.745 215.403 43.863 215.403 42.687C215.403 41.511 215.151 40.636 214.647 40.062C214.143 39.488 213.471 39.201 212.631 39.201C211.805 39.201 211.14 39.488 210.636 40.062C210.132 40.636 209.88 41.511 209.88 42.687C209.88 43.863 210.132 44.745 210.636 45.333C211.14 45.907 211.805 46.194 212.631 46.194Z" fill="#343434"/>
<path d="M224.701 48.21C223.777 48.21 222.965 47.993 222.265 47.559C221.565 47.111 221.019 46.474 220.627 45.648C220.235 44.822 220.039 43.835 220.039 42.687C220.039 41.539 220.235 40.559 220.627 39.747C221.019 38.921 221.565 38.291 222.265 37.857C222.965 37.409 223.777 37.185 224.701 37.185C225.597 37.185 226.381 37.409 227.053 37.857C227.739 38.291 228.194 38.879 228.418 39.621H228.187L228.418 37.395H230.938C230.896 37.829 230.854 38.27 230.812 38.718C230.784 39.166 230.77 39.607 230.77 40.041V48H228.166L228.145 45.816H228.397C228.173 46.544 227.718 47.125 227.032 47.559C226.346 47.993 225.569 48.21 224.701 48.21ZM225.436 46.194C226.262 46.194 226.927 45.907 227.431 45.333C227.935 44.745 228.187 43.863 228.187 42.687C228.187 41.511 227.935 40.636 227.431 40.062C226.927 39.488 226.262 39.201 225.436 39.201C224.61 39.201 223.945 39.488 223.441 40.062C222.937 40.636 222.685 41.511 222.685 42.687C222.685 43.863 222.93 44.745 223.42 45.333C223.924 45.907 224.596 46.194 225.436 46.194Z" fill="#343434"/>
<path d="M238.809 48.21C237.143 48.21 235.813 47.706 234.819 46.698C233.839 45.69 233.349 44.213 233.349 42.267V40.461C233.349 38.459 233.804 36.849 234.714 35.631C235.624 34.413 236.996 33.608 238.83 33.216L242.715 32.334L243.429 34.392L239.061 35.358C238.333 35.512 237.731 35.806 237.255 36.24C236.779 36.66 236.422 37.164 236.184 37.752C235.946 38.34 235.827 38.97 235.827 39.642V40.755H235.47C235.624 40.125 235.883 39.579 236.247 39.117C236.611 38.641 237.073 38.27 237.633 38.004C238.193 37.738 238.83 37.605 239.544 37.605C240.44 37.605 241.224 37.815 241.896 38.235C242.582 38.641 243.121 39.236 243.513 40.02C243.905 40.79 244.101 41.714 244.101 42.792C244.101 43.898 243.877 44.857 243.429 45.669C242.995 46.481 242.379 47.111 241.581 47.559C240.797 47.993 239.873 48.21 238.809 48.21ZM238.725 46.215C239.593 46.215 240.265 45.942 240.741 45.396C241.231 44.836 241.476 44.003 241.476 42.897C241.476 41.819 241.231 41 240.741 40.44C240.251 39.866 239.579 39.579 238.725 39.579C237.871 39.579 237.199 39.859 236.709 40.419C236.219 40.979 235.974 41.777 235.974 42.813C235.974 43.947 236.219 44.801 236.709 45.375C237.199 45.935 237.871 46.215 238.725 46.215Z" fill="#343434"/>
<path d="M250.767 48.21C249.843 48.21 249.031 47.993 248.331 47.559C247.631 47.111 247.085 46.474 246.693 45.648C246.301 44.822 246.105 43.835 246.105 42.687C246.105 41.539 246.301 40.559 246.693 39.747C247.085 38.921 247.631 38.291 248.331 37.857C249.031 37.409 249.843 37.185 250.767 37.185C251.663 37.185 252.447 37.409 253.119 37.857C253.805 38.291 254.26 38.879 254.484 39.621H254.253L254.484 37.395H257.004C256.962 37.829 256.92 38.27 256.878 38.718C256.85 39.166 256.836 39.607 256.836 40.041V48H254.232L254.211 45.816H254.463C254.239 46.544 253.784 47.125 253.098 47.559C252.412 47.993 251.635 48.21 250.767 48.21ZM251.502 46.194C252.328 46.194 252.993 45.907 253.497 45.333C254.001 44.745 254.253 43.863 254.253 42.687C254.253 41.511 254.001 40.636 253.497 40.062C252.993 39.488 252.328 39.201 251.502 39.201C250.676 39.201 250.011 39.488 249.507 40.062C249.003 40.636 248.751 41.511 248.751 42.687C248.751 43.863 248.996 44.745 249.486 45.333C249.99 45.907 250.662 46.194 251.502 46.194Z" fill="#343434"/>
<path d="M262.186 48V39.453H258.553V37.395H268.444V39.453H264.79V48H262.186Z" fill="#343434"/>
<path d="M270.069 48V37.395H272.673V40.944H275.466C276.88 40.944 277.944 41.245 278.658 41.847C279.372 42.435 279.729 43.289 279.729 44.409C279.729 45.137 279.561 45.774 279.225 46.32C278.889 46.852 278.399 47.265 277.755 47.559C277.125 47.853 276.362 48 275.466 48H270.069ZM272.673 46.278H275.109C275.823 46.278 276.369 46.131 276.747 45.837C277.125 45.529 277.314 45.067 277.314 44.451C277.314 43.835 277.125 43.387 276.747 43.107C276.383 42.813 275.837 42.666 275.109 42.666H272.673V46.278ZM281.052 48V37.395H283.656V48H281.052Z" fill="#343434"/>
<path d="M286.64 48V37.395H292.289C293.619 37.395 294.592 37.64 295.208 38.13C295.824 38.606 296.132 39.285 296.132 40.167C296.132 40.839 295.908 41.399 295.46 41.847C295.012 42.295 294.417 42.575 293.675 42.687V42.393C294.585 42.449 295.285 42.715 295.775 43.191C296.265 43.667 296.51 44.283 296.51 45.039C296.51 45.949 296.16 46.67 295.46 47.202C294.76 47.734 293.766 48 292.478 48H286.64ZM289.076 46.383H292.205C292.821 46.383 293.29 46.257 293.612 46.005C293.948 45.753 294.116 45.382 294.116 44.892C294.116 44.402 293.948 44.031 293.612 43.779C293.29 43.527 292.821 43.401 292.205 43.401H289.076V46.383ZM289.076 41.784H291.974C292.534 41.784 292.968 41.665 293.276 41.427C293.584 41.175 293.738 40.825 293.738 40.377C293.738 39.929 293.584 39.586 293.276 39.348C292.968 39.11 292.534 38.991 291.974 38.991H289.076V41.784Z" fill="#343434"/>
<path d="M302.98 48.21C302.056 48.21 301.244 47.993 300.544 47.559C299.844 47.111 299.298 46.474 298.906 45.648C298.514 44.822 298.318 43.835 298.318 42.687C298.318 41.539 298.514 40.559 298.906 39.747C299.298 38.921 299.844 38.291 300.544 37.857C301.244 37.409 302.056 37.185 302.98 37.185C303.876 37.185 304.66 37.409 305.332 37.857C306.018 38.291 306.473 38.879 306.697 39.621H306.466L306.697 37.395H309.217C309.175 37.829 309.133 38.27 309.091 38.718C309.063 39.166 309.049 39.607 309.049 40.041V48H306.445L306.424 45.816H306.676C306.452 46.544 305.997 47.125 305.311 47.559C304.625 47.993 303.848 48.21 302.98 48.21ZM303.715 46.194C304.541 46.194 305.206 45.907 305.71 45.333C306.214 44.745 306.466 43.863 306.466 42.687C306.466 41.511 306.214 40.636 305.71 40.062C305.206 39.488 304.541 39.201 303.715 39.201C302.889 39.201 302.224 39.488 301.72 40.062C301.216 40.636 300.964 41.511 300.964 42.687C300.964 43.863 301.209 44.745 301.699 45.333C302.203 45.907 302.875 46.194 303.715 46.194Z" fill="#343434"/>
<path d="M314.399 48V39.453H310.766V37.395H320.657V39.453H317.003V48H314.399Z" fill="#343434"/>
<path d="M322.282 48V37.395H324.886V40.944H327.679C329.093 40.944 330.157 41.245 330.871 41.847C331.585 42.435 331.942 43.289 331.942 44.409C331.942 45.137 331.774 45.774 331.438 46.32C331.102 46.852 330.612 47.265 329.968 47.559C329.338 47.853 328.575 48 327.679 48H322.282ZM324.886 46.278H327.322C328.036 46.278 328.582 46.131 328.96 45.837C329.338 45.529 329.527 45.067 329.527 44.451C329.527 43.835 329.338 43.387 328.96 43.107C328.596 42.813 328.05 42.666 327.322 42.666H324.886V46.278Z" fill="#343434"/>
<path d="M33.4912 72V61.395H35.8642V69.417H35.2342L41.2612 61.395H43.4242V72H41.0512V63.957H41.7022L35.6542 72H33.4912Z" fill="#343434"/>
<path d="M50.3171 72.21C49.3651 72.21 48.4691 72.098 47.6291 71.874C46.8031 71.65 46.1101 71.328 45.5501 70.908L46.2851 69.186C46.8031 69.564 47.4051 69.851 48.0911 70.047C48.7911 70.243 49.5261 70.341 50.2961 70.341C51.1921 70.341 51.8431 70.222 52.2491 69.984C52.6691 69.732 52.8791 69.368 52.8791 68.892C52.8791 68.444 52.7181 68.108 52.3961 67.884C52.0741 67.646 51.5981 67.527 50.9681 67.527H48.2171V65.721H50.7161C51.2901 65.721 51.7311 65.609 52.0391 65.385C52.3471 65.161 52.5011 64.846 52.5011 64.44C52.5011 64.006 52.3121 63.663 51.9341 63.411C51.5701 63.159 50.9681 63.033 50.1281 63.033C49.4001 63.033 48.7351 63.124 48.1331 63.306C47.5311 63.474 46.9641 63.726 46.4321 64.062L45.7181 62.424C46.2921 62.018 46.9851 61.71 47.7971 61.5C48.6231 61.29 49.5191 61.185 50.4851 61.185C51.8991 61.185 52.9841 61.444 53.7401 61.962C54.4961 62.48 54.8741 63.215 54.8741 64.167C54.8741 64.811 54.6501 65.364 54.2021 65.826C53.7681 66.288 53.1801 66.575 52.4381 66.687V66.393C53.3061 66.449 53.9921 66.708 54.4961 67.17C55.0001 67.632 55.2521 68.255 55.2521 69.039C55.2521 70.005 54.8251 70.775 53.9711 71.349C53.1171 71.923 51.8991 72.21 50.3171 72.21Z" fill="#343434"/>
<path d="M62.3646 74.73V70.005H63.5826C64.0026 69.347 64.3036 68.577 64.4856 67.695C64.6816 66.799 64.7796 65.707 64.7796 64.419V61.395H72.9486V70.005H74.6706V74.73H72.4446V72H64.5906V74.73H62.3646ZM65.9346 70.026H70.4916V63.369H67.0056V65.007C67.0056 65.945 66.9146 66.862 66.7326 67.758C66.5506 68.654 66.2846 69.41 65.9346 70.026Z" fill="#343434"/>
<path d="M81.4706 72.21C80.3786 72.21 79.4336 71.986 78.6356 71.538C77.8376 71.09 77.2146 70.453 76.7666 69.627C76.3326 68.801 76.1156 67.821 76.1156 66.687C76.1156 65.553 76.3326 64.58 76.7666 63.768C77.2146 62.942 77.8376 62.305 78.6356 61.857C79.4336 61.409 80.3786 61.185 81.4706 61.185C82.5626 61.185 83.5076 61.409 84.3056 61.857C85.1176 62.305 85.7406 62.942 86.1746 63.768C86.6226 64.58 86.8466 65.553 86.8466 66.687C86.8466 67.821 86.6226 68.801 86.1746 69.627C85.7406 70.453 85.1176 71.09 84.3056 71.538C83.5076 71.986 82.5626 72.21 81.4706 72.21ZM81.4706 70.194C82.2966 70.194 82.9546 69.907 83.4446 69.333C83.9346 68.745 84.1796 67.863 84.1796 66.687C84.1796 65.511 83.9346 64.636 83.4446 64.062C82.9546 63.488 82.2966 63.201 81.4706 63.201C80.6446 63.201 79.9866 63.488 79.4966 64.062C79.0066 64.636 78.7616 65.511 78.7616 66.687C78.7616 67.863 79.0066 68.745 79.4966 69.333C79.9866 69.907 80.6446 70.194 81.4706 70.194Z" fill="#343434"/>
<path d="M89.334 72V61.395H91.518L95.172 67.737L98.826 61.395H101.01V72H98.7V64.335H99.183L95.781 70.278H94.563L91.161 64.335H91.644V72H89.334Z" fill="#343434"/>
<path d="M108.176 72.21C107.252 72.21 106.44 71.993 105.74 71.559C105.04 71.111 104.494 70.474 104.102 69.648C103.71 68.822 103.514 67.835 103.514 66.687C103.514 65.539 103.71 64.559 104.102 63.747C104.494 62.921 105.04 62.291 105.74 61.857C106.44 61.409 107.252 61.185 108.176 61.185C109.072 61.185 109.856 61.409 110.528 61.857C111.214 62.291 111.669 62.879 111.893 63.621H111.662L111.893 61.395H114.413C114.371 61.829 114.329 62.27 114.287 62.718C114.259 63.166 114.245 63.607 114.245 64.041V72H111.641L111.62 69.816H111.872C111.648 70.544 111.193 71.125 110.507 71.559C109.821 71.993 109.044 72.21 108.176 72.21ZM108.911 70.194C109.737 70.194 110.402 69.907 110.906 69.333C111.41 68.745 111.662 67.863 111.662 66.687C111.662 65.511 111.41 64.636 110.906 64.062C110.402 63.488 109.737 63.201 108.911 63.201C108.085 63.201 107.42 63.488 106.916 64.062C106.412 64.636 106.16 65.511 106.16 66.687C106.16 67.863 106.405 68.745 106.895 69.333C107.399 69.907 108.071 70.194 108.911 70.194Z" fill="#343434"/>
<path d="M127.59 72.189C126.54 72.189 125.63 71.972 124.86 71.538C124.09 71.09 123.488 70.453 123.054 69.627C122.634 68.787 122.424 67.793 122.424 66.645C122.424 65.511 122.641 64.545 123.075 63.747C123.509 62.935 124.111 62.319 124.881 61.899C125.651 61.465 126.554 61.248 127.59 61.248C128.276 61.248 128.941 61.367 129.585 61.605C130.229 61.829 130.754 62.158 131.16 62.592L130.509 63.936C130.103 63.544 129.655 63.257 129.165 63.075C128.675 62.879 128.192 62.781 127.716 62.781C126.68 62.781 125.868 63.117 125.28 63.789C124.692 64.447 124.398 65.406 124.398 66.666C124.398 67.94 124.692 68.92 125.28 69.606C125.868 70.292 126.68 70.635 127.716 70.635C128.178 70.635 128.654 70.544 129.144 70.362C129.634 70.18 130.089 69.893 130.509 69.501L131.16 70.824C130.74 71.272 130.201 71.615 129.543 71.853C128.899 72.077 128.248 72.189 127.59 72.189Z" fill="#343434"/>
<path d="M138.1 74.73V70.509H139.255C139.731 69.795 140.074 68.955 140.284 67.989C140.508 67.023 140.62 65.875 140.62 64.545V61.437H148.201V70.509H149.881V74.73H148.243V72H139.759V74.73H138.1ZM141.061 70.53H146.416V62.907H142.3V64.881C142.3 65.945 142.195 66.981 141.985 67.989C141.775 68.983 141.467 69.83 141.061 70.53Z" fill="#343434"/>
<path d="M156.963 72.189C155.283 72.189 153.953 71.706 152.973 70.74C152.007 69.774 151.524 68.444 151.524 66.75C151.524 65.63 151.734 64.664 152.154 63.852C152.588 63.026 153.183 62.389 153.939 61.941C154.695 61.479 155.577 61.248 156.585 61.248C157.551 61.248 158.37 61.458 159.042 61.878C159.714 62.284 160.225 62.865 160.575 63.621C160.925 64.377 161.1 65.273 161.1 66.309V66.939H153.015V65.805H159.798L159.441 66.078C159.441 64.986 159.196 64.139 158.706 63.537C158.23 62.935 157.523 62.634 156.585 62.634C155.563 62.634 154.772 62.991 154.212 63.705C153.652 64.405 153.372 65.364 153.372 66.582V66.771C153.372 68.059 153.687 69.032 154.317 69.69C154.961 70.348 155.85 70.677 156.984 70.677C157.614 70.677 158.202 70.586 158.748 70.404C159.294 70.222 159.819 69.921 160.323 69.501L160.953 70.824C160.477 71.258 159.882 71.594 159.168 71.832C158.468 72.07 157.733 72.189 156.963 72.189Z" fill="#343434"/>
<path d="M166.028 72V62.97H162.227V61.437H171.719V62.97H167.918V72H166.028Z" fill="#343434"/>
<path d="M173.46 72V61.437H175.35V65.805H177.261L180.663 61.437H182.742L178.794 66.582L178.29 65.994C178.696 66.036 179.046 66.141 179.34 66.309C179.634 66.463 179.914 66.694 180.18 67.002C180.46 67.31 180.761 67.723 181.083 68.241L183.267 72H181.209L179.298 68.745C179.088 68.367 178.878 68.073 178.668 67.863C178.458 67.653 178.22 67.506 177.954 67.422C177.702 67.338 177.38 67.296 176.988 67.296H175.35V72H173.46Z" fill="#343434"/>
<path d="M188.999 72.189C188.075 72.189 187.263 71.972 186.563 71.538C185.863 71.104 185.317 70.474 184.925 69.648C184.533 68.822 184.337 67.842 184.337 66.708C184.337 65.574 184.533 64.601 184.925 63.789C185.317 62.963 185.863 62.333 186.563 61.899C187.263 61.465 188.075 61.248 188.999 61.248C189.937 61.248 190.749 61.486 191.435 61.962C192.135 62.424 192.597 63.061 192.821 63.873H192.569L192.8 61.437H194.648C194.606 61.857 194.564 62.277 194.522 62.697C194.494 63.117 194.48 63.53 194.48 63.936V72H192.569V69.585H192.8C192.576 70.383 192.114 71.02 191.414 71.496C190.728 71.958 189.923 72.189 188.999 72.189ZM189.44 70.677C190.392 70.677 191.155 70.341 191.729 69.669C192.303 68.997 192.59 68.01 192.59 66.708C192.59 65.406 192.303 64.426 191.729 63.768C191.155 63.11 190.392 62.781 189.44 62.781C188.488 62.781 187.718 63.11 187.13 63.768C186.556 64.426 186.269 65.406 186.269 66.708C186.269 68.01 186.556 68.997 187.13 69.669C187.704 70.341 188.474 70.677 189.44 70.677Z" fill="#343434"/>
<path d="M197.844 72V61.437H199.44L203.325 68.346L207.231 61.437H208.806V72H207.126V63.579H207.588L203.808 70.299H202.863L199.083 63.558H199.524V72H197.844Z" fill="#343434"/>
<path d="M212.077 72V61.437H213.82V70.194H213.253L219.805 61.437H221.401V72H219.658V63.222H220.246L213.673 72H212.077Z" fill="#343434"/>
<path d="M230.206 72V61.437H232.096V65.805H237.682V61.437H239.572V72H237.682V67.317H232.096V72H230.206Z" fill="#343434"/>
<path d="M246.933 72.189C246.009 72.189 245.197 71.972 244.497 71.538C243.797 71.104 243.251 70.474 242.859 69.648C242.467 68.822 242.271 67.842 242.271 66.708C242.271 65.574 242.467 64.601 242.859 63.789C243.251 62.963 243.797 62.333 244.497 61.899C245.197 61.465 246.009 61.248 246.933 61.248C247.871 61.248 248.683 61.486 249.369 61.962C250.069 62.424 250.531 63.061 250.755 63.873H250.503L250.734 61.437H252.582C252.54 61.857 252.498 62.277 252.456 62.697C252.428 63.117 252.414 63.53 252.414 63.936V72H250.503V69.585H250.734C250.51 70.383 250.048 71.02 249.348 71.496C248.662 71.958 247.857 72.189 246.933 72.189ZM247.374 70.677C248.326 70.677 249.089 70.341 249.663 69.669C250.237 68.997 250.524 68.01 250.524 66.708C250.524 65.406 250.237 64.426 249.663 63.768C249.089 63.11 248.326 62.781 247.374 62.781C246.422 62.781 245.652 63.11 245.064 63.768C244.49 64.426 244.203 65.406 244.203 66.708C244.203 68.01 244.49 68.997 245.064 69.669C245.638 70.341 246.408 70.677 247.374 70.677Z" fill="#343434"/>
<path d="M261.379 76.536V63.936C261.379 63.53 261.365 63.117 261.337 62.697C261.309 62.277 261.267 61.857 261.211 61.437H263.059L263.29 63.873H263.059C263.269 63.061 263.717 62.424 264.403 61.962C265.089 61.486 265.908 61.248 266.86 61.248C267.798 61.248 268.617 61.465 269.317 61.899C270.017 62.333 270.556 62.963 270.934 63.789C271.326 64.601 271.522 65.574 271.522 66.708C271.522 67.842 271.326 68.822 270.934 69.648C270.556 70.474 270.017 71.104 269.317 71.538C268.617 71.972 267.798 72.189 266.86 72.189C265.922 72.189 265.11 71.958 264.424 71.496C263.752 71.02 263.297 70.383 263.059 69.585H263.29V76.536H261.379ZM266.419 70.677C267.385 70.677 268.155 70.341 268.729 69.669C269.303 68.997 269.59 68.01 269.59 66.708C269.59 65.406 269.303 64.426 268.729 63.768C268.155 63.11 267.385 62.781 266.419 62.781C265.453 62.781 264.683 63.11 264.109 63.768C263.549 64.426 263.269 65.406 263.269 66.708C263.269 68.01 263.549 68.997 264.109 69.669C264.683 70.341 265.453 70.677 266.419 70.677Z" fill="#343434"/>
<path d="M273.819 76.767L273.378 75.213C274.036 75.059 274.582 74.877 275.016 74.667C275.45 74.471 275.814 74.212 276.108 73.89C276.402 73.568 276.661 73.162 276.885 72.672L277.41 71.412L277.368 72.21L272.769 61.437H274.827L278.502 70.488H277.956L281.631 61.437H283.605L278.754 72.819C278.46 73.505 278.138 74.079 277.788 74.541C277.452 75.003 277.081 75.381 276.675 75.675C276.283 75.969 275.849 76.2 275.373 76.368C274.897 76.536 274.379 76.669 273.819 76.767Z" fill="#343434"/>
<path d="M285.536 72V61.437H287.426V65.805H289.337L292.739 61.437H294.818L290.87 66.582L290.366 65.994C290.772 66.036 291.122 66.141 291.416 66.309C291.71 66.463 291.99 66.694 292.256 67.002C292.536 67.31 292.837 67.723 293.159 68.241L295.343 72H293.285L291.374 68.745C291.164 68.367 290.954 68.073 290.744 67.863C290.534 67.653 290.296 67.506 290.03 67.422C289.778 67.338 289.456 67.296 289.064 67.296H287.426V72H285.536Z" fill="#343434"/>
<path d="M301.074 72.189C300.15 72.189 299.338 71.972 298.638 71.538C297.938 71.104 297.392 70.474 297 69.648C296.608 68.822 296.412 67.842 296.412 66.708C296.412 65.574 296.608 64.601 297 63.789C297.392 62.963 297.938 62.333 298.638 61.899C299.338 61.465 300.15 61.248 301.074 61.248C302.012 61.248 302.824 61.486 303.51 61.962C304.21 62.424 304.672 63.061 304.896 63.873H304.644L304.875 61.437H306.723C306.681 61.857 306.639 62.277 306.597 62.697C306.569 63.117 306.555 63.53 306.555 63.936V72H304.644V69.585H304.875C304.651 70.383 304.189 71.02 303.489 71.496C302.803 71.958 301.998 72.189 301.074 72.189ZM301.515 70.677C302.467 70.677 303.23 70.341 303.804 69.669C304.378 68.997 304.665 68.01 304.665 66.708C304.665 65.406 304.378 64.426 303.804 63.768C303.23 63.11 302.467 62.781 301.515 62.781C300.563 62.781 299.793 63.11 299.205 63.768C298.631 64.426 298.344 65.406 298.344 66.708C298.344 68.01 298.631 68.997 299.205 69.669C299.779 70.341 300.549 70.677 301.515 70.677Z" fill="#343434"/>
<path d="M308.512 72L313.3 66.078V67.023L308.785 61.437H311.074L314.371 65.658H313.678L316.975 61.437H319.243L314.791 66.981V66.12L319.516 72H317.206L313.678 67.485H314.371L310.801 72H308.512Z" fill="#343434"/>
<path d="M391 26C391 29.3137 388.314 32 385 32C381.686 32 379 29.3137 379 26C379 22.6863 381.686 20 385 20C388.314 20 391 22.6863 391 26Z" fill="#DBD3F0"/>
<defs>
<linearGradient id="paint0_linear_99_57" x1="205.5" y1="0" x2="205.5" y2="128" gradientUnits="userSpaceOnUse">
<stop stop-color="white"/>
<stop offset="1" stop-color="white" stop-opacity="0.8"/>
</linearGradient>
</defs>
</svg>
