<svg width="304" height="128" viewBox="0 0 304 128" fill="none" xmlns="http://www.w3.org/2000/svg">
<rect width="304" height="128" rx="16" fill="url(#paint0_linear_112_121)"/>
<path d="M33.08 34.646C33.08 33.314 33.314 32.162 33.782 31.19C34.25 30.218 34.922 29.468 35.798 28.94C36.686 28.412 37.742 28.148 38.966 28.148C40.178 28.148 41.222 28.412 42.098 28.94C42.986 29.468 43.67 30.218 44.15 31.19C44.63 32.162 44.87 33.308 44.87 34.628C44.87 35.96 44.63 37.118 44.15 38.102C43.67 39.074 42.986 39.83 42.098 40.37C41.222 40.898 40.178 41.162 38.966 41.162C37.742 41.162 36.692 40.898 35.816 40.37C34.94 39.83 34.262 39.074 33.782 38.102C33.314 37.118 33.08 35.966 33.08 34.646ZM34.844 34.646C34.844 36.23 35.192 37.466 35.888 38.354C36.584 39.242 37.61 39.686 38.966 39.686C40.274 39.686 41.288 39.248 42.008 38.372C42.74 37.484 43.106 36.242 43.106 34.646C43.106 33.05 42.746 31.814 42.026 30.938C41.306 30.062 40.286 29.624 38.966 29.624C37.61 29.624 36.584 30.062 35.888 30.938C35.192 31.814 34.844 33.05 34.844 34.646ZM47.3786 41V31.946H55.3526V41H53.7326V33.224H48.9986V41H47.3786ZM58.208 44.888V34.088C58.208 33.74 58.196 33.386 58.172 33.026C58.148 32.666 58.112 32.306 58.064 31.946H59.648L59.846 34.034H59.648C59.828 33.338 60.212 32.792 60.8 32.396C61.388 31.988 62.09 31.784 62.906 31.784C63.71 31.784 64.412 31.97 65.012 32.342C65.612 32.714 66.074 33.254 66.398 33.962C66.734 34.658 66.902 35.492 66.902 36.464C66.902 37.436 66.734 38.276 66.398 38.984C66.074 39.692 65.612 40.232 65.012 40.604C64.412 40.976 63.71 41.162 62.906 41.162C62.102 41.162 61.406 40.964 60.818 40.568C60.242 40.16 59.852 39.614 59.648 38.93H59.846V44.888H58.208ZM62.528 39.866C63.356 39.866 64.016 39.578 64.508 39.002C65 38.426 65.246 37.58 65.246 36.464C65.246 35.348 65 34.508 64.508 33.944C64.016 33.38 63.356 33.098 62.528 33.098C61.7 33.098 61.04 33.38 60.548 33.944C60.068 34.508 59.828 35.348 59.828 36.464C59.828 37.58 60.068 38.426 60.548 39.002C61.04 39.578 61.7 39.866 62.528 39.866ZM73.4218 41.162C71.9818 41.162 70.8418 40.748 70.0018 39.92C69.1738 39.092 68.7598 37.952 68.7598 36.5C68.7598 35.54 68.9398 34.712 69.2998 34.016C69.6718 33.308 70.1818 32.762 70.8298 32.378C71.4778 31.982 72.2338 31.784 73.0978 31.784C73.9258 31.784 74.6278 31.964 75.2038 32.324C75.7798 32.672 76.2178 33.17 76.5178 33.818C76.8178 34.466 76.9678 35.234 76.9678 36.122V36.662H70.0378V35.69H75.8518L75.5458 35.924C75.5458 34.988 75.3358 34.262 74.9158 33.746C74.5078 33.23 73.9018 32.972 73.0978 32.972C72.2218 32.972 71.5438 33.278 71.0638 33.89C70.5838 34.49 70.3438 35.312 70.3438 36.356V36.518C70.3438 37.622 70.6138 38.456 71.1538 39.02C71.7058 39.584 72.4678 39.866 73.4398 39.866C73.9798 39.866 74.4838 39.788 74.9518 39.632C75.4198 39.476 75.8698 39.218 76.3018 38.858L76.8418 39.992C76.4338 40.364 75.9238 40.652 75.3118 40.856C74.7118 41.06 74.0818 41.162 73.4218 41.162ZM78.3118 43.34V39.722H79.3018C79.7098 39.11 80.0038 38.39 80.1838 37.562C80.3758 36.734 80.4718 35.75 80.4718 34.61V31.946H86.9698V39.722H88.4098V43.34H87.0058V41H79.7338V43.34H78.3118ZM80.8498 39.74H85.4398V33.206H81.9118V34.898C81.9118 35.81 81.8218 36.698 81.6418 37.562C81.4618 38.414 81.1978 39.14 80.8498 39.74ZM94.4804 41.162C93.0404 41.162 91.9004 40.748 91.0604 39.92C90.2324 39.092 89.8184 37.952 89.8184 36.5C89.8184 35.54 89.9984 34.712 90.3584 34.016C90.7304 33.308 91.2404 32.762 91.8884 32.378C92.5364 31.982 93.2924 31.784 94.1564 31.784C94.9844 31.784 95.6864 31.964 96.2624 32.324C96.8384 32.672 97.2764 33.17 97.5764 33.818C97.8764 34.466 98.0264 35.234 98.0264 36.122V36.662H91.0964V35.69H96.9104L96.6044 35.924C96.6044 34.988 96.3944 34.262 95.9744 33.746C95.5664 33.23 94.9604 32.972 94.1564 32.972C93.2804 32.972 92.6024 33.278 92.1224 33.89C91.6424 34.49 91.4024 35.312 91.4024 36.356V36.518C91.4024 37.622 91.6724 38.456 92.2124 39.02C92.7644 39.584 93.5264 39.866 94.4984 39.866C95.0384 39.866 95.5424 39.788 96.0104 39.632C96.4784 39.476 96.9284 39.218 97.3604 38.858L97.9004 39.992C97.4924 40.364 96.9824 40.652 96.3704 40.856C95.7704 41.06 95.1404 41.162 94.4804 41.162ZM99.8743 41.216L99.2983 39.938C99.7183 39.746 100.066 39.518 100.342 39.254C100.63 38.978 100.852 38.63 101.008 38.21C101.176 37.79 101.296 37.268 101.368 36.644C101.44 36.02 101.476 35.264 101.476 34.376V31.946H108.154V41H106.534V33.224H102.988V34.412C102.988 35.804 102.88 36.956 102.664 37.868C102.46 38.768 102.13 39.482 101.674 40.01C101.23 40.538 100.63 40.94 99.8743 41.216ZM110.959 41V31.946H112.453V39.452H111.967L117.583 31.946H118.951V41H117.457V33.476H117.961L112.327 41H110.959ZM121.752 41V31.946H123.3V39.722H126.99V31.946H128.538V39.722H132.21V31.946H133.776V41H121.752ZM136.588 41V31.946H138.208V35.15H140.872C142.048 35.15 142.93 35.402 143.518 35.906C144.118 36.398 144.418 37.112 144.418 38.048C144.418 38.648 144.28 39.17 144.004 39.614C143.728 40.058 143.326 40.4 142.798 40.64C142.27 40.88 141.628 41 140.872 41H136.588ZM138.208 39.866H140.692C141.4 39.866 141.94 39.722 142.312 39.434C142.684 39.134 142.87 38.678 142.87 38.066C142.87 37.454 142.684 37.004 142.312 36.716C141.952 36.428 141.412 36.284 140.692 36.284H138.208V39.866ZM147.041 43.142L146.303 42.566C146.639 42.218 146.867 41.888 146.987 41.576C147.107 41.276 147.167 40.964 147.167 40.64L147.527 41H146.213V39.002H148.211V40.388C148.211 40.904 148.127 41.378 147.959 41.81C147.791 42.254 147.485 42.698 147.041 43.142ZM155.467 41V31.946H157.087V35.69H158.725L161.641 31.946H163.423L160.039 36.356L159.607 35.852C159.955 35.888 160.255 35.978 160.507 36.122C160.759 36.254 160.999 36.452 161.227 36.716C161.467 36.98 161.725 37.334 162.001 37.778L163.873 41H162.109L160.471 38.21C160.291 37.886 160.111 37.634 159.931 37.454C159.751 37.274 159.547 37.148 159.319 37.076C159.103 37.004 158.827 36.968 158.491 36.968H157.087V41H155.467ZM168.785 41.162C167.993 41.162 167.297 40.976 166.697 40.604C166.097 40.232 165.629 39.692 165.293 38.984C164.957 38.276 164.789 37.436 164.789 36.464C164.789 35.492 164.957 34.658 165.293 33.962C165.629 33.254 166.097 32.714 166.697 32.342C167.297 31.97 167.993 31.784 168.785 31.784C169.589 31.784 170.285 31.988 170.873 32.396C171.473 32.792 171.869 33.338 172.061 34.034H171.845L172.043 31.946H173.627C173.591 32.306 173.555 32.666 173.519 33.026C173.495 33.386 173.483 33.74 173.483 34.088V41H171.845V38.93H172.043C171.851 39.614 171.455 40.16 170.855 40.568C170.267 40.964 169.577 41.162 168.785 41.162ZM169.163 39.866C169.979 39.866 170.633 39.578 171.125 39.002C171.617 38.426 171.863 37.58 171.863 36.464C171.863 35.348 171.617 34.508 171.125 33.944C170.633 33.38 169.979 33.098 169.163 33.098C168.347 33.098 167.687 33.38 167.183 33.944C166.691 34.508 166.445 35.348 166.445 36.464C166.445 37.58 166.691 38.426 167.183 39.002C167.675 39.578 168.335 39.866 169.163 39.866ZM176.367 41V31.946H177.987V35.69H179.625L182.541 31.946H184.323L180.939 36.356L180.507 35.852C180.855 35.888 181.155 35.978 181.407 36.122C181.659 36.254 181.899 36.452 182.127 36.716C182.367 36.98 182.625 37.334 182.901 37.778L184.773 41H183.009L181.371 38.21C181.191 37.886 181.011 37.634 180.831 37.454C180.651 37.274 180.447 37.148 180.219 37.076C180.003 37.004 179.727 36.968 179.391 36.968H177.987V41H176.367ZM189.685 41.162C188.893 41.162 188.197 40.976 187.597 40.604C186.997 40.232 186.529 39.692 186.193 38.984C185.857 38.276 185.689 37.436 185.689 36.464C185.689 35.492 185.857 34.658 186.193 33.962C186.529 33.254 186.997 32.714 187.597 32.342C188.197 31.97 188.893 31.784 189.685 31.784C190.489 31.784 191.185 31.988 191.773 32.396C192.373 32.792 192.769 33.338 192.961 34.034H192.745L192.943 31.946H194.527C194.491 32.306 194.455 32.666 194.419 33.026C194.395 33.386 194.383 33.74 194.383 34.088V41H192.745V38.93H192.943C192.751 39.614 192.355 40.16 191.755 40.568C191.167 40.964 190.477 41.162 189.685 41.162ZM190.063 39.866C190.879 39.866 191.533 39.578 192.025 39.002C192.517 38.426 192.763 37.58 192.763 36.464C192.763 35.348 192.517 34.508 192.025 33.944C191.533 33.38 190.879 33.098 190.063 33.098C189.247 33.098 188.587 33.38 188.083 33.944C187.591 34.508 187.345 35.348 187.345 36.464C187.345 37.58 187.591 38.426 188.083 39.002C188.575 39.578 189.235 39.866 190.063 39.866ZM196.547 41L197.969 38.534C198.197 38.138 198.485 37.82 198.833 37.58C199.181 37.328 199.547 37.202 199.931 37.202H200.219L200.201 37.364C199.181 37.364 198.383 37.136 197.807 36.68C197.231 36.212 196.943 35.54 196.943 34.664C196.943 33.8 197.225 33.134 197.789 32.666C198.353 32.186 199.193 31.946 200.309 31.946H204.431V41H202.919V37.58H201.623C201.155 37.58 200.753 37.7 200.417 37.94C200.081 38.168 199.805 38.474 199.589 38.858L198.365 41H196.547ZM200.597 36.446H202.919V33.062H200.597C199.889 33.062 199.361 33.212 199.013 33.512C198.677 33.812 198.509 34.226 198.509 34.754C198.509 35.294 198.677 35.714 199.013 36.014C199.361 36.302 199.889 36.446 200.597 36.446ZM33.404 61V51.946H37.868C38.936 51.946 39.728 52.15 40.244 52.558C40.772 52.966 41.036 53.554 41.036 54.322C41.036 54.898 40.838 55.384 40.442 55.78C40.046 56.164 39.53 56.398 38.894 56.482V56.248C39.65 56.272 40.244 56.494 40.676 56.914C41.12 57.322 41.342 57.85 41.342 58.498C41.342 59.266 41.048 59.878 40.46 60.334C39.884 60.778 39.074 61 38.03 61H33.404ZM34.952 59.92H37.922C38.534 59.92 39.002 59.794 39.326 59.542C39.65 59.278 39.812 58.906 39.812 58.426C39.812 57.934 39.65 57.562 39.326 57.31C39.002 57.058 38.534 56.932 37.922 56.932H34.952V59.92ZM34.952 55.852H37.724C38.288 55.852 38.726 55.726 39.038 55.474C39.35 55.222 39.506 54.874 39.506 54.43C39.506 53.974 39.35 53.626 39.038 53.386C38.726 53.146 38.288 53.026 37.724 53.026H34.952V55.852ZM47.4166 61.162C46.5286 61.162 45.7606 60.976 45.1126 60.604C44.4646 60.22 43.9606 59.68 43.6006 58.984C43.2406 58.276 43.0606 57.436 43.0606 56.464C43.0606 55.504 43.2406 54.676 43.6006 53.98C43.9606 53.272 44.4646 52.732 45.1126 52.36C45.7606 51.976 46.5286 51.784 47.4166 51.784C48.3046 51.784 49.0726 51.976 49.7206 52.36C50.3806 52.732 50.8846 53.272 51.2326 53.98C51.5926 54.676 51.7726 55.504 51.7726 56.464C51.7726 57.436 51.5926 58.276 51.2326 58.984C50.8846 59.68 50.3806 60.22 49.7206 60.604C49.0726 60.976 48.3046 61.162 47.4166 61.162ZM47.4166 59.866C48.2326 59.866 48.8866 59.578 49.3786 59.002C49.8706 58.426 50.1166 57.58 50.1166 56.464C50.1166 55.348 49.8706 54.508 49.3786 53.944C48.8866 53.38 48.2326 53.098 47.4166 53.098C46.5886 53.098 45.9286 53.38 45.4366 53.944C44.9566 54.508 44.7166 55.348 44.7166 56.464C44.7166 57.58 44.9566 58.426 45.4366 59.002C45.9286 59.578 46.5886 59.866 47.4166 59.866ZM57.189 61.162C56.397 61.162 55.659 61.06 54.975 60.856C54.291 60.652 53.727 60.364 53.283 59.992L53.823 58.858C54.267 59.218 54.771 59.488 55.335 59.668C55.899 59.848 56.511 59.938 57.171 59.938C58.035 59.938 58.659 59.812 59.043 59.56C59.439 59.296 59.637 58.918 59.637 58.426C59.637 57.958 59.475 57.604 59.151 57.364C58.827 57.124 58.353 57.004 57.729 57.004H55.533V55.816H57.531C58.095 55.816 58.533 55.696 58.845 55.456C59.169 55.204 59.331 54.862 59.331 54.43C59.331 53.986 59.151 53.638 58.791 53.386C58.431 53.122 57.879 52.99 57.135 52.99C56.511 52.99 55.941 53.074 55.425 53.242C54.909 53.398 54.417 53.638 53.949 53.962L53.427 52.9C53.919 52.516 54.495 52.234 55.155 52.054C55.815 51.874 56.535 51.784 57.315 51.784C58.455 51.784 59.325 52.006 59.925 52.45C60.537 52.882 60.843 53.5 60.843 54.304C60.843 54.868 60.651 55.354 60.267 55.762C59.883 56.158 59.373 56.398 58.737 56.482V56.248C59.457 56.284 60.039 56.506 60.483 56.914C60.927 57.31 61.149 57.838 61.149 58.498C61.149 59.302 60.813 59.95 60.141 60.442C59.469 60.922 58.485 61.162 57.189 61.162ZM63.3395 61V51.946H64.7075L68.0375 57.868L71.3855 51.946H72.7355V61H71.2955V53.782H71.6915L68.4515 59.542H67.6415L64.4015 53.764H64.7795V61H63.3395ZM79.4088 61.162C78.5208 61.162 77.7528 60.976 77.1048 60.604C76.4568 60.22 75.9528 59.68 75.5928 58.984C75.2328 58.276 75.0528 57.436 75.0528 56.464C75.0528 55.504 75.2328 54.676 75.5928 53.98C75.9528 53.272 76.4568 52.732 77.1048 52.36C77.7528 51.976 78.5208 51.784 79.4088 51.784C80.2968 51.784 81.0648 51.976 81.7128 52.36C82.3728 52.732 82.8768 53.272 83.2248 53.98C83.5848 54.676 83.7648 55.504 83.7648 56.464C83.7648 57.436 83.5848 58.276 83.2248 58.984C82.8768 59.68 82.3728 60.22 81.7128 60.604C81.0648 60.976 80.2968 61.162 79.4088 61.162ZM79.4088 59.866C80.2248 59.866 80.8788 59.578 81.3708 59.002C81.8628 58.426 82.1088 57.58 82.1088 56.464C82.1088 55.348 81.8628 54.508 81.3708 53.944C80.8788 53.38 80.2248 53.098 79.4088 53.098C78.5808 53.098 77.9208 53.38 77.4288 53.944C76.9488 54.508 76.7088 55.348 76.7088 56.464C76.7088 57.58 76.9488 58.426 77.4288 59.002C77.9208 59.578 78.5808 59.866 79.4088 59.866ZM84.6992 61L86.5712 57.778C86.8472 57.334 87.0992 56.98 87.3272 56.716C87.5552 56.452 87.7952 56.254 88.0472 56.122C88.3112 55.978 88.6172 55.888 88.9652 55.852L88.5692 56.356L85.1312 51.946H86.9312L89.8652 55.69H91.2512V51.946H92.8712V55.69H94.2392L97.1552 51.946H98.9732L95.5352 56.356L95.1212 55.852C95.4692 55.888 95.7692 55.978 96.0212 56.122C96.2852 56.254 96.5372 56.452 96.7772 56.716C97.0172 56.98 97.2692 57.334 97.5332 57.778L99.4052 61H97.6592L96.0212 58.21C95.8292 57.886 95.6432 57.634 95.4632 57.454C95.2832 57.274 95.0792 57.148 94.8512 57.076C94.6352 57.004 94.3592 56.968 94.0232 56.968H92.8712V61H91.2512V56.968H90.0812C89.7452 56.968 89.4632 57.004 89.2352 57.076C89.0192 57.148 88.8212 57.274 88.6412 57.454C88.4732 57.634 88.2872 57.886 88.0832 58.21L86.4632 61H84.6992ZM100.816 61V51.946H102.436V55.69H107.224V51.946H108.844V61H107.224V56.986H102.436V61H100.816ZM115.514 61.162C114.626 61.162 113.858 60.976 113.21 60.604C112.562 60.22 112.058 59.68 111.698 58.984C111.338 58.276 111.158 57.436 111.158 56.464C111.158 55.504 111.338 54.676 111.698 53.98C112.058 53.272 112.562 52.732 113.21 52.36C113.858 51.976 114.626 51.784 115.514 51.784C116.402 51.784 117.17 51.976 117.818 52.36C118.478 52.732 118.982 53.272 119.33 53.98C119.69 54.676 119.87 55.504 119.87 56.464C119.87 57.436 119.69 58.276 119.33 58.984C118.982 59.68 118.478 60.22 117.818 60.604C117.17 60.976 116.402 61.162 115.514 61.162ZM115.514 59.866C116.33 59.866 116.984 59.578 117.476 59.002C117.968 58.426 118.214 57.58 118.214 56.464C118.214 55.348 117.968 54.508 117.476 53.944C116.984 53.38 116.33 53.098 115.514 53.098C114.686 53.098 114.026 53.38 113.534 53.944C113.054 54.508 112.814 55.348 112.814 56.464C112.814 57.58 113.054 58.426 113.534 59.002C114.026 59.578 114.686 59.866 115.514 59.866ZM126.151 61.162C125.251 61.162 124.471 60.976 123.811 60.604C123.151 60.22 122.635 59.674 122.263 58.966C121.903 58.246 121.723 57.394 121.723 56.41C121.723 55.438 121.909 54.61 122.281 53.926C122.653 53.23 123.169 52.702 123.829 52.342C124.489 51.97 125.263 51.784 126.151 51.784C126.739 51.784 127.309 51.886 127.861 52.09C128.413 52.282 128.863 52.564 129.211 52.936L128.653 54.088C128.305 53.752 127.921 53.506 127.501 53.35C127.081 53.182 126.667 53.098 126.259 53.098C125.371 53.098 124.675 53.386 124.171 53.962C123.667 54.526 123.415 55.348 123.415 56.428C123.415 57.52 123.667 58.36 124.171 58.948C124.675 59.536 125.371 59.83 126.259 59.83C126.655 59.83 127.063 59.752 127.483 59.596C127.903 59.44 128.293 59.194 128.653 58.858L129.211 59.992C128.851 60.376 128.389 60.67 127.825 60.874C127.273 61.066 126.715 61.162 126.151 61.162ZM133.293 61V53.26H130.035V51.946H138.171V53.26H134.913V61H133.293ZM139.664 61V51.946H141.284V55.15H143.948C145.124 55.15 146.006 55.402 146.594 55.906C147.194 56.398 147.494 57.112 147.494 58.048C147.494 58.648 147.356 59.17 147.08 59.614C146.804 60.058 146.402 60.4 145.874 60.64C145.346 60.88 144.704 61 143.948 61H139.664ZM141.284 59.866H143.768C144.476 59.866 145.016 59.722 145.388 59.434C145.76 59.134 145.946 58.678 145.946 58.066C145.946 57.454 145.76 57.004 145.388 56.716C145.028 56.428 144.488 56.284 143.768 56.284H141.284V59.866ZM157.42 61.162C156.628 61.162 155.89 61.06 155.206 60.856C154.522 60.652 153.958 60.364 153.514 59.992L154.054 58.858C154.498 59.218 155.002 59.488 155.566 59.668C156.13 59.848 156.742 59.938 157.402 59.938C158.266 59.938 158.89 59.812 159.274 59.56C159.67 59.296 159.868 58.918 159.868 58.426C159.868 57.958 159.706 57.604 159.382 57.364C159.058 57.124 158.584 57.004 157.96 57.004H155.764V55.816H157.762C158.326 55.816 158.764 55.696 159.076 55.456C159.4 55.204 159.562 54.862 159.562 54.43C159.562 53.986 159.382 53.638 159.022 53.386C158.662 53.122 158.11 52.99 157.366 52.99C156.742 52.99 156.172 53.074 155.656 53.242C155.14 53.398 154.648 53.638 154.18 53.962L153.658 52.9C154.15 52.516 154.726 52.234 155.386 52.054C156.046 51.874 156.766 51.784 157.546 51.784C158.686 51.784 159.556 52.006 160.156 52.45C160.768 52.882 161.074 53.5 161.074 54.304C161.074 54.868 160.882 55.354 160.498 55.762C160.114 56.158 159.604 56.398 158.968 56.482V56.248C159.688 56.284 160.27 56.506 160.714 56.914C161.158 57.31 161.38 57.838 161.38 58.498C161.38 59.302 161.044 59.95 160.372 60.442C159.7 60.922 158.716 61.162 157.42 61.162ZM167.08 61.162C166.288 61.162 165.592 60.976 164.992 60.604C164.392 60.232 163.924 59.692 163.588 58.984C163.252 58.276 163.084 57.436 163.084 56.464C163.084 55.492 163.252 54.658 163.588 53.962C163.924 53.254 164.392 52.714 164.992 52.342C165.592 51.97 166.288 51.784 167.08 51.784C167.884 51.784 168.58 51.988 169.168 52.396C169.768 52.792 170.164 53.338 170.356 54.034H170.14L170.338 51.946H171.922C171.886 52.306 171.85 52.666 171.814 53.026C171.79 53.386 171.778 53.74 171.778 54.088V61H170.14V58.93H170.338C170.146 59.614 169.75 60.16 169.15 60.568C168.562 60.964 167.872 61.162 167.08 61.162ZM167.458 59.866C168.274 59.866 168.928 59.578 169.42 59.002C169.912 58.426 170.158 57.58 170.158 56.464C170.158 55.348 169.912 54.508 169.42 53.944C168.928 53.38 168.274 53.098 167.458 53.098C166.642 53.098 165.982 53.38 165.478 53.944C164.986 54.508 164.74 55.348 164.74 56.464C164.74 57.58 164.986 58.426 165.478 59.002C165.97 59.578 166.63 59.866 167.458 59.866ZM174.716 64.888V54.088C174.716 53.74 174.704 53.386 174.68 53.026C174.656 52.666 174.62 52.306 174.572 51.946H176.156L176.354 54.034H176.156C176.336 53.338 176.72 52.792 177.308 52.396C177.896 51.988 178.598 51.784 179.414 51.784C180.218 51.784 180.92 51.97 181.52 52.342C182.12 52.714 182.582 53.254 182.906 53.962C183.242 54.658 183.41 55.492 183.41 56.464C183.41 57.436 183.242 58.276 182.906 58.984C182.582 59.692 182.12 60.232 181.52 60.604C180.92 60.976 180.218 61.162 179.414 61.162C178.61 61.162 177.914 60.964 177.326 60.568C176.75 60.16 176.36 59.614 176.156 58.93H176.354V64.888H174.716ZM179.036 59.866C179.864 59.866 180.524 59.578 181.016 59.002C181.508 58.426 181.754 57.58 181.754 56.464C181.754 55.348 181.508 54.508 181.016 53.944C180.524 53.38 179.864 53.098 179.036 53.098C178.208 53.098 177.548 53.38 177.056 53.944C176.576 54.508 176.336 55.348 176.336 56.464C176.336 57.58 176.576 58.426 177.056 59.002C177.548 59.578 178.208 59.866 179.036 59.866ZM189.264 61.162C188.472 61.162 187.776 60.976 187.176 60.604C186.576 60.232 186.108 59.692 185.772 58.984C185.436 58.276 185.268 57.436 185.268 56.464C185.268 55.492 185.436 54.658 185.772 53.962C186.108 53.254 186.576 52.714 187.176 52.342C187.776 51.97 188.472 51.784 189.264 51.784C190.068 51.784 190.764 51.988 191.352 52.396C191.952 52.792 192.348 53.338 192.54 54.034H192.324L192.522 51.946H194.106C194.07 52.306 194.034 52.666 193.998 53.026C193.974 53.386 193.962 53.74 193.962 54.088V61H192.324V58.93H192.522C192.33 59.614 191.934 60.16 191.334 60.568C190.746 60.964 190.056 61.162 189.264 61.162ZM189.642 59.866C190.458 59.866 191.112 59.578 191.604 59.002C192.096 58.426 192.342 57.58 192.342 56.464C192.342 55.348 192.096 54.508 191.604 53.944C191.112 53.38 190.458 53.098 189.642 53.098C188.826 53.098 188.166 53.38 187.662 53.944C187.17 54.508 186.924 55.348 186.924 56.464C186.924 57.58 187.17 58.426 187.662 59.002C188.154 59.578 188.814 59.866 189.642 59.866ZM200.787 61.162C199.431 61.162 198.357 60.736 197.565 59.884C196.773 59.032 196.377 57.784 196.377 56.14V54.574C196.377 52.894 196.731 51.538 197.439 50.506C198.147 49.474 199.245 48.778 200.733 48.418L204.045 47.59L204.531 48.922L200.859 49.804C200.199 49.96 199.653 50.242 199.221 50.65C198.789 51.058 198.465 51.538 198.249 52.09C198.045 52.642 197.943 53.23 197.943 53.854V54.628H197.691C197.835 54.088 198.063 53.62 198.375 53.224C198.699 52.828 199.101 52.528 199.581 52.324C200.061 52.108 200.589 52 201.165 52C201.945 52 202.629 52.18 203.217 52.54C203.805 52.9 204.261 53.422 204.585 54.106C204.921 54.778 205.089 55.582 205.089 56.518C205.089 57.478 204.909 58.306 204.549 59.002C204.201 59.698 203.703 60.232 203.055 60.604C202.407 60.976 201.651 61.162 200.787 61.162ZM200.733 59.866C201.573 59.866 202.233 59.59 202.713 59.038C203.205 58.486 203.451 57.664 203.451 56.572C203.451 55.504 203.205 54.688 202.713 54.124C202.233 53.56 201.573 53.278 200.733 53.278C199.893 53.278 199.227 53.554 198.735 54.106C198.255 54.658 198.015 55.444 198.015 56.464C198.015 57.604 198.255 58.456 198.735 59.02C199.227 59.584 199.893 59.866 200.733 59.866ZM211.28 61.162C210.392 61.162 209.624 60.976 208.976 60.604C208.328 60.22 207.824 59.68 207.464 58.984C207.104 58.276 206.924 57.436 206.924 56.464C206.924 55.504 207.104 54.676 207.464 53.98C207.824 53.272 208.328 52.732 208.976 52.36C209.624 51.976 210.392 51.784 211.28 51.784C212.168 51.784 212.936 51.976 213.584 52.36C214.244 52.732 214.748 53.272 215.096 53.98C215.456 54.676 215.636 55.504 215.636 56.464C215.636 57.436 215.456 58.276 215.096 58.984C214.748 59.68 214.244 60.22 213.584 60.604C212.936 60.976 212.168 61.162 211.28 61.162ZM211.28 59.866C212.096 59.866 212.75 59.578 213.242 59.002C213.734 58.426 213.98 57.58 213.98 56.464C213.98 55.348 213.734 54.508 213.242 53.944C212.75 53.38 212.096 53.098 211.28 53.098C210.452 53.098 209.792 53.38 209.3 53.944C208.82 54.508 208.58 55.348 208.58 56.464C208.58 57.58 208.82 58.426 209.3 59.002C209.792 59.578 210.452 59.866 211.28 59.866ZM219.918 61V53.26H216.66V51.946H224.796V53.26H221.538V61H219.918ZM226.289 61V51.946H227.909V55.69H229.547L232.463 51.946H234.245L230.861 56.356L230.429 55.852C230.777 55.888 231.077 55.978 231.329 56.122C231.581 56.254 231.821 56.452 232.049 56.716C232.289 56.98 232.547 57.334 232.823 57.778L234.695 61H232.931L231.293 58.21C231.113 57.886 230.933 57.634 230.753 57.454C230.573 57.274 230.369 57.148 230.141 57.076C229.925 57.004 229.649 56.968 229.313 56.968H227.909V61H226.289ZM239.607 61.162C238.815 61.162 238.119 60.976 237.519 60.604C236.919 60.232 236.451 59.692 236.115 58.984C235.779 58.276 235.611 57.436 235.611 56.464C235.611 55.492 235.779 54.658 236.115 53.962C236.451 53.254 236.919 52.714 237.519 52.342C238.119 51.97 238.815 51.784 239.607 51.784C240.411 51.784 241.107 51.988 241.695 52.396C242.295 52.792 242.691 53.338 242.883 54.034H242.667L242.865 51.946H244.449C244.413 52.306 244.377 52.666 244.341 53.026C244.317 53.386 244.305 53.74 244.305 54.088V61H242.667V58.93H242.865C242.673 59.614 242.277 60.16 241.677 60.568C241.089 60.964 240.399 61.162 239.607 61.162ZM239.985 59.866C240.801 59.866 241.455 59.578 241.947 59.002C242.439 58.426 242.685 57.58 242.685 56.464C242.685 55.348 242.439 54.508 241.947 53.944C241.455 53.38 240.801 53.098 239.985 53.098C239.169 53.098 238.509 53.38 238.005 53.944C237.513 54.508 237.267 55.348 237.267 56.464C237.267 57.58 237.513 58.426 238.005 59.002C238.497 59.578 239.157 59.866 239.985 59.866ZM33.404 81V71.946H41.378V81H39.758V73.224H35.024V81H33.404ZM48.0494 81.162C47.1614 81.162 46.3934 80.976 45.7454 80.604C45.0974 80.22 44.5934 79.68 44.2334 78.984C43.8734 78.276 43.6934 77.436 43.6934 76.464C43.6934 75.504 43.8734 74.676 44.2334 73.98C44.5934 73.272 45.0974 72.732 45.7454 72.36C46.3934 71.976 47.1614 71.784 48.0494 71.784C48.9374 71.784 49.7054 71.976 50.3534 72.36C51.0134 72.732 51.5174 73.272 51.8654 73.98C52.2254 74.676 52.4054 75.504 52.4054 76.464C52.4054 77.436 52.2254 78.276 51.8654 78.984C51.5174 79.68 51.0134 80.22 50.3534 80.604C49.7054 80.976 48.9374 81.162 48.0494 81.162ZM48.0494 79.866C48.8654 79.866 49.5194 79.578 50.0114 79.002C50.5034 78.426 50.7494 77.58 50.7494 76.464C50.7494 75.348 50.5034 74.508 50.0114 73.944C49.5194 73.38 48.8654 73.098 48.0494 73.098C47.2214 73.098 46.5614 73.38 46.0694 73.944C45.5894 74.508 45.3494 75.348 45.3494 76.464C45.3494 77.58 45.5894 78.426 46.0694 79.002C46.5614 79.578 47.2214 79.866 48.0494 79.866ZM53.8078 83.34V79.722H54.7978C55.2058 79.11 55.4998 78.39 55.6798 77.562C55.8718 76.734 55.9678 75.75 55.9678 74.61V71.946H62.4658V79.722H63.9058V83.34H62.5018V81H55.2298V83.34H53.8078ZM56.3458 79.74H60.9358V73.206H57.4078V74.898C57.4078 75.81 57.3178 76.698 57.1378 77.562C56.9578 78.414 56.6938 79.14 56.3458 79.74ZM64.5945 81L68.6985 75.924V76.734L64.8285 71.946H66.7905L69.6165 75.564H69.0225L71.8485 71.946H73.7925L69.9765 76.698V75.96L74.0265 81H72.0465L69.0225 77.13H69.6165L66.5565 81H64.5945ZM79.3736 81.162C78.4856 81.162 77.7176 80.976 77.0696 80.604C76.4216 80.22 75.9176 79.68 75.5576 78.984C75.1976 78.276 75.0176 77.436 75.0176 76.464C75.0176 75.504 75.1976 74.676 75.5576 73.98C75.9176 73.272 76.4216 72.732 77.0696 72.36C77.7176 71.976 78.4856 71.784 79.3736 71.784C80.2616 71.784 81.0296 71.976 81.6776 72.36C82.3376 72.732 82.8416 73.272 83.1896 73.98C83.5496 74.676 83.7296 75.504 83.7296 76.464C83.7296 77.436 83.5496 78.276 83.1896 78.984C82.8416 79.68 82.3376 80.22 81.6776 80.604C81.0296 80.976 80.2616 81.162 79.3736 81.162ZM79.3736 79.866C80.1896 79.866 80.8436 79.578 81.3356 79.002C81.8276 78.426 82.0736 77.58 82.0736 76.464C82.0736 75.348 81.8276 74.508 81.3356 73.944C80.8436 73.38 80.1896 73.098 79.3736 73.098C78.5456 73.098 77.8856 73.38 77.3936 73.944C76.9136 74.508 76.6736 75.348 76.6736 76.464C76.6736 77.58 76.9136 78.426 77.3936 79.002C77.8856 79.578 78.5456 79.866 79.3736 79.866ZM85.1321 83.34V79.722H86.1221C86.5301 79.11 86.8241 78.39 87.0041 77.562C87.1961 76.734 87.2921 75.75 87.2921 74.61V71.946H93.7901V79.722H95.2301V83.34H93.8261V81H86.5541V83.34H85.1321ZM87.6701 79.74H92.2601V73.206H88.7321V74.898C88.7321 75.81 88.6421 76.698 88.4621 77.562C88.2821 78.414 88.0181 79.14 87.6701 79.74ZM97.1247 81V71.946H98.6187V79.452H98.1327L103.749 71.946H105.117V81H103.623V73.476H104.127L98.4927 81H97.1247ZM109.862 81V73.26H106.604V71.946H114.74V73.26H111.482V81H109.862ZM120.978 81V71.946H122.472V79.452H121.986L127.602 71.946H128.97V81H127.476V73.476H127.98L122.346 81H120.978ZM131.771 81V71.946H133.139L136.469 77.868L139.817 71.946H141.167V81H139.727V73.782H140.123L136.883 79.542H136.073L132.833 73.764H133.211V81H131.771ZM148.146 81.162C146.706 81.162 145.566 80.748 144.726 79.92C143.898 79.092 143.484 77.952 143.484 76.5C143.484 75.54 143.664 74.712 144.024 74.016C144.396 73.308 144.906 72.762 145.554 72.378C146.202 71.982 146.958 71.784 147.822 71.784C148.65 71.784 149.352 71.964 149.928 72.324C150.504 72.672 150.942 73.17 151.242 73.818C151.542 74.466 151.692 75.234 151.692 76.122V76.662H144.762V75.69H150.576L150.27 75.924C150.27 74.988 150.06 74.262 149.64 73.746C149.232 73.23 148.626 72.972 147.822 72.972C146.946 72.972 146.268 73.278 145.788 73.89C145.308 74.49 145.068 75.312 145.068 76.356V76.518C145.068 77.622 145.338 78.456 145.878 79.02C146.43 79.584 147.192 79.866 148.164 79.866C148.704 79.866 149.208 79.788 149.676 79.632C150.144 79.476 150.594 79.218 151.026 78.858L151.566 79.992C151.158 80.364 150.648 80.652 150.036 80.856C149.436 81.06 148.806 81.162 148.146 81.162ZM153.972 81V71.946H155.592V75.69H160.38V71.946H162V81H160.38V76.986H155.592V81H153.972ZM164.8 81V71.946H166.42V75.69H171.208V71.946H172.828V81H171.208V76.986H166.42V81H164.8ZM179.499 81.162C178.611 81.162 177.843 80.976 177.195 80.604C176.547 80.22 176.043 79.68 175.683 78.984C175.323 78.276 175.143 77.436 175.143 76.464C175.143 75.504 175.323 74.676 175.683 73.98C176.043 73.272 176.547 72.732 177.195 72.36C177.843 71.976 178.611 71.784 179.499 71.784C180.387 71.784 181.155 71.976 181.803 72.36C182.463 72.732 182.967 73.272 183.315 73.98C183.675 74.676 183.855 75.504 183.855 76.464C183.855 77.436 183.675 78.276 183.315 78.984C182.967 79.68 182.463 80.22 181.803 80.604C181.155 80.976 180.387 81.162 179.499 81.162ZM179.499 79.866C180.315 79.866 180.969 79.578 181.461 79.002C181.953 78.426 182.199 77.58 182.199 76.464C182.199 75.348 181.953 74.508 181.461 73.944C180.969 73.38 180.315 73.098 179.499 73.098C178.671 73.098 178.011 73.38 177.519 73.944C177.039 74.508 176.799 75.348 176.799 76.464C176.799 77.58 177.039 78.426 177.519 79.002C178.011 79.578 178.671 79.866 179.499 79.866ZM192.883 81V73.26H189.625V71.946H197.761V73.26H194.503V81H192.883ZM203.377 81.162C201.937 81.162 200.797 80.748 199.957 79.92C199.129 79.092 198.715 77.952 198.715 76.5C198.715 75.54 198.895 74.712 199.255 74.016C199.627 73.308 200.137 72.762 200.785 72.378C201.433 71.982 202.189 71.784 203.053 71.784C203.881 71.784 204.583 71.964 205.159 72.324C205.735 72.672 206.173 73.17 206.473 73.818C206.773 74.466 206.923 75.234 206.923 76.122V76.662H199.993V75.69H205.807L205.501 75.924C205.501 74.988 205.291 74.262 204.871 73.746C204.463 73.23 203.857 72.972 203.053 72.972C202.177 72.972 201.499 73.278 201.019 73.89C200.539 74.49 200.299 75.312 200.299 76.356V76.518C200.299 77.622 200.569 78.456 201.109 79.02C201.661 79.584 202.423 79.866 203.395 79.866C203.935 79.866 204.439 79.788 204.907 79.632C205.375 79.476 205.825 79.218 206.257 78.858L206.797 79.992C206.389 80.364 205.879 80.652 205.267 80.856C204.667 81.06 204.037 81.162 203.377 81.162ZM213.145 81.162C211.789 81.162 210.715 80.736 209.923 79.884C209.131 79.032 208.735 77.784 208.735 76.14V74.574C208.735 72.894 209.089 71.538 209.797 70.506C210.505 69.474 211.603 68.778 213.091 68.418L216.403 67.59L216.889 68.922L213.217 69.804C212.557 69.96 212.011 70.242 211.579 70.65C211.147 71.058 210.823 71.538 210.607 72.09C210.403 72.642 210.301 73.23 210.301 73.854V74.628H210.049C210.193 74.088 210.421 73.62 210.733 73.224C211.057 72.828 211.459 72.528 211.939 72.324C212.419 72.108 212.947 72 213.523 72C214.303 72 214.987 72.18 215.575 72.54C216.163 72.9 216.619 73.422 216.943 74.106C217.279 74.778 217.447 75.582 217.447 76.518C217.447 77.478 217.267 78.306 216.907 79.002C216.559 79.698 216.061 80.232 215.413 80.604C214.765 80.976 214.009 81.162 213.145 81.162ZM213.091 79.866C213.931 79.866 214.591 79.59 215.071 79.038C215.563 78.486 215.809 77.664 215.809 76.572C215.809 75.504 215.563 74.688 215.071 74.124C214.591 73.56 213.931 73.278 213.091 73.278C212.251 73.278 211.585 73.554 211.093 74.106C210.613 74.658 210.373 75.444 210.373 76.464C210.373 77.604 210.613 78.456 211.093 79.02C211.585 79.584 212.251 79.866 213.091 79.866ZM223.943 81.162C222.503 81.162 221.363 80.748 220.523 79.92C219.695 79.092 219.281 77.952 219.281 76.5C219.281 75.54 219.461 74.712 219.821 74.016C220.193 73.308 220.703 72.762 221.351 72.378C221.999 71.982 222.755 71.784 223.619 71.784C224.447 71.784 225.149 71.964 225.725 72.324C226.301 72.672 226.739 73.17 227.039 73.818C227.339 74.466 227.489 75.234 227.489 76.122V76.662H220.559V75.69H226.373L226.067 75.924C226.067 74.988 225.857 74.262 225.437 73.746C225.029 73.23 224.423 72.972 223.619 72.972C222.743 72.972 222.065 73.278 221.585 73.89C221.105 74.49 220.865 75.312 220.865 76.356V76.518C220.865 77.622 221.135 78.456 221.675 79.02C222.227 79.584 222.989 79.866 223.961 79.866C224.501 79.866 225.005 79.788 225.473 79.632C225.941 79.476 226.391 79.218 226.823 78.858L227.363 79.992C226.955 80.364 226.445 80.652 225.833 80.856C225.233 81.06 224.603 81.162 223.943 81.162ZM33.404 101V91.946H34.898V99.452H34.412L40.028 91.946H41.396V101H39.902V93.476H40.406L34.772 101H33.404ZM48.8171 101V91.91H57.3311V101H55.0991V93.638H51.0491V101H48.8171ZM64.0673 101.18C63.1313 101.18 62.3213 100.988 61.6373 100.604C60.9533 100.22 60.4193 99.674 60.0353 98.966C59.6633 98.258 59.4773 97.418 59.4773 96.446C59.4773 95.474 59.6633 94.64 60.0353 93.944C60.4193 93.236 60.9533 92.69 61.6373 92.306C62.3213 91.922 63.1313 91.73 64.0673 91.73C65.0033 91.73 65.8133 91.922 66.4973 92.306C67.1933 92.69 67.7273 93.236 68.0993 93.944C68.4833 94.64 68.6753 95.474 68.6753 96.446C68.6753 97.418 68.4833 98.258 68.0993 98.966C67.7273 99.674 67.1933 100.22 66.4973 100.604C65.8133 100.988 65.0033 101.18 64.0673 101.18ZM64.0673 99.452C64.7753 99.452 65.3393 99.206 65.7593 98.714C66.1793 98.21 66.3893 97.454 66.3893 96.446C66.3893 95.438 66.1793 94.688 65.7593 94.196C65.3393 93.704 64.7753 93.458 64.0673 93.458C63.3593 93.458 62.7953 93.704 62.3753 94.196C61.9553 94.688 61.7453 95.438 61.7453 96.446C61.7453 97.454 61.9553 98.21 62.3753 98.714C62.7953 99.206 63.3593 99.452 64.0673 99.452ZM70.8073 101V91.91H72.8413V98.786H72.3013L77.4673 91.91H79.3213V101H77.2873V94.106H77.8453L72.6613 101H70.8073ZM75.0553 91.082C74.4553 91.082 73.9273 90.986 73.4713 90.794C73.0153 90.59 72.6373 90.308 72.3373 89.948C72.0373 89.576 71.8213 89.138 71.6893 88.634L72.8413 88.238C73.0453 88.79 73.3273 89.198 73.6873 89.462C74.0473 89.714 74.5093 89.84 75.0733 89.84C75.6373 89.84 76.0993 89.714 76.4593 89.462C76.8193 89.21 77.1133 88.808 77.3413 88.256L78.4393 88.634C78.1873 89.438 77.7673 90.05 77.1793 90.47C76.6033 90.878 75.8953 91.082 75.0553 91.082ZM81.8815 101V91.91H83.7535L86.8855 97.346L90.0175 91.91H91.8895V101H89.9095V94.43H90.3235L87.4075 99.524H86.3635L83.4475 94.43H83.8615V101H81.8815ZM98.9139 101.18C97.3899 101.18 96.1959 100.76 95.3319 99.92C94.4679 99.08 94.0359 97.928 94.0359 96.464C94.0359 95.516 94.2219 94.688 94.5939 93.98C94.9659 93.272 95.4819 92.72 96.1419 92.324C96.8139 91.928 97.5939 91.73 98.4819 91.73C99.3579 91.73 100.09 91.916 100.678 92.288C101.266 92.66 101.71 93.182 102.01 93.854C102.322 94.526 102.478 95.312 102.478 96.212V96.806H95.8539V95.618H100.876L100.57 95.87C100.57 95.03 100.39 94.388 100.03 93.944C99.6819 93.5 99.1719 93.278 98.4999 93.278C97.7559 93.278 97.1799 93.542 96.7719 94.07C96.3759 94.598 96.1779 95.336 96.1779 96.284V96.518C96.1779 97.502 96.4179 98.24 96.8979 98.732C97.3899 99.212 98.0799 99.452 98.9679 99.452C99.4839 99.452 99.9639 99.386 100.408 99.254C100.864 99.11 101.296 98.882 101.704 98.57L102.37 100.082C101.938 100.43 101.422 100.7 100.822 100.892C100.222 101.084 99.5859 101.18 98.9139 101.18ZM99.1479 90.254V88.184H101.218V90.254H99.1479ZM95.7459 90.254V88.184H97.8159V90.254H95.7459ZM104.557 101V91.91H106.663V99.272H109.867V91.91H111.955V99.272H115.159V91.91H117.265V101H104.557ZM119.815 101V91.91H122.047V94.952H124.441C125.653 94.952 126.565 95.21 127.177 95.726C127.789 96.23 128.095 96.962 128.095 97.922C128.095 98.546 127.951 99.092 127.663 99.56C127.375 100.016 126.955 100.37 126.403 100.622C125.863 100.874 125.209 101 124.441 101H119.815ZM122.047 99.524H124.135C124.747 99.524 125.215 99.398 125.539 99.146C125.863 98.882 126.025 98.486 126.025 97.958C126.025 97.43 125.863 97.046 125.539 96.806C125.227 96.554 124.759 96.428 124.135 96.428H122.047V99.524ZM134.915 101V91.91H139.757C140.897 91.91 141.731 92.12 142.259 92.54C142.787 92.948 143.051 93.53 143.051 94.286C143.051 94.862 142.859 95.342 142.475 95.726C142.091 96.11 141.581 96.35 140.945 96.446V96.194C141.725 96.242 142.325 96.47 142.745 96.878C143.165 97.286 143.375 97.814 143.375 98.462C143.375 99.242 143.075 99.86 142.475 100.316C141.875 100.772 141.023 101 139.919 101H134.915ZM137.003 99.614H139.685C140.213 99.614 140.615 99.506 140.891 99.29C141.179 99.074 141.323 98.756 141.323 98.336C141.323 97.916 141.179 97.598 140.891 97.382C140.615 97.166 140.213 97.058 139.685 97.058H137.003V99.614ZM137.003 95.672H139.487C139.967 95.672 140.339 95.57 140.603 95.366C140.867 95.15 140.999 94.85 140.999 94.466C140.999 94.082 140.867 93.788 140.603 93.584C140.339 93.38 139.967 93.278 139.487 93.278H137.003V95.672ZM156.056 101V97.688C155.72 97.844 155.372 97.964 155.012 98.048C154.652 98.132 154.274 98.174 153.878 98.174C152.546 98.174 151.55 97.856 150.89 97.22C150.242 96.584 149.918 95.636 149.918 94.376V91.91H152.15V94.178C152.15 94.946 152.318 95.504 152.654 95.852C152.99 96.188 153.53 96.356 154.274 96.356C154.622 96.356 154.934 96.32 155.21 96.248C155.486 96.176 155.75 96.062 156.002 95.906V91.91H158.234V101H156.056ZM165.254 101.18C163.73 101.18 162.536 100.76 161.672 99.92C160.808 99.08 160.376 97.928 160.376 96.464C160.376 95.516 160.562 94.688 160.934 93.98C161.306 93.272 161.822 92.72 162.482 92.324C163.154 91.928 163.934 91.73 164.822 91.73C165.698 91.73 166.43 91.916 167.018 92.288C167.606 92.66 168.05 93.182 168.35 93.854C168.662 94.526 168.818 95.312 168.818 96.212V96.806H162.194V95.618H167.216L166.91 95.87C166.91 95.03 166.73 94.388 166.37 93.944C166.022 93.5 165.512 93.278 164.84 93.278C164.096 93.278 163.52 93.542 163.112 94.07C162.716 94.598 162.518 95.336 162.518 96.284V96.518C162.518 97.502 162.758 98.24 163.238 98.732C163.73 99.212 164.42 99.452 165.308 99.452C165.824 99.452 166.304 99.386 166.748 99.254C167.204 99.11 167.636 98.882 168.044 98.57L168.71 100.082C168.278 100.43 167.762 100.7 167.162 100.892C166.562 101.084 165.926 101.18 165.254 101.18ZM165.488 90.254V88.184H167.558V90.254H165.488ZM162.086 90.254V88.184H164.156V90.254H162.086ZM170.897 101V91.91H172.769L175.901 97.346L179.033 91.91H180.905V101H178.925V94.43H179.339L176.423 99.524H175.379L172.463 94.43H172.877V101H170.897ZM190.367 101V93.674H187.253V91.91H195.731V93.674H192.599V101H190.367ZM197.124 101V91.91H201.966C203.106 91.91 203.94 92.12 204.468 92.54C204.996 92.948 205.26 93.53 205.26 94.286C205.26 94.862 205.068 95.342 204.684 95.726C204.3 96.11 203.79 96.35 203.154 96.446V96.194C203.934 96.242 204.534 96.47 204.954 96.878C205.374 97.286 205.584 97.814 205.584 98.462C205.584 99.242 205.284 99.86 204.684 100.316C204.084 100.772 203.232 101 202.128 101H197.124ZM199.212 99.614H201.894C202.422 99.614 202.824 99.506 203.1 99.29C203.388 99.074 203.532 98.756 203.532 98.336C203.532 97.916 203.388 97.598 203.1 97.382C202.824 97.166 202.422 97.058 201.894 97.058H199.212V99.614ZM199.212 95.672H201.696C202.176 95.672 202.548 95.57 202.812 95.366C203.076 95.15 203.208 94.85 203.208 94.466C203.208 94.082 203.076 93.788 202.812 93.584C202.548 93.38 202.176 93.278 201.696 93.278H199.212V95.672ZM211.724 101.18C210.788 101.18 209.978 100.988 209.294 100.604C208.61 100.22 208.076 99.674 207.692 98.966C207.32 98.258 207.134 97.418 207.134 96.446C207.134 95.474 207.32 94.64 207.692 93.944C208.076 93.236 208.61 92.69 209.294 92.306C209.978 91.922 210.788 91.73 211.724 91.73C212.66 91.73 213.47 91.922 214.154 92.306C214.85 92.69 215.384 93.236 215.756 93.944C216.14 94.64 216.332 95.474 216.332 96.446C216.332 97.418 216.14 98.258 215.756 98.966C215.384 99.674 214.85 100.22 214.154 100.604C213.47 100.988 212.66 101.18 211.724 101.18ZM211.724 99.452C212.432 99.452 212.996 99.206 213.416 98.714C213.836 98.21 214.046 97.454 214.046 96.446C214.046 95.438 213.836 94.688 213.416 94.196C212.996 93.704 212.432 93.458 211.724 93.458C211.016 93.458 210.452 93.704 210.032 94.196C209.612 94.688 209.402 95.438 209.402 96.446C209.402 97.454 209.612 98.21 210.032 98.714C210.452 99.206 211.016 99.452 211.724 99.452ZM217.708 101L219.094 98.606C219.334 98.198 219.628 97.874 219.976 97.634C220.336 97.382 220.708 97.256 221.092 97.256H221.488L221.47 97.454C220.402 97.454 219.58 97.22 219.004 96.752C218.428 96.284 218.14 95.6 218.14 94.7C218.14 93.812 218.434 93.128 219.022 92.648C219.622 92.156 220.498 91.91 221.65 91.91H226.168V101H224.116V97.796H223.09C222.718 97.796 222.388 97.898 222.1 98.102C221.824 98.306 221.59 98.57 221.398 98.894L220.21 101H217.708ZM222.082 96.338H224.116V93.368H222.082C221.47 93.368 221.008 93.5 220.696 93.764C220.396 94.028 220.246 94.388 220.246 94.844C220.246 95.324 220.396 95.696 220.696 95.96C221.008 96.212 221.47 96.338 222.082 96.338ZM237.917 101.18C236.981 101.18 236.159 100.988 235.451 100.604C234.755 100.22 234.215 99.674 233.831 98.966C233.447 98.246 233.255 97.394 233.255 96.41C233.255 95.426 233.447 94.586 233.831 93.89C234.227 93.194 234.773 92.66 235.469 92.288C236.165 91.916 236.981 91.73 237.917 91.73C238.517 91.73 239.099 91.826 239.663 92.018C240.239 92.198 240.707 92.462 241.067 92.81L240.383 94.376C240.059 94.076 239.693 93.854 239.285 93.71C238.889 93.554 238.499 93.476 238.115 93.476C237.311 93.476 236.681 93.728 236.225 94.232C235.781 94.736 235.559 95.468 235.559 96.428C235.559 97.388 235.781 98.126 236.225 98.642C236.681 99.158 237.311 99.416 238.115 99.416C238.487 99.416 238.871 99.344 239.267 99.2C239.675 99.056 240.047 98.834 240.383 98.534L241.067 100.082C240.695 100.43 240.221 100.7 239.645 100.892C239.081 101.084 238.505 101.18 237.917 101.18ZM242.985 101V91.91H245.019V98.786H244.479L249.645 91.91H251.499V101H249.465V94.106H250.023L244.839 101H242.985ZM253.825 101.252L253.123 99.488C253.519 99.344 253.849 99.158 254.113 98.93C254.389 98.69 254.605 98.39 254.761 98.03C254.929 97.658 255.049 97.202 255.121 96.662C255.193 96.11 255.229 95.456 255.229 94.7V91.91H262.465V101H260.233V93.638H257.281V94.772C257.281 96.08 257.161 97.178 256.921 98.066C256.681 98.942 256.309 99.638 255.805 100.154C255.301 100.67 254.641 101.036 253.825 101.252ZM268.61 101.18C267.818 101.18 267.122 100.994 266.522 100.622C265.922 100.238 265.454 99.692 265.118 98.984C264.782 98.276 264.614 97.43 264.614 96.446C264.614 95.462 264.782 94.622 265.118 93.926C265.454 93.218 265.922 92.678 266.522 92.306C267.122 91.922 267.818 91.73 268.61 91.73C269.378 91.73 270.05 91.922 270.626 92.306C271.214 92.678 271.604 93.182 271.796 93.818H271.598L271.796 91.91H273.956C273.92 92.282 273.884 92.66 273.848 93.044C273.824 93.428 273.812 93.806 273.812 94.178V101H271.58L271.562 99.128H271.778C271.586 99.752 271.196 100.25 270.608 100.622C270.02 100.994 269.354 101.18 268.61 101.18ZM269.24 99.452C269.948 99.452 270.518 99.206 270.95 98.714C271.382 98.21 271.598 97.454 271.598 96.446C271.598 95.438 271.382 94.688 270.95 94.196C270.518 93.704 269.948 93.458 269.24 93.458C268.532 93.458 267.962 93.704 267.53 94.196C267.098 94.688 266.882 95.438 266.882 96.446C266.882 97.454 267.092 98.21 267.512 98.714C267.944 99.206 268.52 99.452 269.24 99.452Z" fill="#343434"/>
<circle cx="282" cy="22" r="6" fill="#F0D3D3"/>
<defs>
<linearGradient id="paint0_linear_112_121" x1="152" y1="0" x2="152" y2="128" gradientUnits="userSpaceOnUse">
<stop stop-color="white"/>
<stop offset="1" stop-color="white" stop-opacity="0.8"/>
</linearGradient>
</defs>
</svg>
