<svg width="304" height="128" viewBox="0 0 304 128" fill="none" xmlns="http://www.w3.org/2000/svg">
<rect width="304" height="128" rx="16" fill="url(#paint0_linear_100_214)"/>
<path d="M33.548 41.0001V28.3101H44.258V41.0001H42.602V29.7141H35.204V41.0001H33.548Z" fill="#343434"/>
<path d="M51.0729 41.1621C50.1849 41.1621 49.4169 40.9761 48.7689 40.6041C48.1209 40.2201 47.6169 39.6801 47.2569 38.9841C46.8969 38.2761 46.7169 37.4361 46.7169 36.4641C46.7169 35.5041 46.8969 34.6761 47.2569 33.9801C47.6169 33.2721 48.1209 32.7321 48.7689 32.3601C49.4169 31.9761 50.1849 31.7841 51.0729 31.7841C51.9609 31.7841 52.7289 31.9761 53.3769 32.3601C54.0369 32.7321 54.5409 33.2721 54.8889 33.9801C55.2489 34.6761 55.4289 35.5041 55.4289 36.4641C55.4289 37.4361 55.2489 38.2761 54.8889 38.9841C54.5409 39.6801 54.0369 40.2201 53.3769 40.6041C52.7289 40.9761 51.9609 41.1621 51.0729 41.1621ZM51.0729 39.8661C51.8889 39.8661 52.5429 39.5781 53.0349 39.0021C53.5269 38.4261 53.7729 37.5801 53.7729 36.4641C53.7729 35.3481 53.5269 34.5081 53.0349 33.9441C52.5429 33.3801 51.8889 33.0981 51.0729 33.0981C50.2449 33.0981 49.5849 33.3801 49.0929 33.9441C48.6129 34.5081 48.3729 35.3481 48.3729 36.4641C48.3729 37.5801 48.6129 38.4261 49.0929 39.0021C49.5849 39.5781 50.2449 39.8661 51.0729 39.8661Z" fill="#343434"/>
<path d="M57.7673 41.0001V31.9461H59.2613V39.4521H58.7753L64.3913 31.9461H65.7593V41.0001H64.2653V33.4761H64.7693L59.1353 41.0001H57.7673ZM61.7633 31.1181C61.2473 31.1181 60.7733 31.0281 60.3413 30.8481C59.9093 30.6681 59.5373 30.4101 59.2253 30.0741C58.9253 29.7261 58.6973 29.2941 58.5413 28.7781L59.4773 28.4361C59.6933 29.0121 59.9873 29.4381 60.3593 29.7141C60.7313 29.9781 61.1993 30.1101 61.7633 30.1101C62.3393 30.1101 62.8133 29.9841 63.1853 29.7321C63.5573 29.4801 63.8813 29.0541 64.1573 28.4541L65.0393 28.7781C64.7393 29.5941 64.3013 30.1881 63.7253 30.5601C63.1613 30.9321 62.5073 31.1181 61.7633 31.1181Z" fill="#343434"/>
<path d="M68.5603 41.0001V31.9461H69.9283L73.2583 37.8681L76.6063 31.9461H77.9563V41.0001H76.5163V33.7821H76.9123L73.6723 39.5421H72.8623L69.6223 33.7641H70.0003V41.0001H68.5603Z" fill="#343434"/>
<path d="M84.9355 41.1621C83.4955 41.1621 82.3555 40.7481 81.5155 39.9201C80.6875 39.0921 80.2735 37.9521 80.2735 36.5001C80.2735 35.5401 80.4535 34.7121 80.8135 34.0161C81.1855 33.3081 81.6955 32.7621 82.3435 32.3781C82.9915 31.9821 83.7475 31.7841 84.6115 31.7841C85.4395 31.7841 86.1415 31.9641 86.7175 32.3241C87.2935 32.6721 87.7315 33.1701 88.0315 33.8181C88.3315 34.4661 88.4815 35.2341 88.4815 36.1221V36.6621H81.5515V35.6901H87.3655L87.0595 35.9241C87.0595 34.9881 86.8495 34.2621 86.4295 33.7461C86.0215 33.2301 85.4155 32.9721 84.6115 32.9721C83.7355 32.9721 83.0575 33.2781 82.5775 33.8901C82.0975 34.4901 81.8575 35.3121 81.8575 36.3561V36.5181C81.8575 37.6221 82.1275 38.4561 82.6675 39.0201C83.2195 39.5841 83.9815 39.8661 84.9535 39.8661C85.4935 39.8661 85.9975 39.7881 86.4655 39.6321C86.9335 39.4761 87.3835 39.2181 87.8155 38.8581L88.3555 39.9921C87.9475 40.3641 87.4375 40.6521 86.8255 40.8561C86.2255 41.0601 85.5955 41.1621 84.9355 41.1621ZM85.3675 30.0921V28.4181H87.0415V30.0921H85.3675ZM82.1815 30.0921V28.4181H83.8555V30.0921H82.1815Z" fill="#343434"/>
<path d="M90.7615 41.0001V31.9461H92.3095V39.7221H95.9995V31.9461H97.5475V39.7221H101.219V31.9461H102.785V41.0001H90.7615Z" fill="#343434"/>
<path d="M105.597 41.0001V31.9461H107.217V35.1501H109.881C111.057 35.1501 111.939 35.4021 112.527 35.9061C113.127 36.3981 113.427 37.1121 113.427 38.0481C113.427 38.6481 113.289 39.1701 113.013 39.6141C112.737 40.0581 112.335 40.4001 111.807 40.6401C111.279 40.8801 110.637 41.0001 109.881 41.0001H105.597ZM107.217 39.8661H109.701C110.409 39.8661 110.949 39.7221 111.321 39.4341C111.693 39.1341 111.879 38.6781 111.879 38.0661C111.879 37.4541 111.693 37.0041 111.321 36.7161C110.961 36.4281 110.421 36.2841 109.701 36.2841H107.217V39.8661Z" fill="#343434"/>
<path d="M116.051 43.1421L115.313 42.5661C115.649 42.2181 115.877 41.8881 115.997 41.5761C116.117 41.2761 116.177 40.9641 116.177 40.6401L116.537 41.0001H115.223V39.0021H117.221V40.3881C117.221 40.9041 117.137 41.3781 116.969 41.8101C116.801 42.2541 116.495 42.6981 116.051 43.1421Z" fill="#343434"/>
<path d="M124.35 41.0001V31.9101H126.582V35.4741H127.95L130.614 31.9101H133.026L129.678 36.4461L129.192 35.7441C129.528 35.7801 129.822 35.8701 130.074 36.0141C130.338 36.1581 130.584 36.3621 130.812 36.6261C131.052 36.8781 131.286 37.2021 131.514 37.5981L133.422 41.0001H131.028L129.48 38.2641C129.324 37.9881 129.168 37.7721 129.012 37.6161C128.856 37.4601 128.682 37.3521 128.49 37.2921C128.298 37.2321 128.064 37.2021 127.788 37.2021H126.582V41.0001H124.35Z" fill="#343434"/>
<path d="M138.198 41.1801C137.406 41.1801 136.71 40.9941 136.11 40.6221C135.51 40.2381 135.042 39.6921 134.706 38.9841C134.37 38.2761 134.202 37.4301 134.202 36.4461C134.202 35.4621 134.37 34.6221 134.706 33.9261C135.042 33.2181 135.51 32.6781 136.11 32.3061C136.71 31.9221 137.406 31.7301 138.198 31.7301C138.966 31.7301 139.638 31.9221 140.214 32.3061C140.802 32.6781 141.192 33.1821 141.384 33.8181H141.186L141.384 31.9101H143.544C143.508 32.2821 143.472 32.6601 143.436 33.0441C143.412 33.4281 143.4 33.8061 143.4 34.1781V41.0001H141.168L141.15 39.1281H141.366C141.174 39.7521 140.784 40.2501 140.196 40.6221C139.608 40.9941 138.942 41.1801 138.198 41.1801ZM138.828 39.4521C139.536 39.4521 140.106 39.2061 140.538 38.7141C140.97 38.2101 141.186 37.4541 141.186 36.4461C141.186 35.4381 140.97 34.6881 140.538 34.1961C140.106 33.7041 139.536 33.4581 138.828 33.4581C138.12 33.4581 137.55 33.7041 137.118 34.1961C136.686 34.6881 136.47 35.4381 136.47 36.4461C136.47 37.4541 136.68 38.2101 137.1 38.7141C137.532 39.2061 138.108 39.4521 138.828 39.4521Z" fill="#343434"/>
<path d="M146.024 41.0001V31.9101H148.256V35.4741H149.624L152.288 31.9101H154.7L151.352 36.4461L150.866 35.7441C151.202 35.7801 151.496 35.8701 151.748 36.0141C152.012 36.1581 152.258 36.3621 152.486 36.6261C152.726 36.8781 152.96 37.2021 153.188 37.5981L155.096 41.0001H152.702L151.154 38.2641C150.998 37.9881 150.842 37.7721 150.686 37.6161C150.53 37.4601 150.356 37.3521 150.164 37.2921C149.972 37.2321 149.738 37.2021 149.462 37.2021H148.256V41.0001H146.024Z" fill="#343434"/>
<path d="M36.626 61.1801C35.81 61.1801 35.042 61.0841 34.322 60.8921C33.614 60.7001 33.02 60.4241 32.54 60.0641L33.17 58.5881C33.614 58.9121 34.13 59.1581 34.718 59.3261C35.318 59.4941 35.948 59.5781 36.608 59.5781C37.376 59.5781 37.934 59.4761 38.282 59.2721C38.642 59.0561 38.822 58.7441 38.822 58.3361C38.822 57.9521 38.684 57.6641 38.408 57.4721C38.132 57.2681 37.724 57.1661 37.184 57.1661H34.826V55.6181H36.968C37.46 55.6181 37.838 55.5221 38.102 55.3301C38.366 55.1381 38.498 54.8681 38.498 54.5201C38.498 54.1481 38.336 53.8541 38.012 53.6381C37.7 53.4221 37.184 53.3141 36.464 53.3141C35.84 53.3141 35.27 53.3921 34.754 53.5481C34.238 53.6921 33.752 53.9081 33.296 54.1961L32.684 52.7921C33.176 52.4441 33.77 52.1801 34.466 52.0001C35.174 51.8201 35.942 51.7301 36.77 51.7301C37.982 51.7301 38.912 51.9521 39.56 52.3961C40.208 52.8401 40.532 53.4701 40.532 54.2861C40.532 54.8381 40.34 55.3121 39.956 55.7081C39.584 56.1041 39.08 56.3501 38.444 56.4461V56.1941C39.188 56.2421 39.776 56.4641 40.208 56.8601C40.64 57.2561 40.856 57.7901 40.856 58.4621C40.856 59.2901 40.49 59.9501 39.758 60.4421C39.026 60.9341 37.982 61.1801 36.626 61.1801Z" fill="#343434"/>
<path d="M46.405 61.1801C45.613 61.1801 44.917 60.9941 44.317 60.6221C43.717 60.2381 43.249 59.6921 42.913 58.9841C42.577 58.2761 42.409 57.4301 42.409 56.4461C42.409 55.4621 42.577 54.6221 42.913 53.9261C43.249 53.2181 43.717 52.6781 44.317 52.3061C44.917 51.9221 45.613 51.7301 46.405 51.7301C47.173 51.7301 47.845 51.9221 48.421 52.3061C49.009 52.6781 49.399 53.1821 49.591 53.8181H49.393L49.591 51.9101H51.751C51.715 52.2821 51.679 52.6601 51.643 53.0441C51.619 53.4281 51.607 53.8061 51.607 54.1781V61.0001H49.375L49.357 59.1281H49.573C49.381 59.7521 48.991 60.2501 48.403 60.6221C47.815 60.9941 47.149 61.1801 46.405 61.1801ZM47.035 59.4521C47.743 59.4521 48.313 59.2061 48.745 58.7141C49.177 58.2101 49.393 57.4541 49.393 56.4461C49.393 55.4381 49.177 54.6881 48.745 54.1961C48.313 53.7041 47.743 53.4581 47.035 53.4581C46.327 53.4581 45.757 53.7041 45.325 54.1961C44.893 54.6881 44.677 55.4381 44.677 56.4461C44.677 57.4541 44.887 58.2101 45.307 58.7141C45.739 59.2061 46.315 59.4521 47.035 59.4521Z" fill="#343434"/>
<path d="M54.3032 64.8881V54.1781C54.3032 53.8061 54.2912 53.4281 54.2672 53.0441C54.2432 52.6601 54.2072 52.2821 54.1592 51.9101H56.3372L56.5352 53.8181H56.3372C56.5172 53.1821 56.8952 52.6781 57.4712 52.3061C58.0592 51.9221 58.7372 51.7301 59.5052 51.7301C60.3092 51.7301 61.0112 51.9221 61.6112 52.3061C62.2112 52.6781 62.6792 53.2181 63.0152 53.9261C63.3512 54.6221 63.5192 55.4621 63.5192 56.4461C63.5192 57.4301 63.3512 58.2761 63.0152 58.9841C62.6792 59.6921 62.2112 60.2381 61.6112 60.6221C61.0112 60.9941 60.3092 61.1801 59.5052 61.1801C58.7492 61.1801 58.0832 60.9941 57.5072 60.6221C56.9312 60.2501 56.5472 59.7521 56.3552 59.1281H56.5532V64.8881H54.3032ZM58.8752 59.4521C59.5952 59.4521 60.1712 59.2061 60.6032 58.7141C61.0352 58.2101 61.2512 57.4541 61.2512 56.4461C61.2512 55.4381 61.0352 54.6881 60.6032 54.1961C60.1712 53.7041 59.5952 53.4581 58.8752 53.4581C58.1672 53.4581 57.5972 53.7041 57.1652 54.1961C56.7332 54.6881 56.5172 55.4381 56.5172 56.4461C56.5172 57.4541 56.7332 58.2101 57.1652 58.7141C57.5972 59.2061 58.1672 59.4521 58.8752 59.4521Z" fill="#343434"/>
<path d="M69.2214 61.1801C68.4294 61.1801 67.7334 60.9941 67.1334 60.6221C66.5334 60.2381 66.0654 59.6921 65.7294 58.9841C65.3934 58.2761 65.2254 57.4301 65.2254 56.4461C65.2254 55.4621 65.3934 54.6221 65.7294 53.9261C66.0654 53.2181 66.5334 52.6781 67.1334 52.3061C67.7334 51.9221 68.4294 51.7301 69.2214 51.7301C69.9894 51.7301 70.6614 51.9221 71.2374 52.3061C71.8254 52.6781 72.2154 53.1821 72.4074 53.8181H72.2094L72.4074 51.9101H74.5674C74.5314 52.2821 74.4954 52.6601 74.4594 53.0441C74.4354 53.4281 74.4234 53.8061 74.4234 54.1781V61.0001H72.1914L72.1734 59.1281H72.3894C72.1974 59.7521 71.8074 60.2501 71.2194 60.6221C70.6314 60.9941 69.9654 61.1801 69.2214 61.1801ZM69.8514 59.4521C70.5594 59.4521 71.1294 59.2061 71.5614 58.7141C71.9934 58.2101 72.2094 57.4541 72.2094 56.4461C72.2094 55.4381 71.9934 54.6881 71.5614 54.1961C71.1294 53.7041 70.5594 53.4581 69.8514 53.4581C69.1434 53.4581 68.5734 53.7041 68.1414 54.1961C67.7094 54.6881 67.4934 55.4381 67.4934 56.4461C67.4934 57.4541 67.7034 58.2101 68.1234 58.7141C68.5554 59.2061 69.1314 59.4521 69.8514 59.4521Z" fill="#343434"/>
<path d="M81.3136 61.1801C79.8856 61.1801 78.7456 60.7481 77.8936 59.8841C77.0536 59.0201 76.6336 57.7541 76.6336 56.0861V54.5381C76.6336 52.8221 77.0236 51.4421 77.8036 50.3981C78.5836 49.3541 79.7596 48.6641 81.3316 48.3281L84.6616 47.5721L85.2736 49.3361L81.5296 50.1641C80.9056 50.2961 80.3896 50.5481 79.9816 50.9201C79.5736 51.2801 79.2676 51.7121 79.0636 52.2161C78.8596 52.7201 78.7576 53.2601 78.7576 53.8361V54.7901H78.4516C78.5836 54.2501 78.8056 53.7821 79.1176 53.3861C79.4296 52.9781 79.8256 52.6601 80.3056 52.4321C80.7856 52.2041 81.3316 52.0901 81.9436 52.0901C82.7116 52.0901 83.3836 52.2701 83.9596 52.6301C84.5476 52.9781 85.0096 53.4881 85.3456 54.1601C85.6816 54.8201 85.8496 55.6121 85.8496 56.5361C85.8496 57.4841 85.6576 58.3061 85.2736 59.0021C84.9016 59.6981 84.3736 60.2381 83.6896 60.6221C83.0176 60.9941 82.2256 61.1801 81.3136 61.1801ZM81.2416 59.4701C81.9856 59.4701 82.5616 59.2361 82.9696 58.7681C83.3896 58.2881 83.5996 57.5741 83.5996 56.6261C83.5996 55.7021 83.3896 55.0001 82.9696 54.5201C82.5496 54.0281 81.9736 53.7821 81.2416 53.7821C80.5096 53.7821 79.9336 54.0221 79.5136 54.5021C79.0936 54.9821 78.8836 55.6661 78.8836 56.5541C78.8836 57.5261 79.0936 58.2581 79.5136 58.7501C79.9336 59.2301 80.5096 59.4701 81.2416 59.4701Z" fill="#343434"/>
<path d="M91.5632 61.1801C90.7712 61.1801 90.0752 60.9941 89.4752 60.6221C88.8752 60.2381 88.4072 59.6921 88.0712 58.9841C87.7352 58.2761 87.5672 57.4301 87.5672 56.4461C87.5672 55.4621 87.7352 54.6221 88.0712 53.9261C88.4072 53.2181 88.8752 52.6781 89.4752 52.3061C90.0752 51.9221 90.7712 51.7301 91.5632 51.7301C92.3312 51.7301 93.0032 51.9221 93.5792 52.3061C94.1672 52.6781 94.5572 53.1821 94.7492 53.8181H94.5512L94.7492 51.9101H96.9092C96.8732 52.2821 96.8372 52.6601 96.8012 53.0441C96.7772 53.4281 96.7652 53.8061 96.7652 54.1781V61.0001H94.5332L94.5152 59.1281H94.7312C94.5392 59.7521 94.1492 60.2501 93.5612 60.6221C92.9732 60.9941 92.3072 61.1801 91.5632 61.1801ZM92.1932 59.4521C92.9012 59.4521 93.4712 59.2061 93.9032 58.7141C94.3352 58.2101 94.5512 57.4541 94.5512 56.4461C94.5512 55.4381 94.3352 54.6881 93.9032 54.1961C93.4712 53.7041 92.9012 53.4581 92.1932 53.4581C91.4852 53.4581 90.9152 53.7041 90.4832 54.1961C90.0512 54.6881 89.8352 55.4381 89.8352 56.4461C89.8352 57.4541 90.0452 58.2101 90.4652 58.7141C90.8972 59.2061 91.4732 59.4521 92.1932 59.4521Z" fill="#343434"/>
<path d="M101.351 61.0001V53.6741H98.2374V51.9101H106.715V53.6741H103.583V61.0001H101.351Z" fill="#343434"/>
<path d="M108.108 61.0001V51.9101H110.34V54.9521H112.734C113.946 54.9521 114.858 55.2101 115.47 55.7261C116.082 56.2301 116.388 56.9621 116.388 57.9221C116.388 58.5461 116.244 59.0921 115.956 59.5601C115.668 60.0161 115.248 60.3701 114.696 60.6221C114.156 60.8741 113.502 61.0001 112.734 61.0001H108.108ZM110.34 59.5241H112.428C113.04 59.5241 113.508 59.3981 113.832 59.1461C114.156 58.8821 114.318 58.4861 114.318 57.9581C114.318 57.4301 114.156 57.0461 113.832 56.8061C113.52 56.5541 113.052 56.4281 112.428 56.4281H110.34V59.5241ZM117.522 61.0001V51.9101H119.754V61.0001H117.522Z" fill="#343434"/>
<path d="M122.311 61.0001V51.9101H127.153C128.293 51.9101 129.127 52.1201 129.655 52.5401C130.183 52.9481 130.447 53.5301 130.447 54.2861C130.447 54.8621 130.255 55.3421 129.871 55.7261C129.487 56.1101 128.977 56.3501 128.341 56.4461V56.1941C129.121 56.2421 129.721 56.4701 130.141 56.8781C130.561 57.2861 130.771 57.8141 130.771 58.4621C130.771 59.2421 130.471 59.8601 129.871 60.3161C129.271 60.7721 128.419 61.0001 127.315 61.0001H122.311ZM124.399 59.6141H127.081C127.609 59.6141 128.011 59.5061 128.287 59.2901C128.575 59.0741 128.719 58.7561 128.719 58.3361C128.719 57.9161 128.575 57.5981 128.287 57.3821C128.011 57.1661 127.609 57.0581 127.081 57.0581H124.399V59.6141ZM124.399 55.6721H126.883C127.363 55.6721 127.735 55.5701 127.999 55.3661C128.263 55.1501 128.395 54.8501 128.395 54.4661C128.395 54.0821 128.263 53.7881 127.999 53.5841C127.735 53.3801 127.363 53.2781 126.883 53.2781H124.399V55.6721Z" fill="#343434"/>
<path d="M136.317 61.1801C135.525 61.1801 134.829 60.9941 134.229 60.6221C133.629 60.2381 133.161 59.6921 132.825 58.9841C132.489 58.2761 132.321 57.4301 132.321 56.4461C132.321 55.4621 132.489 54.6221 132.825 53.9261C133.161 53.2181 133.629 52.6781 134.229 52.3061C134.829 51.9221 135.525 51.7301 136.317 51.7301C137.085 51.7301 137.757 51.9221 138.333 52.3061C138.921 52.6781 139.311 53.1821 139.503 53.8181H139.305L139.503 51.9101H141.663C141.627 52.2821 141.591 52.6601 141.555 53.0441C141.531 53.4281 141.519 53.8061 141.519 54.1781V61.0001H139.287L139.269 59.1281H139.485C139.293 59.7521 138.903 60.2501 138.315 60.6221C137.727 60.9941 137.061 61.1801 136.317 61.1801ZM136.947 59.4521C137.655 59.4521 138.225 59.2061 138.657 58.7141C139.089 58.2101 139.305 57.4541 139.305 56.4461C139.305 55.4381 139.089 54.6881 138.657 54.1961C138.225 53.7041 137.655 53.4581 136.947 53.4581C136.239 53.4581 135.669 53.7041 135.237 54.1961C134.805 54.6881 134.589 55.4381 134.589 56.4461C134.589 57.4541 134.799 58.2101 135.219 58.7141C135.651 59.2061 136.227 59.4521 136.947 59.4521Z" fill="#343434"/>
<path d="M146.105 61.0001V53.6741H142.991V51.9101H151.469V53.6741H148.337V61.0001H146.105Z" fill="#343434"/>
<path d="M152.862 61.0001V51.9101H155.094V54.9521H157.488C158.7 54.9521 159.612 55.2101 160.224 55.7261C160.836 56.2301 161.142 56.9621 161.142 57.9221C161.142 58.5461 160.998 59.0921 160.71 59.5601C160.422 60.0161 160.002 60.3701 159.45 60.6221C158.91 60.8741 158.256 61.0001 157.488 61.0001H152.862ZM155.094 59.5241H157.182C157.794 59.5241 158.262 59.3981 158.586 59.1461C158.91 58.8821 159.072 58.4861 159.072 57.9581C159.072 57.4301 158.91 57.0461 158.586 56.8061C158.274 56.5541 157.806 56.4281 157.182 56.4281H155.094V59.5241Z" fill="#343434"/>
<path d="M167.962 61.0001V51.9101H169.996V58.7861H169.456L174.622 51.9101H176.476V61.0001H174.442V54.1061H175L169.816 61.0001H167.962Z" fill="#343434"/>
<path d="M182.384 61.1801C181.568 61.1801 180.8 61.0841 180.08 60.8921C179.372 60.7001 178.778 60.4241 178.298 60.0641L178.928 58.5881C179.372 58.9121 179.888 59.1581 180.476 59.3261C181.076 59.4941 181.706 59.5781 182.366 59.5781C183.134 59.5781 183.692 59.4761 184.04 59.2721C184.4 59.0561 184.58 58.7441 184.58 58.3361C184.58 57.9521 184.442 57.6641 184.166 57.4721C183.89 57.2681 183.482 57.1661 182.942 57.1661H180.584V55.6181H182.726C183.218 55.6181 183.596 55.5221 183.86 55.3301C184.124 55.1381 184.256 54.8681 184.256 54.5201C184.256 54.1481 184.094 53.8541 183.77 53.6381C183.458 53.4221 182.942 53.3141 182.222 53.3141C181.598 53.3141 181.028 53.3921 180.512 53.5481C179.996 53.6921 179.51 53.9081 179.054 54.1961L178.442 52.7921C178.934 52.4441 179.528 52.1801 180.224 52.0001C180.932 51.8201 181.7 51.7301 182.528 51.7301C183.74 51.7301 184.67 51.9521 185.318 52.3961C185.966 52.8401 186.29 53.4701 186.29 54.2861C186.29 54.8381 186.098 55.3121 185.714 55.7081C185.342 56.1041 184.838 56.3501 184.202 56.4461V56.1941C184.946 56.2421 185.534 56.4641 185.966 56.8601C186.398 57.2561 186.614 57.7901 186.614 58.4621C186.614 59.2901 186.248 59.9501 185.516 60.4421C184.784 60.9341 183.74 61.1801 182.384 61.1801Z" fill="#343434"/>
<path d="M192.71 63.3401V59.2901H193.754C194.114 58.7261 194.372 58.0661 194.528 57.3101C194.696 56.5421 194.78 55.6061 194.78 54.5021V51.9101H201.782V59.2901H203.258V63.3401H201.35V61.0001H194.618V63.3401H192.71ZM195.77 59.3081H199.676V53.6021H196.688V55.0061C196.688 55.8101 196.61 56.5961 196.454 57.3641C196.298 58.1321 196.07 58.7801 195.77 59.3081Z" fill="#343434"/>
<path d="M209.087 61.1801C208.151 61.1801 207.341 60.9881 206.657 60.6041C205.973 60.2201 205.439 59.6741 205.055 58.9661C204.683 58.2581 204.497 57.4181 204.497 56.4461C204.497 55.4741 204.683 54.6401 205.055 53.9441C205.439 53.2361 205.973 52.6901 206.657 52.3061C207.341 51.9221 208.151 51.7301 209.087 51.7301C210.023 51.7301 210.833 51.9221 211.517 52.3061C212.213 52.6901 212.747 53.2361 213.119 53.9441C213.503 54.6401 213.695 55.4741 213.695 56.4461C213.695 57.4181 213.503 58.2581 213.119 58.9661C212.747 59.6741 212.213 60.2201 211.517 60.6041C210.833 60.9881 210.023 61.1801 209.087 61.1801ZM209.087 59.4521C209.795 59.4521 210.359 59.2061 210.779 58.7141C211.199 58.2101 211.409 57.4541 211.409 56.4461C211.409 55.4381 211.199 54.6881 210.779 54.1961C210.359 53.7041 209.795 53.4581 209.087 53.4581C208.379 53.4581 207.815 53.7041 207.395 54.1961C206.975 54.6881 206.765 55.4381 206.765 56.4461C206.765 57.4541 206.975 58.2101 207.395 58.7141C207.815 59.2061 208.379 59.4521 209.087 59.4521Z" fill="#343434"/>
<path d="M215.827 61.0001V51.9101H217.699L220.831 57.3461L223.963 51.9101H225.835V61.0001H223.855V54.4301H224.269L221.353 59.5241H220.309L217.393 54.4301H217.807V61.0001H215.827Z" fill="#343434"/>
<path d="M231.977 61.1801C231.185 61.1801 230.489 60.9941 229.889 60.6221C229.289 60.2381 228.821 59.6921 228.485 58.9841C228.149 58.2761 227.981 57.4301 227.981 56.4461C227.981 55.4621 228.149 54.6221 228.485 53.9261C228.821 53.2181 229.289 52.6781 229.889 52.3061C230.489 51.9221 231.185 51.7301 231.977 51.7301C232.745 51.7301 233.417 51.9221 233.993 52.3061C234.581 52.6781 234.971 53.1821 235.163 53.8181H234.965L235.163 51.9101H237.323C237.287 52.2821 237.251 52.6601 237.215 53.0441C237.191 53.4281 237.179 53.8061 237.179 54.1781V61.0001H234.947L234.929 59.1281H235.145C234.953 59.7521 234.563 60.2501 233.975 60.6221C233.387 60.9941 232.721 61.1801 231.977 61.1801ZM232.607 59.4521C233.315 59.4521 233.885 59.2061 234.317 58.7141C234.749 58.2101 234.965 57.4541 234.965 56.4461C234.965 55.4381 234.749 54.6881 234.317 54.1961C233.885 53.7041 233.315 53.4581 232.607 53.4581C231.899 53.4581 231.329 53.7041 230.897 54.1961C230.465 54.6881 230.249 55.4381 230.249 56.4461C230.249 57.4541 230.459 58.2101 230.879 58.7141C231.311 59.2061 231.887 59.4521 232.607 59.4521Z" fill="#343434"/>
<path d="M37.346 81.1621C36.446 81.1621 35.666 80.9761 35.006 80.6041C34.346 80.2201 33.83 79.6741 33.458 78.9661C33.098 78.2461 32.918 77.3941 32.918 76.4101C32.918 75.4381 33.104 74.6101 33.476 73.9261C33.848 73.2301 34.364 72.7021 35.024 72.3421C35.684 71.9701 36.458 71.7841 37.346 71.7841C37.934 71.7841 38.504 71.8861 39.056 72.0901C39.608 72.2821 40.058 72.5641 40.406 72.9361L39.848 74.0881C39.5 73.7521 39.116 73.5061 38.696 73.3501C38.276 73.1821 37.862 73.0981 37.454 73.0981C36.566 73.0981 35.87 73.3861 35.366 73.9621C34.862 74.5261 34.61 75.3481 34.61 76.4281C34.61 77.5201 34.862 78.3601 35.366 78.9481C35.87 79.5361 36.566 79.8301 37.454 79.8301C37.85 79.8301 38.258 79.7521 38.678 79.5961C39.098 79.4401 39.488 79.1941 39.848 78.8581L40.406 79.9921C40.046 80.3761 39.584 80.6701 39.02 80.8741C38.468 81.0661 37.91 81.1621 37.346 81.1621Z" fill="#343434"/>
<path d="M46.3548 83.3401V79.7221H47.3448C47.7528 79.1101 48.0468 78.3901 48.2268 77.5621C48.4188 76.7341 48.5148 75.7501 48.5148 74.6101V71.9461H55.0128V79.7221H56.4528V83.3401H55.0488V81.0001H47.7768V83.3401H46.3548ZM48.8928 79.7401H53.4828V73.2061H49.9548V74.8981C49.9548 75.8101 49.8648 76.6981 49.6848 77.5621C49.5048 78.4141 49.2408 79.1401 48.8928 79.7401Z" fill="#343434"/>
<path d="M62.5234 81.1621C61.0834 81.1621 59.9434 80.7481 59.1034 79.9201C58.2754 79.0921 57.8614 77.9521 57.8614 76.5001C57.8614 75.5401 58.0414 74.7121 58.4014 74.0161C58.7734 73.3081 59.2834 72.7621 59.9314 72.3781C60.5794 71.9821 61.3354 71.7841 62.1994 71.7841C63.0274 71.7841 63.7294 71.9641 64.3054 72.3241C64.8814 72.6721 65.3194 73.1701 65.6194 73.8181C65.9194 74.4661 66.0694 75.2341 66.0694 76.1221V76.6621H59.1394V75.6901H64.9534L64.6474 75.9241C64.6474 74.9881 64.4374 74.2621 64.0174 73.7461C63.6094 73.2301 63.0034 72.9721 62.1994 72.9721C61.3234 72.9721 60.6454 73.2781 60.1654 73.8901C59.6854 74.4901 59.4454 75.3121 59.4454 76.3561V76.5181C59.4454 77.6221 59.7154 78.4561 60.2554 79.0201C60.8074 79.5841 61.5694 79.8661 62.5414 79.8661C63.0814 79.8661 63.5854 79.7881 64.0534 79.6321C64.5214 79.4761 64.9714 79.2181 65.4034 78.8581L65.9434 79.9921C65.5354 80.3641 65.0254 80.6521 64.4134 80.8561C63.8134 81.0601 63.1834 81.1621 62.5234 81.1621Z" fill="#343434"/>
<path d="M70.2934 81.0001V73.2601H67.0354V71.9461H75.1714V73.2601H71.9134V81.0001H70.2934Z" fill="#343434"/>
<path d="M76.6638 81.0001V71.9461H78.2838V75.6901H79.9218L82.8378 71.9461H84.6198L81.2358 76.3561L80.8038 75.8521C81.1518 75.8881 81.4518 75.9781 81.7038 76.1221C81.9558 76.2541 82.1958 76.4521 82.4238 76.7161C82.6638 76.9801 82.9218 77.3341 83.1978 77.7781L85.0698 81.0001H83.3058L81.6678 78.2101C81.4878 77.8861 81.3078 77.6341 81.1278 77.4541C80.9478 77.2741 80.7438 77.1481 80.5158 77.0761C80.2998 77.0041 80.0238 76.9681 79.6878 76.9681H78.2838V81.0001H76.6638Z" fill="#343434"/>
<path d="M89.9824 81.1621C89.1904 81.1621 88.4944 80.9761 87.8944 80.6041C87.2944 80.2321 86.8264 79.6921 86.4904 78.9841C86.1544 78.2761 85.9864 77.4361 85.9864 76.4641C85.9864 75.4921 86.1544 74.6581 86.4904 73.9621C86.8264 73.2541 87.2944 72.7141 87.8944 72.3421C88.4944 71.9701 89.1904 71.7841 89.9824 71.7841C90.7864 71.7841 91.4824 71.9881 92.0704 72.3961C92.6704 72.7921 93.0664 73.3381 93.2584 74.0341H93.0424L93.2404 71.9461H94.8244C94.7884 72.3061 94.7524 72.6661 94.7164 73.0261C94.6924 73.3861 94.6804 73.7401 94.6804 74.0881V81.0001H93.0424V78.9301H93.2404C93.0484 79.6141 92.6524 80.1601 92.0524 80.5681C91.4644 80.9641 90.7744 81.1621 89.9824 81.1621ZM90.3604 79.8661C91.1764 79.8661 91.8304 79.5781 92.3224 79.0021C92.8144 78.4261 93.0604 77.5801 93.0604 76.4641C93.0604 75.3481 92.8144 74.5081 92.3224 73.9441C91.8304 73.3801 91.1764 73.0981 90.3604 73.0981C89.5444 73.0981 88.8844 73.3801 88.3804 73.9441C87.8884 74.5081 87.6424 75.3481 87.6424 76.4641C87.6424 77.5801 87.8884 78.4261 88.3804 79.0021C88.8724 79.5781 89.5324 79.8661 90.3604 79.8661Z" fill="#343434"/>
<path d="M97.5642 81.0001V71.9461H98.9322L102.262 77.8681L105.61 71.9461H106.96V81.0001H105.52V73.7821H105.916L102.676 79.5421H101.866L98.6262 73.7641H99.0042V81.0001H97.5642Z" fill="#343434"/>
<path d="M109.763 81.0001V71.9461H111.257V79.4521H110.771L116.387 71.9461H117.755V81.0001H116.261V73.4761H116.765L111.131 81.0001H109.763Z" fill="#343434"/>
<path d="M125.302 81.0001V71.9461H126.922V75.6901H131.71V71.9461H133.33V81.0001H131.71V76.9861H126.922V81.0001H125.302Z" fill="#343434"/>
<path d="M139.641 81.1621C138.849 81.1621 138.153 80.9761 137.553 80.6041C136.953 80.2321 136.485 79.6921 136.149 78.9841C135.813 78.2761 135.645 77.4361 135.645 76.4641C135.645 75.4921 135.813 74.6581 136.149 73.9621C136.485 73.2541 136.953 72.7141 137.553 72.3421C138.153 71.9701 138.849 71.7841 139.641 71.7841C140.445 71.7841 141.141 71.9881 141.729 72.3961C142.329 72.7921 142.725 73.3381 142.917 74.0341H142.701L142.899 71.9461H144.483C144.447 72.3061 144.411 72.6661 144.375 73.0261C144.351 73.3861 144.339 73.7401 144.339 74.0881V81.0001H142.701V78.9301H142.899C142.707 79.6141 142.311 80.1601 141.711 80.5681C141.123 80.9641 140.433 81.1621 139.641 81.1621ZM140.019 79.8661C140.835 79.8661 141.489 79.5781 141.981 79.0021C142.473 78.4261 142.719 77.5801 142.719 76.4641C142.719 75.3481 142.473 74.5081 141.981 73.9441C141.489 73.3801 140.835 73.0981 140.019 73.0981C139.203 73.0981 138.543 73.3801 138.039 73.9441C137.547 74.5081 137.301 75.3481 137.301 76.4641C137.301 77.5801 137.547 78.4261 138.039 79.0021C138.531 79.5781 139.191 79.8661 140.019 79.8661Z" fill="#343434"/>
<path d="M152.022 84.8881V74.0881C152.022 73.7401 152.01 73.3861 151.986 73.0261C151.962 72.6661 151.926 72.3061 151.878 71.9461H153.462L153.66 74.0341H153.462C153.642 73.3381 154.026 72.7921 154.614 72.3961C155.202 71.9881 155.904 71.7841 156.72 71.7841C157.524 71.7841 158.226 71.9701 158.826 72.3421C159.426 72.7141 159.888 73.2541 160.212 73.9621C160.548 74.6581 160.716 75.4921 160.716 76.4641C160.716 77.4361 160.548 78.2761 160.212 78.9841C159.888 79.6921 159.426 80.2321 158.826 80.6041C158.226 80.9761 157.524 81.1621 156.72 81.1621C155.916 81.1621 155.22 80.9641 154.632 80.5681C154.056 80.1601 153.666 79.6141 153.462 78.9301H153.66V84.8881H152.022ZM156.342 79.8661C157.17 79.8661 157.83 79.5781 158.322 79.0021C158.814 78.4261 159.06 77.5801 159.06 76.4641C159.06 75.3481 158.814 74.5081 158.322 73.9441C157.83 73.3801 157.17 73.0981 156.342 73.0981C155.514 73.0981 154.854 73.3801 154.362 73.9441C153.882 74.5081 153.642 75.3481 153.642 76.4641C153.642 77.5801 153.882 78.4261 154.362 79.0021C154.854 79.5781 155.514 79.8661 156.342 79.8661Z" fill="#343434"/>
<path d="M162.685 85.0861L162.307 83.7541C162.871 83.6221 163.339 83.4661 163.711 83.2861C164.083 83.1181 164.395 82.8961 164.647 82.6201C164.899 82.3441 165.121 81.9961 165.313 81.5761L165.763 80.4961L165.727 81.1801L161.785 71.9461H163.549L166.699 79.7041H166.231L169.381 71.9461H171.073L166.915 81.7021C166.663 82.2901 166.387 82.7821 166.087 83.1781C165.799 83.5741 165.481 83.8981 165.133 84.1501C164.797 84.4021 164.425 84.6001 164.017 84.7441C163.609 84.8881 163.165 85.0021 162.685 85.0861Z" fill="#343434"/>
<path d="M172.728 81.0001V71.9461H174.348V75.6901H175.986L178.902 71.9461H180.684L177.3 76.3561L176.868 75.8521C177.216 75.8881 177.516 75.9781 177.768 76.1221C178.02 76.2541 178.26 76.4521 178.488 76.7161C178.728 76.9801 178.986 77.3341 179.262 77.7781L181.134 81.0001H179.37L177.732 78.2101C177.552 77.8861 177.372 77.6341 177.192 77.4541C177.012 77.2741 176.808 77.1481 176.58 77.0761C176.364 77.0041 176.088 76.9681 175.752 76.9681H174.348V81.0001H172.728Z" fill="#343434"/>
<path d="M186.047 81.1621C185.255 81.1621 184.559 80.9761 183.959 80.6041C183.359 80.2321 182.891 79.6921 182.555 78.9841C182.219 78.2761 182.051 77.4361 182.051 76.4641C182.051 75.4921 182.219 74.6581 182.555 73.9621C182.891 73.2541 183.359 72.7141 183.959 72.3421C184.559 71.9701 185.255 71.7841 186.047 71.7841C186.851 71.7841 187.547 71.9881 188.135 72.3961C188.735 72.7921 189.131 73.3381 189.323 74.0341H189.107L189.305 71.9461H190.889C190.853 72.3061 190.817 72.6661 190.781 73.0261C190.757 73.3861 190.745 73.7401 190.745 74.0881V81.0001H189.107V78.9301H189.305C189.113 79.6141 188.717 80.1601 188.117 80.5681C187.529 80.9641 186.839 81.1621 186.047 81.1621ZM186.425 79.8661C187.241 79.8661 187.895 79.5781 188.387 79.0021C188.879 78.4261 189.125 77.5801 189.125 76.4641C189.125 75.3481 188.879 74.5081 188.387 73.9441C187.895 73.3801 187.241 73.0981 186.425 73.0981C185.609 73.0981 184.949 73.3801 184.445 73.9441C183.953 74.5081 183.707 75.3481 183.707 76.4641C183.707 77.5801 183.953 78.4261 184.445 79.0021C184.937 79.5781 185.597 79.8661 186.425 79.8661Z" fill="#343434"/>
<path d="M192.423 81.0001L196.527 75.9241V76.7341L192.657 71.9461H194.619L197.445 75.5641H196.851L199.677 71.9461H201.621L197.805 76.6981V75.9601L201.855 81.0001H199.875L196.851 77.1301H197.445L194.385 81.0001H192.423Z" fill="#343434"/>
<path d="M288 22C288 25.3137 285.314 28 282 28C278.686 28 276 25.3137 276 22C276 18.6863 278.686 16 282 16C285.314 16 288 18.6863 288 22Z" fill="#DBD3F0"/>
<defs>
<linearGradient id="paint0_linear_100_214" x1="152" y1="0" x2="152" y2="128" gradientUnits="userSpaceOnUse">
<stop stop-color="white"/>
<stop offset="1" stop-color="white" stop-opacity="0.8"/>
</linearGradient>
</defs>
</svg>
