<svg width="411" height="128" viewBox="0 0 411 128" fill="none" xmlns="http://www.w3.org/2000/svg">
<rect width="411" height="128" rx="16" fill="url(#paint0_linear_99_66)"/>
<path d="M38.5519 48.21C37.2779 48.21 36.1439 48.056 35.1499 47.748C34.1559 47.426 33.3159 46.985 32.6299 46.425L33.4909 44.43C34.1209 44.934 34.8349 45.319 35.6329 45.585C36.4309 45.837 37.3409 45.963 38.3629 45.963C39.5949 45.963 40.4979 45.774 41.0719 45.396C41.6459 45.004 41.9329 44.423 41.9329 43.653C41.9329 42.939 41.6949 42.414 41.2189 42.078C40.7429 41.728 40.0079 41.553 39.0139 41.553H35.2969V39.432H38.6779C39.6299 39.432 40.3439 39.264 40.8199 38.928C41.3099 38.578 41.5549 38.06 41.5549 37.374C41.5549 36.716 41.2959 36.198 40.7779 35.82C40.2599 35.428 39.4619 35.232 38.3839 35.232C37.5299 35.232 36.7109 35.358 35.9269 35.61C35.1429 35.862 34.4429 36.233 33.8269 36.723L32.9659 34.728C33.6239 34.168 34.4499 33.741 35.4439 33.447C36.4519 33.139 37.5159 32.985 38.6359 32.985C40.4699 32.985 41.8489 33.356 42.7729 34.098C43.7109 34.84 44.1799 35.813 44.1799 37.017C44.1799 37.913 43.9139 38.676 43.3819 39.306C42.8499 39.922 42.1219 40.335 41.1979 40.545V40.23C42.2479 40.384 43.0669 40.776 43.6549 41.406C44.2569 42.036 44.5579 42.862 44.5579 43.884C44.5579 44.752 44.3339 45.515 43.8859 46.173C43.4519 46.817 42.7869 47.321 41.8909 47.685C41.0089 48.035 39.8959 48.21 38.5519 48.21Z" fill="#343434"/>
<path d="M46.985 48V37.395H49.589V41.553H54.377V37.395H56.981V48H54.377V43.569H49.589V48H46.985Z" fill="#343434"/>
<path d="M64.1455 48.21C63.2215 48.21 62.4095 47.993 61.7095 47.559C61.0095 47.111 60.4635 46.474 60.0715 45.648C59.6795 44.822 59.4835 43.835 59.4835 42.687C59.4835 41.539 59.6795 40.559 60.0715 39.747C60.4635 38.921 61.0095 38.291 61.7095 37.857C62.4095 37.409 63.2215 37.185 64.1455 37.185C65.0415 37.185 65.8255 37.409 66.4975 37.857C67.1835 38.291 67.6385 38.879 67.8625 39.621H67.6315L67.8625 37.395H70.3825C70.3405 37.829 70.2985 38.27 70.2565 38.718C70.2285 39.166 70.2145 39.607 70.2145 40.041V48H67.6105L67.5895 45.816H67.8415C67.6175 46.544 67.1625 47.125 66.4765 47.559C65.7905 47.993 65.0135 48.21 64.1455 48.21ZM64.8805 46.194C65.7065 46.194 66.3715 45.907 66.8755 45.333C67.3795 44.745 67.6315 43.863 67.6315 42.687C67.6315 41.511 67.3795 40.636 66.8755 40.062C66.3715 39.488 65.7065 39.201 64.8805 39.201C64.0545 39.201 63.3895 39.488 62.8855 40.062C62.3815 40.636 62.1295 41.511 62.1295 42.687C62.1295 43.863 62.3745 44.745 62.8645 45.333C63.3685 45.907 64.0405 46.194 64.8805 46.194Z" fill="#343434"/>
<path d="M73.276 48V37.395H75.88V41.553H77.476L80.584 37.395H83.398L79.492 42.687L78.925 41.868C79.317 41.91 79.66 42.015 79.954 42.183C80.262 42.351 80.549 42.589 80.815 42.897C81.095 43.191 81.368 43.569 81.634 44.031L83.86 48H81.067L79.261 44.808C79.079 44.486 78.897 44.234 78.715 44.052C78.533 43.87 78.33 43.744 78.106 43.674C77.882 43.604 77.609 43.569 77.287 43.569H75.88V48H73.276Z" fill="#343434"/>
<path d="M90.1246 48.21C89.0326 48.21 88.0876 47.986 87.2896 47.538C86.4916 47.09 85.8686 46.453 85.4206 45.627C84.9866 44.801 84.7696 43.821 84.7696 42.687C84.7696 41.553 84.9866 40.58 85.4206 39.768C85.8686 38.942 86.4916 38.305 87.2896 37.857C88.0876 37.409 89.0326 37.185 90.1246 37.185C91.2166 37.185 92.1616 37.409 92.9596 37.857C93.7716 38.305 94.3946 38.942 94.8286 39.768C95.2766 40.58 95.5006 41.553 95.5006 42.687C95.5006 43.821 95.2766 44.801 94.8286 45.627C94.3946 46.453 93.7716 47.09 92.9596 47.538C92.1616 47.986 91.2166 48.21 90.1246 48.21ZM90.1246 46.194C90.9506 46.194 91.6086 45.907 92.0986 45.333C92.5886 44.745 92.8336 43.863 92.8336 42.687C92.8336 41.511 92.5886 40.636 92.0986 40.062C91.6086 39.488 90.9506 39.201 90.1246 39.201C89.2986 39.201 88.6406 39.488 88.1506 40.062C87.6606 40.636 87.4156 41.511 87.4156 42.687C87.4156 43.863 87.6606 44.745 88.1506 45.333C88.6406 45.907 89.2986 46.194 90.1246 46.194Z" fill="#343434"/>
<path d="M97.988 48V37.395H100.172L103.826 43.737L107.48 37.395H109.664V48H107.354V40.335H107.837L104.435 46.278H103.217L99.815 40.335H100.298V48H97.988Z" fill="#343434"/>
<path d="M117.607 48.21C116.515 48.21 115.556 47.986 114.73 47.538C113.918 47.09 113.288 46.453 112.84 45.627C112.392 44.787 112.168 43.793 112.168 42.645C112.168 41.497 112.392 40.517 112.84 39.705C113.302 38.893 113.939 38.27 114.751 37.836C115.563 37.402 116.515 37.185 117.607 37.185C118.307 37.185 118.986 37.297 119.644 37.521C120.316 37.731 120.862 38.039 121.282 38.445L120.484 40.272C120.106 39.922 119.679 39.663 119.203 39.495C118.741 39.313 118.286 39.222 117.838 39.222C116.9 39.222 116.165 39.516 115.633 40.104C115.115 40.692 114.856 41.546 114.856 42.666C114.856 43.786 115.115 44.647 115.633 45.249C116.165 45.851 116.9 46.152 117.838 46.152C118.272 46.152 118.72 46.068 119.182 45.9C119.658 45.732 120.092 45.473 120.484 45.123L121.282 46.929C120.848 47.335 120.295 47.65 119.623 47.874C118.965 48.098 118.293 48.21 117.607 48.21Z" fill="#343434"/>
<path d="M125.809 48V39.453H122.176V37.395H132.067V39.453H128.413V48H125.809Z" fill="#343434"/>
<path d="M133.692 48V37.395H139.341C140.671 37.395 141.644 37.64 142.26 38.13C142.876 38.606 143.184 39.285 143.184 40.167C143.184 40.839 142.96 41.399 142.512 41.847C142.064 42.295 141.469 42.575 140.727 42.687V42.393C141.637 42.449 142.337 42.715 142.827 43.191C143.317 43.667 143.562 44.283 143.562 45.039C143.562 45.949 143.212 46.67 142.512 47.202C141.812 47.734 140.818 48 139.53 48H133.692ZM136.128 46.383H139.257C139.873 46.383 140.342 46.257 140.664 46.005C141 45.753 141.168 45.382 141.168 44.892C141.168 44.402 141 44.031 140.664 43.779C140.342 43.527 139.873 43.401 139.257 43.401H136.128V46.383ZM136.128 41.784H139.026C139.586 41.784 140.02 41.665 140.328 41.427C140.636 41.175 140.79 40.825 140.79 40.377C140.79 39.929 140.636 39.586 140.328 39.348C140.02 39.11 139.586 38.991 139.026 38.991H136.128V41.784Z" fill="#343434"/>
<path d="M150.725 48.21C149.633 48.21 148.688 47.986 147.89 47.538C147.092 47.09 146.469 46.453 146.021 45.627C145.587 44.801 145.37 43.821 145.37 42.687C145.37 41.553 145.587 40.58 146.021 39.768C146.469 38.942 147.092 38.305 147.89 37.857C148.688 37.409 149.633 37.185 150.725 37.185C151.817 37.185 152.762 37.409 153.56 37.857C154.372 38.305 154.995 38.942 155.429 39.768C155.877 40.58 156.101 41.553 156.101 42.687C156.101 43.821 155.877 44.801 155.429 45.627C154.995 46.453 154.372 47.09 153.56 47.538C152.762 47.986 151.817 48.21 150.725 48.21ZM150.725 46.194C151.551 46.194 152.209 45.907 152.699 45.333C153.189 44.745 153.434 43.863 153.434 42.687C153.434 41.511 153.189 40.636 152.699 40.062C152.209 39.488 151.551 39.201 150.725 39.201C149.899 39.201 149.241 39.488 148.751 40.062C148.261 40.636 148.016 41.511 148.016 42.687C148.016 43.863 148.261 44.745 148.751 45.333C149.241 45.907 149.899 46.194 150.725 46.194Z" fill="#343434"/>
<path d="M168.872 48.189C167.822 48.189 166.912 47.972 166.142 47.538C165.372 47.09 164.77 46.453 164.336 45.627C163.916 44.787 163.706 43.793 163.706 42.645C163.706 41.511 163.923 40.545 164.357 39.747C164.791 38.935 165.393 38.319 166.163 37.899C166.933 37.465 167.836 37.248 168.872 37.248C169.558 37.248 170.223 37.367 170.867 37.605C171.511 37.829 172.036 38.158 172.442 38.592L171.791 39.936C171.385 39.544 170.937 39.257 170.447 39.075C169.957 38.879 169.474 38.781 168.998 38.781C167.962 38.781 167.15 39.117 166.562 39.789C165.974 40.447 165.68 41.406 165.68 42.666C165.68 43.94 165.974 44.92 166.562 45.606C167.15 46.292 167.962 46.635 168.998 46.635C169.46 46.635 169.936 46.544 170.426 46.362C170.916 46.18 171.371 45.893 171.791 45.501L172.442 46.824C172.022 47.272 171.483 47.615 170.825 47.853C170.181 48.077 169.53 48.189 168.872 48.189Z" fill="#343434"/>
<path d="M179.452 48.189C178.416 48.189 177.52 47.972 176.764 47.538C176.008 47.09 175.42 46.46 175 45.648C174.58 44.822 174.37 43.842 174.37 42.708C174.37 41.588 174.58 40.622 175 39.81C175.42 38.984 176.008 38.354 176.764 37.92C177.52 37.472 178.416 37.248 179.452 37.248C180.488 37.248 181.384 37.472 182.14 37.92C182.91 38.354 183.498 38.984 183.904 39.81C184.324 40.622 184.534 41.588 184.534 42.708C184.534 43.842 184.324 44.822 183.904 45.648C183.498 46.46 182.91 47.09 182.14 47.538C181.384 47.972 180.488 48.189 179.452 48.189ZM179.452 46.677C180.404 46.677 181.167 46.341 181.741 45.669C182.315 44.997 182.602 44.01 182.602 42.708C182.602 41.406 182.315 40.426 181.741 39.768C181.167 39.11 180.404 38.781 179.452 38.781C178.486 38.781 177.716 39.11 177.142 39.768C176.582 40.426 176.302 41.406 176.302 42.708C176.302 44.01 176.582 44.997 177.142 45.669C177.716 46.341 178.486 46.677 179.452 46.677Z" fill="#343434"/>
<path d="M192.799 48V37.437H198.007C199.253 37.437 200.177 37.675 200.779 38.151C201.395 38.627 201.703 39.313 201.703 40.209C201.703 40.881 201.472 41.448 201.01 41.91C200.548 42.358 199.946 42.631 199.204 42.729V42.456C200.086 42.484 200.779 42.743 201.283 43.233C201.801 43.709 202.06 44.325 202.06 45.081C202.06 45.977 201.717 46.691 201.031 47.223C200.359 47.741 199.414 48 198.196 48H192.799ZM194.605 46.74H198.07C198.784 46.74 199.33 46.593 199.708 46.299C200.086 45.991 200.275 45.557 200.275 44.997C200.275 44.423 200.086 43.989 199.708 43.695C199.33 43.401 198.784 43.254 198.07 43.254H194.605V46.74ZM194.605 41.994H197.839C198.497 41.994 199.008 41.847 199.372 41.553C199.736 41.259 199.918 40.853 199.918 40.335C199.918 39.803 199.736 39.397 199.372 39.117C199.008 38.837 198.497 38.697 197.839 38.697H194.605V41.994Z" fill="#343434"/>
<path d="M209.231 48.189C208.181 48.189 207.271 47.972 206.501 47.538C205.731 47.09 205.129 46.453 204.695 45.627C204.275 44.787 204.065 43.793 204.065 42.645C204.065 41.511 204.282 40.545 204.716 39.747C205.15 38.935 205.752 38.319 206.522 37.899C207.292 37.465 208.195 37.248 209.231 37.248C209.917 37.248 210.582 37.367 211.226 37.605C211.87 37.829 212.395 38.158 212.801 38.592L212.15 39.936C211.744 39.544 211.296 39.257 210.806 39.075C210.316 38.879 209.833 38.781 209.357 38.781C208.321 38.781 207.509 39.117 206.921 39.789C206.333 40.447 206.039 41.406 206.039 42.666C206.039 43.94 206.333 44.92 206.921 45.606C207.509 46.292 208.321 46.635 209.357 46.635C209.819 46.635 210.295 46.544 210.785 46.362C211.275 46.18 211.73 45.893 212.15 45.501L212.801 46.824C212.381 47.272 211.842 47.615 211.184 47.853C210.54 48.077 209.889 48.189 209.231 48.189Z" fill="#343434"/>
<path d="M220.168 48.189C218.488 48.189 217.158 47.706 216.178 46.74C215.212 45.774 214.729 44.444 214.729 42.75C214.729 41.63 214.939 40.664 215.359 39.852C215.793 39.026 216.388 38.389 217.144 37.941C217.9 37.479 218.782 37.248 219.79 37.248C220.756 37.248 221.575 37.458 222.247 37.878C222.919 38.284 223.43 38.865 223.78 39.621C224.13 40.377 224.305 41.273 224.305 42.309V42.939H216.22V41.805H223.003L222.646 42.078C222.646 40.986 222.401 40.139 221.911 39.537C221.435 38.935 220.728 38.634 219.79 38.634C218.768 38.634 217.977 38.991 217.417 39.705C216.857 40.405 216.577 41.364 216.577 42.582V42.771C216.577 44.059 216.892 45.032 217.522 45.69C218.166 46.348 219.055 46.677 220.189 46.677C220.819 46.677 221.407 46.586 221.953 46.404C222.499 46.222 223.024 45.921 223.528 45.501L224.158 46.824C223.682 47.258 223.087 47.594 222.373 47.832C221.673 48.07 220.938 48.189 220.168 48.189Z" fill="#343434"/>
<path d="M226.965 48V37.437H228.561L232.446 44.346L236.352 37.437H237.927V48H236.247V39.579H236.709L232.929 46.299H231.984L228.204 39.558H228.645V48H226.965Z" fill="#343434"/>
<path d="M241.197 48V37.437H242.94V46.194H242.373L248.925 37.437H250.521V48H248.778V39.222H249.366L242.793 48H241.197Z" fill="#343434"/>
<path d="M263.841 48.189C262.805 48.189 261.909 47.972 261.153 47.538C260.397 47.09 259.809 46.46 259.389 45.648C258.969 44.822 258.759 43.842 258.759 42.708C258.759 41.588 258.969 40.622 259.389 39.81C259.809 38.984 260.397 38.354 261.153 37.92C261.909 37.472 262.805 37.248 263.841 37.248C264.877 37.248 265.773 37.472 266.529 37.92C267.299 38.354 267.887 38.984 268.293 39.81C268.713 40.622 268.923 41.588 268.923 42.708C268.923 43.842 268.713 44.822 268.293 45.648C267.887 46.46 267.299 47.09 266.529 47.538C265.773 47.972 264.877 48.189 263.841 48.189ZM263.841 46.677C264.793 46.677 265.556 46.341 266.13 45.669C266.704 44.997 266.991 44.01 266.991 42.708C266.991 41.406 266.704 40.426 266.13 39.768C265.556 39.11 264.793 38.781 263.841 38.781C262.875 38.781 262.105 39.11 261.531 39.768C260.971 40.426 260.691 41.406 260.691 42.708C260.691 44.01 260.971 44.997 261.531 45.669C262.105 46.341 262.875 46.677 263.841 46.677Z" fill="#343434"/>
<path d="M271.652 48V37.437H273.542V41.805H279.128V37.437H281.018V48H279.128V43.317H273.542V48H271.652Z" fill="#343434"/>
<path d="M283.78 48.252L283.108 46.761C283.598 46.537 284.004 46.271 284.326 45.963C284.662 45.641 284.921 45.235 285.103 44.745C285.299 44.255 285.439 43.646 285.523 42.918C285.607 42.19 285.649 41.308 285.649 40.272V37.437H293.44V48H291.55V38.928H287.413V40.314C287.413 41.938 287.287 43.282 287.035 44.346C286.797 45.396 286.412 46.229 285.88 46.845C285.362 47.461 284.662 47.93 283.78 48.252Z" fill="#343434"/>
<path d="M300.807 48.189C299.883 48.189 299.071 47.972 298.371 47.538C297.671 47.104 297.125 46.474 296.733 45.648C296.341 44.822 296.145 43.842 296.145 42.708C296.145 41.574 296.341 40.601 296.733 39.789C297.125 38.963 297.671 38.333 298.371 37.899C299.071 37.465 299.883 37.248 300.807 37.248C301.745 37.248 302.557 37.486 303.243 37.962C303.943 38.424 304.405 39.061 304.629 39.873H304.377L304.608 37.437H306.456C306.414 37.857 306.372 38.277 306.33 38.697C306.302 39.117 306.288 39.53 306.288 39.936V48H304.377V45.585H304.608C304.384 46.383 303.922 47.02 303.222 47.496C302.536 47.958 301.731 48.189 300.807 48.189ZM301.248 46.677C302.2 46.677 302.963 46.341 303.537 45.669C304.111 44.997 304.398 44.01 304.398 42.708C304.398 41.406 304.111 40.426 303.537 39.768C302.963 39.11 302.2 38.781 301.248 38.781C300.296 38.781 299.526 39.11 298.938 39.768C298.364 40.426 298.077 41.406 298.077 42.708C298.077 44.01 298.364 44.997 298.938 45.669C299.512 46.341 300.282 46.677 301.248 46.677Z" fill="#343434"/>
<path d="M309.653 48V37.437H311.396V46.194H310.829L317.381 37.437H318.977V48H317.234V39.222H317.822L311.249 48H309.653ZM314.315 36.471C313.713 36.471 313.16 36.366 312.656 36.156C312.152 35.946 311.718 35.645 311.354 35.253C311.004 34.847 310.738 34.343 310.556 33.741L311.648 33.342C311.9 34.014 312.243 34.511 312.677 34.833C313.111 35.141 313.657 35.295 314.315 35.295C314.987 35.295 315.54 35.148 315.974 34.854C316.408 34.56 316.786 34.063 317.108 33.363L318.137 33.741C317.787 34.693 317.276 35.386 316.604 35.82C315.946 36.254 315.183 36.471 314.315 36.471Z" fill="#343434"/>
<path d="M322.244 48V37.437H324.134V41.805H329.72V37.437H331.61V48H329.72V43.317H324.134V48H322.244Z" fill="#343434"/>
<path d="M334.73 43.023V41.469H340.799V43.023H334.73Z" fill="#343434"/>
<path d="M33.6379 72V61.437H42.9409V72H41.0509V62.928H35.5279V72H33.6379Z" fill="#343434"/>
<path d="M46.2722 76.536V63.936C46.2722 63.53 46.2582 63.117 46.2302 62.697C46.2022 62.277 46.1602 61.857 46.1042 61.437H47.9522L48.1832 63.873H47.9522C48.1622 63.061 48.6102 62.424 49.2962 61.962C49.9822 61.486 50.8012 61.248 51.7532 61.248C52.6912 61.248 53.5102 61.465 54.2102 61.899C54.9102 62.333 55.4492 62.963 55.8272 63.789C56.2192 64.601 56.4152 65.574 56.4152 66.708C56.4152 67.842 56.2192 68.822 55.8272 69.648C55.4492 70.474 54.9102 71.104 54.2102 71.538C53.5102 71.972 52.6912 72.189 51.7532 72.189C50.8152 72.189 50.0032 71.958 49.3172 71.496C48.6452 71.02 48.1902 70.383 47.9522 69.585H48.1832V76.536H46.2722ZM51.3122 70.677C52.2782 70.677 53.0482 70.341 53.6222 69.669C54.1962 68.997 54.4832 68.01 54.4832 66.708C54.4832 65.406 54.1962 64.426 53.6222 63.768C53.0482 63.11 52.2782 62.781 51.3122 62.781C50.3462 62.781 49.5762 63.11 49.0022 63.768C48.4422 64.426 48.1622 65.406 48.1622 66.708C48.1622 68.01 48.4422 68.997 49.0022 69.669C49.5762 70.341 50.3462 70.677 51.3122 70.677Z" fill="#343434"/>
<path d="M63.6646 72.189C62.6286 72.189 61.7326 71.972 60.9766 71.538C60.2206 71.09 59.6326 70.46 59.2126 69.648C58.7926 68.822 58.5826 67.842 58.5826 66.708C58.5826 65.588 58.7926 64.622 59.2126 63.81C59.6326 62.984 60.2206 62.354 60.9766 61.92C61.7326 61.472 62.6286 61.248 63.6646 61.248C64.7006 61.248 65.5966 61.472 66.3526 61.92C67.1226 62.354 67.7106 62.984 68.1166 63.81C68.5366 64.622 68.7466 65.588 68.7466 66.708C68.7466 67.842 68.5366 68.822 68.1166 69.648C67.7106 70.46 67.1226 71.09 66.3526 71.538C65.5966 71.972 64.7006 72.189 63.6646 72.189ZM63.6646 70.677C64.6166 70.677 65.3796 70.341 65.9536 69.669C66.5276 68.997 66.8146 68.01 66.8146 66.708C66.8146 65.406 66.5276 64.426 65.9536 63.768C65.3796 63.11 64.6166 62.781 63.6646 62.781C62.6986 62.781 61.9286 63.11 61.3546 63.768C60.7946 64.426 60.5146 65.406 60.5146 66.708C60.5146 68.01 60.7946 68.997 61.3546 69.669C61.9286 70.341 62.6986 70.677 63.6646 70.677Z" fill="#343434"/>
<path d="M77.5648 76.536V69.711H77.7748C77.5648 70.509 77.1938 71.125 76.6618 71.559C76.1438 71.979 75.5068 72.189 74.7508 72.189C73.9948 72.189 73.3228 71.965 72.7348 71.517C72.1608 71.069 71.7128 70.439 71.3908 69.627C71.0688 68.801 70.9078 67.828 70.9078 66.708C70.9078 65.588 71.0618 64.622 71.3698 63.81C71.6918 62.984 72.1398 62.354 72.7138 61.92C73.3018 61.472 73.9808 61.248 74.7508 61.248C75.5068 61.248 76.1438 61.465 76.6618 61.899C77.1938 62.319 77.5648 62.921 77.7748 63.705H77.5648V56.544H79.4548V63.705H79.2448C79.4688 62.921 79.8398 62.319 80.3578 61.899C80.8758 61.465 81.5128 61.248 82.2688 61.248C83.0388 61.248 83.7108 61.472 84.2848 61.92C84.8728 62.354 85.3208 62.984 85.6288 63.81C85.9508 64.622 86.1118 65.588 86.1118 66.708C86.1118 67.828 85.9508 68.801 85.6288 69.627C85.3208 70.439 84.8798 71.069 84.3058 71.517C83.7318 71.965 83.0528 72.189 82.2688 72.189C81.5268 72.189 80.8898 71.979 80.3578 71.559C79.8398 71.125 79.4688 70.509 79.2448 69.711H79.4548V76.536H77.5648ZM75.2128 70.698C75.9548 70.698 76.5358 70.362 76.9558 69.69C77.3898 69.018 77.6068 68.024 77.6068 66.708C77.6068 65.42 77.3898 64.433 76.9558 63.747C76.5218 63.061 75.9408 62.718 75.2128 62.718C74.4708 62.718 73.8828 63.061 73.4488 63.747C73.0288 64.433 72.8188 65.42 72.8188 66.708C72.8188 68.024 73.0288 69.018 73.4488 69.69C73.8828 70.362 74.4708 70.698 75.2128 70.698ZM81.8068 70.698C82.5488 70.698 83.1368 70.362 83.5708 69.69C84.0048 69.018 84.2218 68.024 84.2218 66.708C84.2218 65.42 84.0048 64.433 83.5708 63.747C83.1368 63.061 82.5488 62.718 81.8068 62.718C81.0648 62.718 80.4838 63.061 80.0638 63.747C79.6438 64.433 79.4338 65.42 79.4338 66.708C79.4338 68.024 79.6438 69.018 80.0638 69.69C80.4838 70.362 81.0648 70.698 81.8068 70.698Z" fill="#343434"/>
<path d="M93.6964 72.189C92.0164 72.189 90.6864 71.706 89.7064 70.74C88.7404 69.774 88.2574 68.444 88.2574 66.75C88.2574 65.63 88.4674 64.664 88.8874 63.852C89.3214 63.026 89.9164 62.389 90.6724 61.941C91.4284 61.479 92.3104 61.248 93.3184 61.248C94.2844 61.248 95.1034 61.458 95.7754 61.878C96.4474 62.284 96.9584 62.865 97.3084 63.621C97.6584 64.377 97.8334 65.273 97.8334 66.309V66.939H89.7484V65.805H96.5314L96.1744 66.078C96.1744 64.986 95.9294 64.139 95.4394 63.537C94.9634 62.935 94.2564 62.634 93.3184 62.634C92.2964 62.634 91.5054 62.991 90.9454 63.705C90.3854 64.405 90.1054 65.364 90.1054 66.582V66.771C90.1054 68.059 90.4204 69.032 91.0504 69.69C91.6944 70.348 92.5834 70.677 93.7174 70.677C94.3474 70.677 94.9354 70.586 95.4814 70.404C96.0274 70.222 96.5524 69.921 97.0564 69.501L97.6864 70.824C97.2104 71.258 96.6154 71.594 95.9014 71.832C95.2014 72.07 94.4664 72.189 93.6964 72.189Z" fill="#343434"/>
<path d="M105.092 72.189C104.042 72.189 103.132 71.972 102.362 71.538C101.592 71.09 100.99 70.453 100.556 69.627C100.136 68.787 99.9264 67.793 99.9264 66.645C99.9264 65.511 100.143 64.545 100.577 63.747C101.011 62.935 101.613 62.319 102.383 61.899C103.153 61.465 104.056 61.248 105.092 61.248C105.778 61.248 106.443 61.367 107.087 61.605C107.731 61.829 108.256 62.158 108.662 62.592L108.011 63.936C107.605 63.544 107.157 63.257 106.667 63.075C106.177 62.879 105.694 62.781 105.218 62.781C104.182 62.781 103.37 63.117 102.782 63.789C102.194 64.447 101.9 65.406 101.9 66.666C101.9 67.94 102.194 68.92 102.782 69.606C103.37 70.292 104.182 70.635 105.218 70.635C105.68 70.635 106.156 70.544 106.646 70.362C107.136 70.18 107.591 69.893 108.011 69.501L108.662 70.824C108.242 71.272 107.703 71.615 107.045 71.853C106.401 72.077 105.75 72.189 105.092 72.189Z" fill="#343434"/>
<path d="M115.756 72.189C114.706 72.189 113.796 71.972 113.026 71.538C112.256 71.09 111.654 70.453 111.22 69.627C110.8 68.787 110.59 67.793 110.59 66.645C110.59 65.511 110.807 64.545 111.241 63.747C111.675 62.935 112.277 62.319 113.047 61.899C113.817 61.465 114.72 61.248 115.756 61.248C116.442 61.248 117.107 61.367 117.751 61.605C118.395 61.829 118.92 62.158 119.326 62.592L118.675 63.936C118.269 63.544 117.821 63.257 117.331 63.075C116.841 62.879 116.358 62.781 115.882 62.781C114.846 62.781 114.034 63.117 113.446 63.789C112.858 64.447 112.564 65.406 112.564 66.666C112.564 67.94 112.858 68.92 113.446 69.606C114.034 70.292 114.846 70.635 115.882 70.635C116.344 70.635 116.82 70.544 117.31 70.362C117.8 70.18 118.255 69.893 118.675 69.501L119.326 70.824C118.906 71.272 118.367 71.615 117.709 71.853C117.065 72.077 116.414 72.189 115.756 72.189Z" fill="#343434"/>
<path d="M121.821 72V61.437H123.564V70.194H122.997L129.549 61.437H131.145V72H129.402V63.222H129.99L123.417 72H121.821Z" fill="#343434"/>
<path d="M133.573 72L135.232 69.123C135.498 68.661 135.834 68.29 136.24 68.01C136.646 67.716 137.073 67.569 137.521 67.569H137.857L137.836 67.758C136.646 67.758 135.715 67.492 135.043 66.96C134.371 66.414 134.035 65.63 134.035 64.608C134.035 63.6 134.364 62.823 135.022 62.277C135.68 61.717 136.66 61.437 137.962 61.437H142.771V72H141.007V68.01H139.495C138.949 68.01 138.48 68.15 138.088 68.43C137.696 68.696 137.374 69.053 137.122 69.501L135.694 72H133.573ZM138.298 66.687H141.007V62.739H138.298C137.472 62.739 136.856 62.914 136.45 63.264C136.058 63.614 135.862 64.097 135.862 64.713C135.862 65.343 136.058 65.833 136.45 66.183C136.856 66.519 137.472 66.687 138.298 66.687Z" fill="#343434"/>
<path d="M146.041 72V61.437H147.637L151.522 68.346L155.428 61.437H157.003V72H155.323V63.579H155.785L152.005 70.299H151.06L147.28 63.558H147.721V72H146.041Z" fill="#343434"/>
<path d="M160.274 72V61.437H162.017V70.194H161.45L168.002 61.437H169.598V72H167.855V63.222H168.443L161.87 72H160.274Z" fill="#343434"/>
<path d="M391 26C391 29.3137 388.314 32 385 32C381.686 32 379 29.3137 379 26C379 22.6863 381.686 20 385 20C388.314 20 391 22.6863 391 26Z" fill="#D3E4F0"/>
<defs>
<linearGradient id="paint0_linear_99_66" x1="205.5" y1="0" x2="205.5" y2="128" gradientUnits="userSpaceOnUse">
<stop stop-color="white"/>
<stop offset="1" stop-color="white" stop-opacity="0.8"/>
</linearGradient>
</defs>
</svg>
