<svg width="304" height="128" viewBox="0 0 304 128" fill="none" xmlns="http://www.w3.org/2000/svg">
<rect width="304" height="128" rx="16" fill="url(#paint0_linear_100_235)"/>
<path d="M36.3922 41V30.218H32.1982V28.31H42.9082V30.218H38.7142V41H36.3922Z" fill="#343434"/>
<path d="M43.0885 44.888V34.178C43.0885 33.806 43.0765 33.428 43.0525 33.044C43.0285 32.66 42.9925 32.282 42.9445 31.91H45.1225L45.3205 33.818H45.1225C45.3025 33.182 45.6805 32.678 46.2565 32.306C46.8445 31.922 47.5225 31.73 48.2905 31.73C49.0945 31.73 49.7965 31.922 50.3965 32.306C50.9965 32.678 51.4645 33.218 51.8005 33.926C52.1365 34.622 52.3045 35.462 52.3045 36.446C52.3045 37.43 52.1365 38.276 51.8005 38.984C51.4645 39.692 50.9965 40.238 50.3965 40.622C49.7965 40.994 49.0945 41.18 48.2905 41.18C47.5345 41.18 46.8685 40.994 46.2925 40.622C45.7165 40.25 45.3325 39.752 45.1405 39.128H45.3385V44.888H43.0885ZM47.6605 39.452C48.3805 39.452 48.9565 39.206 49.3885 38.714C49.8205 38.21 50.0365 37.454 50.0365 36.446C50.0365 35.438 49.8205 34.688 49.3885 34.196C48.9565 33.704 48.3805 33.458 47.6605 33.458C46.9525 33.458 46.3825 33.704 45.9505 34.196C45.5185 34.688 45.3025 35.438 45.3025 36.446C45.3025 37.454 45.5185 38.21 45.9505 38.714C46.3825 39.206 46.9525 39.452 47.6605 39.452Z" fill="#343434"/>
<path d="M54.1761 45.086L53.6541 43.304C54.2181 43.184 54.6921 43.046 55.0761 42.89C55.4601 42.734 55.7781 42.53 56.0301 42.278C56.2821 42.026 56.4921 41.702 56.6601 41.306L57.1101 40.244L57.0561 41.126L53.0961 31.91H55.4901L58.3341 39.002H57.8121L60.6741 31.91H62.9421L58.8021 41.504C58.5261 42.152 58.2261 42.686 57.9021 43.106C57.5781 43.538 57.2301 43.88 56.8581 44.132C56.4861 44.396 56.0781 44.6 55.6341 44.744C55.1901 44.888 54.7041 45.002 54.1761 45.086Z" fill="#343434"/>
<path d="M63.23 43.34V39.29H64.274C64.634 38.726 64.892 38.066 65.048 37.31C65.216 36.542 65.3 35.606 65.3 34.502V31.91H72.302V39.29H73.778V43.34H71.87V41H65.138V43.34H63.23ZM66.29 39.308H70.196V33.602H67.208V35.006C67.208 35.81 67.13 36.596 66.974 37.364C66.818 38.132 66.59 38.78 66.29 39.308Z" fill="#343434"/>
<path d="M79.6066 41.18C78.6706 41.18 77.8606 40.988 77.1766 40.604C76.4926 40.22 75.9586 39.674 75.5746 38.966C75.2026 38.258 75.0166 37.418 75.0166 36.446C75.0166 35.474 75.2026 34.64 75.5746 33.944C75.9586 33.236 76.4926 32.69 77.1766 32.306C77.8606 31.922 78.6706 31.73 79.6066 31.73C80.5426 31.73 81.3526 31.922 82.0366 32.306C82.7326 32.69 83.2666 33.236 83.6386 33.944C84.0226 34.64 84.2146 35.474 84.2146 36.446C84.2146 37.418 84.0226 38.258 83.6386 38.966C83.2666 39.674 82.7326 40.22 82.0366 40.604C81.3526 40.988 80.5426 41.18 79.6066 41.18ZM79.6066 39.452C80.3146 39.452 80.8786 39.206 81.2986 38.714C81.7186 38.21 81.9286 37.454 81.9286 36.446C81.9286 35.438 81.7186 34.688 81.2986 34.196C80.8786 33.704 80.3146 33.458 79.6066 33.458C78.8986 33.458 78.3346 33.704 77.9146 34.196C77.4946 34.688 77.2846 35.438 77.2846 36.446C77.2846 37.454 77.4946 38.21 77.9146 38.714C78.3346 39.206 78.8986 39.452 79.6066 39.452Z" fill="#343434"/>
<path d="M86.098 45.086L85.576 43.304C86.14 43.184 86.614 43.046 86.998 42.89C87.382 42.734 87.7 42.53 87.952 42.278C88.204 42.026 88.414 41.702 88.582 41.306L89.032 40.244L88.978 41.126L85.018 31.91H87.412L90.256 39.002H89.734L92.596 31.91H94.864L90.724 41.504C90.448 42.152 90.148 42.686 89.824 43.106C89.5 43.538 89.152 43.88 88.78 44.132C88.408 44.396 88 44.6 87.556 44.744C87.112 44.888 86.626 45.002 86.098 45.086Z" fill="#343434"/>
<path d="M100.333 41.18C99.3969 41.18 98.5749 40.988 97.8669 40.604C97.1709 40.22 96.6309 39.674 96.2469 38.966C95.8629 38.246 95.6709 37.394 95.6709 36.41C95.6709 35.426 95.8629 34.586 96.2469 33.89C96.6429 33.194 97.1889 32.66 97.8849 32.288C98.5809 31.916 99.3969 31.73 100.333 31.73C100.933 31.73 101.515 31.826 102.079 32.018C102.655 32.198 103.123 32.462 103.483 32.81L102.799 34.376C102.475 34.076 102.109 33.854 101.701 33.71C101.305 33.554 100.915 33.476 100.531 33.476C99.7269 33.476 99.0969 33.728 98.6409 34.232C98.1969 34.736 97.9749 35.468 97.9749 36.428C97.9749 37.388 98.1969 38.126 98.6409 38.642C99.0969 39.158 99.7269 39.416 100.531 39.416C100.903 39.416 101.287 39.344 101.683 39.2C102.091 39.056 102.463 38.834 102.799 38.534L103.483 40.082C103.111 40.43 102.637 40.7 102.061 40.892C101.497 41.084 100.921 41.18 100.333 41.18Z" fill="#343434"/>
<path d="M107.363 41V33.674H104.249V31.91H112.727V33.674H109.595V41H107.363Z" fill="#343434"/>
<path d="M114.192 44.888V34.178C114.192 33.806 114.18 33.428 114.156 33.044C114.132 32.66 114.096 32.282 114.048 31.91H116.226L116.424 33.818H116.226C116.406 33.182 116.784 32.678 117.36 32.306C117.948 31.922 118.626 31.73 119.394 31.73C120.198 31.73 120.9 31.922 121.5 32.306C122.1 32.678 122.568 33.218 122.904 33.926C123.24 34.622 123.408 35.462 123.408 36.446C123.408 37.43 123.24 38.276 122.904 38.984C122.568 39.692 122.1 40.238 121.5 40.622C120.9 40.994 120.198 41.18 119.394 41.18C118.638 41.18 117.972 40.994 117.396 40.622C116.82 40.25 116.436 39.752 116.244 39.128H116.442V44.888H114.192ZM118.764 39.452C119.484 39.452 120.06 39.206 120.492 38.714C120.924 38.21 121.14 37.454 121.14 36.446C121.14 35.438 120.924 34.688 120.492 34.196C120.06 33.704 119.484 33.458 118.764 33.458C118.056 33.458 117.486 33.704 117.054 34.196C116.622 34.688 116.406 35.438 116.406 36.446C116.406 37.454 116.622 38.21 117.054 38.714C117.486 39.206 118.056 39.452 118.764 39.452Z" fill="#343434"/>
<path d="M129.704 41.18C128.768 41.18 127.958 40.988 127.274 40.604C126.59 40.22 126.056 39.674 125.672 38.966C125.3 38.258 125.114 37.418 125.114 36.446C125.114 35.474 125.3 34.64 125.672 33.944C126.056 33.236 126.59 32.69 127.274 32.306C127.958 31.922 128.768 31.73 129.704 31.73C130.64 31.73 131.45 31.922 132.134 32.306C132.83 32.69 133.364 33.236 133.736 33.944C134.12 34.64 134.312 35.474 134.312 36.446C134.312 37.418 134.12 38.258 133.736 38.966C133.364 39.674 132.83 40.22 132.134 40.604C131.45 40.988 130.64 41.18 129.704 41.18ZM129.704 39.452C130.412 39.452 130.976 39.206 131.396 38.714C131.816 38.21 132.026 37.454 132.026 36.446C132.026 35.438 131.816 34.688 131.396 34.196C130.976 33.704 130.412 33.458 129.704 33.458C128.996 33.458 128.432 33.704 128.012 34.196C127.592 34.688 127.382 35.438 127.382 36.446C127.382 37.454 127.592 38.21 128.012 38.714C128.432 39.206 128.996 39.452 129.704 39.452Z" fill="#343434"/>
<path d="M136.444 41V31.91H138.478V38.786H137.938L143.104 31.91H144.958V41H142.924V34.106H143.482L138.298 41H136.444ZM140.692 31.082C140.092 31.082 139.564 30.986 139.108 30.794C138.652 30.59 138.274 30.308 137.974 29.948C137.674 29.576 137.458 29.138 137.326 28.634L138.478 28.238C138.682 28.79 138.964 29.198 139.324 29.462C139.684 29.714 140.146 29.84 140.71 29.84C141.274 29.84 141.736 29.714 142.096 29.462C142.456 29.21 142.75 28.808 142.978 28.256L144.076 28.634C143.824 29.438 143.404 30.05 142.816 30.47C142.24 30.878 141.532 31.082 140.692 31.082Z" fill="#343434"/>
<path d="M151.766 41.18C150.83 41.18 150.008 40.988 149.3 40.604C148.604 40.22 148.064 39.674 147.68 38.966C147.296 38.246 147.104 37.394 147.104 36.41C147.104 35.426 147.296 34.586 147.68 33.89C148.076 33.194 148.622 32.66 149.318 32.288C150.014 31.916 150.83 31.73 151.766 31.73C152.366 31.73 152.948 31.826 153.512 32.018C154.088 32.198 154.556 32.462 154.916 32.81L154.232 34.376C153.908 34.076 153.542 33.854 153.134 33.71C152.738 33.554 152.348 33.476 151.964 33.476C151.16 33.476 150.53 33.728 150.074 34.232C149.63 34.736 149.408 35.468 149.408 36.428C149.408 37.388 149.63 38.126 150.074 38.642C150.53 39.158 151.16 39.416 151.964 39.416C152.336 39.416 152.72 39.344 153.116 39.2C153.524 39.056 153.896 38.834 154.232 38.534L154.916 40.082C154.544 40.43 154.07 40.7 153.494 40.892C152.93 41.084 152.354 41.18 151.766 41.18Z" fill="#343434"/>
<path d="M158.797 41V33.674H155.683V31.91H164.161V33.674H161.029V41H158.797Z" fill="#343434"/>
<path d="M165.554 41V31.91H170.396C171.536 31.91 172.37 32.12 172.898 32.54C173.426 32.948 173.69 33.53 173.69 34.286C173.69 34.862 173.498 35.342 173.114 35.726C172.73 36.11 172.22 36.35 171.584 36.446V36.194C172.364 36.242 172.964 36.47 173.384 36.878C173.804 37.286 174.014 37.814 174.014 38.462C174.014 39.242 173.714 39.86 173.114 40.316C172.514 40.772 171.662 41 170.558 41H165.554ZM167.642 39.614H170.324C170.852 39.614 171.254 39.506 171.53 39.29C171.818 39.074 171.962 38.756 171.962 38.336C171.962 37.916 171.818 37.598 171.53 37.382C171.254 37.166 170.852 37.058 170.324 37.058H167.642V39.614ZM167.642 35.672H170.126C170.606 35.672 170.978 35.57 171.242 35.366C171.506 35.15 171.638 34.85 171.638 34.466C171.638 34.082 171.506 33.788 171.242 33.584C170.978 33.38 170.606 33.278 170.126 33.278H167.642V35.672Z" fill="#343434"/>
<path d="M180.153 41.18C179.217 41.18 178.407 40.988 177.723 40.604C177.039 40.22 176.505 39.674 176.121 38.966C175.749 38.258 175.563 37.418 175.563 36.446C175.563 35.474 175.749 34.64 176.121 33.944C176.505 33.236 177.039 32.69 177.723 32.306C178.407 31.922 179.217 31.73 180.153 31.73C181.089 31.73 181.899 31.922 182.583 32.306C183.279 32.69 183.813 33.236 184.185 33.944C184.569 34.64 184.761 35.474 184.761 36.446C184.761 37.418 184.569 38.258 184.185 38.966C183.813 39.674 183.279 40.22 182.583 40.604C181.899 40.988 181.089 41.18 180.153 41.18ZM180.153 39.452C180.861 39.452 181.425 39.206 181.845 38.714C182.265 38.21 182.475 37.454 182.475 36.446C182.475 35.438 182.265 34.688 181.845 34.196C181.425 33.704 180.861 33.458 180.153 33.458C179.445 33.458 178.881 33.704 178.461 34.196C178.041 34.688 177.831 35.438 177.831 36.446C177.831 37.454 178.041 38.21 178.461 38.714C178.881 39.206 179.445 39.452 180.153 39.452Z" fill="#343434"/>
<path d="M33.4042 61V51.946H37.8682C38.9362 51.946 39.7282 52.15 40.2442 52.558C40.7722 52.966 41.0362 53.554 41.0362 54.322C41.0362 54.898 40.8382 55.384 40.4422 55.78C40.0462 56.164 39.5302 56.398 38.8942 56.482V56.248C39.6502 56.272 40.2442 56.494 40.6762 56.914C41.1202 57.322 41.3422 57.85 41.3422 58.498C41.3422 59.266 41.0482 59.878 40.4602 60.334C39.8842 60.778 39.0742 61 38.0302 61H33.4042ZM34.9522 59.92H37.9222C38.5342 59.92 39.0022 59.794 39.3262 59.542C39.6502 59.278 39.8122 58.906 39.8122 58.426C39.8122 57.934 39.6502 57.562 39.3262 57.31C39.0022 57.058 38.5342 56.932 37.9222 56.932H34.9522V59.92ZM34.9522 55.852H37.7242C38.2882 55.852 38.7262 55.726 39.0382 55.474C39.3502 55.222 39.5062 54.874 39.5062 54.43C39.5062 53.974 39.3502 53.626 39.0382 53.386C38.7262 53.146 38.2882 53.026 37.7242 53.026H34.9522V55.852Z" fill="#343434"/>
<path d="M52.1629 61.162C51.2749 61.162 50.5069 60.976 49.8589 60.604C49.2109 60.22 48.7069 59.68 48.3469 58.984C47.9869 58.276 47.8069 57.436 47.8069 56.464C47.8069 55.504 47.9869 54.676 48.3469 53.98C48.7069 53.272 49.2109 52.732 49.8589 52.36C50.5069 51.976 51.2749 51.784 52.1629 51.784C53.0509 51.784 53.8189 51.976 54.4669 52.36C55.1269 52.732 55.6309 53.272 55.9789 53.98C56.3389 54.676 56.5189 55.504 56.5189 56.464C56.5189 57.436 56.3389 58.276 55.9789 58.984C55.6309 59.68 55.1269 60.22 54.4669 60.604C53.8189 60.976 53.0509 61.162 52.1629 61.162ZM52.1629 59.866C52.9789 59.866 53.6329 59.578 54.1249 59.002C54.6169 58.426 54.8629 57.58 54.8629 56.464C54.8629 55.348 54.6169 54.508 54.1249 53.944C53.6329 53.38 52.9789 53.098 52.1629 53.098C51.3349 53.098 50.6749 53.38 50.1829 53.944C49.7029 54.508 49.4629 55.348 49.4629 56.464C49.4629 57.58 49.7029 58.426 50.1829 59.002C50.6749 59.578 51.3349 59.866 52.1629 59.866Z" fill="#343434"/>
<path d="M58.8574 61V51.946H60.4774V55.69H65.2654V51.946H66.8854V61H65.2654V56.986H60.4774V61H58.8574Z" fill="#343434"/>
<path d="M69.2535 61.216L68.6775 59.938C69.0975 59.746 69.4455 59.518 69.7215 59.254C70.0095 58.978 70.2315 58.63 70.3875 58.21C70.5555 57.79 70.6755 57.268 70.7475 56.644C70.8195 56.02 70.8555 55.264 70.8555 54.376V51.946H77.5335V61H75.9135V53.224H72.3675V54.412C72.3675 55.804 72.2595 56.956 72.0435 57.868C71.8395 58.768 71.5095 59.482 71.0535 60.01C70.6095 60.538 70.0095 60.94 69.2535 61.216Z" fill="#343434"/>
<path d="M83.8478 61.162C83.0558 61.162 82.3598 60.976 81.7598 60.604C81.1598 60.232 80.6918 59.692 80.3558 58.984C80.0198 58.276 79.8518 57.436 79.8518 56.464C79.8518 55.492 80.0198 54.658 80.3558 53.962C80.6918 53.254 81.1598 52.714 81.7598 52.342C82.3598 51.97 83.0558 51.784 83.8478 51.784C84.6518 51.784 85.3478 51.988 85.9358 52.396C86.5358 52.792 86.9318 53.338 87.1238 54.034H86.9078L87.1058 51.946H88.6898C88.6538 52.306 88.6178 52.666 88.5818 53.026C88.5578 53.386 88.5458 53.74 88.5458 54.088V61H86.9078V58.93H87.1058C86.9138 59.614 86.5178 60.16 85.9178 60.568C85.3298 60.964 84.6398 61.162 83.8478 61.162ZM84.2258 59.866C85.0418 59.866 85.6958 59.578 86.1878 59.002C86.6798 58.426 86.9258 57.58 86.9258 56.464C86.9258 55.348 86.6798 54.508 86.1878 53.944C85.6958 53.38 85.0418 53.098 84.2258 53.098C83.4098 53.098 82.7498 53.38 82.2458 53.944C81.7538 54.508 81.5078 55.348 81.5078 56.464C81.5078 57.58 81.7538 58.426 82.2458 59.002C82.7378 59.578 83.3978 59.866 84.2258 59.866Z" fill="#343434"/>
<path d="M91.4296 61V51.946H92.9236V59.452H92.4376L98.0536 51.946H99.4216V61H97.9276V53.476H98.4316L92.7976 61H91.4296ZM95.4256 51.118C94.9096 51.118 94.4356 51.028 94.0036 50.848C93.5716 50.668 93.1996 50.41 92.8876 50.074C92.5876 49.726 92.3596 49.294 92.2036 48.778L93.1396 48.436C93.3556 49.012 93.6496 49.438 94.0216 49.714C94.3936 49.978 94.8616 50.11 95.4256 50.11C96.0016 50.11 96.4756 49.984 96.8476 49.732C97.2196 49.48 97.5436 49.054 97.8196 48.454L98.7016 48.778C98.4016 49.594 97.9636 50.188 97.3876 50.56C96.8236 50.932 96.1696 51.118 95.4256 51.118Z" fill="#343434"/>
<path d="M102.223 61V51.946H103.843V55.69H108.631V51.946H110.251V61H108.631V56.986H103.843V61H102.223Z" fill="#343434"/>
<path d="M112.925 56.734V55.402H118.127V56.734H112.925Z" fill="#343434"/>
<path d="M120.803 61V51.946H128.777V61H127.157V53.224H122.423V61H120.803Z" fill="#343434"/>
<path d="M131.632 64.888V54.088C131.632 53.74 131.62 53.386 131.596 53.026C131.572 52.666 131.536 52.306 131.488 51.946H133.072L133.27 54.034H133.072C133.252 53.338 133.636 52.792 134.224 52.396C134.812 51.988 135.514 51.784 136.33 51.784C137.134 51.784 137.836 51.97 138.436 52.342C139.036 52.714 139.498 53.254 139.822 53.962C140.158 54.658 140.326 55.492 140.326 56.464C140.326 57.436 140.158 58.276 139.822 58.984C139.498 59.692 139.036 60.232 138.436 60.604C137.836 60.976 137.134 61.162 136.33 61.162C135.526 61.162 134.83 60.964 134.242 60.568C133.666 60.16 133.276 59.614 133.072 58.93H133.27V64.888H131.632ZM135.952 59.866C136.78 59.866 137.44 59.578 137.932 59.002C138.424 58.426 138.67 57.58 138.67 56.464C138.67 55.348 138.424 54.508 137.932 53.944C137.44 53.38 136.78 53.098 135.952 53.098C135.124 53.098 134.464 53.38 133.972 53.944C133.492 54.508 133.252 55.348 133.252 56.464C133.252 57.58 133.492 58.426 133.972 59.002C134.464 59.578 135.124 59.866 135.952 59.866Z" fill="#343434"/>
<path d="M146.54 61.162C145.652 61.162 144.884 60.976 144.236 60.604C143.588 60.22 143.084 59.68 142.724 58.984C142.364 58.276 142.184 57.436 142.184 56.464C142.184 55.504 142.364 54.676 142.724 53.98C143.084 53.272 143.588 52.732 144.236 52.36C144.884 51.976 145.652 51.784 146.54 51.784C147.428 51.784 148.196 51.976 148.844 52.36C149.504 52.732 150.008 53.272 150.356 53.98C150.716 54.676 150.896 55.504 150.896 56.464C150.896 57.436 150.716 58.276 150.356 58.984C150.008 59.68 149.504 60.22 148.844 60.604C148.196 60.976 147.428 61.162 146.54 61.162ZM146.54 59.866C147.356 59.866 148.01 59.578 148.502 59.002C148.994 58.426 149.24 57.58 149.24 56.464C149.24 55.348 148.994 54.508 148.502 53.944C148.01 53.38 147.356 53.098 146.54 53.098C145.712 53.098 145.052 53.38 144.56 53.944C144.08 54.508 143.84 55.348 143.84 56.464C143.84 57.58 144.08 58.426 144.56 59.002C145.052 59.578 145.712 59.866 146.54 59.866Z" fill="#343434"/>
<path d="M157.41 61.162C155.97 61.162 154.83 60.748 153.99 59.92C153.162 59.092 152.748 57.952 152.748 56.5C152.748 55.54 152.928 54.712 153.288 54.016C153.66 53.308 154.17 52.762 154.818 52.378C155.466 51.982 156.222 51.784 157.086 51.784C157.914 51.784 158.616 51.964 159.192 52.324C159.768 52.672 160.206 53.17 160.506 53.818C160.806 54.466 160.956 55.234 160.956 56.122V56.662H154.026V55.69H159.84L159.534 55.924C159.534 54.988 159.324 54.262 158.904 53.746C158.496 53.23 157.89 52.972 157.086 52.972C156.21 52.972 155.532 53.278 155.052 53.89C154.572 54.49 154.332 55.312 154.332 56.356V56.518C154.332 57.622 154.602 58.456 155.142 59.02C155.694 59.584 156.456 59.866 157.428 59.866C157.968 59.866 158.472 59.788 158.94 59.632C159.408 59.476 159.858 59.218 160.29 58.858L160.83 59.992C160.422 60.364 159.912 60.652 159.3 60.856C158.7 61.06 158.07 61.162 157.41 61.162Z" fill="#343434"/>
<path d="M163.236 61V51.946H164.856V55.69H166.494L169.41 51.946H171.192L167.808 56.356L167.376 55.852C167.724 55.888 168.024 55.978 168.276 56.122C168.528 56.254 168.768 56.452 168.996 56.716C169.236 56.98 169.494 57.334 169.77 57.778L171.642 61H169.878L168.24 58.21C168.06 57.886 167.88 57.634 167.7 57.454C167.52 57.274 167.316 57.148 167.088 57.076C166.872 57.004 166.596 56.968 166.26 56.968H164.856V61H163.236Z" fill="#343434"/>
<path d="M174.989 61V53.26H171.731V51.946H179.867V53.26H176.609V61H174.989Z" fill="#343434"/>
<path d="M181.359 61V51.946H182.979V55.15H185.643C186.819 55.15 187.701 55.402 188.289 55.906C188.889 56.398 189.189 57.112 189.189 58.048C189.189 58.648 189.051 59.17 188.775 59.614C188.499 60.058 188.097 60.4 187.569 60.64C187.041 60.88 186.399 61 185.643 61H181.359ZM182.979 59.866H185.463C186.183 59.866 186.723 59.722 187.083 59.434C187.455 59.134 187.641 58.678 187.641 58.066C187.641 57.454 187.455 57.004 187.083 56.716C186.723 56.428 186.183 56.284 185.463 56.284H182.979V59.866ZM190.503 61V51.946H192.123V61H190.503Z" fill="#343434"/>
<path d="M288 22C288 25.3137 285.314 28 282 28C278.686 28 276 25.3137 276 22C276 18.6863 278.686 16 282 16C285.314 16 288 18.6863 288 22Z" fill="#D3E4F0"/>
<defs>
<linearGradient id="paint0_linear_100_235" x1="152" y1="0" x2="152" y2="128" gradientUnits="userSpaceOnUse">
<stop stop-color="white"/>
<stop offset="1" stop-color="white" stop-opacity="0.8"/>
</linearGradient>
</defs>
</svg>
