<svg width="304" height="128" viewBox="0 0 304 128" fill="none" xmlns="http://www.w3.org/2000/svg">
<rect width="304" height="128" rx="16" fill="url(#paint0_linear_100_223)"/>
<path d="M37.616 41.18C36.524 41.18 35.552 41.048 34.7 40.784C33.848 40.508 33.128 40.13 32.54 39.65L33.278 37.94C33.818 38.372 34.43 38.702 35.114 38.93C35.798 39.146 36.578 39.254 37.454 39.254C38.51 39.254 39.284 39.092 39.776 38.768C40.268 38.432 40.514 37.934 40.514 37.274C40.514 36.662 40.31 36.212 39.902 35.924C39.494 35.624 38.864 35.474 38.012 35.474H34.826V33.656H37.724C38.54 33.656 39.152 33.512 39.56 33.224C39.98 32.924 40.19 32.48 40.19 31.892C40.19 31.328 39.968 30.884 39.524 30.56C39.08 30.224 38.396 30.056 37.472 30.056C36.74 30.056 36.038 30.164 35.366 30.38C34.694 30.596 34.094 30.914 33.566 31.334L32.828 29.624C33.392 29.144 34.1 28.778 34.952 28.526C35.816 28.262 36.728 28.13 37.688 28.13C39.26 28.13 40.442 28.448 41.234 29.084C42.038 29.72 42.44 30.554 42.44 31.586C42.44 32.354 42.212 33.008 41.756 33.548C41.3 34.076 40.676 34.43 39.884 34.61V34.34C40.784 34.472 41.486 34.808 41.99 35.348C42.506 35.888 42.764 36.596 42.764 37.472C42.764 38.216 42.572 38.87 42.188 39.434C41.816 39.986 41.246 40.418 40.478 40.73C39.722 41.03 38.768 41.18 37.616 41.18Z" fill="#343434"/>
<path d="M44.8444 41V31.91H47.0764V35.474H51.1804V31.91H53.4124V41H51.1804V37.202H47.0764V41H44.8444Z" fill="#343434"/>
<path d="M59.5534 41.18C58.7614 41.18 58.0654 40.994 57.4654 40.622C56.8654 40.238 56.3974 39.692 56.0614 38.984C55.7254 38.276 55.5574 37.43 55.5574 36.446C55.5574 35.462 55.7254 34.622 56.0614 33.926C56.3974 33.218 56.8654 32.678 57.4654 32.306C58.0654 31.922 58.7614 31.73 59.5534 31.73C60.3214 31.73 60.9934 31.922 61.5694 32.306C62.1574 32.678 62.5474 33.182 62.7394 33.818H62.5414L62.7394 31.91H64.8994C64.8634 32.282 64.8274 32.66 64.7914 33.044C64.7674 33.428 64.7554 33.806 64.7554 34.178V41H62.5234L62.5054 39.128H62.7214C62.5294 39.752 62.1394 40.25 61.5514 40.622C60.9634 40.994 60.2974 41.18 59.5534 41.18ZM60.1834 39.452C60.8914 39.452 61.4614 39.206 61.8934 38.714C62.3254 38.21 62.5414 37.454 62.5414 36.446C62.5414 35.438 62.3254 34.688 61.8934 34.196C61.4614 33.704 60.8914 33.458 60.1834 33.458C59.4754 33.458 58.9054 33.704 58.4734 34.196C58.0414 34.688 57.8254 35.438 57.8254 36.446C57.8254 37.454 58.0354 38.21 58.4554 38.714C58.8874 39.206 59.4634 39.452 60.1834 39.452Z" fill="#343434"/>
<path d="M67.3796 41V31.91H69.6116V35.474H70.9796L73.6436 31.91H76.0556L72.7076 36.446L72.2216 35.744C72.5576 35.78 72.8516 35.87 73.1036 36.014C73.3676 36.158 73.6136 36.362 73.8416 36.626C74.0816 36.878 74.3156 37.202 74.5436 37.598L76.4516 41H74.0576L72.5096 38.264C72.3536 37.988 72.1976 37.772 72.0416 37.616C71.8856 37.46 71.7116 37.352 71.5196 37.292C71.3276 37.232 71.0936 37.202 70.8176 37.202H69.6116V41H67.3796Z" fill="#343434"/>
<path d="M81.8212 41.18C80.8852 41.18 80.0752 40.988 79.3912 40.604C78.7072 40.22 78.1732 39.674 77.7892 38.966C77.4172 38.258 77.2312 37.418 77.2312 36.446C77.2312 35.474 77.4172 34.64 77.7892 33.944C78.1732 33.236 78.7072 32.69 79.3912 32.306C80.0752 31.922 80.8852 31.73 81.8212 31.73C82.7572 31.73 83.5672 31.922 84.2512 32.306C84.9472 32.69 85.4812 33.236 85.8532 33.944C86.2372 34.64 86.4292 35.474 86.4292 36.446C86.4292 37.418 86.2372 38.258 85.8532 38.966C85.4812 39.674 84.9472 40.22 84.2512 40.604C83.5672 40.988 82.7572 41.18 81.8212 41.18ZM81.8212 39.452C82.5292 39.452 83.0932 39.206 83.5132 38.714C83.9332 38.21 84.1432 37.454 84.1432 36.446C84.1432 35.438 83.9332 34.688 83.5132 34.196C83.0932 33.704 82.5292 33.458 81.8212 33.458C81.1132 33.458 80.5492 33.704 80.1292 34.196C79.7092 34.688 79.4992 35.438 79.4992 36.446C79.4992 37.454 79.7092 38.21 80.1292 38.714C80.5492 39.206 81.1132 39.452 81.8212 39.452Z" fill="#343434"/>
<path d="M88.5612 41V31.91H90.4332L93.5652 37.346L96.6972 31.91H98.5692V41H96.5892V34.43H97.0032L94.0872 39.524H93.0432L90.1272 34.43H90.5412V41H88.5612Z" fill="#343434"/>
<path d="M105.378 41.18C104.442 41.18 103.62 40.988 102.912 40.604C102.216 40.22 101.676 39.674 101.292 38.966C100.908 38.246 100.716 37.394 100.716 36.41C100.716 35.426 100.908 34.586 101.292 33.89C101.688 33.194 102.234 32.66 102.93 32.288C103.626 31.916 104.442 31.73 105.378 31.73C105.978 31.73 106.56 31.826 107.124 32.018C107.7 32.198 108.168 32.462 108.528 32.81L107.844 34.376C107.52 34.076 107.154 33.854 106.746 33.71C106.35 33.554 105.96 33.476 105.576 33.476C104.772 33.476 104.142 33.728 103.686 34.232C103.242 34.736 103.02 35.468 103.02 36.428C103.02 37.388 103.242 38.126 103.686 38.642C104.142 39.158 104.772 39.416 105.576 39.416C105.948 39.416 106.332 39.344 106.728 39.2C107.136 39.056 107.508 38.834 107.844 38.534L108.528 40.082C108.156 40.43 107.682 40.7 107.106 40.892C106.542 41.084 105.966 41.18 105.378 41.18Z" fill="#343434"/>
<path d="M112.408 41V33.674H109.294V31.91H117.772V33.674H114.64V41H112.408Z" fill="#343434"/>
<path d="M119.165 41V31.91H124.007C125.147 31.91 125.981 32.12 126.509 32.54C127.037 32.948 127.301 33.53 127.301 34.286C127.301 34.862 127.109 35.342 126.725 35.726C126.341 36.11 125.831 36.35 125.195 36.446V36.194C125.975 36.242 126.575 36.47 126.995 36.878C127.415 37.286 127.625 37.814 127.625 38.462C127.625 39.242 127.325 39.86 126.725 40.316C126.125 40.772 125.273 41 124.169 41H119.165ZM121.253 39.614H123.935C124.463 39.614 124.865 39.506 125.141 39.29C125.429 39.074 125.573 38.756 125.573 38.336C125.573 37.916 125.429 37.598 125.141 37.382C124.865 37.166 124.463 37.058 123.935 37.058H121.253V39.614ZM121.253 35.672H123.737C124.217 35.672 124.589 35.57 124.853 35.366C125.117 35.15 125.249 34.85 125.249 34.466C125.249 34.082 125.117 33.788 124.853 33.584C124.589 33.38 124.217 33.278 123.737 33.278H121.253V35.672Z" fill="#343434"/>
<path d="M133.765 41.18C132.829 41.18 132.019 40.988 131.335 40.604C130.651 40.22 130.117 39.674 129.733 38.966C129.361 38.258 129.175 37.418 129.175 36.446C129.175 35.474 129.361 34.64 129.733 33.944C130.117 33.236 130.651 32.69 131.335 32.306C132.019 31.922 132.829 31.73 133.765 31.73C134.701 31.73 135.511 31.922 136.195 32.306C136.891 32.69 137.425 33.236 137.797 33.944C138.181 34.64 138.373 35.474 138.373 36.446C138.373 37.418 138.181 38.258 137.797 38.966C137.425 39.674 136.891 40.22 136.195 40.604C135.511 40.988 134.701 41.18 133.765 41.18ZM133.765 39.452C134.473 39.452 135.037 39.206 135.457 38.714C135.877 38.21 136.087 37.454 136.087 36.446C136.087 35.438 135.877 34.688 135.457 34.196C135.037 33.704 134.473 33.458 133.765 33.458C133.057 33.458 132.493 33.704 132.073 34.196C131.653 34.688 131.443 35.438 131.443 36.446C131.443 37.454 131.653 38.21 132.073 38.714C132.493 39.206 133.057 39.452 133.765 39.452Z" fill="#343434"/>
<path d="M149.319 41.162C148.419 41.162 147.639 40.976 146.979 40.604C146.319 40.22 145.803 39.674 145.431 38.966C145.071 38.246 144.891 37.394 144.891 36.41C144.891 35.438 145.077 34.61 145.449 33.926C145.821 33.23 146.337 32.702 146.997 32.342C147.657 31.97 148.431 31.784 149.319 31.784C149.907 31.784 150.477 31.886 151.029 32.09C151.581 32.282 152.031 32.564 152.379 32.936L151.821 34.088C151.473 33.752 151.089 33.506 150.669 33.35C150.249 33.182 149.835 33.098 149.427 33.098C148.539 33.098 147.843 33.386 147.339 33.962C146.835 34.526 146.583 35.348 146.583 36.428C146.583 37.52 146.835 38.36 147.339 38.948C147.843 39.536 148.539 39.83 149.427 39.83C149.823 39.83 150.231 39.752 150.651 39.596C151.071 39.44 151.461 39.194 151.821 38.858L152.379 39.992C152.019 40.376 151.557 40.67 150.993 40.874C150.441 41.066 149.883 41.162 149.319 41.162Z" fill="#343434"/>
<path d="M158.387 41.162C157.499 41.162 156.731 40.976 156.083 40.604C155.435 40.22 154.931 39.68 154.571 38.984C154.211 38.276 154.031 37.436 154.031 36.464C154.031 35.504 154.211 34.676 154.571 33.98C154.931 33.272 155.435 32.732 156.083 32.36C156.731 31.976 157.499 31.784 158.387 31.784C159.275 31.784 160.043 31.976 160.691 32.36C161.351 32.732 161.855 33.272 162.203 33.98C162.563 34.676 162.743 35.504 162.743 36.464C162.743 37.436 162.563 38.276 162.203 38.984C161.855 39.68 161.351 40.22 160.691 40.604C160.043 40.976 159.275 41.162 158.387 41.162ZM158.387 39.866C159.203 39.866 159.857 39.578 160.349 39.002C160.841 38.426 161.087 37.58 161.087 36.464C161.087 35.348 160.841 34.508 160.349 33.944C159.857 33.38 159.203 33.098 158.387 33.098C157.559 33.098 156.899 33.38 156.407 33.944C155.927 34.508 155.687 35.348 155.687 36.464C155.687 37.58 155.927 38.426 156.407 39.002C156.899 39.578 157.559 39.866 158.387 39.866Z" fill="#343434"/>
<path d="M169.828 41V31.946H174.292C175.36 31.946 176.152 32.15 176.668 32.558C177.196 32.966 177.46 33.554 177.46 34.322C177.46 34.898 177.262 35.384 176.866 35.78C176.47 36.164 175.954 36.398 175.318 36.482V36.248C176.074 36.272 176.668 36.494 177.1 36.914C177.544 37.322 177.766 37.85 177.766 38.498C177.766 39.266 177.472 39.878 176.884 40.334C176.308 40.778 175.498 41 174.454 41H169.828ZM171.376 39.92H174.346C174.958 39.92 175.426 39.794 175.75 39.542C176.074 39.278 176.236 38.906 176.236 38.426C176.236 37.934 176.074 37.562 175.75 37.31C175.426 37.058 174.958 36.932 174.346 36.932H171.376V39.92ZM171.376 35.852H174.148C174.712 35.852 175.15 35.726 175.462 35.474C175.774 35.222 175.93 34.874 175.93 34.43C175.93 33.974 175.774 33.626 175.462 33.386C175.15 33.146 174.712 33.026 174.148 33.026H171.376V35.852Z" fill="#343434"/>
<path d="M183.912 41.162C183.012 41.162 182.232 40.976 181.572 40.604C180.912 40.22 180.396 39.674 180.024 38.966C179.664 38.246 179.484 37.394 179.484 36.41C179.484 35.438 179.67 34.61 180.042 33.926C180.414 33.23 180.93 32.702 181.59 32.342C182.25 31.97 183.024 31.784 183.912 31.784C184.5 31.784 185.07 31.886 185.622 32.09C186.174 32.282 186.624 32.564 186.972 32.936L186.414 34.088C186.066 33.752 185.682 33.506 185.262 33.35C184.842 33.182 184.428 33.098 184.02 33.098C183.132 33.098 182.436 33.386 181.932 33.962C181.428 34.526 181.176 35.348 181.176 36.428C181.176 37.52 181.428 38.36 181.932 38.948C182.436 39.536 183.132 39.83 184.02 39.83C184.416 39.83 184.824 39.752 185.244 39.596C185.664 39.44 186.054 39.194 186.414 38.858L186.972 39.992C186.612 40.376 186.15 40.67 185.586 40.874C185.034 41.066 184.476 41.162 183.912 41.162Z" fill="#343434"/>
<path d="M193.287 41.162C191.847 41.162 190.707 40.748 189.867 39.92C189.039 39.092 188.625 37.952 188.625 36.5C188.625 35.54 188.805 34.712 189.165 34.016C189.537 33.308 190.047 32.762 190.695 32.378C191.343 31.982 192.099 31.784 192.963 31.784C193.791 31.784 194.493 31.964 195.069 32.324C195.645 32.672 196.083 33.17 196.383 33.818C196.683 34.466 196.833 35.234 196.833 36.122V36.662H189.903V35.69H195.717L195.411 35.924C195.411 34.988 195.201 34.262 194.781 33.746C194.373 33.23 193.767 32.972 192.963 32.972C192.087 32.972 191.409 33.278 190.929 33.89C190.449 34.49 190.209 35.312 190.209 36.356V36.518C190.209 37.622 190.479 38.456 191.019 39.02C191.571 39.584 192.333 39.866 193.305 39.866C193.845 39.866 194.349 39.788 194.817 39.632C195.285 39.476 195.735 39.218 196.167 38.858L196.707 39.992C196.299 40.364 195.789 40.652 195.177 40.856C194.577 41.06 193.947 41.162 193.287 41.162Z" fill="#343434"/>
<path d="M199.113 41V31.946H200.481L203.811 37.868L207.159 31.946H208.509V41H207.069V33.782H207.465L204.225 39.542H203.415L200.175 33.764H200.553V41H199.113Z" fill="#343434"/>
<path d="M211.312 41V31.946H212.806V39.452H212.32L217.936 31.946H219.304V41H217.81V33.476H218.314L212.68 41H211.312Z" fill="#343434"/>
<path d="M37.274 61.162C36.386 61.162 35.618 60.976 34.97 60.604C34.322 60.22 33.818 59.68 33.458 58.984C33.098 58.276 32.918 57.436 32.918 56.464C32.918 55.504 33.098 54.676 33.458 53.98C33.818 53.272 34.322 52.732 34.97 52.36C35.618 51.976 36.386 51.784 37.274 51.784C38.162 51.784 38.93 51.976 39.578 52.36C40.238 52.732 40.742 53.272 41.09 53.98C41.45 54.676 41.63 55.504 41.63 56.464C41.63 57.436 41.45 58.276 41.09 58.984C40.742 59.68 40.238 60.22 39.578 60.604C38.93 60.976 38.162 61.162 37.274 61.162ZM37.274 59.866C38.09 59.866 38.744 59.578 39.236 59.002C39.728 58.426 39.974 57.58 39.974 56.464C39.974 55.348 39.728 54.508 39.236 53.944C38.744 53.38 38.09 53.098 37.274 53.098C36.446 53.098 35.786 53.38 35.294 53.944C34.814 54.508 34.574 55.348 34.574 56.464C34.574 57.58 34.814 58.426 35.294 59.002C35.786 59.578 36.446 59.866 37.274 59.866Z" fill="#343434"/>
<path d="M43.9685 61V51.946H45.5885V55.69H50.3765V51.946H51.9965V61H50.3765V56.986H45.5885V61H43.9685Z" fill="#343434"/>
<path d="M54.3646 61.216L53.7886 59.938C54.2086 59.746 54.5566 59.518 54.8326 59.254C55.1206 58.978 55.3426 58.63 55.4986 58.21C55.6666 57.79 55.7866 57.268 55.8586 56.644C55.9306 56.02 55.9666 55.264 55.9666 54.376V51.946H62.6446V61H61.0246V53.224H57.4786V54.412C57.4786 55.804 57.3706 56.956 57.1546 57.868C56.9506 58.768 56.6206 59.482 56.1646 60.01C55.7206 60.538 55.1206 60.94 54.3646 61.216Z" fill="#343434"/>
<path d="M68.959 61.162C68.167 61.162 67.471 60.976 66.871 60.604C66.271 60.232 65.803 59.692 65.467 58.984C65.131 58.276 64.963 57.436 64.963 56.464C64.963 55.492 65.131 54.658 65.467 53.962C65.803 53.254 66.271 52.714 66.871 52.342C67.471 51.97 68.167 51.784 68.959 51.784C69.763 51.784 70.459 51.988 71.047 52.396C71.647 52.792 72.043 53.338 72.235 54.034H72.019L72.217 51.946H73.801C73.765 52.306 73.729 52.666 73.693 53.026C73.669 53.386 73.657 53.74 73.657 54.088V61H72.019V58.93H72.217C72.025 59.614 71.629 60.16 71.029 60.568C70.441 60.964 69.751 61.162 68.959 61.162ZM69.337 59.866C70.153 59.866 70.807 59.578 71.299 59.002C71.791 58.426 72.037 57.58 72.037 56.464C72.037 55.348 71.791 54.508 71.299 53.944C70.807 53.38 70.153 53.098 69.337 53.098C68.521 53.098 67.861 53.38 67.357 53.944C66.865 54.508 66.619 55.348 66.619 56.464C66.619 57.58 66.865 58.426 67.357 59.002C67.849 59.578 68.509 59.866 69.337 59.866Z" fill="#343434"/>
<path d="M76.5408 61V51.946H78.0348V59.452H77.5488L83.1648 51.946H84.5328V61H83.0388V53.476H83.5428L77.9088 61H76.5408ZM80.5368 51.118C80.0208 51.118 79.5468 51.028 79.1148 50.848C78.6828 50.668 78.3108 50.41 77.9988 50.074C77.6988 49.726 77.4708 49.294 77.3148 48.778L78.2508 48.436C78.4668 49.012 78.7608 49.438 79.1328 49.714C79.5048 49.978 79.9728 50.11 80.5368 50.11C81.1128 50.11 81.5868 49.984 81.9588 49.732C82.3308 49.48 82.6548 49.054 82.9308 48.454L83.8128 48.778C83.5128 49.594 83.0748 50.188 82.4988 50.56C81.9348 50.932 81.2808 51.118 80.5368 51.118Z" fill="#343434"/>
<path d="M87.3337 61V51.946H88.9537V55.69H93.7417V51.946H95.3617V61H93.7417V56.986H88.9537V61H87.3337Z" fill="#343434"/>
<path d="M98.0359 56.734V55.402H103.238V56.734H98.0359Z" fill="#343434"/>
<path d="M105.914 61V51.946H113.888V61H112.268V53.224H107.534V61H105.914Z" fill="#343434"/>
<path d="M116.743 64.888V54.088C116.743 53.74 116.731 53.386 116.707 53.026C116.683 52.666 116.647 52.306 116.599 51.946H118.183L118.381 54.034H118.183C118.363 53.338 118.747 52.792 119.335 52.396C119.923 51.988 120.625 51.784 121.441 51.784C122.245 51.784 122.947 51.97 123.547 52.342C124.147 52.714 124.609 53.254 124.933 53.962C125.269 54.658 125.437 55.492 125.437 56.464C125.437 57.436 125.269 58.276 124.933 58.984C124.609 59.692 124.147 60.232 123.547 60.604C122.947 60.976 122.245 61.162 121.441 61.162C120.637 61.162 119.941 60.964 119.353 60.568C118.777 60.16 118.387 59.614 118.183 58.93H118.381V64.888H116.743ZM121.063 59.866C121.891 59.866 122.551 59.578 123.043 59.002C123.535 58.426 123.781 57.58 123.781 56.464C123.781 55.348 123.535 54.508 123.043 53.944C122.551 53.38 121.891 53.098 121.063 53.098C120.235 53.098 119.575 53.38 119.083 53.944C118.603 54.508 118.363 55.348 118.363 56.464C118.363 57.58 118.603 58.426 119.083 59.002C119.575 59.578 120.235 59.866 121.063 59.866Z" fill="#343434"/>
<path d="M131.651 61.162C130.763 61.162 129.995 60.976 129.347 60.604C128.699 60.22 128.195 59.68 127.835 58.984C127.475 58.276 127.295 57.436 127.295 56.464C127.295 55.504 127.475 54.676 127.835 53.98C128.195 53.272 128.699 52.732 129.347 52.36C129.995 51.976 130.763 51.784 131.651 51.784C132.539 51.784 133.307 51.976 133.955 52.36C134.615 52.732 135.119 53.272 135.467 53.98C135.827 54.676 136.007 55.504 136.007 56.464C136.007 57.436 135.827 58.276 135.467 58.984C135.119 59.68 134.615 60.22 133.955 60.604C133.307 60.976 132.539 61.162 131.651 61.162ZM131.651 59.866C132.467 59.866 133.121 59.578 133.613 59.002C134.105 58.426 134.351 57.58 134.351 56.464C134.351 55.348 134.105 54.508 133.613 53.944C133.121 53.38 132.467 53.098 131.651 53.098C130.823 53.098 130.163 53.38 129.671 53.944C129.191 54.508 128.951 55.348 128.951 56.464C128.951 57.58 129.191 58.426 129.671 59.002C130.163 59.578 130.823 59.866 131.651 59.866Z" fill="#343434"/>
<path d="M143.565 64.888V59.038H143.745C143.565 59.722 143.247 60.25 142.791 60.622C142.347 60.982 141.801 61.162 141.153 61.162C140.505 61.162 139.929 60.97 139.425 60.586C138.933 60.202 138.549 59.662 138.273 58.966C137.997 58.258 137.859 57.424 137.859 56.464C137.859 55.504 137.991 54.676 138.255 53.98C138.531 53.272 138.915 52.732 139.407 52.36C139.911 51.976 140.493 51.784 141.153 51.784C141.801 51.784 142.347 51.97 142.791 52.342C143.247 52.702 143.565 53.218 143.745 53.89H143.565V47.752H145.185V53.89H145.005C145.197 53.218 145.515 52.702 145.959 52.342C146.403 51.97 146.949 51.784 147.597 51.784C148.257 51.784 148.833 51.976 149.325 52.36C149.829 52.732 150.213 53.272 150.477 53.98C150.753 54.676 150.891 55.504 150.891 56.464C150.891 57.424 150.753 58.258 150.477 58.966C150.213 59.662 149.835 60.202 149.343 60.586C148.851 60.97 148.269 61.162 147.597 61.162C146.961 61.162 146.415 60.982 145.959 60.622C145.515 60.25 145.197 59.722 145.005 59.038H145.185V64.888H143.565ZM141.549 59.884C142.185 59.884 142.683 59.596 143.043 59.02C143.415 58.444 143.601 57.592 143.601 56.464C143.601 55.36 143.415 54.514 143.043 53.926C142.671 53.338 142.173 53.044 141.549 53.044C140.913 53.044 140.409 53.338 140.037 53.926C139.677 54.514 139.497 55.36 139.497 56.464C139.497 57.592 139.677 58.444 140.037 59.02C140.409 59.596 140.913 59.884 141.549 59.884ZM147.201 59.884C147.837 59.884 148.341 59.596 148.713 59.02C149.085 58.444 149.271 57.592 149.271 56.464C149.271 55.36 149.085 54.514 148.713 53.926C148.341 53.338 147.837 53.044 147.201 53.044C146.565 53.044 146.067 53.338 145.707 53.926C145.347 54.514 145.167 55.36 145.167 56.464C145.167 57.592 145.347 58.444 145.707 59.02C146.067 59.596 146.565 59.884 147.201 59.884Z" fill="#343434"/>
<path d="M157.393 61.162C155.953 61.162 154.813 60.748 153.973 59.92C153.145 59.092 152.731 57.952 152.731 56.5C152.731 55.54 152.911 54.712 153.271 54.016C153.643 53.308 154.153 52.762 154.801 52.378C155.449 51.982 156.205 51.784 157.069 51.784C157.897 51.784 158.599 51.964 159.175 52.324C159.751 52.672 160.189 53.17 160.489 53.818C160.789 54.466 160.939 55.234 160.939 56.122V56.662H154.009V55.69H159.823L159.517 55.924C159.517 54.988 159.307 54.262 158.887 53.746C158.479 53.23 157.873 52.972 157.069 52.972C156.193 52.972 155.515 53.278 155.035 53.89C154.555 54.49 154.315 55.312 154.315 56.356V56.518C154.315 57.622 154.585 58.456 155.125 59.02C155.677 59.584 156.439 59.866 157.411 59.866C157.951 59.866 158.455 59.788 158.923 59.632C159.391 59.476 159.841 59.218 160.273 58.858L160.813 59.992C160.405 60.364 159.895 60.652 159.283 60.856C158.683 61.06 158.053 61.162 157.393 61.162Z" fill="#343434"/>
<path d="M167.16 61.162C166.26 61.162 165.48 60.976 164.82 60.604C164.16 60.22 163.644 59.674 163.272 58.966C162.912 58.246 162.732 57.394 162.732 56.41C162.732 55.438 162.918 54.61 163.29 53.926C163.662 53.23 164.179 52.702 164.839 52.342C165.499 51.97 166.272 51.784 167.16 51.784C167.748 51.784 168.318 51.886 168.87 52.09C169.422 52.282 169.873 52.564 170.221 52.936L169.663 54.088C169.315 53.752 168.93 53.506 168.51 53.35C168.09 53.182 167.676 53.098 167.268 53.098C166.38 53.098 165.684 53.386 165.18 53.962C164.676 54.526 164.424 55.348 164.424 56.428C164.424 57.52 164.676 58.36 165.18 58.948C165.684 59.536 166.38 59.83 167.268 59.83C167.664 59.83 168.072 59.752 168.492 59.596C168.912 59.44 169.303 59.194 169.663 58.858L170.221 59.992C169.861 60.376 169.399 60.67 168.835 60.874C168.283 61.066 167.724 61.162 167.16 61.162Z" fill="#343434"/>
<path d="M176.301 61.162C175.401 61.162 174.621 60.976 173.961 60.604C173.301 60.22 172.785 59.674 172.413 58.966C172.053 58.246 171.873 57.394 171.873 56.41C171.873 55.438 172.059 54.61 172.431 53.926C172.803 53.23 173.319 52.702 173.979 52.342C174.639 51.97 175.413 51.784 176.301 51.784C176.889 51.784 177.459 51.886 178.011 52.09C178.563 52.282 179.013 52.564 179.361 52.936L178.803 54.088C178.455 53.752 178.071 53.506 177.651 53.35C177.231 53.182 176.817 53.098 176.409 53.098C175.521 53.098 174.825 53.386 174.321 53.962C173.817 54.526 173.565 55.348 173.565 56.428C173.565 57.52 173.817 58.36 174.321 58.948C174.825 59.536 175.521 59.83 176.409 59.83C176.805 59.83 177.213 59.752 177.633 59.596C178.053 59.44 178.443 59.194 178.803 58.858L179.361 59.992C179.001 60.376 178.539 60.67 177.975 60.874C177.423 61.066 176.865 61.162 176.301 61.162Z" fill="#343434"/>
<path d="M181.5 61V51.946H182.994V59.452H182.508L188.124 51.946H189.492V61H187.998V53.476H188.502L182.868 61H181.5Z" fill="#343434"/>
<path d="M191.573 61L192.995 58.534C193.223 58.138 193.511 57.82 193.859 57.58C194.207 57.328 194.573 57.202 194.957 57.202H195.245L195.227 57.364C194.207 57.364 193.409 57.136 192.833 56.68C192.257 56.212 191.969 55.54 191.969 54.664C191.969 53.8 192.251 53.134 192.815 52.666C193.379 52.186 194.219 51.946 195.335 51.946H199.457V61H197.945V57.58H196.649C196.181 57.58 195.779 57.7 195.443 57.94C195.107 58.168 194.831 58.474 194.615 58.858L193.391 61H191.573ZM195.623 56.446H197.945V53.062H195.623C194.915 53.062 194.387 53.212 194.039 53.512C193.703 53.812 193.535 54.226 193.535 54.754C193.535 55.294 193.703 55.714 194.039 56.014C194.387 56.302 194.915 56.446 195.623 56.446Z" fill="#343434"/>
<path d="M202.26 61V51.946H203.628L206.958 57.868L210.306 51.946H211.656V61H210.216V53.782H210.612L207.372 59.542H206.562L203.322 53.764H203.7V61H202.26Z" fill="#343434"/>
<path d="M214.459 61V51.946H215.953V59.452H215.467L221.083 51.946H222.451V61H220.957V53.476H221.461L215.827 61H214.459Z" fill="#343434"/>
<path d="M288 22C288 25.3137 285.314 28 282 28C278.686 28 276 25.3137 276 22C276 18.6863 278.686 16 282 16C285.314 16 288 18.6863 288 22Z" fill="#D3E4F0"/>
<defs>
<linearGradient id="paint0_linear_100_223" x1="152" y1="0" x2="152" y2="128" gradientUnits="userSpaceOnUse">
<stop stop-color="white"/>
<stop offset="1" stop-color="white" stop-opacity="0.8"/>
</linearGradient>
</defs>
</svg>
