<svg width="411" height="128" viewBox="0 0 411 128" fill="none" xmlns="http://www.w3.org/2000/svg">
<rect width="411" height="128" rx="16" fill="url(#paint0_linear_99_69)"/>
<path d="M33.8062 48V33.195H46.3012V48H44.3692V34.833H35.7382V48H33.8062Z" fill="#343434"/>
<path d="M54.2518 48.189C53.2158 48.189 52.3198 47.972 51.5638 47.538C50.8078 47.09 50.2198 46.46 49.7998 45.648C49.3798 44.822 49.1698 43.842 49.1698 42.708C49.1698 41.588 49.3798 40.622 49.7998 39.81C50.2198 38.984 50.8078 38.354 51.5638 37.92C52.3198 37.472 53.2158 37.248 54.2518 37.248C55.2878 37.248 56.1838 37.472 56.9398 37.92C57.7098 38.354 58.2978 38.984 58.7038 39.81C59.1238 40.622 59.3338 41.588 59.3338 42.708C59.3338 43.842 59.1238 44.822 58.7038 45.648C58.2978 46.46 57.7098 47.09 56.9398 47.538C56.1838 47.972 55.2878 48.189 54.2518 48.189ZM54.2518 46.677C55.2038 46.677 55.9668 46.341 56.5408 45.669C57.1148 44.997 57.4018 44.01 57.4018 42.708C57.4018 41.406 57.1148 40.426 56.5408 39.768C55.9668 39.11 55.2038 38.781 54.2518 38.781C53.2858 38.781 52.5158 39.11 51.9418 39.768C51.3818 40.426 51.1018 41.406 51.1018 42.708C51.1018 44.01 51.3818 44.997 51.9418 45.669C52.5158 46.341 53.2858 46.677 54.2518 46.677Z" fill="#343434"/>
<path d="M62.062 48V37.437H63.952V41.805H69.538V37.437H71.428V48H69.538V43.317H63.952V48H62.062Z" fill="#343434"/>
<path d="M74.6949 48V37.437H76.4379V46.194H75.8708L82.4229 37.437H84.0189V48H82.2759V39.222H82.8638L76.2909 48H74.6949Z" fill="#343434"/>
<path d="M87.2866 48V37.437H88.8826L92.7676 44.346L96.6736 37.437H98.2486V48H96.5686V39.579H97.0307L93.2506 46.299H92.3056L88.5256 39.558H88.9666V48H87.2866Z" fill="#343434"/>
<path d="M105.614 48.189C104.69 48.189 103.878 47.972 103.178 47.538C102.478 47.104 101.932 46.474 101.54 45.648C101.148 44.822 100.952 43.842 100.952 42.708C100.952 41.574 101.148 40.601 101.54 39.789C101.932 38.963 102.478 38.333 103.178 37.899C103.878 37.465 104.69 37.248 105.614 37.248C106.552 37.248 107.364 37.486 108.05 37.962C108.75 38.424 109.212 39.061 109.436 39.873H109.184L109.415 37.437H111.263C111.221 37.857 111.179 38.277 111.137 38.697C111.109 39.117 111.095 39.53 111.095 39.936V48H109.184V45.585H109.415C109.191 46.383 108.729 47.02 108.029 47.496C107.343 47.958 106.538 48.189 105.614 48.189ZM106.055 46.677C107.007 46.677 107.77 46.341 108.344 45.669C108.918 44.997 109.205 44.01 109.205 42.708C109.205 41.406 108.918 40.426 108.344 39.768C107.77 39.11 107.007 38.781 106.055 38.781C105.103 38.781 104.333 39.11 103.745 39.768C103.171 40.426 102.884 41.406 102.884 42.708C102.884 44.01 103.171 44.997 103.745 45.669C104.319 46.341 105.089 46.677 106.055 46.677Z" fill="#343434"/>
<path d="M114.46 48V37.437H116.35V41.805H121.936V37.437H123.826V48H121.936V43.317H116.35V48H114.46Z" fill="#343434"/>
<path d="M127.092 48V37.437H128.835V46.194H128.268L134.82 37.437H136.416V48H134.673V39.222H135.261L128.688 48H127.092Z" fill="#343434"/>
<path d="M144.556 48.189C142.876 48.189 141.546 47.706 140.566 46.74C139.6 45.774 139.117 44.444 139.117 42.75C139.117 41.63 139.327 40.664 139.747 39.852C140.181 39.026 140.776 38.389 141.532 37.941C142.288 37.479 143.17 37.248 144.178 37.248C145.144 37.248 145.963 37.458 146.635 37.878C147.307 38.284 147.818 38.865 148.168 39.621C148.518 40.377 148.693 41.273 148.693 42.309V42.939H140.608V41.805H147.391L147.034 42.078C147.034 40.986 146.789 40.139 146.299 39.537C145.823 38.935 145.116 38.634 144.178 38.634C143.156 38.634 142.365 38.991 141.805 39.705C141.245 40.405 140.965 41.364 140.965 42.582V42.771C140.965 44.059 141.28 45.032 141.91 45.69C142.554 46.348 143.443 46.677 144.577 46.677C145.207 46.677 145.795 46.586 146.341 46.404C146.887 46.222 147.412 45.921 147.916 45.501L148.546 46.824C148.07 47.258 147.475 47.594 146.761 47.832C146.061 48.07 145.326 48.189 144.556 48.189Z" fill="#343434"/>
<path d="M159.158 48V38.97H155.357V37.437H164.849V38.97H161.048V48H159.158Z" fill="#343434"/>
<path d="M171.044 48.189C170.008 48.189 169.112 47.972 168.356 47.538C167.6 47.09 167.012 46.46 166.592 45.648C166.172 44.822 165.962 43.842 165.962 42.708C165.962 41.588 166.172 40.622 166.592 39.81C167.012 38.984 167.6 38.354 168.356 37.92C169.112 37.472 170.008 37.248 171.044 37.248C172.08 37.248 172.976 37.472 173.732 37.92C174.502 38.354 175.09 38.984 175.496 39.81C175.916 40.622 176.126 41.588 176.126 42.708C176.126 43.842 175.916 44.822 175.496 45.648C175.09 46.46 174.502 47.09 173.732 47.538C172.976 47.972 172.08 48.189 171.044 48.189ZM171.044 46.677C171.996 46.677 172.759 46.341 173.333 45.669C173.907 44.997 174.194 44.01 174.194 42.708C174.194 41.406 173.907 40.426 173.333 39.768C172.759 39.11 171.996 38.781 171.044 38.781C170.078 38.781 169.308 39.11 168.734 39.768C168.174 40.426 167.894 41.406 167.894 42.708C167.894 44.01 168.174 44.997 168.734 45.669C169.308 46.341 170.078 46.677 171.044 46.677Z" fill="#343434"/>
<path d="M178.854 48V37.437H186.351V38.97H180.765V48H178.854Z" fill="#343434"/>
<path d="M192.823 48.189C191.787 48.189 190.891 47.972 190.135 47.538C189.379 47.09 188.791 46.46 188.371 45.648C187.951 44.822 187.741 43.842 187.741 42.708C187.741 41.588 187.951 40.622 188.371 39.81C188.791 38.984 189.379 38.354 190.135 37.92C190.891 37.472 191.787 37.248 192.823 37.248C193.859 37.248 194.755 37.472 195.511 37.92C196.281 38.354 196.869 38.984 197.275 39.81C197.695 40.622 197.905 41.588 197.905 42.708C197.905 43.842 197.695 44.822 197.275 45.648C196.869 46.46 196.281 47.09 195.511 47.538C194.755 47.972 193.859 48.189 192.823 48.189ZM192.823 46.677C193.775 46.677 194.538 46.341 195.112 45.669C195.686 44.997 195.973 44.01 195.973 42.708C195.973 41.406 195.686 40.426 195.112 39.768C194.538 39.11 193.775 38.781 192.823 38.781C191.857 38.781 191.087 39.11 190.513 39.768C189.953 40.426 189.673 41.406 189.673 42.708C189.673 44.01 189.953 44.997 190.513 45.669C191.087 46.341 191.857 46.677 192.823 46.677Z" fill="#343434"/>
<path d="M200.894 50.499L200.033 49.827C200.425 49.421 200.691 49.036 200.831 48.672C200.971 48.322 201.041 47.958 201.041 47.58L201.461 48H199.928V45.669H202.259V47.286C202.259 47.888 202.161 48.441 201.965 48.945C201.769 49.463 201.412 49.981 200.894 50.499Z" fill="#343434"/>
<path d="M210.576 48V37.395H213.18V41.553H214.776L217.884 37.395H220.698L216.792 42.687L216.225 41.868C216.617 41.91 216.96 42.015 217.254 42.183C217.562 42.351 217.849 42.589 218.115 42.897C218.395 43.191 218.668 43.569 218.934 44.031L221.16 48H218.367L216.561 44.808C216.379 44.486 216.197 44.234 216.015 44.052C215.833 43.87 215.63 43.744 215.406 43.674C215.182 43.604 214.909 43.569 214.587 43.569H213.18V48H210.576Z" fill="#343434"/>
<path d="M226.732 48.21C225.808 48.21 224.996 47.993 224.296 47.559C223.596 47.111 223.05 46.474 222.658 45.648C222.266 44.822 222.07 43.835 222.07 42.687C222.07 41.539 222.266 40.559 222.658 39.747C223.05 38.921 223.596 38.291 224.296 37.857C224.996 37.409 225.808 37.185 226.732 37.185C227.628 37.185 228.412 37.409 229.084 37.857C229.77 38.291 230.225 38.879 230.449 39.621H230.218L230.449 37.395H232.969C232.927 37.829 232.885 38.27 232.843 38.718C232.815 39.166 232.801 39.607 232.801 40.041V48H230.197L230.176 45.816H230.428C230.204 46.544 229.749 47.125 229.063 47.559C228.377 47.993 227.6 48.21 226.732 48.21ZM227.467 46.194C228.293 46.194 228.958 45.907 229.462 45.333C229.966 44.745 230.218 43.863 230.218 42.687C230.218 41.511 229.966 40.636 229.462 40.062C228.958 39.488 228.293 39.201 227.467 39.201C226.641 39.201 225.976 39.488 225.472 40.062C224.968 40.636 224.716 41.511 224.716 42.687C224.716 43.863 224.961 44.745 225.451 45.333C225.955 45.907 226.627 46.194 227.467 46.194Z" fill="#343434"/>
<path d="M235.862 48V37.395H238.466V41.553H240.062L243.17 37.395H245.984L242.078 42.687L241.511 41.868C241.903 41.91 242.246 42.015 242.54 42.183C242.848 42.351 243.135 42.589 243.401 42.897C243.681 43.191 243.954 43.569 244.22 44.031L246.446 48H243.653L241.847 44.808C241.665 44.486 241.483 44.234 241.301 44.052C241.119 43.87 240.916 43.744 240.692 43.674C240.468 43.604 240.195 43.569 239.873 43.569H238.466V48H235.862Z" fill="#343434"/>
<path d="M253.476 52.767L252.867 50.688C253.525 50.548 254.078 50.387 254.526 50.205C254.974 50.023 255.345 49.785 255.639 49.491C255.933 49.197 256.178 48.819 256.374 48.357L256.899 47.118L256.836 48.147L252.216 37.395H255.009L258.327 45.669H257.718L261.057 37.395H263.703L258.873 48.588C258.551 49.344 258.201 49.967 257.823 50.457C257.445 50.961 257.039 51.36 256.605 51.654C256.171 51.962 255.695 52.2 255.177 52.368C254.659 52.536 254.092 52.669 253.476 52.767Z" fill="#343434"/>
<path d="M270.083 48.21C268.991 48.21 268.032 47.986 267.206 47.538C266.394 47.09 265.764 46.453 265.316 45.627C264.868 44.787 264.644 43.793 264.644 42.645C264.644 41.497 264.868 40.517 265.316 39.705C265.778 38.893 266.415 38.27 267.227 37.836C268.039 37.402 268.991 37.185 270.083 37.185C270.783 37.185 271.462 37.297 272.12 37.521C272.792 37.731 273.338 38.039 273.758 38.445L272.96 40.272C272.582 39.922 272.155 39.663 271.679 39.495C271.217 39.313 270.762 39.222 270.314 39.222C269.376 39.222 268.641 39.516 268.109 40.104C267.591 40.692 267.332 41.546 267.332 42.666C267.332 43.786 267.591 44.647 268.109 45.249C268.641 45.851 269.376 46.152 270.314 46.152C270.748 46.152 271.196 46.068 271.658 45.9C272.134 45.732 272.568 45.473 272.96 45.123L273.758 46.929C273.324 47.335 272.771 47.65 272.099 47.874C271.441 48.098 270.769 48.21 270.083 48.21Z" fill="#343434"/>
<path d="M278.285 48V39.453H274.652V37.395H284.543V39.453H280.889V48H278.285Z" fill="#343434"/>
<path d="M286.252 52.536V40.041C286.252 39.607 286.238 39.166 286.21 38.718C286.182 38.27 286.14 37.829 286.084 37.395H288.625L288.856 39.621H288.625C288.835 38.879 289.276 38.291 289.948 37.857C290.634 37.409 291.425 37.185 292.321 37.185C293.259 37.185 294.078 37.409 294.778 37.857C295.478 38.291 296.024 38.921 296.416 39.747C296.808 40.559 297.004 41.539 297.004 42.687C297.004 43.835 296.808 44.822 296.416 45.648C296.024 46.474 295.478 47.111 294.778 47.559C294.078 47.993 293.259 48.21 292.321 48.21C291.439 48.21 290.662 47.993 289.99 47.559C289.318 47.125 288.87 46.544 288.646 45.816H288.877V52.536H286.252ZM291.586 46.194C292.426 46.194 293.098 45.907 293.602 45.333C294.106 44.745 294.358 43.863 294.358 42.687C294.358 41.511 294.106 40.636 293.602 40.062C293.098 39.488 292.426 39.201 291.586 39.201C290.76 39.201 290.095 39.488 289.591 40.062C289.087 40.636 288.835 41.511 288.835 42.687C288.835 43.863 289.087 44.745 289.591 45.333C290.095 45.907 290.76 46.194 291.586 46.194Z" fill="#343434"/>
<path d="M304.35 48.21C303.258 48.21 302.313 47.986 301.515 47.538C300.717 47.09 300.094 46.453 299.646 45.627C299.212 44.801 298.995 43.821 298.995 42.687C298.995 41.553 299.212 40.58 299.646 39.768C300.094 38.942 300.717 38.305 301.515 37.857C302.313 37.409 303.258 37.185 304.35 37.185C305.442 37.185 306.387 37.409 307.185 37.857C307.997 38.305 308.62 38.942 309.054 39.768C309.502 40.58 309.726 41.553 309.726 42.687C309.726 43.821 309.502 44.801 309.054 45.627C308.62 46.453 307.997 47.09 307.185 47.538C306.387 47.986 305.442 48.21 304.35 48.21ZM304.35 46.194C305.176 46.194 305.834 45.907 306.324 45.333C306.814 44.745 307.059 43.863 307.059 42.687C307.059 41.511 306.814 40.636 306.324 40.062C305.834 39.488 305.176 39.201 304.35 39.201C303.524 39.201 302.866 39.488 302.376 40.062C301.886 40.636 301.641 41.511 301.641 42.687C301.641 43.863 301.886 44.745 302.376 45.333C302.866 45.907 303.524 46.194 304.35 46.194Z" fill="#343434"/>
<path d="M317.421 48.21C315.643 48.21 314.25 47.72 313.242 46.74C312.234 45.76 311.73 44.416 311.73 42.708C311.73 41.602 311.947 40.636 312.381 39.81C312.815 38.984 313.417 38.34 314.187 37.878C314.971 37.416 315.881 37.185 316.917 37.185C317.939 37.185 318.793 37.402 319.479 37.836C320.165 38.27 320.683 38.879 321.033 39.663C321.397 40.447 321.579 41.364 321.579 42.414V43.107H313.851V41.721H319.71L319.353 42.015C319.353 41.035 319.143 40.286 318.723 39.768C318.317 39.25 317.722 38.991 316.938 38.991C316.07 38.991 315.398 39.299 314.922 39.915C314.46 40.531 314.229 41.392 314.229 42.498V42.771C314.229 43.919 314.509 44.78 315.069 45.354C315.643 45.914 316.448 46.194 317.484 46.194C318.086 46.194 318.646 46.117 319.164 45.963C319.696 45.795 320.2 45.529 320.676 45.165L321.453 46.929C320.949 47.335 320.347 47.65 319.647 47.874C318.947 48.098 318.205 48.21 317.421 48.21Z" fill="#343434"/>
<path d="M324.005 48V37.395H326.609V41.553H331.397V37.395H334.001V48H331.397V43.569H326.609V48H324.005Z" fill="#343434"/>
<path d="M33.4912 72V61.395H35.6752L39.3292 67.737L42.9832 61.395H45.1672V72H42.8572V64.335H43.3402L39.9382 70.278H38.7202L35.3182 64.335H35.8012V72H33.4912Z" fill="#343434"/>
<path d="M48.1543 72V61.395H50.5273V69.417H49.8973L55.9243 61.395H58.0873V72H55.7143V63.957H56.3653L50.3173 72H48.1543Z" fill="#343434"/>
<path d="M61.1582 76.536V64.041C61.1582 63.607 61.1442 63.166 61.1162 62.718C61.0882 62.27 61.0462 61.829 60.9902 61.395H63.5312L63.7622 63.621H63.5312C63.7412 62.879 64.1822 62.291 64.8542 61.857C65.5402 61.409 66.3312 61.185 67.2272 61.185C68.1652 61.185 68.9842 61.409 69.6842 61.857C70.3842 62.291 70.9302 62.921 71.3222 63.747C71.7142 64.559 71.9102 65.539 71.9102 66.687C71.9102 67.835 71.7142 68.822 71.3222 69.648C70.9302 70.474 70.3842 71.111 69.6842 71.559C68.9842 71.993 68.1652 72.21 67.2272 72.21C66.3452 72.21 65.5682 71.993 64.8962 71.559C64.2242 71.125 63.7762 70.544 63.5522 69.816H63.7832V76.536H61.1582ZM66.4922 70.194C67.3322 70.194 68.0042 69.907 68.5082 69.333C69.0122 68.745 69.2642 67.863 69.2642 66.687C69.2642 65.511 69.0122 64.636 68.5082 64.062C68.0042 63.488 67.3322 63.201 66.4922 63.201C65.6662 63.201 65.0012 63.488 64.4972 64.062C63.9932 64.636 63.7412 65.511 63.7412 66.687C63.7412 67.863 63.9932 68.745 64.4972 69.333C65.0012 69.907 65.6662 70.194 66.4922 70.194Z" fill="#343434"/>
<path d="M85.0185 72.21C83.9265 72.21 82.9815 71.986 82.1835 71.538C81.3855 71.09 80.7625 70.453 80.3145 69.627C79.8805 68.801 79.6635 67.821 79.6635 66.687C79.6635 65.553 79.8805 64.58 80.3145 63.768C80.7625 62.942 81.3855 62.305 82.1835 61.857C82.9815 61.409 83.9265 61.185 85.0185 61.185C86.1105 61.185 87.0555 61.409 87.8535 61.857C88.6655 62.305 89.2885 62.942 89.7225 63.768C90.1705 64.58 90.3945 65.553 90.3945 66.687C90.3945 67.821 90.1705 68.801 89.7225 69.627C89.2885 70.453 88.6655 71.09 87.8535 71.538C87.0555 71.986 86.1105 72.21 85.0185 72.21ZM85.0185 70.194C85.8445 70.194 86.5025 69.907 86.9925 69.333C87.4825 68.745 87.7275 67.863 87.7275 66.687C87.7275 65.511 87.4825 64.636 86.9925 64.062C86.5025 63.488 85.8445 63.201 85.0185 63.201C84.1925 63.201 83.5345 63.488 83.0445 64.062C82.5545 64.636 82.3095 65.511 82.3095 66.687C82.3095 67.863 82.5545 68.745 83.0445 69.333C83.5345 69.907 84.1925 70.194 85.0185 70.194Z" fill="#343434"/>
<path d="M92.8818 72V61.395H95.4858V65.553H100.274V61.395H102.878V72H100.274V67.569H95.4858V72H92.8818Z" fill="#343434"/>
<path d="M105.59 72.294L104.771 70.236C105.233 70.068 105.618 69.851 105.926 69.585C106.248 69.305 106.5 68.955 106.682 68.535C106.878 68.101 107.018 67.569 107.102 66.939C107.186 66.295 107.228 65.532 107.228 64.65V61.395H115.67V72H113.066V63.411H109.622V64.734C109.622 66.26 109.482 67.541 109.202 68.577C108.922 69.599 108.488 70.411 107.9 71.013C107.312 71.615 106.542 72.042 105.59 72.294Z" fill="#343434"/>
<path d="M122.839 72.21C121.915 72.21 121.103 71.993 120.403 71.559C119.703 71.111 119.157 70.474 118.765 69.648C118.373 68.822 118.177 67.835 118.177 66.687C118.177 65.539 118.373 64.559 118.765 63.747C119.157 62.921 119.703 62.291 120.403 61.857C121.103 61.409 121.915 61.185 122.839 61.185C123.735 61.185 124.519 61.409 125.191 61.857C125.877 62.291 126.332 62.879 126.556 63.621H126.325L126.556 61.395H129.076C129.034 61.829 128.992 62.27 128.95 62.718C128.922 63.166 128.908 63.607 128.908 64.041V72H126.304L126.283 69.816H126.535C126.311 70.544 125.856 71.125 125.17 71.559C124.484 71.993 123.707 72.21 122.839 72.21ZM123.574 70.194C124.4 70.194 125.065 69.907 125.569 69.333C126.073 68.745 126.325 67.863 126.325 66.687C126.325 65.511 126.073 64.636 125.569 64.062C125.065 63.488 124.4 63.201 123.574 63.201C122.748 63.201 122.083 63.488 121.579 64.062C121.075 64.636 120.823 65.511 120.823 66.687C120.823 67.863 121.068 68.745 121.558 69.333C122.062 69.907 122.734 70.194 123.574 70.194Z" fill="#343434"/>
<path d="M131.97 72V61.395H134.343V69.417H133.713L139.74 61.395H141.903V72H139.53V63.957H140.181L134.133 72H131.97ZM136.926 60.429C136.226 60.429 135.61 60.317 135.078 60.093C134.546 59.855 134.105 59.526 133.755 59.106C133.405 58.672 133.153 58.161 132.999 57.573L134.343 57.111C134.581 57.755 134.91 58.231 135.33 58.539C135.75 58.833 136.289 58.98 136.947 58.98C137.605 58.98 138.144 58.833 138.564 58.539C138.984 58.245 139.327 57.776 139.593 57.132L140.874 57.573C140.58 58.511 140.09 59.225 139.404 59.715C138.732 60.191 137.906 60.429 136.926 60.429Z" fill="#343434"/>
<path d="M144.89 72V61.395H147.494V65.553H152.282V61.395H154.886V72H152.282V67.569H147.494V72H144.89Z" fill="#343434"/>
<path d="M157.787 67.254V65.175H164.171V67.254H157.787Z" fill="#343434"/>
<path d="M170.985 72.21C170.033 72.21 169.137 72.098 168.297 71.874C167.471 71.65 166.778 71.328 166.218 70.908L166.953 69.186C167.471 69.564 168.073 69.851 168.759 70.047C169.459 70.243 170.194 70.341 170.964 70.341C171.86 70.341 172.511 70.222 172.917 69.984C173.337 69.732 173.547 69.368 173.547 68.892C173.547 68.444 173.386 68.108 173.064 67.884C172.742 67.646 172.266 67.527 171.636 67.527H168.885V65.721H171.384C171.958 65.721 172.399 65.609 172.707 65.385C173.015 65.161 173.169 64.846 173.169 64.44C173.169 64.006 172.98 63.663 172.602 63.411C172.238 63.159 171.636 63.033 170.796 63.033C170.068 63.033 169.403 63.124 168.801 63.306C168.199 63.474 167.632 63.726 167.1 64.062L166.386 62.424C166.96 62.018 167.653 61.71 168.465 61.5C169.291 61.29 170.187 61.185 171.153 61.185C172.567 61.185 173.652 61.444 174.408 61.962C175.164 62.48 175.542 63.215 175.542 64.167C175.542 64.811 175.318 65.364 174.87 65.826C174.436 66.288 173.848 66.575 173.106 66.687V66.393C173.974 66.449 174.66 66.708 175.164 67.17C175.668 67.632 175.92 68.255 175.92 69.039C175.92 70.005 175.493 70.775 174.639 71.349C173.785 71.923 172.567 72.21 170.985 72.21Z" fill="#343434"/>
<path d="M182.394 72.21C181.47 72.21 180.658 71.993 179.958 71.559C179.258 71.111 178.712 70.474 178.32 69.648C177.928 68.822 177.732 67.835 177.732 66.687C177.732 65.539 177.928 64.559 178.32 63.747C178.712 62.921 179.258 62.291 179.958 61.857C180.658 61.409 181.47 61.185 182.394 61.185C183.29 61.185 184.074 61.409 184.746 61.857C185.432 62.291 185.887 62.879 186.111 63.621H185.88L186.111 61.395H188.631C188.589 61.829 188.547 62.27 188.505 62.718C188.477 63.166 188.463 63.607 188.463 64.041V72H185.859L185.838 69.816H186.09C185.866 70.544 185.411 71.125 184.725 71.559C184.039 71.993 183.262 72.21 182.394 72.21ZM183.129 70.194C183.955 70.194 184.62 69.907 185.124 69.333C185.628 68.745 185.88 67.863 185.88 66.687C185.88 65.511 185.628 64.636 185.124 64.062C184.62 63.488 183.955 63.201 183.129 63.201C182.303 63.201 181.638 63.488 181.134 64.062C180.63 64.636 180.378 65.511 180.378 66.687C180.378 67.863 180.623 68.745 181.113 69.333C181.617 69.907 182.289 70.194 183.129 70.194Z" fill="#343434"/>
<path d="M191.608 76.536V64.041C191.608 63.607 191.594 63.166 191.566 62.718C191.538 62.27 191.496 61.829 191.44 61.395H193.981L194.212 63.621H193.981C194.191 62.879 194.632 62.291 195.304 61.857C195.99 61.409 196.781 61.185 197.677 61.185C198.615 61.185 199.434 61.409 200.134 61.857C200.834 62.291 201.38 62.921 201.772 63.747C202.164 64.559 202.36 65.539 202.36 66.687C202.36 67.835 202.164 68.822 201.772 69.648C201.38 70.474 200.834 71.111 200.134 71.559C199.434 71.993 198.615 72.21 197.677 72.21C196.795 72.21 196.018 71.993 195.346 71.559C194.674 71.125 194.226 70.544 194.002 69.816H194.233V76.536H191.608ZM196.942 70.194C197.782 70.194 198.454 69.907 198.958 69.333C199.462 68.745 199.714 67.863 199.714 66.687C199.714 65.511 199.462 64.636 198.958 64.062C198.454 63.488 197.782 63.201 196.942 63.201C196.116 63.201 195.451 63.488 194.947 64.062C194.443 64.636 194.191 65.511 194.191 66.687C194.191 67.863 194.443 68.745 194.947 69.333C195.451 69.907 196.116 70.194 196.942 70.194Z" fill="#343434"/>
<path d="M209.013 72.21C208.089 72.21 207.277 71.993 206.577 71.559C205.877 71.111 205.331 70.474 204.939 69.648C204.547 68.822 204.351 67.835 204.351 66.687C204.351 65.539 204.547 64.559 204.939 63.747C205.331 62.921 205.877 62.291 206.577 61.857C207.277 61.409 208.089 61.185 209.013 61.185C209.909 61.185 210.693 61.409 211.365 61.857C212.051 62.291 212.506 62.879 212.73 63.621H212.499L212.73 61.395H215.25C215.208 61.829 215.166 62.27 215.124 62.718C215.096 63.166 215.082 63.607 215.082 64.041V72H212.478L212.457 69.816H212.709C212.485 70.544 212.03 71.125 211.344 71.559C210.658 71.993 209.881 72.21 209.013 72.21ZM209.748 70.194C210.574 70.194 211.239 69.907 211.743 69.333C212.247 68.745 212.499 67.863 212.499 66.687C212.499 65.511 212.247 64.636 211.743 64.062C211.239 63.488 210.574 63.201 209.748 63.201C208.922 63.201 208.257 63.488 207.753 64.062C207.249 64.636 206.997 65.511 206.997 66.687C206.997 67.863 207.242 68.745 207.732 69.333C208.236 69.907 208.908 70.194 209.748 70.194Z" fill="#343434"/>
<path d="M223.121 72.21C221.455 72.21 220.125 71.706 219.131 70.698C218.151 69.69 217.661 68.213 217.661 66.267V64.461C217.661 62.459 218.116 60.849 219.026 59.631C219.936 58.413 221.308 57.608 223.142 57.216L227.027 56.334L227.741 58.392L223.373 59.358C222.645 59.512 222.043 59.806 221.567 60.24C221.091 60.66 220.734 61.164 220.496 61.752C220.258 62.34 220.139 62.97 220.139 63.642V64.755H219.782C219.936 64.125 220.195 63.579 220.559 63.117C220.923 62.641 221.385 62.27 221.945 62.004C222.505 61.738 223.142 61.605 223.856 61.605C224.752 61.605 225.536 61.815 226.208 62.235C226.894 62.641 227.433 63.236 227.825 64.02C228.217 64.79 228.413 65.714 228.413 66.792C228.413 67.898 228.189 68.857 227.741 69.669C227.307 70.481 226.691 71.111 225.893 71.559C225.109 71.993 224.185 72.21 223.121 72.21ZM223.037 70.215C223.905 70.215 224.577 69.942 225.053 69.396C225.543 68.836 225.788 68.003 225.788 66.897C225.788 65.819 225.543 65 225.053 64.44C224.563 63.866 223.891 63.579 223.037 63.579C222.183 63.579 221.511 63.859 221.021 64.419C220.531 64.979 220.286 65.777 220.286 66.813C220.286 67.947 220.531 68.801 221.021 69.375C221.511 69.935 222.183 70.215 223.037 70.215Z" fill="#343434"/>
<path d="M235.771 72.21C234.679 72.21 233.734 71.986 232.936 71.538C232.138 71.09 231.515 70.453 231.067 69.627C230.633 68.801 230.416 67.821 230.416 66.687C230.416 65.553 230.633 64.58 231.067 63.768C231.515 62.942 232.138 62.305 232.936 61.857C233.734 61.409 234.679 61.185 235.771 61.185C236.863 61.185 237.808 61.409 238.606 61.857C239.418 62.305 240.041 62.942 240.475 63.768C240.923 64.58 241.147 65.553 241.147 66.687C241.147 67.821 240.923 68.801 240.475 69.627C240.041 70.453 239.418 71.09 238.606 71.538C237.808 71.986 236.863 72.21 235.771 72.21ZM235.771 70.194C236.597 70.194 237.255 69.907 237.745 69.333C238.235 68.745 238.48 67.863 238.48 66.687C238.48 65.511 238.235 64.636 237.745 64.062C237.255 63.488 236.597 63.201 235.771 63.201C234.945 63.201 234.287 63.488 233.797 64.062C233.307 64.636 233.062 65.511 233.062 66.687C233.062 67.863 233.307 68.745 233.797 69.333C234.287 69.907 234.945 70.194 235.771 70.194Z" fill="#343434"/>
<path d="M245.924 72V63.453H242.291V61.395H252.182V63.453H248.528V72H245.924Z" fill="#343434"/>
<path d="M253.807 72V61.395H256.411V65.553H258.007L261.115 61.395H263.929L260.023 66.687L259.456 65.868C259.848 65.91 260.191 66.015 260.485 66.183C260.793 66.351 261.08 66.589 261.346 66.897C261.626 67.191 261.899 67.569 262.165 68.031L264.391 72H261.598L259.792 68.808C259.61 68.486 259.428 68.234 259.246 68.052C259.064 67.87 258.861 67.744 258.637 67.674C258.413 67.604 258.14 67.569 257.818 67.569H256.411V72H253.807Z" fill="#343434"/>
<path d="M269.962 72.21C269.038 72.21 268.226 71.993 267.526 71.559C266.826 71.111 266.28 70.474 265.888 69.648C265.496 68.822 265.3 67.835 265.3 66.687C265.3 65.539 265.496 64.559 265.888 63.747C266.28 62.921 266.826 62.291 267.526 61.857C268.226 61.409 269.038 61.185 269.962 61.185C270.858 61.185 271.642 61.409 272.314 61.857C273 62.291 273.455 62.879 273.679 63.621H273.448L273.679 61.395H276.199C276.157 61.829 276.115 62.27 276.073 62.718C276.045 63.166 276.031 63.607 276.031 64.041V72H273.427L273.406 69.816H273.658C273.434 70.544 272.979 71.125 272.293 71.559C271.607 71.993 270.83 72.21 269.962 72.21ZM270.697 70.194C271.523 70.194 272.188 69.907 272.692 69.333C273.196 68.745 273.448 67.863 273.448 66.687C273.448 65.511 273.196 64.636 272.692 64.062C272.188 63.488 271.523 63.201 270.697 63.201C269.871 63.201 269.206 63.488 268.702 64.062C268.198 64.636 267.946 65.511 267.946 66.687C267.946 67.863 268.191 68.745 268.681 69.333C269.185 69.907 269.857 70.194 270.697 70.194Z" fill="#343434"/>
<path d="M391 26C391 29.3137 388.314 32 385 32C381.686 32 379 29.3137 379 26C379 22.6863 381.686 20 385 20C388.314 20 391 22.6863 391 26Z" fill="#DBD3F0"/>
<defs>
<linearGradient id="paint0_linear_99_69" x1="205.5" y1="0" x2="205.5" y2="128" gradientUnits="userSpaceOnUse">
<stop stop-color="white"/>
<stop offset="1" stop-color="white" stop-opacity="0.8"/>
</linearGradient>
</defs>
</svg>
