<svg width="304" height="128" viewBox="0 0 304 128" fill="none" xmlns="http://www.w3.org/2000/svg">
<rect width="304" height="128" rx="16" fill="url(#paint0_linear_100_229)"/>
<path d="M33.404 41.0001V28.3101H38.966C40.346 28.3101 41.408 28.6041 42.152 29.1921C42.896 29.7681 43.268 30.5721 43.268 31.6041C43.268 32.3721 43.04 33.0201 42.584 33.5481C42.128 34.0761 41.498 34.4301 40.694 34.6101V34.3401C41.618 34.4721 42.332 34.8081 42.836 35.3481C43.352 35.8761 43.61 36.5781 43.61 37.4541C43.61 38.5821 43.22 39.4581 42.44 40.0821C41.66 40.6941 40.574 41.0001 39.182 41.0001H33.404ZM35.636 39.2361H38.912C39.692 39.2361 40.298 39.0921 40.73 38.8041C41.162 38.5041 41.378 38.0181 41.378 37.3461C41.378 36.6621 41.162 36.1761 40.73 35.8881C40.298 35.5881 39.692 35.4381 38.912 35.4381H35.636V39.2361ZM35.636 33.6921H38.57C39.398 33.6921 40.01 33.5421 40.406 33.2421C40.814 32.9301 41.018 32.4741 41.018 31.8741C41.018 31.2741 40.814 30.8241 40.406 30.5241C40.01 30.2121 39.398 30.0561 38.57 30.0561H35.636V33.6921Z" fill="#343434"/>
<path d="M44.8957 43.3401V39.2901H45.9397C46.2997 38.7261 46.5577 38.0661 46.7137 37.3101C46.8817 36.5421 46.9657 35.6061 46.9657 34.5021V31.9101H53.9677V39.2901H55.4437V43.3401H53.5357V41.0001H46.8037V43.3401H44.8957ZM47.9557 39.3081H51.8617V33.6021H48.8737V35.0061C48.8737 35.8101 48.7957 36.5961 48.6397 37.3641C48.4837 38.1321 48.2557 38.7801 47.9557 39.3081Z" fill="#343434"/>
<path d="M61.2723 41.1801C60.3363 41.1801 59.5263 40.9881 58.8423 40.6041C58.1583 40.2201 57.6243 39.6741 57.2403 38.9661C56.8683 38.2581 56.6823 37.4181 56.6823 36.4461C56.6823 35.4741 56.8683 34.6401 57.2403 33.9441C57.6243 33.2361 58.1583 32.6901 58.8423 32.3061C59.5263 31.9221 60.3363 31.7301 61.2723 31.7301C62.2083 31.7301 63.0183 31.9221 63.7023 32.3061C64.3983 32.6901 64.9323 33.2361 65.3043 33.9441C65.6883 34.6401 65.8803 35.4741 65.8803 36.4461C65.8803 37.4181 65.6883 38.2581 65.3043 38.9661C64.9323 39.6741 64.3983 40.2201 63.7023 40.6041C63.0183 40.9881 62.2083 41.1801 61.2723 41.1801ZM61.2723 39.4521C61.9803 39.4521 62.5443 39.2061 62.9643 38.7141C63.3843 38.2101 63.5943 37.4541 63.5943 36.4461C63.5943 35.4381 63.3843 34.6881 62.9643 34.1961C62.5443 33.7041 61.9803 33.4581 61.2723 33.4581C60.5643 33.4581 60.0003 33.7041 59.5803 34.1961C59.1603 34.6881 58.9503 35.4381 58.9503 36.4461C58.9503 37.4541 59.1603 38.2101 59.5803 38.7141C60.0003 39.2061 60.5643 39.4521 61.2723 39.4521Z" fill="#343434"/>
<path d="M66.5046 41.0001L70.7346 35.7981V36.8241L66.7386 31.9101H69.4026L72.0126 35.2761H71.2026L73.8126 31.9101H76.4586L72.4986 36.8241V35.7981L76.7106 41.0001H74.0286L71.2026 37.3821H72.0126L69.1686 41.0001H66.5046Z" fill="#343434"/>
<path d="M77.9791 41.0001V31.9101H80.2111V35.4741H84.3151V31.9101H86.5471V41.0001H84.3151V37.2021H80.2111V41.0001H77.9791Z" fill="#343434"/>
<path d="M93.2821 41.1801C92.3461 41.1801 91.5361 40.9881 90.8521 40.6041C90.1681 40.2201 89.6341 39.6741 89.2501 38.9661C88.8781 38.2581 88.6921 37.4181 88.6921 36.4461C88.6921 35.4741 88.8781 34.6401 89.2501 33.9441C89.6341 33.2361 90.1681 32.6901 90.8521 32.3061C91.5361 31.9221 92.3461 31.7301 93.2821 31.7301C94.2181 31.7301 95.0281 31.9221 95.7121 32.3061C96.4081 32.6901 96.9421 33.2361 97.3141 33.9441C97.6981 34.6401 97.8901 35.4741 97.8901 36.4461C97.8901 37.4181 97.6981 38.2581 97.3141 38.9661C96.9421 39.6741 96.4081 40.2201 95.7121 40.6041C95.0281 40.9881 94.2181 41.1801 93.2821 41.1801ZM93.2821 39.4521C93.9901 39.4521 94.5541 39.2061 94.9741 38.7141C95.3941 38.2101 95.6041 37.4541 95.6041 36.4461C95.6041 35.4381 95.3941 34.6881 94.9741 34.1961C94.5541 33.7041 93.9901 33.4581 93.2821 33.4581C92.5741 33.4581 92.0101 33.7041 91.5901 34.1961C91.1701 34.6881 90.9601 35.4381 90.9601 36.4461C90.9601 37.4541 91.1701 38.2101 91.5901 38.7141C92.0101 39.2061 92.5741 39.4521 93.2821 39.4521Z" fill="#343434"/>
<path d="M100.022 41.0001V31.9101H104.864C106.004 31.9101 106.838 32.1201 107.366 32.5401C107.894 32.9481 108.158 33.5301 108.158 34.2861C108.158 34.8621 107.966 35.3421 107.582 35.7261C107.198 36.1101 106.688 36.3501 106.052 36.4461V36.1941C106.832 36.2421 107.432 36.4701 107.852 36.8781C108.272 37.2861 108.482 37.8141 108.482 38.4621C108.482 39.2421 108.182 39.8601 107.582 40.3161C106.982 40.7721 106.13 41.0001 105.026 41.0001H100.022ZM102.11 39.6141H104.792C105.32 39.6141 105.722 39.5061 105.998 39.2901C106.286 39.0741 106.43 38.7561 106.43 38.3361C106.43 37.9161 106.286 37.5981 105.998 37.3821C105.722 37.1661 105.32 37.0581 104.792 37.0581H102.11V39.6141ZM102.11 35.6721H104.594C105.074 35.6721 105.446 35.5701 105.71 35.3661C105.974 35.1501 106.106 34.8501 106.106 34.4661C106.106 34.0821 105.974 33.7881 105.71 33.5841C105.446 33.3801 105.074 33.2781 104.594 33.2781H102.11V35.6721Z" fill="#343434"/>
<path d="M114.91 41.1801C113.386 41.1801 112.192 40.7601 111.328 39.9201C110.464 39.0801 110.032 37.9281 110.032 36.4641C110.032 35.5161 110.218 34.6881 110.59 33.9801C110.962 33.2721 111.478 32.7201 112.138 32.3241C112.81 31.9281 113.59 31.7301 114.478 31.7301C115.354 31.7301 116.086 31.9161 116.674 32.2881C117.262 32.6601 117.706 33.1821 118.006 33.8541C118.318 34.5261 118.474 35.3121 118.474 36.2121V36.8061H111.85V35.6181H116.872L116.566 35.8701C116.566 35.0301 116.386 34.3881 116.026 33.9441C115.678 33.5001 115.168 33.2781 114.496 33.2781C113.752 33.2781 113.176 33.5421 112.768 34.0701C112.372 34.5981 112.174 35.3361 112.174 36.2841V36.5181C112.174 37.5021 112.414 38.2401 112.894 38.7321C113.386 39.2121 114.076 39.4521 114.964 39.4521C115.48 39.4521 115.96 39.3861 116.404 39.2541C116.86 39.1101 117.292 38.8821 117.7 38.5701L118.366 40.0821C117.934 40.4301 117.418 40.7001 116.818 40.8921C116.218 41.0841 115.582 41.1801 114.91 41.1801Z" fill="#343434"/>
<path d="M120.553 41.0001V31.9101H122.785V35.4741H126.889V31.9101H129.121V41.0001H126.889V37.2021H122.785V41.0001H120.553Z" fill="#343434"/>
<path d="M131.68 41.0001V31.9101H133.714V38.7861H133.174L138.34 31.9101H140.194V41.0001H138.16V34.1061H138.718L133.534 41.0001H131.68Z" fill="#343434"/>
<path d="M147.219 41.1801C145.695 41.1801 144.501 40.7601 143.637 39.9201C142.773 39.0801 142.341 37.9281 142.341 36.4641C142.341 35.5161 142.527 34.6881 142.899 33.9801C143.271 33.2721 143.787 32.7201 144.447 32.3241C145.119 31.9281 145.899 31.7301 146.787 31.7301C147.663 31.7301 148.395 31.9161 148.983 32.2881C149.571 32.6601 150.015 33.1821 150.315 33.8541C150.627 34.5261 150.783 35.3121 150.783 36.2121V36.8061H144.159V35.6181H149.181L148.875 35.8701C148.875 35.0301 148.695 34.3881 148.335 33.9441C147.987 33.5001 147.477 33.2781 146.805 33.2781C146.061 33.2781 145.485 33.5421 145.077 34.0701C144.681 34.5981 144.483 35.3361 144.483 36.2841V36.5181C144.483 37.5021 144.723 38.2401 145.203 38.7321C145.695 39.2121 146.385 39.4521 147.273 39.4521C147.789 39.4521 148.269 39.3861 148.713 39.2541C149.169 39.1101 149.601 38.8821 150.009 38.5701L150.675 40.0821C150.243 40.4301 149.727 40.7001 149.127 40.8921C148.527 41.0841 147.891 41.1801 147.219 41.1801Z" fill="#343434"/>
<path d="M33.404 61.0001V51.9461H35.024V55.6901H39.812V51.9461H41.432V61.0001H39.812V56.9861H35.024V61.0001H33.404Z" fill="#343434"/>
<path d="M47.7421 61.1621C46.9501 61.1621 46.2541 60.9761 45.6541 60.6041C45.0541 60.2321 44.5861 59.6921 44.2501 58.9841C43.9141 58.2761 43.7461 57.4361 43.7461 56.4641C43.7461 55.4921 43.9141 54.6581 44.2501 53.9621C44.5861 53.2541 45.0541 52.7141 45.6541 52.3421C46.2541 51.9701 46.9501 51.7841 47.7421 51.7841C48.5461 51.7841 49.2421 51.9881 49.8301 52.3961C50.4301 52.7921 50.8261 53.3381 51.0181 54.0341H50.8021L51.0001 51.9461H52.5841C52.5481 52.3061 52.5121 52.6661 52.4761 53.0261C52.4521 53.3861 52.4401 53.7401 52.4401 54.0881V61.0001H50.8021V58.9301H51.0001C50.8081 59.6141 50.4121 60.1601 49.8121 60.5681C49.2241 60.9641 48.5341 61.1621 47.7421 61.1621ZM48.1201 59.8661C48.9361 59.8661 49.5901 59.5781 50.0821 59.0021C50.5741 58.4261 50.8201 57.5801 50.8201 56.4641C50.8201 55.3481 50.5741 54.5081 50.0821 53.9441C49.5901 53.3801 48.9361 53.0981 48.1201 53.0981C47.3041 53.0981 46.6441 53.3801 46.1401 53.9441C45.6481 54.5081 45.4021 55.3481 45.4021 56.4641C45.4021 57.5801 45.6481 58.4261 46.1401 59.0021C46.6321 59.5781 47.2921 59.8661 48.1201 59.8661Z" fill="#343434"/>
<path d="M60.07 61.0001V51.9461H68.044V61.0001H66.424V53.2241H61.69V61.0001H60.07Z" fill="#343434"/>
<path d="M70.8994 64.8881V54.0881C70.8994 53.7401 70.8874 53.3861 70.8634 53.0261C70.8394 52.6661 70.8034 52.3061 70.7554 51.9461H72.3394L72.5374 54.0341H72.3394C72.5194 53.3381 72.9034 52.7921 73.4914 52.3961C74.0794 51.9881 74.7814 51.7841 75.5974 51.7841C76.4014 51.7841 77.1034 51.9701 77.7034 52.3421C78.3034 52.7141 78.7654 53.2541 79.0894 53.9621C79.4254 54.6581 79.5934 55.4921 79.5934 56.4641C79.5934 57.4361 79.4254 58.2761 79.0894 58.9841C78.7654 59.6921 78.3034 60.2321 77.7034 60.6041C77.1034 60.9761 76.4014 61.1621 75.5974 61.1621C74.7934 61.1621 74.0974 60.9641 73.5094 60.5681C72.9334 60.1601 72.5434 59.6141 72.3394 58.9301H72.5374V64.8881H70.8994ZM75.2194 59.8661C76.0474 59.8661 76.7074 59.5781 77.1994 59.0021C77.6914 58.4261 77.9374 57.5801 77.9374 56.4641C77.9374 55.3481 77.6914 54.5081 77.1994 53.9441C76.7074 53.3801 76.0474 53.0981 75.2194 53.0981C74.3914 53.0981 73.7314 53.3801 73.2394 53.9441C72.7594 54.5081 72.5194 55.3481 72.5194 56.4641C72.5194 57.5801 72.7594 58.4261 73.2394 59.0021C73.7314 59.5781 74.3914 59.8661 75.2194 59.8661Z" fill="#343434"/>
<path d="M85.8072 61.1621C84.9192 61.1621 84.1512 60.9761 83.5032 60.6041C82.8552 60.2201 82.3512 59.6801 81.9912 58.9841C81.6312 58.2761 81.4512 57.4361 81.4512 56.4641C81.4512 55.5041 81.6312 54.6761 81.9912 53.9801C82.3512 53.2721 82.8552 52.7321 83.5032 52.3601C84.1512 51.9761 84.9192 51.7841 85.8072 51.7841C86.6952 51.7841 87.4632 51.9761 88.1112 52.3601C88.7712 52.7321 89.2752 53.2721 89.6232 53.9801C89.9832 54.6761 90.1632 55.5041 90.1632 56.4641C90.1632 57.4361 89.9832 58.2761 89.6232 58.9841C89.2752 59.6801 88.7712 60.2201 88.1112 60.6041C87.4632 60.9761 86.6952 61.1621 85.8072 61.1621ZM85.8072 59.8661C86.6232 59.8661 87.2772 59.5781 87.7692 59.0021C88.2612 58.4261 88.5072 57.5801 88.5072 56.4641C88.5072 55.3481 88.2612 54.5081 87.7692 53.9441C87.2772 53.3801 86.6232 53.0981 85.8072 53.0981C84.9792 53.0981 84.3192 53.3801 83.8272 53.9441C83.3472 54.5081 83.1072 55.3481 83.1072 56.4641C83.1072 57.5801 83.3472 58.4261 83.8272 59.0021C84.3192 59.5781 84.9792 59.8661 85.8072 59.8661Z" fill="#343434"/>
<path d="M97.7216 64.8881V59.0381H97.9016C97.7216 59.7221 97.4036 60.2501 96.9476 60.6221C96.5036 60.9821 95.9576 61.1621 95.3096 61.1621C94.6616 61.1621 94.0856 60.9701 93.5816 60.5861C93.0896 60.2021 92.7056 59.6621 92.4296 58.9661C92.1536 58.2581 92.0156 57.4241 92.0156 56.4641C92.0156 55.5041 92.1476 54.6761 92.4116 53.9801C92.6876 53.2721 93.0716 52.7321 93.5636 52.3601C94.0676 51.9761 94.6496 51.7841 95.3096 51.7841C95.9576 51.7841 96.5036 51.9701 96.9476 52.3421C97.4036 52.7021 97.7216 53.2181 97.9016 53.8901H97.7216V47.7521H99.3416V53.8901H99.1616C99.3536 53.2181 99.6716 52.7021 100.116 52.3421C100.56 51.9701 101.106 51.7841 101.754 51.7841C102.414 51.7841 102.99 51.9761 103.482 52.3601C103.986 52.7321 104.37 53.2721 104.634 53.9801C104.91 54.6761 105.048 55.5041 105.048 56.4641C105.048 57.4241 104.91 58.2581 104.634 58.9661C104.37 59.6621 103.992 60.2021 103.5 60.5861C103.008 60.9701 102.426 61.1621 101.754 61.1621C101.118 61.1621 100.572 60.9821 100.116 60.6221C99.6716 60.2501 99.3536 59.7221 99.1616 59.0381H99.3416V64.8881H97.7216ZM95.7056 59.8841C96.3416 59.8841 96.8396 59.5961 97.1996 59.0201C97.5716 58.4441 97.7576 57.5921 97.7576 56.4641C97.7576 55.3601 97.5716 54.5141 97.1996 53.9261C96.8276 53.3381 96.3296 53.0441 95.7056 53.0441C95.0696 53.0441 94.5656 53.3381 94.1936 53.9261C93.8336 54.5141 93.6536 55.3601 93.6536 56.4641C93.6536 57.5921 93.8336 58.4441 94.1936 59.0201C94.5656 59.5961 95.0696 59.8841 95.7056 59.8841ZM101.358 59.8841C101.994 59.8841 102.498 59.5961 102.87 59.0201C103.242 58.4441 103.428 57.5921 103.428 56.4641C103.428 55.3601 103.242 54.5141 102.87 53.9261C102.498 53.3381 101.994 53.0441 101.358 53.0441C100.722 53.0441 100.224 53.3381 99.8636 53.9261C99.5036 54.5141 99.3236 55.3601 99.3236 56.4641C99.3236 57.5921 99.5036 58.4441 99.8636 59.0201C100.224 59.5961 100.722 59.8841 101.358 59.8841Z" fill="#343434"/>
<path d="M111.549 61.1621C110.109 61.1621 108.969 60.7481 108.129 59.9201C107.301 59.0921 106.887 57.9521 106.887 56.5001C106.887 55.5401 107.067 54.7121 107.427 54.0161C107.799 53.3081 108.309 52.7621 108.957 52.3781C109.605 51.9821 110.361 51.7841 111.225 51.7841C112.053 51.7841 112.755 51.9641 113.331 52.3241C113.907 52.6721 114.345 53.1701 114.645 53.8181C114.945 54.4661 115.095 55.2341 115.095 56.1221V56.6621H108.165V55.6901H113.979L113.673 55.9241C113.673 54.9881 113.463 54.2621 113.043 53.7461C112.635 53.2301 112.029 52.9721 111.225 52.9721C110.349 52.9721 109.671 53.2781 109.191 53.8901C108.711 54.4901 108.471 55.3121 108.471 56.3561V56.5181C108.471 57.6221 108.741 58.4561 109.281 59.0201C109.833 59.5841 110.595 59.8661 111.567 59.8661C112.107 59.8661 112.611 59.7881 113.079 59.6321C113.547 59.4761 113.997 59.2181 114.429 58.8581L114.969 59.9921C114.561 60.3641 114.051 60.6521 113.439 60.8561C112.839 61.0601 112.209 61.1621 111.549 61.1621Z" fill="#343434"/>
<path d="M121.317 61.1621C120.417 61.1621 119.637 60.9761 118.977 60.6041C118.317 60.2201 117.801 59.6741 117.429 58.9661C117.069 58.2461 116.889 57.3941 116.889 56.4101C116.889 55.4381 117.075 54.6101 117.447 53.9261C117.819 53.2301 118.335 52.7021 118.995 52.3421C119.655 51.9701 120.429 51.7841 121.317 51.7841C121.905 51.7841 122.475 51.8861 123.027 52.0901C123.579 52.2821 124.029 52.5641 124.377 52.9361L123.819 54.0881C123.471 53.7521 123.087 53.5061 122.667 53.3501C122.247 53.1821 121.833 53.0981 121.425 53.0981C120.537 53.0981 119.841 53.3861 119.337 53.9621C118.833 54.5261 118.581 55.3481 118.581 56.4281C118.581 57.5201 118.833 58.3601 119.337 58.9481C119.841 59.5361 120.537 59.8301 121.425 59.8301C121.821 59.8301 122.229 59.7521 122.649 59.5961C123.069 59.4401 123.459 59.1941 123.819 58.8581L124.377 59.9921C124.017 60.3761 123.555 60.6701 122.991 60.8741C122.439 61.0661 121.881 61.1621 121.317 61.1621Z" fill="#343434"/>
<path d="M130.457 61.1621C129.557 61.1621 128.777 60.9761 128.117 60.6041C127.457 60.2201 126.941 59.6741 126.569 58.9661C126.209 58.2461 126.029 57.3941 126.029 56.4101C126.029 55.4381 126.215 54.6101 126.587 53.9261C126.959 53.2301 127.475 52.7021 128.135 52.3421C128.795 51.9701 129.569 51.7841 130.457 51.7841C131.045 51.7841 131.615 51.8861 132.167 52.0901C132.719 52.2821 133.169 52.5641 133.517 52.9361L132.959 54.0881C132.611 53.7521 132.227 53.5061 131.807 53.3501C131.387 53.1821 130.973 53.0981 130.565 53.0981C129.677 53.0981 128.981 53.3861 128.477 53.9621C127.973 54.5261 127.721 55.3481 127.721 56.4281C127.721 57.5201 127.973 58.3601 128.477 58.9481C128.981 59.5361 129.677 59.8301 130.565 59.8301C130.961 59.8301 131.369 59.7521 131.789 59.5961C132.209 59.4401 132.599 59.1941 132.959 58.8581L133.517 59.9921C133.157 60.3761 132.695 60.6701 132.131 60.8741C131.579 61.0661 131.021 61.1621 130.457 61.1621Z" fill="#343434"/>
<path d="M135.656 61.0001V51.9461H137.15V59.4521H136.664L142.28 51.9461H143.648V61.0001H142.154V53.4761H142.658L137.024 61.0001H135.656Z" fill="#343434"/>
<path d="M150.319 61.1621C149.431 61.1621 148.663 60.9761 148.015 60.6041C147.367 60.2201 146.863 59.6801 146.503 58.9841C146.143 58.2761 145.963 57.4361 145.963 56.4641C145.963 55.5041 146.143 54.6761 146.503 53.9801C146.863 53.2721 147.367 52.7321 148.015 52.3601C148.663 51.9761 149.431 51.7841 150.319 51.7841C151.207 51.7841 151.975 51.9761 152.623 52.3601C153.283 52.7321 153.787 53.2721 154.135 53.9801C154.495 54.6761 154.675 55.5041 154.675 56.4641C154.675 57.4361 154.495 58.2761 154.135 58.9841C153.787 59.6801 153.283 60.2201 152.623 60.6041C151.975 60.9761 151.207 61.1621 150.319 61.1621ZM150.319 59.8661C151.135 59.8661 151.789 59.5781 152.281 59.0021C152.773 58.4261 153.019 57.5801 153.019 56.4641C153.019 55.3481 152.773 54.5081 152.281 53.9441C151.789 53.3801 151.135 53.0981 150.319 53.0981C149.491 53.0981 148.831 53.3801 148.339 53.9441C147.859 54.5081 147.619 55.3481 147.619 56.4641C147.619 57.5801 147.859 58.4261 148.339 59.0021C148.831 59.5781 149.491 59.8661 150.319 59.8661Z" fill="#343434"/>
<path d="M157.013 61.0001V51.9461H158.633V55.6901H163.421V51.9461H165.041V61.0001H163.421V56.9861H158.633V61.0001H157.013Z" fill="#343434"/>
<path d="M171.351 61.1621C170.559 61.1621 169.863 60.9761 169.263 60.6041C168.663 60.2321 168.195 59.6921 167.859 58.9841C167.523 58.2761 167.355 57.4361 167.355 56.4641C167.355 55.4921 167.523 54.6581 167.859 53.9621C168.195 53.2541 168.663 52.7141 169.263 52.3421C169.863 51.9701 170.559 51.7841 171.351 51.7841C172.155 51.7841 172.851 51.9881 173.439 52.3961C174.039 52.7921 174.435 53.3381 174.627 54.0341H174.411L174.609 51.9461H176.193C176.157 52.3061 176.121 52.6661 176.085 53.0261C176.061 53.3861 176.049 53.7401 176.049 54.0881V61.0001H174.411V58.9301H174.609C174.417 59.6141 174.021 60.1601 173.421 60.5681C172.833 60.9641 172.143 61.1621 171.351 61.1621ZM171.729 59.8661C172.545 59.8661 173.199 59.5781 173.691 59.0021C174.183 58.4261 174.429 57.5801 174.429 56.4641C174.429 55.3481 174.183 54.5081 173.691 53.9441C173.199 53.3801 172.545 53.0981 171.729 53.0981C170.913 53.0981 170.253 53.3801 169.749 53.9441C169.257 54.5081 169.011 55.3481 169.011 56.4641C169.011 57.5801 169.257 58.4261 169.749 59.0021C170.241 59.5781 170.901 59.8661 171.729 59.8661Z" fill="#343434"/>
<path d="M178.501 61.2161L177.925 59.9381C178.345 59.7461 178.693 59.5181 178.969 59.2541C179.257 58.9781 179.479 58.6301 179.635 58.2101C179.803 57.7901 179.923 57.2681 179.995 56.6441C180.067 56.0201 180.103 55.2641 180.103 54.3761V51.9461H186.781V61.0001H185.161V53.2241H181.615V54.4121C181.615 55.8041 181.507 56.9561 181.291 57.8681C181.087 58.7681 180.757 59.4821 180.301 60.0101C179.857 60.5381 179.257 60.9401 178.501 61.2161Z" fill="#343434"/>
<path d="M189.586 61.0001V51.9461H191.206V55.1501H193.87C195.046 55.1501 195.928 55.4021 196.516 55.9061C197.116 56.3981 197.416 57.1121 197.416 58.0481C197.416 58.6481 197.278 59.1701 197.002 59.6141C196.726 60.0581 196.324 60.4001 195.796 60.6401C195.268 60.8801 194.626 61.0001 193.87 61.0001H189.586ZM191.206 59.8661H193.69C194.398 59.8661 194.938 59.7221 195.31 59.4341C195.682 59.1341 195.868 58.6781 195.868 58.0661C195.868 57.4541 195.682 57.0041 195.31 56.7161C194.95 56.4281 194.41 56.2841 193.69 56.2841H191.206V59.8661Z" fill="#343434"/>
<path d="M199.517 61.0001V51.9461H201.137V55.6901H205.925V51.9461H207.545V61.0001H205.925V56.9861H201.137V61.0001H199.517Z" fill="#343434"/>
<path d="M210.093 65.0861L209.715 63.7541C210.279 63.6221 210.747 63.4661 211.119 63.2861C211.491 63.1181 211.803 62.8961 212.055 62.6201C212.307 62.3441 212.529 61.9961 212.721 61.5761L213.171 60.4961L213.135 61.1801L209.193 51.9461H210.957L214.107 59.7041H213.639L216.789 51.9461H218.481L214.323 61.7021C214.071 62.2901 213.795 62.7821 213.495 63.1781C213.207 63.5741 212.889 63.8981 212.541 64.1501C212.205 64.4021 211.833 64.6001 211.425 64.7441C211.017 64.8881 210.573 65.0021 210.093 65.0861Z" fill="#343434"/>
<path d="M227.804 61.1621C226.568 61.1621 225.566 60.7961 224.798 60.0641C224.042 59.3201 223.61 58.2941 223.502 56.9861H221.738V61.0001H220.136V51.9461H221.738V55.6901H223.52C223.676 54.4661 224.132 53.5121 224.888 52.8281C225.644 52.1321 226.616 51.7841 227.804 51.7841C228.692 51.7841 229.46 51.9701 230.108 52.3421C230.768 52.7141 231.278 53.2541 231.638 53.9621C231.998 54.6581 232.178 55.4921 232.178 56.4641C232.178 57.4361 231.998 58.2761 231.638 58.9841C231.278 59.6801 230.768 60.2201 230.108 60.6041C229.46 60.9761 228.692 61.1621 227.804 61.1621ZM227.804 59.8661C228.632 59.8661 229.292 59.5841 229.784 59.0201C230.276 58.4441 230.522 57.5921 230.522 56.4641C230.522 55.3481 230.276 54.5081 229.784 53.9441C229.292 53.3681 228.632 53.0801 227.804 53.0801C226.976 53.0801 226.316 53.3681 225.824 53.9441C225.332 54.5081 225.086 55.3481 225.086 56.4641C225.086 57.5921 225.332 58.4441 225.824 59.0201C226.316 59.5841 226.976 59.8661 227.804 59.8661Z" fill="#343434"/>
<path d="M33.458 84.8881V74.0881C33.458 73.7401 33.446 73.3861 33.422 73.0261C33.398 72.6661 33.362 72.3061 33.314 71.9461H34.898L35.096 74.0341H34.898C35.078 73.3381 35.462 72.7921 36.05 72.3961C36.638 71.9881 37.34 71.7841 38.156 71.7841C38.96 71.7841 39.662 71.9701 40.262 72.3421C40.862 72.7141 41.324 73.2541 41.648 73.9621C41.984 74.6581 42.152 75.4921 42.152 76.4641C42.152 77.4361 41.984 78.2761 41.648 78.9841C41.324 79.6921 40.862 80.2321 40.262 80.6041C39.662 80.9761 38.96 81.1621 38.156 81.1621C37.352 81.1621 36.656 80.9641 36.068 80.5681C35.492 80.1601 35.102 79.6141 34.898 78.9301H35.096V84.8881H33.458ZM37.778 79.8661C38.606 79.8661 39.266 79.5781 39.758 79.0021C40.25 78.4261 40.496 77.5801 40.496 76.4641C40.496 75.3481 40.25 74.5081 39.758 73.9441C39.266 73.3801 38.606 73.0981 37.778 73.0981C36.95 73.0981 36.29 73.3801 35.798 73.9441C35.318 74.5081 35.078 75.3481 35.078 76.4641C35.078 77.5801 35.318 78.4261 35.798 79.0021C36.29 79.5781 36.95 79.8661 37.778 79.8661Z" fill="#343434"/>
<path d="M48.6718 81.1621C47.2318 81.1621 46.0918 80.7481 45.2518 79.9201C44.4238 79.0921 44.0098 77.9521 44.0098 76.5001C44.0098 75.5401 44.1898 74.7121 44.5498 74.0161C44.9218 73.3081 45.4318 72.7621 46.0798 72.3781C46.7278 71.9821 47.4838 71.7841 48.3478 71.7841C49.1758 71.7841 49.8778 71.9641 50.4538 72.3241C51.0298 72.6721 51.4678 73.1701 51.7678 73.8181C52.0678 74.4661 52.2178 75.2341 52.2178 76.1221V76.6621H45.2878V75.6901H51.1018L50.7958 75.9241C50.7958 74.9881 50.5858 74.2621 50.1658 73.7461C49.7578 73.2301 49.1518 72.9721 48.3478 72.9721C47.4718 72.9721 46.7938 73.2781 46.3138 73.8901C45.8338 74.4901 45.5938 75.3121 45.5938 76.3561V76.5181C45.5938 77.6221 45.8638 78.4561 46.4038 79.0201C46.9558 79.5841 47.7178 79.8661 48.6898 79.8661C49.2298 79.8661 49.7338 79.7881 50.2018 79.6321C50.6698 79.4761 51.1198 79.2181 51.5518 78.8581L52.0918 79.9921C51.6838 80.3641 51.1738 80.6521 50.5618 80.8561C49.9618 81.0601 49.3318 81.1621 48.6718 81.1621Z" fill="#343434"/>
<path d="M58.0077 81.1621C57.2157 81.1621 56.5197 80.9761 55.9197 80.6041C55.3197 80.2321 54.8517 79.6921 54.5157 78.9841C54.1797 78.2761 54.0117 77.4361 54.0117 76.4641C54.0117 75.4921 54.1797 74.6581 54.5157 73.9621C54.8517 73.2541 55.3197 72.7141 55.9197 72.3421C56.5197 71.9701 57.2157 71.7841 58.0077 71.7841C58.8117 71.7841 59.5077 71.9881 60.0957 72.3961C60.6957 72.7921 61.0917 73.3381 61.2837 74.0341H61.0677L61.2657 71.9461H62.8497C62.8137 72.3061 62.7777 72.6661 62.7417 73.0261C62.7177 73.3861 62.7057 73.7401 62.7057 74.0881V81.0001H61.0677V78.9301H61.2657C61.0737 79.6141 60.6777 80.1601 60.0777 80.5681C59.4897 80.9641 58.7997 81.1621 58.0077 81.1621ZM58.3857 79.8661C59.2017 79.8661 59.8557 79.5781 60.3477 79.0021C60.8397 78.4261 61.0857 77.5801 61.0857 76.4641C61.0857 75.3481 60.8397 74.5081 60.3477 73.9441C59.8557 73.3801 59.2017 73.0981 58.3857 73.0981C57.5697 73.0981 56.9097 73.3801 56.4057 73.9441C55.9137 74.5081 55.6677 75.3481 55.6677 76.4641C55.6677 77.5801 55.9137 78.4261 56.4057 79.0021C56.8977 79.5781 57.5577 79.8661 58.3857 79.8661Z" fill="#343434"/>
<path d="M65.1575 81.2161L64.5815 79.9381C65.0015 79.7461 65.3495 79.5181 65.6255 79.2541C65.9135 78.9781 66.1355 78.6301 66.2915 78.2101C66.4595 77.7901 66.5795 77.2681 66.6515 76.6441C66.7235 76.0201 66.7595 75.2641 66.7595 74.3761V71.9461H73.4375V81.0001H71.8175V73.2241H68.2715V74.4121C68.2715 75.8041 68.1635 76.9561 67.9475 77.8681C67.7435 78.7681 67.4135 79.4821 66.9575 80.0101C66.5135 80.5381 65.9135 80.9401 65.1575 81.2161Z" fill="#343434"/>
<path d="M76.2419 81.0001V71.9461H77.7359V79.4521H77.2499L82.8659 71.9461H84.2339V81.0001H82.7399V73.4761H83.2439L77.6099 81.0001H76.2419Z" fill="#343434"/>
<path d="M90.1128 81.1621C89.3208 81.1621 88.5828 81.0601 87.8988 80.8561C87.2148 80.6521 86.6508 80.3641 86.2068 79.9921L86.7468 78.8581C87.1908 79.2181 87.6948 79.4881 88.2588 79.6681C88.8228 79.8481 89.4348 79.9381 90.0948 79.9381C90.9588 79.9381 91.5828 79.8121 91.9668 79.5601C92.3628 79.2961 92.5608 78.9181 92.5608 78.4261C92.5608 77.9581 92.3988 77.6041 92.0748 77.3641C91.7508 77.1241 91.2768 77.0041 90.6528 77.0041H88.4568V75.8161H90.4548C91.0188 75.8161 91.4568 75.6961 91.7688 75.4561C92.0928 75.2041 92.2548 74.8621 92.2548 74.4301C92.2548 73.9861 92.0748 73.6381 91.7148 73.3861C91.3548 73.1221 90.8028 72.9901 90.0588 72.9901C89.4348 72.9901 88.8648 73.0741 88.3488 73.2421C87.8328 73.3981 87.3408 73.6381 86.8728 73.9621L86.3508 72.9001C86.8428 72.5161 87.4188 72.2341 88.0788 72.0541C88.7388 71.8741 89.4588 71.7841 90.2388 71.7841C91.3788 71.7841 92.2488 72.0061 92.8488 72.4501C93.4608 72.8821 93.7668 73.5001 93.7668 74.3041C93.7668 74.8681 93.5748 75.3541 93.1908 75.7621C92.8068 76.1581 92.2968 76.3981 91.6608 76.4821V76.2481C92.3808 76.2841 92.9628 76.5061 93.4068 76.9141C93.8508 77.3101 94.0728 77.8381 94.0728 78.4981C94.0728 79.3021 93.7368 79.9501 93.0648 80.4421C92.3928 80.9221 91.4088 81.1621 90.1128 81.1621Z" fill="#343434"/>
<path d="M99.7733 81.1621C98.9813 81.1621 98.2853 80.9761 97.6853 80.6041C97.0853 80.2321 96.6173 79.6921 96.2813 78.9841C95.9453 78.2761 95.7773 77.4361 95.7773 76.4641C95.7773 75.4921 95.9453 74.6581 96.2813 73.9621C96.6173 73.2541 97.0853 72.7141 97.6853 72.3421C98.2853 71.9701 98.9813 71.7841 99.7733 71.7841C100.577 71.7841 101.273 71.9881 101.861 72.3961C102.461 72.7921 102.857 73.3381 103.049 74.0341H102.833L103.031 71.9461H104.615C104.579 72.3061 104.543 72.6661 104.507 73.0261C104.483 73.3861 104.471 73.7401 104.471 74.0881V81.0001H102.833V78.9301H103.031C102.839 79.6141 102.443 80.1601 101.843 80.5681C101.255 80.9641 100.565 81.1621 99.7733 81.1621ZM100.151 79.8661C100.967 79.8661 101.621 79.5781 102.113 79.0021C102.605 78.4261 102.851 77.5801 102.851 76.4641C102.851 75.3481 102.605 74.5081 102.113 73.9441C101.621 73.3801 100.967 73.0981 100.151 73.0981C99.3353 73.0981 98.6753 73.3801 98.1713 73.9441C97.6793 74.5081 97.4333 75.3481 97.4333 76.4641C97.4333 77.5801 97.6793 78.4261 98.1713 79.0021C98.6633 79.5781 99.3233 79.8661 100.151 79.8661Z" fill="#343434"/>
<path d="M115.185 83.3401V81.0001H107.355V71.9461H108.975V79.7221H113.511V71.9461H115.131V79.7221H116.571V83.3401H115.185Z" fill="#343434"/>
<path d="M118.447 81.0001V71.9461H119.941V79.4521H119.455L125.071 71.9461H126.439V81.0001H124.945V73.4761H125.449L119.815 81.0001H118.447Z" fill="#343434"/>
<path d="M136.908 81.1621C135.672 81.1621 134.67 80.7961 133.902 80.0641C133.146 79.3201 132.714 78.2941 132.606 76.9861H130.842V81.0001H129.24V71.9461H130.842V75.6901H132.624C132.78 74.4661 133.236 73.5121 133.992 72.8281C134.748 72.1321 135.72 71.7841 136.908 71.7841C137.796 71.7841 138.564 71.9701 139.212 72.3421C139.872 72.7141 140.382 73.2541 140.742 73.9621C141.102 74.6581 141.282 75.4921 141.282 76.4641C141.282 77.4361 141.102 78.2761 140.742 78.9841C140.382 79.6801 139.872 80.2201 139.212 80.6041C138.564 80.9761 137.796 81.1621 136.908 81.1621ZM136.908 79.8661C137.736 79.8661 138.396 79.5841 138.888 79.0201C139.38 78.4441 139.626 77.5921 139.626 76.4641C139.626 75.3481 139.38 74.5081 138.888 73.9441C138.396 73.3681 137.736 73.0801 136.908 73.0801C136.08 73.0801 135.42 73.3681 134.928 73.9441C134.436 74.5081 134.19 75.3481 134.19 76.4641C134.19 77.5921 134.436 78.4441 134.928 79.0201C135.42 79.5841 136.08 79.8661 136.908 79.8661Z" fill="#343434"/>
<path d="M148.347 81.0001V71.9461H152.811C153.879 71.9461 154.671 72.1501 155.187 72.5581C155.715 72.9661 155.979 73.5541 155.979 74.3221C155.979 74.8981 155.781 75.3841 155.385 75.7801C154.989 76.1641 154.473 76.3981 153.837 76.4821V76.2481C154.593 76.2721 155.187 76.4941 155.619 76.9141C156.063 77.3221 156.285 77.8501 156.285 78.4981C156.285 79.2661 155.991 79.8781 155.403 80.3341C154.827 80.7781 154.017 81.0001 152.973 81.0001H148.347ZM149.895 79.9201H152.865C153.477 79.9201 153.945 79.7941 154.269 79.5421C154.593 79.2781 154.755 78.9061 154.755 78.4261C154.755 77.9341 154.593 77.5621 154.269 77.3101C153.945 77.0581 153.477 76.9321 152.865 76.9321H149.895V79.9201ZM149.895 75.8521H152.667C153.231 75.8521 153.669 75.7261 153.981 75.4741C154.293 75.2221 154.449 74.8741 154.449 74.4301C154.449 73.9741 154.293 73.6261 153.981 73.3861C153.669 73.1461 153.231 73.0261 152.667 73.0261H149.895V75.8521Z" fill="#343434"/>
<path d="M167.106 81.1621C166.218 81.1621 165.45 80.9761 164.802 80.6041C164.154 80.2201 163.65 79.6801 163.29 78.9841C162.93 78.2761 162.75 77.4361 162.75 76.4641C162.75 75.5041 162.93 74.6761 163.29 73.9801C163.65 73.2721 164.154 72.7321 164.802 72.3601C165.45 71.9761 166.218 71.7841 167.106 71.7841C167.994 71.7841 168.762 71.9761 169.41 72.3601C170.07 72.7321 170.574 73.2721 170.922 73.9801C171.282 74.6761 171.462 75.5041 171.462 76.4641C171.462 77.4361 171.282 78.2761 170.922 78.9841C170.574 79.6801 170.07 80.2201 169.41 80.6041C168.762 80.9761 167.994 81.1621 167.106 81.1621ZM167.106 79.8661C167.922 79.8661 168.576 79.5781 169.068 79.0021C169.56 78.4261 169.806 77.5801 169.806 76.4641C169.806 75.3481 169.56 74.5081 169.068 73.9441C168.576 73.3801 167.922 73.0981 167.106 73.0981C166.278 73.0981 165.618 73.3801 165.126 73.9441C164.646 74.5081 164.406 75.3481 164.406 76.4641C164.406 77.5801 164.646 78.4261 165.126 79.0021C165.618 79.5781 166.278 79.8661 167.106 79.8661Z" fill="#343434"/>
<path d="M173.8 81.0001V71.9461H175.42V75.6901H180.208V71.9461H181.828V81.0001H180.208V76.9861H175.42V81.0001H173.8Z" fill="#343434"/>
<path d="M184.197 81.2161L183.621 79.9381C184.041 79.7461 184.389 79.5181 184.665 79.2541C184.953 78.9781 185.175 78.6301 185.331 78.2101C185.499 77.7901 185.619 77.2681 185.691 76.6441C185.763 76.0201 185.799 75.2641 185.799 74.3761V71.9461H192.477V81.0001H190.857V73.2241H187.311V74.4121C187.311 75.8041 187.203 76.9561 186.987 77.8681C186.783 78.7681 186.453 79.4821 185.997 80.0101C185.553 80.5381 184.953 80.9401 184.197 81.2161Z" fill="#343434"/>
<path d="M198.791 81.1621C197.999 81.1621 197.303 80.9761 196.703 80.6041C196.103 80.2321 195.635 79.6921 195.299 78.9841C194.963 78.2761 194.795 77.4361 194.795 76.4641C194.795 75.4921 194.963 74.6581 195.299 73.9621C195.635 73.2541 196.103 72.7141 196.703 72.3421C197.303 71.9701 197.999 71.7841 198.791 71.7841C199.595 71.7841 200.291 71.9881 200.879 72.3961C201.479 72.7921 201.875 73.3381 202.067 74.0341H201.851L202.049 71.9461H203.633C203.597 72.3061 203.561 72.6661 203.525 73.0261C203.501 73.3861 203.489 73.7401 203.489 74.0881V81.0001H201.851V78.9301H202.049C201.857 79.6141 201.461 80.1601 200.861 80.5681C200.273 80.9641 199.583 81.1621 198.791 81.1621ZM199.169 79.8661C199.985 79.8661 200.639 79.5781 201.131 79.0021C201.623 78.4261 201.869 77.5801 201.869 76.4641C201.869 75.3481 201.623 74.5081 201.131 73.9441C200.639 73.3801 199.985 73.0981 199.169 73.0981C198.353 73.0981 197.693 73.3801 197.189 73.9441C196.697 74.5081 196.451 75.3481 196.451 76.4641C196.451 77.5801 196.697 78.4261 197.189 79.0021C197.681 79.5781 198.341 79.8661 199.169 79.8661Z" fill="#343434"/>
<path d="M206.373 81.0001V71.9461H207.867V79.4521H207.381L212.997 71.9461H214.365V81.0001H212.871V73.4761H213.375L207.741 81.0001H206.373ZM210.369 71.1181C209.853 71.1181 209.379 71.0281 208.947 70.8481C208.515 70.6681 208.143 70.4101 207.831 70.0741C207.531 69.7261 207.303 69.2941 207.147 68.7781L208.083 68.4361C208.299 69.0121 208.593 69.4381 208.965 69.7141C209.337 69.9781 209.805 70.1101 210.369 70.1101C210.945 70.1101 211.419 69.9841 211.791 69.7321C212.163 69.4801 212.487 69.0541 212.763 68.4541L213.645 68.7781C213.345 69.5941 212.907 70.1881 212.331 70.5601C211.767 70.9321 211.113 71.1181 210.369 71.1181Z" fill="#343434"/>
<path d="M217.166 81.0001V71.9461H218.786V75.6901H223.574V71.9461H225.194V81.0001H223.574V76.9861H218.786V81.0001H217.166Z" fill="#343434"/>
<path d="M232.17 81.1621C230.73 81.1621 229.59 80.7481 228.75 79.9201C227.922 79.0921 227.508 77.9521 227.508 76.5001C227.508 75.5401 227.688 74.7121 228.048 74.0161C228.42 73.3081 228.93 72.7621 229.578 72.3781C230.226 71.9821 230.982 71.7841 231.846 71.7841C232.674 71.7841 233.376 71.9641 233.952 72.3241C234.528 72.6721 234.966 73.1701 235.266 73.8181C235.566 74.4661 235.716 75.2341 235.716 76.1221V76.6621H228.786V75.6901H234.6L234.294 75.9241C234.294 74.9881 234.084 74.2621 233.664 73.7461C233.256 73.2301 232.65 72.9721 231.846 72.9721C230.97 72.9721 230.292 73.2781 229.812 73.8901C229.332 74.4901 229.092 75.3121 229.092 76.3561V76.5181C229.092 77.6221 229.362 78.4561 229.902 79.0201C230.454 79.5841 231.216 79.8661 232.188 79.8661C232.728 79.8661 233.232 79.7881 233.7 79.6321C234.168 79.4761 234.618 79.2181 235.05 78.8581L235.59 79.9921C235.182 80.3641 234.672 80.6521 234.06 80.8561C233.46 81.0601 232.83 81.1621 232.17 81.1621Z" fill="#343434"/>
<path d="M288 22C288 25.3137 285.314 28 282 28C278.686 28 276 25.3137 276 22C276 18.6863 278.686 16 282 16C285.314 16 288 18.6863 288 22Z" fill="#DEF0D3"/>
<defs>
<linearGradient id="paint0_linear_100_229" x1="152" y1="0" x2="152" y2="128" gradientUnits="userSpaceOnUse">
<stop stop-color="white"/>
<stop offset="1" stop-color="white" stop-opacity="0.8"/>
</linearGradient>
</defs>
</svg>
