<svg width="304" height="128" viewBox="0 0 304 128" fill="none" xmlns="http://www.w3.org/2000/svg">
<rect width="304" height="128" rx="16" fill="url(#paint0_linear_100_226)"/>
<path d="M33.548 41.0001V28.3101H44.258V41.0001H42.602V29.7141H35.204V41.0001H33.548Z" fill="#343434"/>
<path d="M51.0729 41.1621C50.1849 41.1621 49.4169 40.9761 48.7689 40.6041C48.1209 40.2201 47.6169 39.6801 47.2569 38.9841C46.8969 38.2761 46.7169 37.4361 46.7169 36.4641C46.7169 35.5041 46.8969 34.6761 47.2569 33.9801C47.6169 33.2721 48.1209 32.7321 48.7689 32.3601C49.4169 31.9761 50.1849 31.7841 51.0729 31.7841C51.9609 31.7841 52.7289 31.9761 53.3769 32.3601C54.0369 32.7321 54.5409 33.2721 54.8889 33.9801C55.2489 34.6761 55.4289 35.5041 55.4289 36.4641C55.4289 37.4361 55.2489 38.2761 54.8889 38.9841C54.5409 39.6801 54.0369 40.2201 53.3769 40.6041C52.7289 40.9761 51.9609 41.1621 51.0729 41.1621ZM51.0729 39.8661C51.8889 39.8661 52.5429 39.5781 53.0349 39.0021C53.5269 38.4261 53.7729 37.5801 53.7729 36.4641C53.7729 35.3481 53.5269 34.5081 53.0349 33.9441C52.5429 33.3801 51.8889 33.0981 51.0729 33.0981C50.2449 33.0981 49.5849 33.3801 49.0929 33.9441C48.6129 34.5081 48.3729 35.3481 48.3729 36.4641C48.3729 37.5801 48.6129 38.4261 49.0929 39.0021C49.5849 39.5781 50.2449 39.8661 51.0729 39.8661Z" fill="#343434"/>
<path d="M57.7673 41.0001V31.9461H59.3873V35.6901H64.1753V31.9461H65.7953V41.0001H64.1753V36.9861H59.3873V41.0001H57.7673Z" fill="#343434"/>
<path d="M68.5954 41.0001V31.9461H70.0894V39.4521H69.6034L75.2194 31.9461H76.5874V41.0001H75.0934V33.4761H75.5974L69.9634 41.0001H68.5954Z" fill="#343434"/>
<path d="M79.3884 41.0001V31.9461H80.7564L84.0864 37.8681L87.4344 31.9461H88.7844V41.0001H87.3444V33.7821H87.7404L84.5004 39.5421H83.6904L80.4504 33.7641H80.8284V41.0001H79.3884Z" fill="#343434"/>
<path d="M95.0976 41.1621C94.3056 41.1621 93.6096 40.9761 93.0096 40.6041C92.4096 40.2321 91.9416 39.6921 91.6056 38.9841C91.2696 38.2761 91.1016 37.4361 91.1016 36.4641C91.1016 35.4921 91.2696 34.6581 91.6056 33.9621C91.9416 33.2541 92.4096 32.7141 93.0096 32.3421C93.6096 31.9701 94.3056 31.7841 95.0976 31.7841C95.9016 31.7841 96.5976 31.9881 97.1856 32.3961C97.7856 32.7921 98.1816 33.3381 98.3736 34.0341H98.1576L98.3556 31.9461H99.9396C99.9036 32.3061 99.8676 32.6661 99.8316 33.0261C99.8076 33.3861 99.7956 33.7401 99.7956 34.0881V41.0001H98.1576V38.9301H98.3556C98.1636 39.6141 97.7676 40.1601 97.1676 40.5681C96.5796 40.9641 95.8896 41.1621 95.0976 41.1621ZM95.4756 39.8661C96.2916 39.8661 96.9456 39.5781 97.4376 39.0021C97.9296 38.4261 98.1756 37.5801 98.1756 36.4641C98.1756 35.3481 97.9296 34.5081 97.4376 33.9441C96.9456 33.3801 96.2916 33.0981 95.4756 33.0981C94.6596 33.0981 93.9996 33.3801 93.4956 33.9441C93.0036 34.5081 92.7576 35.3481 92.7576 36.4641C92.7576 37.5801 93.0036 38.4261 93.4956 39.0021C93.9876 39.5781 94.6476 39.8661 95.4756 39.8661Z" fill="#343434"/>
<path d="M102.679 41.0001V31.9461H104.299V35.6901H109.087V31.9461H110.707V41.0001H109.087V36.9861H104.299V41.0001H102.679Z" fill="#343434"/>
<path d="M113.508 41.0001V31.9461H115.002V39.4521H114.516L120.132 31.9461H121.5V41.0001H120.006V33.4761H120.51L114.876 41.0001H113.508Z" fill="#343434"/>
<path d="M128.477 41.1621C127.037 41.1621 125.897 40.7481 125.057 39.9201C124.229 39.0921 123.815 37.9521 123.815 36.5001C123.815 35.5401 123.995 34.7121 124.355 34.0161C124.727 33.3081 125.237 32.7621 125.885 32.3781C126.533 31.9821 127.289 31.7841 128.153 31.7841C128.981 31.7841 129.683 31.9641 130.259 32.3241C130.835 32.6721 131.273 33.1701 131.573 33.8181C131.873 34.4661 132.023 35.2341 132.023 36.1221V36.6621H125.093V35.6901H130.907L130.601 35.9241C130.601 34.9881 130.391 34.2621 129.971 33.7461C129.563 33.2301 128.957 32.9721 128.153 32.9721C127.277 32.9721 126.599 33.2781 126.119 33.8901C125.639 34.4901 125.399 35.3121 125.399 36.3561V36.5181C125.399 37.6221 125.669 38.4561 126.209 39.0201C126.761 39.5841 127.523 39.8661 128.495 39.8661C129.035 39.8661 129.539 39.7881 130.007 39.6321C130.475 39.4761 130.925 39.2181 131.357 38.8581L131.897 39.9921C131.489 40.3641 130.979 40.6521 130.367 40.8561C129.767 41.0601 129.137 41.1621 128.477 41.1621Z" fill="#343434"/>
<path d="M140.993 41.0001V33.2601H137.735V31.9461H145.871V33.2601H142.613V41.0001H140.993Z" fill="#343434"/>
<path d="M151.18 41.1621C150.292 41.1621 149.524 40.9761 148.876 40.6041C148.228 40.2201 147.724 39.6801 147.364 38.9841C147.004 38.2761 146.824 37.4361 146.824 36.4641C146.824 35.5041 147.004 34.6761 147.364 33.9801C147.724 33.2721 148.228 32.7321 148.876 32.3601C149.524 31.9761 150.292 31.7841 151.18 31.7841C152.068 31.7841 152.836 31.9761 153.484 32.3601C154.144 32.7321 154.648 33.2721 154.996 33.9801C155.356 34.6761 155.536 35.5041 155.536 36.4641C155.536 37.4361 155.356 38.2761 154.996 38.9841C154.648 39.6801 154.144 40.2201 153.484 40.6041C152.836 40.9761 152.068 41.1621 151.18 41.1621ZM151.18 39.8661C151.996 39.8661 152.65 39.5781 153.142 39.0021C153.634 38.4261 153.88 37.5801 153.88 36.4641C153.88 35.3481 153.634 34.5081 153.142 33.9441C152.65 33.3801 151.996 33.0981 151.18 33.0981C150.352 33.0981 149.692 33.3801 149.2 33.9441C148.72 34.5081 148.48 35.3481 148.48 36.4641C148.48 37.5801 148.72 38.4261 149.2 39.0021C149.692 39.5781 150.352 39.8661 151.18 39.8661Z" fill="#343434"/>
<path d="M157.875 41.0001V31.9461H164.301V33.2601H159.513V41.0001H157.875Z" fill="#343434"/>
<path d="M169.848 41.1621C168.96 41.1621 168.192 40.9761 167.544 40.6041C166.896 40.2201 166.392 39.6801 166.032 38.9841C165.672 38.2761 165.492 37.4361 165.492 36.4641C165.492 35.5041 165.672 34.6761 166.032 33.9801C166.392 33.2721 166.896 32.7321 167.544 32.3601C168.192 31.9761 168.96 31.7841 169.848 31.7841C170.736 31.7841 171.504 31.9761 172.152 32.3601C172.812 32.7321 173.316 33.2721 173.664 33.9801C174.024 34.6761 174.204 35.5041 174.204 36.4641C174.204 37.4361 174.024 38.2761 173.664 38.9841C173.316 39.6801 172.812 40.2201 172.152 40.6041C171.504 40.9761 170.736 41.1621 169.848 41.1621ZM169.848 39.8661C170.664 39.8661 171.318 39.5781 171.81 39.0021C172.302 38.4261 172.548 37.5801 172.548 36.4641C172.548 35.3481 172.302 34.5081 171.81 33.9441C171.318 33.3801 170.664 33.0981 169.848 33.0981C169.02 33.0981 168.36 33.3801 167.868 33.9441C167.388 34.5081 167.148 35.3481 167.148 36.4641C167.148 37.5801 167.388 38.4261 167.868 39.0021C168.36 39.5781 169.02 39.8661 169.848 39.8661Z" fill="#343434"/>
<path d="M176.766 43.1421L176.028 42.5661C176.364 42.2181 176.592 41.8881 176.712 41.5761C176.832 41.2761 176.892 40.9641 176.892 40.6401L177.252 41.0001H175.938V39.0021H177.936V40.3881C177.936 40.9041 177.852 41.3781 177.684 41.8101C177.516 42.2541 177.21 42.6981 176.766 43.1421Z" fill="#343434"/>
<path d="M33.278 61.0001V51.9101H35.51V55.4741H36.878L39.542 51.9101H41.954L38.606 56.4461L38.12 55.7441C38.456 55.7801 38.75 55.8701 39.002 56.0141C39.266 56.1581 39.512 56.3621 39.74 56.6261C39.98 56.8781 40.214 57.2021 40.442 57.5981L42.35 61.0001H39.956L38.408 58.2641C38.252 57.9881 38.096 57.7721 37.94 57.6161C37.784 57.4601 37.61 57.3521 37.418 57.2921C37.226 57.2321 36.992 57.2021 36.716 57.2021H35.51V61.0001H33.278Z" fill="#343434"/>
<path d="M47.1257 61.1801C46.3337 61.1801 45.6377 60.9941 45.0377 60.6221C44.4377 60.2381 43.9697 59.6921 43.6337 58.9841C43.2977 58.2761 43.1297 57.4301 43.1297 56.4461C43.1297 55.4621 43.2977 54.6221 43.6337 53.9261C43.9697 53.2181 44.4377 52.6781 45.0377 52.3061C45.6377 51.9221 46.3337 51.7301 47.1257 51.7301C47.8937 51.7301 48.5657 51.9221 49.1417 52.3061C49.7297 52.6781 50.1197 53.1821 50.3117 53.8181H50.1137L50.3117 51.9101H52.4717C52.4357 52.2821 52.3997 52.6601 52.3637 53.0441C52.3397 53.4281 52.3277 53.8061 52.3277 54.1781V61.0001H50.0957L50.0777 59.1281H50.2937C50.1017 59.7521 49.7117 60.2501 49.1237 60.6221C48.5357 60.9941 47.8697 61.1801 47.1257 61.1801ZM47.7557 59.4521C48.4637 59.4521 49.0337 59.2061 49.4657 58.7141C49.8977 58.2101 50.1137 57.4541 50.1137 56.4461C50.1137 55.4381 49.8977 54.6881 49.4657 54.1961C49.0337 53.7041 48.4637 53.4581 47.7557 53.4581C47.0477 53.4581 46.4777 53.7041 46.0457 54.1961C45.6137 54.6881 45.3977 55.4381 45.3977 56.4461C45.3977 57.4541 45.6077 58.2101 46.0277 58.7141C46.4597 59.2061 47.0357 59.4521 47.7557 59.4521Z" fill="#343434"/>
<path d="M54.9519 61.0001V51.9101H57.1839V55.4741H58.5519L61.2159 51.9101H63.6279L60.2799 56.4461L59.7939 55.7441C60.1299 55.7801 60.4239 55.8701 60.6759 56.0141C60.9399 56.1581 61.1859 56.3621 61.4139 56.6261C61.6539 56.8781 61.8879 57.2021 62.1159 57.5981L64.0239 61.0001H61.6299L60.0819 58.2641C59.9259 57.9881 59.7699 57.7721 59.6139 57.6161C59.4579 57.4601 59.2839 57.3521 59.0919 57.2921C58.8999 57.2321 58.6659 57.2021 58.3899 57.2021H57.1839V61.0001H54.9519Z" fill="#343434"/>
<path d="M70.0489 65.0861L69.5269 63.3041C70.0909 63.1841 70.5649 63.0461 70.9489 62.8901C71.3329 62.7341 71.6509 62.5301 71.9029 62.2781C72.1549 62.0261 72.3649 61.7021 72.5329 61.3061L72.9829 60.2441L72.9289 61.1261L68.9689 51.9101H71.3629L74.2069 59.0021H73.6849L76.5469 51.9101H78.8149L74.6749 61.5041C74.3989 62.1521 74.0989 62.6861 73.7749 63.1061C73.4509 63.5381 73.1029 63.8801 72.7309 64.1321C72.3589 64.3961 71.9509 64.6001 71.5069 64.7441C71.0629 64.8881 70.5769 65.0021 70.0489 65.0861Z" fill="#343434"/>
<path d="M84.2839 61.1801C83.3479 61.1801 82.5259 60.9881 81.8179 60.6041C81.1219 60.2201 80.5818 59.6741 80.1978 58.9661C79.8138 58.2461 79.6218 57.3941 79.6218 56.4101C79.6218 55.4261 79.8138 54.5861 80.1978 53.8901C80.5938 53.1941 81.1398 52.6601 81.8358 52.2881C82.5318 51.9161 83.3479 51.7301 84.2839 51.7301C84.8839 51.7301 85.4659 51.8261 86.0299 52.0181C86.6059 52.1981 87.0738 52.4621 87.4338 52.8101L86.7499 54.3761C86.4259 54.0761 86.0599 53.8541 85.6519 53.7101C85.2559 53.5541 84.8658 53.4761 84.4818 53.4761C83.6778 53.4761 83.0479 53.7281 82.5919 54.2321C82.1479 54.7361 81.9258 55.4681 81.9258 56.4281C81.9258 57.3881 82.1479 58.1261 82.5919 58.6421C83.0479 59.1581 83.6778 59.4161 84.4818 59.4161C84.8538 59.4161 85.2378 59.3441 85.6339 59.2001C86.0418 59.0561 86.4139 58.8341 86.7499 58.5341L87.4338 60.0821C87.0618 60.4301 86.5879 60.7001 86.0119 60.8921C85.4479 61.0841 84.8719 61.1801 84.2839 61.1801Z" fill="#343434"/>
<path d="M91.3143 61.0001V53.6741H88.2003V51.9101H96.6783V53.6741H93.5463V61.0001H91.3143Z" fill="#343434"/>
<path d="M98.143 64.8881V54.1781C98.143 53.8061 98.131 53.4281 98.107 53.0441C98.083 52.6601 98.047 52.2821 97.999 51.9101H100.177L100.375 53.8181H100.177C100.357 53.1821 100.735 52.6781 101.311 52.3061C101.899 51.9221 102.577 51.7301 103.345 51.7301C104.149 51.7301 104.851 51.9221 105.451 52.3061C106.051 52.6781 106.519 53.2181 106.855 53.9261C107.191 54.6221 107.359 55.4621 107.359 56.4461C107.359 57.4301 107.191 58.2761 106.855 58.9841C106.519 59.6921 106.051 60.2381 105.451 60.6221C104.851 60.9941 104.149 61.1801 103.345 61.1801C102.589 61.1801 101.923 60.9941 101.347 60.6221C100.771 60.2501 100.387 59.7521 100.195 59.1281H100.393V64.8881H98.143ZM102.715 59.4521C103.435 59.4521 104.011 59.2061 104.443 58.7141C104.875 58.2101 105.091 57.4541 105.091 56.4461C105.091 55.4381 104.875 54.6881 104.443 54.1961C104.011 53.7041 103.435 53.4581 102.715 53.4581C102.007 53.4581 101.437 53.7041 101.005 54.1961C100.573 54.6881 100.357 55.4381 100.357 56.4461C100.357 57.4541 100.573 58.2101 101.005 58.7141C101.437 59.2061 102.007 59.4521 102.715 59.4521Z" fill="#343434"/>
<path d="M113.655 61.1801C112.719 61.1801 111.909 60.9881 111.225 60.6041C110.541 60.2201 110.007 59.6741 109.623 58.9661C109.251 58.2581 109.065 57.4181 109.065 56.4461C109.065 55.4741 109.251 54.6401 109.623 53.9441C110.007 53.2361 110.541 52.6901 111.225 52.3061C111.909 51.9221 112.719 51.7301 113.655 51.7301C114.591 51.7301 115.401 51.9221 116.085 52.3061C116.781 52.6901 117.315 53.2361 117.687 53.9441C118.071 54.6401 118.263 55.4741 118.263 56.4461C118.263 57.4181 118.071 58.2581 117.687 58.9661C117.315 59.6741 116.781 60.2201 116.085 60.6041C115.401 60.9881 114.591 61.1801 113.655 61.1801ZM113.655 59.4521C114.363 59.4521 114.927 59.2061 115.347 58.7141C115.767 58.2101 115.977 57.4541 115.977 56.4461C115.977 55.4381 115.767 54.6881 115.347 54.1961C114.927 53.7041 114.363 53.4581 113.655 53.4581C112.947 53.4581 112.383 53.7041 111.963 54.1961C111.543 54.6881 111.333 55.4381 111.333 56.4461C111.333 57.4541 111.543 58.2101 111.963 58.7141C112.383 59.2061 112.947 59.4521 113.655 59.4521Z" fill="#343434"/>
<path d="M124.859 61.1801C123.335 61.1801 122.141 60.7601 121.277 59.9201C120.413 59.0801 119.981 57.9281 119.981 56.4641C119.981 55.5161 120.167 54.6881 120.539 53.9801C120.911 53.2721 121.427 52.7201 122.087 52.3241C122.759 51.9281 123.539 51.7301 124.427 51.7301C125.303 51.7301 126.035 51.9161 126.623 52.2881C127.211 52.6601 127.655 53.1821 127.955 53.8541C128.267 54.5261 128.423 55.3121 128.423 56.2121V56.8061H121.799V55.6181H126.821L126.515 55.8701C126.515 55.0301 126.335 54.3881 125.975 53.9441C125.627 53.5001 125.117 53.2781 124.445 53.2781C123.701 53.2781 123.125 53.5421 122.717 54.0701C122.321 54.5981 122.123 55.3361 122.123 56.2841V56.5181C122.123 57.5021 122.363 58.2401 122.843 58.7321C123.335 59.2121 124.025 59.4521 124.913 59.4521C125.429 59.4521 125.909 59.3861 126.353 59.2541C126.809 59.1101 127.241 58.8821 127.649 58.5701L128.315 60.0821C127.883 60.4301 127.367 60.7001 126.767 60.8921C126.167 61.0841 125.531 61.1801 124.859 61.1801Z" fill="#343434"/>
<path d="M130.503 61.0001V51.9101H132.735V55.4741H136.839V51.9101H139.071V61.0001H136.839V57.2021H132.735V61.0001H130.503Z" fill="#343434"/>
<path d="M146.569 61.0001V51.9101H148.441L151.573 57.3461L154.705 51.9101H156.577V61.0001H154.597V54.4301H155.011L152.095 59.5241H151.051L148.135 54.4301H148.549V61.0001H146.569Z" fill="#343434"/>
<path d="M159.137 61.0001V51.9101H161.171V58.7861H160.631L165.797 51.9101H167.651V61.0001H165.617V54.1061H166.175L160.991 61.0001H159.137Z" fill="#343434"/>
<path d="M170.284 64.8881V54.1781C170.284 53.8061 170.272 53.4281 170.248 53.0441C170.224 52.6601 170.188 52.2821 170.14 51.9101H172.318L172.516 53.8181H172.318C172.498 53.1821 172.876 52.6781 173.452 52.3061C174.04 51.9221 174.718 51.7301 175.486 51.7301C176.29 51.7301 176.992 51.9221 177.592 52.3061C178.192 52.6781 178.66 53.2181 178.996 53.9261C179.332 54.6221 179.5 55.4621 179.5 56.4461C179.5 57.4301 179.332 58.2761 178.996 58.9841C178.66 59.6921 178.192 60.2381 177.592 60.6221C176.992 60.9941 176.29 61.1801 175.486 61.1801C174.73 61.1801 174.064 60.9941 173.488 60.6221C172.912 60.2501 172.528 59.7521 172.336 59.1281H172.534V64.8881H170.284ZM174.856 59.4521C175.576 59.4521 176.152 59.2061 176.584 58.7141C177.016 58.2101 177.232 57.4541 177.232 56.4461C177.232 55.4381 177.016 54.6881 176.584 54.1961C176.152 53.7041 175.576 53.4581 174.856 53.4581C174.148 53.4581 173.578 53.7041 173.146 54.1961C172.714 54.6881 172.498 55.4381 172.498 56.4461C172.498 57.4541 172.714 58.2101 173.146 58.7141C173.578 59.2061 174.148 59.4521 174.856 59.4521Z" fill="#343434"/>
<path d="M190.735 61.1801C189.799 61.1801 188.989 60.9881 188.305 60.6041C187.621 60.2201 187.087 59.6741 186.703 58.9661C186.331 58.2581 186.145 57.4181 186.145 56.4461C186.145 55.4741 186.331 54.6401 186.703 53.9441C187.087 53.2361 187.621 52.6901 188.305 52.3061C188.989 51.9221 189.799 51.7301 190.735 51.7301C191.671 51.7301 192.481 51.9221 193.165 52.3061C193.861 52.6901 194.395 53.2361 194.767 53.9441C195.151 54.6401 195.343 55.4741 195.343 56.4461C195.343 57.4181 195.151 58.2581 194.767 58.9661C194.395 59.6741 193.861 60.2201 193.165 60.6041C192.481 60.9881 191.671 61.1801 190.735 61.1801ZM190.735 59.4521C191.443 59.4521 192.007 59.2061 192.427 58.7141C192.847 58.2101 193.057 57.4541 193.057 56.4461C193.057 55.4381 192.847 54.6881 192.427 54.1961C192.007 53.7041 191.443 53.4581 190.735 53.4581C190.027 53.4581 189.463 53.7041 189.043 54.1961C188.623 54.6881 188.413 55.4381 188.413 56.4461C188.413 57.4541 188.623 58.2101 189.043 58.7141C189.463 59.2061 190.027 59.4521 190.735 59.4521Z" fill="#343434"/>
<path d="M197.475 61.0001V51.9101H199.707V55.4741H203.811V51.9101H206.043V61.0001H203.811V57.2021H199.707V61.0001H197.475Z" fill="#343434"/>
<path d="M208.368 61.2521L207.666 59.4881C208.062 59.3441 208.392 59.1581 208.656 58.9301C208.932 58.6901 209.148 58.3901 209.304 58.0301C209.472 57.6581 209.592 57.2021 209.664 56.6621C209.736 56.1101 209.772 55.4561 209.772 54.7001V51.9101H217.008V61.0001H214.776V53.6381H211.824V54.7721C211.824 56.0801 211.704 57.1781 211.464 58.0661C211.224 58.9421 210.852 59.6381 210.348 60.1541C209.844 60.6701 209.184 61.0361 208.368 61.2521Z" fill="#343434"/>
<path d="M223.153 61.1801C222.361 61.1801 221.665 60.9941 221.065 60.6221C220.465 60.2381 219.997 59.6921 219.661 58.9841C219.325 58.2761 219.157 57.4301 219.157 56.4461C219.157 55.4621 219.325 54.6221 219.661 53.9261C219.997 53.2181 220.465 52.6781 221.065 52.3061C221.665 51.9221 222.361 51.7301 223.153 51.7301C223.921 51.7301 224.593 51.9221 225.169 52.3061C225.757 52.6781 226.147 53.1821 226.339 53.8181H226.141L226.339 51.9101H228.499C228.463 52.2821 228.427 52.6601 228.391 53.0441C228.367 53.4281 228.355 53.8061 228.355 54.1781V61.0001H226.123L226.105 59.1281H226.321C226.129 59.7521 225.739 60.2501 225.151 60.6221C224.563 60.9941 223.897 61.1801 223.153 61.1801ZM223.783 59.4521C224.491 59.4521 225.061 59.2061 225.493 58.7141C225.925 58.2101 226.141 57.4541 226.141 56.4461C226.141 55.4381 225.925 54.6881 225.493 54.1961C225.061 53.7041 224.491 53.4581 223.783 53.4581C223.075 53.4581 222.505 53.7041 222.073 54.1961C221.641 54.6881 221.425 55.4381 221.425 56.4461C221.425 57.4541 221.635 58.2101 222.055 58.7141C222.487 59.2061 223.063 59.4521 223.783 59.4521Z" fill="#343434"/>
<path d="M230.979 61.0001V51.9101H233.013V58.7861H232.473L237.639 51.9101H239.493V61.0001H237.459V54.1061H238.017L232.833 61.0001H230.979ZM235.227 51.0821C234.627 51.0821 234.099 50.9861 233.643 50.7941C233.187 50.5901 232.809 50.3081 232.509 49.9481C232.209 49.5761 231.993 49.1381 231.861 48.6341L233.013 48.2381C233.217 48.7901 233.499 49.1981 233.859 49.4621C234.219 49.7141 234.681 49.8401 235.245 49.8401C235.809 49.8401 236.271 49.7141 236.631 49.4621C236.991 49.2101 237.285 48.8081 237.513 48.2561L238.611 48.6341C238.359 49.4381 237.939 50.0501 237.351 50.4701C236.775 50.8781 236.067 51.0821 235.227 51.0821Z" fill="#343434"/>
<path d="M242.053 61.0001V51.9101H244.285V55.4741H248.389V51.9101H250.621V61.0001H248.389V57.2021H244.285V61.0001H242.053Z" fill="#343434"/>
<path d="M253.108 56.9321V55.1501H258.58V56.9321H253.108Z" fill="#343434"/>
<path d="M36.626 81.1801C35.81 81.1801 35.042 81.0841 34.322 80.8921C33.614 80.7001 33.02 80.4241 32.54 80.0641L33.17 78.5881C33.614 78.9121 34.13 79.1581 34.718 79.3261C35.318 79.4941 35.948 79.5781 36.608 79.5781C37.376 79.5781 37.934 79.4761 38.282 79.2721C38.642 79.0561 38.822 78.7441 38.822 78.3361C38.822 77.9521 38.684 77.6641 38.408 77.4721C38.132 77.2681 37.724 77.1661 37.184 77.1661H34.826V75.6181H36.968C37.46 75.6181 37.838 75.5221 38.102 75.3301C38.366 75.1381 38.498 74.8681 38.498 74.5201C38.498 74.1481 38.336 73.8541 38.012 73.6381C37.7 73.4221 37.184 73.3141 36.464 73.3141C35.84 73.3141 35.27 73.3921 34.754 73.5481C34.238 73.6921 33.752 73.9081 33.296 74.1961L32.684 72.7921C33.176 72.4441 33.77 72.1801 34.466 72.0001C35.174 71.8201 35.942 71.7301 36.77 71.7301C37.982 71.7301 38.912 71.9521 39.56 72.3961C40.208 72.8401 40.532 73.4701 40.532 74.2861C40.532 74.8381 40.34 75.3121 39.956 75.7081C39.584 76.1041 39.08 76.3501 38.444 76.4461V76.1941C39.188 76.2421 39.776 76.4641 40.208 76.8601C40.64 77.2561 40.856 77.7901 40.856 78.4621C40.856 79.2901 40.49 79.9501 39.758 80.4421C39.026 80.9341 37.982 81.1801 36.626 81.1801Z" fill="#343434"/>
<path d="M46.405 81.1801C45.613 81.1801 44.917 80.9941 44.317 80.6221C43.717 80.2381 43.249 79.6921 42.913 78.9841C42.577 78.2761 42.409 77.4301 42.409 76.4461C42.409 75.4621 42.577 74.6221 42.913 73.9261C43.249 73.2181 43.717 72.6781 44.317 72.3061C44.917 71.9221 45.613 71.7301 46.405 71.7301C47.173 71.7301 47.845 71.9221 48.421 72.3061C49.009 72.6781 49.399 73.1821 49.591 73.8181H49.393L49.591 71.9101H51.751C51.715 72.2821 51.679 72.6601 51.643 73.0441C51.619 73.4281 51.607 73.8061 51.607 74.1781V81.0001H49.375L49.357 79.1281H49.573C49.381 79.7521 48.991 80.2501 48.403 80.6221C47.815 80.9941 47.149 81.1801 46.405 81.1801ZM47.035 79.4521C47.743 79.4521 48.313 79.2061 48.745 78.7141C49.177 78.2101 49.393 77.4541 49.393 76.4461C49.393 75.4381 49.177 74.6881 48.745 74.1961C48.313 73.7041 47.743 73.4581 47.035 73.4581C46.327 73.4581 45.757 73.7041 45.325 74.1961C44.893 74.6881 44.677 75.4381 44.677 76.4461C44.677 77.4541 44.887 78.2101 45.307 78.7141C45.739 79.2061 46.315 79.4521 47.035 79.4521Z" fill="#343434"/>
<path d="M54.3032 84.8881V74.1781C54.3032 73.8061 54.2912 73.4281 54.2672 73.0441C54.2432 72.6601 54.2072 72.2821 54.1592 71.9101H56.3372L56.5352 73.8181H56.3372C56.5172 73.1821 56.8952 72.6781 57.4712 72.3061C58.0592 71.9221 58.7372 71.7301 59.5052 71.7301C60.3092 71.7301 61.0112 71.9221 61.6112 72.3061C62.2112 72.6781 62.6792 73.2181 63.0152 73.9261C63.3512 74.6221 63.5192 75.4621 63.5192 76.4461C63.5192 77.4301 63.3512 78.2761 63.0152 78.9841C62.6792 79.6921 62.2112 80.2381 61.6112 80.6221C61.0112 80.9941 60.3092 81.1801 59.5052 81.1801C58.7492 81.1801 58.0832 80.9941 57.5072 80.6221C56.9312 80.2501 56.5472 79.7521 56.3552 79.1281H56.5532V84.8881H54.3032ZM58.8752 79.4521C59.5952 79.4521 60.1712 79.2061 60.6032 78.7141C61.0352 78.2101 61.2512 77.4541 61.2512 76.4461C61.2512 75.4381 61.0352 74.6881 60.6032 74.1961C60.1712 73.7041 59.5952 73.4581 58.8752 73.4581C58.1672 73.4581 57.5972 73.7041 57.1652 74.1961C56.7332 74.6881 56.5172 75.4381 56.5172 76.4461C56.5172 77.4541 56.7332 78.2101 57.1652 78.7141C57.5972 79.2061 58.1672 79.4521 58.8752 79.4521Z" fill="#343434"/>
<path d="M69.2214 81.1801C68.4294 81.1801 67.7334 80.9941 67.1334 80.6221C66.5334 80.2381 66.0654 79.6921 65.7294 78.9841C65.3934 78.2761 65.2254 77.4301 65.2254 76.4461C65.2254 75.4621 65.3934 74.6221 65.7294 73.9261C66.0654 73.2181 66.5334 72.6781 67.1334 72.3061C67.7334 71.9221 68.4294 71.7301 69.2214 71.7301C69.9894 71.7301 70.6614 71.9221 71.2374 72.3061C71.8254 72.6781 72.2154 73.1821 72.4074 73.8181H72.2094L72.4074 71.9101H74.5674C74.5314 72.2821 74.4954 72.6601 74.4594 73.0441C74.4354 73.4281 74.4234 73.8061 74.4234 74.1781V81.0001H72.1914L72.1734 79.1281H72.3894C72.1974 79.7521 71.8074 80.2501 71.2194 80.6221C70.6314 80.9941 69.9654 81.1801 69.2214 81.1801ZM69.8514 79.4521C70.5594 79.4521 71.1294 79.2061 71.5614 78.7141C71.9934 78.2101 72.2094 77.4541 72.2094 76.4461C72.2094 75.4381 71.9934 74.6881 71.5614 74.1961C71.1294 73.7041 70.5594 73.4581 69.8514 73.4581C69.1434 73.4581 68.5734 73.7041 68.1414 74.1961C67.7094 74.6881 67.4934 75.4381 67.4934 76.4461C67.4934 77.4541 67.7034 78.2101 68.1234 78.7141C68.5554 79.2061 69.1314 79.4521 69.8514 79.4521Z" fill="#343434"/>
<path d="M81.3136 81.1801C79.8856 81.1801 78.7456 80.7481 77.8936 79.8841C77.0536 79.0201 76.6336 77.7541 76.6336 76.0861V74.5381C76.6336 72.8221 77.0236 71.4421 77.8036 70.3981C78.5836 69.3541 79.7596 68.6641 81.3316 68.3281L84.6616 67.5721L85.2736 69.3361L81.5296 70.1641C80.9056 70.2961 80.3896 70.5481 79.9816 70.9201C79.5736 71.2801 79.2676 71.7121 79.0636 72.2161C78.8596 72.7201 78.7576 73.2601 78.7576 73.8361V74.7901H78.4516C78.5836 74.2501 78.8056 73.7821 79.1176 73.3861C79.4296 72.9781 79.8256 72.6601 80.3056 72.4321C80.7856 72.2041 81.3316 72.0901 81.9436 72.0901C82.7116 72.0901 83.3836 72.2701 83.9596 72.6301C84.5476 72.9781 85.0096 73.4881 85.3456 74.1601C85.6816 74.8201 85.8496 75.6121 85.8496 76.5361C85.8496 77.4841 85.6576 78.3061 85.2736 79.0021C84.9016 79.6981 84.3736 80.2381 83.6896 80.6221C83.0176 80.9941 82.2256 81.1801 81.3136 81.1801ZM81.2416 79.4701C81.9856 79.4701 82.5616 79.2361 82.9696 78.7681C83.3896 78.2881 83.5996 77.5741 83.5996 76.6261C83.5996 75.7021 83.3896 75.0001 82.9696 74.5201C82.5496 74.0281 81.9736 73.7821 81.2416 73.7821C80.5096 73.7821 79.9336 74.0221 79.5136 74.5021C79.0936 74.9821 78.8836 75.6661 78.8836 76.5541C78.8836 77.5261 79.0936 78.2581 79.5136 78.7501C79.9336 79.2301 80.5096 79.4701 81.2416 79.4701Z" fill="#343434"/>
<path d="M92.1572 81.1801C91.2212 81.1801 90.4112 80.9881 89.7272 80.6041C89.0432 80.2201 88.5092 79.6741 88.1252 78.9661C87.7532 78.2581 87.5672 77.4181 87.5672 76.4461C87.5672 75.4741 87.7532 74.6401 88.1252 73.9441C88.5092 73.2361 89.0432 72.6901 89.7272 72.3061C90.4112 71.9221 91.2212 71.7301 92.1572 71.7301C93.0932 71.7301 93.9032 71.9221 94.5872 72.3061C95.2832 72.6901 95.8172 73.2361 96.1892 73.9441C96.5732 74.6401 96.7652 75.4741 96.7652 76.4461C96.7652 77.4181 96.5732 78.2581 96.1892 78.9661C95.8172 79.6741 95.2832 80.2201 94.5872 80.6041C93.9032 80.9881 93.0932 81.1801 92.1572 81.1801ZM92.1572 79.4521C92.8652 79.4521 93.4292 79.2061 93.8492 78.7141C94.2692 78.2101 94.4792 77.4541 94.4792 76.4461C94.4792 75.4381 94.2692 74.6881 93.8492 74.1961C93.4292 73.7041 92.8652 73.4581 92.1572 73.4581C91.4492 73.4581 90.8852 73.7041 90.4652 74.1961C90.0452 74.6881 89.8352 75.4381 89.8352 76.4461C89.8352 77.4541 90.0452 78.2101 90.4652 78.7141C90.8852 79.2061 91.4492 79.4521 92.1572 79.4521Z" fill="#343434"/>
<path d="M100.859 81.0001V73.6741H97.7452V71.9101H106.223V73.6741H103.091V81.0001H100.859Z" fill="#343434"/>
<path d="M107.616 81.0001V71.9101H109.848V75.4741H111.216L113.88 71.9101H116.292L112.944 76.4461L112.458 75.7441C112.794 75.7801 113.088 75.8701 113.34 76.0141C113.604 76.1581 113.85 76.3621 114.078 76.6261C114.318 76.8781 114.552 77.2021 114.78 77.5981L116.688 81.0001H114.294L112.746 78.2641C112.59 77.9881 112.434 77.7721 112.278 77.6161C112.122 77.4601 111.948 77.3521 111.756 77.2921C111.564 77.2321 111.33 77.2021 111.054 77.2021H109.848V81.0001H107.616Z" fill="#343434"/>
<path d="M121.464 81.1801C120.672 81.1801 119.976 80.9941 119.376 80.6221C118.776 80.2381 118.308 79.6921 117.972 78.9841C117.636 78.2761 117.468 77.4301 117.468 76.4461C117.468 75.4621 117.636 74.6221 117.972 73.9261C118.308 73.2181 118.776 72.6781 119.376 72.3061C119.976 71.9221 120.672 71.7301 121.464 71.7301C122.232 71.7301 122.904 71.9221 123.48 72.3061C124.068 72.6781 124.458 73.1821 124.65 73.8181H124.452L124.65 71.9101H126.81C126.774 72.2821 126.738 72.6601 126.702 73.0441C126.678 73.4281 126.666 73.8061 126.666 74.1781V81.0001H124.434L124.416 79.1281H124.632C124.44 79.7521 124.05 80.2501 123.462 80.6221C122.874 80.9941 122.208 81.1801 121.464 81.1801ZM122.094 79.4521C122.802 79.4521 123.372 79.2061 123.804 78.7141C124.236 78.2101 124.452 77.4541 124.452 76.4461C124.452 75.4381 124.236 74.6881 123.804 74.1961C123.372 73.7041 122.802 73.4581 122.094 73.4581C121.386 73.4581 120.816 73.7041 120.384 74.1961C119.952 74.6881 119.736 75.4381 119.736 76.4461C119.736 77.4541 119.946 78.2101 120.366 78.7141C120.798 79.2061 121.374 79.4521 122.094 79.4521Z" fill="#343434"/>
<path d="M288 22C288 25.3137 285.314 28 282 28C278.686 28 276 25.3137 276 22C276 18.6863 278.686 16 282 16C285.314 16 288 18.6863 288 22Z" fill="#DBD3F0"/>
<defs>
<linearGradient id="paint0_linear_100_226" x1="152" y1="0" x2="152" y2="128" gradientUnits="userSpaceOnUse">
<stop stop-color="white"/>
<stop offset="1" stop-color="white" stop-opacity="0.8"/>
</linearGradient>
</defs>
</svg>
