<svg width="304" height="128" viewBox="0 0 304 128" fill="none" xmlns="http://www.w3.org/2000/svg">
<rect width="304" height="128" rx="16" fill="url(#paint0_linear_100_232)"/>
<path d="M33.4038 41.0001V28.3101H44.5098V41.0001H42.2058V30.2001H35.6898V41.0001H33.4038Z" fill="#343434"/>
<path d="M51.3581 41.1801C50.4221 41.1801 49.6121 40.9881 48.9281 40.6041C48.2441 40.2201 47.7101 39.6741 47.3261 38.9661C46.9541 38.2581 46.7681 37.4181 46.7681 36.4461C46.7681 35.4741 46.9541 34.6401 47.3261 33.9441C47.7101 33.2361 48.2441 32.6901 48.9281 32.3061C49.6121 31.9221 50.4221 31.7301 51.3581 31.7301C52.2941 31.7301 53.1041 31.9221 53.7881 32.3061C54.4841 32.6901 55.0181 33.2361 55.3901 33.9441C55.7741 34.6401 55.9661 35.4741 55.9661 36.4461C55.9661 37.4181 55.7741 38.2581 55.3901 38.9661C55.0181 39.6741 54.4841 40.2201 53.7881 40.6041C53.1041 40.9881 52.2941 41.1801 51.3581 41.1801ZM51.3581 39.4521C52.0661 39.4521 52.6301 39.2061 53.0501 38.7141C53.4701 38.2101 53.6801 37.4541 53.6801 36.4461C53.6801 35.4381 53.4701 34.6881 53.0501 34.1961C52.6301 33.7041 52.0661 33.4581 51.3581 33.4581C50.6501 33.4581 50.0861 33.7041 49.6661 34.1961C49.2461 34.6881 49.0361 35.4381 49.0361 36.4461C49.0361 37.4541 49.2461 38.2101 49.6661 38.7141C50.0861 39.2061 50.6501 39.4521 51.3581 39.4521Z" fill="#343434"/>
<path d="M57.2881 43.3401V39.2901H58.3321C58.6921 38.7261 58.9501 38.0661 59.1061 37.3101C59.2741 36.5421 59.3581 35.6061 59.3581 34.5021V31.9101H66.3601V39.2901H67.8361V43.3401H65.9281V41.0001H59.1961V43.3401H57.2881ZM60.3481 39.3081H64.2541V33.6021H61.2661V35.0061C61.2661 35.8101 61.1881 36.5961 61.0321 37.3641C60.8761 38.1321 60.6481 38.7801 60.3481 39.3081Z" fill="#343434"/>
<path d="M68.6787 43.3401V39.2901H69.7227C70.0827 38.7261 70.3407 38.0661 70.4967 37.3101C70.6647 36.5421 70.7487 35.6061 70.7487 34.5021V31.9101H77.7507V39.2901H79.2267V43.3401H77.3187V41.0001H70.5867V43.3401H68.6787ZM71.7387 39.3081H75.6447V33.6021H72.6567V35.0061C72.6567 35.8101 72.5787 36.5961 72.4227 37.3641C72.2667 38.1321 72.0387 38.7801 71.7387 39.3081Z" fill="#343434"/>
<path d="M85.3434 41.1801C83.8194 41.1801 82.6254 40.7601 81.7614 39.9201C80.8974 39.0801 80.4654 37.9281 80.4654 36.4641C80.4654 35.5161 80.6514 34.6881 81.0234 33.9801C81.3954 33.2721 81.9114 32.7201 82.5714 32.3241C83.2434 31.9281 84.0234 31.7301 84.9114 31.7301C85.7874 31.7301 86.5194 31.9161 87.1074 32.2881C87.6954 32.6601 88.1394 33.1821 88.4394 33.8541C88.7514 34.5261 88.9074 35.3121 88.9074 36.2121V36.8061H82.2834V35.6181H87.3054L86.9994 35.8701C86.9994 35.0301 86.8194 34.3881 86.4594 33.9441C86.1114 33.5001 85.6014 33.2781 84.9294 33.2781C84.1854 33.2781 83.6094 33.5421 83.2014 34.0701C82.8054 34.5981 82.6074 35.3361 82.6074 36.2841V36.5181C82.6074 37.5021 82.8474 38.2401 83.3274 38.7321C83.8194 39.2121 84.5094 39.4521 85.3974 39.4521C85.9134 39.4521 86.3934 39.3861 86.8374 39.2541C87.2934 39.1101 87.7254 38.8821 88.1334 38.5701L88.7994 40.0821C88.3674 40.4301 87.8514 40.7001 87.2514 40.8921C86.6514 41.0841 86.0154 41.1801 85.3434 41.1801Z" fill="#343434"/>
<path d="M91.0588 44.8881V34.1781C91.0588 33.8061 91.0468 33.4281 91.0228 33.0441C90.9988 32.6601 90.9628 32.2821 90.9148 31.9101H93.0928L93.2908 33.8181H93.0928C93.2728 33.1821 93.6508 32.6781 94.2268 32.3061C94.8148 31.9221 95.4928 31.7301 96.2608 31.7301C97.0648 31.7301 97.7668 31.9221 98.3668 32.3061C98.9668 32.6781 99.4348 33.2181 99.7708 33.9261C100.107 34.6221 100.275 35.4621 100.275 36.4461C100.275 37.4301 100.107 38.2761 99.7708 38.9841C99.4348 39.6921 98.9668 40.2381 98.3668 40.6221C97.7668 40.9941 97.0648 41.1801 96.2608 41.1801C95.5048 41.1801 94.8388 40.9941 94.2628 40.6221C93.6868 40.2501 93.3028 39.7521 93.1108 39.1281H93.3088V44.8881H91.0588ZM95.6308 39.4521C96.3508 39.4521 96.9268 39.2061 97.3588 38.7141C97.7908 38.2101 98.0068 37.4541 98.0068 36.4461C98.0068 35.4381 97.7908 34.6881 97.3588 34.1961C96.9268 33.7041 96.3508 33.4581 95.6308 33.4581C94.9228 33.4581 94.3528 33.7041 93.9208 34.1961C93.4888 34.6881 93.2728 35.4381 93.2728 36.4461C93.2728 37.4541 93.4888 38.2101 93.9208 38.7141C94.3528 39.2061 94.9228 39.4521 95.6308 39.4521Z" fill="#343434"/>
<path d="M101.027 41.0001L102.935 37.5981C103.175 37.2021 103.403 36.8781 103.619 36.6261C103.847 36.3621 104.093 36.1581 104.357 36.0141C104.621 35.8701 104.921 35.7801 105.257 35.7441L104.789 36.4461L101.423 31.9101H103.835L106.517 35.4741H107.651V31.9101H109.883V35.4741H110.999L113.663 31.9101H116.093L112.709 36.4461L112.241 35.7441C112.577 35.7801 112.877 35.8701 113.141 36.0141C113.405 36.1581 113.651 36.3621 113.879 36.6261C114.119 36.8781 114.353 37.2021 114.581 37.5981L116.489 41.0001H114.095L112.547 38.2641C112.391 37.9881 112.235 37.7721 112.079 37.6161C111.923 37.4601 111.749 37.3521 111.557 37.2921C111.365 37.2321 111.131 37.2021 110.855 37.2021H109.883V41.0001H107.651V37.2021H106.661C106.385 37.2021 106.151 37.2321 105.959 37.2921C105.767 37.3521 105.593 37.4601 105.437 37.6161C105.293 37.7721 105.137 37.9881 104.969 38.2641L103.421 41.0001H101.027Z" fill="#343434"/>
<path d="M117.67 41.0001V31.9101H119.902V35.4741H121.27L123.934 31.9101H126.346L122.998 36.4461L122.512 35.7441C122.848 35.7801 123.142 35.8701 123.394 36.0141C123.658 36.1581 123.904 36.3621 124.132 36.6261C124.372 36.8781 124.606 37.2021 124.834 37.5981L126.742 41.0001H124.348L122.8 38.2641C122.644 37.9881 122.488 37.7721 122.332 37.6161C122.176 37.4601 122.002 37.3521 121.81 37.2921C121.618 37.2321 121.384 37.2021 121.108 37.2021H119.902V41.0001H117.67Z" fill="#343434"/>
<path d="M127.828 45.0861L127.306 43.3041C127.87 43.1841 128.344 43.0461 128.728 42.8901C129.112 42.7341 129.43 42.5301 129.682 42.2781C129.934 42.0261 130.144 41.7021 130.312 41.3061L130.762 40.2441L130.708 41.1261L126.748 31.9101H129.142L131.986 39.0021H131.464L134.326 31.9101H136.594L132.454 41.5041C132.178 42.1521 131.878 42.6861 131.554 43.1061C131.23 43.5381 130.882 43.8801 130.51 44.1321C130.138 44.3961 129.73 44.6001 129.286 44.7441C128.842 44.8881 128.356 45.0021 127.828 45.0861Z" fill="#343434"/>
<path d="M142.828 41.0001V31.9461H147.292C148.36 31.9461 149.152 32.1501 149.668 32.5581C150.196 32.9661 150.46 33.5541 150.46 34.3221C150.46 34.8981 150.262 35.3841 149.866 35.7801C149.47 36.1641 148.954 36.3981 148.318 36.4821V36.2481C149.074 36.2721 149.668 36.4941 150.1 36.9141C150.544 37.3221 150.766 37.8501 150.766 38.4981C150.766 39.2661 150.472 39.8781 149.884 40.3341C149.308 40.7781 148.498 41.0001 147.454 41.0001H142.828ZM144.376 39.9201H147.346C147.958 39.9201 148.426 39.7941 148.75 39.5421C149.074 39.2781 149.236 38.9061 149.236 38.4261C149.236 37.9341 149.074 37.5621 148.75 37.3101C148.426 37.0581 147.958 36.9321 147.346 36.9321H144.376V39.9201ZM144.376 35.8521H147.148C147.712 35.8521 148.15 35.7261 148.462 35.4741C148.774 35.2221 148.93 34.8741 148.93 34.4301C148.93 33.9741 148.774 33.6261 148.462 33.3861C148.15 33.1461 147.712 33.0261 147.148 33.0261H144.376V35.8521Z" fill="#343434"/>
<path d="M156.78 43.3401V39.7221H157.77C158.178 39.1101 158.472 38.3901 158.652 37.5621C158.844 36.7341 158.94 35.7501 158.94 34.6101V31.9461H165.438V39.7221H166.878V43.3401H165.474V41.0001H158.202V43.3401H156.78ZM159.318 39.7401H163.908V33.2061H160.38V34.8981C160.38 35.8101 160.29 36.6981 160.11 37.5621C159.93 38.4141 159.666 39.1401 159.318 39.7401Z" fill="#343434"/>
<path d="M172.949 41.1621C171.509 41.1621 170.369 40.7481 169.529 39.9201C168.701 39.0921 168.287 37.9521 168.287 36.5001C168.287 35.5401 168.467 34.7121 168.827 34.0161C169.199 33.3081 169.709 32.7621 170.357 32.3781C171.005 31.9821 171.761 31.7841 172.625 31.7841C173.453 31.7841 174.155 31.9641 174.731 32.3241C175.307 32.6721 175.745 33.1701 176.045 33.8181C176.345 34.4661 176.495 35.2341 176.495 36.1221V36.6621H169.565V35.6901H175.379L175.073 35.9241C175.073 34.9881 174.863 34.2621 174.443 33.7461C174.035 33.2301 173.429 32.9721 172.625 32.9721C171.749 32.9721 171.071 33.2781 170.591 33.8901C170.111 34.4901 169.871 35.3121 169.871 36.3561V36.5181C169.871 37.6221 170.141 38.4561 170.681 39.0201C171.233 39.5841 171.995 39.8661 172.967 39.8661C173.507 39.8661 174.011 39.7881 174.479 39.6321C174.947 39.4761 175.397 39.2181 175.829 38.8581L176.369 39.9921C175.961 40.3641 175.451 40.6521 174.839 40.8561C174.239 41.0601 173.609 41.1621 172.949 41.1621Z" fill="#343434"/>
<path d="M178.775 41.0001V31.9461H180.395V35.6901H182.033L184.949 31.9461H186.731L183.347 36.3561L182.915 35.8521C183.263 35.8881 183.563 35.9781 183.815 36.1221C184.067 36.2541 184.307 36.4521 184.535 36.7161C184.775 36.9801 185.033 37.3341 185.309 37.7781L187.181 41.0001H185.417L183.779 38.2101C183.599 37.8861 183.419 37.6341 183.239 37.4541C183.059 37.2741 182.855 37.1481 182.627 37.0761C182.411 37.0041 182.135 36.9681 181.799 36.9681H180.395V41.0001H178.775Z" fill="#343434"/>
<path d="M188.637 44.8881V34.0881C188.637 33.7401 188.625 33.3861 188.601 33.0261C188.577 32.6661 188.541 32.3061 188.493 31.9461H190.077L190.275 34.0341H190.077C190.257 33.3381 190.641 32.7921 191.229 32.3961C191.817 31.9881 192.519 31.7841 193.335 31.7841C194.139 31.7841 194.841 31.9701 195.441 32.3421C196.041 32.7141 196.503 33.2541 196.827 33.9621C197.163 34.6581 197.331 35.4921 197.331 36.4641C197.331 37.4361 197.163 38.2761 196.827 38.9841C196.503 39.6921 196.041 40.2321 195.441 40.6041C194.841 40.9761 194.139 41.1621 193.335 41.1621C192.531 41.1621 191.835 40.9641 191.247 40.5681C190.671 40.1601 190.281 39.6141 190.077 38.9301H190.275V44.8881H188.637ZM192.957 39.8661C193.785 39.8661 194.445 39.5781 194.937 39.0021C195.429 38.4261 195.675 37.5801 195.675 36.4641C195.675 35.3481 195.429 34.5081 194.937 33.9441C194.445 33.3801 193.785 33.0981 192.957 33.0981C192.129 33.0981 191.469 33.3801 190.977 33.9441C190.497 34.5081 190.257 35.3481 190.257 36.4641C190.257 37.5801 190.497 38.4261 190.977 39.0021C191.469 39.5781 192.129 39.8661 192.957 39.8661Z" fill="#343434"/>
<path d="M203.851 41.1621C202.411 41.1621 201.271 40.7481 200.431 39.9201C199.603 39.0921 199.189 37.9521 199.189 36.5001C199.189 35.5401 199.369 34.7121 199.729 34.0161C200.101 33.3081 200.611 32.7621 201.259 32.3781C201.907 31.9821 202.663 31.7841 203.527 31.7841C204.355 31.7841 205.057 31.9641 205.633 32.3241C206.209 32.6721 206.647 33.1701 206.947 33.8181C207.247 34.4661 207.397 35.2341 207.397 36.1221V36.6621H200.467V35.6901H206.281L205.975 35.9241C205.975 34.9881 205.765 34.2621 205.345 33.7461C204.937 33.2301 204.331 32.9721 203.527 32.9721C202.651 32.9721 201.973 33.2781 201.493 33.8901C201.013 34.4901 200.773 35.3121 200.773 36.3561V36.5181C200.773 37.6221 201.043 38.4561 201.583 39.0201C202.135 39.5841 202.897 39.8661 203.869 39.8661C204.409 39.8661 204.913 39.7881 205.381 39.6321C205.849 39.4761 206.299 39.2181 206.731 38.8581L207.271 39.9921C206.863 40.3641 206.353 40.6521 205.741 40.8561C205.141 41.0601 204.511 41.1621 203.851 41.1621Z" fill="#343434"/>
<path d="M211.621 41.0001V33.2601H208.363V31.9461H216.499V33.2601H213.241V41.0001H211.621Z" fill="#343434"/>
<path d="M222.115 41.1621C220.675 41.1621 219.535 40.7481 218.695 39.9201C217.867 39.0921 217.453 37.9521 217.453 36.5001C217.453 35.5401 217.633 34.7121 217.993 34.0161C218.365 33.3081 218.875 32.7621 219.523 32.3781C220.171 31.9821 220.927 31.7841 221.791 31.7841C222.619 31.7841 223.321 31.9641 223.897 32.3241C224.473 32.6721 224.911 33.1701 225.211 33.8181C225.511 34.4661 225.661 35.2341 225.661 36.1221V36.6621H218.731V35.6901H224.545L224.239 35.9241C224.239 34.9881 224.029 34.2621 223.609 33.7461C223.201 33.2301 222.595 32.9721 221.791 32.9721C220.915 32.9721 220.237 33.2781 219.757 33.8901C219.277 34.4901 219.037 35.3121 219.037 36.3561V36.5181C219.037 37.6221 219.307 38.4561 219.847 39.0201C220.399 39.5841 221.161 39.8661 222.133 39.8661C222.673 39.8661 223.177 39.7881 223.645 39.6321C224.113 39.4761 224.563 39.2181 224.995 38.8581L225.535 39.9921C225.127 40.3641 224.617 40.6521 224.005 40.8561C223.405 41.0601 222.775 41.1621 222.115 41.1621Z" fill="#343434"/>
<path d="M288 22C288 25.3137 285.314 28 282 28C278.686 28 276 25.3137 276 22C276 18.6863 278.686 16 282 16C285.314 16 288 18.6863 288 22Z" fill="#F0D3D3"/>
<defs>
<linearGradient id="paint0_linear_100_232" x1="152" y1="0" x2="152" y2="128" gradientUnits="userSpaceOnUse">
<stop stop-color="white"/>
<stop offset="1" stop-color="white" stop-opacity="0.8"/>
</linearGradient>
</defs>
</svg>
