<svg width="411" height="128" viewBox="0 0 411 128" fill="none" xmlns="http://www.w3.org/2000/svg">
<rect width="411" height="128" rx="16" fill="url(#paint0_linear_99_78)"/>
<path d="M37.124 48V35.421H32.231V33.195H44.726V35.421H39.833V48H37.124Z" fill="#343434"/>
<path d="M44.9363 52.536V40.041C44.9363 39.607 44.9223 39.166 44.8943 38.718C44.8663 38.27 44.8243 37.829 44.7683 37.395H47.3093L47.5403 39.621H47.3093C47.5193 38.879 47.9603 38.291 48.6323 37.857C49.3183 37.409 50.1093 37.185 51.0053 37.185C51.9433 37.185 52.7623 37.409 53.4623 37.857C54.1623 38.291 54.7083 38.921 55.1003 39.747C55.4923 40.559 55.6883 41.539 55.6883 42.687C55.6883 43.835 55.4923 44.822 55.1003 45.648C54.7083 46.474 54.1623 47.111 53.4623 47.559C52.7623 47.993 51.9433 48.21 51.0053 48.21C50.1233 48.21 49.3463 47.993 48.6743 47.559C48.0023 47.125 47.5543 46.544 47.3303 45.816H47.5613V52.536H44.9363ZM50.2703 46.194C51.1103 46.194 51.7823 45.907 52.2863 45.333C52.7903 44.745 53.0423 43.863 53.0423 42.687C53.0423 41.511 52.7903 40.636 52.2863 40.062C51.7823 39.488 51.1103 39.201 50.2703 39.201C49.4443 39.201 48.7793 39.488 48.2753 40.062C47.7713 40.636 47.5193 41.511 47.5193 42.687C47.5193 43.863 47.7713 44.745 48.2753 45.333C48.7793 45.907 49.4443 46.194 50.2703 46.194Z" fill="#343434"/>
<path d="M57.8718 52.767L57.2628 50.688C57.9208 50.548 58.4738 50.387 58.9218 50.205C59.3698 50.023 59.7408 49.785 60.0348 49.491C60.3288 49.197 60.5738 48.819 60.7698 48.357L61.2948 47.118L61.2318 48.147L56.6118 37.395H59.4048L62.7228 45.669H62.1138L65.4528 37.395H68.0988L63.2688 48.588C62.9468 49.344 62.5968 49.967 62.2188 50.457C61.8408 50.961 61.4348 51.36 61.0008 51.654C60.5668 51.962 60.0908 52.2 59.5728 52.368C59.0548 52.536 58.4878 52.669 57.8718 52.767Z" fill="#343434"/>
<path d="M68.4346 50.73V46.005H69.6526C70.0726 45.347 70.3736 44.577 70.5556 43.695C70.7516 42.799 70.8496 41.707 70.8496 40.419V37.395H79.0186V46.005H80.7406V50.73H78.5146V48H70.6606V50.73H68.4346ZM72.0046 46.026H76.5616V39.369H73.0756V41.007C73.0756 41.945 72.9846 42.862 72.8026 43.758C72.6206 44.654 72.3546 45.41 72.0046 46.026Z" fill="#343434"/>
<path d="M87.5407 48.21C86.4487 48.21 85.5037 47.986 84.7057 47.538C83.9077 47.09 83.2847 46.453 82.8367 45.627C82.4027 44.801 82.1857 43.821 82.1857 42.687C82.1857 41.553 82.4027 40.58 82.8367 39.768C83.2847 38.942 83.9077 38.305 84.7057 37.857C85.5037 37.409 86.4487 37.185 87.5407 37.185C88.6327 37.185 89.5777 37.409 90.3757 37.857C91.1877 38.305 91.8107 38.942 92.2447 39.768C92.6927 40.58 92.9167 41.553 92.9167 42.687C92.9167 43.821 92.6927 44.801 92.2447 45.627C91.8107 46.453 91.1877 47.09 90.3757 47.538C89.5777 47.986 88.6327 48.21 87.5407 48.21ZM87.5407 46.194C88.3667 46.194 89.0247 45.907 89.5147 45.333C90.0047 44.745 90.2497 43.863 90.2497 42.687C90.2497 41.511 90.0047 40.636 89.5147 40.062C89.0247 39.488 88.3667 39.201 87.5407 39.201C86.7147 39.201 86.0567 39.488 85.5667 40.062C85.0767 40.636 84.8317 41.511 84.8317 42.687C84.8317 43.863 85.0767 44.745 85.5667 45.333C86.0567 45.907 86.7147 46.194 87.5407 46.194Z" fill="#343434"/>
<path d="M95.114 52.767L94.505 50.688C95.163 50.548 95.716 50.387 96.164 50.205C96.612 50.023 96.983 49.785 97.277 49.491C97.571 49.197 97.816 48.819 98.012 48.357L98.537 47.118L98.474 48.147L93.854 37.395H96.647L99.965 45.669H99.356L102.695 37.395H105.341L100.511 48.588C100.189 49.344 99.839 49.967 99.461 50.457C99.083 50.961 98.677 51.36 98.243 51.654C97.809 51.962 97.333 52.2 96.815 52.368C96.297 52.536 95.73 52.669 95.114 52.767Z" fill="#343434"/>
<path d="M111.721 48.21C110.629 48.21 109.67 47.986 108.844 47.538C108.032 47.09 107.402 46.453 106.954 45.627C106.506 44.787 106.282 43.793 106.282 42.645C106.282 41.497 106.506 40.517 106.954 39.705C107.416 38.893 108.053 38.27 108.865 37.836C109.677 37.402 110.629 37.185 111.721 37.185C112.421 37.185 113.1 37.297 113.758 37.521C114.43 37.731 114.976 38.039 115.396 38.445L114.598 40.272C114.22 39.922 113.793 39.663 113.317 39.495C112.855 39.313 112.4 39.222 111.952 39.222C111.014 39.222 110.279 39.516 109.747 40.104C109.229 40.692 108.97 41.546 108.97 42.666C108.97 43.786 109.229 44.647 109.747 45.249C110.279 45.851 111.014 46.152 111.952 46.152C112.386 46.152 112.834 46.068 113.296 45.9C113.772 45.732 114.206 45.473 114.598 45.123L115.396 46.929C114.962 47.335 114.409 47.65 113.737 47.874C113.079 48.098 112.407 48.21 111.721 48.21Z" fill="#343434"/>
<path d="M119.924 48V39.453H116.291V37.395H126.182V39.453H122.528V48H119.924Z" fill="#343434"/>
<path d="M127.89 52.536V40.041C127.89 39.607 127.876 39.166 127.848 38.718C127.82 38.27 127.778 37.829 127.722 37.395H130.263L130.494 39.621H130.263C130.473 38.879 130.914 38.291 131.586 37.857C132.272 37.409 133.063 37.185 133.959 37.185C134.897 37.185 135.716 37.409 136.416 37.857C137.116 38.291 137.662 38.921 138.054 39.747C138.446 40.559 138.642 41.539 138.642 42.687C138.642 43.835 138.446 44.822 138.054 45.648C137.662 46.474 137.116 47.111 136.416 47.559C135.716 47.993 134.897 48.21 133.959 48.21C133.077 48.21 132.3 47.993 131.628 47.559C130.956 47.125 130.508 46.544 130.284 45.816H130.515V52.536H127.89ZM133.224 46.194C134.064 46.194 134.736 45.907 135.24 45.333C135.744 44.745 135.996 43.863 135.996 42.687C135.996 41.511 135.744 40.636 135.24 40.062C134.736 39.488 134.064 39.201 133.224 39.201C132.398 39.201 131.733 39.488 131.229 40.062C130.725 40.636 130.473 41.511 130.473 42.687C130.473 43.863 130.725 44.745 131.229 45.333C131.733 45.907 132.398 46.194 133.224 46.194Z" fill="#343434"/>
<path d="M145.988 48.21C144.896 48.21 143.951 47.986 143.153 47.538C142.355 47.09 141.732 46.453 141.284 45.627C140.85 44.801 140.633 43.821 140.633 42.687C140.633 41.553 140.85 40.58 141.284 39.768C141.732 38.942 142.355 38.305 143.153 37.857C143.951 37.409 144.896 37.185 145.988 37.185C147.08 37.185 148.025 37.409 148.823 37.857C149.635 38.305 150.258 38.942 150.692 39.768C151.14 40.58 151.364 41.553 151.364 42.687C151.364 43.821 151.14 44.801 150.692 45.627C150.258 46.453 149.635 47.09 148.823 47.538C148.025 47.986 147.08 48.21 145.988 48.21ZM145.988 46.194C146.814 46.194 147.472 45.907 147.962 45.333C148.452 44.745 148.697 43.863 148.697 42.687C148.697 41.511 148.452 40.636 147.962 40.062C147.472 39.488 146.814 39.201 145.988 39.201C145.162 39.201 144.504 39.488 144.014 40.062C143.524 40.636 143.279 41.511 143.279 42.687C143.279 43.863 143.524 44.745 144.014 45.333C144.504 45.907 145.162 46.194 145.988 46.194Z" fill="#343434"/>
<path d="M153.851 48V37.395H156.224V45.417H155.594L161.621 37.395H163.784V48H161.411V39.957H162.062L156.014 48H153.851ZM158.807 36.429C158.107 36.429 157.491 36.317 156.959 36.093C156.427 35.855 155.986 35.526 155.636 35.106C155.286 34.672 155.034 34.161 154.88 33.573L156.224 33.111C156.462 33.755 156.791 34.231 157.211 34.539C157.631 34.833 158.17 34.98 158.828 34.98C159.486 34.98 160.025 34.833 160.445 34.539C160.865 34.245 161.208 33.776 161.474 33.132L162.755 33.573C162.461 34.511 161.971 35.225 161.285 35.715C160.613 36.191 159.787 36.429 158.807 36.429Z" fill="#343434"/>
<path d="M171.727 48.21C170.635 48.21 169.676 47.986 168.85 47.538C168.038 47.09 167.408 46.453 166.96 45.627C166.512 44.787 166.288 43.793 166.288 42.645C166.288 41.497 166.512 40.517 166.96 39.705C167.422 38.893 168.059 38.27 168.871 37.836C169.683 37.402 170.635 37.185 171.727 37.185C172.427 37.185 173.106 37.297 173.764 37.521C174.436 37.731 174.982 38.039 175.402 38.445L174.604 40.272C174.226 39.922 173.799 39.663 173.323 39.495C172.861 39.313 172.406 39.222 171.958 39.222C171.02 39.222 170.285 39.516 169.753 40.104C169.235 40.692 168.976 41.546 168.976 42.666C168.976 43.786 169.235 44.647 169.753 45.249C170.285 45.851 171.02 46.152 171.958 46.152C172.392 46.152 172.84 46.068 173.302 45.9C173.778 45.732 174.212 45.473 174.604 45.123L175.402 46.929C174.968 47.335 174.415 47.65 173.743 47.874C173.085 48.098 172.413 48.21 171.727 48.21Z" fill="#343434"/>
<path d="M179.929 48V39.453H176.296V37.395H186.187V39.453H182.533V48H179.929Z" fill="#343434"/>
<path d="M187.812 48V37.395H193.461C194.791 37.395 195.764 37.64 196.38 38.13C196.996 38.606 197.304 39.285 197.304 40.167C197.304 40.839 197.08 41.399 196.632 41.847C196.184 42.295 195.589 42.575 194.847 42.687V42.393C195.757 42.449 196.457 42.715 196.947 43.191C197.437 43.667 197.682 44.283 197.682 45.039C197.682 45.949 197.332 46.67 196.632 47.202C195.932 47.734 194.938 48 193.65 48H187.812ZM190.248 46.383H193.377C193.993 46.383 194.462 46.257 194.784 46.005C195.12 45.753 195.288 45.382 195.288 44.892C195.288 44.402 195.12 44.031 194.784 43.779C194.462 43.527 193.993 43.401 193.377 43.401H190.248V46.383ZM190.248 41.784H193.146C193.706 41.784 194.14 41.665 194.448 41.427C194.756 41.175 194.91 40.825 194.91 40.377C194.91 39.929 194.756 39.586 194.448 39.348C194.14 39.11 193.706 38.991 193.146 38.991H190.248V41.784Z" fill="#343434"/>
<path d="M204.845 48.21C203.753 48.21 202.808 47.986 202.01 47.538C201.212 47.09 200.589 46.453 200.141 45.627C199.707 44.801 199.49 43.821 199.49 42.687C199.49 41.553 199.707 40.58 200.141 39.768C200.589 38.942 201.212 38.305 202.01 37.857C202.808 37.409 203.753 37.185 204.845 37.185C205.937 37.185 206.882 37.409 207.68 37.857C208.492 38.305 209.115 38.942 209.549 39.768C209.997 40.58 210.221 41.553 210.221 42.687C210.221 43.821 209.997 44.801 209.549 45.627C209.115 46.453 208.492 47.09 207.68 47.538C206.882 47.986 205.937 48.21 204.845 48.21ZM204.845 46.194C205.671 46.194 206.329 45.907 206.819 45.333C207.309 44.745 207.554 43.863 207.554 42.687C207.554 41.511 207.309 40.636 206.819 40.062C206.329 39.488 205.671 39.201 204.845 39.201C204.019 39.201 203.361 39.488 202.871 40.062C202.381 40.636 202.136 41.511 202.136 42.687C202.136 43.863 202.381 44.745 202.871 45.333C203.361 45.907 204.019 46.194 204.845 46.194Z" fill="#343434"/>
<path d="M218.393 48V37.437H223.601C224.847 37.437 225.771 37.675 226.373 38.151C226.989 38.627 227.297 39.313 227.297 40.209C227.297 40.881 227.066 41.448 226.604 41.91C226.142 42.358 225.54 42.631 224.798 42.729V42.456C225.68 42.484 226.373 42.743 226.877 43.233C227.395 43.709 227.654 44.325 227.654 45.081C227.654 45.977 227.311 46.691 226.625 47.223C225.953 47.741 225.008 48 223.79 48H218.393ZM220.199 46.74H223.664C224.378 46.74 224.924 46.593 225.302 46.299C225.68 45.991 225.869 45.557 225.869 44.997C225.869 44.423 225.68 43.989 225.302 43.695C224.924 43.401 224.378 43.254 223.664 43.254H220.199V46.74ZM220.199 41.994H223.433C224.091 41.994 224.602 41.847 224.966 41.553C225.33 41.259 225.512 40.853 225.512 40.335C225.512 39.803 225.33 39.397 224.966 39.117C224.602 38.837 224.091 38.697 223.433 38.697H220.199V41.994Z" fill="#343434"/>
<path d="M240.278 48.189C239.242 48.189 238.346 47.972 237.59 47.538C236.834 47.09 236.246 46.46 235.826 45.648C235.406 44.822 235.196 43.842 235.196 42.708C235.196 41.588 235.406 40.622 235.826 39.81C236.246 38.984 236.834 38.354 237.59 37.92C238.346 37.472 239.242 37.248 240.278 37.248C241.314 37.248 242.21 37.472 242.966 37.92C243.736 38.354 244.324 38.984 244.73 39.81C245.15 40.622 245.36 41.588 245.36 42.708C245.36 43.842 245.15 44.822 244.73 45.648C244.324 46.46 243.736 47.09 242.966 47.538C242.21 47.972 241.314 48.189 240.278 48.189ZM240.278 46.677C241.23 46.677 241.993 46.341 242.567 45.669C243.141 44.997 243.428 44.01 243.428 42.708C243.428 41.406 243.141 40.426 242.567 39.768C241.993 39.11 241.23 38.781 240.278 38.781C239.312 38.781 238.542 39.11 237.968 39.768C237.408 40.426 237.128 41.406 237.128 42.708C237.128 44.01 237.408 44.997 237.968 45.669C238.542 46.341 239.312 46.677 240.278 46.677Z" fill="#343434"/>
<path d="M248.088 48V37.437H249.978V41.805H255.564V37.437H257.454V48H255.564V43.317H249.978V48H248.088Z" fill="#343434"/>
<path d="M260.217 48.252L259.545 46.761C260.035 46.537 260.441 46.271 260.763 45.963C261.099 45.641 261.358 45.235 261.54 44.745C261.736 44.255 261.876 43.646 261.96 42.918C262.044 42.19 262.086 41.308 262.086 40.272V37.437H269.877V48H267.987V38.928H263.85V40.314C263.85 41.938 263.724 43.282 263.472 44.346C263.234 45.396 262.849 46.229 262.317 46.845C261.799 47.461 261.099 47.93 260.217 48.252Z" fill="#343434"/>
<path d="M277.244 48.189C276.32 48.189 275.508 47.972 274.808 47.538C274.108 47.104 273.562 46.474 273.17 45.648C272.778 44.822 272.582 43.842 272.582 42.708C272.582 41.574 272.778 40.601 273.17 39.789C273.562 38.963 274.108 38.333 274.808 37.899C275.508 37.465 276.32 37.248 277.244 37.248C278.182 37.248 278.994 37.486 279.68 37.962C280.38 38.424 280.842 39.061 281.066 39.873H280.814L281.045 37.437H282.893C282.851 37.857 282.809 38.277 282.767 38.697C282.739 39.117 282.725 39.53 282.725 39.936V48H280.814V45.585H281.045C280.821 46.383 280.359 47.02 279.659 47.496C278.973 47.958 278.168 48.189 277.244 48.189ZM277.685 46.677C278.637 46.677 279.4 46.341 279.974 45.669C280.548 44.997 280.835 44.01 280.835 42.708C280.835 41.406 280.548 40.426 279.974 39.768C279.4 39.11 278.637 38.781 277.685 38.781C276.733 38.781 275.963 39.11 275.375 39.768C274.801 40.426 274.514 41.406 274.514 42.708C274.514 44.01 274.801 44.997 275.375 45.669C275.949 46.341 276.719 46.677 277.685 46.677Z" fill="#343434"/>
<path d="M286.089 48V37.437H287.832V46.194H287.265L293.817 37.437H295.413V48H293.67V39.222H294.258L287.685 48H286.089ZM290.751 36.471C290.149 36.471 289.596 36.366 289.092 36.156C288.588 35.946 288.154 35.645 287.79 35.253C287.44 34.847 287.174 34.343 286.992 33.741L288.084 33.342C288.336 34.014 288.679 34.511 289.113 34.833C289.547 35.141 290.093 35.295 290.751 35.295C291.423 35.295 291.976 35.148 292.41 34.854C292.844 34.56 293.222 34.063 293.544 33.363L294.573 33.741C294.223 34.693 293.712 35.386 293.04 35.82C292.382 36.254 291.619 36.471 290.751 36.471Z" fill="#343434"/>
<path d="M298.681 48V37.437H300.571V41.805H306.157V37.437H308.047V48H306.157V43.317H300.571V48H298.681Z" fill="#343434"/>
<path d="M311.167 43.023V41.469H317.236V43.023H311.167Z" fill="#343434"/>
<path d="M33.638 72V61.437H42.941V72H41.051V62.928H35.528V72H33.638Z" fill="#343434"/>
<path d="M46.2722 76.536V63.936C46.2722 63.53 46.2582 63.117 46.2302 62.697C46.2022 62.277 46.1602 61.857 46.1042 61.437H47.9522L48.1832 63.873H47.9522C48.1622 63.061 48.6102 62.424 49.2962 61.962C49.9822 61.486 50.8012 61.248 51.7532 61.248C52.6912 61.248 53.5102 61.465 54.2102 61.899C54.9102 62.333 55.4492 62.963 55.8272 63.789C56.2192 64.601 56.4152 65.574 56.4152 66.708C56.4152 67.842 56.2192 68.822 55.8272 69.648C55.4492 70.474 54.9102 71.104 54.2102 71.538C53.5102 71.972 52.6912 72.189 51.7532 72.189C50.8152 72.189 50.0032 71.958 49.3172 71.496C48.6452 71.02 48.1902 70.383 47.9522 69.585H48.1832V76.536H46.2722ZM51.3122 70.677C52.2782 70.677 53.0482 70.341 53.6222 69.669C54.1962 68.997 54.4832 68.01 54.4832 66.708C54.4832 65.406 54.1962 64.426 53.6222 63.768C53.0482 63.11 52.2782 62.781 51.3122 62.781C50.3462 62.781 49.5762 63.11 49.0022 63.768C48.4422 64.426 48.1622 65.406 48.1622 66.708C48.1622 68.01 48.4422 68.997 49.0022 69.669C49.5762 70.341 50.3462 70.677 51.3122 70.677Z" fill="#343434"/>
<path d="M63.6647 72.189C62.6287 72.189 61.7327 71.972 60.9767 71.538C60.2207 71.09 59.6327 70.46 59.2127 69.648C58.7927 68.822 58.5827 67.842 58.5827 66.708C58.5827 65.588 58.7927 64.622 59.2127 63.81C59.6327 62.984 60.2207 62.354 60.9767 61.92C61.7327 61.472 62.6287 61.248 63.6647 61.248C64.7007 61.248 65.5967 61.472 66.3527 61.92C67.1227 62.354 67.7107 62.984 68.1167 63.81C68.5367 64.622 68.7467 65.588 68.7467 66.708C68.7467 67.842 68.5367 68.822 68.1167 69.648C67.7107 70.46 67.1227 71.09 66.3527 71.538C65.5967 71.972 64.7007 72.189 63.6647 72.189ZM63.6647 70.677C64.6167 70.677 65.3797 70.341 65.9537 69.669C66.5277 68.997 66.8147 68.01 66.8147 66.708C66.8147 65.406 66.5277 64.426 65.9537 63.768C65.3797 63.11 64.6167 62.781 63.6647 62.781C62.6987 62.781 61.9287 63.11 61.3547 63.768C60.7947 64.426 60.5147 65.406 60.5147 66.708C60.5147 68.01 60.7947 68.997 61.3547 69.669C61.9287 70.341 62.6987 70.677 63.6647 70.677Z" fill="#343434"/>
<path d="M76.3469 72.189C74.6669 72.189 73.3369 71.706 72.3569 70.74C71.3909 69.774 70.9079 68.444 70.9079 66.75C70.9079 65.63 71.1179 64.664 71.5379 63.852C71.9719 63.026 72.5669 62.389 73.3229 61.941C74.0789 61.479 74.9609 61.248 75.9689 61.248C76.9349 61.248 77.7539 61.458 78.4259 61.878C79.0979 62.284 79.6089 62.865 79.9589 63.621C80.3089 64.377 80.4839 65.273 80.4839 66.309V66.939H72.3989V65.805H79.1819L78.8249 66.078C78.8249 64.986 78.5799 64.139 78.0899 63.537C77.6139 62.935 76.9069 62.634 75.9689 62.634C74.9469 62.634 74.1559 62.991 73.5959 63.705C73.0359 64.405 72.7559 65.364 72.7559 66.582V66.771C72.7559 68.059 73.0709 69.032 73.7009 69.69C74.3449 70.348 75.2339 70.677 76.3679 70.677C76.9979 70.677 77.5859 70.586 78.1319 70.404C78.6779 70.222 79.2029 69.921 79.7069 69.501L80.3369 70.824C79.8609 71.258 79.2659 71.594 78.5519 71.832C77.8519 72.07 77.1169 72.189 76.3469 72.189Z" fill="#343434"/>
<path d="M83.1438 72V61.437H85.0338V65.805H86.9448L90.3468 61.437H92.4258L88.4778 66.582L87.9738 65.994C88.3798 66.036 88.7298 66.141 89.0238 66.309C89.3178 66.463 89.5978 66.694 89.8638 67.002C90.1438 67.31 90.4448 67.723 90.7668 68.241L92.9508 72H90.8928L88.9818 68.745C88.7718 68.367 88.5618 68.073 88.3518 67.863C88.1418 67.653 87.9038 67.506 87.6378 67.422C87.3858 67.338 87.0638 67.296 86.6718 67.296H85.0338V72H83.1438Z" fill="#343434"/>
<path d="M96.8552 72V62.97H93.0542V61.437H102.546V62.97H98.7452V72H96.8552Z" fill="#343434"/>
<path d="M104.287 72V61.437H106.177V65.175H109.285C110.657 65.175 111.686 65.469 112.372 66.057C113.072 66.631 113.422 67.464 113.422 68.556C113.422 69.256 113.261 69.865 112.939 70.383C112.617 70.901 112.148 71.3 111.532 71.58C110.916 71.86 110.167 72 109.285 72H104.287ZM106.177 70.677H109.075C109.915 70.677 110.545 70.509 110.965 70.173C111.399 69.823 111.616 69.291 111.616 68.577C111.616 67.863 111.399 67.338 110.965 67.002C110.545 66.666 109.915 66.498 109.075 66.498H106.177V70.677ZM114.955 72V61.437H116.845V72H114.955Z" fill="#343434"/>
<path d="M391 26C391 29.3137 388.314 32 385 32C381.686 32 379 29.3137 379 26C379 22.6863 381.686 20 385 20C388.314 20 391 22.6863 391 26Z" fill="#D3E4F0"/>
<defs>
<linearGradient id="paint0_linear_99_78" x1="205.5" y1="0" x2="205.5" y2="128" gradientUnits="userSpaceOnUse">
<stop stop-color="white"/>
<stop offset="1" stop-color="white" stop-opacity="0.8"/>
</linearGradient>
</defs>
</svg>
