<svg width="456" height="18" viewBox="0 0 456 18" fill="none" xmlns="http://www.w3.org/2000/svg">
<path d="M9.1261 13V8.03201C8.7781 8.18801 8.3401 8.31401 7.8121 8.41001C7.2841 8.50601 6.7561 8.55401 6.2281 8.55401C4.5241 8.55401 3.2161 8.11601 2.3041 7.24001C1.4041 6.36401 0.954102 5.03801 0.954102 3.26201V0.310005H3.2581V3.154C3.2581 4.35401 3.5221 5.23001 4.0501 5.78201C4.5901 6.32201 5.4001 6.59201 6.4801 6.59201C6.9361 6.59201 7.3861 6.55001 7.8301 6.46601C8.2861 6.38201 8.7181 6.24401 9.1261 6.05201V0.310005H11.4301V13H9.1261Z" fill="#343434"/>
<path d="M16.0546 13V5.67401H12.9406V3.91001H21.4186V5.67401H18.2866V13H16.0546Z" fill="#343434"/>
<path d="M26.8994 13.18C25.9634 13.18 25.1534 12.988 24.4694 12.604C23.7854 12.22 23.2514 11.674 22.8674 10.966C22.4954 10.258 22.3094 9.41801 22.3094 8.446C22.3094 7.474 22.4954 6.64 22.8674 5.94401C23.2514 5.236 23.7854 4.69001 24.4694 4.30601C25.1534 3.92201 25.9634 3.73 26.8994 3.73C27.8354 3.73 28.6454 3.92201 29.3294 4.30601C30.0254 4.69001 30.5594 5.236 30.9314 5.94401C31.3154 6.64 31.5074 7.474 31.5074 8.446C31.5074 9.41801 31.3154 10.258 30.9314 10.966C30.5594 11.674 30.0254 12.22 29.3294 12.604C28.6454 12.988 27.8354 13.18 26.8994 13.18ZM26.8994 11.452C27.6074 11.452 28.1714 11.206 28.5914 10.714C29.0114 10.21 29.2214 9.454 29.2214 8.446C29.2214 7.438 29.0114 6.688 28.5914 6.196C28.1714 5.704 27.6074 5.458 26.8994 5.458C26.1914 5.458 25.6274 5.704 25.2074 6.196C24.7874 6.688 24.5774 7.438 24.5774 8.446C24.5774 9.454 24.7874 10.21 25.2074 10.714C25.6274 11.206 26.1914 11.452 26.8994 11.452Z" fill="#343434"/>
<path d="M40.5409 13V5.67401H37.4269V3.91001H45.9049V5.67401H42.7729V13H40.5409Z" fill="#343434"/>
<path d="M47.2976 13V3.91001H49.5296V6.95201H51.9236C53.1356 6.95201 54.0476 7.21001 54.6596 7.72601C55.2716 8.23001 55.5776 8.96201 55.5776 9.92201C55.5776 10.546 55.4336 11.092 55.1456 11.56C54.8576 12.016 54.4376 12.37 53.8856 12.622C53.3456 12.874 52.6916 13 51.9236 13H47.2976ZM49.5296 11.524H51.6176C52.2296 11.524 52.6976 11.398 53.0216 11.146C53.3456 10.882 53.5076 10.486 53.5076 9.95801C53.5076 9.43001 53.3456 9.04601 53.0216 8.80601C52.7096 8.55401 52.2416 8.42801 51.6176 8.42801H49.5296V11.524ZM56.7116 13V3.91001H58.9436V13H56.7116Z" fill="#343434"/>
<path d="M66.4402 13V3.91001H74.9542V13H72.7222V5.63801H68.6722V13H66.4402Z" fill="#343434"/>
<path d="M81.6904 13.18C80.7544 13.18 79.9444 12.988 79.2604 12.604C78.5764 12.22 78.0424 11.674 77.6584 10.966C77.2864 10.258 77.1004 9.41801 77.1004 8.446C77.1004 7.474 77.2864 6.64 77.6584 5.94401C78.0424 5.236 78.5764 4.69001 79.2604 4.30601C79.9444 3.92201 80.7544 3.73 81.6904 3.73C82.6264 3.73 83.4364 3.92201 84.1204 4.30601C84.8164 4.69001 85.3504 5.236 85.7224 5.94401C86.1064 6.64 86.2984 7.474 86.2984 8.446C86.2984 9.41801 86.1064 10.258 85.7224 10.966C85.3504 11.674 84.8164 12.22 84.1204 12.604C83.4364 12.988 82.6264 13.18 81.6904 13.18ZM81.6904 11.452C82.3984 11.452 82.9624 11.206 83.3824 10.714C83.8024 10.21 84.0124 9.454 84.0124 8.446C84.0124 7.438 83.8024 6.688 83.3824 6.196C82.9624 5.704 82.3984 5.458 81.6904 5.458C80.9824 5.458 80.4184 5.704 79.9984 6.196C79.5784 6.688 79.3684 7.438 79.3684 8.446C79.3684 9.454 79.5784 10.21 79.9984 10.714C80.4184 11.206 80.9824 11.452 81.6904 11.452Z" fill="#343434"/>
<path d="M88.0207 13.252L87.3187 11.488C87.7147 11.344 88.0447 11.158 88.3087 10.93C88.5847 10.69 88.8007 10.39 88.9567 10.03C89.1247 9.65801 89.2447 9.20201 89.3167 8.66201C89.3887 8.11001 89.4247 7.45601 89.4247 6.70001V3.91001H96.6607V13H94.4287V5.63801H91.4767V6.77201C91.4767 8.08001 91.3567 9.17801 91.1167 10.066C90.8767 10.942 90.5047 11.638 90.0007 12.154C89.4967 12.67 88.8367 13.036 88.0207 13.252Z" fill="#343434"/>
<path d="M99.1154 17.086L98.5934 15.304C99.1574 15.184 99.6314 15.046 100.015 14.89C100.399 14.734 100.717 14.53 100.969 14.278C101.221 14.026 101.431 13.702 101.599 13.306L102.049 12.244L101.995 13.126L98.0354 3.91001H100.429L103.273 11.002H102.751L105.613 3.91001H107.881L103.741 13.504C103.465 14.152 103.165 14.686 102.841 15.106C102.517 15.538 102.169 15.88 101.797 16.132C101.425 16.396 101.017 16.6 100.573 16.744C100.129 16.888 99.6434 17.002 99.1154 17.086Z" fill="#343434"/>
<path d="M115.021 13V9.68801C114.685 9.84401 114.337 9.96401 113.977 10.048C113.617 10.132 113.239 10.174 112.843 10.174C111.511 10.174 110.515 9.85601 109.855 9.22001C109.207 8.58401 108.883 7.63601 108.883 6.37601V3.91001H111.115V6.17801C111.115 6.946 111.283 7.504 111.619 7.85201C111.955 8.188 112.495 8.35601 113.239 8.35601C113.587 8.35601 113.899 8.32001 114.175 8.24801C114.451 8.17601 114.715 8.06201 114.967 7.906V3.91001H117.199V13H115.021Z" fill="#343434"/>
<path d="M119.755 13V3.91001H121.789V10.786H121.249L126.415 3.91001H128.269V13H126.235V6.10601H126.793L121.609 13H119.755Z" fill="#343434"/>
<path d="M130.829 13V3.91001H132.935V11.272H136.139V3.91001H138.227V11.272H141.431V3.91001H143.537V13H130.829Z" fill="#343434"/>
<path d="M146.087 13V3.91001H148.319V6.95201H150.713C151.925 6.95201 152.837 7.21001 153.449 7.72601C154.061 8.23001 154.367 8.96201 154.367 9.92201C154.367 10.546 154.223 11.092 153.935 11.56C153.647 12.016 153.227 12.37 152.675 12.622C152.135 12.874 151.481 13 150.713 13H146.087ZM148.319 11.524H150.407C151.019 11.524 151.487 11.398 151.811 11.146C152.135 10.882 152.297 10.486 152.297 9.95801C152.297 9.43001 152.135 9.04601 151.811 8.80601C151.499 8.55401 151.031 8.42801 150.407 8.42801H148.319V11.524Z" fill="#343434"/>
<path d="M165.362 13.18C164.426 13.18 163.616 12.988 162.932 12.604C162.248 12.22 161.714 11.674 161.33 10.966C160.958 10.258 160.772 9.41801 160.772 8.446C160.772 7.474 160.958 6.64 161.33 5.94401C161.714 5.236 162.248 4.69001 162.932 4.30601C163.616 3.92201 164.426 3.73 165.362 3.73C166.298 3.73 167.108 3.92201 167.792 4.30601C168.488 4.69001 169.022 5.236 169.394 5.94401C169.778 6.64 169.97 7.474 169.97 8.446C169.97 9.41801 169.778 10.258 169.394 10.966C169.022 11.674 168.488 12.22 167.792 12.604C167.108 12.988 166.298 13.18 165.362 13.18ZM165.362 11.452C166.07 11.452 166.634 11.206 167.054 10.714C167.474 10.21 167.684 9.454 167.684 8.446C167.684 7.438 167.474 6.688 167.054 6.196C166.634 5.704 166.07 5.458 165.362 5.458C164.654 5.458 164.09 5.704 163.67 6.196C163.25 6.688 163.04 7.438 163.04 8.446C163.04 9.454 163.25 10.21 163.67 10.714C164.09 11.206 164.654 11.452 165.362 11.452Z" fill="#343434"/>
<path d="M174.064 13V5.67401H170.95V3.91001H179.428V5.67401H176.296V13H174.064Z" fill="#343434"/>
<path d="M185.761 13V3.91001H187.993V7.47401H189.361L192.025 3.91001H194.437L191.089 8.446L190.603 7.74401C190.939 7.78001 191.233 7.87001 191.485 8.01401C191.749 8.15801 191.995 8.36201 192.223 8.62601C192.463 8.87801 192.697 9.20201 192.925 9.59801L194.833 13H192.439L190.891 10.264C190.735 9.98801 190.579 9.77201 190.423 9.61601C190.267 9.46001 190.093 9.35201 189.901 9.29201C189.709 9.23201 189.475 9.20201 189.199 9.20201H187.993V13H185.761Z" fill="#343434"/>
<path d="M195.918 17.086L195.396 15.304C195.96 15.184 196.434 15.046 196.818 14.89C197.202 14.734 197.52 14.53 197.772 14.278C198.024 14.026 198.234 13.702 198.402 13.306L198.852 12.244L198.798 13.126L194.838 3.91001H197.232L200.076 11.002H199.554L202.416 3.91001H204.684L200.544 13.504C200.268 14.152 199.968 14.686 199.644 15.106C199.32 15.538 198.972 15.88 198.6 16.132C198.228 16.396 197.82 16.6 197.376 16.744C196.932 16.888 196.446 17.002 195.918 17.086Z" fill="#343434"/>
<path d="M206.118 16.888V6.17801C206.118 5.80601 206.106 5.42801 206.082 5.04401C206.058 4.66001 206.022 4.282 205.974 3.91001H208.152L208.35 5.81801H208.152C208.332 5.18201 208.71 4.67801 209.286 4.30601C209.874 3.92201 210.552 3.73 211.32 3.73C212.124 3.73 212.826 3.92201 213.426 4.30601C214.026 4.67801 214.494 5.21801 214.83 5.92601C215.166 6.62201 215.334 7.46201 215.334 8.446C215.334 9.43001 215.166 10.276 214.83 10.984C214.494 11.692 214.026 12.238 213.426 12.622C212.826 12.994 212.124 13.18 211.32 13.18C210.564 13.18 209.898 12.994 209.322 12.622C208.746 12.25 208.362 11.752 208.17 11.128H208.368V16.888H206.118ZM210.69 11.452C211.41 11.452 211.986 11.206 212.418 10.714C212.85 10.21 213.066 9.454 213.066 8.446C213.066 7.438 212.85 6.688 212.418 6.196C211.986 5.704 211.41 5.458 210.69 5.458C209.982 5.458 209.412 5.704 208.98 6.196C208.548 6.688 208.332 7.438 208.332 8.446C208.332 9.454 208.548 10.21 208.98 10.714C209.412 11.206 209.982 11.452 210.69 11.452Z" fill="#343434"/>
<path d="M221.702 13.18C220.766 13.18 219.944 12.988 219.236 12.604C218.54 12.22 218 11.674 217.616 10.966C217.232 10.246 217.04 9.39401 217.04 8.41001C217.04 7.42601 217.232 6.58601 217.616 5.89001C218.012 5.19401 218.558 4.66001 219.254 4.288C219.95 3.916 220.766 3.73 221.702 3.73C222.302 3.73 222.884 3.826 223.448 4.01801C224.024 4.198 224.492 4.46201 224.852 4.81001L224.168 6.37601C223.844 6.07601 223.478 5.85401 223.07 5.71C222.674 5.55401 222.284 5.47601 221.9 5.47601C221.096 5.47601 220.466 5.72801 220.01 6.23201C219.566 6.73601 219.344 7.46801 219.344 8.42801C219.344 9.38801 219.566 10.126 220.01 10.642C220.466 11.158 221.096 11.416 221.9 11.416C222.272 11.416 222.656 11.344 223.052 11.2C223.46 11.056 223.832 10.834 224.168 10.534L224.852 12.082C224.48 12.43 224.006 12.7 223.43 12.892C222.866 13.084 222.29 13.18 221.702 13.18Z" fill="#343434"/>
<path d="M230.352 13.18C229.56 13.18 228.864 12.994 228.264 12.622C227.664 12.238 227.196 11.692 226.86 10.984C226.524 10.276 226.356 9.43001 226.356 8.446C226.356 7.46201 226.524 6.62201 226.86 5.92601C227.196 5.21801 227.664 4.67801 228.264 4.30601C228.864 3.92201 229.56 3.73 230.352 3.73C231.12 3.73 231.792 3.92201 232.368 4.30601C232.956 4.67801 233.346 5.18201 233.538 5.81801H233.34L233.538 3.91001H235.698C235.662 4.282 235.626 4.66001 235.59 5.04401C235.566 5.42801 235.554 5.80601 235.554 6.17801V13H233.322L233.304 11.128H233.52C233.328 11.752 232.938 12.25 232.35 12.622C231.762 12.994 231.096 13.18 230.352 13.18ZM230.982 11.452C231.69 11.452 232.26 11.206 232.692 10.714C233.124 10.21 233.34 9.454 233.34 8.446C233.34 7.438 233.124 6.688 232.692 6.196C232.26 5.704 231.69 5.458 230.982 5.458C230.274 5.458 229.704 5.704 229.272 6.196C228.84 6.688 228.624 7.438 228.624 8.446C228.624 9.454 228.834 10.21 229.254 10.714C229.686 11.206 230.262 11.452 230.982 11.452Z" fill="#343434"/>
<path d="M239.803 9.23801V8.51801C239.803 7.95401 239.911 7.43201 240.127 6.95201C240.343 6.47201 240.715 5.95001 241.243 5.38601C241.639 4.96601 241.915 4.6 242.071 4.288C242.239 3.964 242.323 3.64 242.323 3.316C242.323 2.908 242.167 2.59 241.855 2.362C241.555 2.13401 241.135 2.02001 240.595 2.02001C240.127 2.02001 239.665 2.09201 239.209 2.236C238.753 2.38 238.321 2.57201 237.913 2.812V0.868005C238.333 0.628005 238.807 0.448005 239.335 0.328004C239.875 0.196005 240.403 0.130005 240.919 0.130005C241.627 0.130005 242.257 0.238005 242.809 0.454005C243.373 0.658005 243.811 0.976005 244.123 1.408C244.447 1.828 244.609 2.36801 244.609 3.02801C244.609 3.42401 244.537 3.808 244.393 4.18001C244.261 4.54001 244.069 4.88801 243.817 5.22401C243.565 5.56001 243.253 5.89601 242.881 6.23201C242.293 6.74801 241.885 7.19801 241.657 7.58201C241.429 7.96601 241.291 8.35 241.243 8.734L241.171 9.23801H239.803ZM239.227 13V10.498H241.747V13H239.227Z" fill="#343434"/>
<path d="M258 6H456V7H258V6Z" fill="#D1CEB9"/>
</svg>
