<svg width="411" height="128" viewBox="0 0 411 128" fill="none" xmlns="http://www.w3.org/2000/svg">
<rect width="411" height="128" rx="16" fill="url(#paint0_linear_99_72)"/>
<path d="M33.6382 48V33.195H40.1272C41.7372 33.195 42.9762 33.538 43.8442 34.224C44.7122 34.896 45.1462 35.834 45.1462 37.038C45.1462 37.934 44.8802 38.69 44.3482 39.306C43.8162 39.922 43.0812 40.335 42.1432 40.545V40.23C43.2212 40.384 44.0542 40.776 44.6422 41.406C45.2442 42.022 45.5452 42.841 45.5452 43.863C45.5452 45.179 45.0902 46.201 44.1802 46.929C43.2702 47.643 42.0032 48 40.3792 48H33.6382ZM36.2422 45.942H40.0642C40.9742 45.942 41.6812 45.774 42.1852 45.438C42.6892 45.088 42.9412 44.521 42.9412 43.737C42.9412 42.939 42.6892 42.372 42.1852 42.036C41.6812 41.686 40.9742 41.511 40.0642 41.511H36.2422V45.942ZM36.2422 39.474H39.6652C40.6312 39.474 41.3452 39.299 41.8072 38.949C42.2832 38.585 42.5212 38.053 42.5212 37.353C42.5212 36.653 42.2832 36.128 41.8072 35.778C41.3452 35.414 40.6312 35.232 39.6652 35.232H36.2422V39.474Z" fill="#343434"/>
<path d="M47.0452 50.73V46.005H48.2632C48.6832 45.347 48.9842 44.577 49.1662 43.695C49.3622 42.799 49.4602 41.707 49.4602 40.419V37.395H57.6292V46.005H59.3512V50.73H57.1252V48H49.2712V50.73H47.0452ZM50.6152 46.026H55.1722V39.369H51.6862V41.007C51.6862 41.945 51.5952 42.862 51.4132 43.758C51.2312 44.654 50.9652 45.41 50.6152 46.026Z" fill="#343434"/>
<path d="M66.1513 48.21C65.0593 48.21 64.1143 47.986 63.3163 47.538C62.5183 47.09 61.8953 46.453 61.4473 45.627C61.0133 44.801 60.7963 43.821 60.7963 42.687C60.7963 41.553 61.0133 40.58 61.4473 39.768C61.8953 38.942 62.5183 38.305 63.3163 37.857C64.1143 37.409 65.0593 37.185 66.1513 37.185C67.2433 37.185 68.1883 37.409 68.9863 37.857C69.7983 38.305 70.4213 38.942 70.8553 39.768C71.3033 40.58 71.5273 41.553 71.5273 42.687C71.5273 43.821 71.3033 44.801 70.8553 45.627C70.4213 46.453 69.7983 47.09 68.9863 47.538C68.1883 47.986 67.2433 48.21 66.1513 48.21ZM66.1513 46.194C66.9773 46.194 67.6353 45.907 68.1253 45.333C68.6153 44.745 68.8603 43.863 68.8603 42.687C68.8603 41.511 68.6153 40.636 68.1253 40.062C67.6353 39.488 66.9773 39.201 66.1513 39.201C65.3253 39.201 64.6673 39.488 64.1773 40.062C63.6873 40.636 63.4423 41.511 63.4423 42.687C63.4423 43.863 63.6873 44.745 64.1773 45.333C64.6673 45.907 65.3253 46.194 66.1513 46.194Z" fill="#343434"/>
<path d="M72.2556 48L77.1906 41.931V43.128L72.5286 37.395H75.6366L78.6816 41.322H77.7366L80.7816 37.395H83.8686L79.2486 43.128V41.931L84.1626 48H81.0336L77.7366 43.779H78.6816L75.3636 48H72.2556Z" fill="#343434"/>
<path d="M85.6426 48V37.395H88.2466V41.553H93.0346V37.395H95.6386V48H93.0346V43.569H88.2466V48H85.6426Z" fill="#343434"/>
<path d="M103.496 48.21C102.404 48.21 101.459 47.986 100.661 47.538C99.863 47.09 99.24 46.453 98.792 45.627C98.358 44.801 98.141 43.821 98.141 42.687C98.141 41.553 98.358 40.58 98.792 39.768C99.24 38.942 99.863 38.305 100.661 37.857C101.459 37.409 102.404 37.185 103.496 37.185C104.588 37.185 105.533 37.409 106.331 37.857C107.143 38.305 107.766 38.942 108.2 39.768C108.648 40.58 108.872 41.553 108.872 42.687C108.872 43.821 108.648 44.801 108.2 45.627C107.766 46.453 107.143 47.09 106.331 47.538C105.533 47.986 104.588 48.21 103.496 48.21ZM103.496 46.194C104.322 46.194 104.98 45.907 105.47 45.333C105.96 44.745 106.205 43.863 106.205 42.687C106.205 41.511 105.96 40.636 105.47 40.062C104.98 39.488 104.322 39.201 103.496 39.201C102.67 39.201 102.012 39.488 101.522 40.062C101.032 40.636 100.787 41.511 100.787 42.687C100.787 43.863 101.032 44.745 101.522 45.333C102.012 45.907 102.67 46.194 103.496 46.194Z" fill="#343434"/>
<path d="M111.359 48V37.395H117.008C118.338 37.395 119.311 37.64 119.927 38.13C120.543 38.606 120.851 39.285 120.851 40.167C120.851 40.839 120.627 41.399 120.179 41.847C119.731 42.295 119.136 42.575 118.394 42.687V42.393C119.304 42.449 120.004 42.715 120.494 43.191C120.984 43.667 121.229 44.283 121.229 45.039C121.229 45.949 120.879 46.67 120.179 47.202C119.479 47.734 118.485 48 117.197 48H111.359ZM113.795 46.383H116.924C117.54 46.383 118.009 46.257 118.331 46.005C118.667 45.753 118.835 45.382 118.835 44.892C118.835 44.402 118.667 44.031 118.331 43.779C118.009 43.527 117.54 43.401 116.924 43.401H113.795V46.383ZM113.795 41.784H116.693C117.253 41.784 117.687 41.665 117.995 41.427C118.303 41.175 118.457 40.825 118.457 40.377C118.457 39.929 118.303 39.586 117.995 39.348C117.687 39.11 117.253 38.991 116.693 38.991H113.795V41.784Z" fill="#343434"/>
<path d="M128.729 48.21C126.951 48.21 125.557 47.72 124.549 46.74C123.541 45.76 123.038 44.416 123.038 42.708C123.038 41.602 123.254 40.636 123.688 39.81C124.122 38.984 124.724 38.34 125.494 37.878C126.278 37.416 127.189 37.185 128.225 37.185C129.247 37.185 130.101 37.402 130.787 37.836C131.473 38.27 131.99 38.879 132.34 39.663C132.704 40.447 132.887 41.364 132.887 42.414V43.107H125.159V41.721H131.018L130.66 42.015C130.66 41.035 130.451 40.286 130.031 39.768C129.625 39.25 129.03 38.991 128.246 38.991C127.378 38.991 126.705 39.299 126.229 39.915C125.767 40.531 125.537 41.392 125.537 42.498V42.771C125.537 43.919 125.817 44.78 126.377 45.354C126.951 45.914 127.756 46.194 128.792 46.194C129.394 46.194 129.954 46.117 130.472 45.963C131.004 45.795 131.508 45.529 131.984 45.165L132.761 46.929C132.257 47.335 131.655 47.65 130.955 47.874C130.255 48.098 129.513 48.21 128.729 48.21Z" fill="#343434"/>
<path d="M135.312 48V37.395H137.916V41.553H142.704V37.395H145.308V48H142.704V43.569H137.916V48H135.312Z" fill="#343434"/>
<path d="M148.294 48V37.395H150.667V45.417H150.037L156.064 37.395H158.227V48H155.854V39.957H156.505L150.457 48H148.294Z" fill="#343434"/>
<path d="M166.422 48.21C164.644 48.21 163.251 47.72 162.243 46.74C161.235 45.76 160.731 44.416 160.731 42.708C160.731 41.602 160.948 40.636 161.382 39.81C161.816 38.984 162.418 38.34 163.188 37.878C163.972 37.416 164.882 37.185 165.918 37.185C166.94 37.185 167.794 37.402 168.48 37.836C169.166 38.27 169.684 38.879 170.034 39.663C170.398 40.447 170.58 41.364 170.58 42.414V43.107H162.852V41.721H168.711L168.354 42.015C168.354 41.035 168.144 40.286 167.724 39.768C167.318 39.25 166.723 38.991 165.939 38.991C165.071 38.991 164.399 39.299 163.923 39.915C163.461 40.531 163.23 41.392 163.23 42.498V42.771C163.23 43.919 163.51 44.78 164.07 45.354C164.644 45.914 165.449 46.194 166.485 46.194C167.087 46.194 167.647 46.117 168.165 45.963C168.697 45.795 169.201 45.529 169.677 45.165L170.454 46.929C169.95 47.335 169.348 47.65 168.648 47.874C167.948 48.098 167.206 48.21 166.422 48.21Z" fill="#343434"/>
<path d="M33.6382 72V61.437H35.5282V65.805H41.1142V61.437H43.0042V72H41.1142V67.317H35.5282V72H33.6382Z" fill="#343434"/>
<path d="M50.366 72.189C49.442 72.189 48.63 71.972 47.93 71.538C47.23 71.104 46.684 70.474 46.292 69.648C45.9 68.822 45.704 67.842 45.704 66.708C45.704 65.574 45.9 64.601 46.292 63.789C46.684 62.963 47.23 62.333 47.93 61.899C48.63 61.465 49.442 61.248 50.366 61.248C51.304 61.248 52.116 61.486 52.802 61.962C53.502 62.424 53.964 63.061 54.188 63.873H53.936L54.167 61.437H56.015C55.973 61.857 55.931 62.277 55.889 62.697C55.861 63.117 55.847 63.53 55.847 63.936V72H53.936V69.585H54.167C53.943 70.383 53.481 71.02 52.781 71.496C52.095 71.958 51.29 72.189 50.366 72.189ZM50.807 70.677C51.759 70.677 52.522 70.341 53.096 69.669C53.67 68.997 53.957 68.01 53.957 66.708C53.957 65.406 53.67 64.426 53.096 63.768C52.522 63.11 51.759 62.781 50.807 62.781C49.855 62.781 49.085 63.11 48.497 63.768C47.923 64.426 47.636 65.406 47.636 66.708C47.636 68.01 47.923 68.997 48.497 69.669C49.071 70.341 49.841 70.677 50.807 70.677Z" fill="#343434"/>
<path d="M64.7486 72V61.437H74.0516V72H72.1616V62.928H66.6386V72H64.7486Z" fill="#343434"/>
<path d="M77.3828 76.536V63.936C77.3828 63.53 77.3688 63.117 77.3408 62.697C77.3128 62.277 77.2708 61.857 77.2148 61.437H79.0628L79.2938 63.873H79.0628C79.2728 63.061 79.7208 62.424 80.4068 61.962C81.0928 61.486 81.9118 61.248 82.8638 61.248C83.8018 61.248 84.6208 61.465 85.3208 61.899C86.0208 62.333 86.5598 62.963 86.9378 63.789C87.3298 64.601 87.5258 65.574 87.5258 66.708C87.5258 67.842 87.3298 68.822 86.9378 69.648C86.5598 70.474 86.0208 71.104 85.3208 71.538C84.6208 71.972 83.8018 72.189 82.8638 72.189C81.9258 72.189 81.1138 71.958 80.4278 71.496C79.7558 71.02 79.3008 70.383 79.0628 69.585H79.2938V76.536H77.3828ZM82.4228 70.677C83.3888 70.677 84.1588 70.341 84.7328 69.669C85.3068 68.997 85.5938 68.01 85.5938 66.708C85.5938 65.406 85.3068 64.426 84.7328 63.768C84.1588 63.11 83.3888 62.781 82.4228 62.781C81.4568 62.781 80.6868 63.11 80.1128 63.768C79.5528 64.426 79.2728 65.406 79.2728 66.708C79.2728 68.01 79.5528 68.997 80.1128 69.669C80.6868 70.341 81.4568 70.677 82.4228 70.677Z" fill="#343434"/>
<path d="M94.7753 72.189C93.7393 72.189 92.8433 71.972 92.0873 71.538C91.3313 71.09 90.7433 70.46 90.3233 69.648C89.9033 68.822 89.6933 67.842 89.6933 66.708C89.6933 65.588 89.9033 64.622 90.3233 63.81C90.7433 62.984 91.3313 62.354 92.0873 61.92C92.8433 61.472 93.7393 61.248 94.7753 61.248C95.8113 61.248 96.7073 61.472 97.4633 61.92C98.2333 62.354 98.8213 62.984 99.2273 63.81C99.6473 64.622 99.8573 65.588 99.8573 66.708C99.8573 67.842 99.6473 68.822 99.2273 69.648C98.8213 70.46 98.2333 71.09 97.4633 71.538C96.7073 71.972 95.8113 72.189 94.7753 72.189ZM94.7753 70.677C95.7273 70.677 96.4903 70.341 97.0643 69.669C97.6383 68.997 97.9253 68.01 97.9253 66.708C97.9253 65.406 97.6383 64.426 97.0643 63.768C96.4903 63.11 95.7273 62.781 94.7753 62.781C93.8093 62.781 93.0393 63.11 92.4653 63.768C91.9053 64.426 91.6253 65.406 91.6253 66.708C91.6253 68.01 91.9053 68.997 92.4653 69.669C93.0393 70.341 93.8093 70.677 94.7753 70.677Z" fill="#343434"/>
<path d="M108.675 76.536V69.711H108.885C108.675 70.509 108.304 71.125 107.772 71.559C107.254 71.979 106.617 72.189 105.861 72.189C105.105 72.189 104.433 71.965 103.845 71.517C103.271 71.069 102.823 70.439 102.501 69.627C102.179 68.801 102.018 67.828 102.018 66.708C102.018 65.588 102.172 64.622 102.48 63.81C102.802 62.984 103.25 62.354 103.824 61.92C104.412 61.472 105.091 61.248 105.861 61.248C106.617 61.248 107.254 61.465 107.772 61.899C108.304 62.319 108.675 62.921 108.885 63.705H108.675V56.544H110.565V63.705H110.355C110.579 62.921 110.95 62.319 111.468 61.899C111.986 61.465 112.623 61.248 113.379 61.248C114.149 61.248 114.821 61.472 115.395 61.92C115.983 62.354 116.431 62.984 116.739 63.81C117.061 64.622 117.222 65.588 117.222 66.708C117.222 67.828 117.061 68.801 116.739 69.627C116.431 70.439 115.99 71.069 115.416 71.517C114.842 71.965 114.163 72.189 113.379 72.189C112.637 72.189 112 71.979 111.468 71.559C110.95 71.125 110.579 70.509 110.355 69.711H110.565V76.536H108.675ZM106.323 70.698C107.065 70.698 107.646 70.362 108.066 69.69C108.5 69.018 108.717 68.024 108.717 66.708C108.717 65.42 108.5 64.433 108.066 63.747C107.632 63.061 107.051 62.718 106.323 62.718C105.581 62.718 104.993 63.061 104.559 63.747C104.139 64.433 103.929 65.42 103.929 66.708C103.929 68.024 104.139 69.018 104.559 69.69C104.993 70.362 105.581 70.698 106.323 70.698ZM112.917 70.698C113.659 70.698 114.247 70.362 114.681 69.69C115.115 69.018 115.332 68.024 115.332 66.708C115.332 65.42 115.115 64.433 114.681 63.747C114.247 63.061 113.659 62.718 112.917 62.718C112.175 62.718 111.594 63.061 111.174 63.747C110.754 64.433 110.544 65.42 110.544 66.708C110.544 68.024 110.754 69.018 111.174 69.69C111.594 70.362 112.175 70.698 112.917 70.698Z" fill="#343434"/>
<path d="M124.807 72.189C123.127 72.189 121.797 71.706 120.817 70.74C119.851 69.774 119.368 68.444 119.368 66.75C119.368 65.63 119.578 64.664 119.998 63.852C120.432 63.026 121.027 62.389 121.783 61.941C122.539 61.479 123.421 61.248 124.429 61.248C125.395 61.248 126.214 61.458 126.886 61.878C127.558 62.284 128.069 62.865 128.419 63.621C128.769 64.377 128.944 65.273 128.944 66.309V66.939H120.859V65.805H127.642L127.285 66.078C127.285 64.986 127.04 64.139 126.55 63.537C126.074 62.935 125.367 62.634 124.429 62.634C123.407 62.634 122.616 62.991 122.056 63.705C121.496 64.405 121.216 65.364 121.216 66.582V66.771C121.216 68.059 121.531 69.032 122.161 69.69C122.805 70.348 123.694 70.677 124.828 70.677C125.458 70.677 126.046 70.586 126.592 70.404C127.138 70.222 127.663 69.921 128.167 69.501L128.797 70.824C128.321 71.258 127.726 71.594 127.012 71.832C126.312 72.07 125.577 72.189 124.807 72.189Z" fill="#343434"/>
<path d="M136.203 72.189C135.153 72.189 134.243 71.972 133.473 71.538C132.703 71.09 132.101 70.453 131.667 69.627C131.247 68.787 131.037 67.793 131.037 66.645C131.037 65.511 131.254 64.545 131.688 63.747C132.122 62.935 132.724 62.319 133.494 61.899C134.264 61.465 135.167 61.248 136.203 61.248C136.889 61.248 137.554 61.367 138.198 61.605C138.842 61.829 139.367 62.158 139.773 62.592L139.122 63.936C138.716 63.544 138.268 63.257 137.778 63.075C137.288 62.879 136.805 62.781 136.329 62.781C135.293 62.781 134.481 63.117 133.893 63.789C133.305 64.447 133.011 65.406 133.011 66.666C133.011 67.94 133.305 68.92 133.893 69.606C134.481 70.292 135.293 70.635 136.329 70.635C136.791 70.635 137.267 70.544 137.757 70.362C138.247 70.18 138.702 69.893 139.122 69.501L139.773 70.824C139.353 71.272 138.814 71.615 138.156 71.853C137.512 72.077 136.861 72.189 136.203 72.189Z" fill="#343434"/>
<path d="M146.867 72.189C145.817 72.189 144.907 71.972 144.137 71.538C143.367 71.09 142.765 70.453 142.331 69.627C141.911 68.787 141.701 67.793 141.701 66.645C141.701 65.511 141.918 64.545 142.352 63.747C142.786 62.935 143.388 62.319 144.158 61.899C144.928 61.465 145.831 61.248 146.867 61.248C147.553 61.248 148.218 61.367 148.862 61.605C149.506 61.829 150.031 62.158 150.437 62.592L149.786 63.936C149.38 63.544 148.932 63.257 148.442 63.075C147.952 62.879 147.469 62.781 146.993 62.781C145.957 62.781 145.145 63.117 144.557 63.789C143.969 64.447 143.675 65.406 143.675 66.666C143.675 67.94 143.969 68.92 144.557 69.606C145.145 70.292 145.957 70.635 146.993 70.635C147.455 70.635 147.931 70.544 148.421 70.362C148.911 70.18 149.366 69.893 149.786 69.501L150.437 70.824C150.017 71.272 149.478 71.615 148.82 71.853C148.176 72.077 147.525 72.189 146.867 72.189Z" fill="#343434"/>
<path d="M152.932 72V61.437H154.675V70.194H154.108L160.66 61.437H162.256V72H160.513V63.222H161.101L154.528 72H152.932Z" fill="#343434"/>
<path d="M170.039 72.189C169.003 72.189 168.107 71.972 167.351 71.538C166.595 71.09 166.007 70.46 165.587 69.648C165.167 68.822 164.957 67.842 164.957 66.708C164.957 65.588 165.167 64.622 165.587 63.81C166.007 62.984 166.595 62.354 167.351 61.92C168.107 61.472 169.003 61.248 170.039 61.248C171.075 61.248 171.971 61.472 172.727 61.92C173.497 62.354 174.085 62.984 174.491 63.81C174.911 64.622 175.121 65.588 175.121 66.708C175.121 67.842 174.911 68.822 174.491 69.648C174.085 70.46 173.497 71.09 172.727 71.538C171.971 71.972 171.075 72.189 170.039 72.189ZM170.039 70.677C170.991 70.677 171.754 70.341 172.328 69.669C172.902 68.997 173.189 68.01 173.189 66.708C173.189 65.406 172.902 64.426 172.328 63.768C171.754 63.11 170.991 62.781 170.039 62.781C169.073 62.781 168.303 63.11 167.729 63.768C167.169 64.426 166.889 65.406 166.889 66.708C166.889 68.01 167.169 68.997 167.729 69.669C168.303 70.341 169.073 70.677 170.039 70.677Z" fill="#343434"/>
<path d="M177.849 72V61.437H179.739V65.805H185.325V61.437H187.215V72H185.325V67.317H179.739V72H177.849Z" fill="#343434"/>
<path d="M194.577 72.189C193.653 72.189 192.841 71.972 192.141 71.538C191.441 71.104 190.895 70.474 190.503 69.648C190.111 68.822 189.915 67.842 189.915 66.708C189.915 65.574 190.111 64.601 190.503 63.789C190.895 62.963 191.441 62.333 192.141 61.899C192.841 61.465 193.653 61.248 194.577 61.248C195.515 61.248 196.327 61.486 197.013 61.962C197.713 62.424 198.175 63.061 198.399 63.873H198.147L198.378 61.437H200.226C200.184 61.857 200.142 62.277 200.1 62.697C200.072 63.117 200.058 63.53 200.058 63.936V72H198.147V69.585H198.378C198.154 70.383 197.692 71.02 196.992 71.496C196.306 71.958 195.501 72.189 194.577 72.189ZM195.018 70.677C195.97 70.677 196.733 70.341 197.307 69.669C197.881 68.997 198.168 68.01 198.168 66.708C198.168 65.406 197.881 64.426 197.307 63.768C196.733 63.11 195.97 62.781 195.018 62.781C194.066 62.781 193.296 63.11 192.708 63.768C192.134 64.426 191.847 65.406 191.847 66.708C191.847 68.01 192.134 68.997 192.708 69.669C193.282 70.341 194.052 70.677 195.018 70.677Z" fill="#343434"/>
<path d="M202.918 72.252L202.246 70.761C202.736 70.537 203.142 70.271 203.464 69.963C203.8 69.641 204.059 69.235 204.241 68.745C204.437 68.255 204.577 67.646 204.661 66.918C204.745 66.19 204.787 65.308 204.787 64.272V61.437H212.578V72H210.688V62.928H206.551V64.314C206.551 65.938 206.425 67.282 206.173 68.346C205.935 69.396 205.55 70.229 205.018 70.845C204.5 71.461 203.8 71.93 202.918 72.252Z" fill="#343434"/>
<path d="M215.85 72V61.437H217.74V65.175H220.848C222.22 65.175 223.249 65.469 223.935 66.057C224.635 66.631 224.985 67.464 224.985 68.556C224.985 69.256 224.824 69.865 224.502 70.383C224.18 70.901 223.711 71.3 223.095 71.58C222.479 71.86 221.73 72 220.848 72H215.85ZM217.74 70.677H220.638C221.464 70.677 222.094 70.509 222.528 70.173C222.962 69.823 223.179 69.291 223.179 68.577C223.179 67.863 222.962 67.338 222.528 67.002C222.108 66.666 221.478 66.498 220.638 66.498H217.74V70.677Z" fill="#343434"/>
<path d="M227.437 72V61.437H229.327V65.805H234.913V61.437H236.803V72H234.913V67.317H229.327V72H227.437Z" fill="#343434"/>
<path d="M239.776 76.767L239.335 75.213C239.993 75.059 240.539 74.877 240.973 74.667C241.407 74.471 241.771 74.212 242.065 73.89C242.359 73.568 242.618 73.162 242.842 72.672L243.367 71.412L243.325 72.21L238.726 61.437H240.784L244.459 70.488H243.913L247.588 61.437H249.562L244.711 72.819C244.417 73.505 244.095 74.079 243.745 74.541C243.409 75.003 243.038 75.381 242.632 75.675C242.24 75.969 241.806 76.2 241.33 76.368C240.854 76.536 240.336 76.669 239.776 76.767Z" fill="#343434"/>
<path d="M260.439 72.189C258.997 72.189 257.828 71.762 256.932 70.908C256.05 70.04 255.546 68.843 255.42 67.317H253.362V72H251.493V61.437H253.362V65.805H255.441C255.623 64.377 256.155 63.264 257.037 62.466C257.919 61.654 259.053 61.248 260.439 61.248C261.475 61.248 262.371 61.465 263.127 61.899C263.897 62.333 264.492 62.963 264.912 63.789C265.332 64.601 265.542 65.574 265.542 66.708C265.542 67.842 265.332 68.822 264.912 69.648C264.492 70.46 263.897 71.09 263.127 71.538C262.371 71.972 261.475 72.189 260.439 72.189ZM260.439 70.677C261.405 70.677 262.175 70.348 262.749 69.69C263.323 69.018 263.61 68.024 263.61 66.708C263.61 65.406 263.323 64.426 262.749 63.768C262.175 63.096 261.405 62.76 260.439 62.76C259.473 62.76 258.703 63.096 258.129 63.768C257.555 64.426 257.268 65.406 257.268 66.708C257.268 68.024 257.555 69.018 258.129 69.69C258.703 70.348 259.473 70.677 260.439 70.677Z" fill="#343434"/>
<path d="M33.7012 100.536V87.936C33.7012 87.53 33.6872 87.117 33.6592 86.697C33.6312 86.277 33.5892 85.857 33.5332 85.437H35.3812L35.6122 87.873H35.3812C35.5912 87.061 36.0392 86.424 36.7252 85.962C37.4112 85.486 38.2302 85.248 39.1822 85.248C40.1202 85.248 40.9392 85.465 41.6392 85.899C42.3392 86.333 42.8782 86.963 43.2562 87.789C43.6482 88.601 43.8442 89.574 43.8442 90.708C43.8442 91.842 43.6482 92.822 43.2562 93.648C42.8782 94.474 42.3392 95.104 41.6392 95.538C40.9392 95.972 40.1202 96.189 39.1822 96.189C38.2442 96.189 37.4322 95.958 36.7462 95.496C36.0742 95.02 35.6192 94.383 35.3812 93.585H35.6122V100.536H33.7012ZM38.7412 94.677C39.7072 94.677 40.4772 94.341 41.0512 93.669C41.6252 92.997 41.9122 92.01 41.9122 90.708C41.9122 89.406 41.6252 88.426 41.0512 87.768C40.4772 87.11 39.7072 86.781 38.7412 86.781C37.7752 86.781 37.0052 87.11 36.4312 87.768C35.8712 88.426 35.5912 89.406 35.5912 90.708C35.5912 92.01 35.8712 92.997 36.4312 93.669C37.0052 94.341 37.7752 94.677 38.7412 94.677Z" fill="#343434"/>
<path d="M51.4506 96.189C49.7706 96.189 48.4406 95.706 47.4606 94.74C46.4946 93.774 46.0116 92.444 46.0116 90.75C46.0116 89.63 46.2216 88.664 46.6416 87.852C47.0756 87.026 47.6706 86.389 48.4266 85.941C49.1826 85.479 50.0646 85.248 51.0726 85.248C52.0386 85.248 52.8576 85.458 53.5296 85.878C54.2016 86.284 54.7126 86.865 55.0626 87.621C55.4126 88.377 55.5876 89.273 55.5876 90.309V90.939H47.5026V89.805H54.2856L53.9286 90.078C53.9286 88.986 53.6836 88.139 53.1936 87.537C52.7176 86.935 52.0106 86.634 51.0726 86.634C50.0506 86.634 49.2596 86.991 48.6996 87.705C48.1396 88.405 47.8596 89.364 47.8596 90.582V90.771C47.8596 92.059 48.1746 93.032 48.8046 93.69C49.4486 94.348 50.3376 94.677 51.4716 94.677C52.1016 94.677 52.6896 94.586 53.2356 94.404C53.7816 94.222 54.3066 93.921 54.8106 93.501L55.4406 94.824C54.9646 95.258 54.3696 95.594 53.6556 95.832C52.9556 96.07 52.2206 96.189 51.4506 96.189Z" fill="#343434"/>
<path d="M62.3426 96.189C61.4186 96.189 60.6066 95.972 59.9066 95.538C59.2066 95.104 58.6606 94.474 58.2686 93.648C57.8766 92.822 57.6806 91.842 57.6806 90.708C57.6806 89.574 57.8766 88.601 58.2686 87.789C58.6606 86.963 59.2066 86.333 59.9066 85.899C60.6066 85.465 61.4186 85.248 62.3426 85.248C63.2806 85.248 64.0926 85.486 64.7786 85.962C65.4786 86.424 65.9406 87.061 66.1646 87.873H65.9126L66.1436 85.437H67.9916C67.9496 85.857 67.9076 86.277 67.8656 86.697C67.8376 87.117 67.8236 87.53 67.8236 87.936V96H65.9126V93.585H66.1436C65.9196 94.383 65.4576 95.02 64.7576 95.496C64.0716 95.958 63.2666 96.189 62.3426 96.189ZM62.7836 94.677C63.7356 94.677 64.4986 94.341 65.0726 93.669C65.6466 92.997 65.9336 92.01 65.9336 90.708C65.9336 89.406 65.6466 88.426 65.0726 87.768C64.4986 87.11 63.7356 86.781 62.7836 86.781C61.8316 86.781 61.0616 87.11 60.4736 87.768C59.8996 88.426 59.6126 89.406 59.6126 90.708C59.6126 92.01 59.8996 92.997 60.4736 93.669C61.0476 94.341 61.8176 94.677 62.7836 94.677Z" fill="#343434"/>
<path d="M70.684 96.252L70.012 94.761C70.502 94.537 70.908 94.271 71.23 93.963C71.566 93.641 71.825 93.235 72.007 92.745C72.203 92.255 72.343 91.646 72.427 90.918C72.511 90.19 72.553 89.308 72.553 88.272V85.437H80.344V96H78.454V86.928H74.317V88.314C74.317 89.938 74.191 91.282 73.939 92.346C73.701 93.396 73.316 94.229 72.784 94.845C72.266 95.461 71.566 95.93 70.684 96.252Z" fill="#343434"/>
<path d="M83.6157 96V85.437H85.3587V94.194H84.7917L91.3437 85.437H92.9397V96H91.1967V87.222H91.7847L85.2117 96H83.6157Z" fill="#343434"/>
<path d="M99.7985 96.189C98.8745 96.189 98.0135 96.07 97.2155 95.832C96.4175 95.594 95.7595 95.258 95.2415 94.824L95.8715 93.501C96.3895 93.921 96.9775 94.236 97.6355 94.446C98.2935 94.656 99.0075 94.761 99.7775 94.761C100.786 94.761 101.514 94.614 101.962 94.32C102.424 94.012 102.655 93.571 102.655 92.997C102.655 92.451 102.466 92.038 102.088 91.758C101.71 91.478 101.157 91.338 100.429 91.338H97.8665V89.952H100.198C100.856 89.952 101.367 89.812 101.731 89.532C102.109 89.238 102.298 88.839 102.298 88.335C102.298 87.817 102.088 87.411 101.668 87.117C101.248 86.809 100.604 86.655 99.7355 86.655C99.0075 86.655 98.3425 86.753 97.7405 86.949C97.1385 87.131 96.5645 87.411 96.0185 87.789L95.4095 86.55C95.9835 86.102 96.6555 85.773 97.4255 85.563C98.1955 85.353 99.0355 85.248 99.9455 85.248C101.276 85.248 102.291 85.507 102.991 86.025C103.705 86.529 104.062 87.25 104.062 88.188C104.062 88.846 103.838 89.413 103.39 89.889C102.942 90.351 102.347 90.631 101.605 90.729V90.456C102.445 90.498 103.124 90.757 103.642 91.233C104.16 91.695 104.419 92.311 104.419 93.081C104.419 94.019 104.027 94.775 103.243 95.349C102.459 95.909 101.311 96.189 99.7985 96.189Z" fill="#343434"/>
<path d="M111.069 96.189C110.145 96.189 109.333 95.972 108.633 95.538C107.933 95.104 107.387 94.474 106.995 93.648C106.603 92.822 106.407 91.842 106.407 90.708C106.407 89.574 106.603 88.601 106.995 87.789C107.387 86.963 107.933 86.333 108.633 85.899C109.333 85.465 110.145 85.248 111.069 85.248C112.007 85.248 112.819 85.486 113.505 85.962C114.205 86.424 114.667 87.061 114.891 87.873H114.639L114.87 85.437H116.718C116.676 85.857 116.634 86.277 116.592 86.697C116.564 87.117 116.55 87.53 116.55 87.936V96H114.639V93.585H114.87C114.646 94.383 114.184 95.02 113.484 95.496C112.798 95.958 111.993 96.189 111.069 96.189ZM111.51 94.677C112.462 94.677 113.225 94.341 113.799 93.669C114.373 92.997 114.66 92.01 114.66 90.708C114.66 89.406 114.373 88.426 113.799 87.768C113.225 87.11 112.462 86.781 111.51 86.781C110.558 86.781 109.788 87.11 109.2 87.768C108.626 88.426 108.339 89.406 108.339 90.708C108.339 92.01 108.626 92.997 109.2 93.669C109.774 94.341 110.544 94.677 111.51 94.677Z" fill="#343434"/>
<path d="M129.05 98.73V96H119.915V85.437H121.805V94.509H127.097V85.437H128.987V94.509H130.667V98.73H129.05Z" fill="#343434"/>
<path d="M132.855 96V85.437H134.598V94.194H134.031L140.583 85.437H142.179V96H140.436V87.222H141.024L134.451 96H132.855Z" fill="#343434"/>
<path d="M154.393 96.189C152.951 96.189 151.782 95.762 150.886 94.908C150.004 94.04 149.5 92.843 149.374 91.317H147.316V96H145.447V85.437H147.316V89.805H149.395C149.577 88.377 150.109 87.264 150.991 86.466C151.873 85.654 153.007 85.248 154.393 85.248C155.429 85.248 156.325 85.465 157.081 85.899C157.851 86.333 158.446 86.963 158.866 87.789C159.286 88.601 159.496 89.574 159.496 90.708C159.496 91.842 159.286 92.822 158.866 93.648C158.446 94.46 157.851 95.09 157.081 95.538C156.325 95.972 155.429 96.189 154.393 96.189ZM154.393 94.677C155.359 94.677 156.129 94.348 156.703 93.69C157.277 93.018 157.564 92.024 157.564 90.708C157.564 89.406 157.277 88.426 156.703 87.768C156.129 87.096 155.359 86.76 154.393 86.76C153.427 86.76 152.657 87.096 152.083 87.768C151.509 88.426 151.222 89.406 151.222 90.708C151.222 92.024 151.509 93.018 152.083 93.69C152.657 94.348 153.427 94.677 154.393 94.677Z" fill="#343434"/>
<path d="M167.739 96V85.437H172.947C174.193 85.437 175.117 85.675 175.719 86.151C176.335 86.627 176.643 87.313 176.643 88.209C176.643 88.881 176.412 89.448 175.95 89.91C175.488 90.358 174.886 90.631 174.144 90.729V90.456C175.026 90.484 175.719 90.743 176.223 91.233C176.741 91.709 177 92.325 177 93.081C177 93.977 176.657 94.691 175.971 95.223C175.299 95.741 174.354 96 173.136 96H167.739ZM169.545 94.74H173.01C173.724 94.74 174.27 94.593 174.648 94.299C175.026 93.991 175.215 93.557 175.215 92.997C175.215 92.423 175.026 91.989 174.648 91.695C174.27 91.401 173.724 91.254 173.01 91.254H169.545V94.74ZM169.545 89.994H172.779C173.437 89.994 173.948 89.847 174.312 89.553C174.676 89.259 174.858 88.853 174.858 88.335C174.858 87.803 174.676 87.397 174.312 87.117C173.948 86.837 173.437 86.697 172.779 86.697H169.545V89.994Z" fill="#343434"/>
<path d="M189.624 96.189C188.588 96.189 187.692 95.972 186.936 95.538C186.18 95.09 185.592 94.46 185.172 93.648C184.752 92.822 184.542 91.842 184.542 90.708C184.542 89.588 184.752 88.622 185.172 87.81C185.592 86.984 186.18 86.354 186.936 85.92C187.692 85.472 188.588 85.248 189.624 85.248C190.66 85.248 191.556 85.472 192.312 85.92C193.082 86.354 193.67 86.984 194.076 87.81C194.496 88.622 194.706 89.588 194.706 90.708C194.706 91.842 194.496 92.822 194.076 93.648C193.67 94.46 193.082 95.09 192.312 95.538C191.556 95.972 190.66 96.189 189.624 96.189ZM189.624 94.677C190.576 94.677 191.339 94.341 191.913 93.669C192.487 92.997 192.774 92.01 192.774 90.708C192.774 89.406 192.487 88.426 191.913 87.768C191.339 87.11 190.576 86.781 189.624 86.781C188.658 86.781 187.888 87.11 187.314 87.768C186.754 88.426 186.474 89.406 186.474 90.708C186.474 92.01 186.754 92.997 187.314 93.669C187.888 94.341 188.658 94.677 189.624 94.677Z" fill="#343434"/>
<path d="M197.434 96V85.437H199.324V89.805H204.91V85.437H206.8V96H204.91V91.317H199.324V96H197.434Z" fill="#343434"/>
<path d="M209.563 96.252L208.891 94.761C209.381 94.537 209.787 94.271 210.109 93.963C210.445 93.641 210.704 93.235 210.886 92.745C211.082 92.255 211.222 91.646 211.306 90.918C211.39 90.19 211.432 89.308 211.432 88.272V85.437H219.223V96H217.333V86.928H213.196V88.314C213.196 89.938 213.07 91.282 212.818 92.346C212.58 93.396 212.195 94.229 211.663 94.845C211.145 95.461 210.445 95.93 209.563 96.252Z" fill="#343434"/>
<path d="M226.59 96.189C225.666 96.189 224.854 95.972 224.154 95.538C223.454 95.104 222.908 94.474 222.516 93.648C222.124 92.822 221.928 91.842 221.928 90.708C221.928 89.574 222.124 88.601 222.516 87.789C222.908 86.963 223.454 86.333 224.154 85.899C224.854 85.465 225.666 85.248 226.59 85.248C227.528 85.248 228.34 85.486 229.026 85.962C229.726 86.424 230.188 87.061 230.412 87.873H230.16L230.391 85.437H232.239C232.197 85.857 232.155 86.277 232.113 86.697C232.085 87.117 232.071 87.53 232.071 87.936V96H230.16V93.585H230.391C230.167 94.383 229.705 95.02 229.005 95.496C228.319 95.958 227.514 96.189 226.59 96.189ZM227.031 94.677C227.983 94.677 228.746 94.341 229.32 93.669C229.894 92.997 230.181 92.01 230.181 90.708C230.181 89.406 229.894 88.426 229.32 87.768C228.746 87.11 227.983 86.781 227.031 86.781C226.079 86.781 225.309 87.11 224.721 87.768C224.147 88.426 223.86 89.406 223.86 90.708C223.86 92.01 224.147 92.997 224.721 93.669C225.295 94.341 226.065 94.677 227.031 94.677Z" fill="#343434"/>
<path d="M235.435 96V85.437H237.178V94.194H236.611L243.163 85.437H244.759V96H243.016V87.222H243.604L237.031 96H235.435ZM240.097 84.471C239.495 84.471 238.942 84.366 238.438 84.156C237.934 83.946 237.5 83.645 237.136 83.253C236.786 82.847 236.52 82.343 236.338 81.741L237.43 81.342C237.682 82.014 238.025 82.511 238.459 82.833C238.893 83.141 239.439 83.295 240.097 83.295C240.769 83.295 241.322 83.148 241.756 82.854C242.19 82.56 242.568 82.063 242.89 81.363L243.919 81.741C243.569 82.693 243.058 83.386 242.386 83.82C241.728 84.254 240.965 84.471 240.097 84.471Z" fill="#343434"/>
<path d="M248.027 96V85.437H249.917V89.805H255.503V85.437H257.393V96H255.503V91.317H249.917V96H248.027Z" fill="#343434"/>
<path d="M265.532 96.189C263.852 96.189 262.522 95.706 261.542 94.74C260.576 93.774 260.093 92.444 260.093 90.75C260.093 89.63 260.303 88.664 260.723 87.852C261.157 87.026 261.752 86.389 262.508 85.941C263.264 85.479 264.146 85.248 265.154 85.248C266.12 85.248 266.939 85.458 267.611 85.878C268.283 86.284 268.794 86.865 269.144 87.621C269.494 88.377 269.669 89.273 269.669 90.309V90.939H261.584V89.805H268.367L268.01 90.078C268.01 88.986 267.765 88.139 267.275 87.537C266.799 86.935 266.092 86.634 265.154 86.634C264.132 86.634 263.341 86.991 262.781 87.705C262.221 88.405 261.941 89.364 261.941 90.582V90.771C261.941 92.059 262.256 93.032 262.886 93.69C263.53 94.348 264.419 94.677 265.553 94.677C266.183 94.677 266.771 94.586 267.317 94.404C267.863 94.222 268.388 93.921 268.892 93.501L269.522 94.824C269.046 95.258 268.451 95.594 267.737 95.832C267.037 96.07 266.302 96.189 265.532 96.189Z" fill="#343434"/>
<path d="M391 26C391 29.3137 388.314 32 385 32C381.686 32 379 29.3137 379 26C379 22.6863 381.686 20 385 20C388.314 20 391 22.6863 391 26Z" fill="#DEF0D3"/>
<defs>
<linearGradient id="paint0_linear_99_72" x1="205.5" y1="0" x2="205.5" y2="128" gradientUnits="userSpaceOnUse">
<stop stop-color="white"/>
<stop offset="1" stop-color="white" stop-opacity="0.8"/>
</linearGradient>
</defs>
</svg>
