<svg width="411" height="128" viewBox="0 0 411 128" fill="none" xmlns="http://www.w3.org/2000/svg">
<rect width="411" height="128" rx="16" fill="url(#paint0_linear_112_2)"/>
<path d="M33.26 40.587C33.26 39.033 33.533 37.689 34.079 36.555C34.625 35.421 35.409 34.546 36.431 33.93C37.467 33.314 38.699 33.006 40.127 33.006C41.541 33.006 42.759 33.314 43.781 33.93C44.817 34.546 45.615 35.421 46.175 36.555C46.735 37.689 47.015 39.026 47.015 40.566C47.015 42.12 46.735 43.471 46.175 44.619C45.615 45.753 44.817 46.635 43.781 47.265C42.759 47.881 41.541 48.189 40.127 48.189C38.699 48.189 37.474 47.881 36.452 47.265C35.43 46.635 34.639 45.753 34.079 44.619C33.533 43.471 33.26 42.127 33.26 40.587ZM35.318 40.587C35.318 42.435 35.724 43.877 36.536 44.913C37.348 45.949 38.545 46.467 40.127 46.467C41.653 46.467 42.836 45.956 43.676 44.934C44.53 43.898 44.957 42.449 44.957 40.587C44.957 38.725 44.537 37.283 43.697 36.261C42.857 35.239 41.667 34.728 40.127 34.728C38.545 34.728 37.348 35.239 36.536 36.261C35.724 37.283 35.318 38.725 35.318 40.587ZM49.9417 48V37.437H59.2447V48H57.3547V38.928H51.8317V48H49.9417ZM62.576 52.536V39.936C62.576 39.53 62.562 39.117 62.534 38.697C62.506 38.277 62.464 37.857 62.408 37.437H64.256L64.487 39.873H64.256C64.466 39.061 64.914 38.424 65.6 37.962C66.286 37.486 67.105 37.248 68.057 37.248C68.995 37.248 69.814 37.465 70.514 37.899C71.214 38.333 71.753 38.963 72.131 39.789C72.523 40.601 72.719 41.574 72.719 42.708C72.719 43.842 72.523 44.822 72.131 45.648C71.753 46.474 71.214 47.104 70.514 47.538C69.814 47.972 68.995 48.189 68.057 48.189C67.119 48.189 66.307 47.958 65.621 47.496C64.949 47.02 64.494 46.383 64.256 45.585H64.487V52.536H62.576ZM67.616 46.677C68.582 46.677 69.352 46.341 69.926 45.669C70.5 44.997 70.787 44.01 70.787 42.708C70.787 41.406 70.5 40.426 69.926 39.768C69.352 39.11 68.582 38.781 67.616 38.781C66.65 38.781 65.88 39.11 65.306 39.768C64.746 40.426 64.466 41.406 64.466 42.708C64.466 44.01 64.746 44.997 65.306 45.669C65.88 46.341 66.65 46.677 67.616 46.677ZM80.3254 48.189C78.6454 48.189 77.3154 47.706 76.3354 46.74C75.3694 45.774 74.8864 44.444 74.8864 42.75C74.8864 41.63 75.0964 40.664 75.5164 39.852C75.9504 39.026 76.5454 38.389 77.3014 37.941C78.0574 37.479 78.9394 37.248 79.9474 37.248C80.9134 37.248 81.7324 37.458 82.4044 37.878C83.0764 38.284 83.5874 38.865 83.9374 39.621C84.2874 40.377 84.4624 41.273 84.4624 42.309V42.939H76.3774V41.805H83.1604L82.8034 42.078C82.8034 40.986 82.5584 40.139 82.0684 39.537C81.5924 38.935 80.8854 38.634 79.9474 38.634C78.9254 38.634 78.1344 38.991 77.5744 39.705C77.0144 40.405 76.7344 41.364 76.7344 42.582V42.771C76.7344 44.059 77.0494 45.032 77.6794 45.69C78.3234 46.348 79.2124 46.677 80.3464 46.677C80.9764 46.677 81.5644 46.586 82.1104 46.404C82.6564 46.222 83.1814 45.921 83.6854 45.501L84.3154 46.824C83.8394 47.258 83.2444 47.594 82.5304 47.832C81.8304 48.07 81.0954 48.189 80.3254 48.189ZM86.0304 50.73V46.509H87.1854C87.6614 45.795 88.0044 44.955 88.2144 43.989C88.4384 43.023 88.5504 41.875 88.5504 40.545V37.437H96.1314V46.509H97.8114V50.73H96.1734V48H87.6894V50.73H86.0304ZM88.9914 46.53H94.3464V38.907H90.2304V40.881C90.2304 41.945 90.1254 42.981 89.9154 43.989C89.7054 44.983 89.3974 45.83 88.9914 46.53ZM104.894 48.189C103.214 48.189 101.884 47.706 100.904 46.74C99.9378 45.774 99.4548 44.444 99.4548 42.75C99.4548 41.63 99.6648 40.664 100.085 39.852C100.519 39.026 101.114 38.389 101.87 37.941C102.626 37.479 103.508 37.248 104.516 37.248C105.482 37.248 106.301 37.458 106.973 37.878C107.645 38.284 108.156 38.865 108.506 39.621C108.856 40.377 109.031 41.273 109.031 42.309V42.939H100.946V41.805H107.729L107.372 42.078C107.372 40.986 107.127 40.139 106.637 39.537C106.161 38.935 105.454 38.634 104.516 38.634C103.494 38.634 102.703 38.991 102.143 39.705C101.583 40.405 101.303 41.364 101.303 42.582V42.771C101.303 44.059 101.618 45.032 102.248 45.69C102.892 46.348 103.781 46.677 104.915 46.677C105.545 46.677 106.133 46.586 106.679 46.404C107.225 46.222 107.75 45.921 108.254 45.501L108.884 46.824C108.408 47.258 107.813 47.594 107.099 47.832C106.399 48.07 105.664 48.189 104.894 48.189ZM111.187 48.252L110.515 46.761C111.005 46.537 111.411 46.271 111.733 45.963C112.069 45.641 112.328 45.235 112.51 44.745C112.706 44.255 112.846 43.646 112.93 42.918C113.014 42.19 113.056 41.308 113.056 40.272V37.437H120.847V48H118.957V38.928H114.82V40.314C114.82 41.938 114.694 43.282 114.442 44.346C114.204 45.396 113.819 46.229 113.287 46.845C112.769 47.461 112.069 47.93 111.187 48.252ZM124.118 48V37.437H125.861V46.194H125.294L131.846 37.437H133.442V48H131.699V39.222H132.287L125.714 48H124.118ZM136.71 48V37.437H138.516V46.509H142.821V37.437H144.627V46.509H148.911V37.437H150.738V48H136.71ZM154.019 48V37.437H155.909V41.175H159.017C160.389 41.175 161.418 41.469 162.104 42.057C162.804 42.631 163.154 43.464 163.154 44.556C163.154 45.256 162.993 45.865 162.671 46.383C162.349 46.901 161.88 47.3 161.264 47.58C160.648 47.86 159.899 48 159.017 48H154.019ZM155.909 46.677H158.807C159.633 46.677 160.263 46.509 160.697 46.173C161.131 45.823 161.348 45.291 161.348 44.577C161.348 43.863 161.131 43.338 160.697 43.002C160.277 42.666 159.647 42.498 158.807 42.498H155.909V46.677ZM166.215 50.499L165.354 49.827C165.746 49.421 166.012 49.036 166.152 48.672C166.292 48.322 166.362 47.958 166.362 47.58L166.782 48H165.249V45.669H167.58V47.286C167.58 47.888 167.482 48.441 167.286 48.945C167.09 49.463 166.733 49.981 166.215 50.499ZM176.044 48V37.437H177.934V41.805H179.845L183.247 37.437H185.326L181.378 42.582L180.874 41.994C181.28 42.036 181.63 42.141 181.924 42.309C182.218 42.463 182.498 42.694 182.764 43.002C183.044 43.31 183.345 43.723 183.667 44.241L185.851 48H183.793L181.882 44.745C181.672 44.367 181.462 44.073 181.252 43.863C181.042 43.653 180.804 43.506 180.538 43.422C180.286 43.338 179.964 43.296 179.572 43.296H177.934V48H176.044ZM191.583 48.189C190.659 48.189 189.847 47.972 189.147 47.538C188.447 47.104 187.901 46.474 187.509 45.648C187.117 44.822 186.921 43.842 186.921 42.708C186.921 41.574 187.117 40.601 187.509 39.789C187.901 38.963 188.447 38.333 189.147 37.899C189.847 37.465 190.659 37.248 191.583 37.248C192.521 37.248 193.333 37.486 194.019 37.962C194.719 38.424 195.181 39.061 195.405 39.873H195.153L195.384 37.437H197.232C197.19 37.857 197.148 38.277 197.106 38.697C197.078 39.117 197.064 39.53 197.064 39.936V48H195.153V45.585H195.384C195.16 46.383 194.698 47.02 193.998 47.496C193.312 47.958 192.507 48.189 191.583 48.189ZM192.024 46.677C192.976 46.677 193.739 46.341 194.313 45.669C194.887 44.997 195.174 44.01 195.174 42.708C195.174 41.406 194.887 40.426 194.313 39.768C193.739 39.11 192.976 38.781 192.024 38.781C191.072 38.781 190.302 39.11 189.714 39.768C189.14 40.426 188.853 41.406 188.853 42.708C188.853 44.01 189.14 44.997 189.714 45.669C190.288 46.341 191.058 46.677 192.024 46.677ZM200.428 48V37.437H202.318V41.805H204.229L207.631 37.437H209.71L205.762 42.582L205.258 41.994C205.664 42.036 206.014 42.141 206.308 42.309C206.602 42.463 206.882 42.694 207.148 43.002C207.428 43.31 207.729 43.723 208.051 44.241L210.235 48H208.177L206.266 44.745C206.056 44.367 205.846 44.073 205.636 43.863C205.426 43.653 205.188 43.506 204.922 43.422C204.67 43.338 204.348 43.296 203.956 43.296H202.318V48H200.428ZM215.966 48.189C215.042 48.189 214.23 47.972 213.53 47.538C212.83 47.104 212.284 46.474 211.892 45.648C211.5 44.822 211.304 43.842 211.304 42.708C211.304 41.574 211.5 40.601 211.892 39.789C212.284 38.963 212.83 38.333 213.53 37.899C214.23 37.465 215.042 37.248 215.966 37.248C216.904 37.248 217.716 37.486 218.402 37.962C219.102 38.424 219.564 39.061 219.788 39.873H219.536L219.767 37.437H221.615C221.573 37.857 221.531 38.277 221.489 38.697C221.461 39.117 221.447 39.53 221.447 39.936V48H219.536V45.585H219.767C219.543 46.383 219.081 47.02 218.381 47.496C217.695 47.958 216.89 48.189 215.966 48.189ZM216.407 46.677C217.359 46.677 218.122 46.341 218.696 45.669C219.27 44.997 219.557 44.01 219.557 42.708C219.557 41.406 219.27 40.426 218.696 39.768C218.122 39.11 217.359 38.781 216.407 38.781C215.455 38.781 214.685 39.11 214.097 39.768C213.523 40.426 213.236 41.406 213.236 42.708C213.236 44.01 213.523 44.997 214.097 45.669C214.671 46.341 215.441 46.677 216.407 46.677ZM223.972 48L225.631 45.123C225.897 44.661 226.233 44.29 226.639 44.01C227.045 43.716 227.472 43.569 227.92 43.569H228.256L228.235 43.758C227.045 43.758 226.114 43.492 225.442 42.96C224.77 42.414 224.434 41.63 224.434 40.608C224.434 39.6 224.763 38.823 225.421 38.277C226.079 37.717 227.059 37.437 228.361 37.437H233.17V48H231.406V44.01H229.894C229.348 44.01 228.879 44.15 228.487 44.43C228.095 44.696 227.773 45.053 227.521 45.501L226.093 48H223.972ZM228.697 42.687H231.406V38.739H228.697C227.871 38.739 227.255 38.914 226.849 39.264C226.457 39.614 226.261 40.097 226.261 40.713C226.261 41.343 226.457 41.833 226.849 42.183C227.255 42.519 227.871 42.687 228.697 42.687ZM241.977 48V37.437H247.185C248.431 37.437 249.355 37.675 249.957 38.151C250.573 38.627 250.881 39.313 250.881 40.209C250.881 40.881 250.65 41.448 250.188 41.91C249.726 42.358 249.124 42.631 248.382 42.729V42.456C249.264 42.484 249.957 42.743 250.461 43.233C250.979 43.709 251.238 44.325 251.238 45.081C251.238 45.977 250.895 46.691 250.209 47.223C249.537 47.741 248.592 48 247.374 48H241.977ZM243.783 46.74H247.248C247.962 46.74 248.508 46.593 248.886 46.299C249.264 45.991 249.453 45.557 249.453 44.997C249.453 44.423 249.264 43.989 248.886 43.695C248.508 43.401 247.962 43.254 247.248 43.254H243.783V46.74ZM243.783 41.994H247.017C247.675 41.994 248.186 41.847 248.55 41.553C248.914 41.259 249.096 40.853 249.096 40.335C249.096 39.803 248.914 39.397 248.55 39.117C248.186 38.837 247.675 38.697 247.017 38.697H243.783V41.994ZM258.325 48.189C257.289 48.189 256.393 47.972 255.637 47.538C254.881 47.09 254.293 46.46 253.873 45.648C253.453 44.822 253.243 43.842 253.243 42.708C253.243 41.588 253.453 40.622 253.873 39.81C254.293 38.984 254.881 38.354 255.637 37.92C256.393 37.472 257.289 37.248 258.325 37.248C259.361 37.248 260.257 37.472 261.013 37.92C261.783 38.354 262.371 38.984 262.777 39.81C263.197 40.622 263.407 41.588 263.407 42.708C263.407 43.842 263.197 44.822 262.777 45.648C262.371 46.46 261.783 47.09 261.013 47.538C260.257 47.972 259.361 48.189 258.325 48.189ZM258.325 46.677C259.277 46.677 260.04 46.341 260.614 45.669C261.188 44.997 261.475 44.01 261.475 42.708C261.475 41.406 261.188 40.426 260.614 39.768C260.04 39.11 259.277 38.781 258.325 38.781C257.359 38.781 256.589 39.11 256.015 39.768C255.455 40.426 255.175 41.406 255.175 42.708C255.175 44.01 255.455 44.997 256.015 45.669C256.589 46.341 257.359 46.677 258.325 46.677ZM269.726 48.189C268.802 48.189 267.941 48.07 267.143 47.832C266.345 47.594 265.687 47.258 265.169 46.824L265.799 45.501C266.317 45.921 266.905 46.236 267.563 46.446C268.221 46.656 268.935 46.761 269.705 46.761C270.713 46.761 271.441 46.614 271.889 46.32C272.351 46.012 272.582 45.571 272.582 44.997C272.582 44.451 272.393 44.038 272.015 43.758C271.637 43.478 271.084 43.338 270.356 43.338H267.794V41.952H270.125C270.783 41.952 271.294 41.812 271.658 41.532C272.036 41.238 272.225 40.839 272.225 40.335C272.225 39.817 272.015 39.411 271.595 39.117C271.175 38.809 270.531 38.655 269.663 38.655C268.935 38.655 268.27 38.753 267.668 38.949C267.066 39.131 266.492 39.411 265.946 39.789L265.337 38.55C265.911 38.102 266.583 37.773 267.353 37.563C268.123 37.353 268.963 37.248 269.873 37.248C271.203 37.248 272.218 37.507 272.918 38.025C273.632 38.529 273.989 39.25 273.989 40.188C273.989 40.846 273.765 41.413 273.317 41.889C272.869 42.351 272.274 42.631 271.532 42.729V42.456C272.372 42.498 273.051 42.757 273.569 43.233C274.087 43.695 274.346 44.311 274.346 45.081C274.346 46.019 273.954 46.775 273.17 47.349C272.386 47.909 271.238 48.189 269.726 48.189ZM276.902 48V37.437H278.498L282.383 44.346L286.289 37.437H287.864V48H286.184V39.579H286.646L282.866 46.299H281.921L278.141 39.558H278.582V48H276.902ZM295.649 48.189C294.613 48.189 293.717 47.972 292.961 47.538C292.205 47.09 291.617 46.46 291.197 45.648C290.777 44.822 290.567 43.842 290.567 42.708C290.567 41.588 290.777 40.622 291.197 39.81C291.617 38.984 292.205 38.354 292.961 37.92C293.717 37.472 294.613 37.248 295.649 37.248C296.685 37.248 297.581 37.472 298.337 37.92C299.107 38.354 299.695 38.984 300.101 39.81C300.521 40.622 300.731 41.588 300.731 42.708C300.731 43.842 300.521 44.822 300.101 45.648C299.695 46.46 299.107 47.09 298.337 47.538C297.581 47.972 296.685 48.189 295.649 48.189ZM295.649 46.677C296.601 46.677 297.364 46.341 297.938 45.669C298.512 44.997 298.799 44.01 298.799 42.708C298.799 41.406 298.512 40.426 297.938 39.768C297.364 39.11 296.601 38.781 295.649 38.781C294.683 38.781 293.913 39.11 293.339 39.768C292.779 40.426 292.499 41.406 292.499 42.708C292.499 44.01 292.779 44.997 293.339 45.669C293.913 46.341 294.683 46.677 295.649 46.677ZM301.821 48L304.005 44.241C304.327 43.723 304.621 43.31 304.887 43.002C305.153 42.694 305.433 42.463 305.727 42.309C306.035 42.141 306.392 42.036 306.798 41.994L306.336 42.582L302.325 37.437H304.425L307.848 41.805H309.465V37.437H311.355V41.805H312.951L316.353 37.437H318.474L314.463 42.582L313.98 41.994C314.386 42.036 314.736 42.141 315.03 42.309C315.338 42.463 315.632 42.694 315.912 43.002C316.192 43.31 316.486 43.723 316.794 44.241L318.978 48H316.941L315.03 44.745C314.806 44.367 314.589 44.073 314.379 43.863C314.169 43.653 313.931 43.506 313.665 43.422C313.413 43.338 313.091 43.296 312.699 43.296H311.355V48H309.465V43.296H308.1C307.708 43.296 307.379 43.338 307.113 43.422C306.861 43.506 306.63 43.653 306.42 43.863C306.224 44.073 306.007 44.367 305.769 44.745L303.879 48H301.821ZM320.624 48V37.437H322.514V41.805H328.1V37.437H329.99V48H328.1V43.317H322.514V48H320.624ZM337.772 48.189C336.736 48.189 335.84 47.972 335.084 47.538C334.328 47.09 333.74 46.46 333.32 45.648C332.9 44.822 332.69 43.842 332.69 42.708C332.69 41.588 332.9 40.622 333.32 39.81C333.74 38.984 334.328 38.354 335.084 37.92C335.84 37.472 336.736 37.248 337.772 37.248C338.808 37.248 339.704 37.472 340.46 37.92C341.23 38.354 341.818 38.984 342.224 39.81C342.644 40.622 342.854 41.588 342.854 42.708C342.854 43.842 342.644 44.822 342.224 45.648C341.818 46.46 341.23 47.09 340.46 47.538C339.704 47.972 338.808 48.189 337.772 48.189ZM337.772 46.677C338.724 46.677 339.487 46.341 340.061 45.669C340.635 44.997 340.922 44.01 340.922 42.708C340.922 41.406 340.635 40.426 340.061 39.768C339.487 39.11 338.724 38.781 337.772 38.781C336.806 38.781 336.036 39.11 335.462 39.768C334.902 40.426 334.622 41.406 334.622 42.708C334.622 44.01 334.902 44.997 335.462 45.669C336.036 46.341 336.806 46.677 337.772 46.677ZM350.181 48.189C349.131 48.189 348.221 47.972 347.451 47.538C346.681 47.09 346.079 46.453 345.645 45.627C345.225 44.787 345.015 43.793 345.015 42.645C345.015 41.511 345.232 40.545 345.666 39.747C346.1 38.935 346.702 38.319 347.472 37.899C348.242 37.465 349.145 37.248 350.181 37.248C350.867 37.248 351.532 37.367 352.176 37.605C352.82 37.829 353.345 38.158 353.751 38.592L353.1 39.936C352.694 39.544 352.246 39.257 351.756 39.075C351.266 38.879 350.783 38.781 350.307 38.781C349.271 38.781 348.459 39.117 347.871 39.789C347.283 40.447 346.989 41.406 346.989 42.666C346.989 43.94 347.283 44.92 347.871 45.606C348.459 46.292 349.271 46.635 350.307 46.635C350.769 46.635 351.245 46.544 351.735 46.362C352.225 46.18 352.68 45.893 353.1 45.501L353.751 46.824C353.331 47.272 352.792 47.615 352.134 47.853C351.49 48.077 350.839 48.189 350.181 48.189ZM358.514 48V38.97H354.713V37.437H364.205V38.97H360.404V48H358.514ZM365.947 48V37.437H367.837V41.175H370.945C372.317 41.175 373.346 41.469 374.032 42.057C374.732 42.631 375.082 43.464 375.082 44.556C375.082 45.256 374.921 45.865 374.599 46.383C374.277 46.901 373.808 47.3 373.192 47.58C372.576 47.86 371.827 48 370.945 48H365.947ZM367.837 46.677H370.735C371.561 46.677 372.191 46.509 372.625 46.173C373.059 45.823 373.276 45.291 373.276 44.577C373.276 43.863 373.059 43.338 372.625 43.002C372.205 42.666 371.575 42.498 370.735 42.498H367.837V46.677ZM37.229 72.189C36.305 72.189 35.444 72.07 34.646 71.832C33.848 71.594 33.19 71.258 32.672 70.824L33.302 69.501C33.82 69.921 34.408 70.236 35.066 70.446C35.724 70.656 36.438 70.761 37.208 70.761C38.216 70.761 38.944 70.614 39.392 70.32C39.854 70.012 40.085 69.571 40.085 68.997C40.085 68.451 39.896 68.038 39.518 67.758C39.14 67.478 38.587 67.338 37.859 67.338H35.297V65.952H37.628C38.286 65.952 38.797 65.812 39.161 65.532C39.539 65.238 39.728 64.839 39.728 64.335C39.728 63.817 39.518 63.411 39.098 63.117C38.678 62.809 38.034 62.655 37.166 62.655C36.438 62.655 35.773 62.753 35.171 62.949C34.569 63.131 33.995 63.411 33.449 63.789L32.84 62.55C33.414 62.102 34.086 61.773 34.856 61.563C35.626 61.353 36.466 61.248 37.376 61.248C38.706 61.248 39.721 61.507 40.421 62.025C41.135 62.529 41.492 63.25 41.492 64.188C41.492 64.846 41.268 65.413 40.82 65.889C40.372 66.351 39.777 66.631 39.035 66.729V66.456C39.875 66.498 40.554 66.757 41.072 67.233C41.59 67.695 41.849 68.311 41.849 69.081C41.849 70.019 41.457 70.775 40.673 71.349C39.889 71.909 38.741 72.189 37.229 72.189ZM48.4996 72.189C47.5756 72.189 46.7636 71.972 46.0636 71.538C45.3636 71.104 44.8176 70.474 44.4256 69.648C44.0336 68.822 43.8376 67.842 43.8376 66.708C43.8376 65.574 44.0336 64.601 44.4256 63.789C44.8176 62.963 45.3636 62.333 46.0636 61.899C46.7636 61.465 47.5756 61.248 48.4996 61.248C49.4376 61.248 50.2496 61.486 50.9356 61.962C51.6356 62.424 52.0976 63.061 52.3216 63.873H52.0696L52.3006 61.437H54.1486C54.1066 61.857 54.0646 62.277 54.0226 62.697C53.9946 63.117 53.9806 63.53 53.9806 63.936V72H52.0696V69.585H52.3006C52.0766 70.383 51.6146 71.02 50.9146 71.496C50.2286 71.958 49.4236 72.189 48.4996 72.189ZM48.9406 70.677C49.8926 70.677 50.6556 70.341 51.2296 69.669C51.8036 68.997 52.0906 68.01 52.0906 66.708C52.0906 65.406 51.8036 64.426 51.2296 63.768C50.6556 63.11 49.8926 62.781 48.9406 62.781C47.9886 62.781 47.2186 63.11 46.6306 63.768C46.0566 64.426 45.7696 65.406 45.7696 66.708C45.7696 68.01 46.0566 68.997 46.6306 69.669C47.2046 70.341 47.9746 70.677 48.9406 70.677ZM57.408 76.536V63.936C57.408 63.53 57.394 63.117 57.366 62.697C57.338 62.277 57.296 61.857 57.24 61.437H59.088L59.319 63.873H59.088C59.298 63.061 59.746 62.424 60.432 61.962C61.118 61.486 61.937 61.248 62.889 61.248C63.827 61.248 64.646 61.465 65.346 61.899C66.046 62.333 66.585 62.963 66.963 63.789C67.355 64.601 67.551 65.574 67.551 66.708C67.551 67.842 67.355 68.822 66.963 69.648C66.585 70.474 66.046 71.104 65.346 71.538C64.646 71.972 63.827 72.189 62.889 72.189C61.951 72.189 61.139 71.958 60.453 71.496C59.781 71.02 59.326 70.383 59.088 69.585H59.319V76.536H57.408ZM62.448 70.677C63.414 70.677 64.184 70.341 64.758 69.669C65.332 68.997 65.619 68.01 65.619 66.708C65.619 65.406 65.332 64.426 64.758 63.768C64.184 63.11 63.414 62.781 62.448 62.781C61.482 62.781 60.712 63.11 60.138 63.768C59.578 64.426 59.298 65.406 59.298 66.708C59.298 68.01 59.578 68.997 60.138 69.669C60.712 70.341 61.482 70.677 62.448 70.677ZM74.3805 72.189C73.4565 72.189 72.6445 71.972 71.9445 71.538C71.2445 71.104 70.6985 70.474 70.3065 69.648C69.9145 68.822 69.7185 67.842 69.7185 66.708C69.7185 65.574 69.9145 64.601 70.3065 63.789C70.6985 62.963 71.2445 62.333 71.9445 61.899C72.6445 61.465 73.4565 61.248 74.3805 61.248C75.3185 61.248 76.1305 61.486 76.8165 61.962C77.5165 62.424 77.9785 63.061 78.2025 63.873H77.9505L78.1815 61.437H80.0295C79.9875 61.857 79.9455 62.277 79.9035 62.697C79.8755 63.117 79.8615 63.53 79.8615 63.936V72H77.9505V69.585H78.1815C77.9575 70.383 77.4955 71.02 76.7955 71.496C76.1095 71.958 75.3045 72.189 74.3805 72.189ZM74.8215 70.677C75.7735 70.677 76.5365 70.341 77.1105 69.669C77.6845 68.997 77.9715 68.01 77.9715 66.708C77.9715 65.406 77.6845 64.426 77.1105 63.768C76.5365 63.11 75.7735 62.781 74.8215 62.781C73.8695 62.781 73.0995 63.11 72.5115 63.768C71.9375 64.426 71.6505 65.406 71.6505 66.708C71.6505 68.01 71.9375 68.997 72.5115 69.669C73.0855 70.341 73.8555 70.677 74.8215 70.677ZM87.8249 72.189C86.2429 72.189 84.9899 71.692 84.0659 70.698C83.1419 69.704 82.6799 68.248 82.6799 66.33V64.503C82.6799 62.543 83.0929 60.961 83.9189 59.757C84.7449 58.553 86.0259 57.741 87.7619 57.321L91.6259 56.355L92.1929 57.909L87.9089 58.938C87.1389 59.12 86.5019 59.449 85.9979 59.925C85.4939 60.401 85.1159 60.961 84.8639 61.605C84.6259 62.249 84.5069 62.935 84.5069 63.663V64.566H84.2129C84.3809 63.936 84.6469 63.39 85.0109 62.928C85.3889 62.466 85.8579 62.116 86.4179 61.878C86.9779 61.626 87.5939 61.5 88.2659 61.5C89.1759 61.5 89.9739 61.71 90.6599 62.13C91.3459 62.55 91.8779 63.159 92.2559 63.957C92.6479 64.741 92.8439 65.679 92.8439 66.771C92.8439 67.891 92.6339 68.857 92.2139 69.669C91.8079 70.481 91.2269 71.104 90.4709 71.538C89.7149 71.972 88.8329 72.189 87.8249 72.189ZM87.7619 70.677C88.7419 70.677 89.5119 70.355 90.0719 69.711C90.6459 69.067 90.9329 68.108 90.9329 66.834C90.9329 65.588 90.6459 64.636 90.0719 63.978C89.5119 63.32 88.7419 62.991 87.7619 62.991C86.7819 62.991 86.0049 63.313 85.4309 63.957C84.8709 64.601 84.5909 65.518 84.5909 66.708C84.5909 68.038 84.8709 69.032 85.4309 69.69C86.0049 70.348 86.7819 70.677 87.7619 70.677ZM100.066 72.189C99.0301 72.189 98.1341 71.972 97.3781 71.538C96.6221 71.09 96.0341 70.46 95.6141 69.648C95.1941 68.822 94.9841 67.842 94.9841 66.708C94.9841 65.588 95.1941 64.622 95.6141 63.81C96.0341 62.984 96.6221 62.354 97.3781 61.92C98.1341 61.472 99.0301 61.248 100.066 61.248C101.102 61.248 101.998 61.472 102.754 61.92C103.524 62.354 104.112 62.984 104.518 63.81C104.938 64.622 105.148 65.588 105.148 66.708C105.148 67.842 104.938 68.822 104.518 69.648C104.112 70.46 103.524 71.09 102.754 71.538C101.998 71.972 101.102 72.189 100.066 72.189ZM100.066 70.677C101.018 70.677 101.781 70.341 102.355 69.669C102.929 68.997 103.216 68.01 103.216 66.708C103.216 65.406 102.929 64.426 102.355 63.768C101.781 63.11 101.018 62.781 100.066 62.781C99.1001 62.781 98.3301 63.11 97.7561 63.768C97.1961 64.426 96.9161 65.406 96.9161 66.708C96.9161 68.01 97.1961 68.997 97.7561 69.669C98.3301 70.341 99.1001 70.677 100.066 70.677ZM110.144 72V62.97H106.343V61.437H115.835V62.97H112.034V72H110.144ZM117.576 72V61.437H119.466V65.805H121.377L124.779 61.437H126.858L122.91 66.582L122.406 65.994C122.812 66.036 123.162 66.141 123.456 66.309C123.75 66.463 124.03 66.694 124.296 67.002C124.576 67.31 124.877 67.723 125.199 68.241L127.383 72H125.325L123.414 68.745C123.204 68.367 122.994 68.073 122.784 67.863C122.574 67.653 122.336 67.506 122.07 67.422C121.818 67.338 121.496 67.296 121.104 67.296H119.466V72H117.576ZM133.115 72.189C132.191 72.189 131.379 71.972 130.679 71.538C129.979 71.104 129.433 70.474 129.041 69.648C128.649 68.822 128.453 67.842 128.453 66.708C128.453 65.574 128.649 64.601 129.041 63.789C129.433 62.963 129.979 62.333 130.679 61.899C131.379 61.465 132.191 61.248 133.115 61.248C134.053 61.248 134.865 61.486 135.551 61.962C136.251 62.424 136.713 63.061 136.937 63.873H136.685L136.916 61.437H138.764C138.722 61.857 138.68 62.277 138.638 62.697C138.61 63.117 138.596 63.53 138.596 63.936V72H136.685V69.585H136.916C136.692 70.383 136.23 71.02 135.53 71.496C134.844 71.958 134.039 72.189 133.115 72.189ZM133.556 70.677C134.508 70.677 135.271 70.341 135.845 69.669C136.419 68.997 136.706 68.01 136.706 66.708C136.706 65.406 136.419 64.426 135.845 63.768C135.271 63.11 134.508 62.781 133.556 62.781C132.604 62.781 131.834 63.11 131.246 63.768C130.672 64.426 130.385 65.406 130.385 66.708C130.385 68.01 130.672 68.997 131.246 69.669C131.82 70.341 132.59 70.677 133.556 70.677ZM147.497 72V61.437H156.8V72H154.91V62.928H149.387V72H147.497ZM164.584 72.189C163.548 72.189 162.652 71.972 161.896 71.538C161.14 71.09 160.552 70.46 160.132 69.648C159.712 68.822 159.502 67.842 159.502 66.708C159.502 65.588 159.712 64.622 160.132 63.81C160.552 62.984 161.14 62.354 161.896 61.92C162.652 61.472 163.548 61.248 164.584 61.248C165.62 61.248 166.516 61.472 167.272 61.92C168.042 62.354 168.63 62.984 169.036 63.81C169.456 64.622 169.666 65.588 169.666 66.708C169.666 67.842 169.456 68.822 169.036 69.648C168.63 70.46 168.042 71.09 167.272 71.538C166.516 71.972 165.62 72.189 164.584 72.189ZM164.584 70.677C165.536 70.677 166.299 70.341 166.873 69.669C167.447 68.997 167.734 68.01 167.734 66.708C167.734 65.406 167.447 64.426 166.873 63.768C166.299 63.11 165.536 62.781 164.584 62.781C163.618 62.781 162.848 63.11 162.274 63.768C161.714 64.426 161.434 65.406 161.434 66.708C161.434 68.01 161.714 68.997 162.274 69.669C162.848 70.341 163.618 70.677 164.584 70.677ZM171.302 74.73V70.509H172.457C172.933 69.795 173.276 68.955 173.486 67.989C173.71 67.023 173.822 65.875 173.822 64.545V61.437H181.403V70.509H183.083V74.73H181.445V72H172.961V74.73H171.302ZM174.263 70.53H179.618V62.907H175.502V64.881C175.502 65.945 175.397 66.981 175.187 67.989C174.977 68.983 174.669 69.83 174.263 70.53ZM183.886 72L188.674 66.078V67.023L184.159 61.437H186.448L189.745 65.658H189.052L192.349 61.437H194.617L190.165 66.981V66.12L194.89 72H192.58L189.052 67.485H189.745L186.175 72H183.886ZM201.129 72.189C200.093 72.189 199.197 71.972 198.441 71.538C197.685 71.09 197.097 70.46 196.677 69.648C196.257 68.822 196.047 67.842 196.047 66.708C196.047 65.588 196.257 64.622 196.677 63.81C197.097 62.984 197.685 62.354 198.441 61.92C199.197 61.472 200.093 61.248 201.129 61.248C202.165 61.248 203.061 61.472 203.817 61.92C204.587 62.354 205.175 62.984 205.581 63.81C206.001 64.622 206.211 65.588 206.211 66.708C206.211 67.842 206.001 68.822 205.581 69.648C205.175 70.46 204.587 71.09 203.817 71.538C203.061 71.972 202.165 72.189 201.129 72.189ZM201.129 70.677C202.081 70.677 202.844 70.341 203.418 69.669C203.992 68.997 204.279 68.01 204.279 66.708C204.279 65.406 203.992 64.426 203.418 63.768C202.844 63.11 202.081 62.781 201.129 62.781C200.163 62.781 199.393 63.11 198.819 63.768C198.259 64.426 197.979 65.406 197.979 66.708C197.979 68.01 198.259 68.997 198.819 69.669C199.393 70.341 200.163 70.677 201.129 70.677ZM207.847 74.73V70.509H209.002C209.478 69.795 209.821 68.955 210.031 67.989C210.255 67.023 210.367 65.875 210.367 64.545V61.437H217.948V70.509H219.628V74.73H217.99V72H209.506V74.73H207.847ZM210.808 70.53H216.163V62.907H212.047V64.881C212.047 65.945 211.942 66.981 211.732 67.989C211.522 68.983 211.214 69.83 210.808 70.53ZM221.838 72V61.437H223.581V70.194H223.014L229.566 61.437H231.162V72H229.419V63.222H230.007L223.434 72H221.838ZM236.698 72V62.97H232.897V61.437H242.389V62.97H238.588V72H236.698ZM249.667 72V61.437H251.41V70.194H250.843L257.395 61.437H258.991V72H257.248V63.222H257.836L251.263 72H249.667ZM262.259 72V61.437H263.855L267.74 68.346L271.646 61.437H273.221V72H271.541V63.579H272.003L268.223 70.299H267.278L263.498 63.558H263.939V72H262.259ZM281.364 72.189C279.684 72.189 278.354 71.706 277.374 70.74C276.408 69.774 275.925 68.444 275.925 66.75C275.925 65.63 276.135 64.664 276.555 63.852C276.989 63.026 277.584 62.389 278.34 61.941C279.096 61.479 279.978 61.248 280.986 61.248C281.952 61.248 282.771 61.458 283.443 61.878C284.115 62.284 284.626 62.865 284.976 63.621C285.326 64.377 285.501 65.273 285.501 66.309V66.939H277.416V65.805H284.199L283.842 66.078C283.842 64.986 283.597 64.139 283.107 63.537C282.631 62.935 281.924 62.634 280.986 62.634C279.964 62.634 279.173 62.991 278.613 63.705C278.053 64.405 277.773 65.364 277.773 66.582V66.771C277.773 68.059 278.088 69.032 278.718 69.69C279.362 70.348 280.251 70.677 281.385 70.677C282.015 70.677 282.603 70.586 283.149 70.404C283.695 70.222 284.22 69.921 284.724 69.501L285.354 70.824C284.878 71.258 284.283 71.594 283.569 71.832C282.869 72.07 282.134 72.189 281.364 72.189ZM288.16 72V61.437H290.05V65.805H295.636V61.437H297.526V72H295.636V67.317H290.05V72H288.16ZM300.793 72V61.437H302.683V65.805H308.269V61.437H310.159V72H308.269V67.317H302.683V72H300.793ZM317.941 72.189C316.905 72.189 316.009 71.972 315.253 71.538C314.497 71.09 313.909 70.46 313.489 69.648C313.069 68.822 312.859 67.842 312.859 66.708C312.859 65.588 313.069 64.622 313.489 63.81C313.909 62.984 314.497 62.354 315.253 61.92C316.009 61.472 316.905 61.248 317.941 61.248C318.977 61.248 319.873 61.472 320.629 61.92C321.399 62.354 321.987 62.984 322.393 63.81C322.813 64.622 323.023 65.588 323.023 66.708C323.023 67.842 322.813 68.822 322.393 69.648C321.987 70.46 321.399 71.09 320.629 71.538C319.873 71.972 318.977 72.189 317.941 72.189ZM317.941 70.677C318.893 70.677 319.656 70.341 320.23 69.669C320.804 68.997 321.091 68.01 321.091 66.708C321.091 65.406 320.804 64.426 320.23 63.768C319.656 63.11 318.893 62.781 317.941 62.781C316.975 62.781 316.205 63.11 315.631 63.768C315.071 64.426 314.791 65.406 314.791 66.708C314.791 68.01 315.071 68.997 315.631 69.669C316.205 70.341 316.975 70.677 317.941 70.677ZM333.556 72V62.97H329.755V61.437H339.247V62.97H335.446V72H333.556ZM345.799 72.189C344.119 72.189 342.789 71.706 341.809 70.74C340.843 69.774 340.36 68.444 340.36 66.75C340.36 65.63 340.57 64.664 340.99 63.852C341.424 63.026 342.019 62.389 342.775 61.941C343.531 61.479 344.413 61.248 345.421 61.248C346.387 61.248 347.206 61.458 347.878 61.878C348.55 62.284 349.061 62.865 349.411 63.621C349.761 64.377 349.936 65.273 349.936 66.309V66.939H341.851V65.805H348.634L348.277 66.078C348.277 64.986 348.032 64.139 347.542 63.537C347.066 62.935 346.359 62.634 345.421 62.634C344.399 62.634 343.608 62.991 343.048 63.705C342.488 64.405 342.208 65.364 342.208 66.582V66.771C342.208 68.059 342.523 69.032 343.153 69.69C343.797 70.348 344.686 70.677 345.82 70.677C346.45 70.677 347.038 70.586 347.584 70.404C348.13 70.222 348.655 69.921 349.159 69.501L349.789 70.824C349.313 71.258 348.718 71.594 348.004 71.832C347.304 72.07 346.569 72.189 345.799 72.189ZM357.195 72.189C355.613 72.189 354.36 71.692 353.436 70.698C352.512 69.704 352.05 68.248 352.05 66.33V64.503C352.05 62.543 352.463 60.961 353.289 59.757C354.115 58.553 355.396 57.741 357.132 57.321L360.996 56.355L361.563 57.909L357.279 58.938C356.509 59.12 355.872 59.449 355.368 59.925C354.864 60.401 354.486 60.961 354.234 61.605C353.996 62.249 353.877 62.935 353.877 63.663V64.566H353.583C353.751 63.936 354.017 63.39 354.381 62.928C354.759 62.466 355.228 62.116 355.788 61.878C356.348 61.626 356.964 61.5 357.636 61.5C358.546 61.5 359.344 61.71 360.03 62.13C360.716 62.55 361.248 63.159 361.626 63.957C362.018 64.741 362.214 65.679 362.214 66.771C362.214 67.891 362.004 68.857 361.584 69.669C361.178 70.481 360.597 71.104 359.841 71.538C359.085 71.972 358.203 72.189 357.195 72.189ZM357.132 70.677C358.112 70.677 358.882 70.355 359.442 69.711C360.016 69.067 360.303 68.108 360.303 66.834C360.303 65.588 360.016 64.636 359.442 63.978C358.882 63.32 358.112 62.991 357.132 62.991C356.152 62.991 355.375 63.313 354.801 63.957C354.241 64.601 353.961 65.518 353.961 66.708C353.961 68.038 354.241 69.032 354.801 69.69C355.375 70.348 356.152 70.677 357.132 70.677ZM369.793 72.189C368.113 72.189 366.783 71.706 365.803 70.74C364.837 69.774 364.354 68.444 364.354 66.75C364.354 65.63 364.564 64.664 364.984 63.852C365.418 63.026 366.013 62.389 366.769 61.941C367.525 61.479 368.407 61.248 369.415 61.248C370.381 61.248 371.2 61.458 371.872 61.878C372.544 62.284 373.055 62.865 373.405 63.621C373.755 64.377 373.93 65.273 373.93 66.309V66.939H365.845V65.805H372.628L372.271 66.078C372.271 64.986 372.026 64.139 371.536 63.537C371.06 62.935 370.353 62.634 369.415 62.634C368.393 62.634 367.602 62.991 367.042 63.705C366.482 64.405 366.202 65.364 366.202 66.582V66.771C366.202 68.059 366.517 69.032 367.147 69.69C367.791 70.348 368.68 70.677 369.814 70.677C370.444 70.677 371.032 70.586 371.578 70.404C372.124 70.222 372.649 69.921 373.153 69.501L373.783 70.824C373.307 71.258 372.712 71.594 371.998 71.832C371.298 72.07 370.563 72.189 369.793 72.189ZM33.638 96V85.437H35.381V94.194H34.814L41.366 85.437H42.962V96H41.219V87.222H41.807L35.234 96H33.638ZM51.6199 96V85.395H61.5529V96H58.9489V87.411H54.2239V96H51.6199ZM69.4118 96.21C68.3198 96.21 67.3748 95.986 66.5768 95.538C65.7788 95.09 65.1558 94.453 64.7078 93.627C64.2738 92.801 64.0568 91.821 64.0568 90.687C64.0568 89.553 64.2738 88.58 64.7078 87.768C65.1558 86.942 65.7788 86.305 66.5768 85.857C67.3748 85.409 68.3198 85.185 69.4118 85.185C70.5038 85.185 71.4488 85.409 72.2468 85.857C73.0588 86.305 73.6818 86.942 74.1158 87.768C74.5638 88.58 74.7878 89.553 74.7878 90.687C74.7878 91.821 74.5638 92.801 74.1158 93.627C73.6818 94.453 73.0588 95.09 72.2468 95.538C71.4488 95.986 70.5038 96.21 69.4118 96.21ZM69.4118 94.194C70.2378 94.194 70.8958 93.907 71.3858 93.333C71.8758 92.745 72.1208 91.863 72.1208 90.687C72.1208 89.511 71.8758 88.636 71.3858 88.062C70.8958 87.488 70.2378 87.201 69.4118 87.201C68.5858 87.201 67.9278 87.488 67.4378 88.062C66.9478 88.636 66.7028 89.511 66.7028 90.687C66.7028 91.863 66.9478 92.745 67.4378 93.333C67.9278 93.907 68.5858 94.194 69.4118 94.194ZM77.2752 96V85.395H79.6482V93.417H79.0182L85.0452 85.395H87.2082V96H84.8352V87.957H85.4862L79.4382 96H77.2752ZM82.2312 84.429C81.5312 84.429 80.9152 84.317 80.3832 84.093C79.8512 83.855 79.4102 83.526 79.0602 83.106C78.7102 82.672 78.4582 82.161 78.3042 81.573L79.6482 81.111C79.8862 81.755 80.2152 82.231 80.6352 82.539C81.0552 82.833 81.5942 82.98 82.2522 82.98C82.9102 82.98 83.4492 82.833 83.8692 82.539C84.2892 82.245 84.6322 81.776 84.8982 81.132L86.1792 81.573C85.8852 82.511 85.3952 83.225 84.7092 83.715C84.0372 84.191 83.2112 84.429 82.2312 84.429ZM90.1951 96V85.395H92.3791L96.0331 91.737L99.6871 85.395H101.871V96H99.5611V88.335H100.044L96.6421 94.278H95.4241L92.0221 88.335H92.5051V96H90.1951ZM110.066 96.21C108.288 96.21 106.895 95.72 105.887 94.74C104.879 93.76 104.375 92.416 104.375 90.708C104.375 89.602 104.592 88.636 105.026 87.81C105.46 86.984 106.062 86.34 106.832 85.878C107.616 85.416 108.526 85.185 109.562 85.185C110.584 85.185 111.438 85.402 112.124 85.836C112.81 86.27 113.328 86.879 113.678 87.663C114.042 88.447 114.224 89.364 114.224 90.414V91.107H106.496V89.721H112.355L111.998 90.015C111.998 89.035 111.788 88.286 111.368 87.768C110.962 87.25 110.367 86.991 109.583 86.991C108.715 86.991 108.043 87.299 107.567 87.915C107.105 88.531 106.874 89.392 106.874 90.498V90.771C106.874 91.919 107.154 92.78 107.714 93.354C108.288 93.914 109.093 94.194 110.129 94.194C110.731 94.194 111.291 94.117 111.809 93.963C112.341 93.795 112.845 93.529 113.321 93.165L114.098 94.929C113.594 95.335 112.992 95.65 112.292 95.874C111.592 96.098 110.85 96.21 110.066 96.21ZM110.339 83.463V81.048H112.754V83.463H110.339ZM106.37 83.463V81.048H108.785V83.463H106.37ZM116.65 96V85.395H119.107V93.984H122.845V85.395H125.281V93.984H129.019V85.395H131.476V96H116.65ZM134.451 96V85.395H137.055V88.944H139.848C141.262 88.944 142.326 89.245 143.04 89.847C143.754 90.435 144.111 91.289 144.111 92.409C144.111 93.137 143.943 93.774 143.607 94.32C143.271 94.852 142.781 95.265 142.137 95.559C141.507 95.853 140.744 96 139.848 96H134.451ZM137.055 94.278H139.491C140.205 94.278 140.751 94.131 141.129 93.837C141.507 93.529 141.696 93.067 141.696 92.451C141.696 91.835 141.507 91.387 141.129 91.107C140.765 90.813 140.219 90.666 139.491 90.666H137.055V94.278ZM152.067 96V85.395H157.716C159.046 85.395 160.019 85.64 160.635 86.13C161.251 86.606 161.559 87.285 161.559 88.167C161.559 88.839 161.335 89.399 160.887 89.847C160.439 90.295 159.844 90.575 159.102 90.687V90.393C160.012 90.449 160.712 90.715 161.202 91.191C161.692 91.667 161.937 92.283 161.937 93.039C161.937 93.949 161.587 94.67 160.887 95.202C160.187 95.734 159.193 96 157.905 96H152.067ZM154.503 94.383H157.632C158.248 94.383 158.717 94.257 159.039 94.005C159.375 93.753 159.543 93.382 159.543 92.892C159.543 92.402 159.375 92.031 159.039 91.779C158.717 91.527 158.248 91.401 157.632 91.401H154.503V94.383ZM154.503 89.784H157.401C157.961 89.784 158.395 89.665 158.703 89.427C159.011 89.175 159.165 88.825 159.165 88.377C159.165 87.929 159.011 87.586 158.703 87.348C158.395 87.11 157.961 86.991 157.401 86.991H154.503V89.784ZM176.732 96V92.136C176.34 92.318 175.934 92.458 175.514 92.556C175.094 92.654 174.653 92.703 174.191 92.703C172.637 92.703 171.475 92.332 170.705 91.59C169.949 90.848 169.571 89.742 169.571 88.272V85.395H172.175V88.041C172.175 88.937 172.371 89.588 172.763 89.994C173.155 90.386 173.785 90.582 174.653 90.582C175.059 90.582 175.423 90.54 175.745 90.456C176.067 90.372 176.375 90.239 176.669 90.057V85.395H179.273V96H176.732ZM187.463 96.21C185.685 96.21 184.292 95.72 183.284 94.74C182.276 93.76 181.772 92.416 181.772 90.708C181.772 89.602 181.989 88.636 182.423 87.81C182.857 86.984 183.459 86.34 184.229 85.878C185.013 85.416 185.923 85.185 186.959 85.185C187.981 85.185 188.835 85.402 189.521 85.836C190.207 86.27 190.725 86.879 191.075 87.663C191.439 88.447 191.621 89.364 191.621 90.414V91.107H183.893V89.721H189.752L189.395 90.015C189.395 89.035 189.185 88.286 188.765 87.768C188.359 87.25 187.764 86.991 186.98 86.991C186.112 86.991 185.44 87.299 184.964 87.915C184.502 88.531 184.271 89.392 184.271 90.498V90.771C184.271 91.919 184.551 92.78 185.111 93.354C185.685 93.914 186.49 94.194 187.526 94.194C188.128 94.194 188.688 94.117 189.206 93.963C189.738 93.795 190.242 93.529 190.718 93.165L191.495 94.929C190.991 95.335 190.389 95.65 189.689 95.874C188.989 96.098 188.247 96.21 187.463 96.21ZM187.736 83.463V81.048H190.151V83.463H187.736ZM183.767 83.463V81.048H186.182V83.463H183.767ZM194.047 96V85.395H196.231L199.885 91.737L203.539 85.395H205.723V96H203.413V88.335H203.896L200.494 94.278H199.276L195.874 88.335H196.357V96H194.047ZM216.761 96V87.453H213.128V85.395H223.019V87.453H219.365V96H216.761ZM224.644 96V85.395H230.293C231.623 85.395 232.596 85.64 233.212 86.13C233.828 86.606 234.136 87.285 234.136 88.167C234.136 88.839 233.912 89.399 233.464 89.847C233.016 90.295 232.421 90.575 231.679 90.687V90.393C232.589 90.449 233.289 90.715 233.779 91.191C234.269 91.667 234.514 92.283 234.514 93.039C234.514 93.949 234.164 94.67 233.464 95.202C232.764 95.734 231.77 96 230.482 96H224.644ZM227.08 94.383H230.209C230.825 94.383 231.294 94.257 231.616 94.005C231.952 93.753 232.12 93.382 232.12 92.892C232.12 92.402 231.952 92.031 231.616 91.779C231.294 91.527 230.825 91.401 230.209 91.401H227.08V94.383ZM227.08 89.784H229.978C230.538 89.784 230.972 89.665 231.28 89.427C231.588 89.175 231.742 88.825 231.742 88.377C231.742 87.929 231.588 87.586 231.28 87.348C230.972 87.11 230.538 86.991 229.978 86.991H227.08V89.784ZM241.677 96.21C240.585 96.21 239.64 95.986 238.842 95.538C238.044 95.09 237.421 94.453 236.973 93.627C236.539 92.801 236.322 91.821 236.322 90.687C236.322 89.553 236.539 88.58 236.973 87.768C237.421 86.942 238.044 86.305 238.842 85.857C239.64 85.409 240.585 85.185 241.677 85.185C242.769 85.185 243.714 85.409 244.512 85.857C245.324 86.305 245.947 86.942 246.381 87.768C246.829 88.58 247.053 89.553 247.053 90.687C247.053 91.821 246.829 92.801 246.381 93.627C245.947 94.453 245.324 95.09 244.512 95.538C243.714 95.986 242.769 96.21 241.677 96.21ZM241.677 94.194C242.503 94.194 243.161 93.907 243.651 93.333C244.141 92.745 244.386 91.863 244.386 90.687C244.386 89.511 244.141 88.636 243.651 88.062C243.161 87.488 242.503 87.201 241.677 87.201C240.851 87.201 240.193 87.488 239.703 88.062C239.213 88.636 238.968 89.511 238.968 90.687C238.968 91.863 239.213 92.745 239.703 93.333C240.193 93.907 240.851 94.194 241.677 94.194ZM248.659 96L250.276 93.207C250.556 92.731 250.899 92.353 251.305 92.073C251.725 91.779 252.159 91.632 252.607 91.632H253.069L253.048 91.863C251.802 91.863 250.843 91.59 250.171 91.044C249.499 90.498 249.163 89.7 249.163 88.65C249.163 87.614 249.506 86.816 250.192 86.256C250.892 85.682 251.914 85.395 253.258 85.395H258.529V96H256.135V92.262H254.938C254.504 92.262 254.119 92.381 253.783 92.619C253.461 92.857 253.188 93.165 252.964 93.543L251.578 96H248.659ZM253.762 90.561H256.135V87.096H253.762C253.048 87.096 252.509 87.25 252.145 87.558C251.795 87.866 251.62 88.286 251.62 88.818C251.62 89.378 251.795 89.812 252.145 90.12C252.509 90.414 253.048 90.561 253.762 90.561ZM272.236 96.21C271.144 96.21 270.185 95.986 269.359 95.538C268.547 95.09 267.917 94.453 267.469 93.627C267.021 92.787 266.797 91.793 266.797 90.645C266.797 89.497 267.021 88.517 267.469 87.705C267.931 86.893 268.568 86.27 269.38 85.836C270.192 85.402 271.144 85.185 272.236 85.185C272.936 85.185 273.615 85.297 274.273 85.521C274.945 85.731 275.491 86.039 275.911 86.445L275.113 88.272C274.735 87.922 274.308 87.663 273.832 87.495C273.37 87.313 272.915 87.222 272.467 87.222C271.529 87.222 270.794 87.516 270.262 88.104C269.744 88.692 269.485 89.546 269.485 90.666C269.485 91.786 269.744 92.647 270.262 93.249C270.794 93.851 271.529 94.152 272.467 94.152C272.901 94.152 273.349 94.068 273.811 93.9C274.287 93.732 274.721 93.473 275.113 93.123L275.911 94.929C275.477 95.335 274.924 95.65 274.252 95.874C273.594 96.098 272.922 96.21 272.236 96.21ZM278.149 96V85.395H280.522V93.417H279.892L285.919 85.395H288.082V96H285.709V87.957H286.36L280.312 96H278.149ZM290.796 96.294L289.977 94.236C290.439 94.068 290.824 93.851 291.132 93.585C291.454 93.305 291.706 92.955 291.888 92.535C292.084 92.101 292.224 91.569 292.308 90.939C292.392 90.295 292.434 89.532 292.434 88.65V85.395H300.876V96H298.272V87.411H294.828V88.734C294.828 90.26 294.688 91.541 294.408 92.577C294.128 93.599 293.694 94.411 293.106 95.013C292.518 95.615 291.748 96.042 290.796 96.294ZM308.045 96.21C307.121 96.21 306.309 95.993 305.609 95.559C304.909 95.111 304.363 94.474 303.971 93.648C303.579 92.822 303.383 91.835 303.383 90.687C303.383 89.539 303.579 88.559 303.971 87.747C304.363 86.921 304.909 86.291 305.609 85.857C306.309 85.409 307.121 85.185 308.045 85.185C308.941 85.185 309.725 85.409 310.397 85.857C311.083 86.291 311.538 86.879 311.762 87.621H311.531L311.762 85.395H314.282C314.24 85.829 314.198 86.27 314.156 86.718C314.128 87.166 314.114 87.607 314.114 88.041V96H311.51L311.489 93.816H311.741C311.517 94.544 311.062 95.125 310.376 95.559C309.69 95.993 308.913 96.21 308.045 96.21ZM308.78 94.194C309.606 94.194 310.271 93.907 310.775 93.333C311.279 92.745 311.531 91.863 311.531 90.687C311.531 89.511 311.279 88.636 310.775 88.062C310.271 87.488 309.606 87.201 308.78 87.201C307.954 87.201 307.289 87.488 306.785 88.062C306.281 88.636 306.029 89.511 306.029 90.687C306.029 91.863 306.274 92.745 306.764 93.333C307.268 93.907 307.94 94.194 308.78 94.194Z" fill="#343434"/>
<circle cx="385" cy="26" r="6" fill="#F0D3D3"/>
<defs>
<linearGradient id="paint0_linear_112_2" x1="205.5" y1="0" x2="205.5" y2="128" gradientUnits="userSpaceOnUse">
<stop stop-color="white"/>
<stop offset="1" stop-color="white" stop-opacity="0.8"/>
</linearGradient>
</defs>
</svg>
