<svg width="640" height="206" viewBox="0 0 640 206" fill="none" xmlns="http://www.w3.org/2000/svg">
<rect x="4" y="179" width="450" height="20" fill="#F0D3D3"/>
<path d="M3.312 92.584C3.312 87.304 4.344 82.72 6.408 78.832C8.472 74.896 11.424 71.848 15.264 69.688C19.104 67.528 23.64 66.448 28.872 66.448C34.152 66.448 38.712 67.528 42.552 69.688C46.392 71.848 49.344 74.896 51.408 78.832C53.52 82.72 54.576 87.304 54.576 92.584C54.576 97.816 53.52 102.4 51.408 106.336C49.344 110.272 46.392 113.344 42.552 115.552C38.712 117.712 34.152 118.792 28.872 118.792C23.64 118.792 19.104 117.712 15.264 115.552C11.472 113.344 8.52 110.272 6.408 106.336C4.344 102.4 3.312 97.816 3.312 92.584ZM17.208 92.584C17.208 97.336 18.168 101.056 20.088 103.744C22.008 106.384 24.936 107.704 28.872 107.704C32.808 107.704 35.76 106.384 37.728 103.744C39.696 101.056 40.68 97.336 40.68 92.584C40.68 87.832 39.696 84.136 37.728 81.496C35.76 78.856 32.808 77.536 28.872 77.536C24.936 77.536 22.008 78.856 20.088 81.496C18.168 84.088 17.208 87.784 17.208 92.584ZM59.3072 118V81.424H72.0512V94.528H84.2192V81.424H96.8912V118H84.2192V104.248H72.0512V118H59.3072ZM102.91 119.224L99.3105 109.216C100.75 108.832 101.974 108.304 102.982 107.632C103.99 106.912 104.806 106 105.43 104.896C106.102 103.744 106.582 102.352 106.87 100.72C107.158 99.04 107.302 97.096 107.302 94.888V81.424H139.703V118H127.03V91.072H118.822V95.32C118.822 100.024 118.246 104.08 117.094 107.488C115.942 110.848 114.19 113.512 111.838 115.48C109.534 117.448 106.558 118.696 102.91 119.224ZM160.134 118.792C156.966 118.792 154.182 118.048 151.782 116.56C149.382 115.024 147.486 112.816 146.094 109.936C144.75 107.056 144.078 103.648 144.078 99.712C144.078 95.728 144.75 92.32 146.094 89.488C147.486 86.608 149.382 84.424 151.782 82.936C154.182 81.4 156.966 80.632 160.134 80.632C162.966 80.632 165.51 81.304 167.766 82.648C170.07 83.992 171.582 85.744 172.302 87.904H171.582L172.374 81.424H184.686C184.542 83.056 184.398 84.712 184.254 86.392C184.158 88.072 184.11 89.728 184.11 91.36V118H171.438L171.294 111.808H172.158C171.438 113.92 169.926 115.624 167.622 116.92C165.366 118.168 162.87 118.792 160.134 118.792ZM164.238 109.288C166.398 109.288 168.15 108.544 169.494 107.056C170.838 105.52 171.51 103.072 171.51 99.712C171.51 96.352 170.838 93.928 169.494 92.44C168.15 90.904 166.398 90.136 164.238 90.136C162.078 90.136 160.326 90.904 158.982 92.44C157.638 93.928 156.966 96.352 156.966 99.712C156.966 103.072 157.614 105.52 158.91 107.056C160.254 108.544 162.03 109.288 164.238 109.288ZM190.167 118V81.424H201.687V105.04H199.167L217.023 81.424H227.463V118H215.943V94.384H218.535L200.607 118H190.167ZM208.743 78.328C205.863 78.328 203.391 77.872 201.327 76.96C199.311 76 197.727 74.728 196.575 73.144C195.423 71.56 194.679 69.784 194.343 67.816L200.319 65.872C201.087 67.984 202.143 69.52 203.487 70.48C204.831 71.392 206.607 71.848 208.815 71.848C211.071 71.848 212.871 71.344 214.215 70.336C215.559 69.328 216.543 67.864 217.167 65.944L222.927 67.816C222.255 70.984 220.695 73.528 218.247 75.448C215.799 77.368 212.631 78.328 208.743 78.328ZM233.201 118V81.424H245.945V94.528H258.113V81.424H270.785V118H258.113V104.248H245.945V118H233.201ZM276.589 103.096V93.16H300.133V103.096H276.589ZM305.98 118V81.424H318.724V94.528H322.468L331.54 81.424H345.076L331.972 100.36L329.668 96.256C330.964 96.4 332.14 96.808 333.196 97.48C334.3 98.104 335.308 98.92 336.22 99.928C337.132 100.888 337.9 102.016 338.524 103.312L346.444 118H332.836L327.22 107.416C326.788 106.6 326.332 105.976 325.852 105.544C325.42 105.064 324.916 104.728 324.34 104.536C323.764 104.344 323.092 104.248 322.324 104.248H318.724V118H305.98ZM361.663 118.792C358.495 118.792 355.711 118.048 353.311 116.56C350.911 115.024 349.015 112.816 347.623 109.936C346.279 107.056 345.607 103.648 345.607 99.712C345.607 95.728 346.279 92.32 347.623 89.488C349.015 86.608 350.911 84.424 353.311 82.936C355.711 81.4 358.495 80.632 361.663 80.632C364.495 80.632 367.039 81.304 369.295 82.648C371.599 83.992 373.111 85.744 373.831 87.904H373.111L373.903 81.424H386.215C386.071 83.056 385.927 84.712 385.783 86.392C385.687 88.072 385.639 89.728 385.639 91.36V118H372.967L372.823 111.808H373.687C372.967 113.92 371.455 115.624 369.151 116.92C366.895 118.168 364.399 118.792 361.663 118.792ZM365.767 109.288C367.927 109.288 369.679 108.544 371.023 107.056C372.367 105.52 373.039 103.072 373.039 99.712C373.039 96.352 372.367 93.928 371.023 92.44C369.679 90.904 367.927 90.136 365.767 90.136C363.607 90.136 361.855 90.904 360.511 92.44C359.167 93.928 358.495 96.352 358.495 99.712C358.495 103.072 359.143 105.52 360.439 107.056C361.783 108.544 363.559 109.288 365.767 109.288ZM391.985 133.552V91.36C391.985 89.728 391.937 88.072 391.841 86.392C391.745 84.712 391.601 83.056 391.409 81.424H403.793L404.585 87.904H403.865C404.537 85.744 406.025 83.992 408.329 82.648C410.633 81.304 413.201 80.632 416.033 80.632C419.201 80.632 421.985 81.4 424.385 82.936C426.785 84.424 428.657 86.608 430.001 89.488C431.393 92.32 432.089 95.728 432.089 99.712C432.089 103.648 431.393 107.056 430.001 109.936C428.657 112.816 426.785 115.024 424.385 116.56C421.985 118.048 419.201 118.792 416.033 118.792C413.249 118.792 410.729 118.168 408.473 116.92C406.217 115.624 404.729 113.92 404.009 111.808H404.801V133.552H391.985ZM411.929 109.288C414.137 109.288 415.889 108.544 417.185 107.056C418.529 105.52 419.201 103.072 419.201 99.712C419.201 96.352 418.529 93.928 417.185 92.44C415.889 90.904 414.137 90.136 411.929 90.136C409.769 90.136 408.017 90.904 406.673 92.44C405.329 93.928 404.657 96.352 404.657 99.712C404.657 103.072 405.329 105.52 406.673 107.056C408.017 108.544 409.769 109.288 411.929 109.288ZM436.418 118V81.424H449.162V92.584H457.082C462.17 92.584 465.986 93.64 468.53 95.752C471.074 97.816 472.346 100.888 472.346 104.968C472.346 107.56 471.722 109.84 470.474 111.808C469.226 113.776 467.45 115.312 465.146 116.416C462.89 117.472 460.202 118 457.082 118H436.418ZM449.162 110.008H454.922C456.794 110.008 458.234 109.6 459.242 108.784C460.298 107.968 460.826 106.768 460.826 105.184C460.826 103.552 460.322 102.376 459.314 101.656C458.354 100.936 456.89 100.576 454.922 100.576H449.162V110.008ZM495.099 118.792C488.475 118.792 483.315 117.088 479.619 113.68C475.971 110.272 474.147 105.592 474.147 99.64C474.147 95.944 474.915 92.656 476.451 89.776C477.987 86.896 480.147 84.664 482.931 83.08C485.715 81.448 488.979 80.632 492.723 80.632C496.419 80.632 499.491 81.448 501.939 83.08C504.435 84.664 506.307 86.872 507.555 89.704C508.803 92.488 509.427 95.728 509.427 99.424V102.16H484.875V96.112H499.995L498.771 97.12C498.771 94.384 498.243 92.368 497.187 91.072C496.179 89.728 494.739 89.056 492.867 89.056C490.707 89.056 489.051 89.872 487.899 91.504C486.795 93.088 486.243 95.488 486.243 98.704V100C486.243 103.216 487.035 105.568 488.619 107.056C490.203 108.544 492.483 109.288 495.459 109.288C497.379 109.288 499.179 109.072 500.859 108.64C502.587 108.208 504.219 107.512 505.755 106.552L509.067 114.904C507.243 116.152 505.131 117.112 502.731 117.784C500.331 118.456 497.787 118.792 495.099 118.792ZM513.986 133.552V91.36C513.986 89.728 513.938 88.072 513.842 86.392C513.746 84.712 513.602 83.056 513.41 81.424H525.794L526.586 87.904H525.866C526.538 85.744 528.026 83.992 530.33 82.648C532.634 81.304 535.202 80.632 538.034 80.632C541.202 80.632 543.986 81.4 546.386 82.936C548.786 84.424 550.658 86.608 552.002 89.488C553.394 92.32 554.09 95.728 554.09 99.712C554.09 103.648 553.394 107.056 552.002 109.936C550.658 112.816 548.786 115.024 546.386 116.56C543.986 118.048 541.202 118.792 538.034 118.792C535.25 118.792 532.73 118.168 530.474 116.92C528.218 115.624 526.73 113.92 526.01 111.808H526.802V133.552H513.986ZM533.93 109.288C536.138 109.288 537.89 108.544 539.186 107.056C540.53 105.52 541.202 103.072 541.202 99.712C541.202 96.352 540.53 93.928 539.186 92.44C537.89 90.904 536.138 90.136 533.93 90.136C531.77 90.136 530.018 90.904 528.674 92.44C527.33 93.928 526.658 96.352 526.658 99.712C526.658 103.072 527.33 105.52 528.674 107.056C530.018 108.544 531.77 109.288 533.93 109.288ZM573.107 118.792C569.939 118.792 567.155 118.048 564.755 116.56C562.355 115.024 560.459 112.816 559.067 109.936C557.723 107.056 557.051 103.648 557.051 99.712C557.051 95.728 557.723 92.32 559.067 89.488C560.459 86.608 562.355 84.424 564.755 82.936C567.155 81.4 569.939 80.632 573.107 80.632C575.939 80.632 578.483 81.304 580.739 82.648C583.043 83.992 584.555 85.744 585.275 87.904H584.555L585.347 81.424H597.659C597.515 83.056 597.371 84.712 597.227 86.392C597.131 88.072 597.083 89.728 597.083 91.36V118H584.411L584.267 111.808H585.131C584.411 113.92 582.899 115.624 580.595 116.92C578.339 118.168 575.843 118.792 573.107 118.792ZM577.211 109.288C579.371 109.288 581.123 108.544 582.467 107.056C583.811 105.52 584.483 103.072 584.483 99.712C584.483 96.352 583.811 93.928 582.467 92.44C581.123 90.904 579.371 90.136 577.211 90.136C575.051 90.136 573.299 90.904 571.955 92.44C570.611 93.928 569.939 96.352 569.939 99.712C569.939 103.072 570.587 105.52 571.883 107.056C573.227 108.544 575.003 109.288 577.211 109.288ZM4.32 190V153.424H26.064C31.056 153.424 34.632 154.288 36.792 156.016C38.952 157.696 40.032 160 40.032 162.928C40.032 165.184 39.264 167.08 37.728 168.616C36.24 170.152 34.272 171.136 31.824 171.568V170.488C35.136 170.824 37.56 171.808 39.096 173.44C40.632 175.024 41.4 177.088 41.4 179.632C41.4 182.848 40.128 185.392 37.584 187.264C35.088 189.088 31.464 190 26.712 190H4.32ZM16.056 182.584H24.984C26.616 182.584 27.84 182.272 28.656 181.648C29.52 181.024 29.952 180.064 29.952 178.768C29.952 177.52 29.52 176.584 28.656 175.96C27.84 175.336 26.616 175.024 24.984 175.024H16.056V182.584ZM16.056 167.608H24.12C25.512 167.608 26.592 167.32 27.36 166.744C28.128 166.168 28.512 165.304 28.512 164.152C28.512 162.952 28.128 162.088 27.36 161.56C26.592 161.032 25.512 160.768 24.12 160.768H16.056V167.608ZM60.3056 199.36V180.496H64.8416C65.9936 178.48 66.8096 176.152 67.2896 173.512C67.7696 170.872 68.0096 167.512 68.0096 163.432V153.424H99.1136V180.496H105.306V199.36H94.5056V190H71.0336V199.36H60.3056ZM75.9296 180.568H87.3056V162.856H78.6656V166.744C78.6656 169.24 78.4256 171.736 77.9456 174.232C77.4656 176.728 76.7936 178.84 75.9296 180.568ZM127.272 190.792C120.648 190.792 115.488 189.088 111.792 185.68C108.144 182.272 106.32 177.592 106.32 171.64C106.32 167.944 107.088 164.656 108.624 161.776C110.16 158.896 112.32 156.664 115.104 155.08C117.888 153.448 121.152 152.632 124.896 152.632C128.592 152.632 131.664 153.448 134.112 155.08C136.608 156.664 138.48 158.872 139.728 161.704C140.976 164.488 141.6 167.728 141.6 171.424V174.16H117.048V168.112H132.168L130.944 169.12C130.944 166.384 130.416 164.368 129.36 163.072C128.352 161.728 126.912 161.056 125.04 161.056C122.88 161.056 121.224 161.872 120.072 163.504C118.968 165.088 118.416 167.488 118.416 170.704V172C118.416 175.216 119.208 177.568 120.792 179.056C122.376 180.544 124.656 181.288 127.632 181.288C129.552 181.288 131.352 181.072 133.032 180.64C134.76 180.208 136.392 179.512 137.928 178.552L141.24 186.904C139.416 188.152 137.304 189.112 134.904 189.784C132.504 190.456 129.96 190.792 127.272 190.792ZM145.87 190V153.424H158.614V166.528H162.358L171.43 153.424H184.966L171.862 172.36L169.558 168.256C170.854 168.4 172.03 168.808 173.086 169.48C174.19 170.104 175.198 170.92 176.11 171.928C177.022 172.888 177.79 174.016 178.414 175.312L186.334 190H172.726L167.11 179.416C166.678 178.6 166.222 177.976 165.742 177.544C165.31 177.064 164.806 176.728 164.23 176.536C163.654 176.344 162.982 176.248 162.214 176.248H158.614V190H145.87ZM187.153 205.552V163.36C187.153 161.728 187.105 160.072 187.009 158.392C186.913 156.712 186.769 155.056 186.577 153.424H198.961L199.753 159.904H199.033C199.705 157.744 201.193 155.992 203.497 154.648C205.801 153.304 208.369 152.632 211.201 152.632C214.369 152.632 217.153 153.4 219.553 154.936C221.953 156.424 223.825 158.608 225.169 161.488C226.561 164.32 227.257 167.728 227.257 171.712C227.257 175.648 226.561 179.056 225.169 181.936C223.825 184.816 221.953 187.024 219.553 188.56C217.153 190.048 214.369 190.792 211.201 190.792C208.417 190.792 205.897 190.168 203.641 188.92C201.385 187.624 199.897 185.92 199.177 183.808H199.969V205.552H187.153ZM207.097 181.288C209.305 181.288 211.057 180.544 212.353 179.056C213.697 177.52 214.369 175.072 214.369 171.712C214.369 168.352 213.697 165.928 212.353 164.44C211.057 162.904 209.305 162.136 207.097 162.136C204.937 162.136 203.185 162.904 201.841 164.44C200.497 165.928 199.825 168.352 199.825 171.712C199.825 175.072 200.497 177.52 201.841 179.056C203.185 180.544 204.937 181.288 207.097 181.288ZM251.171 190.792C244.547 190.792 239.387 189.088 235.691 185.68C232.043 182.272 230.219 177.592 230.219 171.64C230.219 167.944 230.987 164.656 232.523 161.776C234.059 158.896 236.219 156.664 239.003 155.08C241.787 153.448 245.051 152.632 248.795 152.632C252.491 152.632 255.563 153.448 258.011 155.08C260.507 156.664 262.379 158.872 263.627 161.704C264.875 164.488 265.499 167.728 265.499 171.424V174.16H240.947V168.112H256.067L254.843 169.12C254.843 166.384 254.315 164.368 253.259 163.072C252.251 161.728 250.811 161.056 248.939 161.056C246.779 161.056 245.123 161.872 243.971 163.504C242.867 165.088 242.315 167.488 242.315 170.704V172C242.315 175.216 243.107 177.568 244.691 179.056C246.275 180.544 248.555 181.288 251.531 181.288C253.451 181.288 255.251 181.072 256.931 180.64C258.659 180.208 260.291 179.512 261.827 178.552L265.139 186.904C263.315 188.152 261.203 189.112 258.803 189.784C256.403 190.456 253.859 190.792 251.171 190.792ZM277.761 190V163.288H266.097V153.424H302.169V163.288H290.433V190H277.761ZM323.176 190.792C316.552 190.792 311.392 189.088 307.696 185.68C304.048 182.272 302.224 177.592 302.224 171.64C302.224 167.944 302.992 164.656 304.528 161.776C306.064 158.896 308.224 156.664 311.008 155.08C313.792 153.448 317.056 152.632 320.8 152.632C324.496 152.632 327.568 153.448 330.016 155.08C332.512 156.664 334.384 158.872 335.632 161.704C336.88 164.488 337.504 167.728 337.504 171.424V174.16H312.952V168.112H328.072L326.848 169.12C326.848 166.384 326.32 164.368 325.264 163.072C324.256 161.728 322.816 161.056 320.944 161.056C318.784 161.056 317.128 161.872 315.976 163.504C314.872 165.088 314.32 167.488 314.32 170.704V172C314.32 175.216 315.112 177.568 316.696 179.056C318.28 180.544 320.56 181.288 323.536 181.288C325.456 181.288 327.256 181.072 328.936 180.64C330.664 180.208 332.296 179.512 333.832 178.552L337.144 186.904C335.32 188.152 333.208 189.112 330.808 189.784C328.408 190.456 325.864 190.792 323.176 190.792ZM378.428 190V181.432H357.548V172.216L380.444 139.24H391.028V171.568H397.652V181.432H391.028V190H378.428ZM378.428 171.568V154.936H380.3L366.836 174.592V171.568H378.428ZM398.775 190V176.896H412.095V190H398.775ZM434.017 190.792C427.777 190.792 422.977 188.512 419.617 183.952C416.305 179.344 414.649 172.84 414.649 164.44C414.649 155.944 416.305 149.488 419.617 145.072C422.977 140.656 427.777 138.448 434.017 138.448C440.305 138.448 445.105 140.656 448.417 145.072C451.729 149.488 453.385 155.92 453.385 164.368C453.385 172.816 451.705 179.344 448.345 183.952C445.033 188.512 440.257 190.792 434.017 190.792ZM434.017 180.208C436.321 180.208 438.025 178.96 439.129 176.464C440.281 173.968 440.857 169.96 440.857 164.44C440.857 158.872 440.281 154.912 439.129 152.56C438.025 150.16 436.321 148.96 434.017 148.96C431.713 148.96 429.985 150.16 428.833 152.56C427.729 154.912 427.177 158.848 427.177 164.368C427.177 169.936 427.729 173.968 428.833 176.464C429.985 178.96 431.713 180.208 434.017 180.208Z" fill="#343434"/>
<rect width="163" height="39" rx="8" fill="white"/>
<path d="M21.1121 19.705C21.1121 18.595 21.3121 17.635 21.7121 16.825C22.1221 16.015 22.7071 15.39 23.4671 14.95C24.2271 14.5 25.1321 14.275 26.1821 14.275C27.2221 14.275 28.1221 14.5 28.8821 14.95C29.6421 15.39 30.2271 16.015 30.6371 16.825C31.0571 17.635 31.2671 18.59 31.2671 19.69C31.2671 20.8 31.0571 21.765 30.6371 22.585C30.2271 23.395 29.6421 24.025 28.8821 24.475C28.1221 24.925 27.2221 25.15 26.1821 25.15C25.1321 25.15 24.2271 24.925 23.4671 24.475C22.7171 24.025 22.1371 23.395 21.7271 22.585C21.3171 21.765 21.1121 20.805 21.1121 19.705ZM23.1371 19.705C23.1371 20.895 23.3921 21.825 23.9021 22.495C24.4121 23.165 25.1721 23.5 26.1821 23.5C27.1621 23.5 27.9171 23.165 28.4471 22.495C28.9771 21.825 29.2421 20.895 29.2421 19.705C29.2421 18.505 28.9771 17.575 28.4471 16.915C27.9271 16.255 27.1721 15.925 26.1821 15.925C25.1721 15.925 24.4121 16.255 23.9021 16.915C23.3921 17.575 23.1371 18.505 23.1371 19.705ZM33.8638 25V14.425H35.7988V18.835H41.2138V14.425H43.1488V25H41.2138V20.44H35.7988V25H33.8638ZM46.065 25.255L45.12 23.83C45.54 23.6 45.91 23.33 46.23 23.02C46.55 22.71 46.815 22.325 47.025 21.865C47.235 21.395 47.39 20.82 47.49 20.14C47.6 19.45 47.655 18.62 47.655 17.65V14.425H55.335V25H53.415V16H49.44V18.13C49.44 19.14 49.365 20.03 49.215 20.8C49.065 21.57 48.845 22.245 48.555 22.825C48.265 23.395 47.91 23.88 47.49 24.28C47.08 24.67 46.605 24.995 46.065 25.255ZM57.0969 25L61.8819 14.425H63.5019L68.3469 25H66.3819L65.0919 22.03L65.8719 22.555H59.5269L60.3369 22.03L59.0469 25H57.0969ZM62.6769 16.495L60.5619 21.505L60.1719 21.04H65.2119L64.8969 21.505L62.7369 16.495H62.6769ZM70.1169 25V14.425H71.9019V22.405H71.5419L77.6619 14.425H79.1169V25H77.3169V17.02H77.6769L71.5419 25H70.1169ZM74.6169 13.6C74.0769 13.6 73.5969 13.515 73.1769 13.345C72.7569 13.175 72.4119 12.935 72.1419 12.625C71.8719 12.305 71.6769 11.93 71.5569 11.5L72.5169 11.17C72.7069 11.66 72.9719 12.015 73.3119 12.235C73.6519 12.455 74.0869 12.565 74.6169 12.565C75.1569 12.565 75.5919 12.455 75.9219 12.235C76.2619 12.015 76.5369 11.665 76.7469 11.185L77.6769 11.5C77.4569 12.2 77.0769 12.725 76.5369 13.075C76.0069 13.425 75.3669 13.6 74.6169 13.6ZM82.0401 25V14.425H83.9751V18.835H89.3901V14.425H91.3251V25H89.3901V20.44H83.9751V25H82.0401ZM94.0913 21.61V20.125H98.6513V21.61H94.0913ZM101.433 25V14.425H103.338V18.925H105.138L104.748 19.18L107.868 14.425H109.998L106.518 19.54L105.783 19C106.463 19.1 107.028 19.335 107.478 19.705C107.938 20.065 108.338 20.575 108.678 21.235L110.553 25H108.468L107.013 21.955C106.763 21.425 106.463 21.05 106.113 20.83C105.773 20.61 105.338 20.5 104.808 20.5H103.338V25H101.433ZM114.01 25L115.87 21.475L115.9 22.075L111.01 14.425H113.08L116.845 20.395H116.47L119.605 14.425H121.6L116.02 25H114.01ZM123.171 25V14.425H127.866C129.026 14.425 129.911 14.705 130.521 15.265C131.131 15.825 131.436 16.595 131.436 17.575C131.436 18.545 131.131 19.315 130.521 19.885C129.911 20.455 129.026 20.74 127.866 20.74H125.106V25H123.171ZM125.106 19.21H127.641C128.281 19.21 128.761 19.07 129.081 18.79C129.401 18.5 129.561 18.095 129.561 17.575C129.561 17.055 129.401 16.655 129.081 16.375C128.761 16.085 128.281 15.94 127.641 15.94H125.106V19.21ZM138.534 25.15C137.434 25.15 136.489 24.93 135.699 24.49C134.919 24.04 134.319 23.41 133.899 22.6C133.479 21.78 133.269 20.815 133.269 19.705C133.269 18.595 133.479 17.635 133.899 16.825C134.319 16.015 134.919 15.39 135.699 14.95C136.489 14.5 137.434 14.275 138.534 14.275C139.274 14.275 139.939 14.38 140.529 14.59C141.129 14.8 141.644 15.11 142.074 15.52L141.444 17.05C140.974 16.67 140.519 16.4 140.079 16.24C139.649 16.07 139.154 15.985 138.594 15.985C137.524 15.985 136.704 16.31 136.134 16.96C135.574 17.6 135.294 18.515 135.294 19.705C135.294 20.895 135.574 21.815 136.134 22.465C136.704 23.115 137.524 23.44 138.594 23.44C139.154 23.44 139.649 23.36 140.079 23.2C140.519 23.03 140.974 22.75 141.444 22.36L142.074 23.89C141.644 24.29 141.129 24.6 140.529 24.82C139.939 25.04 139.274 25.15 138.534 25.15Z" fill="#343434"/>
</svg>
