<svg width="416" height="114" viewBox="0 0 416 114" fill="none" xmlns="http://www.w3.org/2000/svg">
<path d="M0.750148 59L22.5302 12.47H32.4302L54.3421 59H42.1321L36.5222 46.196L41.2081 49.562H13.8841L18.5041 46.196L12.9601 59H0.750148ZM27.4142 25.01L19.6921 43.424L17.8441 40.322H37.1822L35.5321 43.424L27.7442 25.01H27.4142ZM55.2368 59V25.472H75.1688C79.7448 25.472 83.0228 26.264 85.0028 27.848C86.9828 29.388 87.9728 31.5 87.9728 34.184C87.9728 36.252 87.2688 37.99 85.8608 39.398C84.4968 40.806 82.6928 41.708 80.4488 42.104V41.114C83.4848 41.422 85.7068 42.324 87.1148 43.82C88.5228 45.272 89.2268 47.164 89.2268 49.496C89.2268 52.444 88.0608 54.776 85.7288 56.492C83.4408 58.164 80.1188 59 75.7628 59H55.2368ZM65.9948 52.202H74.1788C75.6748 52.202 76.7968 51.916 77.5448 51.344C78.3368 50.772 78.7328 49.892 78.7328 48.704C78.7328 47.56 78.3368 46.702 77.5448 46.13C76.7968 45.558 75.6748 45.272 74.1788 45.272H65.9948V52.202ZM65.9948 38.474H73.3868C74.6628 38.474 75.6528 38.21 76.3568 37.682C77.0608 37.154 77.4128 36.362 77.4128 35.306C77.4128 34.206 77.0608 33.414 76.3568 32.93C75.6528 32.446 74.6628 32.204 73.3868 32.204H65.9948V38.474ZM101.389 59V34.514H90.6973V25.472H123.763V34.514H113.005V59H101.389ZM143.086 59.726C139.346 59.726 136.112 59.022 133.384 57.614C130.656 56.206 128.544 54.204 127.048 51.608C125.552 48.968 124.804 45.844 124.804 42.236C124.804 38.584 125.552 35.46 127.048 32.864C128.544 30.268 130.656 28.266 133.384 26.858C136.112 25.45 139.346 24.746 143.086 24.746C146.782 24.746 149.994 25.45 152.722 26.858C155.45 28.266 157.562 30.29 159.058 32.93C160.554 35.526 161.302 38.628 161.302 42.236C161.302 45.8 160.554 48.902 159.058 51.542C157.562 54.182 155.45 56.206 152.722 57.614C149.994 59.022 146.782 59.726 143.086 59.726ZM143.086 51.014C145.022 51.014 146.562 50.332 147.706 48.968C148.85 47.56 149.422 45.316 149.422 42.236C149.422 39.156 148.85 36.934 147.706 35.57C146.562 34.162 145.022 33.458 143.086 33.458C141.106 33.458 139.544 34.162 138.4 35.57C137.256 36.934 136.684 39.156 136.684 42.236C136.684 45.316 137.256 47.56 138.4 48.968C139.544 50.332 141.106 51.014 143.086 51.014ZM166.566 73.256V34.58C166.566 33.084 166.522 31.566 166.434 30.026C166.346 28.486 166.214 26.968 166.038 25.472H177.39L178.116 31.412H177.456C178.072 29.432 179.436 27.826 181.548 26.594C183.66 25.362 186.014 24.746 188.61 24.746C191.514 24.746 194.066 25.45 196.266 26.858C198.466 28.222 200.182 30.224 201.414 32.864C202.69 35.46 203.328 38.584 203.328 42.236C203.328 45.844 202.69 48.968 201.414 51.608C200.182 54.248 198.466 56.272 196.266 57.68C194.066 59.044 191.514 59.726 188.61 59.726C186.058 59.726 183.748 59.154 181.68 58.01C179.612 56.822 178.248 55.26 177.588 53.324H178.314V73.256H166.566ZM184.848 51.014C186.872 51.014 188.478 50.332 189.666 48.968C190.898 47.56 191.514 45.316 191.514 42.236C191.514 39.156 190.898 36.934 189.666 35.57C188.478 34.162 186.872 33.458 184.848 33.458C182.868 33.458 181.262 34.162 180.03 35.57C178.798 36.934 178.182 39.156 178.182 42.236C178.182 45.316 178.798 47.56 180.03 48.968C181.262 50.332 182.868 51.014 184.848 51.014ZM225.715 59V25.472H237.397V37.484H240.829L249.145 25.472H261.553L249.541 42.83L247.429 39.068C248.617 39.2 249.695 39.574 250.663 40.19C251.675 40.762 252.599 41.51 253.435 42.434C254.271 43.314 254.975 44.348 255.547 45.536L262.807 59H250.333L245.185 49.298C244.789 48.55 244.371 47.978 243.931 47.582C243.535 47.142 243.073 46.834 242.545 46.658C242.017 46.482 241.401 46.394 240.697 46.394H237.397V59H225.715ZM264.68 73.982L261.908 64.874C264.02 64.478 265.78 64.038 267.188 63.554C268.64 63.114 269.828 62.498 270.752 61.706C271.676 60.914 272.402 59.88 272.93 58.604L274.58 54.776L274.316 59.198L259.664 25.472H272.072L280.652 47.714H278.474L287.318 25.472H298.934L283.886 59.726C282.698 62.41 281.422 64.61 280.058 66.326C278.738 68.042 277.286 69.406 275.702 70.418C274.162 71.43 272.468 72.178 270.62 72.662C268.816 73.19 266.836 73.63 264.68 73.982ZM300.925 73.256V34.58C300.925 33.084 300.881 31.566 300.793 30.026C300.705 28.486 300.573 26.968 300.397 25.472H311.749L312.475 31.412H311.815C312.431 29.432 313.795 27.826 315.907 26.594C318.019 25.362 320.373 24.746 322.969 24.746C325.873 24.746 328.425 25.45 330.625 26.858C332.825 28.222 334.541 30.224 335.773 32.864C337.049 35.46 337.687 38.584 337.687 42.236C337.687 45.844 337.049 48.968 335.773 51.608C334.541 54.248 332.825 56.272 330.625 57.68C328.425 59.044 325.873 59.726 322.969 59.726C320.417 59.726 318.107 59.154 316.039 58.01C313.971 56.822 312.607 55.26 311.947 53.324H312.673V73.256H300.925ZM319.207 51.014C321.231 51.014 322.837 50.332 324.025 48.968C325.257 47.56 325.873 45.316 325.873 42.236C325.873 39.156 325.257 36.934 324.025 35.57C322.837 34.162 321.231 33.458 319.207 33.458C317.227 33.458 315.621 34.162 314.389 35.57C313.157 36.934 312.541 39.156 312.541 42.236C312.541 45.316 313.157 47.56 314.389 48.968C315.621 50.332 317.227 51.014 319.207 51.014ZM359.872 59.726C356.176 59.726 352.942 59.022 350.17 57.614C347.398 56.206 345.242 54.204 343.702 51.608C342.162 48.968 341.392 45.822 341.392 42.17C341.392 38.518 342.162 35.394 343.702 32.798C345.242 30.202 347.398 28.222 350.17 26.858C352.942 25.45 356.176 24.746 359.872 24.746C362.16 24.746 364.404 25.054 366.604 25.67C368.804 26.286 370.586 27.166 371.95 28.31L368.65 36.296C367.594 35.416 366.384 34.756 365.02 34.316C363.7 33.832 362.402 33.59 361.126 33.59C358.706 33.59 356.814 34.316 355.45 35.768C354.13 37.22 353.47 39.354 353.47 42.17C353.47 44.986 354.13 47.142 355.45 48.638C356.814 50.09 358.706 50.816 361.126 50.816C362.358 50.816 363.656 50.596 365.02 50.156C366.384 49.672 367.594 49.012 368.65 48.176L371.95 56.162C370.542 57.262 368.738 58.142 366.538 58.802C364.382 59.418 362.16 59.726 359.872 59.726ZM389.587 59.726C386.683 59.726 384.131 59.044 381.931 57.68C379.731 56.272 377.993 54.248 376.717 51.608C375.485 48.968 374.869 45.844 374.869 42.236C374.869 38.584 375.485 35.46 376.717 32.864C377.993 30.224 379.731 28.222 381.931 26.858C384.131 25.45 386.683 24.746 389.587 24.746C392.183 24.746 394.515 25.362 396.583 26.594C398.695 27.826 400.081 29.432 400.741 31.412H400.081L400.807 25.472H412.093C411.961 26.968 411.829 28.486 411.697 30.026C411.609 31.566 411.565 33.084 411.565 34.58V59H399.949L399.817 53.324H400.609C399.949 55.26 398.563 56.822 396.451 58.01C394.383 59.154 392.095 59.726 389.587 59.726ZM393.349 51.014C395.329 51.014 396.935 50.332 398.167 48.968C399.399 47.56 400.015 45.316 400.015 42.236C400.015 39.156 399.399 36.934 398.167 35.57C396.935 34.162 395.329 33.458 393.349 33.458C391.369 33.458 389.763 34.162 388.531 35.57C387.299 36.934 386.683 39.156 386.683 42.236C386.683 45.316 387.277 47.56 388.465 48.968C389.697 50.332 391.325 51.014 393.349 51.014Z" fill="#343434"/>
<path fill-rule="evenodd" clip-rule="evenodd" d="M122.162 102.617C120.852 104.235 120.167 104.857 119 104.857V114C122.88 114 125.222 111.193 126.688 109.383C128.343 107.339 128.617 107.143 129.093 107.143C130.138 107.143 130.535 107.566 131.761 109.232C131.787 109.268 131.814 109.304 131.841 109.341C133.145 111.115 135.265 114 139.187 114C143.067 114 145.409 111.193 146.875 109.383C148.53 107.339 148.804 107.143 149.28 107.143C150.324 107.143 150.722 107.566 151.948 109.232C151.974 109.268 152.001 109.304 152.028 109.341C153.332 111.115 155.452 114 159.374 114C163.203 114 165.499 111.108 166.889 109.317C168.507 107.231 168.71 107.143 169.047 107.143C169.929 107.143 170.259 107.469 171.454 109.163C171.483 109.204 171.513 109.246 171.543 109.289C172.778 111.043 174.859 114 178.72 114C182.6 114 184.942 111.193 186.408 109.383C188.063 107.339 188.337 107.143 188.813 107.143C189.857 107.143 190.254 107.566 191.481 109.232C191.507 109.268 191.534 109.304 191.561 109.341C192.865 111.115 194.985 114 198.907 114C202.787 114 205.129 111.193 206.595 109.383C208.25 107.339 208.524 107.143 209 107.143C210.044 107.143 210.441 107.566 211.668 109.232C211.694 109.268 211.721 109.304 211.748 109.341C213.052 111.115 215.172 114 219.093 114C222.974 114 225.316 111.193 226.782 109.383C228.437 107.339 228.711 107.143 229.187 107.143C230.231 107.143 230.628 107.566 231.855 109.232C231.881 109.268 231.907 109.304 231.934 109.341C233.239 111.115 235.359 114 239.28 114C243.109 114 245.405 111.108 246.795 109.317C248.413 107.231 248.617 107.143 248.953 107.143C249.835 107.143 250.166 107.469 251.361 109.163C251.39 109.204 251.419 109.246 251.449 109.289C252.684 111.043 254.766 114 258.626 114C262.506 114 264.849 111.193 266.315 109.383C267.969 107.339 268.244 107.143 268.72 107.143C269.764 107.143 270.161 107.566 271.387 109.232C271.414 109.268 271.44 109.304 271.467 109.341C272.771 111.115 274.892 114 278.813 114C282.693 114 285.035 111.193 286.502 109.383C288.156 107.339 288.431 107.143 288.907 107.143C289.951 107.143 290.348 107.566 291.574 109.232L291.654 109.341C292.958 111.115 295.078 114 299 114V104.857C297.956 104.857 297.559 104.434 296.332 102.768L296.252 102.659C294.948 100.885 292.828 98 288.907 98C285.627 98 283.461 100.741 282.263 102.256C282.16 102.386 282.064 102.508 281.975 102.617C280.665 104.235 279.98 104.857 278.813 104.857C277.769 104.857 277.372 104.434 276.145 102.768C276.119 102.732 276.092 102.696 276.066 102.659C274.761 100.885 272.641 98 268.72 98C265.44 98 263.274 100.741 262.076 102.256C261.973 102.386 261.877 102.508 261.788 102.617C260.479 104.235 259.793 104.857 258.626 104.857C257.744 104.857 257.414 104.531 256.219 102.837C256.19 102.796 256.16 102.754 256.13 102.711C254.895 100.957 252.814 98 248.953 98C245.705 98 243.571 100.824 242.439 102.323C242.34 102.454 242.248 102.575 242.164 102.683C240.894 104.32 240.288 104.857 239.28 104.857C238.236 104.857 237.839 104.434 236.613 102.768C236.586 102.732 236.56 102.696 236.533 102.659C235.229 100.885 233.108 98 229.187 98C225.908 98 223.741 100.741 222.543 102.256C222.44 102.386 222.344 102.508 222.255 102.617C220.946 104.235 220.26 104.857 219.093 104.857C218.049 104.857 217.652 104.434 216.426 102.768C216.4 102.732 216.373 102.696 216.346 102.659C215.042 100.885 212.922 98 209 98C205.721 98 203.554 100.741 202.356 102.256C202.253 102.386 202.157 102.508 202.069 102.617C200.759 104.235 200.073 104.857 198.907 104.857C197.862 104.857 197.465 104.434 196.239 102.768C196.213 102.732 196.186 102.696 196.159 102.659C194.855 100.885 192.735 98 188.813 98C185.534 98 183.367 100.741 182.17 102.256C182.066 102.386 181.97 102.508 181.882 102.617C180.572 104.235 179.886 104.857 178.72 104.857C177.838 104.857 177.507 104.531 176.312 102.837C176.283 102.796 176.254 102.754 176.224 102.711C174.989 100.957 172.907 98 169.047 98C165.799 98 163.665 100.824 162.532 102.323C162.433 102.454 162.341 102.575 162.258 102.683C160.987 104.32 160.381 104.857 159.374 104.857C158.33 104.857 157.932 104.434 156.706 102.768C156.68 102.732 156.653 102.696 156.626 102.659C155.322 100.885 153.202 98 149.28 98C146.001 98 143.835 100.741 142.637 102.256C142.534 102.386 142.438 102.508 142.349 102.617C141.039 104.235 140.353 104.857 139.187 104.857C138.143 104.857 137.746 104.434 136.519 102.768C136.493 102.732 136.466 102.696 136.439 102.659C135.135 100.885 133.015 98 129.093 98C125.814 98 123.648 100.741 122.45 102.256C122.347 102.386 122.251 102.508 122.162 102.617Z" fill="#B7B39A"/>
</svg>
