<svg width="48" height="48" viewBox="0 0 48 48" fill="none" xmlns="http://www.w3.org/2000/svg">
<rect width="48" height="48" rx="24" transform="matrix(-1 0 0 1 48 0)" fill="#F0ECD3"/>
<path d="M20.2266 23.0533L25.88 17.4C26.0039 17.275 26.1514 17.1758 26.3139 17.1081C26.4763 17.0405 26.6506 17.0056 26.8266 17.0056C27.0026 17.0056 27.1769 17.0405 27.3394 17.1081C27.5019 17.1758 27.6493 17.275 27.7733 17.4C28.0216 17.6498 28.161 17.9878 28.161 18.34C28.161 18.6922 28.0216 19.0302 27.7733 19.28L23.0533 24L27.7733 28.72C28.0216 28.9698 28.161 29.3078 28.161 29.66C28.161 30.0122 28.0216 30.3502 27.7733 30.6C27.6487 30.7236 27.5009 30.8213 27.3385 30.8877C27.176 30.954 27.0021 30.9877 26.8266 30.9867C26.6511 30.9877 26.4772 30.954 26.3147 30.8877C26.1523 30.8213 26.0045 30.7236 25.88 30.6L20.2266 24.9467C20.1016 24.8227 20.0025 24.6752 19.9348 24.5128C19.8671 24.3503 19.8322 24.176 19.8322 24C19.8322 23.824 19.8671 23.6497 19.9348 23.4872C20.0025 23.3247 20.1016 23.1773 20.2266 23.0533Z" fill="#343434"/>
</svg>
