<svg width="519" height="114" viewBox="0 0 519 114" fill="none" xmlns="http://www.w3.org/2000/svg">
<path d="M3.27974 35.702C3.27974 30.862 4.22574 26.66 6.11774 23.096C8.00974 19.488 10.7157 16.694 14.2357 14.714C17.7557 12.734 21.9137 11.744 26.7097 11.744C31.5497 11.744 35.7297 12.734 39.2497 14.714C42.7697 16.694 45.4757 19.488 47.3677 23.096C49.3037 26.66 50.2717 30.862 50.2717 35.702C50.2717 40.498 49.3037 44.7 47.3677 48.308C45.4757 51.916 42.7697 54.732 39.2497 56.756C35.7297 58.736 31.5497 59.726 26.7097 59.726C21.9137 59.726 17.7557 58.736 14.2357 56.756C10.7597 54.732 8.05374 51.916 6.11774 48.308C4.22574 44.7 3.27974 40.498 3.27974 35.702ZM16.0177 35.702C16.0177 40.058 16.8977 43.468 18.6577 45.932C20.4177 48.352 23.1017 49.562 26.7097 49.562C30.3177 49.562 33.0237 48.352 34.8277 45.932C36.6317 43.468 37.5337 40.058 37.5337 35.702C37.5337 31.346 36.6317 27.958 34.8277 25.538C33.0237 23.118 30.3177 21.908 26.7097 21.908C23.1017 21.908 20.4177 23.118 18.6577 25.538C16.8977 27.914 16.0177 31.302 16.0177 35.702ZM62.9247 59V34.514H52.2327V25.472H85.2987V34.514H74.5407V59H62.9247ZM101.903 59.726C98.7348 59.726 95.7648 59.418 92.9928 58.802C90.2208 58.186 87.8448 57.24 85.8648 55.964L88.7028 48.638C90.3308 49.606 92.3108 50.376 94.6428 50.948C97.0188 51.476 99.3948 51.74 101.771 51.74C104.059 51.74 105.753 51.498 106.853 51.014C107.953 50.53 108.503 49.76 108.503 48.704C108.503 47.78 108.151 47.098 107.447 46.658C106.743 46.174 105.621 45.932 104.081 45.932H94.4448V38.21H103.157C104.565 38.21 105.599 37.99 106.259 37.55C106.919 37.11 107.249 36.494 107.249 35.702C107.249 34.778 106.765 34.052 105.797 33.524C104.873 32.952 103.179 32.666 100.715 32.666C98.4268 32.666 96.3368 32.93 94.4448 33.458C92.5528 33.942 90.7928 34.58 89.1648 35.372L86.3928 28.376C88.2408 27.232 90.5508 26.352 93.3228 25.736C96.1388 25.076 99.2408 24.746 102.629 24.746C107.381 24.746 111.077 25.582 113.717 27.254C116.357 28.882 117.677 31.214 117.677 34.25C117.677 36.23 116.995 37.946 115.631 39.398C114.311 40.806 112.485 41.708 110.153 42.104V41.114C113.013 41.334 115.191 42.17 116.687 43.622C118.183 45.03 118.931 46.988 118.931 49.496C118.931 52.664 117.435 55.172 114.443 57.02C111.451 58.824 107.271 59.726 101.903 59.726ZM123.133 59V25.472H134.815V35.702H142.075C146.739 35.702 150.237 36.67 152.569 38.606C154.901 40.498 156.067 43.314 156.067 47.054C156.067 49.43 155.495 51.52 154.351 53.324C153.207 55.128 151.579 56.536 149.467 57.548C147.399 58.516 144.935 59 142.075 59H123.133ZM134.815 51.674H140.095C141.811 51.674 143.131 51.3 144.055 50.552C145.023 49.804 145.507 48.704 145.507 47.252C145.507 45.756 145.045 44.678 144.121 44.018C143.241 43.358 141.899 43.028 140.095 43.028H134.815V51.674ZM159.169 59V25.472H170.785V59H159.169ZM177.106 59V25.472H197.038C201.614 25.472 204.892 26.264 206.872 27.848C208.852 29.388 209.842 31.5 209.842 34.184C209.842 36.252 209.138 37.99 207.73 39.398C206.366 40.806 204.562 41.708 202.318 42.104V41.114C205.354 41.422 207.576 42.324 208.984 43.82C210.392 45.272 211.096 47.164 211.096 49.496C211.096 52.444 209.93 54.776 207.598 56.492C205.31 58.164 201.988 59 197.632 59H177.106ZM187.864 52.202H196.048C197.544 52.202 198.666 51.916 199.414 51.344C200.206 50.772 200.602 49.892 200.602 48.704C200.602 47.56 200.206 46.702 199.414 46.13C198.666 45.558 197.544 45.272 196.048 45.272H187.864V52.202ZM187.864 38.474H195.256C196.532 38.474 197.522 38.21 198.226 37.682C198.93 37.154 199.282 36.362 199.282 35.306C199.282 34.206 198.93 33.414 198.226 32.93C197.522 32.446 196.532 32.204 195.256 32.204H187.864V38.474ZM215.288 59V25.472H226.97V35.702H234.23C238.894 35.702 242.392 36.67 244.724 38.606C247.056 40.498 248.222 43.314 248.222 47.054C248.222 49.43 247.65 51.52 246.506 53.324C245.362 55.128 243.734 56.536 241.622 57.548C239.554 58.516 237.09 59 234.23 59H215.288ZM226.97 51.674H232.25C233.966 51.674 235.286 51.3 236.21 50.552C237.178 49.804 237.662 48.704 237.662 47.252C237.662 45.756 237.2 44.678 236.276 44.018C235.396 43.358 234.054 43.028 232.25 43.028H226.97V51.674ZM251.324 59V25.472H262.94V59H251.324ZM287.085 73.982L284.313 64.874C286.425 64.478 288.185 64.038 289.593 63.554C291.045 63.114 292.233 62.498 293.157 61.706C294.081 60.914 294.807 59.88 295.335 58.604L296.985 54.776L296.721 59.198L282.069 25.472H294.477L303.057 47.714H300.879L309.723 25.472H321.339L306.291 59.726C305.103 62.41 303.827 64.61 302.463 66.326C301.143 68.042 299.691 69.406 298.107 70.418C296.567 71.43 294.873 72.178 293.025 72.662C291.221 73.19 289.241 73.63 287.085 73.982ZM343.988 59V48.44C342.844 48.836 341.7 49.122 340.556 49.298C339.456 49.474 338.334 49.562 337.19 49.562C332.042 49.562 328.17 48.33 325.574 45.866C323.022 43.358 321.746 39.662 321.746 34.778V25.472H333.428V33.722C333.428 36.054 333.89 37.748 334.814 38.804C335.738 39.816 337.322 40.322 339.566 40.322C340.358 40.322 341.106 40.256 341.81 40.124C342.514 39.948 343.152 39.728 343.724 39.464V25.472H355.34V59H343.988ZM379.651 59.726C373.579 59.726 368.849 58.164 365.461 55.04C362.117 51.916 360.445 47.626 360.445 42.17C360.445 38.782 361.149 35.768 362.557 33.128C363.965 30.488 365.945 28.442 368.497 26.99C371.049 25.494 374.041 24.746 377.473 24.746C380.861 24.746 383.677 25.494 385.921 26.99C388.209 28.442 389.925 30.466 391.069 33.062C392.213 35.614 392.785 38.584 392.785 41.972V44.48H370.279V38.936H384.139L383.017 39.86C383.017 37.352 382.533 35.504 381.565 34.316C380.641 33.084 379.321 32.468 377.605 32.468C375.625 32.468 374.107 33.216 373.051 34.712C372.039 36.164 371.533 38.364 371.533 41.312V42.5C371.533 45.448 372.259 47.604 373.711 48.968C375.163 50.332 377.253 51.014 379.981 51.014C381.741 51.014 383.391 50.816 384.931 50.42C386.515 50.024 388.011 49.386 389.419 48.506L392.455 56.162C390.783 57.306 388.847 58.186 386.647 58.802C384.447 59.418 382.115 59.726 379.651 59.726ZM397.69 59V25.472H409.372V37.484H420.526V25.472H432.142V59H420.526V46.394H409.372V59H397.69ZM438.386 59V25.472H448.946V47.12H446.636L463.004 25.472H472.574V59H462.014V37.352H464.39L447.956 59H438.386ZM508.062 67.58V59H478.824V25.472H490.506V50.156H500.604V25.472H512.22V50.156H517.896V67.58H508.062Z" fill="#343434"/>
<path fill-rule="evenodd" clip-rule="evenodd" d="M172.162 102.617C170.852 104.235 170.167 104.857 169 104.857V114C172.88 114 175.222 111.193 176.688 109.383C178.343 107.339 178.617 107.143 179.093 107.143C180.138 107.143 180.535 107.566 181.761 109.232C181.787 109.268 181.814 109.304 181.841 109.341C183.145 111.115 185.265 114 189.187 114C193.067 114 195.409 111.193 196.875 109.383C198.53 107.339 198.804 107.143 199.28 107.143C200.324 107.143 200.722 107.566 201.948 109.232C201.974 109.268 202.001 109.304 202.028 109.341C203.332 111.115 205.452 114 209.374 114C213.203 114 215.499 111.108 216.889 109.317C218.507 107.231 218.71 107.143 219.047 107.143C219.929 107.143 220.259 107.469 221.454 109.163C221.483 109.204 221.513 109.246 221.543 109.289C222.778 111.043 224.859 114 228.72 114C232.6 114 234.942 111.193 236.408 109.383C238.063 107.339 238.337 107.143 238.813 107.143C239.857 107.143 240.254 107.566 241.481 109.232C241.507 109.268 241.534 109.304 241.561 109.341C242.865 111.115 244.985 114 248.907 114C252.787 114 255.129 111.193 256.595 109.383C258.25 107.339 258.524 107.143 259 107.143C260.044 107.143 260.441 107.566 261.668 109.232C261.694 109.268 261.721 109.304 261.748 109.341C263.052 111.115 265.172 114 269.093 114C272.974 114 275.316 111.193 276.782 109.383C278.437 107.339 278.711 107.143 279.187 107.143C280.231 107.143 280.628 107.566 281.855 109.232C281.881 109.268 281.907 109.304 281.934 109.341C283.239 111.115 285.359 114 289.28 114C293.109 114 295.405 111.108 296.795 109.317C298.413 107.231 298.617 107.143 298.953 107.143C299.835 107.143 300.166 107.469 301.361 109.163C301.39 109.204 301.419 109.246 301.449 109.289C302.684 111.043 304.766 114 308.626 114C312.506 114 314.849 111.193 316.315 109.383C317.969 107.339 318.244 107.143 318.72 107.143C319.764 107.143 320.161 107.566 321.387 109.232C321.414 109.268 321.44 109.304 321.467 109.341C322.771 111.115 324.892 114 328.813 114C332.693 114 335.035 111.193 336.502 109.383C338.156 107.339 338.431 107.143 338.907 107.143C339.951 107.143 340.348 107.566 341.574 109.232L341.654 109.341C342.958 111.115 345.078 114 349 114V104.857C347.956 104.857 347.559 104.434 346.332 102.768L346.252 102.659C344.948 100.885 342.828 98 338.907 98C335.627 98 333.461 100.741 332.263 102.256C332.16 102.386 332.064 102.508 331.975 102.617C330.665 104.235 329.98 104.857 328.813 104.857C327.769 104.857 327.372 104.434 326.145 102.768C326.119 102.732 326.093 102.696 326.066 102.659C324.761 100.885 322.641 98 318.72 98C315.44 98 313.274 100.741 312.076 102.256C311.973 102.386 311.877 102.508 311.788 102.617C310.479 104.235 309.793 104.857 308.626 104.857C307.744 104.857 307.414 104.531 306.219 102.837C306.19 102.796 306.16 102.754 306.13 102.711C304.895 100.957 302.814 98 298.953 98C295.705 98 293.571 100.824 292.439 102.323C292.34 102.454 292.248 102.575 292.164 102.683C290.894 104.32 290.288 104.857 289.28 104.857C288.236 104.857 287.839 104.434 286.613 102.768C286.586 102.732 286.56 102.696 286.533 102.659C285.229 100.885 283.108 98 279.187 98C275.908 98 273.741 100.741 272.543 102.256C272.44 102.386 272.344 102.508 272.255 102.617C270.946 104.235 270.26 104.857 269.093 104.857C268.049 104.857 267.652 104.434 266.426 102.768C266.4 102.732 266.373 102.696 266.346 102.659C265.042 100.885 262.922 98 259 98C255.721 98 253.554 100.741 252.356 102.256C252.253 102.386 252.157 102.508 252.069 102.617C250.759 104.235 250.073 104.857 248.907 104.857C247.862 104.857 247.465 104.434 246.239 102.768C246.213 102.732 246.186 102.696 246.159 102.659C244.855 100.885 242.735 98 238.813 98C235.534 98 233.367 100.741 232.17 102.256C232.066 102.386 231.97 102.508 231.882 102.617C230.572 104.235 229.886 104.857 228.72 104.857C227.838 104.857 227.507 104.531 226.312 102.837C226.283 102.796 226.254 102.754 226.224 102.711C224.989 100.957 222.907 98 219.047 98C215.799 98 213.665 100.824 212.532 102.323C212.433 102.454 212.341 102.575 212.258 102.683C210.987 104.32 210.381 104.857 209.374 104.857C208.33 104.857 207.932 104.434 206.706 102.768C206.68 102.732 206.653 102.696 206.626 102.659C205.322 100.885 203.202 98 199.28 98C196.001 98 193.835 100.741 192.637 102.256C192.534 102.386 192.438 102.508 192.349 102.617C191.039 104.235 190.353 104.857 189.187 104.857C188.143 104.857 187.746 104.434 186.519 102.768C186.493 102.732 186.466 102.696 186.439 102.659C185.135 100.885 183.015 98 179.093 98C175.814 98 173.648 100.741 172.45 102.256C172.347 102.386 172.251 102.508 172.162 102.617Z" fill="#D3E4F0"/>
</svg>
