<svg width="368" height="128" viewBox="0 0 368 128" fill="none" xmlns="http://www.w3.org/2000/svg">
<rect width="368" height="128" rx="16" fill="url(#paint0_linear_102_322)"/>
<path d="M33.892 48V32.49H46.982V48H44.958V34.206H35.916V48H33.892ZM55.3112 48.198C54.2259 48.198 53.2872 47.9707 52.4952 47.516C51.7032 47.0467 51.0872 46.3867 50.6472 45.536C50.2072 44.6707 49.9872 43.644 49.9872 42.456C49.9872 41.2827 50.2072 40.2707 50.6472 39.42C51.0872 38.5547 51.7032 37.8947 52.4952 37.44C53.2872 36.9707 54.2259 36.736 55.3112 36.736C56.3966 36.736 57.3352 36.9707 58.1272 37.44C58.9339 37.8947 59.5499 38.5547 59.9752 39.42C60.4152 40.2707 60.6352 41.2827 60.6352 42.456C60.6352 43.644 60.4152 44.6707 59.9752 45.536C59.5499 46.3867 58.9339 47.0467 58.1272 47.516C57.3352 47.9707 56.3966 48.198 55.3112 48.198ZM55.3112 46.614C56.3086 46.614 57.1079 46.262 57.7092 45.558C58.3106 44.854 58.6112 43.82 58.6112 42.456C58.6112 41.092 58.3106 40.0653 57.7092 39.376C57.1079 38.6867 56.3086 38.342 55.3112 38.342C54.2992 38.342 53.4926 38.6867 52.8912 39.376C52.3046 40.0653 52.0112 41.092 52.0112 42.456C52.0112 43.82 52.3046 44.854 52.8912 45.558C53.4926 46.262 54.2992 46.614 55.3112 46.614ZM63.4933 48V36.934H65.4733V41.51H71.3253V36.934H73.3053V48H71.3253V43.094H65.4733V48H63.4933ZM76.7277 48V36.934H78.5537V46.108H77.9597L84.8237 36.934H86.4957V48H84.6697V38.804H85.2857L78.3997 48H76.7277ZM89.9191 48V36.934H91.5911L95.6611 44.172L99.7531 36.934H101.403V48H99.6431V39.178H100.127L96.1671 46.218H95.1771L91.2171 39.156H91.6791V48H89.9191ZM109.119 48.198C108.151 48.198 107.301 47.9707 106.567 47.516C105.834 47.0613 105.262 46.4013 104.851 45.536C104.441 44.6707 104.235 43.644 104.235 42.456C104.235 41.268 104.441 40.2487 104.851 39.398C105.262 38.5327 105.834 37.8727 106.567 37.418C107.301 36.9633 108.151 36.736 109.119 36.736C110.102 36.736 110.953 36.9853 111.671 37.484C112.405 37.968 112.889 38.6353 113.123 39.486H112.859L113.101 36.934H115.037C114.993 37.374 114.949 37.814 114.905 38.254C114.876 38.694 114.861 39.1267 114.861 39.552V48H112.859V45.47H113.101C112.867 46.306 112.383 46.9733 111.649 47.472C110.931 47.956 110.087 48.198 109.119 48.198ZM109.581 46.614C110.579 46.614 111.378 46.262 111.979 45.558C112.581 44.854 112.881 43.82 112.881 42.456C112.881 41.092 112.581 40.0653 111.979 39.376C111.378 38.6867 110.579 38.342 109.581 38.342C108.584 38.342 107.777 38.6867 107.161 39.376C106.56 40.0653 106.259 41.092 106.259 42.456C106.259 43.82 106.56 44.854 107.161 45.558C107.763 46.262 108.569 46.614 109.581 46.614ZM118.386 48V36.934H120.366V41.51H126.218V36.934H128.198V48H126.218V43.094H120.366V48H118.386ZM131.62 48V36.934H133.446V46.108H132.852L139.716 36.934H141.388V48H139.562V38.804H140.178L133.292 48H131.62ZM149.916 48.198C148.156 48.198 146.762 47.692 145.736 46.68C144.724 45.668 144.218 44.2747 144.218 42.5C144.218 41.3267 144.438 40.3147 144.878 39.464C145.332 38.5987 145.956 37.9313 146.748 37.462C147.54 36.978 148.464 36.736 149.52 36.736C150.532 36.736 151.39 36.956 152.094 37.396C152.798 37.8213 153.333 38.43 153.7 39.222C154.066 40.014 154.25 40.9527 154.25 42.038V42.698H145.78V41.51H152.886L152.512 41.796C152.512 40.652 152.255 39.7647 151.742 39.134C151.243 38.5033 150.502 38.188 149.52 38.188C148.449 38.188 147.62 38.562 147.034 39.31C146.447 40.0433 146.154 41.048 146.154 42.324V42.522C146.154 43.8713 146.484 44.8907 147.144 45.58C147.818 46.2693 148.75 46.614 149.938 46.614C150.598 46.614 151.214 46.5187 151.786 46.328C152.358 46.1373 152.908 45.822 153.436 45.382L154.096 46.768C153.597 47.2227 152.974 47.5747 152.226 47.824C151.492 48.0733 150.722 48.198 149.916 48.198ZM165.213 48V38.54H161.231V36.934H171.175V38.54H167.193V48H165.213ZM177.665 48.198C176.579 48.198 175.641 47.9707 174.849 47.516C174.057 47.0467 173.441 46.3867 173.001 45.536C172.561 44.6707 172.341 43.644 172.341 42.456C172.341 41.2827 172.561 40.2707 173.001 39.42C173.441 38.5547 174.057 37.8947 174.849 37.44C175.641 36.9707 176.579 36.736 177.665 36.736C178.75 36.736 179.689 36.9707 180.481 37.44C181.287 37.8947 181.903 38.5547 182.329 39.42C182.769 40.2707 182.989 41.2827 182.989 42.456C182.989 43.644 182.769 44.6707 182.329 45.536C181.903 46.3867 181.287 47.0467 180.481 47.516C179.689 47.9707 178.75 48.198 177.665 48.198ZM177.665 46.614C178.662 46.614 179.461 46.262 180.063 45.558C180.664 44.854 180.965 43.82 180.965 42.456C180.965 41.092 180.664 40.0653 180.063 39.376C179.461 38.6867 178.662 38.342 177.665 38.342C176.653 38.342 175.846 38.6867 175.245 39.376C174.658 40.0653 174.365 41.092 174.365 42.456C174.365 43.82 174.658 44.854 175.245 45.558C175.846 46.262 176.653 46.614 177.665 46.614ZM185.847 48V36.934H193.701V38.54H187.849V48H185.847ZM200.481 48.198C199.396 48.198 198.457 47.9707 197.665 47.516C196.873 47.0467 196.257 46.3867 195.817 45.536C195.377 44.6707 195.157 43.644 195.157 42.456C195.157 41.2827 195.377 40.2707 195.817 39.42C196.257 38.5547 196.873 37.8947 197.665 37.44C198.457 36.9707 199.396 36.736 200.481 36.736C201.566 36.736 202.505 36.9707 203.297 37.44C204.104 37.8947 204.72 38.5547 205.145 39.42C205.585 40.2707 205.805 41.2827 205.805 42.456C205.805 43.644 205.585 44.6707 205.145 45.536C204.72 46.3867 204.104 47.0467 203.297 47.516C202.505 47.9707 201.566 48.198 200.481 48.198ZM200.481 46.614C201.478 46.614 202.278 46.262 202.879 45.558C203.48 44.854 203.781 43.82 203.781 42.456C203.781 41.092 203.48 40.0653 202.879 39.376C202.278 38.6867 201.478 38.342 200.481 38.342C199.469 38.342 198.662 38.6867 198.061 39.376C197.474 40.0653 197.181 41.092 197.181 42.456C197.181 43.82 197.474 44.854 198.061 45.558C198.662 46.262 199.469 46.614 200.481 46.614ZM208.936 50.618L208.034 49.914C208.445 49.4887 208.723 49.0853 208.87 48.704C209.017 48.3373 209.09 47.956 209.09 47.56L209.53 48H207.924V45.558H210.366V47.252C210.366 47.8827 210.263 48.462 210.058 48.99C209.853 49.5327 209.479 50.0753 208.936 50.618ZM219.08 48V36.89H221.808V41.246H223.48L226.736 36.89H229.684L225.592 42.434L224.998 41.576C225.408 41.62 225.768 41.73 226.076 41.906C226.398 42.082 226.699 42.3313 226.978 42.654C227.271 42.962 227.557 43.358 227.836 43.842L230.168 48H227.242L225.35 44.656C225.159 44.3187 224.968 44.0547 224.778 43.864C224.587 43.6733 224.374 43.5413 224.14 43.468C223.905 43.3947 223.619 43.358 223.282 43.358H221.808V48H219.08ZM236.004 48.22C235.036 48.22 234.186 47.9927 233.452 47.538C232.719 47.0687 232.147 46.4013 231.736 45.536C231.326 44.6707 231.12 43.6367 231.12 42.434C231.12 41.2313 231.326 40.2047 231.736 39.354C232.147 38.4887 232.719 37.8287 233.452 37.374C234.186 36.9047 235.036 36.67 236.004 36.67C236.943 36.67 237.764 36.9047 238.468 37.374C239.187 37.8287 239.664 38.4447 239.898 39.222H239.656L239.898 36.89H242.538C242.494 37.3447 242.45 37.8067 242.406 38.276C242.377 38.7453 242.362 39.2073 242.362 39.662V48H239.634L239.612 45.712H239.876C239.642 46.4747 239.165 47.0833 238.446 47.538C237.728 47.9927 236.914 48.22 236.004 48.22ZM236.774 46.108C237.64 46.108 238.336 45.8073 238.864 45.206C239.392 44.59 239.656 43.666 239.656 42.434C239.656 41.202 239.392 40.2853 238.864 39.684C238.336 39.0827 237.64 38.782 236.774 38.782C235.909 38.782 235.212 39.0827 234.684 39.684C234.156 40.2853 233.892 41.202 233.892 42.434C233.892 43.666 234.149 44.59 234.662 45.206C235.19 45.8073 235.894 46.108 236.774 46.108ZM245.57 48V36.89H248.298V41.246H249.97L253.226 36.89H256.174L252.082 42.434L251.488 41.576C251.898 41.62 252.258 41.73 252.566 41.906C252.888 42.082 253.189 42.3313 253.468 42.654C253.761 42.962 254.047 43.358 254.326 43.842L256.658 48H253.732L251.84 44.656C251.649 44.3187 251.458 44.0547 251.268 43.864C251.077 43.6733 250.864 43.5413 250.63 43.468C250.395 43.3947 250.109 43.358 249.772 43.358H248.298V48H245.57ZM33.43 76.994L32.792 74.816C33.4813 74.6693 34.0607 74.5007 34.53 74.31C34.9993 74.1193 35.388 73.87 35.696 73.562C36.004 73.254 36.2607 72.858 36.466 72.374L37.016 71.076L36.95 72.154L32.11 60.89H35.036L38.512 69.558H37.874L41.372 60.89H44.144L39.084 72.616C38.7467 73.408 38.38 74.0607 37.984 74.574C37.588 75.102 37.1627 75.52 36.708 75.828C36.2533 76.1507 35.7547 76.4 35.212 76.576C34.6693 76.752 34.0753 76.8913 33.43 76.994ZM50.8282 72.22C49.6842 72.22 48.6796 71.9853 47.8142 71.516C46.9636 71.0467 46.3036 70.3793 45.8342 69.514C45.3649 68.634 45.1302 67.5927 45.1302 66.39C45.1302 65.1873 45.3649 64.1607 45.8342 63.31C46.3182 62.4593 46.9856 61.8067 47.8362 61.352C48.6869 60.8973 49.6842 60.67 50.8282 60.67C51.5616 60.67 52.2729 60.7873 52.9622 61.022C53.6662 61.242 54.2382 61.5647 54.6782 61.99L53.8422 63.904C53.4462 63.5373 52.9989 63.266 52.5002 63.09C52.0162 62.8993 51.5396 62.804 51.0702 62.804C50.0876 62.804 49.3176 63.112 48.7602 63.728C48.2176 64.344 47.9462 65.2387 47.9462 66.412C47.9462 67.5853 48.2176 68.4873 48.7602 69.118C49.3176 69.7487 50.0876 70.064 51.0702 70.064C51.5249 70.064 51.9942 69.976 52.4782 69.8C52.9769 69.624 53.4316 69.3527 53.8422 68.986L54.6782 70.878C54.2236 71.3033 53.6442 71.6333 52.9402 71.868C52.2509 72.1027 51.5469 72.22 50.8282 72.22ZM59.4209 72V63.046H55.6149V60.89H65.9769V63.046H62.1489V72H59.4209ZM67.7672 76.752V63.662C67.7672 63.2073 67.7525 62.7453 67.7232 62.276C67.6939 61.8067 67.6499 61.3447 67.5912 60.89H70.2532L70.4952 63.222H70.2532C70.4732 62.4447 70.9352 61.8287 71.6392 61.374C72.3579 60.9047 73.1865 60.67 74.1252 60.67C75.1079 60.67 75.9659 60.9047 76.6992 61.374C77.4325 61.8287 78.0045 62.4887 78.4152 63.354C78.8259 64.2047 79.0312 65.2313 79.0312 66.434C79.0312 67.6367 78.8259 68.6707 78.4152 69.536C78.0045 70.4013 77.4325 71.0687 76.6992 71.538C75.9659 71.9927 75.1079 72.22 74.1252 72.22C73.2012 72.22 72.3872 71.9927 71.6832 71.538C70.9792 71.0833 70.5099 70.4747 70.2752 69.712H70.5172V76.752H67.7672ZM73.3552 70.108C74.2352 70.108 74.9392 69.8073 75.4672 69.206C75.9952 68.59 76.2592 67.666 76.2592 66.434C76.2592 65.202 75.9952 64.2853 75.4672 63.684C74.9392 63.0827 74.2352 62.782 73.3552 62.782C72.4899 62.782 71.7932 63.0827 71.2652 63.684C70.7372 64.2853 70.4732 65.202 70.4732 66.434C70.4732 67.666 70.7372 68.59 71.2652 69.206C71.7932 69.8073 72.4899 70.108 73.3552 70.108ZM86.7265 72.22C85.5825 72.22 84.5925 71.9853 83.7565 71.516C82.9205 71.0467 82.2679 70.3793 81.7985 69.514C81.3439 68.6487 81.1165 67.622 81.1165 66.434C81.1165 65.246 81.3439 64.2267 81.7985 63.376C82.2679 62.5107 82.9205 61.8433 83.7565 61.374C84.5925 60.9047 85.5825 60.67 86.7265 60.67C87.8705 60.67 88.8605 60.9047 89.6965 61.374C90.5472 61.8433 91.1999 62.5107 91.6545 63.376C92.1239 64.2267 92.3585 65.246 92.3585 66.434C92.3585 67.622 92.1239 68.6487 91.6545 69.514C91.1999 70.3793 90.5472 71.0467 89.6965 71.516C88.8605 71.9853 87.8705 72.22 86.7265 72.22ZM86.7265 70.108C87.5919 70.108 88.2812 69.8073 88.7945 69.206C89.3079 68.59 89.5645 67.666 89.5645 66.434C89.5645 65.202 89.3079 64.2853 88.7945 63.684C88.2812 63.0827 87.5919 62.782 86.7265 62.782C85.8612 62.782 85.1719 63.0827 84.6585 63.684C84.1452 64.2853 83.8885 65.202 83.8885 66.434C83.8885 67.666 84.1452 68.59 84.6585 69.206C85.1719 69.8073 85.8612 70.108 86.7265 70.108ZM100.42 72.22C98.5577 72.22 97.0983 71.7067 96.0423 70.68C94.9863 69.6533 94.4583 68.2453 94.4583 66.456C94.4583 65.2973 94.6857 64.2853 95.1403 63.42C95.595 62.5547 96.2257 61.88 97.0323 61.396C97.8537 60.912 98.807 60.67 99.8923 60.67C100.963 60.67 101.858 60.8973 102.576 61.352C103.295 61.8067 103.838 62.4447 104.204 63.266C104.586 64.0873 104.776 65.048 104.776 66.148V66.874H96.6803V65.422H102.818L102.444 65.73C102.444 64.7033 102.224 63.9187 101.784 63.376C101.359 62.8333 100.736 62.562 99.9143 62.562C99.005 62.562 98.301 62.8847 97.8023 63.53C97.3183 64.1753 97.0763 65.0773 97.0763 66.236V66.522C97.0763 67.7247 97.3697 68.6267 97.9563 69.228C98.5577 69.8147 99.401 70.108 100.486 70.108C101.117 70.108 101.704 70.0273 102.246 69.866C102.804 69.69 103.332 69.4113 103.83 69.03L104.644 70.878C104.116 71.3033 103.486 71.6333 102.752 71.868C102.019 72.1027 101.242 72.22 100.42 72.22ZM107.318 72V60.89H110.046V65.246H115.062V60.89H117.79V72H115.062V67.358H110.046V72H107.318ZM126.955 72V60.89H129.243L133.071 67.534L136.899 60.89H139.187V72H136.767V63.97H137.273L133.709 70.196H132.433L128.869 63.97H129.375V72H126.955ZM142.316 72V60.89H144.802V69.294H144.142L150.456 60.89H152.722V72H150.236V63.574H150.918L144.582 72H142.316ZM155.939 76.752V63.662C155.939 63.2073 155.924 62.7453 155.895 62.276C155.866 61.8067 155.822 61.3447 155.763 60.89H158.425L158.667 63.222H158.425C158.645 62.4447 159.107 61.8287 159.811 61.374C160.53 60.9047 161.358 60.67 162.297 60.67C163.28 60.67 164.138 60.9047 164.871 61.374C165.604 61.8287 166.176 62.4887 166.587 63.354C166.998 64.2047 167.203 65.2313 167.203 66.434C167.203 67.6367 166.998 68.6707 166.587 69.536C166.176 70.4013 165.604 71.0687 164.871 71.538C164.138 71.9927 163.28 72.22 162.297 72.22C161.373 72.22 160.559 71.9927 159.855 71.538C159.151 71.0833 158.682 70.4747 158.447 69.712H158.689V76.752H155.939ZM161.527 70.108C162.407 70.108 163.111 69.8073 163.639 69.206C164.167 68.59 164.431 67.666 164.431 66.434C164.431 65.202 164.167 64.2853 163.639 63.684C163.111 63.0827 162.407 62.782 161.527 62.782C160.662 62.782 159.965 63.0827 159.437 63.684C158.909 64.2853 158.645 65.202 158.645 66.434C158.645 67.666 158.909 68.59 159.437 69.206C159.965 69.8073 160.662 70.108 161.527 70.108ZM180.936 72.22C179.792 72.22 178.802 71.9853 177.966 71.516C177.13 71.0467 176.477 70.3793 176.008 69.514C175.553 68.6487 175.326 67.622 175.326 66.434C175.326 65.246 175.553 64.2267 176.008 63.376C176.477 62.5107 177.13 61.8433 177.966 61.374C178.802 60.9047 179.792 60.67 180.936 60.67C182.08 60.67 183.07 60.9047 183.906 61.374C184.756 61.8433 185.409 62.5107 185.864 63.376C186.333 64.2267 186.568 65.246 186.568 66.434C186.568 67.622 186.333 68.6487 185.864 69.514C185.409 70.3793 184.756 71.0467 183.906 71.516C183.07 71.9853 182.08 72.22 180.936 72.22ZM180.936 70.108C181.801 70.108 182.49 69.8073 183.004 69.206C183.517 68.59 183.774 67.666 183.774 66.434C183.774 65.202 183.517 64.2853 183.004 63.684C182.49 63.0827 181.801 62.782 180.936 62.782C180.07 62.782 179.381 63.0827 178.868 63.684C178.354 64.2853 178.098 65.202 178.098 66.434C178.098 67.666 178.354 68.59 178.868 69.206C179.381 69.8073 180.07 70.108 180.936 70.108ZM189.173 72V60.89H191.901V65.246H196.917V60.89H199.645V72H196.917V67.358H191.901V72H189.173ZM202.487 72.308L201.629 70.152C202.113 69.976 202.516 69.7487 202.839 69.47C203.176 69.1767 203.44 68.81 203.631 68.37C203.836 67.9153 203.983 67.358 204.071 66.698C204.159 66.0233 204.203 65.224 204.203 64.3V60.89H213.047V72H210.319V63.002H206.711V64.388C206.711 65.9867 206.564 67.3287 206.271 68.414C205.978 69.4847 205.523 70.3353 204.907 70.966C204.291 71.5967 203.484 72.044 202.487 72.308ZM220.557 72.22C219.589 72.22 218.739 71.9927 218.005 71.538C217.272 71.0687 216.7 70.4013 216.289 69.536C215.879 68.6707 215.673 67.6367 215.673 66.434C215.673 65.2313 215.879 64.2047 216.289 63.354C216.7 62.4887 217.272 61.8287 218.005 61.374C218.739 60.9047 219.589 60.67 220.557 60.67C221.496 60.67 222.317 60.9047 223.021 61.374C223.74 61.8287 224.217 62.4447 224.451 63.222H224.209L224.451 60.89H227.091C227.047 61.3447 227.003 61.8067 226.959 62.276C226.93 62.7453 226.915 63.2073 226.915 63.662V72H224.187L224.165 69.712H224.429C224.195 70.4747 223.718 71.0833 222.999 71.538C222.281 71.9927 221.467 72.22 220.557 72.22ZM221.327 70.108C222.193 70.108 222.889 69.8073 223.417 69.206C223.945 68.59 224.209 67.666 224.209 66.434C224.209 65.202 223.945 64.2853 223.417 63.684C222.889 63.0827 222.193 62.782 221.327 62.782C220.462 62.782 219.765 63.0827 219.237 63.684C218.709 64.2853 218.445 65.202 218.445 66.434C218.445 67.666 218.702 68.59 219.215 69.206C219.743 69.8073 220.447 70.108 221.327 70.108ZM230.123 72V60.89H232.609V69.294H231.949L238.263 60.89H240.529V72H238.043V63.574H238.725L232.389 72H230.123ZM235.315 59.878C234.581 59.878 233.936 59.7607 233.379 59.526C232.821 59.2767 232.359 58.932 231.993 58.492C231.626 58.0373 231.362 57.502 231.201 56.886L232.609 56.402C232.858 57.0767 233.203 57.5753 233.643 57.898C234.083 58.206 234.647 58.36 235.337 58.36C236.026 58.36 236.591 58.206 237.031 57.898C237.471 57.59 237.83 57.0987 238.109 56.424L239.451 56.886C239.143 57.8687 238.629 58.6167 237.911 59.13C237.207 59.6287 236.341 59.878 235.315 59.878ZM243.658 72V60.89H246.386V65.246H251.402V60.89H254.13V72H251.402V67.358H246.386V72H243.658ZM257.169 67.028V64.85H263.857V67.028H257.169ZM37.654 96.22C36.6567 96.22 35.718 96.1027 34.838 95.868C33.9727 95.6333 33.2467 95.296 32.66 94.856L33.43 93.052C33.9727 93.448 34.6033 93.7487 35.322 93.954C36.0553 94.1593 36.8253 94.262 37.632 94.262C38.5707 94.262 39.2527 94.1373 39.678 93.888C40.118 93.624 40.338 93.2427 40.338 92.744C40.338 92.2747 40.1693 91.9227 39.832 91.688C39.4947 91.4387 38.996 91.314 38.336 91.314H35.454V89.422H38.072C38.6733 89.422 39.1353 89.3047 39.458 89.07C39.7807 88.8353 39.942 88.5053 39.942 88.08C39.942 87.6253 39.744 87.266 39.348 87.002C38.9667 86.738 38.336 86.606 37.456 86.606C36.6933 86.606 35.9967 86.7013 35.366 86.892C34.7353 87.068 34.1413 87.332 33.584 87.684L32.836 85.968C33.4373 85.5427 34.1633 85.22 35.014 85C35.8793 84.78 36.818 84.67 37.83 84.67C39.3113 84.67 40.448 84.9413 41.24 85.484C42.032 86.0267 42.428 86.7967 42.428 87.794C42.428 88.4687 42.1933 89.048 41.724 89.532C41.2693 90.016 40.6533 90.3167 39.876 90.434V90.126C40.7853 90.1847 41.504 90.456 42.032 90.94C42.56 91.424 42.824 92.0767 42.824 92.898C42.824 93.91 42.3767 94.7167 41.482 95.318C40.5873 95.9193 39.3113 96.22 37.654 96.22ZM49.606 96.22C48.638 96.22 47.7873 95.9927 47.054 95.538C46.3207 95.0687 45.7487 94.4013 45.338 93.536C44.9273 92.6707 44.722 91.6367 44.722 90.434C44.722 89.2313 44.9273 88.2047 45.338 87.354C45.7487 86.4887 46.3207 85.8287 47.054 85.374C47.7873 84.9047 48.638 84.67 49.606 84.67C50.5447 84.67 51.366 84.9047 52.07 85.374C52.7887 85.8287 53.2653 86.4447 53.5 87.222H53.258L53.5 84.89H56.14C56.096 85.3447 56.052 85.8067 56.008 86.276C55.9787 86.7453 55.964 87.2073 55.964 87.662V96H53.236L53.214 93.712H53.478C53.2433 94.4747 52.7667 95.0833 52.048 95.538C51.3293 95.9927 50.5153 96.22 49.606 96.22ZM50.376 94.108C51.2413 94.108 51.938 93.8073 52.466 93.206C52.994 92.59 53.258 91.666 53.258 90.434C53.258 89.202 52.994 88.2853 52.466 87.684C51.938 87.0827 51.2413 86.782 50.376 86.782C49.5107 86.782 48.814 87.0827 48.286 87.684C47.758 88.2853 47.494 89.202 47.494 90.434C47.494 91.666 47.7507 92.59 48.264 93.206C48.792 93.8073 49.496 94.108 50.376 94.108ZM59.2594 100.752V87.662C59.2594 87.2073 59.2447 86.7453 59.2154 86.276C59.186 85.8067 59.142 85.3447 59.0834 84.89H61.7454L61.9874 87.222H61.7454C61.9654 86.4447 62.4274 85.8287 63.1314 85.374C63.85 84.9047 64.6787 84.67 65.6174 84.67C66.6 84.67 67.458 84.9047 68.1914 85.374C68.9247 85.8287 69.4967 86.4887 69.9074 87.354C70.318 88.2047 70.5234 89.2313 70.5234 90.434C70.5234 91.6367 70.318 92.6707 69.9074 93.536C69.4967 94.4013 68.9247 95.0687 68.1914 95.538C67.458 95.9927 66.6 96.22 65.6174 96.22C64.6934 96.22 63.8794 95.9927 63.1754 95.538C62.4714 95.0833 62.002 94.4747 61.7674 93.712H62.0094V100.752H59.2594ZM64.8474 94.108C65.7274 94.108 66.4314 93.8073 66.9594 93.206C67.4874 92.59 67.7514 91.666 67.7514 90.434C67.7514 89.202 67.4874 88.2853 66.9594 87.684C66.4314 87.0827 65.7274 86.782 64.8474 86.782C63.982 86.782 63.2854 87.0827 62.7574 87.684C62.2294 88.2853 61.9654 89.202 61.9654 90.434C61.9654 91.666 62.2294 92.59 62.7574 93.206C63.2854 93.8073 63.982 94.108 64.8474 94.108ZM77.4927 96.22C76.5247 96.22 75.6741 95.9927 74.9407 95.538C74.2074 95.0687 73.6354 94.4013 73.2247 93.536C72.8141 92.6707 72.6087 91.6367 72.6087 90.434C72.6087 89.2313 72.8141 88.2047 73.2247 87.354C73.6354 86.4887 74.2074 85.8287 74.9407 85.374C75.6741 84.9047 76.5247 84.67 77.4927 84.67C78.4314 84.67 79.2527 84.9047 79.9567 85.374C80.6754 85.8287 81.1521 86.4447 81.3867 87.222H81.1447L81.3867 84.89H84.0267C83.9827 85.3447 83.9387 85.8067 83.8947 86.276C83.8654 86.7453 83.8507 87.2073 83.8507 87.662V96H81.1227L81.1007 93.712H81.3647C81.1301 94.4747 80.6534 95.0833 79.9347 95.538C79.2161 95.9927 78.4021 96.22 77.4927 96.22ZM78.2627 94.108C79.1281 94.108 79.8247 93.8073 80.3527 93.206C80.8807 92.59 81.1447 91.666 81.1447 90.434C81.1447 89.202 80.8807 88.2853 80.3527 87.684C79.8247 87.0827 79.1281 86.782 78.2627 86.782C77.3974 86.782 76.7007 87.0827 76.1727 87.684C75.6447 88.2853 75.3807 89.202 75.3807 90.434C75.3807 91.666 75.6374 92.59 76.1507 93.206C76.6787 93.8073 77.3827 94.108 78.2627 94.108ZM92.2721 96.22C90.5268 96.22 89.1334 95.692 88.0921 94.636C87.0654 93.58 86.5521 92.0327 86.5521 89.994V88.102C86.5521 86.0047 87.0288 84.318 87.9821 83.042C88.9354 81.766 90.3728 80.9227 92.2941 80.512L96.3641 79.588L97.1121 81.744L92.5361 82.756C91.7734 82.9173 91.1428 83.2253 90.6441 83.68C90.1454 84.12 89.7714 84.648 89.5221 85.264C89.2728 85.88 89.1481 86.54 89.1481 87.244V88.41H88.7741C88.9354 87.75 89.2068 87.178 89.5881 86.694C89.9694 86.1953 90.4534 85.8067 91.0401 85.528C91.6268 85.2493 92.2941 85.11 93.0421 85.11C93.9808 85.11 94.8021 85.33 95.5061 85.77C96.2248 86.1953 96.7894 86.8187 97.2001 87.64C97.6108 88.4467 97.8161 89.4147 97.8161 90.544C97.8161 91.7027 97.5814 92.7073 97.1121 93.558C96.6574 94.4087 96.0121 95.0687 95.1761 95.538C94.3548 95.9927 93.3868 96.22 92.2721 96.22ZM92.1841 94.13C93.0934 94.13 93.7974 93.844 94.2961 93.272C94.8094 92.6853 95.0661 91.8127 95.0661 90.654C95.0661 89.5247 94.8094 88.6667 94.2961 88.08C93.7828 87.4787 93.0788 87.178 92.1841 87.178C91.2894 87.178 90.5854 87.4713 90.0721 88.058C89.5588 88.6447 89.3021 89.4807 89.3021 90.566C89.3021 91.754 89.5588 92.6487 90.0721 93.25C90.5854 93.8367 91.2894 94.13 92.1841 94.13ZM105.525 96.22C104.381 96.22 103.391 95.9853 102.555 95.516C101.719 95.0467 101.067 94.3793 100.597 93.514C100.143 92.6487 99.9154 91.622 99.9154 90.434C99.9154 89.246 100.143 88.2267 100.597 87.376C101.067 86.5107 101.719 85.8433 102.555 85.374C103.391 84.9047 104.381 84.67 105.525 84.67C106.669 84.67 107.659 84.9047 108.495 85.374C109.346 85.8433 109.999 86.5107 110.453 87.376C110.923 88.2267 111.157 89.246 111.157 90.434C111.157 91.622 110.923 92.6487 110.453 93.514C109.999 94.3793 109.346 95.0467 108.495 95.516C107.659 95.9853 106.669 96.22 105.525 96.22ZM105.525 94.108C106.391 94.108 107.08 93.8073 107.593 93.206C108.107 92.59 108.363 91.666 108.363 90.434C108.363 89.202 108.107 88.2853 107.593 87.684C107.08 87.0827 106.391 86.782 105.525 86.782C104.66 86.782 103.971 87.0827 103.457 87.684C102.944 88.2853 102.687 89.202 102.687 90.434C102.687 91.666 102.944 92.59 103.457 93.206C103.971 93.8073 104.66 94.108 105.525 94.108ZM116.161 96V87.046H112.355V84.89H122.717V87.046H118.889V96H116.161ZM124.419 96V84.89H127.147V89.246H128.819L132.075 84.89H135.023L130.931 90.434L130.337 89.576C130.748 89.62 131.107 89.73 131.415 89.906C131.738 90.082 132.039 90.3313 132.317 90.654C132.611 90.962 132.897 91.358 133.175 91.842L135.507 96H132.581L130.689 92.656C130.499 92.3187 130.308 92.0547 130.117 91.864C129.927 91.6733 129.714 91.5413 129.479 91.468C129.245 91.3947 128.959 91.358 128.621 91.358H127.147V96H124.419ZM141.344 96.22C140.376 96.22 139.526 95.9927 138.792 95.538C138.059 95.0687 137.487 94.4013 137.076 93.536C136.666 92.6707 136.46 91.6367 136.46 90.434C136.46 89.2313 136.666 88.2047 137.076 87.354C137.487 86.4887 138.059 85.8287 138.792 85.374C139.526 84.9047 140.376 84.67 141.344 84.67C142.283 84.67 143.104 84.9047 143.808 85.374C144.527 85.8287 145.004 86.4447 145.238 87.222H144.996L145.238 84.89H147.878C147.834 85.3447 147.79 85.8067 147.746 86.276C147.717 86.7453 147.702 87.2073 147.702 87.662V96H144.974L144.952 93.712H145.216C144.982 94.4747 144.505 95.0833 143.786 95.538C143.068 95.9927 142.254 96.22 141.344 96.22ZM142.114 94.108C142.98 94.108 143.676 93.8073 144.204 93.206C144.732 92.59 144.996 91.666 144.996 90.434C144.996 89.202 144.732 88.2853 144.204 87.684C143.676 87.0827 142.98 86.782 142.114 86.782C141.249 86.782 140.552 87.0827 140.024 87.684C139.496 88.2853 139.232 89.202 139.232 90.434C139.232 91.666 139.489 92.59 140.002 93.206C140.53 93.8073 141.234 94.108 142.114 94.108Z" fill="#343434"/>
<circle cx="346" cy="22" r="6" fill="#343434" fill-opacity="0.12"/>
<defs>
<linearGradient id="paint0_linear_102_322" x1="184" y1="0" x2="184" y2="128" gradientUnits="userSpaceOnUse">
<stop stop-color="#F0ECD3" stop-opacity="0.64"/>
<stop offset="1" stop-color="#F0ECD3" stop-opacity="0"/>
</linearGradient>
</defs>
</svg>
