<svg width="368" height="128" viewBox="0 0 368 128" fill="none" xmlns="http://www.w3.org/2000/svg">
<rect width="368" height="128" rx="16" fill="url(#paint0_linear_112_124)"/>
<path d="M36.4 48L39.084 42.94L39.128 43.688L31.912 32.49H34.134L40.14 41.862H39.7L44.65 32.49H46.784L38.556 48H36.4ZM51.271 48.198C50.303 48.198 49.401 48.0733 48.565 47.824C47.729 47.5747 47.0396 47.2227 46.497 46.768L47.157 45.382C47.6996 45.822 48.3156 46.152 49.005 46.372C49.6943 46.592 50.4423 46.702 51.249 46.702C52.305 46.702 53.0676 46.548 53.537 46.24C54.021 45.9173 54.263 45.4553 54.263 44.854C54.263 44.282 54.065 43.8493 53.669 43.556C53.273 43.2627 52.6936 43.116 51.931 43.116H49.247V41.664H51.689C52.3783 41.664 52.9136 41.5173 53.295 41.224C53.691 40.916 53.889 40.498 53.889 39.97C53.889 39.4273 53.669 39.002 53.229 38.694C52.789 38.3713 52.1143 38.21 51.205 38.21C50.4423 38.21 49.7456 38.3127 49.115 38.518C48.4843 38.7087 47.883 39.002 47.311 39.398L46.673 38.1C47.2743 37.6307 47.9783 37.286 48.785 37.066C49.5916 36.846 50.4716 36.736 51.425 36.736C52.8183 36.736 53.8816 37.0073 54.615 37.55C55.363 38.078 55.737 38.8333 55.737 39.816C55.737 40.5053 55.5023 41.0993 55.033 41.598C54.5636 42.082 53.9403 42.3753 53.163 42.478V42.192C54.043 42.236 54.7543 42.5073 55.297 43.006C55.8396 43.49 56.111 44.1353 56.111 44.942C56.111 45.9247 55.7003 46.7167 54.879 47.318C54.0576 47.9047 52.855 48.198 51.271 48.198ZM58.7883 48V36.934H60.7683V41.51H66.6203V36.934H68.6003V48H66.6203V43.094H60.7683V48H58.7883ZM76.3126 48.198C75.3446 48.198 74.494 47.9707 73.7606 47.516C73.0273 47.0613 72.4553 46.4013 72.0446 45.536C71.634 44.6707 71.4286 43.644 71.4286 42.456C71.4286 41.268 71.634 40.2487 72.0446 39.398C72.4553 38.5327 73.0273 37.8727 73.7606 37.418C74.494 36.9633 75.3446 36.736 76.3126 36.736C77.2953 36.736 78.146 36.9853 78.8646 37.484C79.598 37.968 80.082 38.6353 80.3166 39.486H80.0526L80.2946 36.934H82.2306C82.1866 37.374 82.1426 37.814 82.0986 38.254C82.0693 38.694 82.0546 39.1267 82.0546 39.552V48H80.0526V45.47H80.2946C80.06 46.306 79.576 46.9733 78.8426 47.472C78.124 47.956 77.2806 48.198 76.3126 48.198ZM76.7746 46.614C77.772 46.614 78.5713 46.262 79.1726 45.558C79.774 44.854 80.0746 43.82 80.0746 42.456C80.0746 41.092 79.774 40.0653 79.1726 39.376C78.5713 38.6867 77.772 38.342 76.7746 38.342C75.7773 38.342 74.9706 38.6867 74.3546 39.376C73.7533 40.0653 73.4526 41.092 73.4526 42.456C73.4526 43.82 73.7533 44.854 74.3546 45.558C74.956 46.262 75.7626 46.614 76.7746 46.614ZM90.6833 48.198C88.9233 48.198 87.5299 47.692 86.5033 46.68C85.4913 45.668 84.9853 44.2747 84.9853 42.5C84.9853 41.3267 85.2053 40.3147 85.6453 39.464C86.0999 38.5987 86.7233 37.9313 87.5153 37.462C88.3073 36.978 89.2313 36.736 90.2873 36.736C91.2993 36.736 92.1573 36.956 92.8613 37.396C93.5653 37.8213 94.1006 38.43 94.4673 39.222C94.8339 40.014 95.0173 40.9527 95.0173 42.038V42.698H86.5473V41.51H93.6533L93.2793 41.796C93.2793 40.652 93.0226 39.7647 92.5093 39.134C92.0106 38.5033 91.2699 38.188 90.2873 38.188C89.2166 38.188 88.3879 38.562 87.8013 39.31C87.2146 40.0433 86.9213 41.048 86.9213 42.324V42.522C86.9213 43.8713 87.2513 44.8907 87.9113 45.58C88.5859 46.2693 89.5173 46.614 90.7053 46.614C91.3653 46.614 91.9813 46.5187 92.5533 46.328C93.1253 46.1373 93.6753 45.822 94.2033 45.382L94.8633 46.768C94.3646 47.2227 93.7413 47.5747 92.9933 47.824C92.2599 48.0733 91.4899 48.198 90.6833 48.198ZM97.8039 48V36.934H99.6959V46.438H104.206V36.934H106.098V46.438H110.586V36.934H112.5V48H97.8039ZM115.937 48V36.934H117.917V40.85H121.173C122.61 40.85 123.688 41.158 124.407 41.774C125.14 42.3753 125.507 43.248 125.507 44.392C125.507 45.1253 125.338 45.7633 125.001 46.306C124.663 46.8487 124.172 47.2667 123.527 47.56C122.881 47.8533 122.097 48 121.173 48H115.937ZM117.917 46.614H120.953C121.818 46.614 122.478 46.438 122.933 46.086C123.387 45.7193 123.615 45.162 123.615 44.414C123.615 43.666 123.387 43.116 122.933 42.764C122.493 42.412 121.833 42.236 120.953 42.236H117.917V46.614ZM128.713 50.618L127.811 49.914C128.222 49.4887 128.501 49.0853 128.647 48.704C128.794 48.3373 128.867 47.956 128.867 47.56L129.307 48H127.701V45.558H130.143V47.252C130.143 47.8827 130.041 48.462 129.835 48.99C129.63 49.5327 129.256 50.0753 128.713 50.618ZM139.011 48V36.934H146.865V38.54H141.013V48H139.011ZM147.771 50.86V46.438H148.981C149.48 45.69 149.839 44.81 150.059 43.798C150.294 42.786 150.411 41.5833 150.411 40.19V36.934H158.353V46.438H160.113V50.86H158.397V48H149.509V50.86H147.771ZM150.873 46.46H156.483V38.474H152.171V40.542C152.171 41.6567 152.061 42.742 151.841 43.798C151.621 44.8393 151.299 45.7267 150.873 46.46ZM167.533 48.198C165.773 48.198 164.38 47.692 163.353 46.68C162.341 45.668 161.835 44.2747 161.835 42.5C161.835 41.3267 162.055 40.3147 162.495 39.464C162.95 38.5987 163.573 37.9313 164.365 37.462C165.157 36.978 166.081 36.736 167.137 36.736C168.149 36.736 169.007 36.956 169.711 37.396C170.415 37.8213 170.95 38.43 171.317 39.222C171.684 40.014 171.867 40.9527 171.867 42.038V42.698H163.397V41.51H170.503L170.129 41.796C170.129 40.652 169.872 39.7647 169.359 39.134C168.86 38.5033 168.12 38.188 167.137 38.188C166.066 38.188 165.238 38.562 164.651 39.31C164.064 40.0433 163.771 41.048 163.771 42.324V42.522C163.771 43.8713 164.101 44.8907 164.761 45.58C165.436 46.2693 166.367 46.614 167.555 46.614C168.215 46.614 168.831 46.5187 169.403 46.328C169.975 46.1373 170.525 45.822 171.053 45.382L171.713 46.768C171.214 47.2227 170.591 47.5747 169.843 47.824C169.11 48.0733 168.34 48.198 167.533 48.198ZM180.454 48V36.934H182.28V46.108H181.686L188.55 36.934H190.222V48H188.396V38.804H189.012L182.126 48H180.454ZM199.292 48V36.89H202.02V41.246H203.692L206.948 36.89H209.896L205.804 42.434L205.21 41.576C205.621 41.62 205.98 41.73 206.288 41.906C206.611 42.082 206.912 42.3313 207.19 42.654C207.484 42.962 207.77 43.358 208.048 43.842L210.38 48H207.454L205.562 44.656C205.372 44.3187 205.181 44.0547 204.99 43.864C204.8 43.6733 204.587 43.5413 204.352 43.468C204.118 43.3947 203.832 43.358 203.494 43.358H202.02V48H199.292ZM216.217 48.22C215.249 48.22 214.399 47.9927 213.665 47.538C212.932 47.0687 212.36 46.4013 211.949 45.536C211.539 44.6707 211.333 43.6367 211.333 42.434C211.333 41.2313 211.539 40.2047 211.949 39.354C212.36 38.4887 212.932 37.8287 213.665 37.374C214.399 36.9047 215.249 36.67 216.217 36.67C217.156 36.67 217.977 36.9047 218.681 37.374C219.4 37.8287 219.877 38.4447 220.111 39.222H219.869L220.111 36.89H222.751C222.707 37.3447 222.663 37.8067 222.619 38.276C222.59 38.7453 222.575 39.2073 222.575 39.662V48H219.847L219.825 45.712H220.089C219.855 46.4747 219.378 47.0833 218.659 47.538C217.941 47.9927 217.127 48.22 216.217 48.22ZM216.987 46.108C217.853 46.108 218.549 45.8073 219.077 45.206C219.605 44.59 219.869 43.666 219.869 42.434C219.869 41.202 219.605 40.2853 219.077 39.684C218.549 39.0827 217.853 38.782 216.987 38.782C216.122 38.782 215.425 39.0827 214.897 39.684C214.369 40.2853 214.105 41.202 214.105 42.434C214.105 43.666 214.362 44.59 214.875 45.206C215.403 45.8073 216.107 46.108 216.987 46.108ZM225.783 48V36.89H228.511V41.246H230.183L233.439 36.89H236.387L232.295 42.434L231.701 41.576C232.111 41.62 232.471 41.73 232.779 41.906C233.101 42.082 233.402 42.3313 233.681 42.654C233.974 42.962 234.26 43.358 234.539 43.842L236.871 48H233.945L232.053 44.656C231.862 44.3187 231.671 44.0547 231.481 43.864C231.29 43.6733 231.077 43.5413 230.843 43.468C230.608 43.3947 230.322 43.358 229.985 43.358H228.511V48H225.783ZM249.581 48.22C247.835 48.22 246.442 47.692 245.401 46.636C244.374 45.58 243.861 44.0327 243.861 41.994V40.102C243.861 38.0047 244.337 36.318 245.291 35.042C246.244 33.766 247.681 32.9227 249.603 32.512L253.673 31.588L254.421 33.744L249.845 34.756C249.082 34.9173 248.451 35.2253 247.953 35.68C247.454 36.12 247.08 36.648 246.831 37.264C246.581 37.88 246.457 38.54 246.457 39.244V40.41H246.083C246.244 39.75 246.515 39.178 246.897 38.694C247.278 38.1953 247.762 37.8067 248.349 37.528C248.935 37.2493 249.603 37.11 250.351 37.11C251.289 37.11 252.111 37.33 252.815 37.77C253.533 38.1953 254.098 38.8187 254.509 39.64C254.919 40.4467 255.125 41.4147 255.125 42.544C255.125 43.7027 254.89 44.7073 254.421 45.558C253.966 46.4087 253.321 47.0687 252.485 47.538C251.663 47.9927 250.695 48.22 249.581 48.22ZM249.493 46.13C250.402 46.13 251.106 45.844 251.605 45.272C252.118 44.6853 252.375 43.8127 252.375 42.654C252.375 41.5247 252.118 40.6667 251.605 40.08C251.091 39.4787 250.387 39.178 249.493 39.178C248.598 39.178 247.894 39.4713 247.381 40.058C246.867 40.6447 246.611 41.4807 246.611 42.566C246.611 43.754 246.867 44.6487 247.381 45.25C247.894 45.8367 248.598 46.13 249.493 46.13ZM257.73 48V36.89H260.458V40.608H263.384C264.865 40.608 265.98 40.9233 266.728 41.554C267.476 42.17 267.85 43.0647 267.85 44.238C267.85 45.0007 267.674 45.668 267.322 46.24C266.97 46.7973 266.457 47.23 265.782 47.538C265.122 47.846 264.323 48 263.384 48H257.73ZM260.458 46.196H263.01C263.758 46.196 264.33 46.042 264.726 45.734C265.122 45.4113 265.32 44.9273 265.32 44.282C265.32 43.6367 265.122 43.1673 264.726 42.874C264.345 42.566 263.773 42.412 263.01 42.412H260.458V46.196ZM269.236 48V36.89H271.964V48H269.236ZM280.281 48.22C279.137 48.22 278.133 47.9853 277.267 47.516C276.417 47.0467 275.757 46.3793 275.287 45.514C274.818 44.634 274.583 43.5927 274.583 42.39C274.583 41.1873 274.818 40.1607 275.287 39.31C275.771 38.4593 276.439 37.8067 277.289 37.352C278.14 36.8973 279.137 36.67 280.281 36.67C281.015 36.67 281.726 36.7873 282.415 37.022C283.119 37.242 283.691 37.5647 284.131 37.99L283.295 39.904C282.899 39.5373 282.452 39.266 281.953 39.09C281.469 38.8993 280.993 38.804 280.523 38.804C279.541 38.804 278.771 39.112 278.213 39.728C277.671 40.344 277.399 41.2387 277.399 42.412C277.399 43.5853 277.671 44.4873 278.213 45.118C278.771 45.7487 279.541 46.064 280.523 46.064C280.978 46.064 281.447 45.976 281.931 45.8C282.43 45.624 282.885 45.3527 283.295 44.986L284.131 46.878C283.677 47.3033 283.097 47.6333 282.393 47.868C281.704 48.1027 281 48.22 280.281 48.22ZM288.874 48V39.046H285.068V36.89H295.43V39.046H291.602V48H288.874ZM297.22 52.752V39.662C297.22 39.2073 297.206 38.7453 297.176 38.276C297.147 37.8067 297.103 37.3447 297.044 36.89H299.706L299.948 39.222H299.706C299.926 38.4447 300.388 37.8287 301.092 37.374C301.811 36.9047 302.64 36.67 303.578 36.67C304.561 36.67 305.419 36.9047 306.152 37.374C306.886 37.8287 307.458 38.4887 307.868 39.354C308.279 40.2047 308.484 41.2313 308.484 42.434C308.484 43.6367 308.279 44.6707 307.868 45.536C307.458 46.4013 306.886 47.0687 306.152 47.538C305.419 47.9927 304.561 48.22 303.578 48.22C302.654 48.22 301.84 47.9927 301.136 47.538C300.432 47.0833 299.963 46.4747 299.728 45.712H299.97V52.752H297.22ZM302.808 46.108C303.688 46.108 304.392 45.8073 304.92 45.206C305.448 44.59 305.712 43.666 305.712 42.434C305.712 41.202 305.448 40.2853 304.92 39.684C304.392 39.0827 303.688 38.782 302.808 38.782C301.943 38.782 301.246 39.0827 300.718 39.684C300.19 40.2853 299.926 41.202 299.926 42.434C299.926 43.666 300.19 44.59 300.718 45.206C301.246 45.8073 301.943 46.108 302.808 46.108ZM316.18 48.22C315.036 48.22 314.046 47.9853 313.21 47.516C312.374 47.0467 311.721 46.3793 311.252 45.514C310.797 44.6487 310.57 43.622 310.57 42.434C310.57 41.246 310.797 40.2267 311.252 39.376C311.721 38.5107 312.374 37.8433 313.21 37.374C314.046 36.9047 315.036 36.67 316.18 36.67C317.324 36.67 318.314 36.9047 319.15 37.374C320 37.8433 320.653 38.5107 321.108 39.376C321.577 40.2267 321.812 41.246 321.812 42.434C321.812 43.622 321.577 44.6487 321.108 45.514C320.653 46.3793 320 47.0467 319.15 47.516C318.314 47.9853 317.324 48.22 316.18 48.22ZM316.18 46.108C317.045 46.108 317.734 45.8073 318.248 45.206C318.761 44.59 319.018 43.666 319.018 42.434C319.018 41.202 318.761 40.2853 318.248 39.684C317.734 39.0827 317.045 38.782 316.18 38.782C315.314 38.782 314.625 39.0827 314.112 39.684C313.598 40.2853 313.342 41.202 313.342 42.434C313.342 43.666 313.598 44.59 314.112 45.206C314.625 45.8073 315.314 46.108 316.18 46.108ZM33.562 72V60.89H36.29V65.246H41.306V60.89H44.034V72H41.306V67.358H36.29V72H33.562ZM51.5396 72.22C50.5716 72.22 49.7209 71.9927 48.9876 71.538C48.2543 71.0687 47.6823 70.4013 47.2716 69.536C46.8609 68.6707 46.6556 67.6367 46.6556 66.434C46.6556 65.2313 46.8609 64.2047 47.2716 63.354C47.6823 62.4887 48.2543 61.8287 48.9876 61.374C49.7209 60.9047 50.5716 60.67 51.5396 60.67C52.4783 60.67 53.2996 60.9047 54.0036 61.374C54.7223 61.8287 55.1989 62.4447 55.4336 63.222H55.1916L55.4336 60.89H58.0736C58.0296 61.3447 57.9856 61.8067 57.9416 62.276C57.9123 62.7453 57.8976 63.2073 57.8976 63.662V72H55.1696L55.1476 69.712H55.4116C55.1769 70.4747 54.7003 71.0833 53.9816 71.538C53.2629 71.9927 52.4489 72.22 51.5396 72.22ZM52.3096 70.108C53.1749 70.108 53.8716 69.8073 54.3996 69.206C54.9276 68.59 55.1916 67.666 55.1916 66.434C55.1916 65.202 54.9276 64.2853 54.3996 63.684C53.8716 63.0827 53.1749 62.782 52.3096 62.782C51.4443 62.782 50.7476 63.0827 50.2196 63.684C49.6916 64.2853 49.4276 65.202 49.4276 66.434C49.4276 67.666 49.6843 68.59 50.1976 69.206C50.7256 69.8073 51.4296 70.108 52.3096 70.108ZM61.105 72V60.89H63.591V69.294H62.931L69.245 60.89H71.511V72H69.025V63.574H69.707L63.371 72H61.105ZM66.297 59.878C65.5636 59.878 64.9183 59.7607 64.361 59.526C63.8036 59.2767 63.3416 58.932 62.975 58.492C62.6083 58.0373 62.3443 57.502 62.183 56.886L63.591 56.402C63.8403 57.0767 64.185 57.5753 64.625 57.898C65.065 58.206 65.6296 58.36 66.319 58.36C67.0083 58.36 67.573 58.206 68.013 57.898C68.453 57.59 68.8123 57.0987 69.091 56.424L70.433 56.886C70.125 57.8687 69.6116 58.6167 68.893 59.13C68.189 59.6287 67.3236 59.878 66.297 59.878ZM77.0381 72V63.046H73.2321V60.89H83.5941V63.046H79.7661V72H77.0381ZM85.2964 72V60.89H87.7824V69.294H87.1224L93.4364 60.89H95.7024V72H93.2164V63.574H93.8984L87.5624 72H85.2964ZM104.957 76.752V63.662C104.957 63.2073 104.942 62.7453 104.913 62.276C104.883 61.8067 104.839 61.3447 104.781 60.89H107.443L107.685 63.222H107.443C107.663 62.4447 108.125 61.8287 108.829 61.374C109.547 60.9047 110.376 60.67 111.315 60.67C112.297 60.67 113.155 60.9047 113.889 61.374C114.622 61.8287 115.194 62.4887 115.605 63.354C116.015 64.2047 116.221 65.2313 116.221 66.434C116.221 67.6367 116.015 68.6707 115.605 69.536C115.194 70.4013 114.622 71.0687 113.889 71.538C113.155 71.9927 112.297 72.22 111.315 72.22C110.391 72.22 109.577 71.9927 108.873 71.538C108.169 71.0833 107.699 70.4747 107.465 69.712H107.707V76.752H104.957ZM110.545 70.108C111.425 70.108 112.129 69.8073 112.657 69.206C113.185 68.59 113.449 67.666 113.449 66.434C113.449 65.202 113.185 64.2853 112.657 63.684C112.129 63.0827 111.425 62.782 110.545 62.782C109.679 62.782 108.983 63.0827 108.455 63.684C107.927 64.2853 107.663 65.202 107.663 66.434C107.663 67.666 107.927 68.59 108.455 69.206C108.983 69.8073 109.679 70.108 110.545 70.108ZM123.19 72.22C122.222 72.22 121.371 71.9927 120.638 71.538C119.905 71.0687 119.333 70.4013 118.922 69.536C118.511 68.6707 118.306 67.6367 118.306 66.434C118.306 65.2313 118.511 64.2047 118.922 63.354C119.333 62.4887 119.905 61.8287 120.638 61.374C121.371 60.9047 122.222 60.67 123.19 60.67C124.129 60.67 124.95 60.9047 125.654 61.374C126.373 61.8287 126.849 62.4447 127.084 63.222H126.842L127.084 60.89H129.724C129.68 61.3447 129.636 61.8067 129.592 62.276C129.563 62.7453 129.548 63.2073 129.548 63.662V72H126.82L126.798 69.712H127.062C126.827 70.4747 126.351 71.0833 125.632 71.538C124.913 71.9927 124.099 72.22 123.19 72.22ZM123.96 70.108C124.825 70.108 125.522 69.8073 126.05 69.206C126.578 68.59 126.842 67.666 126.842 66.434C126.842 65.202 126.578 64.2853 126.05 63.684C125.522 63.0827 124.825 62.782 123.96 62.782C123.095 62.782 122.398 63.0827 121.87 63.684C121.342 64.2853 121.078 65.202 121.078 66.434C121.078 67.666 121.335 68.59 121.848 69.206C122.376 69.8073 123.08 70.108 123.96 70.108ZM137.969 72.22C136.224 72.22 134.831 71.692 133.789 70.636C132.763 69.58 132.249 68.0327 132.249 65.994V64.102C132.249 62.0047 132.726 60.318 133.679 59.042C134.633 57.766 136.07 56.9227 137.991 56.512L142.061 55.588L142.809 57.744L138.233 58.756C137.471 58.9173 136.84 59.2253 136.341 59.68C135.843 60.12 135.469 60.648 135.219 61.264C134.97 61.88 134.845 62.54 134.845 63.244V64.41H134.471C134.633 63.75 134.904 63.178 135.285 62.694C135.667 62.1953 136.151 61.8067 136.737 61.528C137.324 61.2493 137.991 61.11 138.739 61.11C139.678 61.11 140.499 61.33 141.203 61.77C141.922 62.1953 142.487 62.8187 142.897 63.64C143.308 64.4467 143.513 65.4147 143.513 66.544C143.513 67.7027 143.279 68.7073 142.809 69.558C142.355 70.4087 141.709 71.0687 140.873 71.538C140.052 71.9927 139.084 72.22 137.969 72.22ZM137.881 70.13C138.791 70.13 139.495 69.844 139.993 69.272C140.507 68.6853 140.763 67.8127 140.763 66.654C140.763 65.5247 140.507 64.6667 139.993 64.08C139.48 63.4787 138.776 63.178 137.881 63.178C136.987 63.178 136.283 63.4713 135.769 64.058C135.256 64.6447 134.999 65.4807 134.999 66.566C134.999 67.754 135.256 68.6487 135.769 69.25C136.283 69.8367 136.987 70.13 137.881 70.13ZM151.223 72.22C150.079 72.22 149.089 71.9853 148.253 71.516C147.417 71.0467 146.764 70.3793 146.295 69.514C145.84 68.6487 145.613 67.622 145.613 66.434C145.613 65.246 145.84 64.2267 146.295 63.376C146.764 62.5107 147.417 61.8433 148.253 61.374C149.089 60.9047 150.079 60.67 151.223 60.67C152.367 60.67 153.357 60.9047 154.193 61.374C155.043 61.8433 155.696 62.5107 156.151 63.376C156.62 64.2267 156.855 65.246 156.855 66.434C156.855 67.622 156.62 68.6487 156.151 69.514C155.696 70.3793 155.043 71.0467 154.193 71.516C153.357 71.9853 152.367 72.22 151.223 72.22ZM151.223 70.108C152.088 70.108 152.777 69.8073 153.291 69.206C153.804 68.59 154.061 67.666 154.061 66.434C154.061 65.202 153.804 64.2853 153.291 63.684C152.777 63.0827 152.088 62.782 151.223 62.782C150.357 62.782 149.668 63.0827 149.155 63.684C148.641 64.2853 148.385 65.202 148.385 66.434C148.385 67.666 148.641 68.59 149.155 69.206C149.668 69.8073 150.357 70.108 151.223 70.108ZM161.858 72V63.046H158.052V60.89H168.414V63.046H164.586V72H161.858ZM170.092 76.994L169.454 74.816C170.143 74.6693 170.723 74.5007 171.192 74.31C171.661 74.1193 172.05 73.87 172.358 73.562C172.666 73.254 172.923 72.858 173.128 72.374L173.678 71.076L173.612 72.154L168.772 60.89H171.698L175.174 69.558H174.536L178.034 60.89H180.806L175.746 72.616C175.409 73.408 175.042 74.0607 174.646 74.574C174.25 75.102 173.825 75.52 173.37 75.828C172.915 76.1507 172.417 76.4 171.874 76.576C171.331 76.752 170.737 76.8913 170.092 76.994ZM188.507 72V60.89H194.425C195.819 60.89 196.838 61.1467 197.483 61.66C198.129 62.1587 198.451 62.87 198.451 63.794C198.451 64.498 198.217 65.0847 197.747 65.554C197.278 66.0233 196.655 66.3167 195.877 66.434V66.126C196.831 66.1847 197.564 66.4633 198.077 66.962C198.591 67.4607 198.847 68.106 198.847 68.898C198.847 69.8513 198.481 70.6067 197.747 71.164C197.014 71.7213 195.973 72 194.623 72H188.507ZM191.059 70.306H194.337C194.983 70.306 195.474 70.174 195.811 69.91C196.163 69.646 196.339 69.2573 196.339 68.744C196.339 68.2307 196.163 67.842 195.811 67.578C195.474 67.314 194.983 67.182 194.337 67.182H191.059V70.306ZM191.059 65.488H194.095C194.682 65.488 195.137 65.3633 195.459 65.114C195.782 64.85 195.943 64.4833 195.943 64.014C195.943 63.5447 195.782 63.1853 195.459 62.936C195.137 62.6867 194.682 62.562 194.095 62.562H191.059V65.488ZM212.389 72.22C211.245 72.22 210.255 71.9853 209.419 71.516C208.583 71.0467 207.93 70.3793 207.461 69.514C207.006 68.6487 206.779 67.622 206.779 66.434C206.779 65.246 207.006 64.2267 207.461 63.376C207.93 62.5107 208.583 61.8433 209.419 61.374C210.255 60.9047 211.245 60.67 212.389 60.67C213.533 60.67 214.523 60.9047 215.359 61.374C216.209 61.8433 216.862 62.5107 217.317 63.376C217.786 64.2267 218.021 65.246 218.021 66.434C218.021 67.622 217.786 68.6487 217.317 69.514C216.862 70.3793 216.209 71.0467 215.359 71.516C214.523 71.9853 213.533 72.22 212.389 72.22ZM212.389 70.108C213.254 70.108 213.943 69.8073 214.457 69.206C214.97 68.59 215.227 67.666 215.227 66.434C215.227 65.202 214.97 64.2853 214.457 63.684C213.943 63.0827 213.254 62.782 212.389 62.782C211.523 62.782 210.834 63.0827 210.321 63.684C209.807 64.2853 209.551 65.202 209.551 66.434C209.551 67.666 209.807 68.59 210.321 69.206C210.834 69.8073 211.523 70.108 212.389 70.108ZM220.626 72V60.89H223.354V65.246H228.37V60.89H231.098V72H228.37V67.358H223.354V72H220.626ZM233.94 72.308L233.082 70.152C233.566 69.976 233.969 69.7487 234.292 69.47C234.629 69.1767 234.893 68.81 235.084 68.37C235.289 67.9153 235.436 67.358 235.524 66.698C235.612 66.0233 235.656 65.224 235.656 64.3V60.89H244.5V72H241.772V63.002H238.164V64.388C238.164 65.9867 238.017 67.3287 237.724 68.414C237.431 69.4847 236.976 70.3353 236.36 70.966C235.744 71.5967 234.937 72.044 233.94 72.308ZM252.01 72.22C251.042 72.22 250.192 71.9927 249.458 71.538C248.725 71.0687 248.153 70.4013 247.742 69.536C247.332 68.6707 247.126 67.6367 247.126 66.434C247.126 65.2313 247.332 64.2047 247.742 63.354C248.153 62.4887 248.725 61.8287 249.458 61.374C250.192 60.9047 251.042 60.67 252.01 60.67C252.949 60.67 253.77 60.9047 254.474 61.374C255.193 61.8287 255.67 62.4447 255.904 63.222H255.662L255.904 60.89H258.544C258.5 61.3447 258.456 61.8067 258.412 62.276C258.383 62.7453 258.368 63.2073 258.368 63.662V72H255.64L255.618 69.712H255.882C255.648 70.4747 255.171 71.0833 254.452 71.538C253.734 71.9927 252.92 72.22 252.01 72.22ZM252.78 70.108C253.646 70.108 254.342 69.8073 254.87 69.206C255.398 68.59 255.662 67.666 255.662 66.434C255.662 65.202 255.398 64.2853 254.87 63.684C254.342 63.0827 253.646 62.782 252.78 62.782C251.915 62.782 251.218 63.0827 250.69 63.684C250.162 64.2853 249.898 65.202 249.898 66.434C249.898 67.666 250.155 68.59 250.668 69.206C251.196 69.8073 251.9 70.108 252.78 70.108ZM261.576 72V60.89H264.062V69.294H263.402L269.716 60.89H271.982V72H269.496V63.574H270.178L263.842 72H261.576ZM266.768 59.878C266.034 59.878 265.389 59.7607 264.832 59.526C264.274 59.2767 263.812 58.932 263.446 58.492C263.079 58.0373 262.815 57.502 262.654 56.886L264.062 56.402C264.311 57.0767 264.656 57.5753 265.096 57.898C265.536 58.206 266.1 58.36 266.79 58.36C267.479 58.36 268.044 58.206 268.484 57.898C268.924 57.59 269.283 57.0987 269.562 56.424L270.904 56.886C270.596 57.8687 270.082 58.6167 269.364 59.13C268.66 59.6287 267.794 59.878 266.768 59.878ZM275.111 72V60.89H277.839V65.246H282.855V60.89H285.583V72H282.855V67.358H277.839V72H275.111ZM294.166 72.22C292.304 72.22 290.844 71.7067 289.788 70.68C288.732 69.6533 288.204 68.2453 288.204 66.456C288.204 65.2973 288.432 64.2853 288.886 63.42C289.341 62.5547 289.972 61.88 290.778 61.396C291.6 60.912 292.553 60.67 293.638 60.67C294.709 60.67 295.604 60.8973 296.322 61.352C297.041 61.8067 297.584 62.4447 297.95 63.266C298.332 64.0873 298.522 65.048 298.522 66.148V66.874H290.426V65.422H296.564L296.19 65.73C296.19 64.7033 295.97 63.9187 295.53 63.376C295.105 62.8333 294.482 62.562 293.66 62.562C292.751 62.562 292.047 62.8847 291.548 63.53C291.064 64.1753 290.822 65.0773 290.822 66.236V66.522C290.822 67.7247 291.116 68.6267 291.702 69.228C292.304 69.8147 293.147 70.108 294.232 70.108C294.863 70.108 295.45 70.0273 295.992 69.866C296.55 69.69 297.078 69.4113 297.576 69.03L298.39 70.878C297.862 71.3033 297.232 71.6333 296.498 71.868C295.765 72.1027 294.988 72.22 294.166 72.22ZM301.856 74.618L300.954 73.914C301.365 73.4887 301.643 73.0853 301.79 72.704C301.937 72.3373 302.01 71.956 302.01 71.56L302.45 72H300.844V69.558H303.286V71.252C303.286 71.8827 303.183 72.462 302.978 72.99C302.773 73.5327 302.399 74.0753 301.856 74.618ZM32.572 98.86V94.438H33.782C34.2807 93.69 34.64 92.81 34.86 91.798C35.0947 90.786 35.212 89.5833 35.212 88.19V84.934H43.154V94.438H44.914V98.86H43.198V96H34.31V98.86H32.572ZM35.674 94.46H41.284V86.474H36.972V88.542C36.972 89.6567 36.862 90.742 36.642 91.798C36.422 92.8393 36.0993 93.7267 35.674 94.46ZM51.5197 96.198C50.5517 96.198 49.701 95.9707 48.9677 95.516C48.2343 95.0613 47.6623 94.4013 47.2517 93.536C46.841 92.6707 46.6357 91.644 46.6357 90.456C46.6357 89.268 46.841 88.2487 47.2517 87.398C47.6623 86.5327 48.2343 85.8727 48.9677 85.418C49.701 84.9633 50.5517 84.736 51.5197 84.736C52.5023 84.736 53.353 84.9853 54.0717 85.484C54.805 85.968 55.289 86.6353 55.5237 87.486H55.2597L55.5017 84.934H57.4377C57.3937 85.374 57.3497 85.814 57.3057 86.254C57.2763 86.694 57.2617 87.1267 57.2617 87.552V96H55.2597V93.47H55.5017C55.267 94.306 54.783 94.9733 54.0497 95.472C53.331 95.956 52.4877 96.198 51.5197 96.198ZM51.9817 94.614C52.979 94.614 53.7783 94.262 54.3797 93.558C54.981 92.854 55.2817 91.82 55.2817 90.456C55.2817 89.092 54.981 88.0653 54.3797 87.376C53.7783 86.6867 52.979 86.342 51.9817 86.342C50.9843 86.342 50.1777 86.6867 49.5617 87.376C48.9603 88.0653 48.6597 89.092 48.6597 90.456C48.6597 91.82 48.9603 92.854 49.5617 93.558C50.163 94.262 50.9697 94.614 51.9817 94.614ZM59.0703 96L61.3583 92.062C61.6956 91.5193 62.0036 91.0867 62.2823 90.764C62.561 90.4413 62.8543 90.1993 63.1623 90.038C63.485 89.862 63.859 89.752 64.2843 89.708L63.8003 90.324L59.5983 84.934H61.7983L65.3843 89.51H67.0783V84.934H69.0583V89.51H70.7303L74.2943 84.934H76.5163L72.3143 90.324L71.8083 89.708C72.2336 89.752 72.6003 89.862 72.9083 90.038C73.231 90.1993 73.539 90.4413 73.8323 90.764C74.1256 91.0867 74.4336 91.5193 74.7563 92.062L77.0443 96H74.9103L72.9083 92.59C72.6736 92.194 72.4463 91.886 72.2263 91.666C72.0063 91.446 71.757 91.292 71.4783 91.204C71.2143 91.116 70.877 91.072 70.4663 91.072H69.0583V96H67.0783V91.072H65.6483C65.2376 91.072 64.893 91.116 64.6143 91.204C64.3503 91.292 64.1083 91.446 63.8883 91.666C63.683 91.886 63.4556 92.194 63.2063 92.59L61.2263 96H59.0703ZM83.8727 96.198C82.1127 96.198 80.7194 95.692 79.6927 94.68C78.6807 93.668 78.1747 92.2747 78.1747 90.5C78.1747 89.3267 78.3947 88.3147 78.8347 87.464C79.2894 86.5987 79.9127 85.9313 80.7047 85.462C81.4967 84.978 82.4207 84.736 83.4767 84.736C84.4887 84.736 85.3467 84.956 86.0507 85.396C86.7547 85.8213 87.2901 86.43 87.6567 87.222C88.0234 88.014 88.2067 88.9527 88.2067 90.038V90.698H79.7367V89.51H86.8427L86.4687 89.796C86.4687 88.652 86.2121 87.7647 85.6987 87.134C85.2001 86.5033 84.4594 86.188 83.4767 86.188C82.4061 86.188 81.5774 86.562 80.9907 87.31C80.4041 88.0433 80.1107 89.048 80.1107 90.324V90.522C80.1107 91.8713 80.4407 92.8907 81.1007 93.58C81.7754 94.2693 82.7067 94.614 83.8947 94.614C84.5547 94.614 85.1707 94.5187 85.7427 94.328C86.3147 94.1373 86.8647 93.822 87.3927 93.382L88.0527 94.768C87.5541 95.2227 86.9307 95.5747 86.1827 95.824C85.4494 96.0733 84.6794 96.198 83.8727 96.198ZM96.7941 96V84.934H98.7741V89.51H104.626V84.934H106.606V96H104.626V91.094H98.7741V96H96.7941ZM115.133 96.198C113.373 96.198 111.979 95.692 110.953 94.68C109.941 93.668 109.435 92.2747 109.435 90.5C109.435 89.3267 109.655 88.3147 110.095 87.464C110.549 86.5987 111.173 85.9313 111.965 85.462C112.757 84.978 113.681 84.736 114.737 84.736C115.749 84.736 116.607 84.956 117.311 85.396C118.015 85.8213 118.55 86.43 118.917 87.222C119.283 88.014 119.467 88.9527 119.467 90.038V90.698H110.997V89.51H118.103L117.729 89.796C117.729 88.652 117.472 87.7647 116.959 87.134C116.46 86.5033 115.719 86.188 114.737 86.188C113.666 86.188 112.837 86.562 112.251 87.31C111.664 88.0433 111.371 89.048 111.371 90.324V90.522C111.371 91.8713 111.701 92.8907 112.361 93.58C113.035 94.2693 113.967 94.614 115.155 94.614C115.815 94.614 116.431 94.5187 117.003 94.328C117.575 94.1373 118.125 93.822 118.653 93.382L119.312 94.768C118.814 95.2227 118.191 95.5747 117.443 95.824C116.709 96.0733 115.939 96.198 115.133 96.198ZM128.054 96V84.934H129.88V94.108H129.286L136.15 84.934H137.822V96H135.996V86.804H136.612L129.726 96H128.054ZM141.245 96V84.934H142.917L146.987 92.172L151.079 84.934H152.729V96H150.969V87.178H151.453L147.493 94.218H146.503L142.543 87.156H143.005V96H141.245ZM161.259 96.198C159.499 96.198 158.106 95.692 157.079 94.68C156.067 93.668 155.561 92.2747 155.561 90.5C155.561 89.3267 155.781 88.3147 156.221 87.464C156.676 86.5987 157.299 85.9313 158.091 85.462C158.883 84.978 159.807 84.736 160.863 84.736C161.875 84.736 162.733 84.956 163.437 85.396C164.141 85.8213 164.677 86.43 165.043 87.222C165.41 88.014 165.593 88.9527 165.593 90.038V90.698H157.123V89.51H164.229L163.855 89.796C163.855 88.652 163.599 87.7647 163.085 87.134C162.587 86.5033 161.846 86.188 160.863 86.188C159.793 86.188 158.964 86.562 158.377 87.31C157.791 88.0433 157.497 89.048 157.497 90.324V90.522C157.497 91.8713 157.827 92.8907 158.487 93.58C159.162 94.2693 160.093 94.614 161.281 94.614C161.941 94.614 162.557 94.5187 163.129 94.328C163.701 94.1373 164.251 93.822 164.779 93.382L165.439 94.768C164.941 95.2227 164.317 95.5747 163.569 95.824C162.836 96.0733 162.066 96.198 161.259 96.198ZM167.5 96L169.238 92.986C169.517 92.502 169.869 92.1133 170.294 91.82C170.719 91.512 171.167 91.358 171.636 91.358H171.988L171.966 91.556C170.719 91.556 169.744 91.2773 169.04 90.72C168.336 90.148 167.984 89.3267 167.984 88.256C167.984 87.2 168.329 86.386 169.018 85.814C169.707 85.2273 170.734 84.934 172.098 84.934H177.136V96H175.288V91.82H173.704C173.132 91.82 172.641 91.9667 172.23 92.26C171.819 92.5387 171.482 92.9127 171.218 93.382L169.722 96H167.5ZM172.45 90.434H175.288V86.298H172.45C171.585 86.298 170.939 86.4813 170.514 86.848C170.103 87.2147 169.898 87.7207 169.898 88.366C169.898 89.026 170.103 89.5393 170.514 89.906C170.939 90.258 171.585 90.434 172.45 90.434ZM191.092 96.198C190.007 96.198 189.068 95.9707 188.276 95.516C187.484 95.0467 186.868 94.3867 186.428 93.536C185.988 92.6707 185.768 91.644 185.768 90.456C185.768 89.2827 185.988 88.2707 186.428 87.42C186.868 86.5547 187.484 85.8947 188.276 85.44C189.068 84.9707 190.007 84.736 191.092 84.736C192.178 84.736 193.116 84.9707 193.908 85.44C194.715 85.8947 195.331 86.5547 195.756 87.42C196.196 88.2707 196.416 89.2827 196.416 90.456C196.416 91.644 196.196 92.6707 195.756 93.536C195.331 94.3867 194.715 95.0467 193.908 95.516C193.116 95.9707 192.178 96.198 191.092 96.198ZM191.092 94.614C192.09 94.614 192.889 94.262 193.49 93.558C194.092 92.854 194.392 91.82 194.392 90.456C194.392 89.092 194.092 88.0653 193.49 87.376C192.889 86.6867 192.09 86.342 191.092 86.342C190.08 86.342 189.274 86.6867 188.672 87.376C188.086 88.0653 187.792 89.092 187.792 90.456C187.792 91.82 188.086 92.854 188.672 93.558C189.274 94.262 190.08 94.614 191.092 94.614ZM199.275 96V84.934H209.021V96H207.041V86.496H201.255V96H199.275ZM212.445 96V84.934H214.425V88.85H217.681C219.118 88.85 220.196 89.158 220.915 89.774C221.648 90.3753 222.015 91.248 222.015 92.392C222.015 93.1253 221.846 93.7633 221.509 94.306C221.171 94.8487 220.68 95.2667 220.035 95.56C219.389 95.8533 218.605 96 217.681 96H212.445ZM214.425 94.614H217.461C218.341 94.614 219.001 94.438 219.441 94.086C219.895 93.7193 220.123 93.162 220.123 92.414C220.123 91.666 219.895 91.116 219.441 90.764C219.001 90.412 218.341 90.236 217.461 90.236H214.425V94.614ZM223.621 96V84.934H225.601V96H223.621ZM231.406 96V86.54H227.424V84.934H237.368V86.54H233.386V96H231.406ZM243.483 96.198C242.515 96.198 241.664 95.9707 240.931 95.516C240.197 95.0613 239.625 94.4013 239.215 93.536C238.804 92.6707 238.599 91.644 238.599 90.456C238.599 89.268 238.804 88.2487 239.215 87.398C239.625 86.5327 240.197 85.8727 240.931 85.418C241.664 84.9633 242.515 84.736 243.483 84.736C244.465 84.736 245.316 84.9853 246.035 85.484C246.768 85.968 247.252 86.6353 247.487 87.486H247.223L247.465 84.934H249.401C249.357 85.374 249.313 85.814 249.269 86.254C249.239 86.694 249.225 87.1267 249.225 87.552V96H247.223V93.47H247.465C247.23 94.306 246.746 94.9733 246.013 95.472C245.294 95.956 244.451 96.198 243.483 96.198ZM243.945 94.614C244.942 94.614 245.741 94.262 246.343 93.558C246.944 92.854 247.245 91.82 247.245 90.456C247.245 89.092 246.944 88.0653 246.343 87.376C245.741 86.6867 244.942 86.342 243.945 86.342C242.947 86.342 242.141 86.6867 241.525 87.376C240.923 88.0653 240.623 89.092 240.623 90.456C240.623 91.82 240.923 92.854 241.525 93.558C242.126 94.262 242.933 94.614 243.945 94.614Z" fill="#343434"/>
<circle cx="346" cy="22" r="6" fill="#343434" fill-opacity="0.12"/>
<defs>
<linearGradient id="paint0_linear_112_124" x1="184" y1="0" x2="184" y2="128" gradientUnits="userSpaceOnUse">
<stop stop-color="#F0ECD3" stop-opacity="0.64"/>
<stop offset="1" stop-color="#F0ECD3" stop-opacity="0"/>
</linearGradient>
</defs>
</svg>
