<svg width="368" height="128" viewBox="0 0 368 128" fill="none" xmlns="http://www.w3.org/2000/svg">
<rect width="368" height="128" rx="16" fill="url(#paint0_linear_102_331)"/>
<path d="M33.892 48V32.49H46.982V48H44.958V34.206H35.916V48H33.892ZM55.3112 48.198C54.2259 48.198 53.2872 47.9707 52.4952 47.516C51.7032 47.0467 51.0872 46.3867 50.6472 45.536C50.2072 44.6707 49.9872 43.644 49.9872 42.456C49.9872 41.2827 50.2072 40.2707 50.6472 39.42C51.0872 38.5547 51.7032 37.8947 52.4952 37.44C53.2872 36.9707 54.2259 36.736 55.3112 36.736C56.3966 36.736 57.3352 36.9707 58.1272 37.44C58.9339 37.8947 59.5499 38.5547 59.9752 39.42C60.4152 40.2707 60.6352 41.2827 60.6352 42.456C60.6352 43.644 60.4152 44.6707 59.9752 45.536C59.5499 46.3867 58.9339 47.0467 58.1272 47.516C57.3352 47.9707 56.3966 48.198 55.3112 48.198ZM55.3112 46.614C56.3086 46.614 57.1079 46.262 57.7092 45.558C58.3106 44.854 58.6112 43.82 58.6112 42.456C58.6112 41.092 58.3106 40.0653 57.7092 39.376C57.1079 38.6867 56.3086 38.342 55.3112 38.342C54.2992 38.342 53.4926 38.6867 52.8912 39.376C52.3046 40.0653 52.0112 41.092 52.0112 42.456C52.0112 43.82 52.3046 44.854 52.8912 45.558C53.4926 46.262 54.2992 46.614 55.3112 46.614ZM63.4933 48V36.934H65.3193V46.108H64.7253L71.5893 36.934H73.2613V48H71.4353V38.804H72.0513L65.1653 48H63.4933ZM68.3773 35.922C67.7467 35.922 67.1673 35.812 66.6393 35.592C66.1113 35.372 65.6567 35.0567 65.2753 34.646C64.9087 34.2207 64.63 33.6927 64.4393 33.062L65.5833 32.644C65.8473 33.348 66.2067 33.8687 66.6613 34.206C67.116 34.5287 67.688 34.69 68.3773 34.69C69.0813 34.69 69.6607 34.536 70.1153 34.228C70.57 33.92 70.966 33.3993 71.3033 32.666L72.3813 33.062C72.0147 34.0593 71.4793 34.7853 70.7753 35.24C70.086 35.6947 69.2867 35.922 68.3773 35.922ZM76.6848 48V36.934H78.3568L82.4268 44.172L86.5188 36.934H88.1688V48H86.4088V39.178H86.8928L82.9328 46.218H81.9428L77.9828 39.156H78.4448V48H76.6848ZM96.6989 48.198C94.9389 48.198 93.5456 47.692 92.5189 46.68C91.5069 45.668 91.0009 44.2747 91.0009 42.5C91.0009 41.3267 91.2209 40.3147 91.6609 39.464C92.1156 38.5987 92.7389 37.9313 93.5309 37.462C94.3229 36.978 95.2469 36.736 96.3029 36.736C97.3149 36.736 98.1729 36.956 98.8769 37.396C99.5809 37.8213 100.116 38.43 100.483 39.222C100.85 40.014 101.033 40.9527 101.033 42.038V42.698H92.5629V41.51H99.6689L99.2949 41.796C99.2949 40.652 99.0382 39.7647 98.5249 39.134C98.0262 38.5033 97.2856 38.188 96.3029 38.188C95.2322 38.188 94.4036 38.562 93.8169 39.31C93.2302 40.0433 92.9369 41.048 92.9369 42.324V42.522C92.9369 43.8713 93.2669 44.8907 93.9269 45.58C94.6016 46.2693 95.5329 46.614 96.7209 46.614C97.3809 46.614 97.9969 46.5187 98.5689 46.328C99.1409 46.1373 99.6909 45.822 100.219 45.382L100.879 46.768C100.38 47.2227 99.7569 47.5747 99.0089 47.824C98.2756 48.0733 97.5056 48.198 96.6989 48.198ZM97.2269 34.668V32.622H99.2729V34.668H97.2269ZM93.3329 34.668V32.622H95.3789V34.668H93.3329ZM103.82 48V36.934H105.712V46.438H110.222V36.934H112.114V46.438H116.602V36.934H118.516V48H103.82ZM121.952 48V36.934H123.932V40.85H127.188C128.626 40.85 129.704 41.158 130.422 41.774C131.156 42.3753 131.522 43.248 131.522 44.392C131.522 45.1253 131.354 45.7633 131.016 46.306C130.679 46.8487 130.188 47.2667 129.542 47.56C128.897 47.8533 128.112 48 127.188 48H121.952ZM123.932 46.614H126.968C127.834 46.614 128.494 46.438 128.948 46.086C129.403 45.7193 129.63 45.162 129.63 44.414C129.63 43.666 129.403 43.116 128.948 42.764C128.508 42.412 127.848 42.236 126.968 42.236H123.932V46.614ZM134.729 50.618L133.827 49.914C134.238 49.4887 134.516 49.0853 134.663 48.704C134.81 48.3373 134.883 47.956 134.883 47.56L135.323 48H133.717V45.558H136.159V47.252C136.159 47.8827 136.056 48.462 135.851 48.99C135.646 49.5327 135.272 50.0753 134.729 50.618ZM144.873 48V36.89H147.601V41.246H149.273L152.529 36.89H155.477L151.385 42.434L150.791 41.576C151.201 41.62 151.561 41.73 151.869 41.906C152.191 42.082 152.492 42.3313 152.771 42.654C153.064 42.962 153.35 43.358 153.629 43.842L155.961 48H153.035L151.143 44.656C150.952 44.3187 150.761 44.0547 150.571 43.864C150.38 43.6733 150.167 43.5413 149.933 43.468C149.698 43.3947 149.412 43.358 149.075 43.358H147.601V48H144.873ZM161.797 48.22C160.829 48.22 159.979 47.9927 159.245 47.538C158.512 47.0687 157.94 46.4013 157.529 45.536C157.119 44.6707 156.913 43.6367 156.913 42.434C156.913 41.2313 157.119 40.2047 157.529 39.354C157.94 38.4887 158.512 37.8287 159.245 37.374C159.979 36.9047 160.829 36.67 161.797 36.67C162.736 36.67 163.557 36.9047 164.261 37.374C164.98 37.8287 165.457 38.4447 165.691 39.222H165.449L165.691 36.89H168.331C168.287 37.3447 168.243 37.8067 168.199 38.276C168.17 38.7453 168.155 39.2073 168.155 39.662V48H165.427L165.405 45.712H165.669C165.435 46.4747 164.958 47.0833 164.239 47.538C163.521 47.9927 162.707 48.22 161.797 48.22ZM162.567 46.108C163.433 46.108 164.129 45.8073 164.657 45.206C165.185 44.59 165.449 43.666 165.449 42.434C165.449 41.202 165.185 40.2853 164.657 39.684C164.129 39.0827 163.433 38.782 162.567 38.782C161.702 38.782 161.005 39.0827 160.477 39.684C159.949 40.2853 159.685 41.202 159.685 42.434C159.685 43.666 159.942 44.59 160.455 45.206C160.983 45.8073 161.687 46.108 162.567 46.108ZM171.363 48V36.89H174.091V41.246H175.763L179.019 36.89H181.967L177.875 42.434L177.281 41.576C177.691 41.62 178.051 41.73 178.359 41.906C178.681 42.082 178.982 42.3313 179.261 42.654C179.554 42.962 179.84 43.358 180.119 43.842L182.451 48H179.525L177.633 44.656C177.442 44.3187 177.251 44.0547 177.061 43.864C176.87 43.6733 176.657 43.5413 176.423 43.468C176.188 43.3947 175.902 43.358 175.565 43.358H174.091V48H171.363ZM37.654 72.22C36.6567 72.22 35.718 72.1027 34.838 71.868C33.9727 71.6333 33.2467 71.296 32.66 70.856L33.43 69.052C33.9727 69.448 34.6033 69.7487 35.322 69.954C36.0553 70.1593 36.8253 70.262 37.632 70.262C38.5707 70.262 39.2527 70.1373 39.678 69.888C40.118 69.624 40.338 69.2427 40.338 68.744C40.338 68.2747 40.1693 67.9227 39.832 67.688C39.4947 67.4387 38.996 67.314 38.336 67.314H35.454V65.422H38.072C38.6733 65.422 39.1353 65.3047 39.458 65.07C39.7807 64.8353 39.942 64.5053 39.942 64.08C39.942 63.6253 39.744 63.266 39.348 63.002C38.9667 62.738 38.336 62.606 37.456 62.606C36.6933 62.606 35.9967 62.7013 35.366 62.892C34.7353 63.068 34.1413 63.332 33.584 63.684L32.836 61.968C33.4373 61.5427 34.1633 61.22 35.014 61C35.8793 60.78 36.818 60.67 37.83 60.67C39.3113 60.67 40.448 60.9413 41.24 61.484C42.032 62.0267 42.428 62.7967 42.428 63.794C42.428 64.4687 42.1933 65.048 41.724 65.532C41.2693 66.016 40.6533 66.3167 39.876 66.434V66.126C40.7853 66.1847 41.504 66.456 42.032 66.94C42.56 67.424 42.824 68.0767 42.824 68.898C42.824 69.91 42.3767 70.7167 41.482 71.318C40.5873 71.9193 39.3113 72.22 37.654 72.22ZM49.606 72.22C48.638 72.22 47.7873 71.9927 47.054 71.538C46.3207 71.0687 45.7487 70.4013 45.338 69.536C44.9273 68.6707 44.722 67.6367 44.722 66.434C44.722 65.2313 44.9273 64.2047 45.338 63.354C45.7487 62.4887 46.3207 61.8287 47.054 61.374C47.7873 60.9047 48.638 60.67 49.606 60.67C50.5447 60.67 51.366 60.9047 52.07 61.374C52.7887 61.8287 53.2653 62.4447 53.5 63.222H53.258L53.5 60.89H56.14C56.096 61.3447 56.052 61.8067 56.008 62.276C55.9787 62.7453 55.964 63.2073 55.964 63.662V72H53.236L53.214 69.712H53.478C53.2433 70.4747 52.7667 71.0833 52.048 71.538C51.3293 71.9927 50.5153 72.22 49.606 72.22ZM50.376 70.108C51.2413 70.108 51.938 69.8073 52.466 69.206C52.994 68.59 53.258 67.666 53.258 66.434C53.258 65.202 52.994 64.2853 52.466 63.684C51.938 63.0827 51.2413 62.782 50.376 62.782C49.5107 62.782 48.814 63.0827 48.286 63.684C47.758 64.2853 47.494 65.202 47.494 66.434C47.494 67.666 47.7507 68.59 48.264 69.206C48.792 69.8073 49.496 70.108 50.376 70.108ZM59.2594 76.752V63.662C59.2594 63.2073 59.2447 62.7453 59.2154 62.276C59.186 61.8067 59.142 61.3447 59.0834 60.89H61.7454L61.9874 63.222H61.7454C61.9654 62.4447 62.4274 61.8287 63.1314 61.374C63.85 60.9047 64.6787 60.67 65.6174 60.67C66.6 60.67 67.458 60.9047 68.1914 61.374C68.9247 61.8287 69.4967 62.4887 69.9074 63.354C70.318 64.2047 70.5234 65.2313 70.5234 66.434C70.5234 67.6367 70.318 68.6707 69.9074 69.536C69.4967 70.4013 68.9247 71.0687 68.1914 71.538C67.458 71.9927 66.6 72.22 65.6174 72.22C64.6934 72.22 63.8794 71.9927 63.1754 71.538C62.4714 71.0833 62.002 70.4747 61.7674 69.712H62.0094V76.752H59.2594ZM64.8474 70.108C65.7274 70.108 66.4314 69.8073 66.9594 69.206C67.4874 68.59 67.7514 67.666 67.7514 66.434C67.7514 65.202 67.4874 64.2853 66.9594 63.684C66.4314 63.0827 65.7274 62.782 64.8474 62.782C63.982 62.782 63.2854 63.0827 62.7574 63.684C62.2294 64.2853 61.9654 65.202 61.9654 66.434C61.9654 67.666 62.2294 68.59 62.7574 69.206C63.2854 69.8073 63.982 70.108 64.8474 70.108ZM77.4927 72.22C76.5247 72.22 75.6741 71.9927 74.9407 71.538C74.2074 71.0687 73.6354 70.4013 73.2247 69.536C72.8141 68.6707 72.6087 67.6367 72.6087 66.434C72.6087 65.2313 72.8141 64.2047 73.2247 63.354C73.6354 62.4887 74.2074 61.8287 74.9407 61.374C75.6741 60.9047 76.5247 60.67 77.4927 60.67C78.4314 60.67 79.2527 60.9047 79.9567 61.374C80.6754 61.8287 81.1521 62.4447 81.3867 63.222H81.1447L81.3867 60.89H84.0267C83.9827 61.3447 83.9387 61.8067 83.8947 62.276C83.8654 62.7453 83.8507 63.2073 83.8507 63.662V72H81.1227L81.1007 69.712H81.3647C81.1301 70.4747 80.6534 71.0833 79.9347 71.538C79.2161 71.9927 78.4021 72.22 77.4927 72.22ZM78.2627 70.108C79.1281 70.108 79.8247 69.8073 80.3527 69.206C80.8807 68.59 81.1447 67.666 81.1447 66.434C81.1447 65.202 80.8807 64.2853 80.3527 63.684C79.8247 63.0827 79.1281 62.782 78.2627 62.782C77.3974 62.782 76.7007 63.0827 76.1727 63.684C75.6447 64.2853 75.3807 65.202 75.3807 66.434C75.3807 67.666 75.6374 68.59 76.1507 69.206C76.6787 69.8073 77.3827 70.108 78.2627 70.108ZM92.2721 72.22C90.5268 72.22 89.1334 71.692 88.0921 70.636C87.0654 69.58 86.5521 68.0327 86.5521 65.994V64.102C86.5521 62.0047 87.0288 60.318 87.9821 59.042C88.9354 57.766 90.3728 56.9227 92.2941 56.512L96.3641 55.588L97.1121 57.744L92.5361 58.756C91.7734 58.9173 91.1428 59.2253 90.6441 59.68C90.1454 60.12 89.7714 60.648 89.5221 61.264C89.2728 61.88 89.1481 62.54 89.1481 63.244V64.41H88.7741C88.9354 63.75 89.2068 63.178 89.5881 62.694C89.9694 62.1953 90.4534 61.8067 91.0401 61.528C91.6268 61.2493 92.2941 61.11 93.0421 61.11C93.9808 61.11 94.8021 61.33 95.5061 61.77C96.2248 62.1953 96.7894 62.8187 97.2001 63.64C97.6108 64.4467 97.8161 65.4147 97.8161 66.544C97.8161 67.7027 97.5814 68.7073 97.1121 69.558C96.6574 70.4087 96.0121 71.0687 95.1761 71.538C94.3548 71.9927 93.3868 72.22 92.2721 72.22ZM92.1841 70.13C93.0934 70.13 93.7974 69.844 94.2961 69.272C94.8094 68.6853 95.0661 67.8127 95.0661 66.654C95.0661 65.5247 94.8094 64.6667 94.2961 64.08C93.7828 63.4787 93.0788 63.178 92.1841 63.178C91.2894 63.178 90.5854 63.4713 90.0721 64.058C89.5588 64.6447 89.3021 65.4807 89.3021 66.566C89.3021 67.754 89.5588 68.6487 90.0721 69.25C90.5854 69.8367 91.2894 70.13 92.1841 70.13ZM104.799 72.22C103.831 72.22 102.981 71.9927 102.247 71.538C101.514 71.0687 100.942 70.4013 100.531 69.536C100.121 68.6707 99.9154 67.6367 99.9154 66.434C99.9154 65.2313 100.121 64.2047 100.531 63.354C100.942 62.4887 101.514 61.8287 102.247 61.374C102.981 60.9047 103.831 60.67 104.799 60.67C105.738 60.67 106.559 60.9047 107.263 61.374C107.982 61.8287 108.459 62.4447 108.693 63.222H108.451L108.693 60.89H111.333C111.289 61.3447 111.245 61.8067 111.201 62.276C111.172 62.7453 111.157 63.2073 111.157 63.662V72H108.429L108.407 69.712H108.671C108.437 70.4747 107.96 71.0833 107.241 71.538C106.523 71.9927 105.709 72.22 104.799 72.22ZM105.569 70.108C106.435 70.108 107.131 69.8073 107.659 69.206C108.187 68.59 108.451 67.666 108.451 66.434C108.451 65.202 108.187 64.2853 107.659 63.684C107.131 63.0827 106.435 62.782 105.569 62.782C104.704 62.782 104.007 63.0827 103.479 63.684C102.951 64.2853 102.687 65.202 102.687 66.434C102.687 67.666 102.944 68.59 103.457 69.206C103.985 69.8073 104.689 70.108 105.569 70.108ZM116.763 72V63.046H112.957V60.89H123.319V63.046H119.491V72H116.763ZM125.021 72V60.89H127.749V64.608H130.675C132.156 64.608 133.271 64.9233 134.019 65.554C134.767 66.17 135.141 67.0647 135.141 68.238C135.141 69.0007 134.965 69.668 134.613 70.24C134.261 70.7973 133.748 71.23 133.073 71.538C132.413 71.846 131.614 72 130.675 72H125.021ZM127.749 70.196H130.301C131.049 70.196 131.621 70.042 132.017 69.734C132.413 69.4113 132.611 68.9273 132.611 68.282C132.611 67.6367 132.413 67.1673 132.017 66.874C131.636 66.566 131.064 66.412 130.301 66.412H127.749V70.196ZM136.527 72V60.89H139.255V72H136.527ZM142.38 72V60.89H148.298C149.692 60.89 150.711 61.1467 151.356 61.66C152.002 62.1587 152.324 62.87 152.324 63.794C152.324 64.498 152.09 65.0847 151.62 65.554C151.151 66.0233 150.528 66.3167 149.75 66.434V66.126C150.704 66.1847 151.437 66.4633 151.95 66.962C152.464 67.4607 152.72 68.106 152.72 68.898C152.72 69.8513 152.354 70.6067 151.62 71.164C150.887 71.7213 149.846 72 148.496 72H142.38ZM144.932 70.306H148.21C148.856 70.306 149.347 70.174 149.684 69.91C150.036 69.646 150.212 69.2573 150.212 68.744C150.212 68.2307 150.036 67.842 149.684 67.578C149.347 67.314 148.856 67.182 148.21 67.182H144.932V70.306ZM144.932 65.488H147.968C148.555 65.488 149.01 65.3633 149.332 65.114C149.655 64.85 149.816 64.4833 149.816 64.014C149.816 63.5447 149.655 63.1853 149.332 62.936C149.01 62.6867 148.555 62.562 147.968 62.562H144.932V65.488ZM159.499 72.22C158.531 72.22 157.68 71.9927 156.947 71.538C156.213 71.0687 155.641 70.4013 155.231 69.536C154.82 68.6707 154.615 67.6367 154.615 66.434C154.615 65.2313 154.82 64.2047 155.231 63.354C155.641 62.4887 156.213 61.8287 156.947 61.374C157.68 60.9047 158.531 60.67 159.499 60.67C160.437 60.67 161.259 60.9047 161.963 61.374C162.681 61.8287 163.158 62.4447 163.393 63.222H163.151L163.393 60.89H166.033C165.989 61.3447 165.945 61.8067 165.901 62.276C165.871 62.7453 165.857 63.2073 165.857 63.662V72H163.129L163.107 69.712H163.371C163.136 70.4747 162.659 71.0833 161.941 71.538C161.222 71.9927 160.408 72.22 159.499 72.22ZM160.269 70.108C161.134 70.108 161.831 69.8073 162.359 69.206C162.887 68.59 163.151 67.666 163.151 66.434C163.151 65.202 162.887 64.2853 162.359 63.684C161.831 63.0827 161.134 62.782 160.269 62.782C159.403 62.782 158.707 63.0827 158.179 63.684C157.651 64.2853 157.387 65.202 157.387 66.434C157.387 67.666 157.643 68.59 158.157 69.206C158.685 69.8073 159.389 70.108 160.269 70.108ZM171.462 72V63.046H167.656V60.89H178.018V63.046H174.19V72H171.462ZM179.72 72V60.89H182.448V64.608H185.374C186.856 64.608 187.97 64.9233 188.718 65.554C189.466 66.17 189.84 67.0647 189.84 68.238C189.84 69.0007 189.664 69.668 189.312 70.24C188.96 70.7973 188.447 71.23 187.772 71.538C187.112 71.846 186.313 72 185.374 72H179.72ZM182.448 70.196H185C185.748 70.196 186.32 70.042 186.716 69.734C187.112 69.4113 187.31 68.9273 187.31 68.282C187.31 67.6367 187.112 67.1673 186.716 66.874C186.335 66.566 185.763 66.412 185 66.412H182.448V70.196ZM198.175 72V60.89H200.661V69.294H200.001L206.315 60.89H208.581V72H206.095V63.574H206.777L200.441 72H198.175ZM215.802 72.22C214.805 72.22 213.866 72.1027 212.986 71.868C212.121 71.6333 211.395 71.296 210.808 70.856L211.578 69.052C212.121 69.448 212.752 69.7487 213.47 69.954C214.204 70.1593 214.974 70.262 215.78 70.262C216.719 70.262 217.401 70.1373 217.826 69.888C218.266 69.624 218.486 69.2427 218.486 68.744C218.486 68.2747 218.318 67.9227 217.98 67.688C217.643 67.4387 217.144 67.314 216.484 67.314H213.602V65.422H216.22C216.822 65.422 217.284 65.3047 217.606 65.07C217.929 64.8353 218.09 64.5053 218.09 64.08C218.09 63.6253 217.892 63.266 217.496 63.002C217.115 62.738 216.484 62.606 215.604 62.606C214.842 62.606 214.145 62.7013 213.514 62.892C212.884 63.068 212.29 63.332 211.732 63.684L210.984 61.968C211.586 61.5427 212.312 61.22 213.162 61C214.028 60.78 214.966 60.67 215.978 60.67C217.46 60.67 218.596 60.9413 219.388 61.484C220.18 62.0267 220.576 62.7967 220.576 63.794C220.576 64.4687 220.342 65.048 219.872 65.532C219.418 66.016 218.802 66.3167 218.024 66.434V66.126C218.934 66.1847 219.652 66.456 220.18 66.94C220.708 67.424 220.972 68.0767 220.972 68.898C220.972 69.91 220.525 70.7167 219.63 71.318C218.736 71.9193 217.46 72.22 215.802 72.22ZM228.424 74.86V69.91H229.7C230.14 69.2207 230.455 68.414 230.646 67.49C230.851 66.5513 230.954 65.4073 230.954 64.058V60.89H239.512V69.91H241.316V74.86H238.984V72H230.756V74.86H228.424ZM232.164 69.932H236.938V62.958H233.286V64.674C233.286 65.6567 233.19 66.6173 233 67.556C232.809 68.4947 232.53 69.2867 232.164 69.932ZM248.439 72.22C247.295 72.22 246.305 71.9853 245.469 71.516C244.633 71.0467 243.981 70.3793 243.511 69.514C243.057 68.6487 242.829 67.622 242.829 66.434C242.829 65.246 243.057 64.2267 243.511 63.376C243.981 62.5107 244.633 61.8433 245.469 61.374C246.305 60.9047 247.295 60.67 248.439 60.67C249.583 60.67 250.573 60.9047 251.409 61.374C252.26 61.8433 252.913 62.5107 253.367 63.376C253.837 64.2267 254.071 65.246 254.071 66.434C254.071 67.622 253.837 68.6487 253.367 69.514C252.913 70.3793 252.26 71.0467 251.409 71.516C250.573 71.9853 249.583 72.22 248.439 72.22ZM248.439 70.108C249.305 70.108 249.994 69.8073 250.507 69.206C251.021 68.59 251.277 67.666 251.277 66.434C251.277 65.202 251.021 64.2853 250.507 63.684C249.994 63.0827 249.305 62.782 248.439 62.782C247.574 62.782 246.885 63.0827 246.371 63.684C245.858 64.2853 245.601 65.202 245.601 66.434C245.601 67.666 245.858 68.59 246.371 69.206C246.885 69.8073 247.574 70.108 248.439 70.108ZM256.677 72V60.89H258.965L262.793 67.534L266.621 60.89H268.909V72H266.489V63.97H266.995L263.431 70.196H262.155L258.591 63.97H259.097V72H256.677ZM276.417 72.22C275.449 72.22 274.598 71.9927 273.865 71.538C273.131 71.0687 272.559 70.4013 272.149 69.536C271.738 68.6707 271.533 67.6367 271.533 66.434C271.533 65.2313 271.738 64.2047 272.149 63.354C272.559 62.4887 273.131 61.8287 273.865 61.374C274.598 60.9047 275.449 60.67 276.417 60.67C277.355 60.67 278.177 60.9047 278.881 61.374C279.599 61.8287 280.076 62.4447 280.311 63.222H280.069L280.311 60.89H282.951C282.907 61.3447 282.863 61.8067 282.819 62.276C282.789 62.7453 282.775 63.2073 282.775 63.662V72H280.047L280.025 69.712H280.289C280.054 70.4747 279.577 71.0833 278.859 71.538C278.14 71.9927 277.326 72.22 276.417 72.22ZM277.187 70.108C278.052 70.108 278.749 69.8073 279.277 69.206C279.805 68.59 280.069 67.666 280.069 66.434C280.069 65.202 279.805 64.2853 279.277 63.684C278.749 63.0827 278.052 62.782 277.187 62.782C276.321 62.782 275.625 63.0827 275.097 63.684C274.569 64.2853 274.305 65.202 274.305 66.434C274.305 67.666 274.561 68.59 275.075 69.206C275.603 69.8073 276.307 70.108 277.187 70.108ZM38.534 96.198C37.434 96.198 36.4807 95.9707 35.674 95.516C34.8673 95.0467 34.2367 94.3793 33.782 93.514C33.342 92.634 33.122 91.5927 33.122 90.39C33.122 89.202 33.3493 88.19 33.804 87.354C34.2587 86.5033 34.8893 85.858 35.696 85.418C36.5027 84.9633 37.4487 84.736 38.534 84.736C39.2527 84.736 39.9493 84.8607 40.624 85.11C41.2987 85.3447 41.8487 85.6893 42.274 86.144L41.592 87.552C41.1667 87.1413 40.6973 86.8407 40.184 86.65C39.6707 86.4447 39.1647 86.342 38.666 86.342C37.5807 86.342 36.73 86.694 36.114 87.398C35.498 88.0873 35.19 89.092 35.19 90.412C35.19 91.7467 35.498 92.7733 36.114 93.492C36.73 94.2107 37.5807 94.57 38.666 94.57C39.15 94.57 39.6487 94.4747 40.162 94.284C40.6753 94.0933 41.152 93.7927 41.592 93.382L42.274 94.768C41.834 95.2373 41.2693 95.5967 40.58 95.846C39.9053 96.0807 39.2233 96.198 38.534 96.198ZM49.5447 98.86V94.438H50.7547C51.2533 93.69 51.6127 92.81 51.8327 91.798C52.0673 90.786 52.1847 89.5833 52.1847 88.19V84.934H60.1267V94.438H61.8867V98.86H60.1707V96H51.2827V98.86H49.5447ZM52.6467 94.46H58.2567V86.474H53.9447V88.542C53.9447 89.6567 53.8347 90.742 53.6147 91.798C53.3947 92.8393 53.072 93.7267 52.6467 94.46ZM69.3063 96.198C67.5463 96.198 66.153 95.692 65.1263 94.68C64.1143 93.668 63.6083 92.2747 63.6083 90.5C63.6083 89.3267 63.8283 88.3147 64.2683 87.464C64.723 86.5987 65.3463 85.9313 66.1383 85.462C66.9303 84.978 67.8543 84.736 68.9103 84.736C69.9223 84.736 70.7803 84.956 71.4843 85.396C72.1883 85.8213 72.7237 86.43 73.0903 87.222C73.457 88.014 73.6403 88.9527 73.6403 90.038V90.698H65.1703V89.51H72.2763L71.9023 89.796C71.9023 88.652 71.6457 87.7647 71.1323 87.134C70.6337 86.5033 69.893 86.188 68.9103 86.188C67.8397 86.188 67.011 86.562 66.4243 87.31C65.8377 88.0433 65.5443 89.048 65.5443 90.324V90.522C65.5443 91.8713 65.8743 92.8907 66.5343 93.58C67.209 94.2693 68.1403 94.614 69.3283 94.614C69.9883 94.614 70.6043 94.5187 71.1763 94.328C71.7483 94.1373 72.2983 93.822 72.8263 93.382L73.4863 94.768C72.9877 95.2227 72.3643 95.5747 71.6163 95.824C70.883 96.0733 70.113 96.198 69.3063 96.198ZM78.8029 96V86.54H74.8209V84.934H84.7649V86.54H80.7829V96H78.8029ZM86.589 96V84.934H88.569V89.51H90.571L94.135 84.934H96.313L92.177 90.324L91.649 89.708C92.0744 89.752 92.441 89.862 92.749 90.038C93.057 90.1993 93.3504 90.4413 93.629 90.764C93.9224 91.0867 94.2377 91.5193 94.575 92.062L96.863 96H94.707L92.705 92.59C92.485 92.194 92.265 91.886 92.045 91.666C91.825 91.446 91.5757 91.292 91.297 91.204C91.033 91.116 90.6957 91.072 90.285 91.072H88.569V96H86.589ZM102.867 96.198C101.899 96.198 101.049 95.9707 100.315 95.516C99.582 95.0613 99.01 94.4013 98.5993 93.536C98.1887 92.6707 97.9833 91.644 97.9833 90.456C97.9833 89.268 98.1887 88.2487 98.5993 87.398C99.01 86.5327 99.582 85.8727 100.315 85.418C101.049 84.9633 101.899 84.736 102.867 84.736C103.85 84.736 104.701 84.9853 105.419 85.484C106.153 85.968 106.637 86.6353 106.871 87.486H106.607L106.849 84.934H108.785C108.741 85.374 108.697 85.814 108.653 86.254C108.624 86.694 108.609 87.1267 108.609 87.552V96H106.607V93.47H106.849C106.615 94.306 106.131 94.9733 105.397 95.472C104.679 95.956 103.835 96.198 102.867 96.198ZM103.329 94.614C104.327 94.614 105.126 94.262 105.727 93.558C106.329 92.854 106.629 91.82 106.629 90.456C106.629 89.092 106.329 88.0653 105.727 87.376C105.126 86.6867 104.327 86.342 103.329 86.342C102.332 86.342 101.525 86.6867 100.909 87.376C100.308 88.0653 100.007 89.092 100.007 90.456C100.007 91.82 100.308 92.854 100.909 93.558C101.511 94.262 102.317 94.614 103.329 94.614ZM112.134 96V84.934H113.806L117.876 92.172L121.968 84.934H123.618V96H121.858V87.178H122.342L118.382 94.218H117.392L113.432 87.156H113.894V96H112.134ZM127.044 96V84.934H128.87V94.108H128.276L135.14 84.934H136.812V96H134.986V86.804H135.602L128.716 96H127.044ZM146.036 96V84.934H148.016V89.51H153.868V84.934H155.848V96H153.868V91.094H148.016V96H146.036ZM163.561 96.198C162.593 96.198 161.742 95.9707 161.009 95.516C160.275 95.0613 159.703 94.4013 159.293 93.536C158.882 92.6707 158.677 91.644 158.677 90.456C158.677 89.268 158.882 88.2487 159.293 87.398C159.703 86.5327 160.275 85.8727 161.009 85.418C161.742 84.9633 162.593 84.736 163.561 84.736C164.543 84.736 165.394 84.9853 166.113 85.484C166.846 85.968 167.33 86.6353 167.565 87.486H167.301L167.543 84.934H169.479C169.435 85.374 169.391 85.814 169.347 86.254C169.317 86.694 169.303 87.1267 169.303 87.552V96H167.301V93.47H167.543C167.308 94.306 166.824 94.9733 166.091 95.472C165.372 95.956 164.529 96.198 163.561 96.198ZM164.023 94.614C165.02 94.614 165.819 94.262 166.421 93.558C167.022 92.854 167.323 91.82 167.323 90.456C167.323 89.092 167.022 88.0653 166.421 87.376C165.819 86.6867 165.02 86.342 164.023 86.342C163.025 86.342 162.219 86.6867 161.603 87.376C161.001 88.0653 160.701 89.092 160.701 90.456C160.701 91.82 161.001 92.854 161.603 93.558C162.204 94.262 163.011 94.614 164.023 94.614ZM178.694 100.752V87.552C178.694 87.1267 178.679 86.694 178.65 86.254C178.621 85.814 178.577 85.374 178.518 84.934H180.454L180.696 87.486H180.454C180.674 86.6353 181.143 85.968 181.862 85.484C182.581 84.9853 183.439 84.736 184.436 84.736C185.419 84.736 186.277 84.9633 187.01 85.418C187.743 85.8727 188.308 86.5327 188.704 87.398C189.115 88.2487 189.32 89.268 189.32 90.456C189.32 91.644 189.115 92.6707 188.704 93.536C188.308 94.4013 187.743 95.0613 187.01 95.516C186.277 95.9707 185.419 96.198 184.436 96.198C183.453 96.198 182.603 95.956 181.884 95.472C181.18 94.9733 180.703 94.306 180.454 93.47H180.696V100.752H178.694ZM183.974 94.614C184.986 94.614 185.793 94.262 186.394 93.558C186.995 92.854 187.296 91.82 187.296 90.456C187.296 89.092 186.995 88.0653 186.394 87.376C185.793 86.6867 184.986 86.342 183.974 86.342C182.962 86.342 182.155 86.6867 181.554 87.376C180.967 88.0653 180.674 89.092 180.674 90.456C180.674 91.82 180.967 92.854 181.554 93.558C182.155 94.262 182.962 94.614 183.974 94.614ZM191.726 100.994L191.264 99.366C191.954 99.2047 192.526 99.014 192.98 98.794C193.435 98.5887 193.816 98.3173 194.124 97.98C194.432 97.6427 194.704 97.2173 194.938 96.704L195.488 95.384L195.444 96.22L190.626 84.934H192.782L196.632 94.416H196.06L199.91 84.934H201.978L196.896 96.858C196.588 97.5767 196.251 98.178 195.884 98.662C195.532 99.146 195.144 99.542 194.718 99.85C194.308 100.158 193.853 100.4 193.354 100.576C192.856 100.752 192.313 100.891 191.726 100.994ZM204.001 96V84.934H205.981V89.51H207.983L211.547 84.934H213.725L209.589 90.324L209.061 89.708C209.486 89.752 209.853 89.862 210.161 90.038C210.469 90.1993 210.762 90.4413 211.041 90.764C211.334 91.0867 211.65 91.5193 211.987 92.062L214.275 96H212.119L210.117 92.59C209.897 92.194 209.677 91.886 209.457 91.666C209.237 91.446 208.988 91.292 208.709 91.204C208.445 91.116 208.108 91.072 207.697 91.072H205.981V96H204.001ZM220.279 96.198C219.311 96.198 218.461 95.9707 217.727 95.516C216.994 95.0613 216.422 94.4013 216.011 93.536C215.601 92.6707 215.395 91.644 215.395 90.456C215.395 89.268 215.601 88.2487 216.011 87.398C216.422 86.5327 216.994 85.8727 217.727 85.418C218.461 84.9633 219.311 84.736 220.279 84.736C221.262 84.736 222.113 84.9853 222.831 85.484C223.565 85.968 224.049 86.6353 224.283 87.486H224.019L224.261 84.934H226.197C226.153 85.374 226.109 85.814 226.065 86.254C226.036 86.694 226.021 87.1267 226.021 87.552V96H224.019V93.47H224.261C224.027 94.306 223.543 94.9733 222.809 95.472C222.091 95.956 221.247 96.198 220.279 96.198ZM220.741 94.614C221.739 94.614 222.538 94.262 223.139 93.558C223.741 92.854 224.041 91.82 224.041 90.456C224.041 89.092 223.741 88.0653 223.139 87.376C222.538 86.6867 221.739 86.342 220.741 86.342C219.744 86.342 218.937 86.6867 218.321 87.376C217.72 88.0653 217.419 89.092 217.419 90.456C217.419 91.82 217.72 92.854 218.321 93.558C218.923 94.262 219.729 94.614 220.741 94.614ZM228.072 96L233.088 89.796V90.786L228.358 84.934H230.756L234.21 89.356H233.484L236.938 84.934H239.314L234.65 90.742V89.84L239.6 96H237.18L233.484 91.27H234.21L230.47 96H228.072Z" fill="#343434"/>
<circle cx="346" cy="22" r="6" fill="#343434" fill-opacity="0.12"/>
<defs>
<linearGradient id="paint0_linear_102_331" x1="184" y1="0" x2="184" y2="128" gradientUnits="userSpaceOnUse">
<stop stop-color="#F0ECD3" stop-opacity="0.64"/>
<stop offset="1" stop-color="#F0ECD3" stop-opacity="0"/>
</linearGradient>
</defs>
</svg>
