<svg width="368" height="128" viewBox="0 0 368 128" fill="none" xmlns="http://www.w3.org/2000/svg">
<rect width="368" height="128" rx="16" fill="url(#paint0_linear_102_319)"/>
<path d="M33.716 48V32.49H40.514C42.2007 32.49 43.4987 32.8493 44.408 33.568C45.3173 34.272 45.772 35.2547 45.772 36.516C45.772 37.4547 45.4933 38.2467 44.936 38.892C44.3787 39.5373 43.6087 39.97 42.626 40.19V39.86C43.7553 40.0213 44.628 40.432 45.244 41.092C45.8747 41.7373 46.19 42.5953 46.19 43.666C46.19 45.0447 45.7133 46.1153 44.76 46.878C43.8067 47.626 42.4793 48 40.778 48H33.716ZM36.444 45.844H40.448C41.4013 45.844 42.142 45.668 42.67 45.316C43.198 44.9493 43.462 44.3553 43.462 43.534C43.462 42.698 43.198 42.104 42.67 41.752C42.142 41.3853 41.4013 41.202 40.448 41.202H36.444V45.844ZM36.444 39.068H40.03C41.042 39.068 41.79 38.8847 42.274 38.518C42.7727 38.1367 43.022 37.5793 43.022 36.846C43.022 36.1127 42.7727 35.5627 42.274 35.196C41.79 34.8147 41.042 34.624 40.03 34.624H36.444V39.068ZM47.7615 50.86V45.91H49.0375C49.4775 45.2207 49.7928 44.414 49.9835 43.49C50.1888 42.5513 50.2915 41.4073 50.2915 40.058V36.89H58.8495V45.91H60.6535V50.86H58.3215V48H50.0935V50.86H47.7615ZM51.5015 45.932H56.2755V38.958H52.6235V40.674C52.6235 41.6567 52.5281 42.6173 52.3375 43.556C52.1468 44.4947 51.8681 45.2867 51.5015 45.932ZM67.7773 48.22C66.6333 48.22 65.6433 47.9853 64.8073 47.516C63.9713 47.0467 63.3187 46.3793 62.8493 45.514C62.3947 44.6487 62.1673 43.622 62.1673 42.434C62.1673 41.246 62.3947 40.2267 62.8493 39.376C63.3187 38.5107 63.9713 37.8433 64.8073 37.374C65.6433 36.9047 66.6333 36.67 67.7773 36.67C68.9213 36.67 69.9113 36.9047 70.7473 37.374C71.598 37.8433 72.2507 38.5107 72.7053 39.376C73.1747 40.2267 73.4093 41.246 73.4093 42.434C73.4093 43.622 73.1747 44.6487 72.7053 45.514C72.2507 46.3793 71.598 47.0467 70.7473 47.516C69.9113 47.9853 68.9213 48.22 67.7773 48.22ZM67.7773 46.108C68.6427 46.108 69.332 45.8073 69.8453 45.206C70.3587 44.59 70.6153 43.666 70.6153 42.434C70.6153 41.202 70.3587 40.2853 69.8453 39.684C69.332 39.0827 68.6427 38.782 67.7773 38.782C66.912 38.782 66.2227 39.0827 65.7093 39.684C65.196 40.2853 64.9393 41.202 64.9393 42.434C64.9393 43.666 65.196 44.59 65.7093 45.206C66.2227 45.8073 66.912 46.108 67.7773 46.108ZM74.1723 48L79.3423 41.642V42.896L74.4583 36.89H77.7143L80.9043 41.004H79.9143L83.1043 36.89H86.3383L81.4983 42.896V41.642L86.6463 48H83.3683L79.9143 43.578H80.9043L77.4283 48H74.1723ZM88.1968 48V36.89H90.9248V41.246H95.9408V36.89H98.6688V48H95.9408V43.358H90.9248V48H88.1968ZM106.9 48.22C105.756 48.22 104.766 47.9853 103.93 47.516C103.094 47.0467 102.442 46.3793 101.972 45.514C101.518 44.6487 101.29 43.622 101.29 42.434C101.29 41.246 101.518 40.2267 101.972 39.376C102.442 38.5107 103.094 37.8433 103.93 37.374C104.766 36.9047 105.756 36.67 106.9 36.67C108.044 36.67 109.034 36.9047 109.87 37.374C110.721 37.8433 111.374 38.5107 111.828 39.376C112.298 40.2267 112.532 41.246 112.532 42.434C112.532 43.622 112.298 44.6487 111.828 45.514C111.374 46.3793 110.721 47.0467 109.87 47.516C109.034 47.9853 108.044 48.22 106.9 48.22ZM106.9 46.108C107.766 46.108 108.455 45.8073 108.968 45.206C109.482 44.59 109.738 43.666 109.738 42.434C109.738 41.202 109.482 40.2853 108.968 39.684C108.455 39.0827 107.766 38.782 106.9 38.782C106.035 38.782 105.346 39.0827 104.832 39.684C104.319 40.2853 104.062 41.202 104.062 42.434C104.062 43.666 104.319 44.59 104.832 45.206C105.346 45.8073 106.035 46.108 106.9 46.108ZM115.138 48V36.89H121.056C122.45 36.89 123.469 37.1467 124.114 37.66C124.76 38.1587 125.082 38.87 125.082 39.794C125.082 40.498 124.848 41.0847 124.378 41.554C123.909 42.0233 123.286 42.3167 122.508 42.434V42.126C123.462 42.1847 124.195 42.4633 124.708 42.962C125.222 43.4607 125.478 44.106 125.478 44.898C125.478 45.8513 125.112 46.6067 124.378 47.164C123.645 47.7213 122.604 48 121.254 48H115.138ZM117.69 46.306H120.968C121.614 46.306 122.105 46.174 122.442 45.91C122.794 45.646 122.97 45.2573 122.97 44.744C122.97 44.2307 122.794 43.842 122.442 43.578C122.105 43.314 121.614 43.182 120.968 43.182H117.69V46.306ZM117.69 41.488H120.726C121.313 41.488 121.768 41.3633 122.09 41.114C122.413 40.85 122.574 40.4833 122.574 40.014C122.574 39.5447 122.413 39.1853 122.09 38.936C121.768 38.6867 121.313 38.562 120.726 38.562H117.69V41.488ZM133.334 48.22C131.472 48.22 130.012 47.7067 128.956 46.68C127.9 45.6533 127.372 44.2453 127.372 42.456C127.372 41.2973 127.6 40.2853 128.054 39.42C128.509 38.5547 129.14 37.88 129.946 37.396C130.768 36.912 131.721 36.67 132.806 36.67C133.877 36.67 134.772 36.8973 135.49 37.352C136.209 37.8067 136.752 38.4447 137.118 39.266C137.5 40.0873 137.69 41.048 137.69 42.148V42.874H129.594V41.422H135.732L135.358 41.73C135.358 40.7033 135.138 39.9187 134.698 39.376C134.273 38.8333 133.65 38.562 132.828 38.562C131.919 38.562 131.215 38.8847 130.716 39.53C130.232 40.1753 129.99 41.0773 129.99 42.236V42.522C129.99 43.7247 130.284 44.6267 130.87 45.228C131.472 45.8147 132.315 46.108 133.4 46.108C134.031 46.108 134.618 46.0273 135.16 45.866C135.718 45.69 136.246 45.4113 136.744 45.03L137.558 46.878C137.03 47.3033 136.4 47.6333 135.666 47.868C134.933 48.1027 134.156 48.22 133.334 48.22ZM140.232 48V36.89H142.96V41.246H147.976V36.89H150.704V48H147.976V43.358H142.96V48H140.232ZM153.832 48V36.89H156.318V45.294H155.658L161.972 36.89H164.238V48H161.752V39.574H162.434L156.098 48H153.832ZM172.823 48.22C170.96 48.22 169.501 47.7067 168.445 46.68C167.389 45.6533 166.861 44.2453 166.861 42.456C166.861 41.2973 167.088 40.2853 167.543 39.42C167.997 38.5547 168.628 37.88 169.435 37.396C170.256 36.912 171.209 36.67 172.295 36.67C173.365 36.67 174.26 36.8973 174.979 37.352C175.697 37.8067 176.24 38.4447 176.607 39.266C176.988 40.0873 177.179 41.048 177.179 42.148V42.874H169.083V41.422H175.221L174.847 41.73C174.847 40.7033 174.627 39.9187 174.187 39.376C173.761 38.8333 173.138 38.562 172.317 38.562C171.407 38.562 170.703 38.8847 170.205 39.53C169.721 40.1753 169.479 41.0773 169.479 42.236V42.522C169.479 43.7247 169.772 44.6267 170.359 45.228C170.96 45.8147 171.803 46.108 172.889 46.108C173.519 46.108 174.106 46.0273 174.649 45.866C175.206 45.69 175.734 45.4113 176.233 45.03L177.047 46.878C176.519 47.3033 175.888 47.6333 175.155 47.868C174.421 48.1027 173.644 48.22 172.823 48.22ZM33.716 72V60.934H35.696V65.51H41.548V60.934H43.528V72H41.548V67.094H35.696V72H33.716ZM51.2404 72.198C50.2724 72.198 49.4217 71.9707 48.6884 71.516C47.955 71.0613 47.383 70.4013 46.9724 69.536C46.5617 68.6707 46.3564 67.644 46.3564 66.456C46.3564 65.268 46.5617 64.2487 46.9724 63.398C47.383 62.5327 47.955 61.8727 48.6884 61.418C49.4217 60.9633 50.2724 60.736 51.2404 60.736C52.223 60.736 53.0737 60.9853 53.7924 61.484C54.5257 61.968 55.0097 62.6353 55.2444 63.486H54.9804L55.2224 60.934H57.1584C57.1144 61.374 57.0704 61.814 57.0264 62.254C56.997 62.694 56.9824 63.1267 56.9824 63.552V72H54.9804V69.47H55.2224C54.9877 70.306 54.5037 70.9733 53.7704 71.472C53.0517 71.956 52.2084 72.198 51.2404 72.198ZM51.7024 70.614C52.6997 70.614 53.499 70.262 54.1004 69.558C54.7017 68.854 55.0024 67.82 55.0024 66.456C55.0024 65.092 54.7017 64.0653 54.1004 63.376C53.499 62.6867 52.6997 62.342 51.7024 62.342C50.705 62.342 49.8984 62.6867 49.2824 63.376C48.681 64.0653 48.3804 65.092 48.3804 66.456C48.3804 67.82 48.681 68.854 49.2824 69.558C49.8837 70.262 50.6904 70.614 51.7024 70.614ZM66.3078 72V60.934H76.0538V72H74.0738V62.496H68.2878V72H66.3078ZM79.5437 76.752V63.552C79.5437 63.1267 79.5291 62.694 79.4997 62.254C79.4704 61.814 79.4264 61.374 79.3677 60.934H81.3037L81.5457 63.486H81.3037C81.5237 62.6353 81.9931 61.968 82.7117 61.484C83.4304 60.9853 84.2884 60.736 85.2857 60.736C86.2684 60.736 87.1264 60.9633 87.8597 61.418C88.5931 61.8727 89.1577 62.5327 89.5537 63.398C89.9644 64.2487 90.1697 65.268 90.1697 66.456C90.1697 67.644 89.9644 68.6707 89.5537 69.536C89.1577 70.4013 88.5931 71.0613 87.8597 71.516C87.1264 71.9707 86.2684 72.198 85.2857 72.198C84.3031 72.198 83.4524 71.956 82.7337 71.472C82.0297 70.9733 81.5531 70.306 81.3037 69.47H81.5457V76.752H79.5437ZM84.8237 70.614C85.8357 70.614 86.6424 70.262 87.2437 69.558C87.8451 68.854 88.1457 67.82 88.1457 66.456C88.1457 65.092 87.8451 64.0653 87.2437 63.376C86.6424 62.6867 85.8357 62.342 84.8237 62.342C83.8117 62.342 83.0051 62.6867 82.4037 63.376C81.8171 64.0653 81.5237 65.092 81.5237 66.456C81.5237 67.82 81.8171 68.854 82.4037 69.558C83.0051 70.262 83.8117 70.614 84.8237 70.614ZM97.7644 72.198C96.679 72.198 95.7404 71.9707 94.9484 71.516C94.1564 71.0467 93.5404 70.3867 93.1004 69.536C92.6604 68.6707 92.4404 67.644 92.4404 66.456C92.4404 65.2827 92.6604 64.2707 93.1004 63.42C93.5404 62.5547 94.1564 61.8947 94.9484 61.44C95.7404 60.9707 96.679 60.736 97.7644 60.736C98.8497 60.736 99.7884 60.9707 100.58 61.44C101.387 61.8947 102.003 62.5547 102.428 63.42C102.868 64.2707 103.088 65.2827 103.088 66.456C103.088 67.644 102.868 68.6707 102.428 69.536C102.003 70.3867 101.387 71.0467 100.58 71.516C99.7884 71.9707 98.8497 72.198 97.7644 72.198ZM97.7644 70.614C98.7617 70.614 99.561 70.262 100.162 69.558C100.764 68.854 101.064 67.82 101.064 66.456C101.064 65.092 100.764 64.0653 100.162 63.376C99.561 62.6867 98.7617 62.342 97.7644 62.342C96.7524 62.342 95.9457 62.6867 95.3444 63.376C94.7577 64.0653 94.4644 65.092 94.4644 66.456C94.4644 67.82 94.7577 68.854 95.3444 69.558C95.9457 70.262 96.7524 70.614 97.7644 70.614ZM112.326 76.752V69.602H112.546C112.326 70.438 111.938 71.0833 111.38 71.538C110.838 71.978 110.17 72.198 109.378 72.198C108.586 72.198 107.882 71.9633 107.266 71.494C106.665 71.0247 106.196 70.3647 105.858 69.514C105.521 68.6487 105.352 67.6293 105.352 66.456C105.352 65.2827 105.514 64.2707 105.836 63.42C106.174 62.5547 106.643 61.8947 107.244 61.44C107.86 60.9707 108.572 60.736 109.378 60.736C110.17 60.736 110.838 60.9633 111.38 61.418C111.938 61.858 112.326 62.4887 112.546 63.31H112.326V55.808H114.306V63.31H114.086C114.321 62.4887 114.71 61.858 115.252 61.418C115.795 60.9633 116.462 60.736 117.254 60.736C118.061 60.736 118.765 60.9707 119.366 61.44C119.982 61.8947 120.452 62.5547 120.774 63.42C121.112 64.2707 121.28 65.2827 121.28 66.456C121.28 67.6293 121.112 68.6487 120.774 69.514C120.452 70.3647 119.99 71.0247 119.388 71.494C118.787 71.9633 118.076 72.198 117.254 72.198C116.477 72.198 115.81 71.978 115.252 71.538C114.71 71.0833 114.321 70.438 114.086 69.602H114.306V76.752H112.326ZM109.862 70.636C110.64 70.636 111.248 70.284 111.688 69.58C112.143 68.876 112.37 67.8347 112.37 66.456C112.37 65.1067 112.143 64.0727 111.688 63.354C111.234 62.6353 110.625 62.276 109.862 62.276C109.085 62.276 108.469 62.6353 108.014 63.354C107.574 64.0727 107.354 65.1067 107.354 66.456C107.354 67.8347 107.574 68.876 108.014 69.58C108.469 70.284 109.085 70.636 109.862 70.636ZM116.77 70.636C117.548 70.636 118.164 70.284 118.618 69.58C119.073 68.876 119.3 67.8347 119.3 66.456C119.3 65.1067 119.073 64.0727 118.618 63.354C118.164 62.6353 117.548 62.276 116.77 62.276C115.993 62.276 115.384 62.6353 114.944 63.354C114.504 64.0727 114.284 65.1067 114.284 66.456C114.284 67.8347 114.504 68.876 114.944 69.58C115.384 70.284 115.993 70.636 116.77 70.636ZM129.226 72.198C127.466 72.198 126.073 71.692 125.046 70.68C124.034 69.668 123.528 68.2747 123.528 66.5C123.528 65.3267 123.748 64.3147 124.188 63.464C124.643 62.5987 125.266 61.9313 126.058 61.462C126.85 60.978 127.774 60.736 128.83 60.736C129.842 60.736 130.7 60.956 131.404 61.396C132.108 61.8213 132.644 62.43 133.01 63.222C133.377 64.014 133.56 64.9527 133.56 66.038V66.698H125.09V65.51H132.196L131.822 65.796C131.822 64.652 131.566 63.7647 131.052 63.134C130.554 62.5033 129.813 62.188 128.83 62.188C127.76 62.188 126.931 62.562 126.344 63.31C125.758 64.0433 125.464 65.048 125.464 66.324V66.522C125.464 67.8713 125.794 68.8907 126.454 69.58C127.129 70.2693 128.06 70.614 129.248 70.614C129.908 70.614 130.524 70.5187 131.096 70.328C131.668 70.1373 132.218 69.822 132.746 69.382L133.406 70.768C132.908 71.2227 132.284 71.5747 131.536 71.824C130.803 72.0733 130.033 72.198 129.226 72.198ZM141.165 72.198C140.065 72.198 139.112 71.9707 138.305 71.516C137.498 71.0467 136.868 70.3793 136.413 69.514C135.973 68.634 135.753 67.5927 135.753 66.39C135.753 65.202 135.98 64.19 136.435 63.354C136.89 62.5033 137.52 61.858 138.327 61.418C139.134 60.9633 140.08 60.736 141.165 60.736C141.884 60.736 142.58 60.8607 143.255 61.11C143.93 61.3447 144.48 61.6893 144.905 62.144L144.223 63.552C143.798 63.1413 143.328 62.8407 142.815 62.65C142.302 62.4447 141.796 62.342 141.297 62.342C140.212 62.342 139.361 62.694 138.745 63.398C138.129 64.0873 137.821 65.092 137.821 66.412C137.821 67.7467 138.129 68.7733 138.745 69.492C139.361 70.2107 140.212 70.57 141.297 70.57C141.781 70.57 142.28 70.4747 142.793 70.284C143.306 70.0933 143.783 69.7927 144.223 69.382L144.905 70.768C144.465 71.2373 143.9 71.5967 143.211 71.846C142.536 72.0807 141.854 72.198 141.165 72.198ZM152.337 72.198C151.237 72.198 150.283 71.9707 149.477 71.516C148.67 71.0467 148.039 70.3793 147.585 69.514C147.145 68.634 146.925 67.5927 146.925 66.39C146.925 65.202 147.152 64.19 147.607 63.354C148.061 62.5033 148.692 61.858 149.499 61.418C150.305 60.9633 151.251 60.736 152.337 60.736C153.055 60.736 153.752 60.8607 154.427 61.11C155.101 61.3447 155.651 61.6893 156.077 62.144L155.395 63.552C154.969 63.1413 154.5 62.8407 153.987 62.65C153.473 62.4447 152.967 62.342 152.469 62.342C151.383 62.342 150.533 62.694 149.917 63.398C149.301 64.0873 148.993 65.092 148.993 66.412C148.993 67.7467 149.301 68.7733 149.917 69.492C150.533 70.2107 151.383 70.57 152.469 70.57C152.953 70.57 153.451 70.4747 153.965 70.284C154.478 70.0933 154.955 69.7927 155.395 69.382L156.077 70.768C155.637 71.2373 155.072 71.5967 154.383 71.846C153.708 72.0807 153.026 72.198 152.337 72.198ZM158.691 72V60.934H160.517V70.108H159.923L166.787 60.934H168.459V72H166.633V62.804H167.249L160.363 72H158.691ZM176.612 72.198C175.527 72.198 174.588 71.9707 173.796 71.516C173.004 71.0467 172.388 70.3867 171.948 69.536C171.508 68.6707 171.288 67.644 171.288 66.456C171.288 65.2827 171.508 64.2707 171.948 63.42C172.388 62.5547 173.004 61.8947 173.796 61.44C174.588 60.9707 175.527 60.736 176.612 60.736C177.697 60.736 178.636 60.9707 179.428 61.44C180.235 61.8947 180.851 62.5547 181.276 63.42C181.716 64.2707 181.936 65.2827 181.936 66.456C181.936 67.644 181.716 68.6707 181.276 69.536C180.851 70.3867 180.235 71.0467 179.428 71.516C178.636 71.9707 177.697 72.198 176.612 72.198ZM176.612 70.614C177.609 70.614 178.409 70.262 179.01 69.558C179.611 68.854 179.912 67.82 179.912 66.456C179.912 65.092 179.611 64.0653 179.01 63.376C178.409 62.6867 177.609 62.342 176.612 62.342C175.6 62.342 174.793 62.6867 174.192 63.376C173.605 64.0653 173.312 65.092 173.312 66.456C173.312 67.82 173.605 68.854 174.192 69.558C174.793 70.262 175.6 70.614 176.612 70.614ZM184.794 72V60.934H186.774V65.51H192.626V60.934H194.606V72H192.626V67.094H186.774V72H184.794ZM202.319 72.198C201.351 72.198 200.5 71.9707 199.767 71.516C199.033 71.0613 198.461 70.4013 198.051 69.536C197.64 68.6707 197.435 67.644 197.435 66.456C197.435 65.268 197.64 64.2487 198.051 63.398C198.461 62.5327 199.033 61.8727 199.767 61.418C200.5 60.9633 201.351 60.736 202.319 60.736C203.301 60.736 204.152 60.9853 204.871 61.484C205.604 61.968 206.088 62.6353 206.323 63.486H206.059L206.301 60.934H208.237C208.193 61.374 208.149 61.814 208.105 62.254C208.075 62.694 208.061 63.1267 208.061 63.552V72H206.059V69.47H206.301C206.066 70.306 205.582 70.9733 204.849 71.472C204.13 71.956 203.287 72.198 202.319 72.198ZM202.78 70.614C203.778 70.614 204.577 70.262 205.179 69.558C205.78 68.854 206.081 67.82 206.081 66.456C206.081 65.092 205.78 64.0653 205.179 63.376C204.577 62.6867 203.778 62.342 202.78 62.342C201.783 62.342 200.977 62.6867 200.361 63.376C199.759 64.0653 199.459 65.092 199.459 66.456C199.459 67.82 199.759 68.854 200.361 69.558C200.962 70.262 201.769 70.614 202.78 70.614ZM211.057 72.264L210.353 70.702C210.866 70.4673 211.292 70.1887 211.629 69.866C211.981 69.5287 212.252 69.1033 212.443 68.59C212.648 68.0767 212.795 67.4387 212.883 66.676C212.971 65.9133 213.015 64.9893 213.015 63.904V60.934H221.177V72H219.197V62.496H214.863V63.948C214.863 65.6493 214.731 67.0573 214.467 68.172C214.218 69.272 213.814 70.1447 213.257 70.79C212.714 71.4353 211.981 71.9267 211.057 72.264ZM224.605 72V60.934H226.585V64.85H229.841C231.278 64.85 232.356 65.158 233.075 65.774C233.808 66.3753 234.175 67.248 234.175 68.392C234.175 69.1253 234.006 69.7633 233.669 70.306C233.331 70.8487 232.84 71.2667 232.195 71.56C231.549 71.8533 230.765 72 229.841 72H224.605ZM226.585 70.614H229.621C230.486 70.614 231.146 70.438 231.601 70.086C232.055 69.7193 232.283 69.162 232.283 68.414C232.283 67.666 232.055 67.116 231.601 66.764C231.161 66.412 230.501 66.236 229.621 66.236H226.585V70.614ZM236.743 72V60.934H238.723V65.51H244.575V60.934H246.555V72H244.575V67.094H238.723V72H236.743ZM249.67 76.994L249.208 75.366C249.897 75.2047 250.469 75.014 250.924 74.794C251.378 74.5887 251.76 74.3173 252.068 73.98C252.376 73.6427 252.647 73.2173 252.882 72.704L253.432 71.384L253.388 72.22L248.57 60.934H250.726L254.576 70.416H254.004L257.854 60.934H259.922L254.84 72.858C254.532 73.5767 254.194 74.178 253.828 74.662C253.476 75.146 253.087 75.542 252.662 75.85C252.251 76.158 251.796 76.4 251.298 76.576C250.799 76.752 250.256 76.8913 249.67 76.994ZM271.317 72.198C269.806 72.198 268.581 71.7507 267.643 70.856C266.719 69.9467 266.191 68.6927 266.059 67.094H263.903V72H261.945V60.934H263.903V65.51H266.081C266.271 64.014 266.829 62.848 267.753 62.012C268.677 61.1613 269.865 60.736 271.317 60.736C272.402 60.736 273.341 60.9633 274.133 61.418C274.939 61.8727 275.563 62.5327 276.003 63.398C276.443 64.2487 276.663 65.268 276.663 66.456C276.663 67.644 276.443 68.6707 276.003 69.536C275.563 70.3867 274.939 71.0467 274.133 71.516C273.341 71.9707 272.402 72.198 271.317 72.198ZM271.317 70.614C272.329 70.614 273.135 70.2693 273.737 69.58C274.338 68.876 274.639 67.8347 274.639 66.456C274.639 65.092 274.338 64.0653 273.737 63.376C273.135 62.672 272.329 62.32 271.317 62.32C270.305 62.32 269.498 62.672 268.897 63.376C268.295 64.0653 267.995 65.092 267.995 66.456C267.995 67.8347 268.295 68.876 268.897 69.58C269.498 70.2693 270.305 70.614 271.317 70.614ZM33.782 100.752V87.552C33.782 87.1267 33.7673 86.694 33.738 86.254C33.7087 85.814 33.6647 85.374 33.606 84.934H35.542L35.784 87.486H35.542C35.762 86.6353 36.2313 85.968 36.95 85.484C37.6687 84.9853 38.5267 84.736 39.524 84.736C40.5067 84.736 41.3647 84.9633 42.098 85.418C42.8313 85.8727 43.396 86.5327 43.792 87.398C44.2027 88.2487 44.408 89.268 44.408 90.456C44.408 91.644 44.2027 92.6707 43.792 93.536C43.396 94.4013 42.8313 95.0613 42.098 95.516C41.3647 95.9707 40.5067 96.198 39.524 96.198C38.5413 96.198 37.6907 95.956 36.972 95.472C36.268 94.9733 35.7913 94.306 35.542 93.47H35.784V100.752H33.782ZM39.062 94.614C40.074 94.614 40.8807 94.262 41.482 93.558C42.0833 92.854 42.384 91.82 42.384 90.456C42.384 89.092 42.0833 88.0653 41.482 87.376C40.8807 86.6867 40.074 86.342 39.062 86.342C38.05 86.342 37.2433 86.6867 36.642 87.376C36.0553 88.0653 35.762 89.092 35.762 90.456C35.762 91.82 36.0553 92.854 36.642 93.558C37.2433 94.262 38.05 94.614 39.062 94.614ZM52.3766 96.198C50.6166 96.198 49.2233 95.692 48.1966 94.68C47.1846 93.668 46.6786 92.2747 46.6786 90.5C46.6786 89.3267 46.8986 88.3147 47.3386 87.464C47.7933 86.5987 48.4166 85.9313 49.2086 85.462C50.0006 84.978 50.9246 84.736 51.9806 84.736C52.9926 84.736 53.8506 84.956 54.5546 85.396C55.2586 85.8213 55.794 86.43 56.1606 87.222C56.5273 88.014 56.7106 88.9527 56.7106 90.038V90.698H48.2406V89.51H55.3466L54.9726 89.796C54.9726 88.652 54.716 87.7647 54.2026 87.134C53.704 86.5033 52.9633 86.188 51.9806 86.188C50.91 86.188 50.0813 86.562 49.4946 87.31C48.908 88.0433 48.6146 89.048 48.6146 90.324V90.522C48.6146 91.8713 48.9446 92.8907 49.6046 93.58C50.2793 94.2693 51.2106 94.614 52.3986 94.614C53.0586 94.614 53.6746 94.5187 54.2466 94.328C54.8186 94.1373 55.3686 93.822 55.8966 93.382L56.5566 94.768C56.058 95.2227 55.4346 95.5747 54.6866 95.824C53.9533 96.0733 53.1833 96.198 52.3766 96.198ZM63.7873 96.198C62.8193 96.198 61.9686 95.9707 61.2353 95.516C60.5019 95.0613 59.9299 94.4013 59.5193 93.536C59.1086 92.6707 58.9033 91.644 58.9033 90.456C58.9033 89.268 59.1086 88.2487 59.5193 87.398C59.9299 86.5327 60.5019 85.8727 61.2353 85.418C61.9686 84.9633 62.8193 84.736 63.7873 84.736C64.7699 84.736 65.6206 84.9853 66.3393 85.484C67.0726 85.968 67.5566 86.6353 67.7913 87.486H67.5273L67.7693 84.934H69.7053C69.6613 85.374 69.6173 85.814 69.5733 86.254C69.5439 86.694 69.5293 87.1267 69.5293 87.552V96H67.5273V93.47H67.7693C67.5346 94.306 67.0506 94.9733 66.3173 95.472C65.5986 95.956 64.7553 96.198 63.7873 96.198ZM64.2492 94.614C65.2466 94.614 66.0459 94.262 66.6473 93.558C67.2486 92.854 67.5493 91.82 67.5493 90.456C67.5493 89.092 67.2486 88.0653 66.6473 87.376C66.0459 86.6867 65.2466 86.342 64.2492 86.342C63.2519 86.342 62.4453 86.6867 61.8293 87.376C61.2279 88.0653 60.9273 89.092 60.9273 90.456C60.9273 91.82 61.2279 92.854 61.8293 93.558C62.4306 94.262 63.2373 94.614 64.2492 94.614ZM72.5259 96.264L71.8219 94.702C72.3352 94.4673 72.7606 94.1887 73.0979 93.866C73.4499 93.5287 73.7212 93.1033 73.9119 92.59C74.1172 92.0767 74.2639 91.4387 74.3519 90.676C74.4399 89.9133 74.4839 88.9893 74.4839 87.904V84.934H82.6459V96H80.6659V86.496H76.3319V87.948C76.3319 89.6493 76.1999 91.0573 75.9359 92.172C75.6866 93.272 75.2832 94.1447 74.7259 94.79C74.1832 95.4353 73.4499 95.9267 72.5259 96.264ZM86.0734 96V84.934H87.8994V94.108H87.3054L94.1694 84.934H95.8414V96H94.0154V86.804H94.6314L87.7454 96H86.0734ZM103.027 96.198C102.059 96.198 101.157 96.0733 100.321 95.824C99.4848 95.5747 98.7955 95.2227 98.2528 94.768L98.9128 93.382C99.4555 93.822 100.071 94.152 100.761 94.372C101.45 94.592 102.198 94.702 103.005 94.702C104.061 94.702 104.823 94.548 105.293 94.24C105.777 93.9173 106.019 93.4553 106.019 92.854C106.019 92.282 105.821 91.8493 105.425 91.556C105.029 91.2627 104.449 91.116 103.687 91.116H101.003V89.664H103.445C104.134 89.664 104.669 89.5173 105.051 89.224C105.447 88.916 105.645 88.498 105.645 87.97C105.645 87.4273 105.425 87.002 104.985 86.694C104.545 86.3713 103.87 86.21 102.961 86.21C102.198 86.21 101.501 86.3127 100.871 86.518C100.24 86.7087 99.6388 87.002 99.0668 87.398L98.4288 86.1C99.0302 85.6307 99.7342 85.286 100.541 85.066C101.347 84.846 102.227 84.736 103.181 84.736C104.574 84.736 105.637 85.0073 106.371 85.55C107.119 86.078 107.493 86.8333 107.493 87.816C107.493 88.5053 107.258 89.0993 106.789 89.598C106.319 90.082 105.696 90.3753 104.919 90.478V90.192C105.799 90.236 106.51 90.5073 107.053 91.006C107.595 91.49 107.867 92.1353 107.867 92.942C107.867 93.9247 107.456 94.7167 106.635 95.318C105.813 95.9047 104.611 96.198 103.027 96.198ZM114.834 96.198C113.866 96.198 113.015 95.9707 112.282 95.516C111.549 95.0613 110.977 94.4013 110.566 93.536C110.155 92.6707 109.95 91.644 109.95 90.456C109.95 89.268 110.155 88.2487 110.566 87.398C110.977 86.5327 111.549 85.8727 112.282 85.418C113.015 84.9633 113.866 84.736 114.834 84.736C115.817 84.736 116.667 84.9853 117.386 85.484C118.119 85.968 118.603 86.6353 118.838 87.486H118.574L118.816 84.934H120.752C120.708 85.374 120.664 85.814 120.62 86.254C120.591 86.694 120.576 87.1267 120.576 87.552V96H118.574V93.47H118.816C118.581 94.306 118.097 94.9733 117.364 95.472C116.645 95.956 115.802 96.198 114.834 96.198ZM115.296 94.614C116.293 94.614 117.093 94.262 117.694 93.558C118.295 92.854 118.596 91.82 118.596 90.456C118.596 89.092 118.295 88.0653 117.694 87.376C117.093 86.6867 116.293 86.342 115.296 86.342C114.299 86.342 113.492 86.6867 112.876 87.376C112.275 88.0653 111.974 89.092 111.974 90.456C111.974 91.82 112.275 92.854 112.876 93.558C113.477 94.262 114.284 94.614 115.296 94.614ZM133.671 98.86V96H124.101V84.934H126.081V94.438H131.625V84.934H133.605V94.438H135.365V98.86H133.671ZM137.657 96V84.934H139.483V94.108H138.889L145.753 84.934H147.425V96H145.599V86.804H146.215L139.329 96H137.657ZM160.221 96.198C158.71 96.198 157.485 95.7507 156.547 94.856C155.623 93.9467 155.095 92.6927 154.963 91.094H152.807V96H150.849V84.934H152.807V89.51H154.985C155.175 88.014 155.733 86.848 156.657 86.012C157.581 85.1613 158.769 84.736 160.221 84.736C161.306 84.736 162.245 84.9633 163.037 85.418C163.843 85.8727 164.467 86.5327 164.907 87.398C165.347 88.2487 165.567 89.268 165.567 90.456C165.567 91.644 165.347 92.6707 164.907 93.536C164.467 94.3867 163.843 95.0467 163.037 95.516C162.245 95.9707 161.306 96.198 160.221 96.198ZM160.221 94.614C161.233 94.614 162.039 94.2693 162.641 93.58C163.242 92.876 163.543 91.8347 163.543 90.456C163.543 89.092 163.242 88.0653 162.641 87.376C162.039 86.672 161.233 86.32 160.221 86.32C159.209 86.32 158.402 86.672 157.801 87.376C157.199 88.0653 156.899 89.092 156.899 90.456C156.899 91.8347 157.199 92.876 157.801 93.58C158.402 94.2693 159.209 94.614 160.221 94.614ZM174.202 96V84.934H179.658C180.964 84.934 181.932 85.1833 182.562 85.682C183.208 86.1807 183.53 86.8993 183.53 87.838C183.53 88.542 183.288 89.136 182.804 89.62C182.32 90.0893 181.69 90.3753 180.912 90.478V90.192C181.836 90.2213 182.562 90.4927 183.09 91.006C183.633 91.5047 183.904 92.15 183.904 92.942C183.904 93.8807 183.545 94.6287 182.826 95.186C182.122 95.7287 181.132 96 179.856 96H174.202ZM176.094 94.68H179.724C180.472 94.68 181.044 94.526 181.44 94.218C181.836 93.8953 182.034 93.4407 182.034 92.854C182.034 92.2527 181.836 91.798 181.44 91.49C181.044 91.182 180.472 91.028 179.724 91.028H176.094V94.68ZM176.094 89.708H179.482C180.172 89.708 180.707 89.554 181.088 89.246C181.47 88.938 181.66 88.5127 181.66 87.97C181.66 87.4127 181.47 86.9873 181.088 86.694C180.707 86.4007 180.172 86.254 179.482 86.254H176.094V89.708ZM197.13 96.198C196.044 96.198 195.106 95.9707 194.314 95.516C193.522 95.0467 192.906 94.3867 192.466 93.536C192.026 92.6707 191.806 91.644 191.806 90.456C191.806 89.2827 192.026 88.2707 192.466 87.42C192.906 86.5547 193.522 85.8947 194.314 85.44C195.106 84.9707 196.044 84.736 197.13 84.736C198.215 84.736 199.154 84.9707 199.946 85.44C200.752 85.8947 201.368 86.5547 201.794 87.42C202.234 88.2707 202.454 89.2827 202.454 90.456C202.454 91.644 202.234 92.6707 201.794 93.536C201.368 94.3867 200.752 95.0467 199.946 95.516C199.154 95.9707 198.215 96.198 197.13 96.198ZM197.13 94.614C198.127 94.614 198.926 94.262 199.528 93.558C200.129 92.854 200.43 91.82 200.43 90.456C200.43 89.092 200.129 88.0653 199.528 87.376C198.926 86.6867 198.127 86.342 197.13 86.342C196.118 86.342 195.311 86.6867 194.71 87.376C194.123 88.0653 193.83 89.092 193.83 90.456C193.83 91.82 194.123 92.854 194.71 93.558C195.311 94.262 196.118 94.614 197.13 94.614ZM205.312 96V84.934H207.292V89.51H213.144V84.934H215.124V96H213.144V91.094H207.292V96H205.312ZM218.018 96.264L217.314 94.702C217.827 94.4673 218.253 94.1887 218.59 93.866C218.942 93.5287 219.213 93.1033 219.404 92.59C219.609 92.0767 219.756 91.4387 219.844 90.676C219.932 89.9133 219.976 88.9893 219.976 87.904V84.934H228.138V96H226.158V86.496H221.824V87.948C221.824 89.6493 221.692 91.0573 221.428 92.172C221.179 93.272 220.775 94.1447 220.218 94.79C219.675 95.4353 218.942 95.9267 218.018 96.264ZM235.856 96.198C234.888 96.198 234.037 95.9707 233.304 95.516C232.57 95.0613 231.998 94.4013 231.588 93.536C231.177 92.6707 230.972 91.644 230.972 90.456C230.972 89.268 231.177 88.2487 231.588 87.398C231.998 86.5327 232.57 85.8727 233.304 85.418C234.037 84.9633 234.888 84.736 235.856 84.736C236.838 84.736 237.689 84.9853 238.408 85.484C239.141 85.968 239.625 86.6353 239.86 87.486H239.596L239.838 84.934H241.774C241.73 85.374 241.686 85.814 241.642 86.254C241.612 86.694 241.598 87.1267 241.598 87.552V96H239.596V93.47H239.838C239.603 94.306 239.119 94.9733 238.386 95.472C237.667 95.956 236.824 96.198 235.856 96.198ZM236.318 94.614C237.315 94.614 238.114 94.262 238.716 93.558C239.317 92.854 239.618 91.82 239.618 90.456C239.618 89.092 239.317 88.0653 238.716 87.376C238.114 86.6867 237.315 86.342 236.318 86.342C235.32 86.342 234.514 86.6867 233.898 87.376C233.296 88.0653 232.996 89.092 232.996 90.456C232.996 91.82 233.296 92.854 233.898 93.558C234.499 94.262 235.306 94.614 236.318 94.614ZM245.122 96V84.934H246.948V94.108H246.354L253.218 84.934H254.89V96H253.064V86.804H253.68L246.794 96H245.122ZM250.006 83.922C249.376 83.922 248.796 83.812 248.268 83.592C247.74 83.372 247.286 83.0567 246.904 82.646C246.538 82.2207 246.259 81.6927 246.068 81.062L247.212 80.644C247.476 81.348 247.836 81.8687 248.29 82.206C248.745 82.5287 249.317 82.69 250.006 82.69C250.71 82.69 251.29 82.536 251.744 82.228C252.199 81.92 252.595 81.3993 252.932 80.666L254.01 81.062C253.644 82.0593 253.108 82.7853 252.404 83.24C251.715 83.6947 250.916 83.922 250.006 83.922ZM258.314 96V84.934H260.294V89.51H266.146V84.934H268.126V96H266.146V91.094H260.294V96H258.314ZM276.652 96.198C274.892 96.198 273.499 95.692 272.472 94.68C271.46 93.668 270.954 92.2747 270.954 90.5C270.954 89.3267 271.174 88.3147 271.614 87.464C272.069 86.5987 272.692 85.9313 273.484 85.462C274.276 84.978 275.2 84.736 276.256 84.736C277.268 84.736 278.126 84.956 278.83 85.396C279.534 85.8213 280.069 86.43 280.436 87.222C280.803 88.014 280.986 88.9527 280.986 90.038V90.698H272.516V89.51H279.622L279.248 89.796C279.248 88.652 278.991 87.7647 278.478 87.134C277.979 86.5033 277.239 86.188 276.256 86.188C275.185 86.188 274.357 86.562 273.77 87.31C273.183 88.0433 272.89 89.048 272.89 90.324V90.522C272.89 91.8713 273.22 92.8907 273.88 93.58C274.555 94.2693 275.486 94.614 276.674 94.614C277.334 94.614 277.95 94.5187 278.522 94.328C279.094 94.1373 279.644 93.822 280.172 93.382L280.832 94.768C280.333 95.2227 279.71 95.5747 278.962 95.824C278.229 96.0733 277.459 96.198 276.652 96.198Z" fill="#343434"/>
<circle cx="346" cy="22" r="6" fill="#343434" fill-opacity="0.12"/>
<defs>
<linearGradient id="paint0_linear_102_319" x1="184" y1="0" x2="184" y2="128" gradientUnits="userSpaceOnUse">
<stop stop-color="#F0ECD3" stop-opacity="0.64"/>
<stop offset="1" stop-color="#F0ECD3" stop-opacity="0"/>
</linearGradient>
</defs>
</svg>
