<svg width="368" height="152" viewBox="0 0 368 152" fill="none" xmlns="http://www.w3.org/2000/svg">
<rect width="368" height="152" rx="16" fill="url(#paint0_linear_112_124)"/>
<path d="M33.32 40.234C33.32 38.606 33.606 37.198 34.178 36.01C34.75 34.822 35.5713 33.9053 36.642 33.26C37.7273 32.6147 39.018 32.292 40.514 32.292C41.9953 32.292 43.2713 32.6147 44.342 33.26C45.4273 33.9053 46.2633 34.822 46.85 36.01C47.4367 37.198 47.73 38.5987 47.73 40.212C47.73 41.84 47.4367 43.2553 46.85 44.458C46.2633 45.646 45.4273 46.57 44.342 47.23C43.2713 47.8753 41.9953 48.198 40.514 48.198C39.018 48.198 37.7347 47.8753 36.664 47.23C35.5933 46.57 34.7647 45.646 34.178 44.458C33.606 43.2553 33.32 41.8473 33.32 40.234ZM35.476 40.234C35.476 42.17 35.9013 43.6807 36.752 44.766C37.6027 45.8513 38.8567 46.394 40.514 46.394C42.1127 46.394 43.352 45.8587 44.232 44.788C45.1267 43.7027 45.574 42.1847 45.574 40.234C45.574 38.2833 45.134 36.7727 44.254 35.702C43.374 34.6313 42.1273 34.096 40.514 34.096C38.8567 34.096 37.6027 34.6313 36.752 35.702C35.9013 36.7727 35.476 38.2833 35.476 40.234ZM50.7961 48V36.934H60.5421V48H58.5621V38.496H52.7761V48H50.7961ZM64.032 52.752V39.552C64.032 39.1267 64.0173 38.694 63.988 38.254C63.9587 37.814 63.9147 37.374 63.856 36.934H65.792L66.034 39.486H65.792C66.012 38.6353 66.4813 37.968 67.2 37.484C67.9187 36.9853 68.7767 36.736 69.774 36.736C70.7567 36.736 71.6147 36.9633 72.348 37.418C73.0813 37.8727 73.646 38.5327 74.042 39.398C74.4527 40.2487 74.658 41.268 74.658 42.456C74.658 43.644 74.4527 44.6707 74.042 45.536C73.646 46.4013 73.0813 47.0613 72.348 47.516C71.6147 47.9707 70.7567 48.198 69.774 48.198C68.7913 48.198 67.9407 47.956 67.222 47.472C66.518 46.9733 66.0413 46.306 65.792 45.47H66.034V52.752H64.032ZM69.312 46.614C70.324 46.614 71.1307 46.262 71.732 45.558C72.3333 44.854 72.634 43.82 72.634 42.456C72.634 41.092 72.3333 40.0653 71.732 39.376C71.1307 38.6867 70.324 38.342 69.312 38.342C68.3 38.342 67.4933 38.6867 66.892 39.376C66.3053 40.0653 66.012 41.092 66.012 42.456C66.012 43.82 66.3053 44.854 66.892 45.558C67.4933 46.262 68.3 46.614 69.312 46.614ZM82.6266 48.198C80.8666 48.198 79.4733 47.692 78.4466 46.68C77.4346 45.668 76.9286 44.2747 76.9286 42.5C76.9286 41.3267 77.1486 40.3147 77.5886 39.464C78.0433 38.5987 78.6666 37.9313 79.4586 37.462C80.2506 36.978 81.1746 36.736 82.2306 36.736C83.2426 36.736 84.1006 36.956 84.8046 37.396C85.5086 37.8213 86.044 38.43 86.4106 39.222C86.7773 40.014 86.9606 40.9527 86.9606 42.038V42.698H78.4906V41.51H85.5966L85.2226 41.796C85.2226 40.652 84.966 39.7647 84.4526 39.134C83.954 38.5033 83.2133 38.188 82.2306 38.188C81.16 38.188 80.3313 38.562 79.7446 39.31C79.158 40.0433 78.8646 41.048 78.8646 42.324V42.522C78.8646 43.8713 79.1946 44.8907 79.8546 45.58C80.5293 46.2693 81.4606 46.614 82.6486 46.614C83.3086 46.614 83.9246 46.5187 84.4966 46.328C85.0686 46.1373 85.6186 45.822 86.1466 45.382L86.8066 46.768C86.308 47.2227 85.6846 47.5747 84.9366 47.824C84.2033 48.0733 83.4333 48.198 82.6266 48.198ZM88.6033 50.86V46.438H89.8133C90.3119 45.69 90.6713 44.81 90.8913 43.798C91.1259 42.786 91.2433 41.5833 91.2433 40.19V36.934H99.1853V46.438H100.945V50.86H99.2293V48H90.3413V50.86H88.6033ZM91.7053 46.46H97.3153V38.474H93.0033V40.542C93.0033 41.6567 92.8933 42.742 92.6733 43.798C92.4533 44.8393 92.1306 45.7267 91.7053 46.46ZM108.365 48.198C106.605 48.198 105.212 47.692 104.185 46.68C103.173 45.668 102.667 44.2747 102.667 42.5C102.667 41.3267 102.887 40.3147 103.327 39.464C103.782 38.5987 104.405 37.9313 105.197 37.462C105.989 36.978 106.913 36.736 107.969 36.736C108.981 36.736 109.839 36.956 110.543 37.396C111.247 37.8213 111.782 38.43 112.149 39.222C112.516 40.014 112.699 40.9527 112.699 42.038V42.698H104.229V41.51H111.335L110.961 41.796C110.961 40.652 110.704 39.7647 110.191 39.134C109.692 38.5033 108.952 38.188 107.969 38.188C106.898 38.188 106.07 38.562 105.483 39.31C104.896 40.0433 104.603 41.048 104.603 42.324V42.522C104.603 43.8713 104.933 44.8907 105.593 45.58C106.268 46.2693 107.199 46.614 108.387 46.614C109.047 46.614 109.663 46.5187 110.235 46.328C110.807 46.1373 111.357 45.822 111.885 45.382L112.545 46.768C112.046 47.2227 111.423 47.5747 110.675 47.824C109.942 48.0733 109.172 48.198 108.365 48.198ZM114.958 48.264L114.254 46.702C114.767 46.4673 115.192 46.1887 115.53 45.866C115.882 45.5287 116.153 45.1033 116.344 44.59C116.549 44.0767 116.696 43.4387 116.784 42.676C116.872 41.9133 116.916 40.9893 116.916 39.904V36.934H125.078V48H123.098V38.496H118.764V39.948C118.764 41.6493 118.632 43.0573 118.368 44.172C118.118 45.272 117.715 46.1447 117.158 46.79C116.615 47.4353 115.882 47.9267 114.958 48.264ZM128.505 48V36.934H130.331V46.108H129.737L136.601 36.934H138.273V48H136.447V38.804H137.063L130.177 48H128.505ZM141.696 48V36.934H143.588V46.438H148.098V36.934H149.99V46.438H154.478V36.934H156.392V48H141.696ZM159.829 48V36.934H161.809V40.85H165.065C166.503 40.85 167.581 41.158 168.299 41.774C169.033 42.3753 169.399 43.248 169.399 44.392C169.399 45.1253 169.231 45.7633 168.893 46.306C168.556 46.8487 168.065 47.2667 167.419 47.56C166.774 47.8533 165.989 48 165.065 48H159.829ZM161.809 46.614H164.845C165.711 46.614 166.371 46.438 166.825 46.086C167.28 45.7193 167.507 45.162 167.507 44.414C167.507 43.666 167.28 43.116 166.825 42.764C166.385 42.412 165.725 42.236 164.845 42.236H161.809V46.614ZM172.606 50.618L171.704 49.914C172.115 49.4887 172.393 49.0853 172.54 48.704C172.687 48.3373 172.76 47.956 172.76 47.56L173.2 48H171.594V45.558H174.036V47.252C174.036 47.8827 173.933 48.462 173.728 48.99C173.523 49.5327 173.149 50.0753 172.606 50.618ZM182.904 48V36.934H184.884V41.51H186.886L190.45 36.934H192.628L188.492 42.324L187.964 41.708C188.389 41.752 188.756 41.862 189.064 42.038C189.372 42.1993 189.665 42.4413 189.944 42.764C190.237 43.0867 190.552 43.5193 190.89 44.062L193.178 48H191.022L189.02 44.59C188.8 44.194 188.58 43.886 188.36 43.666C188.14 43.446 187.89 43.292 187.612 43.204C187.348 43.116 187.01 43.072 186.6 43.072H184.884V48H182.904ZM199.182 48.198C198.214 48.198 197.363 47.9707 196.63 47.516C195.896 47.0613 195.324 46.4013 194.914 45.536C194.503 44.6707 194.298 43.644 194.298 42.456C194.298 41.268 194.503 40.2487 194.914 39.398C195.324 38.5327 195.896 37.8727 196.63 37.418C197.363 36.9633 198.214 36.736 199.182 36.736C200.164 36.736 201.015 36.9853 201.734 37.484C202.467 37.968 202.951 38.6353 203.186 39.486H202.922L203.164 36.934H205.1C205.056 37.374 205.012 37.814 204.968 38.254C204.938 38.694 204.924 39.1267 204.924 39.552V48H202.922V45.47H203.164C202.929 46.306 202.445 46.9733 201.712 47.472C200.993 47.956 200.15 48.198 199.182 48.198ZM199.644 46.614C200.641 46.614 201.44 46.262 202.042 45.558C202.643 44.854 202.944 43.82 202.944 42.456C202.944 41.092 202.643 40.0653 202.042 39.376C201.44 38.6867 200.641 38.342 199.644 38.342C198.646 38.342 197.84 38.6867 197.224 39.376C196.622 40.0653 196.322 41.092 196.322 42.456C196.322 43.82 196.622 44.854 197.224 45.558C197.825 46.262 198.632 46.614 199.644 46.614ZM208.448 48V36.934H210.428V41.51H212.43L215.994 36.934H218.172L214.036 42.324L213.508 41.708C213.934 41.752 214.3 41.862 214.608 42.038C214.916 42.1993 215.21 42.4413 215.488 42.764C215.782 43.0867 216.097 43.5193 216.434 44.062L218.722 48H216.566L214.564 44.59C214.344 44.194 214.124 43.886 213.904 43.666C213.684 43.446 213.435 43.292 213.156 43.204C212.892 43.116 212.555 43.072 212.144 43.072H210.428V48H208.448ZM224.727 48.198C223.759 48.198 222.908 47.9707 222.175 47.516C221.441 47.0613 220.869 46.4013 220.459 45.536C220.048 44.6707 219.843 43.644 219.843 42.456C219.843 41.268 220.048 40.2487 220.459 39.398C220.869 38.5327 221.441 37.8727 222.175 37.418C222.908 36.9633 223.759 36.736 224.727 36.736C225.709 36.736 226.56 36.9853 227.279 37.484C228.012 37.968 228.496 38.6353 228.731 39.486H228.467L228.709 36.934H230.645C230.601 37.374 230.557 37.814 230.513 38.254C230.483 38.694 230.469 39.1267 230.469 39.552V48H228.467V45.47H228.709C228.474 46.306 227.99 46.9733 227.257 47.472C226.538 47.956 225.695 48.198 224.727 48.198ZM225.189 46.614C226.186 46.614 226.985 46.262 227.587 45.558C228.188 44.854 228.489 43.82 228.489 42.456C228.489 41.092 228.188 40.0653 227.587 39.376C226.985 38.6867 226.186 38.342 225.189 38.342C224.191 38.342 223.385 38.6867 222.769 39.376C222.167 40.0653 221.867 41.092 221.867 42.456C221.867 43.82 222.167 44.854 222.769 45.558C223.37 46.262 224.177 46.614 225.189 46.614ZM233.113 48L234.851 44.986C235.13 44.502 235.482 44.1133 235.907 43.82C236.333 43.512 236.78 43.358 237.249 43.358H237.601L237.579 43.556C236.333 43.556 235.357 43.2773 234.653 42.72C233.949 42.148 233.597 41.3267 233.597 40.256C233.597 39.2 233.942 38.386 234.631 37.814C235.321 37.2273 236.347 36.934 237.711 36.934H242.749V48H240.901V43.82H239.317C238.745 43.82 238.254 43.9667 237.843 44.26C237.433 44.5387 237.095 44.9127 236.831 45.382L235.335 48H233.113ZM238.063 42.434H240.901V38.298H238.063C237.198 38.298 236.553 38.4813 236.127 38.848C235.717 39.2147 235.511 39.7207 235.511 40.366C235.511 41.026 235.717 41.5393 236.127 41.906C236.553 42.258 237.198 42.434 238.063 42.434ZM33.716 72V60.934H39.172C40.4773 60.934 41.4453 61.1833 42.076 61.682C42.7213 62.1807 43.044 62.8993 43.044 63.838C43.044 64.542 42.802 65.136 42.318 65.62C41.834 66.0893 41.2033 66.3753 40.426 66.478V66.192C41.35 66.2213 42.076 66.4927 42.604 67.006C43.1467 67.5047 43.418 68.15 43.418 68.942C43.418 69.8807 43.0587 70.6287 42.34 71.186C41.636 71.7287 40.646 72 39.37 72H33.716ZM35.608 70.68H39.238C39.986 70.68 40.558 70.526 40.954 70.218C41.35 69.8953 41.548 69.4407 41.548 68.854C41.548 68.2527 41.35 67.798 40.954 67.49C40.558 67.182 39.986 67.028 39.238 67.028H35.608V70.68ZM35.608 65.708H38.996C39.6853 65.708 40.2207 65.554 40.602 65.246C40.9833 64.938 41.174 64.5127 41.174 63.97C41.174 63.4127 40.9833 62.9873 40.602 62.694C40.2207 62.4007 39.6853 62.254 38.996 62.254H35.608V65.708ZM50.8425 72.198C49.7572 72.198 48.8185 71.9707 48.0265 71.516C47.2345 71.0467 46.6185 70.3867 46.1785 69.536C45.7385 68.6707 45.5185 67.644 45.5185 66.456C45.5185 65.2827 45.7385 64.2707 46.1785 63.42C46.6185 62.5547 47.2345 61.8947 48.0265 61.44C48.8185 60.9707 49.7572 60.736 50.8425 60.736C51.9278 60.736 52.8665 60.9707 53.6585 61.44C54.4652 61.8947 55.0812 62.5547 55.5065 63.42C55.9465 64.2707 56.1665 65.2827 56.1665 66.456C56.1665 67.644 55.9465 68.6707 55.5065 69.536C55.0812 70.3867 54.4652 71.0467 53.6585 71.516C52.8665 71.9707 51.9278 72.198 50.8425 72.198ZM50.8425 70.614C51.8398 70.614 52.6392 70.262 53.2405 69.558C53.8418 68.854 54.1425 67.82 54.1425 66.456C54.1425 65.092 53.8418 64.0653 53.2405 63.376C52.6392 62.6867 51.8398 62.342 50.8425 62.342C49.8305 62.342 49.0238 62.6867 48.4225 63.376C47.8358 64.0653 47.5425 65.092 47.5425 66.456C47.5425 67.82 47.8358 68.854 48.4225 69.558C49.0238 70.262 49.8305 70.614 50.8425 70.614ZM62.7866 72.198C61.8186 72.198 60.9166 72.0733 60.0806 71.824C59.2446 71.5747 58.5553 71.2227 58.0126 70.768L58.6726 69.382C59.2153 69.822 59.8313 70.152 60.5206 70.372C61.2099 70.592 61.9579 70.702 62.7646 70.702C63.8206 70.702 64.5833 70.548 65.0526 70.24C65.5366 69.9173 65.7786 69.4553 65.7786 68.854C65.7786 68.282 65.5806 67.8493 65.1846 67.556C64.7886 67.2627 64.2093 67.116 63.4466 67.116H60.7626V65.664H63.2046C63.8939 65.664 64.4293 65.5173 64.8106 65.224C65.2066 64.916 65.4046 64.498 65.4046 63.97C65.4046 63.4273 65.1846 63.002 64.7446 62.694C64.3046 62.3713 63.6299 62.21 62.7206 62.21C61.9579 62.21 61.2613 62.3127 60.6306 62.518C59.9999 62.7087 59.3986 63.002 58.8266 63.398L58.1886 62.1C58.7899 61.6307 59.4939 61.286 60.3006 61.066C61.1073 60.846 61.9873 60.736 62.9406 60.736C64.3339 60.736 65.3973 61.0073 66.1306 61.55C66.8786 62.078 67.2526 62.8333 67.2526 63.816C67.2526 64.5053 67.0179 65.0993 66.5486 65.598C66.0793 66.082 65.4559 66.3753 64.6786 66.478V66.192C65.5586 66.236 66.2699 66.5073 66.8126 67.006C67.3553 67.49 67.6266 68.1353 67.6266 68.942C67.6266 69.9247 67.2159 70.7167 66.3946 71.318C65.5733 71.9047 64.3706 72.198 62.7866 72.198ZM70.3039 72V60.934H71.9759L76.0459 68.172L80.1379 60.934H81.7879V72H80.0279V63.178H80.5119L76.5519 70.218H75.5619L71.6019 63.156H72.0639V72H70.3039ZM89.944 72.198C88.8587 72.198 87.92 71.9707 87.128 71.516C86.336 71.0467 85.72 70.3867 85.28 69.536C84.84 68.6707 84.62 67.644 84.62 66.456C84.62 65.2827 84.84 64.2707 85.28 63.42C85.72 62.5547 86.336 61.8947 87.128 61.44C87.92 60.9707 88.8587 60.736 89.944 60.736C91.0294 60.736 91.968 60.9707 92.76 61.44C93.5667 61.8947 94.1827 62.5547 94.608 63.42C95.048 64.2707 95.268 65.2827 95.268 66.456C95.268 67.644 95.048 68.6707 94.608 69.536C94.1827 70.3867 93.5667 71.0467 92.76 71.516C91.968 71.9707 91.0294 72.198 89.944 72.198ZM89.944 70.614C90.9414 70.614 91.7407 70.262 92.342 69.558C92.9434 68.854 93.244 67.82 93.244 66.456C93.244 65.092 92.9434 64.0653 92.342 63.376C91.7407 62.6867 90.9414 62.342 89.944 62.342C88.932 62.342 88.1254 62.6867 87.524 63.376C86.9374 64.0653 86.644 65.092 86.644 66.456C86.644 67.82 86.9374 68.854 87.524 69.558C88.1254 70.262 88.932 70.614 89.944 70.614ZM96.4102 72L98.6982 68.062C99.0355 67.5193 99.3435 67.0867 99.6222 66.764C99.9008 66.4413 100.194 66.1993 100.502 66.038C100.825 65.862 101.199 65.752 101.624 65.708L101.14 66.324L96.9382 60.934H99.1382L102.724 65.51H104.418V60.934H106.398V65.51H108.07L111.634 60.934H113.856L109.654 66.324L109.148 65.708C109.573 65.752 109.94 65.862 110.248 66.038C110.571 66.1993 110.879 66.4413 111.172 66.764C111.465 67.0867 111.773 67.5193 112.096 68.062L114.384 72H112.25L110.248 68.59C110.013 68.194 109.786 67.886 109.566 67.666C109.346 67.446 109.097 67.292 108.818 67.204C108.554 67.116 108.217 67.072 107.806 67.072H106.398V72H104.418V67.072H102.988C102.577 67.072 102.233 67.116 101.954 67.204C101.69 67.292 101.448 67.446 101.228 67.666C101.023 67.886 100.795 68.194 100.546 68.59L98.5662 72H96.4102ZM116.109 72V60.934H118.089V65.51H123.941V60.934H125.921V72H123.941V67.094H118.089V72H116.109ZM134.073 72.198C132.988 72.198 132.049 71.9707 131.257 71.516C130.465 71.0467 129.849 70.3867 129.409 69.536C128.969 68.6707 128.749 67.644 128.749 66.456C128.749 65.2827 128.969 64.2707 129.409 63.42C129.849 62.5547 130.465 61.8947 131.257 61.44C132.049 60.9707 132.988 60.736 134.073 60.736C135.158 60.736 136.097 60.9707 136.889 61.44C137.696 61.8947 138.312 62.5547 138.737 63.42C139.177 64.2707 139.397 65.2827 139.397 66.456C139.397 67.644 139.177 68.6707 138.737 69.536C138.312 70.3867 137.696 71.0467 136.889 71.516C136.097 71.9707 135.158 72.198 134.073 72.198ZM134.073 70.614C135.07 70.614 135.87 70.262 136.471 69.558C137.072 68.854 137.373 67.82 137.373 66.456C137.373 65.092 137.072 64.0653 136.471 63.376C135.87 62.6867 135.07 62.342 134.073 62.342C133.061 62.342 132.254 62.6867 131.653 63.376C131.066 64.0653 130.773 65.092 130.773 66.456C130.773 67.82 131.066 68.854 131.653 69.558C132.254 70.262 133.061 70.614 134.073 70.614ZM147.073 72.198C145.973 72.198 145.02 71.9707 144.213 71.516C143.406 71.0467 142.776 70.3793 142.321 69.514C141.881 68.634 141.661 67.5927 141.661 66.39C141.661 65.202 141.888 64.19 142.343 63.354C142.798 62.5033 143.428 61.858 144.235 61.418C145.042 60.9633 145.988 60.736 147.073 60.736C147.792 60.736 148.488 60.8607 149.163 61.11C149.838 61.3447 150.388 61.6893 150.813 62.144L150.131 63.552C149.706 63.1413 149.236 62.8407 148.723 62.65C148.21 62.4447 147.704 62.342 147.205 62.342C146.12 62.342 145.269 62.694 144.653 63.398C144.037 64.0873 143.729 65.092 143.729 66.412C143.729 67.7467 144.037 68.7733 144.653 69.492C145.269 70.2107 146.12 70.57 147.205 70.57C147.689 70.57 148.188 70.4747 148.701 70.284C149.214 70.0933 149.691 69.7927 150.131 69.382L150.813 70.768C150.373 71.2373 149.808 71.5967 149.119 71.846C148.444 72.0807 147.762 72.198 147.073 72.198ZM155.803 72V62.54H151.821V60.934H161.765V62.54H157.783V72H155.803ZM163.589 72V60.934H165.569V64.85H168.825C170.262 64.85 171.34 65.158 172.059 65.774C172.792 66.3753 173.159 67.248 173.159 68.392C173.159 69.1253 172.99 69.7633 172.653 70.306C172.316 70.8487 171.824 71.2667 171.179 71.56C170.534 71.8533 169.749 72 168.825 72H163.589ZM165.569 70.614H168.605C169.47 70.614 170.13 70.438 170.585 70.086C171.04 69.7193 171.267 69.162 171.267 68.414C171.267 67.666 171.04 67.116 170.585 66.764C170.145 66.412 169.485 66.236 168.605 66.236H165.569V70.614ZM185.291 72.198C184.323 72.198 183.421 72.0733 182.585 71.824C181.749 71.5747 181.059 71.2227 180.517 70.768L181.177 69.382C181.719 69.822 182.335 70.152 183.025 70.372C183.714 70.592 184.462 70.702 185.269 70.702C186.325 70.702 187.087 70.548 187.557 70.24C188.041 69.9173 188.283 69.4553 188.283 68.854C188.283 68.282 188.085 67.8493 187.689 67.556C187.293 67.2627 186.713 67.116 185.951 67.116H183.267V65.664H185.709C186.398 65.664 186.933 65.5173 187.315 65.224C187.711 64.916 187.909 64.498 187.909 63.97C187.909 63.4273 187.689 63.002 187.249 62.694C186.809 62.3713 186.134 62.21 185.225 62.21C184.462 62.21 183.765 62.3127 183.135 62.518C182.504 62.7087 181.903 63.002 181.331 63.398L180.693 62.1C181.294 61.6307 181.998 61.286 182.805 61.066C183.611 60.846 184.491 60.736 185.445 60.736C186.838 60.736 187.901 61.0073 188.635 61.55C189.383 62.078 189.757 62.8333 189.757 63.816C189.757 64.5053 189.522 65.0993 189.053 65.598C188.583 66.082 187.96 66.3753 187.183 66.478V66.192C188.063 66.236 188.774 66.5073 189.317 67.006C189.859 67.49 190.131 68.1353 190.131 68.942C190.131 69.9247 189.72 70.7167 188.899 71.318C188.077 71.9047 186.875 72.198 185.291 72.198ZM197.098 72.198C196.13 72.198 195.279 71.9707 194.546 71.516C193.812 71.0613 193.24 70.4013 192.83 69.536C192.419 68.6707 192.214 67.644 192.214 66.456C192.214 65.268 192.419 64.2487 192.83 63.398C193.24 62.5327 193.812 61.8727 194.546 61.418C195.279 60.9633 196.13 60.736 197.098 60.736C198.08 60.736 198.931 60.9853 199.65 61.484C200.383 61.968 200.867 62.6353 201.102 63.486H200.838L201.08 60.934H203.016C202.972 61.374 202.928 61.814 202.884 62.254C202.854 62.694 202.84 63.1267 202.84 63.552V72H200.838V69.47H201.08C200.845 70.306 200.361 70.9733 199.628 71.472C198.909 71.956 198.066 72.198 197.098 72.198ZM197.56 70.614C198.557 70.614 199.356 70.262 199.958 69.558C200.559 68.854 200.86 67.82 200.86 66.456C200.86 65.092 200.559 64.0653 199.958 63.376C199.356 62.6867 198.557 62.342 197.56 62.342C196.562 62.342 195.756 62.6867 195.14 63.376C194.538 64.0653 194.238 65.092 194.238 66.456C194.238 67.82 194.538 68.854 195.14 69.558C195.741 70.262 196.548 70.614 197.56 70.614ZM206.43 76.752V63.552C206.43 63.1267 206.416 62.694 206.386 62.254C206.357 61.814 206.313 61.374 206.254 60.934H208.19L208.432 63.486H208.19C208.41 62.6353 208.88 61.968 209.598 61.484C210.317 60.9853 211.175 60.736 212.172 60.736C213.155 60.736 214.013 60.9633 214.746 61.418C215.48 61.8727 216.044 62.5327 216.44 63.398C216.851 64.2487 217.056 65.268 217.056 66.456C217.056 67.644 216.851 68.6707 216.44 69.536C216.044 70.4013 215.48 71.0613 214.746 71.516C214.013 71.9707 213.155 72.198 212.172 72.198C211.19 72.198 210.339 71.956 209.62 71.472C208.916 70.9733 208.44 70.306 208.19 69.47H208.432V76.752H206.43ZM211.71 70.614C212.722 70.614 213.529 70.262 214.13 69.558C214.732 68.854 215.032 67.82 215.032 66.456C215.032 65.092 214.732 64.0653 214.13 63.376C213.529 62.6867 212.722 62.342 211.71 62.342C210.698 62.342 209.892 62.6867 209.29 63.376C208.704 64.0653 208.41 65.092 208.41 66.456C208.41 67.82 208.704 68.854 209.29 69.558C209.892 70.262 210.698 70.614 211.71 70.614ZM224.211 72.198C223.243 72.198 222.392 71.9707 221.659 71.516C220.926 71.0613 220.354 70.4013 219.943 69.536C219.532 68.6707 219.327 67.644 219.327 66.456C219.327 65.268 219.532 64.2487 219.943 63.398C220.354 62.5327 220.926 61.8727 221.659 61.418C222.392 60.9633 223.243 60.736 224.211 60.736C225.194 60.736 226.044 60.9853 226.763 61.484C227.496 61.968 227.98 62.6353 228.215 63.486H227.951L228.193 60.934H230.129C230.085 61.374 230.041 61.814 229.997 62.254C229.968 62.694 229.953 63.1267 229.953 63.552V72H227.951V69.47H228.193C227.958 70.306 227.474 70.9733 226.741 71.472C226.022 71.956 225.179 72.198 224.211 72.198ZM224.673 70.614C225.67 70.614 226.47 70.262 227.071 69.558C227.672 68.854 227.973 67.82 227.973 66.456C227.973 65.092 227.672 64.0653 227.071 63.376C226.47 62.6867 225.67 62.342 224.673 62.342C223.676 62.342 222.869 62.6867 222.253 63.376C221.652 64.0653 221.351 65.092 221.351 66.456C221.351 67.82 221.652 68.854 222.253 69.558C222.854 70.262 223.661 70.614 224.673 70.614ZM238.296 72.198C236.638 72.198 235.326 71.6773 234.358 70.636C233.39 69.5947 232.906 68.0693 232.906 66.06V64.146C232.906 62.0927 233.338 60.4353 234.204 59.174C235.069 57.9127 236.411 57.062 238.23 56.622L242.278 55.61L242.872 57.238L238.384 58.316C237.577 58.5067 236.91 58.8513 236.382 59.35C235.854 59.8487 235.458 60.4353 235.194 61.11C234.944 61.7847 234.82 62.5033 234.82 63.266V64.212H234.512C234.688 63.552 234.966 62.98 235.348 62.496C235.744 62.012 236.235 61.6453 236.822 61.396C237.408 61.132 238.054 61 238.758 61C239.711 61 240.547 61.22 241.266 61.66C241.984 62.1 242.542 62.738 242.938 63.574C243.348 64.3953 243.554 65.378 243.554 66.522C243.554 67.6953 243.334 68.7073 242.894 69.558C242.468 70.4087 241.86 71.0613 241.068 71.516C240.276 71.9707 239.352 72.198 238.296 72.198ZM238.23 70.614C239.256 70.614 240.063 70.2767 240.65 69.602C241.251 68.9273 241.552 67.9227 241.552 66.588C241.552 65.2827 241.251 64.2853 240.65 63.596C240.063 62.9067 239.256 62.562 238.23 62.562C237.203 62.562 236.389 62.8993 235.788 63.574C235.201 64.2487 234.908 65.2093 234.908 66.456C234.908 67.8493 235.201 68.8907 235.788 69.58C236.389 70.2693 237.203 70.614 238.23 70.614ZM251.12 72.198C250.034 72.198 249.096 71.9707 248.304 71.516C247.512 71.0467 246.896 70.3867 246.456 69.536C246.016 68.6707 245.796 67.644 245.796 66.456C245.796 65.2827 246.016 64.2707 246.456 63.42C246.896 62.5547 247.512 61.8947 248.304 61.44C249.096 60.9707 250.034 60.736 251.12 60.736C252.205 60.736 253.144 60.9707 253.936 61.44C254.742 61.8947 255.358 62.5547 255.784 63.42C256.224 64.2707 256.444 65.2827 256.444 66.456C256.444 67.644 256.224 68.6707 255.784 69.536C255.358 70.3867 254.742 71.0467 253.936 71.516C253.144 71.9707 252.205 72.198 251.12 72.198ZM251.12 70.614C252.117 70.614 252.916 70.262 253.518 69.558C254.119 68.854 254.42 67.82 254.42 66.456C254.42 65.092 254.119 64.0653 253.518 63.376C252.916 62.6867 252.117 62.342 251.12 62.342C250.108 62.342 249.301 62.6867 248.7 63.376C248.113 64.0653 247.82 65.092 247.82 66.456C247.82 67.82 248.113 68.854 248.7 69.558C249.301 70.262 250.108 70.614 251.12 70.614ZM261.678 72V62.54H257.696V60.934H267.64V62.54H263.658V72H261.678ZM269.464 72V60.934H271.444V65.51H273.446L277.01 60.934H279.188L275.052 66.324L274.524 65.708C274.949 65.752 275.316 65.862 275.624 66.038C275.932 66.1993 276.225 66.4413 276.504 66.764C276.797 67.0867 277.113 67.5193 277.45 68.062L279.738 72H277.582L275.58 68.59C275.36 68.194 275.14 67.886 274.92 67.666C274.7 67.446 274.451 67.292 274.172 67.204C273.908 67.116 273.571 67.072 273.16 67.072H271.444V72H269.464ZM285.742 72.198C284.774 72.198 283.924 71.9707 283.19 71.516C282.457 71.0613 281.885 70.4013 281.474 69.536C281.064 68.6707 280.858 67.644 280.858 66.456C280.858 65.268 281.064 64.2487 281.474 63.398C281.885 62.5327 282.457 61.8727 283.19 61.418C283.924 60.9633 284.774 60.736 285.742 60.736C286.725 60.736 287.576 60.9853 288.294 61.484C289.028 61.968 289.512 62.6353 289.746 63.486H289.482L289.724 60.934H291.66C291.616 61.374 291.572 61.814 291.528 62.254C291.499 62.694 291.484 63.1267 291.484 63.552V72H289.482V69.47H289.724C289.49 70.306 289.006 70.9733 288.272 71.472C287.554 71.956 286.71 72.198 285.742 72.198ZM286.204 70.614C287.202 70.614 288.001 70.262 288.602 69.558C289.204 68.854 289.504 67.82 289.504 66.456C289.504 65.092 289.204 64.0653 288.602 63.376C288.001 62.6867 287.202 62.342 286.204 62.342C285.207 62.342 284.4 62.6867 283.784 63.376C283.183 64.0653 282.882 65.092 282.882 66.456C282.882 67.82 283.183 68.854 283.784 69.558C284.386 70.262 285.192 70.614 286.204 70.614ZM33.716 96V84.934H43.462V96H41.482V86.496H35.696V96H33.716ZM51.6159 96.198C50.5306 96.198 49.5919 95.9707 48.7999 95.516C48.0079 95.0467 47.3919 94.3867 46.9519 93.536C46.5119 92.6707 46.2919 91.644 46.2919 90.456C46.2919 89.2827 46.5119 88.2707 46.9519 87.42C47.3919 86.5547 48.0079 85.8947 48.7999 85.44C49.5919 84.9707 50.5306 84.736 51.6159 84.736C52.7013 84.736 53.6399 84.9707 54.4319 85.44C55.2386 85.8947 55.8546 86.5547 56.2799 87.42C56.7199 88.2707 56.9399 89.2827 56.9399 90.456C56.9399 91.644 56.7199 92.6707 56.2799 93.536C55.8546 94.3867 55.2386 95.0467 54.4319 95.516C53.6399 95.9707 52.7013 96.198 51.6159 96.198ZM51.6159 94.614C52.6133 94.614 53.4126 94.262 54.0139 93.558C54.6153 92.854 54.9159 91.82 54.9159 90.456C54.9159 89.092 54.6153 88.0653 54.0139 87.376C53.4126 86.6867 52.6133 86.342 51.6159 86.342C50.6039 86.342 49.7973 86.6867 49.1959 87.376C48.6093 88.0653 48.3159 89.092 48.3159 90.456C48.3159 91.82 48.6093 92.854 49.1959 93.558C49.7973 94.262 50.6039 94.614 51.6159 94.614ZM58.654 98.86V94.438H59.864C60.3627 93.69 60.722 92.81 60.942 91.798C61.1767 90.786 61.294 89.5833 61.294 88.19V84.934H69.236V94.438H70.996V98.86H69.28V96H60.392V98.86H58.654ZM61.756 94.46H67.366V86.474H63.054V88.542C63.054 89.6567 62.944 90.742 62.724 91.798C62.504 92.8393 62.1814 93.7267 61.756 94.46ZM71.8377 96L76.8537 89.796V90.786L72.1237 84.934H74.5217L77.9757 89.356H77.2497L80.7037 84.934H83.0797L78.4157 90.742V89.84L83.3657 96H80.9457L77.2497 91.27H77.9757L74.2357 96H71.8377ZM89.9011 96.198C88.8157 96.198 87.8771 95.9707 87.0851 95.516C86.2931 95.0467 85.6771 94.3867 85.2371 93.536C84.7971 92.6707 84.5771 91.644 84.5771 90.456C84.5771 89.2827 84.7971 88.2707 85.2371 87.42C85.6771 86.5547 86.2931 85.8947 87.0851 85.44C87.8771 84.9707 88.8157 84.736 89.9011 84.736C90.9864 84.736 91.9251 84.9707 92.7171 85.44C93.5237 85.8947 94.1397 86.5547 94.5651 87.42C95.0051 88.2707 95.2251 89.2827 95.2251 90.456C95.2251 91.644 95.0051 92.6707 94.5651 93.536C94.1397 94.3867 93.5237 95.0467 92.7171 95.516C91.9251 95.9707 90.9864 96.198 89.9011 96.198ZM89.9011 94.614C90.8984 94.614 91.6977 94.262 92.2991 93.558C92.9004 92.854 93.2011 91.82 93.2011 90.456C93.2011 89.092 92.9004 88.0653 92.2991 87.376C91.6977 86.6867 90.8984 86.342 89.9011 86.342C88.8891 86.342 88.0824 86.6867 87.4811 87.376C86.8944 88.0653 86.6011 89.092 86.6011 90.456C86.6011 91.82 86.8944 92.854 87.4811 93.558C88.0824 94.262 88.8891 94.614 89.9011 94.614ZM96.9392 98.86V94.438H98.1492C98.6479 93.69 99.0072 92.81 99.2272 91.798C99.4619 90.786 99.5792 89.5833 99.5792 88.19V84.934H107.521V94.438H109.281V98.86H107.565V96H98.6772V98.86H96.9392ZM100.041 94.46H105.651V86.474H101.339V88.542C101.339 89.6567 101.229 90.742 101.009 91.798C100.789 92.8393 100.467 93.7267 100.041 94.46ZM111.597 96V84.934H113.423V94.108H112.829L119.693 84.934H121.365V96H119.539V86.804H120.155L113.269 96H111.597ZM127.164 96V86.54H123.182V84.934H133.126V86.54H129.144V96H127.164ZM140.751 96V84.934H142.577V94.108H141.983L148.847 84.934H150.519V96H148.693V86.804H149.309L142.423 96H140.751ZM153.943 96V84.934H155.615L159.685 92.172L163.777 84.934H165.427V96H163.667V87.178H164.151L160.191 94.218H159.201L155.241 87.156H155.703V96H153.943ZM173.957 96.198C172.197 96.198 170.803 95.692 169.777 94.68C168.765 93.668 168.259 92.2747 168.259 90.5C168.259 89.3267 168.479 88.3147 168.919 87.464C169.373 86.5987 169.997 85.9313 170.789 85.462C171.581 84.978 172.505 84.736 173.561 84.736C174.573 84.736 175.431 84.956 176.135 85.396C176.839 85.8213 177.374 86.43 177.741 87.222C178.107 88.014 178.291 88.9527 178.291 90.038V90.698H169.821V89.51H176.927L176.553 89.796C176.553 88.652 176.296 87.7647 175.783 87.134C175.284 86.5033 174.543 86.188 173.561 86.188C172.49 86.188 171.661 86.562 171.075 87.31C170.488 88.0433 170.195 89.048 170.195 90.324V90.522C170.195 91.8713 170.525 92.8907 171.185 93.58C171.859 94.2693 172.791 94.614 173.979 94.614C174.639 94.614 175.255 94.5187 175.827 94.328C176.399 94.1373 176.949 93.822 177.477 93.382L178.137 94.768C177.638 95.2227 177.015 95.5747 176.267 95.824C175.533 96.0733 174.763 96.198 173.957 96.198ZM181.077 96V84.934H183.057V89.51H188.909V84.934H190.889V96H188.909V91.094H183.057V96H181.077ZM194.312 96V84.934H196.292V89.51H202.144V84.934H204.124V96H202.144V91.094H196.292V96H194.312ZM212.276 96.198C211.191 96.198 210.252 95.9707 209.46 95.516C208.668 95.0467 208.052 94.3867 207.612 93.536C207.172 92.6707 206.952 91.644 206.952 90.456C206.952 89.2827 207.172 88.2707 207.612 87.42C208.052 86.5547 208.668 85.8947 209.46 85.44C210.252 84.9707 211.191 84.736 212.276 84.736C213.361 84.736 214.3 84.9707 215.092 85.44C215.899 85.8947 216.515 86.5547 216.94 87.42C217.38 88.2707 217.6 89.2827 217.6 90.456C217.6 91.644 217.38 92.6707 216.94 93.536C216.515 94.3867 215.899 95.0467 215.092 95.516C214.3 95.9707 213.361 96.198 212.276 96.198ZM212.276 94.614C213.273 94.614 214.073 94.262 214.674 93.558C215.275 92.854 215.576 91.82 215.576 90.456C215.576 89.092 215.275 88.0653 214.674 87.376C214.073 86.6867 213.273 86.342 212.276 86.342C211.264 86.342 210.457 86.6867 209.856 87.376C209.269 88.0653 208.976 89.092 208.976 90.456C208.976 91.82 209.269 92.854 209.856 93.558C210.457 94.262 211.264 94.614 212.276 94.614ZM228.635 96V86.54H224.653V84.934H234.597V86.54H230.615V96H228.635ZM241.461 96.198C239.701 96.198 238.307 95.692 237.281 94.68C236.269 93.668 235.763 92.2747 235.763 90.5C235.763 89.3267 235.983 88.3147 236.423 87.464C236.877 86.5987 237.501 85.9313 238.293 85.462C239.085 84.978 240.009 84.736 241.065 84.736C242.077 84.736 242.935 84.956 243.639 85.396C244.343 85.8213 244.878 86.43 245.245 87.222C245.611 88.014 245.795 88.9527 245.795 90.038V90.698H237.325V89.51H244.431L244.057 89.796C244.057 88.652 243.8 87.7647 243.287 87.134C242.788 86.5033 242.047 86.188 241.065 86.188C239.994 86.188 239.165 86.562 238.579 87.31C237.992 88.0433 237.699 89.048 237.699 90.324V90.522C237.699 91.8713 238.029 92.8907 238.689 93.58C239.363 94.2693 240.295 94.614 241.483 94.614C242.143 94.614 242.759 94.5187 243.331 94.328C243.903 94.1373 244.453 93.822 244.981 93.382L245.641 94.768C245.142 95.2227 244.519 95.5747 243.771 95.824C243.037 96.0733 242.267 96.198 241.461 96.198ZM253.399 96.198C251.742 96.198 250.429 95.6773 249.461 94.636C248.493 93.5947 248.009 92.0693 248.009 90.06V88.146C248.009 86.0927 248.442 84.4353 249.307 83.174C250.173 81.9127 251.515 81.062 253.333 80.622L257.381 79.61L257.975 81.238L253.487 82.316C252.681 82.5067 252.013 82.8513 251.485 83.35C250.957 83.8487 250.561 84.4353 250.297 85.11C250.048 85.7847 249.923 86.5033 249.923 87.266V88.212H249.615C249.791 87.552 250.07 86.98 250.451 86.496C250.847 86.012 251.339 85.6453 251.925 85.396C252.512 85.132 253.157 85 253.861 85C254.815 85 255.651 85.22 256.369 85.66C257.088 86.1 257.645 86.738 258.041 87.574C258.452 88.3953 258.657 89.378 258.657 90.522C258.657 91.6953 258.437 92.7073 257.997 93.558C257.572 94.4087 256.963 95.0613 256.171 95.516C255.379 95.9707 254.455 96.198 253.399 96.198ZM253.333 94.614C254.36 94.614 255.167 94.2767 255.753 93.602C256.355 92.9273 256.655 91.9227 256.655 90.588C256.655 89.2827 256.355 88.2853 255.753 87.596C255.167 86.9067 254.36 86.562 253.333 86.562C252.307 86.562 251.493 86.8993 250.891 87.574C250.305 88.2487 250.011 89.2093 250.011 90.456C250.011 91.8493 250.305 92.8907 250.891 93.58C251.493 94.2693 252.307 94.614 253.333 94.614ZM266.597 96.198C264.837 96.198 263.444 95.692 262.417 94.68C261.405 93.668 260.899 92.2747 260.899 90.5C260.899 89.3267 261.119 88.3147 261.559 87.464C262.014 86.5987 262.637 85.9313 263.429 85.462C264.221 84.978 265.145 84.736 266.201 84.736C267.213 84.736 268.071 84.956 268.775 85.396C269.479 85.8213 270.015 86.43 270.381 87.222C270.748 88.014 270.931 88.9527 270.931 90.038V90.698H262.461V89.51H269.567L269.193 89.796C269.193 88.652 268.937 87.7647 268.423 87.134C267.925 86.5033 267.184 86.188 266.201 86.188C265.131 86.188 264.302 86.562 263.715 87.31C263.129 88.0433 262.835 89.048 262.835 90.324V90.522C262.835 91.8713 263.165 92.8907 263.825 93.58C264.5 94.2693 265.431 94.614 266.619 94.614C267.279 94.614 267.895 94.5187 268.467 94.328C269.039 94.1373 269.589 93.822 270.117 93.382L270.777 94.768C270.279 95.2227 269.655 95.5747 268.907 95.824C268.174 96.0733 267.404 96.198 266.597 96.198ZM33.716 120V108.934H35.542V118.108H34.948L41.812 108.934H43.484V120H41.658V110.804H42.274L35.388 120H33.716ZM52.5542 120V108.89H62.9602V120H60.2322V111.002H55.2822V120H52.5542ZM71.1933 120.22C70.0493 120.22 69.0593 119.985 68.2233 119.516C67.3873 119.047 66.7347 118.379 66.2653 117.514C65.8107 116.649 65.5833 115.622 65.5833 114.434C65.5833 113.246 65.8107 112.227 66.2653 111.376C66.7347 110.511 67.3873 109.843 68.2233 109.374C69.0593 108.905 70.0493 108.67 71.1933 108.67C72.3373 108.67 73.3273 108.905 74.1633 109.374C75.014 109.843 75.6667 110.511 76.1213 111.376C76.5907 112.227 76.8253 113.246 76.8253 114.434C76.8253 115.622 76.5907 116.649 76.1213 117.514C75.6667 118.379 75.014 119.047 74.1633 119.516C73.3273 119.985 72.3373 120.22 71.1933 120.22ZM71.1933 118.108C72.0587 118.108 72.748 117.807 73.2613 117.206C73.7747 116.59 74.0313 115.666 74.0313 114.434C74.0313 113.202 73.7747 112.285 73.2613 111.684C72.748 111.083 72.0587 110.782 71.1933 110.782C70.328 110.782 69.6387 111.083 69.1253 111.684C68.612 112.285 68.3553 113.202 68.3553 114.434C68.3553 115.666 68.612 116.59 69.1253 117.206C69.6387 117.807 70.328 118.108 71.1933 118.108ZM79.4311 120V108.89H81.9171V117.294H81.2571L87.5711 108.89H89.8371V120H87.3511V111.574H88.0331L81.6971 120H79.4311ZM84.6231 107.878C83.8898 107.878 83.2445 107.761 82.6871 107.526C82.1298 107.277 81.6678 106.932 81.3011 106.492C80.9345 106.037 80.6705 105.502 80.5091 104.886L81.9171 104.402C82.1665 105.077 82.5111 105.575 82.9511 105.898C83.3911 106.206 83.9558 106.36 84.6451 106.36C85.3345 106.36 85.8991 106.206 86.3391 105.898C86.7791 105.59 87.1385 105.099 87.4171 104.424L88.7591 104.886C88.4511 105.869 87.9378 106.617 87.2191 107.13C86.5151 107.629 85.6498 107.878 84.6231 107.878ZM92.9663 120V108.89H95.2543L99.0823 115.534L102.91 108.89H105.198V120H102.778V111.97H103.284L99.7203 118.196H98.4443L94.8803 111.97H95.3863V120H92.9663ZM113.784 120.22C111.921 120.22 110.462 119.707 109.406 118.68C108.35 117.653 107.822 116.245 107.822 114.456C107.822 113.297 108.049 112.285 108.504 111.42C108.958 110.555 109.589 109.88 110.396 109.396C111.217 108.912 112.17 108.67 113.256 108.67C114.326 108.67 115.221 108.897 115.94 109.352C116.658 109.807 117.201 110.445 117.568 111.266C117.949 112.087 118.14 113.048 118.14 114.148V114.874H110.044V113.422H116.182L115.808 113.73C115.808 112.703 115.588 111.919 115.148 111.376C114.722 110.833 114.099 110.562 113.278 110.562C112.368 110.562 111.664 110.885 111.166 111.53C110.682 112.175 110.44 113.077 110.44 114.236V114.522C110.44 115.725 110.733 116.627 111.32 117.228C111.921 117.815 112.764 118.108 113.85 118.108C114.48 118.108 115.067 118.027 115.61 117.866C116.167 117.69 116.695 117.411 117.194 117.03L118.008 118.878C117.48 119.303 116.849 119.633 116.116 119.868C115.382 120.103 114.605 120.22 113.784 120.22ZM114.07 106.866V104.336H116.6V106.866H114.07ZM109.912 106.866V104.336H112.442V106.866H109.912ZM120.681 120V108.89H123.255V117.888H127.171V108.89H129.723V117.888H133.639V108.89H136.213V120H120.681ZM139.33 120V108.89H142.058V112.608H144.984C146.465 112.608 147.58 112.923 148.328 113.554C149.076 114.17 149.45 115.065 149.45 116.238C149.45 117.001 149.274 117.668 148.922 118.24C148.57 118.797 148.056 119.23 147.382 119.538C146.722 119.846 145.922 120 144.984 120H139.33ZM142.058 118.196H144.61C145.358 118.196 145.93 118.042 146.326 117.734C146.722 117.411 146.92 116.927 146.92 116.282C146.92 115.637 146.722 115.167 146.326 114.874C145.944 114.566 145.372 114.412 144.61 114.412H142.058V118.196ZM157.785 120V108.89H163.703C165.096 108.89 166.115 109.147 166.761 109.66C167.406 110.159 167.729 110.87 167.729 111.794C167.729 112.498 167.494 113.085 167.025 113.554C166.555 114.023 165.932 114.317 165.155 114.434V114.126C166.108 114.185 166.841 114.463 167.355 114.962C167.868 115.461 168.125 116.106 168.125 116.898C168.125 117.851 167.758 118.607 167.025 119.164C166.291 119.721 165.25 120 163.901 120H157.785ZM160.337 118.306H163.615C164.26 118.306 164.751 118.174 165.089 117.91C165.441 117.646 165.617 117.257 165.617 116.744C165.617 116.231 165.441 115.842 165.089 115.578C164.751 115.314 164.26 115.182 163.615 115.182H160.337V118.306ZM160.337 113.488H163.373C163.959 113.488 164.414 113.363 164.737 113.114C165.059 112.85 165.221 112.483 165.221 112.014C165.221 111.545 165.059 111.185 164.737 110.936C164.414 110.687 163.959 110.562 163.373 110.562H160.337V113.488ZM183.624 120V115.952C183.213 116.143 182.788 116.289 182.348 116.392C181.908 116.495 181.446 116.546 180.962 116.546C179.334 116.546 178.117 116.157 177.31 115.38C176.518 114.603 176.122 113.444 176.122 111.904V108.89H178.85V111.662C178.85 112.601 179.055 113.283 179.466 113.708C179.877 114.119 180.537 114.324 181.446 114.324C181.871 114.324 182.253 114.28 182.59 114.192C182.927 114.104 183.25 113.965 183.558 113.774V108.89H186.286V120H183.624ZM194.866 120.22C193.003 120.22 191.544 119.707 190.488 118.68C189.432 117.653 188.904 116.245 188.904 114.456C188.904 113.297 189.131 112.285 189.586 111.42C190.04 110.555 190.671 109.88 191.478 109.396C192.299 108.912 193.252 108.67 194.338 108.67C195.408 108.67 196.303 108.897 197.022 109.352C197.74 109.807 198.283 110.445 198.65 111.266C199.031 112.087 199.222 113.048 199.222 114.148V114.874H191.126V113.422H197.264L196.89 113.73C196.89 112.703 196.67 111.919 196.23 111.376C195.804 110.833 195.181 110.562 194.36 110.562C193.45 110.562 192.746 110.885 192.248 111.53C191.764 112.175 191.522 113.077 191.522 114.236V114.522C191.522 115.725 191.815 116.627 192.402 117.228C193.003 117.815 193.846 118.108 194.932 118.108C195.562 118.108 196.149 118.027 196.692 117.866C197.249 117.69 197.777 117.411 198.276 117.03L199.09 118.878C198.562 119.303 197.931 119.633 197.198 119.868C196.464 120.103 195.687 120.22 194.866 120.22ZM195.152 106.866V104.336H197.682V106.866H195.152ZM190.994 106.866V104.336H193.524V106.866H190.994ZM201.763 120V108.89H204.051L207.879 115.534L211.707 108.89H213.995V120H211.575V111.97H212.081L208.517 118.196H207.241L203.677 111.97H204.183V120H201.763ZM225.56 120V111.046H221.754V108.89H232.116V111.046H228.288V120H225.56ZM233.818 120V108.89H239.736C241.129 108.89 242.149 109.147 242.794 109.66C243.439 110.159 243.762 110.87 243.762 111.794C243.762 112.498 243.527 113.085 243.058 113.554C242.589 114.023 241.965 114.317 241.188 114.434V114.126C242.141 114.185 242.875 114.463 243.388 114.962C243.901 115.461 244.158 116.106 244.158 116.898C244.158 117.851 243.791 118.607 243.058 119.164C242.325 119.721 241.283 120 239.934 120H233.818ZM236.37 118.306H239.648C240.293 118.306 240.785 118.174 241.122 117.91C241.474 117.646 241.65 117.257 241.65 116.744C241.65 116.231 241.474 115.842 241.122 115.578C240.785 115.314 240.293 115.182 239.648 115.182H236.37V118.306ZM236.37 113.488H239.406C239.993 113.488 240.447 113.363 240.77 113.114C241.093 112.85 241.254 112.483 241.254 112.014C241.254 111.545 241.093 111.185 240.77 110.936C240.447 110.687 239.993 110.562 239.406 110.562H236.37V113.488ZM251.662 120.22C250.518 120.22 249.528 119.985 248.692 119.516C247.856 119.047 247.203 118.379 246.734 117.514C246.279 116.649 246.052 115.622 246.052 114.434C246.052 113.246 246.279 112.227 246.734 111.376C247.203 110.511 247.856 109.843 248.692 109.374C249.528 108.905 250.518 108.67 251.662 108.67C252.806 108.67 253.796 108.905 254.632 109.374C255.483 109.843 256.135 110.511 256.59 111.376C257.059 112.227 257.294 113.246 257.294 114.434C257.294 115.622 257.059 116.649 256.59 117.514C256.135 118.379 255.483 119.047 254.632 119.516C253.796 119.985 252.806 120.22 251.662 120.22ZM251.662 118.108C252.527 118.108 253.217 117.807 253.73 117.206C254.243 116.59 254.5 115.666 254.5 114.434C254.5 113.202 254.243 112.285 253.73 111.684C253.217 111.083 252.527 110.782 251.662 110.782C250.797 110.782 250.107 111.083 249.594 111.684C249.081 112.285 248.824 113.202 248.824 114.434C248.824 115.666 249.081 116.59 249.594 117.206C250.107 117.807 250.797 118.108 251.662 118.108ZM258.976 120L260.67 117.074C260.963 116.575 261.323 116.179 261.748 115.886C262.188 115.578 262.643 115.424 263.112 115.424H263.596L263.574 115.666C262.269 115.666 261.264 115.38 260.56 114.808C259.856 114.236 259.504 113.4 259.504 112.3C259.504 111.215 259.863 110.379 260.582 109.792C261.315 109.191 262.386 108.89 263.794 108.89H269.316V120H266.808V116.084H265.554C265.099 116.084 264.696 116.209 264.344 116.458C264.007 116.707 263.721 117.03 263.486 117.426L262.034 120H258.976ZM264.322 114.302H266.808V110.672H264.322C263.574 110.672 263.009 110.833 262.628 111.156C262.261 111.479 262.078 111.919 262.078 112.476C262.078 113.063 262.261 113.517 262.628 113.84C263.009 114.148 263.574 114.302 264.322 114.302ZM283.676 120.22C282.532 120.22 281.527 119.985 280.662 119.516C279.811 119.047 279.151 118.379 278.682 117.514C278.213 116.634 277.978 115.593 277.978 114.39C277.978 113.187 278.213 112.161 278.682 111.31C279.166 110.459 279.833 109.807 280.684 109.352C281.535 108.897 282.532 108.67 283.676 108.67C284.409 108.67 285.121 108.787 285.81 109.022C286.514 109.242 287.086 109.565 287.526 109.99L286.69 111.904C286.294 111.537 285.847 111.266 285.348 111.09C284.864 110.899 284.387 110.804 283.918 110.804C282.935 110.804 282.165 111.112 281.608 111.728C281.065 112.344 280.794 113.239 280.794 114.412C280.794 115.585 281.065 116.487 281.608 117.118C282.165 117.749 282.935 118.064 283.918 118.064C284.373 118.064 284.842 117.976 285.326 117.8C285.825 117.624 286.279 117.353 286.69 116.986L287.526 118.878C287.071 119.303 286.492 119.633 285.788 119.868C285.099 120.103 284.395 120.22 283.676 120.22ZM289.871 120V108.89H292.357V117.294H291.697L298.011 108.89H300.277V120H297.791V111.574H298.473L292.137 120H289.871ZM303.12 120.308L302.262 118.152C302.746 117.976 303.149 117.749 303.472 117.47C303.809 117.177 304.073 116.81 304.264 116.37C304.469 115.915 304.616 115.358 304.704 114.698C304.792 114.023 304.836 113.224 304.836 112.3V108.89H313.68V120H310.952V111.002H307.344V112.388C307.344 113.987 307.197 115.329 306.904 116.414C306.61 117.485 306.156 118.335 305.54 118.966C304.924 119.597 304.117 120.044 303.12 120.308ZM321.19 120.22C320.222 120.22 319.371 119.993 318.638 119.538C317.905 119.069 317.333 118.401 316.922 117.536C316.511 116.671 316.306 115.637 316.306 114.434C316.306 113.231 316.511 112.205 316.922 111.354C317.333 110.489 317.905 109.829 318.638 109.374C319.371 108.905 320.222 108.67 321.19 108.67C322.129 108.67 322.95 108.905 323.654 109.374C324.373 109.829 324.849 110.445 325.084 111.222H324.842L325.084 108.89H327.724C327.68 109.345 327.636 109.807 327.592 110.276C327.563 110.745 327.548 111.207 327.548 111.662V120H324.82L324.798 117.712H325.062C324.827 118.475 324.351 119.083 323.632 119.538C322.913 119.993 322.099 120.22 321.19 120.22ZM321.96 118.108C322.825 118.108 323.522 117.807 324.05 117.206C324.578 116.59 324.842 115.666 324.842 114.434C324.842 113.202 324.578 112.285 324.05 111.684C323.522 111.083 322.825 110.782 321.96 110.782C321.095 110.782 320.398 111.083 319.87 111.684C319.342 112.285 319.078 113.202 319.078 114.434C319.078 115.666 319.335 116.59 319.848 117.206C320.376 117.807 321.08 118.108 321.96 118.108Z" fill="#343434"/>
<circle cx="346" cy="22" r="6" fill="#343434" fill-opacity="0.12"/>
<defs>
<linearGradient id="paint0_linear_112_124" x1="184" y1="0" x2="184" y2="152" gradientUnits="userSpaceOnUse">
<stop stop-color="#F0ECD3" stop-opacity="0.64"/>
<stop offset="1" stop-color="#F0ECD3" stop-opacity="0"/>
</linearGradient>
</defs>
</svg>
