<svg width="368" height="104" viewBox="0 0 368 104" fill="none" xmlns="http://www.w3.org/2000/svg">
<rect width="368" height="104" rx="16" fill="url(#paint0_linear_102_325)"/>
<path d="M38.864 48.22C37.5293 48.22 36.3413 48.0587 35.3 47.736C34.2587 47.3987 33.3787 46.9367 32.66 46.35L33.562 44.26C34.222 44.788 34.97 45.1913 35.806 45.47C36.642 45.734 37.5953 45.866 38.666 45.866C39.9567 45.866 40.9027 45.668 41.504 45.272C42.1053 44.8613 42.406 44.2527 42.406 43.446C42.406 42.698 42.1567 42.148 41.658 41.796C41.1593 41.4293 40.3893 41.246 39.348 41.246H35.454V39.024H38.996C39.9933 39.024 40.7413 38.848 41.24 38.496C41.7533 38.1293 42.01 37.5867 42.01 36.868C42.01 36.1787 41.7387 35.636 41.196 35.24C40.6533 34.8293 39.8173 34.624 38.688 34.624C37.7933 34.624 36.9353 34.756 36.114 35.02C35.2927 35.284 34.5593 35.6727 33.914 36.186L33.012 34.096C33.7013 33.5093 34.5667 33.062 35.608 32.754C36.664 32.4313 37.7787 32.27 38.952 32.27C40.8733 32.27 42.318 32.6587 43.286 33.436C44.2687 34.2133 44.76 35.2327 44.76 36.494C44.76 37.4327 44.4813 38.232 43.924 38.892C43.3667 39.5373 42.604 39.97 41.636 40.19V39.86C42.736 40.0213 43.594 40.432 44.21 41.092C44.8407 41.752 45.156 42.6173 45.156 43.688C45.156 44.5973 44.9213 45.3967 44.452 46.086C43.9973 46.7607 43.3007 47.2887 42.362 47.67C41.438 48.0367 40.272 48.22 38.864 48.22ZM47.6987 48V36.89H50.4267V41.246H55.4427V36.89H58.1707V48H55.4427V43.358H50.4267V48H47.6987ZM65.6763 48.22C64.7083 48.22 63.8577 47.9927 63.1243 47.538C62.391 47.0687 61.819 46.4013 61.4083 45.536C60.9977 44.6707 60.7923 43.6367 60.7923 42.434C60.7923 41.2313 60.9977 40.2047 61.4083 39.354C61.819 38.4887 62.391 37.8287 63.1243 37.374C63.8577 36.9047 64.7083 36.67 65.6763 36.67C66.615 36.67 67.4363 36.9047 68.1403 37.374C68.859 37.8287 69.3357 38.4447 69.5703 39.222H69.3283L69.5703 36.89H72.2103C72.1663 37.3447 72.1223 37.8067 72.0783 38.276C72.049 38.7453 72.0343 39.2073 72.0343 39.662V48H69.3063L69.2843 45.712H69.5483C69.3137 46.4747 68.837 47.0833 68.1183 47.538C67.3997 47.9927 66.5857 48.22 65.6763 48.22ZM66.4463 46.108C67.3117 46.108 68.0083 45.8073 68.5363 45.206C69.0643 44.59 69.3283 43.666 69.3283 42.434C69.3283 41.202 69.0643 40.2853 68.5363 39.684C68.0083 39.0827 67.3117 38.782 66.4463 38.782C65.581 38.782 64.8843 39.0827 64.3563 39.684C63.8283 40.2853 63.5643 41.202 63.5643 42.434C63.5643 43.666 63.821 44.59 64.3343 45.206C64.8623 45.8073 65.5663 46.108 66.4463 46.108ZM75.2417 48V36.89H77.9697V41.246H79.6417L82.8977 36.89H85.8457L81.7537 42.434L81.1597 41.576C81.5704 41.62 81.9297 41.73 82.2377 41.906C82.5604 42.082 82.861 42.3313 83.1397 42.654C83.433 42.962 83.719 43.358 83.9977 43.842L86.3297 48H83.4037L81.5117 44.656C81.321 44.3187 81.1304 44.0547 80.9397 43.864C80.749 43.6733 80.5364 43.5413 80.3017 43.468C80.067 43.3947 79.781 43.358 79.4437 43.358H77.9697V48H75.2417ZM92.8926 48.22C91.7486 48.22 90.7586 47.9853 89.9226 47.516C89.0866 47.0467 88.4339 46.3793 87.9646 45.514C87.5099 44.6487 87.2826 43.622 87.2826 42.434C87.2826 41.246 87.5099 40.2267 87.9646 39.376C88.4339 38.5107 89.0866 37.8433 89.9226 37.374C90.7586 36.9047 91.7486 36.67 92.8926 36.67C94.0366 36.67 95.0266 36.9047 95.8626 37.374C96.7132 37.8433 97.3659 38.5107 97.8206 39.376C98.2899 40.2267 98.5246 41.246 98.5246 42.434C98.5246 43.622 98.2899 44.6487 97.8206 45.514C97.3659 46.3793 96.7132 47.0467 95.8626 47.516C95.0266 47.9853 94.0366 48.22 92.8926 48.22ZM92.8926 46.108C93.7579 46.108 94.4472 45.8073 94.9606 45.206C95.4739 44.59 95.7306 43.666 95.7306 42.434C95.7306 41.202 95.4739 40.2853 94.9606 39.684C94.4472 39.0827 93.7579 38.782 92.8926 38.782C92.0272 38.782 91.3379 39.0827 90.8246 39.684C90.3112 40.2853 90.0546 41.202 90.0546 42.434C90.0546 43.666 90.3112 44.59 90.8246 45.206C91.3379 45.8073 92.0272 46.108 92.8926 46.108ZM101.13 48V36.89H103.418L107.246 43.534L111.074 36.89H113.362V48H110.942V39.97H111.448L107.884 46.196H106.608L103.044 39.97H103.55V48H101.13ZM121.684 48.22C120.54 48.22 119.535 47.9853 118.67 47.516C117.819 47.0467 117.159 46.3793 116.69 45.514C116.22 44.634 115.986 43.5927 115.986 42.39C115.986 41.1873 116.22 40.1607 116.69 39.31C117.174 38.4593 117.841 37.8067 118.692 37.352C119.542 36.8973 120.54 36.67 121.684 36.67C122.417 36.67 123.128 36.7873 123.818 37.022C124.522 37.242 125.094 37.5647 125.534 37.99L124.698 39.904C124.302 39.5373 123.854 39.266 123.356 39.09C122.872 38.8993 122.395 38.804 121.926 38.804C120.943 38.804 120.173 39.112 119.616 39.728C119.073 40.344 118.802 41.2387 118.802 42.412C118.802 43.5853 119.073 44.4873 119.616 45.118C120.173 45.7487 120.943 46.064 121.926 46.064C122.38 46.064 122.85 45.976 123.334 45.8C123.832 45.624 124.287 45.3527 124.698 44.986L125.534 46.878C125.079 47.3033 124.5 47.6333 123.796 47.868C123.106 48.1027 122.402 48.22 121.684 48.22ZM130.276 48V39.046H126.47V36.89H136.832V39.046H133.004V48H130.276ZM138.535 48V36.89H144.453C145.846 36.89 146.865 37.1467 147.511 37.66C148.156 38.1587 148.479 38.87 148.479 39.794C148.479 40.498 148.244 41.0847 147.775 41.554C147.305 42.0233 146.682 42.3167 145.905 42.434V42.126C146.858 42.1847 147.591 42.4633 148.105 42.962C148.618 43.4607 148.875 44.106 148.875 44.898C148.875 45.8513 148.508 46.6067 147.775 47.164C147.041 47.7213 146 48 144.651 48H138.535ZM141.087 46.306H144.365C145.01 46.306 145.501 46.174 145.839 45.91C146.191 45.646 146.367 45.2573 146.367 44.744C146.367 44.2307 146.191 43.842 145.839 43.578C145.501 43.314 145.01 43.182 144.365 43.182H141.087V46.306ZM141.087 41.488H144.123C144.709 41.488 145.164 41.3633 145.487 41.114C145.809 40.85 145.971 40.4833 145.971 40.014C145.971 39.5447 145.809 39.1853 145.487 38.936C145.164 38.6867 144.709 38.562 144.123 38.562H141.087V41.488ZM156.379 48.22C155.235 48.22 154.245 47.9853 153.409 47.516C152.573 47.0467 151.92 46.3793 151.451 45.514C150.996 44.6487 150.769 43.622 150.769 42.434C150.769 41.246 150.996 40.2267 151.451 39.376C151.92 38.5107 152.573 37.8433 153.409 37.374C154.245 36.9047 155.235 36.67 156.379 36.67C157.523 36.67 158.513 36.9047 159.349 37.374C160.2 37.8433 160.852 38.5107 161.307 39.376C161.776 40.2267 162.011 41.246 162.011 42.434C162.011 43.622 161.776 44.6487 161.307 45.514C160.852 46.3793 160.2 47.0467 159.349 47.516C158.513 47.9853 157.523 48.22 156.379 48.22ZM156.379 46.108C157.244 46.108 157.934 45.8073 158.447 45.206C158.96 44.59 159.217 43.666 159.217 42.434C159.217 41.202 158.96 40.2853 158.447 39.684C157.934 39.0827 157.244 38.782 156.379 38.782C155.514 38.782 154.824 39.0827 154.311 39.684C153.798 40.2853 153.541 41.202 153.541 42.434C153.541 43.666 153.798 44.59 154.311 45.206C154.824 45.8073 155.514 46.108 156.379 46.108ZM175.389 48.198C174.289 48.198 173.336 47.9707 172.529 47.516C171.723 47.0467 171.092 46.3793 170.637 45.514C170.197 44.634 169.977 43.5927 169.977 42.39C169.977 41.202 170.205 40.19 170.659 39.354C171.114 38.5033 171.745 37.858 172.551 37.418C173.358 36.9633 174.304 36.736 175.389 36.736C176.108 36.736 176.805 36.8607 177.479 37.11C178.154 37.3447 178.704 37.6893 179.129 38.144L178.447 39.552C178.022 39.1413 177.553 38.8407 177.039 38.65C176.526 38.4447 176.02 38.342 175.521 38.342C174.436 38.342 173.585 38.694 172.969 39.398C172.353 40.0873 172.045 41.092 172.045 42.412C172.045 43.7467 172.353 44.7733 172.969 45.492C173.585 46.2107 174.436 46.57 175.521 46.57C176.005 46.57 176.504 46.4747 177.017 46.284C177.531 46.0933 178.007 45.7927 178.447 45.382L179.129 46.768C178.689 47.2373 178.125 47.5967 177.435 47.846C176.761 48.0807 176.079 48.198 175.389 48.198ZM186.473 48.198C185.388 48.198 184.449 47.9707 183.657 47.516C182.865 47.0467 182.249 46.3867 181.809 45.536C181.369 44.6707 181.149 43.644 181.149 42.456C181.149 41.2827 181.369 40.2707 181.809 39.42C182.249 38.5547 182.865 37.8947 183.657 37.44C184.449 36.9707 185.388 36.736 186.473 36.736C187.559 36.736 188.497 36.9707 189.289 37.44C190.096 37.8947 190.712 38.5547 191.137 39.42C191.577 40.2707 191.797 41.2827 191.797 42.456C191.797 43.644 191.577 44.6707 191.137 45.536C190.712 46.3867 190.096 47.0467 189.289 47.516C188.497 47.9707 187.559 48.198 186.473 48.198ZM186.473 46.614C187.471 46.614 188.27 46.262 188.871 45.558C189.473 44.854 189.773 43.82 189.773 42.456C189.773 41.092 189.473 40.0653 188.871 39.376C188.27 38.6867 187.471 38.342 186.473 38.342C185.461 38.342 184.655 38.6867 184.053 39.376C183.467 40.0653 183.173 41.092 183.173 42.456C183.173 43.82 183.467 44.854 184.053 45.558C184.655 46.262 185.461 46.614 186.473 46.614ZM200.456 48V36.934H205.912C207.218 36.934 208.186 37.1833 208.816 37.682C209.462 38.1807 209.784 38.8993 209.784 39.838C209.784 40.542 209.542 41.136 209.058 41.62C208.574 42.0893 207.944 42.3753 207.166 42.478V42.192C208.09 42.2213 208.816 42.4927 209.344 43.006C209.887 43.5047 210.158 44.15 210.158 44.942C210.158 45.8807 209.799 46.6287 209.08 47.186C208.376 47.7287 207.386 48 206.11 48H200.456ZM202.348 46.68H205.978C206.726 46.68 207.298 46.526 207.694 46.218C208.09 45.8953 208.288 45.4407 208.288 44.854C208.288 44.2527 208.09 43.798 207.694 43.49C207.298 43.182 206.726 43.028 205.978 43.028H202.348V46.68ZM202.348 41.708H205.736C206.426 41.708 206.961 41.554 207.342 41.246C207.724 40.938 207.914 40.5127 207.914 39.97C207.914 39.4127 207.724 38.9873 207.342 38.694C206.961 38.4007 206.426 38.254 205.736 38.254H202.348V41.708ZM217.671 48.198C216.571 48.198 215.617 47.9707 214.811 47.516C214.004 47.0467 213.373 46.3793 212.919 45.514C212.479 44.634 212.259 43.5927 212.259 42.39C212.259 41.202 212.486 40.19 212.941 39.354C213.395 38.5033 214.026 37.858 214.833 37.418C215.639 36.9633 216.585 36.736 217.671 36.736C218.389 36.736 219.086 36.8607 219.761 37.11C220.435 37.3447 220.985 37.6893 221.411 38.144L220.729 39.552C220.303 39.1413 219.834 38.8407 219.321 38.65C218.807 38.4447 218.301 38.342 217.803 38.342C216.717 38.342 215.867 38.694 215.251 39.398C214.635 40.0873 214.327 41.092 214.327 42.412C214.327 43.7467 214.635 44.7733 215.251 45.492C215.867 46.2107 216.717 46.57 217.803 46.57C218.287 46.57 218.785 46.4747 219.299 46.284C219.812 46.0933 220.289 45.7927 220.729 45.382L221.411 46.768C220.971 47.2373 220.406 47.5967 219.717 47.846C219.042 48.0807 218.36 48.198 217.671 48.198ZM229.129 48.198C227.369 48.198 225.975 47.692 224.949 46.68C223.937 45.668 223.431 44.2747 223.431 42.5C223.431 41.3267 223.651 40.3147 224.091 39.464C224.545 38.5987 225.169 37.9313 225.961 37.462C226.753 36.978 227.677 36.736 228.733 36.736C229.745 36.736 230.603 36.956 231.307 37.396C232.011 37.8213 232.546 38.43 232.913 39.222C233.279 40.014 233.463 40.9527 233.463 42.038V42.698H224.993V41.51H232.099L231.725 41.796C231.725 40.652 231.468 39.7647 230.955 39.134C230.456 38.5033 229.715 38.188 228.733 38.188C227.662 38.188 226.833 38.562 226.247 39.31C225.66 40.0433 225.367 41.048 225.367 42.324V42.522C225.367 43.8713 225.697 44.8907 226.357 45.58C227.031 46.2693 227.963 46.614 229.151 46.614C229.811 46.614 230.427 46.5187 230.999 46.328C231.571 46.1373 232.121 45.822 232.649 45.382L233.309 46.768C232.81 47.2227 232.187 47.5747 231.439 47.824C230.705 48.0733 229.935 48.198 229.129 48.198ZM236.249 48V36.934H237.921L241.991 44.172L246.083 36.934H247.733V48H245.973V39.178H246.457L242.497 46.218H241.507L237.547 39.156H238.009V48H236.249ZM251.159 48V36.934H252.985V46.108H252.391L259.255 36.934H260.927V48H259.101V38.804H259.717L252.831 48H251.159ZM38.446 72.198C37.3607 72.198 36.422 71.9707 35.63 71.516C34.838 71.0467 34.222 70.3867 33.782 69.536C33.342 68.6707 33.122 67.644 33.122 66.456C33.122 65.2827 33.342 64.2707 33.782 63.42C34.222 62.5547 34.838 61.8947 35.63 61.44C36.422 60.9707 37.3607 60.736 38.446 60.736C39.5313 60.736 40.47 60.9707 41.262 61.44C42.0687 61.8947 42.6847 62.5547 43.11 63.42C43.55 64.2707 43.77 65.2827 43.77 66.456C43.77 67.644 43.55 68.6707 43.11 69.536C42.6847 70.3867 42.0687 71.0467 41.262 71.516C40.47 71.9707 39.5313 72.198 38.446 72.198ZM38.446 70.614C39.4433 70.614 40.2427 70.262 40.844 69.558C41.4453 68.854 41.746 67.82 41.746 66.456C41.746 65.092 41.4453 64.0653 40.844 63.376C40.2427 62.6867 39.4433 62.342 38.446 62.342C37.434 62.342 36.6273 62.6867 36.026 63.376C35.4393 64.0653 35.146 65.092 35.146 66.456C35.146 67.82 35.4393 68.854 36.026 69.558C36.6273 70.262 37.434 70.614 38.446 70.614ZM46.6281 72V60.934H48.6081V65.51H54.4601V60.934H56.4401V72H54.4601V67.094H48.6081V72H46.6281ZM59.3345 72.264L58.6305 70.702C59.1438 70.4673 59.5692 70.1887 59.9065 69.866C60.2585 69.5287 60.5298 69.1033 60.7205 68.59C60.9258 68.0767 61.0725 67.4387 61.1605 66.676C61.2485 65.9133 61.2925 64.9893 61.2925 63.904V60.934H69.4545V72H67.4745V62.496H63.1405V63.948C63.1405 65.6493 63.0085 67.0573 62.7445 68.172C62.4952 69.272 62.0918 70.1447 61.5345 70.79C60.9918 71.4353 60.2585 71.9267 59.3345 72.264ZM77.172 72.198C76.204 72.198 75.3533 71.9707 74.62 71.516C73.8867 71.0613 73.3147 70.4013 72.904 69.536C72.4933 68.6707 72.288 67.644 72.288 66.456C72.288 65.268 72.4933 64.2487 72.904 63.398C73.3147 62.5327 73.8867 61.8727 74.62 61.418C75.3533 60.9633 76.204 60.736 77.172 60.736C78.1547 60.736 79.0053 60.9853 79.724 61.484C80.4573 61.968 80.9413 62.6353 81.176 63.486H80.912L81.154 60.934H83.09C83.046 61.374 83.002 61.814 82.958 62.254C82.9287 62.694 82.914 63.1267 82.914 63.552V72H80.912V69.47H81.154C80.9193 70.306 80.4353 70.9733 79.702 71.472C78.9833 71.956 78.14 72.198 77.172 72.198ZM77.634 70.614C78.6313 70.614 79.4307 70.262 80.032 69.558C80.6333 68.854 80.934 67.82 80.934 66.456C80.934 65.092 80.6333 64.0653 80.032 63.376C79.4307 62.6867 78.6313 62.342 77.634 62.342C76.6367 62.342 75.83 62.6867 75.214 63.376C74.6127 64.0653 74.312 65.092 74.312 66.456C74.312 67.82 74.6127 68.854 75.214 69.558C75.8153 70.262 76.622 70.614 77.634 70.614ZM86.4387 72V60.934H88.2647V70.108H87.6707L94.5347 60.934H96.2067V72H94.3807V62.804H94.9967L88.1107 72H86.4387ZM91.3227 59.922C90.692 59.922 90.1127 59.812 89.5847 59.592C89.0567 59.372 88.602 59.0567 88.2207 58.646C87.854 58.2207 87.5753 57.6927 87.3847 57.062L88.5287 56.644C88.7927 57.348 89.152 57.8687 89.6067 58.206C90.0613 58.5287 90.6333 58.69 91.3227 58.69C92.0267 58.69 92.606 58.536 93.0607 58.228C93.5153 57.92 93.9113 57.3993 94.2487 56.666L95.3267 57.062C94.96 58.0593 94.4247 58.7853 93.7207 59.24C93.0313 59.6947 92.232 59.922 91.3227 59.922ZM99.6301 72V60.934H101.61V65.51H107.462V60.934H109.442V72H107.462V67.094H101.61V72H99.6301ZM112.71 66.786V65.158H119.068V66.786H112.71ZM122.339 72V60.934H132.085V72H130.105V62.496H124.319V72H122.339ZM135.575 76.752V63.552C135.575 63.1267 135.56 62.694 135.531 62.254C135.502 61.814 135.458 61.374 135.399 60.934H137.335L137.577 63.486H137.335C137.555 62.6353 138.024 61.968 138.743 61.484C139.462 60.9853 140.32 60.736 141.317 60.736C142.3 60.736 143.158 60.9633 143.891 61.418C144.624 61.8727 145.189 62.5327 145.585 63.398C145.996 64.2487 146.201 65.268 146.201 66.456C146.201 67.644 145.996 68.6707 145.585 69.536C145.189 70.4013 144.624 71.0613 143.891 71.516C143.158 71.9707 142.3 72.198 141.317 72.198C140.334 72.198 139.484 71.956 138.765 71.472C138.061 70.9733 137.584 70.306 137.335 69.47H137.577V76.752H135.575ZM140.855 70.614C141.867 70.614 142.674 70.262 143.275 69.558C143.876 68.854 144.177 67.82 144.177 66.456C144.177 65.092 143.876 64.0653 143.275 63.376C142.674 62.6867 141.867 62.342 140.855 62.342C139.843 62.342 139.036 62.6867 138.435 63.376C137.848 64.0653 137.555 65.092 137.555 66.456C137.555 67.82 137.848 68.854 138.435 69.558C139.036 70.262 139.843 70.614 140.855 70.614ZM153.796 72.198C152.71 72.198 151.772 71.9707 150.98 71.516C150.188 71.0467 149.572 70.3867 149.132 69.536C148.692 68.6707 148.472 67.644 148.472 66.456C148.472 65.2827 148.692 64.2707 149.132 63.42C149.572 62.5547 150.188 61.8947 150.98 61.44C151.772 60.9707 152.71 60.736 153.796 60.736C154.881 60.736 155.82 60.9707 156.612 61.44C157.418 61.8947 158.034 62.5547 158.46 63.42C158.9 64.2707 159.12 65.2827 159.12 66.456C159.12 67.644 158.9 68.6707 158.46 69.536C158.034 70.3867 157.418 71.0467 156.612 71.516C155.82 71.9707 154.881 72.198 153.796 72.198ZM153.796 70.614C154.793 70.614 155.592 70.262 156.194 69.558C156.795 68.854 157.096 67.82 157.096 66.456C157.096 65.092 156.795 64.0653 156.194 63.376C155.592 62.6867 154.793 62.342 153.796 62.342C152.784 62.342 151.977 62.6867 151.376 63.376C150.789 64.0653 150.496 65.092 150.496 66.456C150.496 67.82 150.789 68.854 151.376 69.558C151.977 70.262 152.784 70.614 153.796 70.614ZM168.358 76.752V69.602H168.578C168.358 70.438 167.969 71.0833 167.412 71.538C166.869 71.978 166.202 72.198 165.41 72.198C164.618 72.198 163.914 71.9633 163.298 71.494C162.696 71.0247 162.227 70.3647 161.89 69.514C161.552 68.6487 161.384 67.6293 161.384 66.456C161.384 65.2827 161.545 64.2707 161.868 63.42C162.205 62.5547 162.674 61.8947 163.276 61.44C163.892 60.9707 164.603 60.736 165.41 60.736C166.202 60.736 166.869 60.9633 167.412 61.418C167.969 61.858 168.358 62.4887 168.578 63.31H168.358V55.808H170.338V63.31H170.118C170.352 62.4887 170.741 61.858 171.284 61.418C171.826 60.9633 172.494 60.736 173.286 60.736C174.092 60.736 174.796 60.9707 175.398 61.44C176.014 61.8947 176.483 62.5547 176.806 63.42C177.143 64.2707 177.312 65.2827 177.312 66.456C177.312 67.6293 177.143 68.6487 176.806 69.514C176.483 70.3647 176.021 71.0247 175.42 71.494C174.818 71.9633 174.107 72.198 173.286 72.198C172.508 72.198 171.841 71.978 171.284 71.538C170.741 71.0833 170.352 70.438 170.118 69.602H170.338V76.752H168.358ZM165.894 70.636C166.671 70.636 167.28 70.284 167.72 69.58C168.174 68.876 168.402 67.8347 168.402 66.456C168.402 65.1067 168.174 64.0727 167.72 63.354C167.265 62.6353 166.656 62.276 165.894 62.276C165.116 62.276 164.5 62.6353 164.046 63.354C163.606 64.0727 163.386 65.1067 163.386 66.456C163.386 67.8347 163.606 68.876 164.046 69.58C164.5 70.284 165.116 70.636 165.894 70.636ZM172.802 70.636C173.579 70.636 174.195 70.284 174.65 69.58C175.104 68.876 175.332 67.8347 175.332 66.456C175.332 65.1067 175.104 64.0727 174.65 63.354C174.195 62.6353 173.579 62.276 172.802 62.276C172.024 62.276 171.416 62.6353 170.976 63.354C170.536 64.0727 170.316 65.1067 170.316 66.456C170.316 67.8347 170.536 68.876 170.976 69.58C171.416 70.284 172.024 70.636 172.802 70.636ZM185.258 72.198C183.498 72.198 182.104 71.692 181.078 70.68C180.066 69.668 179.56 68.2747 179.56 66.5C179.56 65.3267 179.78 64.3147 180.22 63.464C180.674 62.5987 181.298 61.9313 182.09 61.462C182.882 60.978 183.806 60.736 184.862 60.736C185.874 60.736 186.732 60.956 187.436 61.396C188.14 61.8213 188.675 62.43 189.042 63.222C189.408 64.014 189.592 64.9527 189.592 66.038V66.698H181.122V65.51H188.228L187.854 65.796C187.854 64.652 187.597 63.7647 187.084 63.134C186.585 62.5033 185.844 62.188 184.862 62.188C183.791 62.188 182.962 62.562 182.376 63.31C181.789 64.0433 181.496 65.048 181.496 66.324V66.522C181.496 67.8713 181.826 68.8907 182.486 69.58C183.16 70.2693 184.092 70.614 185.28 70.614C185.94 70.614 186.556 70.5187 187.128 70.328C187.7 70.1373 188.25 69.822 188.778 69.382L189.438 70.768C188.939 71.2227 188.316 71.5747 187.568 71.824C186.834 72.0733 186.064 72.198 185.258 72.198ZM197.196 72.198C196.096 72.198 195.143 71.9707 194.336 71.516C193.529 71.0467 192.899 70.3793 192.444 69.514C192.004 68.634 191.784 67.5927 191.784 66.39C191.784 65.202 192.011 64.19 192.466 63.354C192.921 62.5033 193.551 61.858 194.358 61.418C195.165 60.9633 196.111 60.736 197.196 60.736C197.915 60.736 198.611 60.8607 199.286 61.11C199.961 61.3447 200.511 61.6893 200.936 62.144L200.254 63.552C199.829 63.1413 199.359 62.8407 198.846 62.65C198.333 62.4447 197.827 62.342 197.328 62.342C196.243 62.342 195.392 62.694 194.776 63.398C194.16 64.0873 193.852 65.092 193.852 66.412C193.852 67.7467 194.16 68.7733 194.776 69.492C195.392 70.2107 196.243 70.57 197.328 70.57C197.812 70.57 198.311 70.4747 198.824 70.284C199.337 70.0933 199.814 69.7927 200.254 69.382L200.936 70.768C200.496 71.2373 199.931 71.5967 199.242 71.846C198.567 72.0807 197.885 72.198 197.196 72.198ZM208.368 72.198C207.268 72.198 206.315 71.9707 205.508 71.516C204.701 71.0467 204.071 70.3793 203.616 69.514C203.176 68.634 202.956 67.5927 202.956 66.39C202.956 65.202 203.183 64.19 203.638 63.354C204.093 62.5033 204.723 61.858 205.53 61.418C206.337 60.9633 207.283 60.736 208.368 60.736C209.087 60.736 209.783 60.8607 210.458 61.11C211.133 61.3447 211.683 61.6893 212.108 62.144L211.426 63.552C211.001 63.1413 210.531 62.8407 210.018 62.65C209.505 62.4447 208.999 62.342 208.5 62.342C207.415 62.342 206.564 62.694 205.948 63.398C205.332 64.0873 205.024 65.092 205.024 66.412C205.024 67.7467 205.332 68.7733 205.948 69.492C206.564 70.2107 207.415 70.57 208.5 70.57C208.984 70.57 209.483 70.4747 209.996 70.284C210.509 70.0933 210.986 69.7927 211.426 69.382L212.108 70.768C211.668 71.2373 211.103 71.5967 210.414 71.846C209.739 72.0807 209.057 72.198 208.368 72.198ZM214.722 72V60.934H216.548V70.108H215.954L222.818 60.934H224.49V72H222.664V62.804H223.28L216.394 72H214.722ZM227.033 72L228.771 68.986C229.05 68.502 229.402 68.1133 229.827 67.82C230.253 67.512 230.7 67.358 231.169 67.358H231.521L231.499 67.556C230.253 67.556 229.277 67.2773 228.573 66.72C227.869 66.148 227.517 65.3267 227.517 64.256C227.517 63.2 227.862 62.386 228.551 61.814C229.241 61.2273 230.267 60.934 231.631 60.934H236.669V72H234.821V67.82H233.237C232.665 67.82 232.174 67.9667 231.763 68.26C231.353 68.5387 231.015 68.9127 230.751 69.382L229.255 72H227.033ZM231.983 66.434H234.821V62.298H231.983C231.118 62.298 230.473 62.4813 230.047 62.848C229.637 63.2147 229.431 63.7207 229.431 64.366C229.431 65.026 229.637 65.5393 230.047 65.906C230.473 66.258 231.118 66.434 231.983 66.434ZM240.095 72V60.934H241.767L245.837 68.172L249.929 60.934H251.579V72H249.819V63.178H250.303L246.343 70.218H245.353L241.393 63.156H241.855V72H240.095ZM255.005 72V60.934H256.831V70.108H256.237L263.101 60.934H264.773V72H262.947V62.804H263.563L256.677 72H255.005Z" fill="#343434"/>
<circle cx="346" cy="22" r="6" fill="#343434" fill-opacity="0.12"/>
<defs>
<linearGradient id="paint0_linear_102_325" x1="184" y1="0" x2="184" y2="104" gradientUnits="userSpaceOnUse">
<stop stop-color="#F0ECD3" stop-opacity="0.64"/>
<stop offset="1" stop-color="#F0ECD3" stop-opacity="0"/>
</linearGradient>
</defs>
</svg>
