<svg width="368" height="104" viewBox="0 0 368 104" fill="none" xmlns="http://www.w3.org/2000/svg">
<rect width="368" height="104" rx="16" fill="url(#paint0_linear_102_334)"/>
<path d="M37.368 48V34.822H32.242V32.49H45.332V34.822H40.206V48H37.368ZM45.5523 52.752V39.662C45.5523 39.2073 45.5377 38.7453 45.5083 38.276C45.479 37.8067 45.435 37.3447 45.3763 36.89H48.0383L48.2803 39.222H48.0383C48.2583 38.4447 48.7203 37.8287 49.4243 37.374C50.143 36.9047 50.9717 36.67 51.9103 36.67C52.893 36.67 53.751 36.9047 54.4843 37.374C55.2177 37.8287 55.7897 38.4887 56.2003 39.354C56.611 40.2047 56.8163 41.2313 56.8163 42.434C56.8163 43.6367 56.611 44.6707 56.2003 45.536C55.7897 46.4013 55.2177 47.0687 54.4843 47.538C53.751 47.9927 52.893 48.22 51.9103 48.22C50.9863 48.22 50.1723 47.9927 49.4683 47.538C48.7643 47.0833 48.295 46.4747 48.0603 45.712H48.3023V52.752H45.5523ZM51.1403 46.108C52.0203 46.108 52.7243 45.8073 53.2523 45.206C53.7803 44.59 54.0443 43.666 54.0443 42.434C54.0443 41.202 53.7803 40.2853 53.2523 39.684C52.7243 39.0827 52.0203 38.782 51.1403 38.782C50.275 38.782 49.5783 39.0827 49.0503 39.684C48.5223 40.2853 48.2583 41.202 48.2583 42.434C48.2583 43.666 48.5223 44.59 49.0503 45.206C49.5783 45.8073 50.275 46.108 51.1403 46.108ZM59.1038 52.994L58.4658 50.816C59.1552 50.6693 59.7345 50.5007 60.2038 50.31C60.6732 50.1193 61.0618 49.87 61.3698 49.562C61.6778 49.254 61.9345 48.858 62.1398 48.374L62.6898 47.076L62.6238 48.154L57.7838 36.89H60.7098L64.1858 45.558H63.5478L67.0458 36.89H69.8178L64.7578 48.616C64.4205 49.408 64.0538 50.0607 63.6578 50.574C63.2618 51.102 62.8365 51.52 62.3818 51.828C61.9272 52.1507 61.4285 52.4 60.8858 52.576C60.3432 52.752 59.7492 52.8913 59.1038 52.994ZM70.1697 50.86V45.91H71.4457C71.8857 45.2207 72.201 44.414 72.3917 43.49C72.597 42.5513 72.6997 41.4073 72.6997 40.058V36.89H81.2577V45.91H83.0617V50.86H80.7297V48H72.5017V50.86H70.1697ZM73.9097 45.932H78.6837V38.958H75.0317V40.674C75.0317 41.6567 74.9363 42.6173 74.7457 43.556C74.555 44.4947 74.2763 45.2867 73.9097 45.932ZM90.1855 48.22C89.0415 48.22 88.0515 47.9853 87.2155 47.516C86.3795 47.0467 85.7269 46.3793 85.2575 45.514C84.8029 44.6487 84.5755 43.622 84.5755 42.434C84.5755 41.246 84.8029 40.2267 85.2575 39.376C85.7269 38.5107 86.3795 37.8433 87.2155 37.374C88.0515 36.9047 89.0415 36.67 90.1855 36.67C91.3295 36.67 92.3195 36.9047 93.1555 37.374C94.0062 37.8433 94.6589 38.5107 95.1135 39.376C95.5829 40.2267 95.8175 41.246 95.8175 42.434C95.8175 43.622 95.5829 44.6487 95.1135 45.514C94.6589 46.3793 94.0062 47.0467 93.1555 47.516C92.3195 47.9853 91.3295 48.22 90.1855 48.22ZM90.1855 46.108C91.0509 46.108 91.7402 45.8073 92.2535 45.206C92.7669 44.59 93.0235 43.666 93.0235 42.434C93.0235 41.202 92.7669 40.2853 92.2535 39.684C91.7402 39.0827 91.0509 38.782 90.1855 38.782C89.3202 38.782 88.6309 39.0827 88.1175 39.684C87.6042 40.2853 87.3475 41.202 87.3475 42.434C87.3475 43.666 87.6042 44.59 88.1175 45.206C88.6309 45.8073 89.3202 46.108 90.1855 46.108ZM98.1195 52.994L97.4815 50.816C98.1708 50.6693 98.7501 50.5007 99.2195 50.31C99.6888 50.1193 100.077 49.87 100.385 49.562C100.693 49.254 100.95 48.858 101.155 48.374L101.705 47.076L101.639 48.154L96.7995 36.89H99.7255L103.201 45.558H102.563L106.061 36.89H108.833L103.773 48.616C103.436 49.408 103.069 50.0607 102.673 50.574C102.277 51.102 101.852 51.52 101.397 51.828C100.943 52.1507 100.444 52.4 99.9015 52.576C99.3588 52.752 98.7648 52.8913 98.1195 52.994ZM115.518 48.22C114.374 48.22 113.369 47.9853 112.504 47.516C111.653 47.0467 110.993 46.3793 110.524 45.514C110.054 44.634 109.82 43.5927 109.82 42.39C109.82 41.1873 110.054 40.1607 110.524 39.31C111.008 38.4593 111.675 37.8067 112.526 37.352C113.376 36.8973 114.374 36.67 115.518 36.67C116.251 36.67 116.962 36.7873 117.652 37.022C118.356 37.242 118.928 37.5647 119.368 37.99L118.532 39.904C118.136 39.5373 117.688 39.266 117.19 39.09C116.706 38.8993 116.229 38.804 115.76 38.804C114.777 38.804 114.007 39.112 113.45 39.728C112.907 40.344 112.636 41.2387 112.636 42.412C112.636 43.5853 112.907 44.4873 113.45 45.118C114.007 45.7487 114.777 46.064 115.76 46.064C116.214 46.064 116.684 45.976 117.168 45.8C117.666 45.624 118.121 45.3527 118.532 44.986L119.368 46.878C118.913 47.3033 118.334 47.6333 117.63 47.868C116.94 48.1027 116.236 48.22 115.518 48.22ZM124.11 48V39.046H120.304V36.89H130.666V39.046H126.838V48H124.11ZM132.457 52.752V39.662C132.457 39.2073 132.442 38.7453 132.413 38.276C132.383 37.8067 132.339 37.3447 132.281 36.89H134.943L135.185 39.222H134.943C135.163 38.4447 135.625 37.8287 136.329 37.374C137.047 36.9047 137.876 36.67 138.815 36.67C139.797 36.67 140.655 36.9047 141.389 37.374C142.122 37.8287 142.694 38.4887 143.105 39.354C143.515 40.2047 143.721 41.2313 143.721 42.434C143.721 43.6367 143.515 44.6707 143.105 45.536C142.694 46.4013 142.122 47.0687 141.389 47.538C140.655 47.9927 139.797 48.22 138.815 48.22C137.891 48.22 137.077 47.9927 136.373 47.538C135.669 47.0833 135.199 46.4747 134.965 45.712H135.207V52.752H132.457ZM138.045 46.108C138.925 46.108 139.629 45.8073 140.157 45.206C140.685 44.59 140.949 43.666 140.949 42.434C140.949 41.202 140.685 40.2853 140.157 39.684C139.629 39.0827 138.925 38.782 138.045 38.782C137.179 38.782 136.483 39.0827 135.955 39.684C135.427 40.2853 135.163 41.202 135.163 42.434C135.163 43.666 135.427 44.59 135.955 45.206C136.483 45.8073 137.179 46.108 138.045 46.108ZM151.416 48.22C150.272 48.22 149.282 47.9853 148.446 47.516C147.61 47.0467 146.957 46.3793 146.488 45.514C146.033 44.6487 145.806 43.622 145.806 42.434C145.806 41.246 146.033 40.2267 146.488 39.376C146.957 38.5107 147.61 37.8433 148.446 37.374C149.282 36.9047 150.272 36.67 151.416 36.67C152.56 36.67 153.55 36.9047 154.386 37.374C155.237 37.8433 155.889 38.5107 156.344 39.376C156.813 40.2267 157.048 41.246 157.048 42.434C157.048 43.622 156.813 44.6487 156.344 45.514C155.889 46.3793 155.237 47.0467 154.386 47.516C153.55 47.9853 152.56 48.22 151.416 48.22ZM151.416 46.108C152.281 46.108 152.971 45.8073 153.484 45.206C153.997 44.59 154.254 43.666 154.254 42.434C154.254 41.202 153.997 40.2853 153.484 39.684C152.971 39.0827 152.281 38.782 151.416 38.782C150.551 38.782 149.861 39.0827 149.348 39.684C148.835 40.2853 148.578 41.202 148.578 42.434C148.578 43.666 148.835 44.59 149.348 45.206C149.861 45.8073 150.551 46.108 151.416 46.108ZM159.654 48V36.89H162.14V45.294H161.48L167.794 36.89H170.06V48H167.574V39.574H168.256L161.92 48H159.654ZM164.846 35.878C164.112 35.878 163.467 35.7607 162.91 35.526C162.352 35.2767 161.89 34.932 161.524 34.492C161.157 34.0373 160.893 33.502 160.732 32.886L162.14 32.402C162.389 33.0767 162.734 33.5753 163.174 33.898C163.614 34.206 164.178 34.36 164.868 34.36C165.557 34.36 166.122 34.206 166.562 33.898C167.002 33.59 167.361 33.0987 167.64 32.424L168.982 32.886C168.674 33.8687 168.16 34.6167 167.442 35.13C166.738 35.6287 165.872 35.878 164.846 35.878ZM178.381 48.22C177.237 48.22 176.232 47.9853 175.367 47.516C174.516 47.0467 173.856 46.3793 173.387 45.514C172.918 44.634 172.683 43.5927 172.683 42.39C172.683 41.1873 172.918 40.1607 173.387 39.31C173.871 38.4593 174.538 37.8067 175.389 37.352C176.24 36.8973 177.237 36.67 178.381 36.67C179.114 36.67 179.826 36.7873 180.515 37.022C181.219 37.242 181.791 37.5647 182.231 37.99L181.395 39.904C180.999 39.5373 180.552 39.266 180.053 39.09C179.569 38.8993 179.092 38.804 178.623 38.804C177.64 38.804 176.87 39.112 176.313 39.728C175.77 40.344 175.499 41.2387 175.499 42.412C175.499 43.5853 175.77 44.4873 176.313 45.118C176.87 45.7487 177.64 46.064 178.623 46.064C179.078 46.064 179.547 45.976 180.031 45.8C180.53 45.624 180.984 45.3527 181.395 44.986L182.231 46.878C181.776 47.3033 181.197 47.6333 180.493 47.868C179.804 48.1027 179.1 48.22 178.381 48.22ZM186.974 48V39.046H183.168V36.89H193.53V39.046H189.702V48H186.974ZM195.232 48V36.89H201.15C202.543 36.89 203.563 37.1467 204.208 37.66C204.853 38.1587 205.176 38.87 205.176 39.794C205.176 40.498 204.941 41.0847 204.472 41.554C204.003 42.0233 203.379 42.3167 202.602 42.434V42.126C203.555 42.1847 204.289 42.4633 204.802 42.962C205.315 43.4607 205.572 44.106 205.572 44.898C205.572 45.8513 205.205 46.6067 204.472 47.164C203.739 47.7213 202.697 48 201.348 48H195.232ZM197.784 46.306H201.062C201.707 46.306 202.199 46.174 202.536 45.91C202.888 45.646 203.064 45.2573 203.064 44.744C203.064 44.2307 202.888 43.842 202.536 43.578C202.199 43.314 201.707 43.182 201.062 43.182H197.784V46.306ZM197.784 41.488H200.82C201.407 41.488 201.861 41.3633 202.184 41.114C202.507 40.85 202.668 40.4833 202.668 40.014C202.668 39.5447 202.507 39.1853 202.184 38.936C201.861 38.6867 201.407 38.562 200.82 38.562H197.784V41.488ZM213.076 48.22C211.932 48.22 210.942 47.9853 210.106 47.516C209.27 47.0467 208.617 46.3793 208.148 45.514C207.693 44.6487 207.466 43.622 207.466 42.434C207.466 41.246 207.693 40.2267 208.148 39.376C208.617 38.5107 209.27 37.8433 210.106 37.374C210.942 36.9047 211.932 36.67 213.076 36.67C214.22 36.67 215.21 36.9047 216.046 37.374C216.897 37.8433 217.549 38.5107 218.004 39.376C218.473 40.2267 218.708 41.246 218.708 42.434C218.708 43.622 218.473 44.6487 218.004 45.514C217.549 46.3793 216.897 47.0467 216.046 47.516C215.21 47.9853 214.22 48.22 213.076 48.22ZM213.076 46.108C213.941 46.108 214.631 45.8073 215.144 45.206C215.657 44.59 215.914 43.666 215.914 42.434C215.914 41.202 215.657 40.2853 215.144 39.684C214.631 39.0827 213.941 38.782 213.076 38.782C212.211 38.782 211.521 39.0827 211.008 39.684C210.495 40.2853 210.238 41.202 210.238 42.434C210.238 43.666 210.495 44.59 211.008 45.206C211.521 45.8073 212.211 46.108 213.076 46.108ZM227.269 48V36.934H232.725C234.03 36.934 234.998 37.1833 235.629 37.682C236.274 38.1807 236.597 38.8993 236.597 39.838C236.597 40.542 236.355 41.136 235.871 41.62C235.387 42.0893 234.756 42.3753 233.979 42.478V42.192C234.903 42.2213 235.629 42.4927 236.157 43.006C236.699 43.5047 236.971 44.15 236.971 44.942C236.971 45.8807 236.611 46.6287 235.893 47.186C235.189 47.7287 234.199 48 232.923 48H227.269ZM229.161 46.68H232.791C233.539 46.68 234.111 46.526 234.507 46.218C234.903 45.8953 235.101 45.4407 235.101 44.854C235.101 44.2527 234.903 43.798 234.507 43.49C234.111 43.182 233.539 43.028 232.791 43.028H229.161V46.68ZM229.161 41.708H232.549C233.238 41.708 233.773 41.554 234.155 41.246C234.536 40.938 234.727 40.5127 234.727 39.97C234.727 39.4127 234.536 38.9873 234.155 38.694C233.773 38.4007 233.238 38.254 232.549 38.254H229.161V41.708ZM250.196 48.198C249.111 48.198 248.172 47.9707 247.38 47.516C246.588 47.0467 245.972 46.3867 245.532 45.536C245.092 44.6707 244.872 43.644 244.872 42.456C244.872 41.2827 245.092 40.2707 245.532 39.42C245.972 38.5547 246.588 37.8947 247.38 37.44C248.172 36.9707 249.111 36.736 250.196 36.736C251.281 36.736 252.22 36.9707 253.012 37.44C253.819 37.8947 254.435 38.5547 254.86 39.42C255.3 40.2707 255.52 41.2827 255.52 42.456C255.52 43.644 255.3 44.6707 254.86 45.536C254.435 46.3867 253.819 47.0467 253.012 47.516C252.22 47.9707 251.281 48.198 250.196 48.198ZM250.196 46.614C251.193 46.614 251.993 46.262 252.594 45.558C253.195 44.854 253.496 43.82 253.496 42.456C253.496 41.092 253.195 40.0653 252.594 39.376C251.993 38.6867 251.193 38.342 250.196 38.342C249.184 38.342 248.377 38.6867 247.776 39.376C247.189 40.0653 246.896 41.092 246.896 42.456C246.896 43.82 247.189 44.854 247.776 45.558C248.377 46.262 249.184 46.614 250.196 46.614ZM258.378 48V36.934H260.358V41.51H266.21V36.934H268.19V48H266.21V43.094H260.358V48H258.378ZM271.084 48.264L270.38 46.702C270.894 46.4673 271.319 46.1887 271.656 45.866C272.008 45.5287 272.28 45.1033 272.47 44.59C272.676 44.0767 272.822 43.4387 272.91 42.676C272.998 41.9133 273.042 40.9893 273.042 39.904V36.934H281.204V48H279.224V38.496H274.89V39.948C274.89 41.6493 274.758 43.0573 274.494 44.172C274.245 45.272 273.842 46.1447 273.284 46.79C272.742 47.4353 272.008 47.9267 271.084 48.264ZM288.922 48.198C287.954 48.198 287.103 47.9707 286.37 47.516C285.637 47.0613 285.065 46.4013 284.654 45.536C284.243 44.6707 284.038 43.644 284.038 42.456C284.038 41.268 284.243 40.2487 284.654 39.398C285.065 38.5327 285.637 37.8727 286.37 37.418C287.103 36.9633 287.954 36.736 288.922 36.736C289.905 36.736 290.755 36.9853 291.474 37.484C292.207 37.968 292.691 38.6353 292.926 39.486H292.662L292.904 36.934H294.84C294.796 37.374 294.752 37.814 294.708 38.254C294.679 38.694 294.664 39.1267 294.664 39.552V48H292.662V45.47H292.904C292.669 46.306 292.185 46.9733 291.452 47.472C290.733 47.956 289.89 48.198 288.922 48.198ZM289.384 46.614C290.381 46.614 291.181 46.262 291.782 45.558C292.383 44.854 292.684 43.82 292.684 42.456C292.684 41.092 292.383 40.0653 291.782 39.376C291.181 38.6867 290.381 38.342 289.384 38.342C288.387 38.342 287.58 38.6867 286.964 39.376C286.363 40.0653 286.062 41.092 286.062 42.456C286.062 43.82 286.363 44.854 286.964 45.558C287.565 46.262 288.372 46.614 289.384 46.614ZM298.189 48V36.934H300.015V46.108H299.421L306.285 36.934H307.957V48H306.131V38.804H306.747L299.861 48H298.189ZM303.073 35.922C302.442 35.922 301.863 35.812 301.335 35.592C300.807 35.372 300.352 35.0567 299.971 34.646C299.604 34.2207 299.325 33.6927 299.135 33.062L300.279 32.644C300.543 33.348 300.902 33.8687 301.357 34.206C301.811 34.5287 302.383 34.69 303.073 34.69C303.777 34.69 304.356 34.536 304.811 34.228C305.265 33.92 305.661 33.3993 305.999 32.666L307.077 33.062C306.71 34.0593 306.175 34.7853 305.471 35.24C304.781 35.6947 303.982 35.922 303.073 35.922ZM311.38 48V36.934H313.36V41.51H319.212V36.934H321.192V48H319.212V43.094H313.36V48H311.38ZM324.46 42.786V41.158H330.818V42.786H324.46ZM33.716 72V60.934H43.462V72H41.482V62.496H35.696V72H33.716ZM46.9519 76.752V63.552C46.9519 63.1267 46.9373 62.694 46.9079 62.254C46.8786 61.814 46.8346 61.374 46.7759 60.934H48.7119L48.9539 63.486H48.7119C48.9319 62.6353 49.4013 61.968 50.1199 61.484C50.8386 60.9853 51.6966 60.736 52.6939 60.736C53.6766 60.736 54.5346 60.9633 55.2679 61.418C56.0013 61.8727 56.5659 62.5327 56.9619 63.398C57.3726 64.2487 57.5779 65.268 57.5779 66.456C57.5779 67.644 57.3726 68.6707 56.9619 69.536C56.5659 70.4013 56.0013 71.0613 55.2679 71.516C54.5346 71.9707 53.6766 72.198 52.6939 72.198C51.7113 72.198 50.8606 71.956 50.1419 71.472C49.4379 70.9733 48.9613 70.306 48.7119 69.47H48.9539V76.752H46.9519ZM52.2319 70.614C53.2439 70.614 54.0506 70.262 54.6519 69.558C55.2533 68.854 55.5539 67.82 55.5539 66.456C55.5539 65.092 55.2533 64.0653 54.6519 63.376C54.0506 62.6867 53.2439 62.342 52.2319 62.342C51.2199 62.342 50.4133 62.6867 49.8119 63.376C49.2253 64.0653 48.9319 65.092 48.9319 66.456C48.9319 67.82 49.2253 68.854 49.8119 69.558C50.4133 70.262 51.2199 70.614 52.2319 70.614ZM65.1726 72.198C64.0872 72.198 63.1486 71.9707 62.3566 71.516C61.5646 71.0467 60.9486 70.3867 60.5086 69.536C60.0686 68.6707 59.8486 67.644 59.8486 66.456C59.8486 65.2827 60.0686 64.2707 60.5086 63.42C60.9486 62.5547 61.5646 61.8947 62.3566 61.44C63.1486 60.9707 64.0872 60.736 65.1726 60.736C66.2579 60.736 67.1966 60.9707 67.9886 61.44C68.7952 61.8947 69.4112 62.5547 69.8366 63.42C70.2766 64.2707 70.4966 65.2827 70.4966 66.456C70.4966 67.644 70.2766 68.6707 69.8366 69.536C69.4112 70.3867 68.7952 71.0467 67.9886 71.516C67.1966 71.9707 66.2579 72.198 65.1726 72.198ZM65.1726 70.614C66.1699 70.614 66.9692 70.262 67.5706 69.558C68.1719 68.854 68.4726 67.82 68.4726 66.456C68.4726 65.092 68.1719 64.0653 67.5706 63.376C66.9692 62.6867 66.1699 62.342 65.1726 62.342C64.1606 62.342 63.3539 62.6867 62.7526 63.376C62.1659 64.0653 61.8726 65.092 61.8726 66.456C61.8726 67.82 62.1659 68.854 62.7526 69.558C63.3539 70.262 64.1606 70.614 65.1726 70.614ZM78.4587 72.198C76.6987 72.198 75.3053 71.692 74.2787 70.68C73.2667 69.668 72.7607 68.2747 72.7607 66.5C72.7607 65.3267 72.9807 64.3147 73.4207 63.464C73.8753 62.5987 74.4987 61.9313 75.2907 61.462C76.0827 60.978 77.0067 60.736 78.0627 60.736C79.0747 60.736 79.9327 60.956 80.6367 61.396C81.3407 61.8213 81.876 62.43 82.2427 63.222C82.6093 64.014 82.7927 64.9527 82.7927 66.038V66.698H74.3227V65.51H81.4287L81.0547 65.796C81.0547 64.652 80.798 63.7647 80.2847 63.134C79.786 62.5033 79.0453 62.188 78.0627 62.188C76.992 62.188 76.1633 62.562 75.5767 63.31C74.99 64.0433 74.6967 65.048 74.6967 66.324V66.522C74.6967 67.8713 75.0267 68.8907 75.6867 69.58C76.3613 70.2693 77.2927 70.614 78.4807 70.614C79.1407 70.614 79.7567 70.5187 80.3287 70.328C80.9007 70.1373 81.4507 69.822 81.9787 69.382L82.6387 70.768C82.14 71.2227 81.5167 71.5747 80.7687 71.824C80.0353 72.0733 79.2653 72.198 78.4587 72.198ZM85.5793 72V60.934H87.5593V65.51H89.5613L93.1253 60.934H95.3033L91.1673 66.324L90.6393 65.708C91.0646 65.752 91.4313 65.862 91.7393 66.038C92.0473 66.1993 92.3406 66.4413 92.6193 66.764C92.9126 67.0867 93.2279 67.5193 93.5653 68.062L95.8533 72H93.6973L91.6953 68.59C91.4753 68.194 91.2553 67.886 91.0353 67.666C90.8153 67.446 90.5659 67.292 90.2873 67.204C90.0233 67.116 89.6859 67.072 89.2753 67.072H87.5593V72H85.5793ZM99.9436 72V62.54H95.9616V60.934H105.906V62.54H101.924V72H99.9436ZM107.73 72V60.934H109.71V64.85H112.966C114.403 64.85 115.481 65.158 116.2 65.774C116.933 66.3753 117.3 67.248 117.3 68.392C117.3 69.1253 117.131 69.7633 116.794 70.306C116.456 70.8487 115.965 71.2667 115.32 71.56C114.674 71.8533 113.89 72 112.966 72H107.73ZM109.71 70.614H112.746C113.626 70.614 114.286 70.438 114.726 70.086C115.18 69.7193 115.408 69.162 115.408 68.414C115.408 67.666 115.18 67.116 114.726 66.764C114.286 66.412 113.626 66.236 112.746 66.236H109.71V70.614ZM118.906 72V60.934H120.886V72H118.906Z" fill="#343434"/>
<circle cx="346" cy="22" r="6" fill="#343434" fill-opacity="0.12"/>
<defs>
<linearGradient id="paint0_linear_102_334" x1="184" y1="0" x2="184" y2="104" gradientUnits="userSpaceOnUse">
<stop stop-color="#F0ECD3" stop-opacity="0.64"/>
<stop offset="1" stop-color="#F0ECD3" stop-opacity="0"/>
</linearGradient>
</defs>
</svg>
