<svg width="368" height="104" viewBox="0 0 368 104" fill="none" xmlns="http://www.w3.org/2000/svg">
<rect width="368" height="104" rx="16" fill="url(#paint0_linear_102_340)"/>
<path d="M33.716 48V32.49H47.29V48H44.474V34.8H36.51V48H33.716ZM55.6601 48.22C54.5161 48.22 53.5261 47.9853 52.6901 47.516C51.8541 47.0467 51.2015 46.3793 50.7321 45.514C50.2775 44.6487 50.0501 43.622 50.0501 42.434C50.0501 41.246 50.2775 40.2267 50.7321 39.376C51.2015 38.5107 51.8541 37.8433 52.6901 37.374C53.5261 36.9047 54.5161 36.67 55.6601 36.67C56.8041 36.67 57.7941 36.9047 58.6301 37.374C59.4808 37.8433 60.1335 38.5107 60.5881 39.376C61.0575 40.2267 61.2921 41.246 61.2921 42.434C61.2921 43.622 61.0575 44.6487 60.5881 45.514C60.1335 46.3793 59.4808 47.0467 58.6301 47.516C57.7941 47.9853 56.8041 48.22 55.6601 48.22ZM55.6601 46.108C56.5255 46.108 57.2148 45.8073 57.7281 45.206C58.2415 44.59 58.4981 43.666 58.4981 42.434C58.4981 41.202 58.2415 40.2853 57.7281 39.684C57.2148 39.0827 56.5255 38.782 55.6601 38.782C54.7948 38.782 54.1055 39.0827 53.5921 39.684C53.0788 40.2853 52.8221 41.202 52.8221 42.434C52.8221 43.666 53.0788 44.59 53.5921 45.206C54.1055 45.8073 54.7948 46.108 55.6601 46.108ZM62.9079 50.86V45.91H64.1839C64.6239 45.2207 64.9393 44.414 65.1299 43.49C65.3353 42.5513 65.4379 41.4073 65.4379 40.058V36.89H73.9959V45.91H75.7999V50.86H73.4679V48H65.2399V50.86H62.9079ZM66.6479 45.932H71.4219V38.958H67.7699V40.674C67.7699 41.6567 67.6746 42.6173 67.4839 43.556C67.2933 44.4947 67.0146 45.2867 66.6479 45.932ZM76.8298 50.86V45.91H78.1058C78.5458 45.2207 78.8611 44.414 79.0518 43.49C79.2571 42.5513 79.3598 41.4073 79.3598 40.058V36.89H87.9178V45.91H89.7218V50.86H87.3898V48H79.1618V50.86H76.8298ZM80.5698 45.932H85.3438V38.958H81.6918V40.674C81.6918 41.6567 81.5965 42.6173 81.4058 43.556C81.2151 44.4947 80.9365 45.2867 80.5698 45.932ZM97.1977 48.22C95.335 48.22 93.8757 47.7067 92.8197 46.68C91.7637 45.6533 91.2357 44.2453 91.2357 42.456C91.2357 41.2973 91.463 40.2853 91.9177 39.42C92.3724 38.5547 93.003 37.88 93.8097 37.396C94.631 36.912 95.5844 36.67 96.6697 36.67C97.7404 36.67 98.635 36.8973 99.3537 37.352C100.072 37.8067 100.615 38.4447 100.982 39.266C101.363 40.0873 101.554 41.048 101.554 42.148V42.874H93.4577V41.422H99.5957L99.2217 41.73C99.2217 40.7033 99.0017 39.9187 98.5617 39.376C98.1364 38.8333 97.513 38.562 96.6917 38.562C95.7824 38.562 95.0784 38.8847 94.5797 39.53C94.0957 40.1753 93.8537 41.0773 93.8537 42.236V42.522C93.8537 43.7247 94.147 44.6267 94.7337 45.228C95.335 45.8147 96.1784 46.108 97.2637 46.108C97.8944 46.108 98.481 46.0273 99.0237 45.866C99.581 45.69 100.109 45.4113 100.608 45.03L101.422 46.878C100.894 47.3033 100.263 47.6333 99.5297 47.868C98.7964 48.1027 98.019 48.22 97.1977 48.22ZM104.183 52.752V39.662C104.183 39.2073 104.169 38.7453 104.139 38.276C104.11 37.8067 104.066 37.3447 104.007 36.89H106.669L106.911 39.222H106.669C106.889 38.4447 107.351 37.8287 108.055 37.374C108.774 36.9047 109.603 36.67 110.541 36.67C111.524 36.67 112.382 36.9047 113.115 37.374C113.849 37.8287 114.421 38.4887 114.831 39.354C115.242 40.2047 115.447 41.2313 115.447 42.434C115.447 43.6367 115.242 44.6707 114.831 45.536C114.421 46.4013 113.849 47.0687 113.115 47.538C112.382 47.9927 111.524 48.22 110.541 48.22C109.617 48.22 108.803 47.9927 108.099 47.538C107.395 47.0833 106.926 46.4747 106.691 45.712H106.933V52.752H104.183ZM109.771 46.108C110.651 46.108 111.355 45.8073 111.883 45.206C112.411 44.59 112.675 43.666 112.675 42.434C112.675 41.202 112.411 40.2853 111.883 39.684C111.355 39.0827 110.651 38.782 109.771 38.782C108.906 38.782 108.209 39.0827 107.681 39.684C107.153 40.2853 106.889 41.202 106.889 42.434C106.889 43.666 107.153 44.59 107.681 45.206C108.209 45.8073 108.906 46.108 109.771 46.108ZM116.367 48L118.699 43.842C118.992 43.358 119.271 42.962 119.535 42.654C119.813 42.3313 120.114 42.082 120.437 41.906C120.759 41.73 121.126 41.62 121.537 41.576L120.965 42.434L116.851 36.89H119.799L123.077 41.246H124.463V36.89H127.191V41.246H128.555L131.811 36.89H134.781L130.645 42.434L130.073 41.576C130.483 41.62 130.85 41.73 131.173 41.906C131.495 42.082 131.796 42.3313 132.075 42.654C132.368 42.962 132.654 43.358 132.933 43.842L135.265 48H132.339L130.447 44.656C130.256 44.3187 130.065 44.0547 129.875 43.864C129.684 43.6733 129.471 43.5413 129.237 43.468C129.002 43.3947 128.716 43.358 128.379 43.358H127.191V48H124.463V43.358H123.253C122.915 43.358 122.629 43.3947 122.395 43.468C122.16 43.5413 121.947 43.6733 121.757 43.864C121.581 44.0547 121.39 44.3187 121.185 44.656L119.293 48H116.367ZM136.708 48V36.89H139.436V41.246H141.108L144.364 36.89H147.312L143.22 42.434L142.626 41.576C143.037 41.62 143.396 41.73 143.704 41.906C144.027 42.082 144.328 42.3313 144.606 42.654C144.9 42.962 145.186 43.358 145.464 43.842L147.796 48H144.87L142.978 44.656C142.788 44.3187 142.597 44.0547 142.406 43.864C142.216 43.6733 142.003 43.5413 141.768 43.468C141.534 43.3947 141.248 43.358 140.91 43.358H139.436V48H136.708ZM149.123 52.994L148.485 50.816C149.175 50.6693 149.754 50.5007 150.223 50.31C150.693 50.1193 151.081 49.87 151.389 49.562C151.697 49.254 151.954 48.858 152.159 48.374L152.709 47.076L152.643 48.154L147.803 36.89H150.729L154.205 45.558H153.567L157.065 36.89H159.837L154.777 48.616C154.44 49.408 154.073 50.0607 153.677 50.574C153.281 51.102 152.856 51.52 152.401 51.828C151.947 52.1507 151.448 52.4 150.905 52.576C150.363 52.752 149.769 52.8913 149.123 52.994ZM167.456 48V36.934H172.912C174.218 36.934 175.186 37.1833 175.816 37.682C176.462 38.1807 176.784 38.8993 176.784 39.838C176.784 40.542 176.542 41.136 176.058 41.62C175.574 42.0893 174.944 42.3753 174.166 42.478V42.192C175.09 42.2213 175.816 42.4927 176.344 43.006C176.887 43.5047 177.158 44.15 177.158 44.942C177.158 45.8807 176.799 46.6287 176.08 47.186C175.376 47.7287 174.386 48 173.11 48H167.456ZM169.348 46.68H172.978C173.726 46.68 174.298 46.526 174.694 46.218C175.09 45.8953 175.288 45.4407 175.288 44.854C175.288 44.2527 175.09 43.798 174.694 43.49C174.298 43.182 173.726 43.028 172.978 43.028H169.348V46.68ZM169.348 41.708H172.736C173.426 41.708 173.961 41.554 174.342 41.246C174.724 40.938 174.914 40.5127 174.914 39.97C174.914 39.4127 174.724 38.9873 174.342 38.694C173.961 38.4007 173.426 38.254 172.736 38.254H169.348V41.708ZM184.51 50.86V46.438H185.72C186.218 45.69 186.578 44.81 186.798 43.798C187.032 42.786 187.15 41.5833 187.15 40.19V36.934H195.092V46.438H196.852V50.86H195.136V48H186.248V50.86H184.51ZM187.612 46.46H193.222V38.474H188.91V40.542C188.91 41.6567 188.8 42.742 188.58 43.798C188.36 44.8393 188.037 45.7267 187.612 46.46ZM204.271 48.198C202.511 48.198 201.118 47.692 200.091 46.68C199.079 45.668 198.573 44.2747 198.573 42.5C198.573 41.3267 198.793 40.3147 199.233 39.464C199.688 38.5987 200.311 37.9313 201.103 37.462C201.895 36.978 202.819 36.736 203.875 36.736C204.887 36.736 205.745 36.956 206.449 37.396C207.153 37.8213 207.689 38.43 208.055 39.222C208.422 40.014 208.605 40.9527 208.605 42.038V42.698H200.135V41.51H207.241L206.867 41.796C206.867 40.652 206.611 39.7647 206.097 39.134C205.599 38.5033 204.858 38.188 203.875 38.188C202.805 38.188 201.976 38.562 201.389 39.31C200.803 40.0433 200.509 41.048 200.509 42.324V42.522C200.509 43.8713 200.839 44.8907 201.499 45.58C202.174 46.2693 203.105 46.614 204.293 46.614C204.953 46.614 205.569 46.5187 206.141 46.328C206.713 46.1373 207.263 45.822 207.791 45.382L208.451 46.768C207.953 47.2227 207.329 47.5747 206.581 47.824C205.848 48.0733 205.078 48.198 204.271 48.198ZM211.392 48V36.934H213.372V41.51H215.374L218.938 36.934H221.116L216.98 42.324L216.452 41.708C216.877 41.752 217.244 41.862 217.552 42.038C217.86 42.1993 218.153 42.4413 218.432 42.764C218.725 43.0867 219.04 43.5193 219.378 44.062L221.666 48H219.51L217.508 44.59C217.288 44.194 217.068 43.886 216.848 43.666C216.628 43.446 216.378 43.292 216.1 43.204C215.836 43.116 215.498 43.072 215.088 43.072H213.372V48H211.392ZM223.446 52.752V39.552C223.446 39.1267 223.431 38.694 223.402 38.254C223.373 37.814 223.329 37.374 223.27 36.934H225.206L225.448 39.486H225.206C225.426 38.6353 225.895 37.968 226.614 37.484C227.333 36.9853 228.191 36.736 229.188 36.736C230.171 36.736 231.029 36.9633 231.762 37.418C232.495 37.8727 233.06 38.5327 233.456 39.398C233.867 40.2487 234.072 41.268 234.072 42.456C234.072 43.644 233.867 44.6707 233.456 45.536C233.06 46.4013 232.495 47.0613 231.762 47.516C231.029 47.9707 230.171 48.198 229.188 48.198C228.205 48.198 227.355 47.956 226.636 47.472C225.932 46.9733 225.455 46.306 225.206 45.47H225.448V52.752H223.446ZM228.726 46.614C229.738 46.614 230.545 46.262 231.146 45.558C231.747 44.854 232.048 43.82 232.048 42.456C232.048 41.092 231.747 40.0653 231.146 39.376C230.545 38.6867 229.738 38.342 228.726 38.342C227.714 38.342 226.907 38.6867 226.306 39.376C225.719 40.0653 225.426 41.092 225.426 42.456C225.426 43.82 225.719 44.854 226.306 45.558C226.907 46.262 227.714 46.614 228.726 46.614ZM242.041 48.198C240.281 48.198 238.887 47.692 237.861 46.68C236.849 45.668 236.343 44.2747 236.343 42.5C236.343 41.3267 236.563 40.3147 237.003 39.464C237.457 38.5987 238.081 37.9313 238.873 37.462C239.665 36.978 240.589 36.736 241.645 36.736C242.657 36.736 243.515 36.956 244.219 37.396C244.923 37.8213 245.458 38.43 245.825 39.222C246.191 40.014 246.375 40.9527 246.375 42.038V42.698H237.905V41.51H245.011L244.637 41.796C244.637 40.652 244.38 39.7647 243.867 39.134C243.368 38.5033 242.627 38.188 241.645 38.188C240.574 38.188 239.745 38.562 239.159 39.31C238.572 40.0433 238.279 41.048 238.279 42.324V42.522C238.279 43.8713 238.609 44.8907 239.269 45.58C239.943 46.2693 240.875 46.614 242.063 46.614C242.723 46.614 243.339 46.5187 243.911 46.328C244.483 46.1373 245.033 45.822 245.561 45.382L246.221 46.768C245.722 47.2227 245.099 47.5747 244.351 47.824C243.617 48.0733 242.847 48.198 242.041 48.198ZM251.537 48V38.54H247.555V36.934H257.499V38.54H253.517V48H251.537ZM264.363 48.198C262.603 48.198 261.21 47.692 260.183 46.68C259.171 45.668 258.665 44.2747 258.665 42.5C258.665 41.3267 258.885 40.3147 259.325 39.464C259.78 38.5987 260.403 37.9313 261.195 37.462C261.987 36.978 262.911 36.736 263.967 36.736C264.979 36.736 265.837 36.956 266.541 37.396C267.245 37.8213 267.78 38.43 268.147 39.222C268.514 40.014 268.697 40.9527 268.697 42.038V42.698H260.227V41.51H267.333L266.959 41.796C266.959 40.652 266.702 39.7647 266.189 39.134C265.69 38.5033 264.95 38.188 263.967 38.188C262.896 38.188 262.068 38.562 261.481 39.31C260.894 40.0433 260.601 41.048 260.601 42.324V42.522C260.601 43.8713 260.931 44.8907 261.591 45.58C262.266 46.2693 263.197 46.614 264.385 46.614C265.045 46.614 265.661 46.5187 266.233 46.328C266.805 46.1373 267.355 45.822 267.883 45.382L268.543 46.768C268.044 47.2227 267.421 47.5747 266.673 47.824C265.94 48.0733 265.17 48.198 264.363 48.198Z" fill="#343434"/>
<circle cx="346" cy="22" r="6" fill="#343434" fill-opacity="0.12"/>
<defs>
<linearGradient id="paint0_linear_102_340" x1="184" y1="0" x2="184" y2="104" gradientUnits="userSpaceOnUse">
<stop stop-color="#F0ECD3" stop-opacity="0.64"/>
<stop offset="1" stop-color="#F0ECD3" stop-opacity="0"/>
</linearGradient>
</defs>
</svg>
