<svg width="384" height="116" viewBox="0 0 384 116" fill="none" xmlns="http://www.w3.org/2000/svg">
<path d="M38.8052 35V25.04C38.1652 25.28 37.3385 25.48 36.3252 25.64C35.3385 25.8 34.3385 25.88 33.3252 25.88C29.4318 25.88 26.4318 24.8933 24.3252 22.92C22.2185 20.92 21.1652 17.8667 21.1652 13.76V6.8H28.4852V13.52C28.4852 15.76 28.9518 17.3733 29.8852 18.36C30.8452 19.32 32.2985 19.8 34.2452 19.8C34.9652 19.8 35.7252 19.7333 36.5252 19.6C37.3518 19.4667 38.1118 19.2667 38.8052 19V6.8H46.1252V35H38.8052ZM54.5783 35V20.16H48.0983V14.68H68.1383V20.16H61.6183V35H54.5783ZM79.8489 35.44C77.5822 35.44 75.6222 35.0133 73.9689 34.16C72.3156 33.3067 71.0356 32.0933 70.1289 30.52C69.2222 28.92 68.7689 27.0267 68.7689 24.84C68.7689 22.6267 69.2222 20.7333 70.1289 19.16C71.0356 17.5867 72.3156 16.3733 73.9689 15.52C75.6222 14.6667 77.5822 14.24 79.8489 14.24C82.0889 14.24 84.0356 14.6667 85.6889 15.52C87.3422 16.3733 88.6222 17.6 89.5289 19.2C90.4356 20.7733 90.8889 22.6533 90.8889 24.84C90.8889 27 90.4356 28.88 89.5289 30.48C88.6222 32.08 87.3422 33.3067 85.6889 34.16C84.0356 35.0133 82.0889 35.44 79.8489 35.44ZM79.8489 30.16C81.0222 30.16 81.9556 29.7467 82.6489 28.92C83.3422 28.0667 83.6889 26.7067 83.6889 24.84C83.6889 22.9733 83.3422 21.6267 82.6489 20.8C81.9556 19.9467 81.0222 19.52 79.8489 19.52C78.6489 19.52 77.7022 19.9467 77.0089 20.8C76.3156 21.6267 75.9689 22.9733 75.9689 24.84C75.9689 26.7067 76.3156 28.0667 77.0089 28.92C77.7022 29.7467 78.6489 30.16 79.8489 30.16ZM108.922 35V20.16H102.442V14.68H122.482V20.16H115.962V35H108.922ZM124.185 35V14.68H131.265V20.88H135.665C138.492 20.88 140.612 21.4667 142.025 22.64C143.438 23.7867 144.145 25.4933 144.145 27.76C144.145 29.2 143.798 30.4667 143.105 31.56C142.412 32.6533 141.425 33.5067 140.145 34.12C138.892 34.7067 137.398 35 135.665 35H124.185ZM131.265 30.56H134.465C135.505 30.56 136.305 30.3333 136.865 29.88C137.452 29.4267 137.745 28.76 137.745 27.88C137.745 26.9733 137.465 26.32 136.905 25.92C136.372 25.52 135.558 25.32 134.465 25.32H131.265V30.56ZM146.025 35V14.68H153.065V35H146.025ZM167.459 35V14.68H188.219V35H181.179V20.04H174.539V35H167.459ZM202.325 35.44C200.059 35.44 198.099 35.0133 196.445 34.16C194.792 33.3067 193.512 32.0933 192.605 30.52C191.699 28.92 191.245 27.0267 191.245 24.84C191.245 22.6267 191.699 20.7333 192.605 19.16C193.512 17.5867 194.792 16.3733 196.445 15.52C198.099 14.6667 200.059 14.24 202.325 14.24C204.565 14.24 206.512 14.6667 208.165 15.52C209.819 16.3733 211.099 17.6 212.005 19.2C212.912 20.7733 213.365 22.6533 213.365 24.84C213.365 27 212.912 28.88 212.005 30.48C211.099 32.08 209.819 33.3067 208.165 34.16C206.512 35.0133 204.565 35.44 202.325 35.44ZM202.325 30.16C203.499 30.16 204.432 29.7467 205.125 28.92C205.819 28.0667 206.165 26.7067 206.165 24.84C206.165 22.9733 205.819 21.6267 205.125 20.8C204.432 19.9467 203.499 19.52 202.325 19.52C201.125 19.52 200.179 19.9467 199.485 20.8C198.792 21.6267 198.445 22.9733 198.445 24.84C198.445 26.7067 198.792 28.0667 199.485 28.92C200.179 29.7467 201.125 30.16 202.325 30.16ZM216.165 35.68L214.165 30.12C214.965 29.9067 215.645 29.6133 216.205 29.24C216.765 28.84 217.219 28.3333 217.565 27.72C217.939 27.08 218.205 26.3067 218.365 25.4C218.525 24.4667 218.605 23.3867 218.605 22.16V14.68H236.605V35H229.565V20.04H225.005V22.4C225.005 25.0133 224.685 27.2667 224.045 29.16C223.405 31.0267 222.432 32.5067 221.125 33.6C219.845 34.6933 218.192 35.3867 216.165 35.68ZM240.636 44.08L238.956 38.56C240.236 38.32 241.303 38.0533 242.156 37.76C243.036 37.4933 243.756 37.12 244.316 36.64C244.876 36.16 245.316 35.5333 245.636 34.76L246.636 32.44L246.476 35.12L237.596 14.68H245.116L250.316 28.16H248.996L254.356 14.68H261.396L252.276 35.44C251.556 37.0667 250.783 38.4 249.956 39.44C249.156 40.48 248.276 41.3067 247.316 41.92C246.383 42.5333 245.356 42.9867 244.236 43.28C243.143 43.6 241.943 43.8667 240.636 44.08ZM275.123 35V28.6C274.43 28.84 273.736 29.0133 273.043 29.12C272.376 29.2267 271.696 29.28 271.003 29.28C267.883 29.28 265.536 28.5333 263.963 27.04C262.416 25.52 261.643 23.28 261.643 20.32V14.68H268.723V19.68C268.723 21.0933 269.003 22.12 269.563 22.76C270.123 23.3733 271.083 23.68 272.443 23.68C272.923 23.68 273.376 23.64 273.803 23.56C274.23 23.4533 274.616 23.32 274.963 23.16V14.68H282.003V35H275.123ZM285.857 35V14.68H292.257V27.8H290.857L300.777 14.68H306.577V35H300.177V21.88H301.617L291.657 35H285.857ZM310.365 35V14.68H316.965V29.64H322.405V14.68H328.965V29.64H334.405V14.68H341.005V35H310.365ZM344.795 35V14.68H351.875V20.88H356.275C359.101 20.88 361.221 21.4667 362.635 22.64C364.048 23.7867 364.755 25.4933 364.755 27.76C364.755 29.2 364.408 30.4667 363.715 31.56C363.021 32.6533 362.035 33.5067 360.755 34.12C359.501 34.7067 358.008 35 356.275 35H344.795ZM351.875 30.56H355.075C356.115 30.56 356.915 30.3333 357.475 29.88C358.061 29.4267 358.355 28.76 358.355 27.88C358.355 26.9733 358.075 26.32 357.515 25.92C356.981 25.52 356.168 25.32 355.075 25.32H351.875V30.56ZM109.618 75.44C107.352 75.44 105.392 75.0133 103.738 74.16C102.085 73.3067 100.805 72.0933 99.8984 70.52C98.9918 68.92 98.5384 67.0267 98.5384 64.84C98.5384 62.6267 98.9918 60.7333 99.8984 59.16C100.805 57.5867 102.085 56.3733 103.738 55.52C105.392 54.6667 107.352 54.24 109.618 54.24C111.858 54.24 113.805 54.6667 115.458 55.52C117.112 56.3733 118.392 57.6 119.298 59.2C120.205 60.7733 120.658 62.6533 120.658 64.84C120.658 67 120.205 68.88 119.298 70.48C118.392 72.08 117.112 73.3067 115.458 74.16C113.805 75.0133 111.858 75.44 109.618 75.44ZM109.618 70.16C110.792 70.16 111.725 69.7467 112.418 68.92C113.112 68.0667 113.458 66.7067 113.458 64.84C113.458 62.9733 113.112 61.6267 112.418 60.8C111.725 59.9467 110.792 59.52 109.618 59.52C108.418 59.52 107.472 59.9467 106.778 60.8C106.085 61.6267 105.738 62.9733 105.738 64.84C105.738 66.7067 106.085 68.0667 106.778 68.92C107.472 69.7467 108.418 70.16 109.618 70.16ZM128.129 75V60.16H121.649V54.68H141.689V60.16H135.169V75H128.129ZM153.955 75V54.68H161.035V61.96H163.115L168.155 54.68H175.675L168.395 65.2L167.115 62.92C167.835 63 168.488 63.2267 169.075 63.6C169.688 63.9467 170.248 64.4 170.755 64.96C171.261 65.4933 171.688 66.12 172.035 66.84L176.435 75H168.875L165.755 69.12C165.515 68.6667 165.261 68.32 164.995 68.08C164.755 67.8133 164.475 67.6267 164.155 67.52C163.835 67.4133 163.461 67.36 163.035 67.36H161.035V75H153.955ZM177.57 84.08L175.89 78.56C177.17 78.32 178.236 78.0533 179.09 77.76C179.97 77.4933 180.69 77.12 181.25 76.64C181.81 76.16 182.25 75.5333 182.57 74.76L183.57 72.44L183.41 75.12L174.53 54.68H182.05L187.25 68.16H185.93L191.29 54.68H198.33L189.21 75.44C188.49 77.0667 187.716 78.4 186.89 79.44C186.09 80.48 185.21 81.3067 184.25 81.92C183.316 82.5333 182.29 82.9867 181.17 83.28C180.076 83.6 178.876 83.8667 177.57 84.08ZM199.537 83.64V60.2C199.537 59.2933 199.51 58.3733 199.457 57.44C199.403 56.5067 199.323 55.5867 199.217 54.68H206.097L206.537 58.28H206.137C206.51 57.08 207.337 56.1067 208.617 55.36C209.897 54.6133 211.323 54.24 212.897 54.24C214.657 54.24 216.203 54.6667 217.537 55.52C218.87 56.3467 219.91 57.56 220.657 59.16C221.43 60.7333 221.817 62.6267 221.817 64.84C221.817 67.0267 221.43 68.92 220.657 70.52C219.91 72.12 218.87 73.3467 217.537 74.2C216.203 75.0267 214.657 75.44 212.897 75.44C211.35 75.44 209.95 75.0933 208.697 74.4C207.443 73.68 206.617 72.7333 206.217 71.56H206.657V83.64H199.537ZM210.617 70.16C211.843 70.16 212.817 69.7467 213.537 68.92C214.283 68.0667 214.657 66.7067 214.657 64.84C214.657 62.9733 214.283 61.6267 213.537 60.8C212.817 59.9467 211.843 59.52 210.617 59.52C209.417 59.52 208.443 59.9467 207.697 60.8C206.95 61.6267 206.577 62.9733 206.577 64.84C206.577 66.7067 206.95 68.0667 207.697 68.92C208.443 69.7467 209.417 70.16 210.617 70.16ZM235.262 75.44C233.022 75.44 231.062 75.0133 229.382 74.16C227.702 73.3067 226.395 72.0933 225.462 70.52C224.529 68.92 224.062 67.0133 224.062 64.8C224.062 62.5867 224.529 60.6933 225.462 59.12C226.395 57.5467 227.702 56.3467 229.382 55.52C231.062 54.6667 233.022 54.24 235.262 54.24C236.649 54.24 238.009 54.4267 239.342 54.8C240.675 55.1733 241.755 55.7067 242.582 56.4L240.582 61.24C239.942 60.7067 239.209 60.3067 238.382 60.04C237.582 59.7467 236.795 59.6 236.022 59.6C234.555 59.6 233.409 60.04 232.582 60.92C231.782 61.8 231.382 63.0933 231.382 64.8C231.382 66.5067 231.782 67.8133 232.582 68.72C233.409 69.6 234.555 70.04 236.022 70.04C236.769 70.04 237.555 69.9067 238.382 69.64C239.209 69.3467 239.942 68.9467 240.582 68.44L242.582 73.28C241.729 73.9467 240.635 74.48 239.302 74.88C237.995 75.2533 236.649 75.44 235.262 75.44ZM253.271 75.44C251.511 75.44 249.964 75.0267 248.631 74.2C247.298 73.3467 246.244 72.12 245.471 70.52C244.724 68.92 244.351 67.0267 244.351 64.84C244.351 62.6267 244.724 60.7333 245.471 59.16C246.244 57.56 247.298 56.3467 248.631 55.52C249.964 54.6667 251.511 54.24 253.271 54.24C254.844 54.24 256.258 54.6133 257.511 55.36C258.791 56.1067 259.631 57.08 260.031 58.28H259.631L260.071 54.68H266.911C266.831 55.5867 266.751 56.5067 266.671 57.44C266.618 58.3733 266.591 59.2933 266.591 60.2V75H259.551L259.471 71.56H259.951C259.551 72.7333 258.711 73.68 257.431 74.4C256.178 75.0933 254.791 75.44 253.271 75.44ZM255.551 70.16C256.751 70.16 257.724 69.7467 258.471 68.92C259.218 68.0667 259.591 66.7067 259.591 64.84C259.591 62.9733 259.218 61.6267 258.471 60.8C257.724 59.9467 256.751 59.52 255.551 59.52C254.351 59.52 253.378 59.9467 252.631 60.8C251.884 61.6267 251.511 62.9733 251.511 64.84C251.511 66.7067 251.871 68.0667 252.591 68.92C253.338 69.7467 254.324 70.16 255.551 70.16ZM274.566 65.48V63.32C274.566 62.2 274.766 61.1867 275.166 60.28C275.592 59.3467 276.312 58.3867 277.326 57.4C277.992 56.7333 278.459 56.1467 278.726 55.64C279.019 55.1067 279.166 54.6 279.166 54.12C279.166 53.5067 278.926 53.04 278.446 52.72C277.966 52.3733 277.259 52.2 276.326 52.2C275.286 52.2 274.232 52.3867 273.166 52.76C272.099 53.1067 271.099 53.5733 270.166 54.16V48.28C271.152 47.6667 272.312 47.2 273.646 46.88C275.006 46.5333 276.299 46.36 277.526 46.36C279.206 46.36 280.712 46.5867 282.046 47.04C283.379 47.4667 284.432 48.1733 285.206 49.16C285.979 50.1467 286.366 51.4533 286.366 53.08C286.366 53.9867 286.192 54.8533 285.846 55.68C285.499 56.5067 285.032 57.2667 284.446 57.96C283.886 58.6533 283.232 59.28 282.486 59.84C281.179 60.7733 280.286 61.5867 279.806 62.28C279.352 62.9467 279.072 63.5867 278.966 64.2L278.766 65.48H274.566ZM272.926 75V67.72H280.366V75H272.926Z" fill="#343434"/>
<path fill-rule="evenodd" clip-rule="evenodd" d="M124.459 107.463C123.441 108.676 122.907 109.143 122 109.143V116C125.018 116 126.84 113.895 127.98 112.537C129.267 111.004 129.48 110.857 129.85 110.857C130.663 110.857 130.972 111.175 131.925 112.424C131.946 112.451 131.966 112.478 131.987 112.506C133.002 113.837 134.651 116 137.701 116C140.719 116 142.541 113.895 143.681 112.537C144.968 111.004 145.181 110.857 145.551 110.857C146.363 110.857 146.672 111.175 147.626 112.424C147.647 112.451 147.667 112.478 147.688 112.506C148.703 113.837 150.352 116 153.402 116C156.38 116 158.166 113.831 159.247 112.487C160.505 110.923 160.664 110.857 160.925 110.857C161.611 110.857 161.868 111.101 162.798 112.372C162.82 112.403 162.843 112.435 162.867 112.467C163.827 113.782 165.446 116 168.449 116C171.467 116 173.288 113.895 174.428 112.537C175.716 111.004 175.929 110.857 176.299 110.857C177.111 110.857 177.42 111.175 178.374 112.424C178.394 112.451 178.415 112.478 178.436 112.506C179.45 113.837 181.099 116 184.15 116C187.167 116 188.989 113.895 190.129 112.537C191.416 111.004 191.63 110.857 192 110.857C192.812 110.857 193.121 111.175 194.075 112.424C194.095 112.451 194.116 112.478 194.137 112.506C195.151 113.837 196.8 116 199.85 116C202.868 116 204.69 113.895 205.83 112.537C207.117 111.004 207.331 110.857 207.701 110.857C208.513 110.857 208.822 111.175 209.776 112.424C209.796 112.451 209.817 112.478 209.838 112.506C210.852 113.837 212.501 116 215.551 116C218.529 116 220.315 113.831 221.396 112.487C222.655 110.923 222.813 110.857 223.075 110.857C223.761 110.857 224.018 111.101 224.947 112.372C224.97 112.403 224.993 112.435 225.016 112.467C225.977 113.782 227.596 116 230.598 116C233.616 116 235.438 113.895 236.578 112.537C237.865 111.004 238.078 110.857 238.449 110.857C239.261 110.857 239.57 111.175 240.523 112.424C240.544 112.451 240.565 112.478 240.586 112.506C241.6 113.837 243.249 116 246.299 116C249.317 116 251.139 113.895 252.279 112.537C253.566 111.004 253.779 110.857 254.15 110.857C254.962 110.857 255.271 111.175 256.224 112.424L256.287 112.506C257.301 113.837 258.95 116 262 116V109.143C261.188 109.143 260.879 108.825 259.925 107.576L259.863 107.494C258.849 106.163 257.2 104 254.15 104C251.599 104 249.914 106.056 248.982 107.192C248.902 107.29 248.828 107.381 248.758 107.463C247.74 108.676 247.206 109.143 246.299 109.143C245.487 109.143 245.178 108.825 244.224 107.576C244.204 107.549 244.183 107.522 244.162 107.494C243.148 106.163 241.499 104 238.449 104C235.898 104 234.213 106.056 233.281 107.192C233.201 107.29 233.127 107.381 233.057 107.463C232.039 108.676 231.505 109.143 230.598 109.143C229.912 109.143 229.655 108.899 228.726 107.628C228.703 107.597 228.68 107.565 228.657 107.533C227.696 106.218 226.077 104 223.075 104C220.549 104 218.889 106.118 218.008 107.242C217.931 107.341 217.86 107.431 217.794 107.513C216.806 108.74 216.335 109.143 215.551 109.143C214.739 109.143 214.43 108.825 213.477 107.576C213.456 107.549 213.435 107.522 213.414 107.494C212.4 106.163 210.751 104 207.701 104C205.15 104 203.465 106.056 202.534 107.192C202.454 107.29 202.379 107.381 202.31 107.463C201.291 108.676 200.758 109.143 199.85 109.143C199.038 109.143 198.729 108.825 197.776 107.576C197.755 107.549 197.734 107.522 197.713 107.494C196.699 106.163 195.05 104 192 104C189.45 104 187.764 106.056 186.833 107.192C186.753 107.29 186.678 107.381 186.609 107.463C185.59 108.676 185.057 109.143 184.15 109.143C183.337 109.143 183.028 108.825 182.075 107.576C182.054 107.549 182.034 107.522 182.013 107.494C180.998 106.163 179.349 104 176.299 104C173.749 104 172.063 106.056 171.132 107.192C171.052 107.29 170.977 107.381 170.908 107.463C169.889 108.676 169.356 109.143 168.449 109.143C167.763 109.143 167.506 108.899 166.576 107.628C166.554 107.597 166.531 107.565 166.507 107.533C165.547 106.218 163.928 104 160.925 104C158.399 104 156.739 106.118 155.858 107.242C155.781 107.341 155.71 107.431 155.645 107.513C154.657 108.74 154.186 109.143 153.402 109.143C152.59 109.143 152.281 108.825 151.327 107.576C151.307 107.549 151.286 107.522 151.265 107.494C150.251 106.163 148.602 104 145.551 104C143.001 104 141.316 106.056 140.384 107.192C140.304 107.29 140.229 107.381 140.16 107.463C139.142 108.676 138.608 109.143 137.701 109.143C136.889 109.143 136.58 108.825 135.626 107.576C135.606 107.549 135.585 107.522 135.564 107.494C134.55 106.163 132.901 104 129.85 104C127.3 104 125.615 106.056 124.683 107.192C124.603 107.29 124.528 107.381 124.459 107.463Z" fill="#DEF0D3"/>
</svg>
