<svg width="220" height="60" viewBox="0 0 220 60" fill="none" xmlns="http://www.w3.org/2000/svg">
<g clip-path="url(#clip0_33_1162)">
<rect width="220" height="60" rx="12" fill="url(#paint0_linear_33_1162)"/>
<g filter="url(#filter0_f_33_1162)">
<path d="M0 0H220V38.461C132.994 52.6674 84.8369 52.3577 0 38.461V0Z" fill="url(#paint1_linear_33_1162)" fill-opacity="0.35"/>
</g>
<g filter="url(#filter1_d_33_1162)">
<path d="M58.9458 30.705C58.9458 29.605 59.1508 28.65 59.5608 27.84C59.9808 27.02 60.5808 26.385 61.3608 25.935C62.1408 25.485 63.0658 25.26 64.1358 25.26C65.2058 25.26 66.1308 25.485 66.9108 25.935C67.6908 26.385 68.2908 27.02 68.7108 27.84C69.1408 28.65 69.3558 29.6 69.3558 30.69C69.3558 31.8 69.1408 32.765 68.7108 33.585C68.2908 34.395 67.6908 35.03 66.9108 35.49C66.1308 35.94 65.2058 36.165 64.1358 36.165C63.0658 36.165 62.1408 35.94 61.3608 35.49C60.5908 35.03 59.9958 34.39 59.5758 33.57C59.1558 32.75 58.9458 31.795 58.9458 30.705ZM61.3908 30.705C61.3908 31.795 61.6158 32.65 62.0658 33.27C62.5258 33.88 63.2158 34.185 64.1358 34.185C65.0358 34.185 65.7208 33.88 66.1908 33.27C66.6608 32.65 66.8958 31.795 66.8958 30.705C66.8958 29.605 66.6608 28.755 66.1908 28.155C65.7308 27.545 65.0458 27.24 64.1358 27.24C63.2158 27.24 62.5258 27.545 62.0658 28.155C61.6158 28.755 61.3908 29.605 61.3908 30.705ZM73.8997 36V27.33H70.5397V25.425H79.5997V27.33H76.2397V36H73.8997ZM81.7737 36V25.425H91.2687V36H88.9437V27.315H84.0837V36H81.7737ZM94.3192 36V25.425H99.2542C100.444 25.425 101.344 25.715 101.954 26.295C102.574 26.865 102.884 27.65 102.884 28.65C102.884 29.64 102.574 30.43 101.954 31.02C101.344 31.6 100.444 31.89 99.2542 31.89H96.6592V36H94.3192ZM96.6592 30.075H98.9542C99.5142 30.075 99.9292 29.95 100.199 29.7C100.479 29.45 100.619 29.1 100.619 28.65C100.619 28.2 100.479 27.855 100.199 27.615C99.9292 27.365 99.5142 27.24 98.9542 27.24H96.6592V30.075ZM102.968 36L107.828 25.425H109.763L114.683 36H112.313L111.038 33.06L111.953 33.705H105.668L106.598 33.06L105.323 36H102.968ZM108.788 27.885L106.853 32.475L106.448 31.905H111.173L110.828 32.475L108.848 27.885H108.788ZM116.495 36V25.425H121.37C122.53 25.425 123.425 25.67 124.055 26.16C124.685 26.65 125 27.32 125 28.17C125 28.8 124.81 29.335 124.43 29.775C124.06 30.215 123.55 30.51 122.9 30.66V30.42C123.66 30.55 124.245 30.84 124.655 31.29C125.075 31.73 125.285 32.305 125.285 33.015C125.285 33.955 124.95 34.69 124.28 35.22C123.62 35.74 122.705 36 121.535 36H116.495ZM118.73 34.26H121.25C121.83 34.26 122.275 34.15 122.585 33.93C122.895 33.71 123.05 33.36 123.05 32.88C123.05 32.39 122.895 32.04 122.585 31.83C122.275 31.61 121.83 31.5 121.25 31.5H118.73V34.26ZM118.73 29.775H120.95C121.56 29.775 122.01 29.665 122.3 29.445C122.59 29.225 122.735 28.895 122.735 28.455C122.735 28.025 122.59 27.7 122.3 27.48C122.01 27.26 121.56 27.15 120.95 27.15H118.73V29.775ZM127.839 36V25.425H129.999V32.775H129.624L135.354 25.425H137.094V36H134.919V28.65H135.294L129.549 36H127.839ZM142.581 36V27.33H139.221V25.425H148.281V27.33H144.921V36H142.581ZM150.455 36V25.425H152.78V29.7H155.6C156.77 29.7 157.685 29.97 158.345 30.51C159.005 31.04 159.335 31.815 159.335 32.835C159.335 33.855 159.005 34.64 158.345 35.19C157.685 35.73 156.77 36 155.6 36H150.455ZM152.78 34.23H155.3C155.93 34.23 156.39 34.115 156.68 33.885C156.97 33.655 157.115 33.305 157.115 32.835C157.115 32.375 156.97 32.035 156.68 31.815C156.39 31.585 155.93 31.47 155.3 31.47H152.78V34.23Z" fill="white"/>
</g>
</g>
<defs>
<filter id="filter0_f_33_1162" x="-15" y="-15" width="250" height="79" filterUnits="userSpaceOnUse" color-interpolation-filters="sRGB">
<feFlood flood-opacity="0" result="BackgroundImageFix"/>
<feBlend mode="normal" in="SourceGraphic" in2="BackgroundImageFix" result="shape"/>
<feGaussianBlur stdDeviation="7.5" result="effect1_foregroundBlur_33_1162"/>
</filter>
<filter id="filter1_d_33_1162" x="58.9458" y="25.26" width="100.389" height="11.905" filterUnits="userSpaceOnUse" color-interpolation-filters="sRGB">
<feFlood flood-opacity="0" result="BackgroundImageFix"/>
<feColorMatrix in="SourceAlpha" type="matrix" values="0 0 0 0 0 0 0 0 0 0 0 0 0 0 0 0 0 0 127 0" result="hardAlpha"/>
<feOffset dy="1"/>
<feComposite in2="hardAlpha" operator="out"/>
<feColorMatrix type="matrix" values="0 0 0 0 0 0 0 0 0 0 0 0 0 0 0 0 0 0 0.24 0"/>
<feBlend mode="normal" in2="BackgroundImageFix" result="effect1_dropShadow_33_1162"/>
<feBlend mode="normal" in="SourceGraphic" in2="effect1_dropShadow_33_1162" result="shape"/>
</filter>
<linearGradient id="paint0_linear_33_1162" x1="110" y1="0" x2="110" y2="60" gradientUnits="userSpaceOnUse">
<stop stop-color="#93D56F"/>
<stop offset="1" stop-color="#659A57"/>
</linearGradient>
<linearGradient id="paint1_linear_33_1162" x1="110" y1="0" x2="110" y2="49" gradientUnits="userSpaceOnUse">
<stop stop-color="white" stop-opacity="0.42"/>
<stop offset="1" stop-color="white"/>
</linearGradient>
<clipPath id="clip0_33_1162">
<rect width="220" height="60" rx="12" fill="white"/>
</clipPath>
</defs>
</svg>
