<svg width="300" height="80" viewBox="0 0 300 80" fill="none" xmlns="http://www.w3.org/2000/svg">
<g clip-path="url(#clip0_142_5)">
<rect width="300" height="80" rx="16" fill="url(#paint0_linear_142_5)"/>
<g filter="url(#filter0_f_142_5)">
<path d="M0 0H300V38.461C181.356 52.6674 115.687 52.3577 0 38.461V0Z" fill="url(#paint1_linear_142_5)" fill-opacity="0.35"/>
</g>
<g filter="url(#filter1_d_142_5)">
<path d="M73.2155 37V25.015H84.2655V37H81.1715V27.531H76.3265V37H73.2155ZM87.8571 30.999C87.8571 29.7523 88.1008 28.67 88.5881 27.752C89.0754 26.8227 89.7724 26.103 90.6791 25.593C91.5858 25.083 92.6568 24.828 93.8921 24.828C95.1388 24.828 96.2154 25.083 97.1221 25.593C98.0288 26.103 98.7258 26.8227 99.2131 27.752C99.7118 28.67 99.9611 29.7523 99.9611 30.999C99.9611 32.2343 99.7118 33.3167 99.2131 34.246C98.7258 35.1753 98.0288 35.9007 97.1221 36.422C96.2154 36.932 95.1388 37.187 93.8921 37.187C92.6568 37.187 91.5858 36.932 90.6791 36.422C89.7838 35.9007 89.0868 35.1753 88.5881 34.246C88.1008 33.3167 87.8571 32.2343 87.8571 30.999ZM91.1381 30.999C91.1381 32.121 91.3648 32.9993 91.8181 33.634C92.2714 34.2573 92.9628 34.569 93.8921 34.569C94.8214 34.569 95.5184 34.2573 95.9831 33.634C96.4478 32.9993 96.6801 32.121 96.6801 30.999C96.6801 29.877 96.4478 29.0043 95.9831 28.381C95.5184 27.7577 94.8214 27.446 93.8921 27.446C92.9628 27.446 92.2714 27.7577 91.8181 28.381C91.3648 28.993 91.1381 29.8657 91.1381 30.999ZM103.543 37V25.015H114.593V37H111.499V27.531H106.654V37H103.543ZM118.508 37V25.015H124.39C125.772 25.015 126.815 25.355 127.518 26.035C128.22 26.7037 128.572 27.616 128.572 28.772C128.572 29.9167 128.22 30.829 127.518 31.509C126.815 32.189 125.772 32.529 124.39 32.529H121.653V37H118.508ZM121.653 30.115H123.982C124.514 30.115 124.911 30.0017 125.172 29.775C125.432 29.537 125.563 29.2027 125.563 28.772C125.563 28.3413 125.432 28.007 125.172 27.769C124.911 27.531 124.514 27.412 123.982 27.412H121.653V30.115ZM131.34 30.999C131.34 29.7523 131.584 28.67 132.071 27.752C132.558 26.8227 133.255 26.103 134.162 25.593C135.069 25.083 136.14 24.828 137.375 24.828C138.622 24.828 139.698 25.083 140.605 25.593C141.512 26.103 142.209 26.8227 142.696 27.752C143.195 28.67 143.444 29.7523 143.444 30.999C143.444 32.2343 143.195 33.3167 142.696 34.246C142.209 35.1753 141.512 35.9007 140.605 36.422C139.698 36.932 138.622 37.187 137.375 37.187C136.14 37.187 135.069 36.932 134.162 36.422C133.267 35.9007 132.57 35.1753 132.071 34.246C131.584 33.3167 131.34 32.2343 131.34 30.999ZM134.621 30.999C134.621 32.121 134.848 32.9993 135.301 33.634C135.754 34.2573 136.446 34.569 137.375 34.569C138.304 34.569 139.001 34.2573 139.466 33.634C139.931 32.9993 140.163 32.121 140.163 30.999C140.163 29.877 139.931 29.0043 139.466 28.381C139.001 27.7577 138.304 27.446 137.375 27.446C136.446 27.446 135.754 27.7577 135.301 28.381C134.848 28.993 134.621 29.8657 134.621 30.999ZM147.026 37V25.015H156.172V27.395H150.018V29.69H153.129C154.466 29.69 155.515 30.0073 156.274 30.642C157.045 31.2653 157.43 32.1607 157.43 33.328C157.43 34.5067 157.045 35.4133 156.274 36.048C155.515 36.6827 154.466 37 153.129 37H147.026ZM150.018 34.671H152.704C153.327 34.671 153.775 34.5633 154.047 34.348C154.33 34.1213 154.472 33.7813 154.472 33.328C154.472 32.886 154.33 32.563 154.047 32.359C153.775 32.1437 153.327 32.036 152.704 32.036H150.018V34.671ZM160.373 30.999C160.373 29.7523 160.616 28.67 161.104 27.752C161.591 26.8227 162.288 26.103 163.195 25.593C164.101 25.083 165.172 24.828 166.408 24.828C167.654 24.828 168.731 25.083 169.638 25.593C170.544 26.103 171.241 26.8227 171.729 27.752C172.227 28.67 172.477 29.7523 172.477 30.999C172.477 32.2343 172.227 33.3167 171.729 34.246C171.241 35.1753 170.544 35.9007 169.638 36.422C168.731 36.932 167.654 37.187 166.408 37.187C165.172 37.187 164.101 36.932 163.195 36.422C162.299 35.9007 161.602 35.1753 161.104 34.246C160.616 33.3167 160.373 32.2343 160.373 30.999ZM163.654 30.999C163.654 32.121 163.88 32.9993 164.334 33.634C164.787 34.2573 165.478 34.569 166.408 34.569C167.337 34.569 168.034 34.2573 168.499 33.634C168.963 32.9993 169.196 32.121 169.196 30.999C169.196 29.877 168.963 29.0043 168.499 28.381C168.034 27.7577 167.337 27.446 166.408 27.446C165.478 27.446 164.787 27.7577 164.334 28.381C163.88 28.993 163.654 29.8657 163.654 30.999ZM176.059 37V25.015H181.873C183.21 25.015 184.236 25.2927 184.95 25.848C185.675 26.4033 186.038 27.157 186.038 28.109C186.038 28.8117 185.828 29.4123 185.409 29.911C185.001 30.4097 184.44 30.7497 183.726 30.931V30.659C184.576 30.8063 185.227 31.135 185.681 31.645C186.145 32.1437 186.378 32.7953 186.378 33.6C186.378 34.654 185.992 35.487 185.222 36.099C184.451 36.6997 183.397 37 182.06 37H176.059ZM179.068 34.705H181.652C182.241 34.705 182.677 34.5973 182.961 34.382C183.255 34.1667 183.403 33.8323 183.403 33.379C183.403 32.9143 183.255 32.58 182.961 32.376C182.677 32.172 182.241 32.07 181.652 32.07H179.068V34.705ZM179.068 29.775H181.295C181.895 29.775 182.332 29.673 182.604 29.469C182.887 29.265 183.029 28.9533 183.029 28.534C183.029 28.1147 182.887 27.8087 182.604 27.616C182.332 27.412 181.895 27.31 181.295 27.31H179.068V29.775ZM188.034 37L193.644 25.015H196.194L201.838 37H198.693L197.248 33.702L198.455 34.569H191.417L192.607 33.702L191.179 37H188.034ZM194.902 28.245L192.913 32.988L192.437 32.189H197.418L196.993 32.988L194.987 28.245H194.902ZM205.521 37V27.548H201.883V25.015H212.304V27.548H208.666V37H205.521ZM215.325 37V25.015H218.436V29.69H221.428C222.765 29.69 223.813 30.0073 224.573 30.642C225.343 31.2653 225.729 32.1607 225.729 33.328C225.729 34.5067 225.343 35.4133 224.573 36.048C223.813 36.6827 222.765 37 221.428 37H215.325ZM218.436 34.671H221.003C221.626 34.671 222.074 34.5633 222.346 34.348C222.629 34.1213 222.771 33.7813 222.771 33.328C222.771 32.886 222.629 32.563 222.346 32.359C222.074 32.1437 221.626 32.036 221.003 32.036H218.436V34.671ZM89.3621 57V45.015H98.5081V47.395H92.3541V49.69H95.4651C96.8025 49.69 97.8508 50.0073 98.6101 50.642C99.3808 51.2653 99.7661 52.1607 99.7661 53.328C99.7661 54.5067 99.3808 55.4133 98.6101 56.048C97.8508 56.6827 96.8025 57 95.4651 57H89.3621ZM92.3541 54.671H95.0401C95.6635 54.671 96.1111 54.5633 96.3831 54.348C96.6665 54.1213 96.8081 53.7813 96.8081 53.328C96.8081 52.886 96.6665 52.563 96.3831 52.359C96.1111 52.1437 95.6635 52.036 95.0401 52.036H92.3541V54.671ZM103.032 57V45.015H111.634V47.412H106.041V49.707H111.226V52.121H106.041V54.586H111.634V57H103.032ZM121.026 57.187C119.723 57.187 118.595 56.932 117.643 56.422C116.703 55.912 115.972 55.1923 115.45 54.263C114.94 53.3337 114.685 52.2457 114.685 50.999C114.685 49.7523 114.94 48.67 115.45 47.752C115.972 46.8227 116.703 46.103 117.643 45.593C118.595 45.083 119.723 44.828 121.026 44.828C121.854 44.828 122.607 44.9413 123.287 45.168C123.967 45.3833 124.54 45.695 125.004 46.103L124.069 48.568C123.548 48.194 123.066 47.9333 122.624 47.786C122.194 47.6273 121.701 47.548 121.145 47.548C120.125 47.548 119.338 47.8483 118.782 48.449C118.238 49.0383 117.966 49.8883 117.966 50.999C117.966 52.121 118.238 52.9823 118.782 53.583C119.338 54.1723 120.125 54.467 121.145 54.467C121.701 54.467 122.194 54.3933 122.624 54.246C123.066 54.0873 123.548 53.821 124.069 53.447L125.004 55.912C124.54 56.32 123.967 56.6373 123.287 56.864C122.607 57.0793 121.854 57.187 121.026 57.187ZM128.346 57V45.015H139.396V57H136.302V47.531H131.457V57H128.346ZM143.94 57.323L142.376 55.113C142.863 54.841 143.277 54.5237 143.617 54.161C143.968 53.7983 144.251 53.3733 144.467 52.886C144.682 52.3873 144.841 51.798 144.943 51.118C145.056 50.438 145.113 49.6447 145.113 48.738V45.015H154.429V57H151.318V47.531H147.986V49.503C147.986 50.5343 147.889 51.4637 147.697 52.291C147.515 53.1183 147.249 53.855 146.898 54.501C146.558 55.147 146.138 55.7023 145.64 56.167C145.141 56.6317 144.574 57.017 143.94 57.323ZM156.863 57L162.473 45.015H165.023L170.667 57H167.522L166.077 53.702L167.284 54.569H160.246L161.436 53.702L160.008 57H156.863ZM163.731 48.245L161.742 52.988L161.266 52.189H166.247L165.822 52.988L163.816 48.245H163.731ZM174.35 57V47.548H170.712V45.015H181.133V47.548H177.495V57H174.35ZM184.154 57V45.015H187.299V49.639H192.127V45.015H195.272V57H192.127V52.206H187.299V57H184.154ZM198.862 50.999C198.862 49.7523 199.105 48.67 199.593 47.752C200.08 46.8227 200.777 46.103 201.684 45.593C202.59 45.083 203.661 44.828 204.897 44.828C206.143 44.828 207.22 45.083 208.127 45.593C209.033 46.103 209.73 46.8227 210.218 47.752C210.716 48.67 210.966 49.7523 210.966 50.999C210.966 52.2343 210.716 53.3167 210.218 54.246C209.73 55.1753 209.033 55.9007 208.127 56.422C207.22 56.932 206.143 57.187 204.897 57.187C203.661 57.187 202.59 56.932 201.684 56.422C200.788 55.9007 200.091 55.1753 199.593 54.246C199.105 53.3167 198.862 52.2343 198.862 50.999ZM202.143 50.999C202.143 52.121 202.369 52.9993 202.823 53.634C203.276 54.2573 203.967 54.569 204.897 54.569C205.826 54.569 206.523 54.2573 206.988 53.634C207.452 52.9993 207.685 52.121 207.685 50.999C207.685 49.877 207.452 49.0043 206.988 48.381C206.523 47.7577 205.826 47.446 204.897 47.446C203.967 47.446 203.276 47.7577 202.823 48.381C202.369 48.993 202.143 49.8657 202.143 50.999Z" fill="white"/>
</g>
</g>
<defs>
<filter id="filter0_f_142_5" x="-15" y="-15" width="330" height="79" filterUnits="userSpaceOnUse" color-interpolation-filters="sRGB">
<feFlood flood-opacity="0" result="BackgroundImageFix"/>
<feBlend mode="normal" in="SourceGraphic" in2="BackgroundImageFix" result="shape"/>
<feGaussianBlur stdDeviation="7.5" result="effect1_foregroundBlur_142_5"/>
</filter>
<filter id="filter1_d_142_5" x="61.2155" y="12.828" width="176.513" height="56.495" filterUnits="userSpaceOnUse" color-interpolation-filters="sRGB">
<feFlood flood-opacity="0" result="BackgroundImageFix"/>
<feColorMatrix in="SourceAlpha" type="matrix" values="0 0 0 0 0 0 0 0 0 0 0 0 0 0 0 0 0 0 127 0" result="hardAlpha"/>
<feOffset/>
<feGaussianBlur stdDeviation="6"/>
<feComposite in2="hardAlpha" operator="out"/>
<feColorMatrix type="matrix" values="0 0 0 0 0.280955 0 0 0 0 0.6375 0 0 0 0 0.175312 0 0 0 1 0"/>
<feBlend mode="normal" in2="BackgroundImageFix" result="effect1_dropShadow_142_5"/>
<feBlend mode="normal" in="SourceGraphic" in2="effect1_dropShadow_142_5" result="shape"/>
</filter>
<linearGradient id="paint0_linear_142_5" x1="150" y1="0" x2="150" y2="80" gradientUnits="userSpaceOnUse">
<stop stop-color="#93D56F"/>
<stop offset="1" stop-color="#659A57"/>
</linearGradient>
<linearGradient id="paint1_linear_142_5" x1="150" y1="0" x2="150" y2="49" gradientUnits="userSpaceOnUse">
<stop stop-color="white" stop-opacity="0.42"/>
<stop offset="1" stop-color="white"/>
</linearGradient>
<clipPath id="clip0_142_5">
<rect width="300" height="80" rx="16" fill="white"/>
</clipPath>
</defs>
</svg>
