<svg width="300" height="70" viewBox="0 0 300 70" fill="none" xmlns="http://www.w3.org/2000/svg">
<g clip-path="url(#clip0_112_266)">
<rect width="300" height="70" rx="16" fill="url(#paint0_linear_112_266)"/>
<g filter="url(#filter0_f_112_266)">
<path d="M0 0H280V38.461C169.266 52.6674 107.974 52.3577 0 38.461V0Z" fill="url(#paint1_linear_112_266)" fill-opacity="0.35"/>
</g>
<g filter="url(#filter1_d_112_266)">
<path d="M30.577 41V29.72H40.705V41H38.225V31.736H33.041V41H30.577ZM42.9829 35.352C42.9829 34.1787 43.2015 33.16 43.6389 32.296C44.0869 31.4213 44.7269 30.744 45.5589 30.264C46.3909 29.784 47.3775 29.544 48.5189 29.544C49.6602 29.544 50.6469 29.784 51.4789 30.264C52.3109 30.744 52.9509 31.4213 53.3989 32.296C53.8575 33.16 54.0869 34.1733 54.0869 35.336C54.0869 36.52 53.8575 37.5493 53.3989 38.424C52.9509 39.288 52.3109 39.9653 51.4789 40.456C50.6469 40.936 49.6602 41.176 48.5189 41.176C47.3775 41.176 46.3909 40.936 45.5589 40.456C44.7375 39.9653 44.1029 39.2827 43.6549 38.408C43.2069 37.5333 42.9829 36.5147 42.9829 35.352ZM45.5909 35.352C45.5909 36.5147 45.8309 37.4267 46.3109 38.088C46.8015 38.7387 47.5375 39.064 48.5189 39.064C49.4789 39.064 50.2095 38.7387 50.7109 38.088C51.2122 37.4267 51.4629 36.5147 51.4629 35.352C51.4629 34.1787 51.2122 33.272 50.7109 32.632C50.2202 31.9813 49.4895 31.656 48.5189 31.656C47.5375 31.656 46.8015 31.9813 46.3109 32.632C45.8309 33.272 45.5909 34.1787 45.5909 35.352ZM56.3576 41V29.72H66.4856V41H64.0056V31.736H58.8216V41H56.3576ZM69.0995 41V29.72H74.3635C75.6328 29.72 76.5928 30.0293 77.2435 30.648C77.9048 31.256 78.2355 32.0933 78.2355 33.16C78.2355 34.216 77.9048 35.0587 77.2435 35.688C76.5928 36.3067 75.6328 36.616 74.3635 36.616H71.5955V41H69.0995ZM71.5955 34.68H74.0435C74.6408 34.68 75.0835 34.5467 75.3715 34.28C75.6702 34.0133 75.8195 33.64 75.8195 33.16C75.8195 32.68 75.6702 32.312 75.3715 32.056C75.0835 31.7893 74.6408 31.656 74.0435 31.656H71.5955V34.68ZM79.7241 35.352C79.7241 34.1787 79.9428 33.16 80.3801 32.296C80.8281 31.4213 81.4681 30.744 82.3001 30.264C83.1321 29.784 84.1188 29.544 85.2601 29.544C86.4015 29.544 87.3881 29.784 88.2201 30.264C89.0521 30.744 89.6921 31.4213 90.1401 32.296C90.5988 33.16 90.8281 34.1733 90.8281 35.336C90.8281 36.52 90.5988 37.5493 90.1401 38.424C89.6921 39.288 89.0521 39.9653 88.2201 40.456C87.3881 40.936 86.4015 41.176 85.2601 41.176C84.1188 41.176 83.1321 40.936 82.3001 40.456C81.4788 39.9653 80.8441 39.2827 80.3961 38.408C79.9481 37.5333 79.7241 36.5147 79.7241 35.352ZM82.3321 35.352C82.3321 36.5147 82.5721 37.4267 83.0521 38.088C83.5428 38.7387 84.2788 39.064 85.2601 39.064C86.2201 39.064 86.9508 38.7387 87.4521 38.088C87.9535 37.4267 88.2041 36.5147 88.2041 35.352C88.2041 34.1787 87.9535 33.272 87.4521 32.632C86.9615 31.9813 86.2308 31.656 85.2601 31.656C84.2788 31.656 83.5428 31.9813 83.0521 32.632C82.5721 33.272 82.3321 34.1787 82.3321 35.352ZM93.0989 41V29.72H101.419V31.624H95.4669V34.28H98.5869C99.8349 34.28 100.811 34.568 101.515 35.144C102.219 35.7093 102.571 36.536 102.571 37.624C102.571 38.712 102.219 39.5493 101.515 40.136C100.811 40.712 99.8349 41 98.5869 41H93.0989ZM95.4669 39.112H98.2669C98.9389 39.112 99.4295 38.9893 99.7389 38.744C100.048 38.4987 100.203 38.1253 100.203 37.624C100.203 37.1333 100.048 36.7707 99.7389 36.536C99.4295 36.2907 98.9389 36.168 98.2669 36.168H95.4669V39.112ZM104.224 35.352C104.224 34.1787 104.442 33.16 104.88 32.296C105.328 31.4213 105.968 30.744 106.8 30.264C107.632 29.784 108.618 29.544 109.76 29.544C110.901 29.544 111.888 29.784 112.72 30.264C113.552 30.744 114.192 31.4213 114.64 32.296C115.098 33.16 115.328 34.1733 115.328 35.336C115.328 36.52 115.098 37.5493 114.64 38.424C114.192 39.288 113.552 39.9653 112.72 40.456C111.888 40.936 110.901 41.176 109.76 41.176C108.618 41.176 107.632 40.936 106.8 40.456C105.978 39.9653 105.344 39.2827 104.896 38.408C104.448 37.5333 104.224 36.5147 104.224 35.352ZM106.832 35.352C106.832 36.5147 107.072 37.4267 107.552 38.088C108.042 38.7387 108.778 39.064 109.76 39.064C110.72 39.064 111.45 38.7387 111.952 38.088C112.453 37.4267 112.704 36.5147 112.704 35.352C112.704 34.1787 112.453 33.272 111.952 32.632C111.461 31.9813 110.73 31.656 109.76 31.656C108.778 31.656 108.042 31.9813 107.552 32.632C107.072 33.272 106.832 34.1787 106.832 35.352ZM117.598 41V29.72H122.798C124.036 29.72 124.99 29.9813 125.662 30.504C126.334 31.0267 126.67 31.7413 126.67 32.648C126.67 33.32 126.468 33.8907 126.062 34.36C125.668 34.8293 125.124 35.144 124.43 35.304V35.048C125.241 35.1867 125.865 35.496 126.302 35.976C126.75 36.4453 126.974 37.0587 126.974 37.816C126.974 38.8187 126.617 39.6027 125.902 40.168C125.198 40.7227 124.222 41 122.974 41H117.598ZM119.982 39.144H122.67C123.289 39.144 123.764 39.0267 124.094 38.792C124.425 38.5573 124.59 38.184 124.59 37.672C124.59 37.1493 124.425 36.776 124.094 36.552C123.764 36.3173 123.289 36.2 122.67 36.2H119.982V39.144ZM119.982 34.36H122.35C123.001 34.36 123.481 34.2427 123.79 34.008C124.1 33.7733 124.254 33.4213 124.254 32.952C124.254 32.4933 124.1 32.1467 123.79 31.912C123.481 31.6773 123.001 31.56 122.35 31.56H119.982V34.36ZM127.575 41L132.759 29.72H134.823L140.071 41H137.543L136.183 37.864L137.159 38.552H130.455L131.447 37.864L130.087 41H127.575ZM133.783 32.344L131.719 37.24L131.287 36.632H136.327L135.959 37.24L133.847 32.344H133.783ZM142.581 41V31.752H138.997V29.72H148.661V31.752H145.077V41H142.581ZM150.34 41V29.72H152.82V34.28H155.828C157.076 34.28 158.052 34.568 158.756 35.144C159.46 35.7093 159.812 36.536 159.812 37.624C159.812 38.712 159.46 39.5493 158.756 40.136C158.052 40.712 157.076 41 155.828 41H150.34ZM152.82 39.112H155.508C156.18 39.112 156.67 38.9893 156.98 38.744C157.289 38.4987 157.444 38.1253 157.444 37.624C157.444 37.1333 157.289 36.7707 156.98 36.536C156.67 36.2907 156.18 36.168 155.508 36.168H152.82V39.112ZM166.636 41V29.72H174.956V31.624H169.004V34.28H172.124C173.372 34.28 174.348 34.568 175.052 35.144C175.756 35.7093 176.108 36.536 176.108 37.624C176.108 38.712 175.756 39.5493 175.052 40.136C174.348 40.712 173.372 41 172.124 41H166.636ZM169.004 39.112H171.804C172.476 39.112 172.966 38.9893 173.276 38.744C173.585 38.4987 173.74 38.1253 173.74 37.624C173.74 37.1333 173.585 36.7707 173.276 36.536C172.966 36.2907 172.476 36.168 171.804 36.168H169.004V39.112ZM178.096 41V29.72H185.936V31.656H180.48V34.296H185.552V36.248H180.48V39.064H185.936V41H178.096ZM193.45 41.176C192.245 41.176 191.21 40.936 190.346 40.456C189.482 39.976 188.816 39.304 188.346 38.44C187.888 37.5653 187.658 36.536 187.658 35.352C187.658 34.168 187.888 33.144 188.346 32.28C188.816 31.416 189.482 30.744 190.346 30.264C191.21 29.784 192.245 29.544 193.45 29.544C194.229 29.544 194.938 29.656 195.578 29.88C196.218 30.0933 196.762 30.408 197.21 30.824L196.426 32.792C195.936 32.408 195.466 32.136 195.018 31.976C194.581 31.816 194.085 31.736 193.53 31.736C192.474 31.736 191.664 32.0507 191.098 32.68C190.544 33.2987 190.266 34.1893 190.266 35.352C190.266 36.5147 190.544 37.4107 191.098 38.04C191.664 38.6693 192.474 38.984 193.53 38.984C194.085 38.984 194.581 38.904 195.018 38.744C195.466 38.584 195.936 38.312 196.426 37.928L197.21 39.896C196.762 40.3013 196.218 40.616 195.578 40.84C194.938 41.064 194.229 41.176 193.45 41.176ZM199.268 41V29.72H209.396V41H206.916V31.736H201.732V41H199.268ZM212.281 41.288L211.049 39.496C211.497 39.24 211.887 38.9467 212.217 38.616C212.559 38.2747 212.836 37.864 213.049 37.384C213.263 36.904 213.423 36.3227 213.529 35.64C213.636 34.9573 213.689 34.1413 213.689 33.192V29.72H222.169V41H219.689V31.736H215.977V33.8C215.977 34.824 215.892 35.7413 215.721 36.552C215.561 37.352 215.321 38.056 215.001 38.664C214.692 39.272 214.308 39.7947 213.849 40.232C213.391 40.6587 212.868 41.0107 212.281 41.288ZM223.455 41L228.639 29.72H230.703L235.951 41H233.423L232.063 37.864L233.039 38.552H226.335L227.327 37.864L225.967 41H223.455ZM229.663 32.344L227.599 37.24L227.167 36.632H232.207L231.839 37.24L229.727 32.344H229.663ZM238.461 41V31.752H234.877V29.72H244.541V31.752H240.957V41H238.461ZM246.22 41V29.72H248.716V34.248H253.884V29.72H256.396V41H253.884V36.312H248.716V41H246.22ZM258.672 35.352C258.672 34.1787 258.891 33.16 259.328 32.296C259.776 31.4213 260.416 30.744 261.248 30.264C262.08 29.784 263.067 29.544 264.208 29.544C265.35 29.544 266.336 29.784 267.168 30.264C268 30.744 268.64 31.4213 269.088 32.296C269.547 33.16 269.776 34.1733 269.776 35.336C269.776 36.52 269.547 37.5493 269.088 38.424C268.64 39.288 268 39.9653 267.168 40.456C266.336 40.936 265.35 41.176 264.208 41.176C263.067 41.176 262.08 40.936 261.248 40.456C260.427 39.9653 259.792 39.2827 259.344 38.408C258.896 37.5333 258.672 36.5147 258.672 35.352ZM261.28 35.352C261.28 36.5147 261.52 37.4267 262 38.088C262.491 38.7387 263.227 39.064 264.208 39.064C265.168 39.064 265.899 38.7387 266.4 38.088C266.902 37.4267 267.152 36.5147 267.152 35.352C267.152 34.1787 266.902 33.272 266.4 32.632C265.91 31.9813 265.179 31.656 264.208 31.656C263.227 31.656 262.491 31.9813 262 32.632C261.52 33.272 261.28 34.1787 261.28 35.352Z" fill="white"/>
</g>
</g>
<defs>
<filter id="filter0_f_112_266" x="-15" y="-15" width="310" height="79" filterUnits="userSpaceOnUse" color-interpolation-filters="sRGB">
<feFlood flood-opacity="0" result="BackgroundImageFix"/>
<feBlend mode="normal" in="SourceGraphic" in2="BackgroundImageFix" result="shape"/>
<feGaussianBlur stdDeviation="7.5" result="effect1_foregroundBlur_112_266"/>
</filter>
<filter id="filter1_d_112_266" x="18.577" y="17.544" width="263.199" height="35.744" filterUnits="userSpaceOnUse" color-interpolation-filters="sRGB">
<feFlood flood-opacity="0" result="BackgroundImageFix"/>
<feColorMatrix in="SourceAlpha" type="matrix" values="0 0 0 0 0 0 0 0 0 0 0 0 0 0 0 0 0 0 127 0" result="hardAlpha"/>
<feOffset/>
<feGaussianBlur stdDeviation="6"/>
<feComposite in2="hardAlpha" operator="out"/>
<feColorMatrix type="matrix" values="0 0 0 0 0.280955 0 0 0 0 0.6375 0 0 0 0 0.175312 0 0 0 1 0"/>
<feBlend mode="normal" in2="BackgroundImageFix" result="effect1_dropShadow_112_266"/>
<feBlend mode="normal" in="SourceGraphic" in2="effect1_dropShadow_112_266" result="shape"/>
</filter>
<linearGradient id="paint0_linear_112_266" x1="150" y1="0" x2="150" y2="70" gradientUnits="userSpaceOnUse">
<stop stop-color="#93D56F"/>
<stop offset="1" stop-color="#659A57"/>
</linearGradient>
<linearGradient id="paint1_linear_112_266" x1="140" y1="0" x2="140" y2="49" gradientUnits="userSpaceOnUse">
<stop stop-color="white" stop-opacity="0.42"/>
<stop offset="1" stop-color="white"/>
</linearGradient>
<clipPath id="clip0_112_266">
<rect width="300" height="70" rx="16" fill="white"/>
</clipPath>
</defs>
</svg>
