<svg width="242" height="68" viewBox="0 0 242 68" fill="none" xmlns="http://www.w3.org/2000/svg">
<g clip-path="url(#clip0_98_216)">
<rect width="242" height="68" rx="16" fill="url(#paint0_linear_98_216)"/>
<g filter="url(#filter0_f_98_216)">
<path d="M0 0H242V38.461C146.294 52.6675 93.3206 52.3577 0 38.461V0Z" fill="url(#paint1_linear_98_216)" fill-opacity="0.35"/>
</g>
<g filter="url(#filter1_d_98_216)">
<path d="M68.6356 40.165C67.7356 40.165 66.9306 40.06 66.2206 39.85C65.5206 39.63 64.9106 39.325 64.3906 38.935L65.0956 37.24C65.5256 37.56 66.0206 37.81 66.5806 37.99C67.1406 38.16 67.7656 38.245 68.4556 38.245C69.2556 38.245 69.8406 38.125 70.2106 37.885C70.5906 37.645 70.7806 37.285 70.7806 36.805C70.7806 36.375 70.6306 36.055 70.3306 35.845C70.0306 35.635 69.5656 35.53 68.9356 35.53H66.2956V33.73H68.6806C69.2906 33.73 69.7456 33.63 70.0456 33.43C70.3456 33.22 70.4956 32.905 70.4956 32.485C70.4956 32.095 70.3306 31.78 70.0006 31.54C69.6806 31.3 69.1706 31.18 68.4706 31.18C67.8906 31.18 67.3256 31.265 66.7756 31.435C66.2256 31.605 65.7456 31.85 65.3356 32.17L64.6306 30.46C65.1006 30.08 65.6956 29.785 66.4156 29.575C67.1356 29.365 67.9056 29.26 68.7256 29.26C70.0656 29.26 71.0706 29.53 71.7406 30.07C72.4206 30.61 72.7606 31.305 72.7606 32.155C72.7606 32.785 72.5706 33.325 72.1906 33.775C71.8206 34.215 71.3106 34.51 70.6606 34.66V34.42C71.4106 34.55 71.9906 34.84 72.4006 35.29C72.8206 35.73 73.0306 36.31 73.0306 37.03C73.0306 37.65 72.8706 38.195 72.5506 38.665C72.2306 39.135 71.7406 39.505 71.0806 39.775C70.4306 40.035 69.6156 40.165 68.6356 40.165Z" fill="white"/>
<path d="M74.1699 40L79.0299 29.425H80.9649L85.8849 40H83.5149L82.2399 37.06L83.1549 37.705H76.8699L77.7999 37.06L76.5249 40H74.1699ZM79.9899 31.885L78.0549 36.475L77.6499 35.905H82.3749L82.0299 36.475L80.0499 31.885H79.9899Z" fill="white"/>
<path d="M87.6968 40V29.425H97.1918V40H94.8668V31.315H90.0068V40H87.6968Z" fill="white"/>
<path d="M100.242 40V29.425H102.402V36.775H102.027L107.757 29.425H109.497V40H107.322V32.65H107.697L101.952 40H100.242Z" fill="white"/>
<path d="M117.654 40.165C116.524 40.165 115.554 39.94 114.744 39.49C113.934 39.04 113.309 38.41 112.869 37.6C112.439 36.78 112.224 35.815 112.224 34.705C112.224 33.595 112.439 32.635 112.869 31.825C113.309 31.015 113.934 30.385 114.744 29.935C115.554 29.485 116.524 29.26 117.654 29.26C118.384 29.26 119.049 29.365 119.649 29.575C120.249 29.775 120.759 30.07 121.179 30.46L120.444 32.305C119.984 31.945 119.544 31.69 119.124 31.54C118.714 31.39 118.249 31.315 117.729 31.315C116.739 31.315 115.979 31.61 115.449 32.2C114.929 32.78 114.669 33.615 114.669 34.705C114.669 35.795 114.929 36.635 115.449 37.225C115.979 37.815 116.739 38.11 117.729 38.11C118.249 38.11 118.714 38.035 119.124 37.885C119.544 37.735 119.984 37.48 120.444 37.12L121.179 38.965C120.759 39.345 120.249 39.64 119.649 39.85C119.049 40.06 118.384 40.165 117.654 40.165Z" fill="white"/>
<path d="M122.272 40L127.132 29.425H129.067L133.987 40H131.617L130.342 37.06L131.257 37.705H124.972L125.902 37.06L124.627 40H122.272ZM128.092 31.885L126.157 36.475L125.752 35.905H130.477L130.132 36.475L128.152 31.885H128.092Z" fill="white"/>
<path d="M136.94 40V31.33H133.58V29.425H142.64V31.33H139.28V40H136.94Z" fill="white"/>
<path d="M144.814 40V29.425H147.139V33.7H149.959C151.129 33.7 152.044 33.97 152.704 34.51C153.364 35.04 153.694 35.815 153.694 36.835C153.694 37.855 153.364 38.64 152.704 39.19C152.044 39.73 151.129 40 149.959 40H144.814ZM147.139 38.23H149.659C150.289 38.23 150.749 38.115 151.039 37.885C151.329 37.655 151.474 37.305 151.474 36.835C151.474 36.375 151.329 36.035 151.039 35.815C150.749 35.585 150.289 35.47 149.659 35.47H147.139V38.23Z" fill="white"/>
<path d="M161.273 40.165C160.143 40.165 159.173 39.94 158.363 39.49C157.553 39.04 156.928 38.41 156.488 37.6C156.058 36.78 155.843 35.815 155.843 34.705C155.843 33.595 156.058 32.635 156.488 31.825C156.928 31.015 157.553 30.385 158.363 29.935C159.173 29.485 160.143 29.26 161.273 29.26C162.003 29.26 162.668 29.365 163.268 29.575C163.868 29.775 164.378 30.07 164.798 30.46L164.063 32.305C163.603 31.945 163.163 31.69 162.743 31.54C162.333 31.39 161.868 31.315 161.348 31.315C160.358 31.315 159.598 31.61 159.068 32.2C158.548 32.78 158.288 33.615 158.288 34.705C158.288 35.795 158.548 36.635 159.068 37.225C159.598 37.815 160.358 38.11 161.348 38.11C161.868 38.11 162.333 38.035 162.743 37.885C163.163 37.735 163.603 37.48 164.063 37.12L164.798 38.965C164.378 39.345 163.868 39.64 163.268 39.85C162.668 40.06 162.003 40.165 161.273 40.165Z" fill="white"/>
<path d="M166.622 40L168.407 36.865C168.647 36.445 168.927 36.135 169.247 35.935C169.567 35.725 169.942 35.62 170.372 35.62H170.957L170.972 35.875C169.762 35.875 168.827 35.59 168.167 35.02C167.507 34.45 167.177 33.66 167.177 32.65C167.177 31.63 167.502 30.84 168.152 30.28C168.812 29.71 169.742 29.425 170.942 29.425H175.907V40H173.582V35.905H172.472C172.132 35.905 171.852 35.96 171.632 36.07C171.412 36.18 171.222 36.375 171.062 36.655L169.172 40H166.622ZM171.347 34.24H173.582V31.21H171.347C170.047 31.21 169.397 31.715 169.397 32.725C169.397 33.735 170.047 34.24 171.347 34.24Z" fill="white"/>
</g>
</g>
<defs>
<filter id="filter0_f_98_216" x="-15" y="-15" width="272" height="79" filterUnits="userSpaceOnUse" color-interpolation-filters="sRGB">
<feFlood flood-opacity="0" result="BackgroundImageFix"/>
<feBlend mode="normal" in="SourceGraphic" in2="BackgroundImageFix" result="shape"/>
<feGaussianBlur stdDeviation="7.5" result="effect1_foregroundBlur_98_216"/>
</filter>
<filter id="filter1_d_98_216" x="64.3906" y="29.26" width="111.516" height="11.905" filterUnits="userSpaceOnUse" color-interpolation-filters="sRGB">
<feFlood flood-opacity="0" result="BackgroundImageFix"/>
<feColorMatrix in="SourceAlpha" type="matrix" values="0 0 0 0 0 0 0 0 0 0 0 0 0 0 0 0 0 0 127 0" result="hardAlpha"/>
<feOffset dy="1"/>
<feComposite in2="hardAlpha" operator="out"/>
<feColorMatrix type="matrix" values="0 0 0 0 0 0 0 0 0 0 0 0 0 0 0 0 0 0 0.24 0"/>
<feBlend mode="normal" in2="BackgroundImageFix" result="effect1_dropShadow_98_216"/>
<feBlend mode="normal" in="SourceGraphic" in2="effect1_dropShadow_98_216" result="shape"/>
</filter>
<linearGradient id="paint0_linear_98_216" x1="121" y1="0" x2="121" y2="68" gradientUnits="userSpaceOnUse">
<stop stop-color="#93D56F"/>
<stop offset="1" stop-color="#659A57"/>
</linearGradient>
<linearGradient id="paint1_linear_98_216" x1="121" y1="0" x2="121" y2="49" gradientUnits="userSpaceOnUse">
<stop stop-color="white" stop-opacity="0.42"/>
<stop offset="1" stop-color="white"/>
</linearGradient>
<clipPath id="clip0_98_216">
<rect width="242" height="68" rx="16" fill="white"/>
</clipPath>
</defs>
</svg>
