<svg width="91" height="150" viewBox="0 0 91 150" fill="none" xmlns="http://www.w3.org/2000/svg">
<path d="M8.64235 32.4734L7.33459 29.0923C7.11883 29.4385 6.85608 29.7635 6.54635 30.067C6.23062 30.3601 5.88049 30.6177 5.49598 30.8397C4.82048 31.2297 4.1881 31.4424 3.59883 31.4777C3.00357 31.5027 2.47222 31.3384 2.00476 30.9847C1.5477 30.6251 1.17233 30.0589 0.878642 29.2862L0 27.0084L1.41855 26.1894L2.24978 28.3491C2.55107 29.159 2.93802 29.6492 3.41061 29.8197C3.88759 29.9739 4.48462 29.844 5.20169 29.43C5.57581 29.214 5.89256 28.9826 6.15194 28.7358C6.40531 28.4787 6.63169 28.1748 6.83107 27.8241L5.33125 23.9304L6.73421 23.1204L10.0297 31.6724L8.64235 32.4734Z" fill="#343434"/>
<path d="M14.1507 29.2931L11.3251 21.9871L8.51918 23.6071L8.04925 22.3611L15.0952 18.2931L15.5652 19.5391L12.7437 21.1681L15.5536 28.4831L14.1507 29.2931Z" fill="#343434"/>
<path d="M23.1636 24.2766C22.3738 24.7326 21.6127 24.9503 20.8803 24.9297C20.1583 24.9032 19.5052 24.6359 18.9209 24.128C18.3411 23.6037 17.8577 22.8505 17.4708 21.8683C17.1259 20.959 16.9859 20.1045 17.0508 19.3049C17.1097 18.4949 17.3462 17.7765 17.7601 17.1495C18.1845 16.5165 18.7604 15.99 19.4879 15.57C20.2985 15.102 21.0648 14.8813 21.7868 14.9078C22.5088 14.9344 23.1649 15.2068 23.7552 15.7251C24.3394 16.2331 24.8168 16.9759 25.1873 17.9536C25.5382 18.8734 25.6812 19.7331 25.6163 20.5327C25.5514 21.3322 25.3097 22.0537 24.8914 22.6971C24.467 23.3301 23.8911 23.8566 23.1636 24.2766ZM22.6092 23.1002C23.3054 22.6982 23.7568 22.112 23.9632 21.3415C24.1741 20.5547 24.0844 19.6435 23.6943 18.6078C23.2802 17.5305 22.7503 16.8526 22.1045 16.5742C21.4632 16.2794 20.7788 16.3419 20.0513 16.7619C19.3551 17.1639 18.9037 17.7502 18.6973 18.5206C18.5012 19.285 18.5952 20.1799 18.9794 21.2052C19.3995 22.2929 19.925 22.9871 20.556 23.288C21.1869 23.5888 21.8713 23.5262 22.6092 23.1002Z" fill="#343434"/>
<path d="M34.5649 17.507L31.7393 10.201L28.9334 11.821L28.4634 10.575L35.5094 6.50701L35.9793 7.75297L33.1578 9.38197L35.9678 16.697L34.5649 17.507Z" fill="#343434"/>
<path d="M40.0818 14.3218L36.8019 5.76078L38.2049 4.95079L39.3704 7.97753L41.584 6.69953C42.6336 6.09353 43.5168 5.89536 44.2337 6.10501C44.955 6.29827 45.4962 6.85179 45.8575 7.76557C46.1964 8.66456 46.1837 9.48251 45.8193 10.2194C45.4654 10.9503 44.7999 11.5978 43.8231 12.1618L40.0818 14.3218ZM41.0893 12.4307L43.2405 11.1887C43.8536 10.8347 44.2709 10.4414 44.4922 10.0088C44.7075 9.56574 44.7068 9.06042 44.4899 8.4928C44.2535 7.86723 43.9229 7.51073 43.4983 7.42332C43.0677 7.32551 42.5459 7.4536 41.9327 7.8076L39.7815 9.0496L41.0893 12.4307ZM48.0008 9.74978L44.7208 1.18879L46.1238 0.378784L49.4037 8.93978L48.0008 9.74978Z" fill="#343434"/>
<path d="M13.6073 52.7009L10.3274 44.1399L17.233 40.1529L20.513 48.7139L19.11 49.5239L16.282 42.1777L12.1978 44.5357L15.0102 51.8909L13.6073 52.7009Z" fill="#343434"/>
<path d="M26.4807 45.4555C25.6909 45.9115 24.9298 46.1292 24.1974 46.1087C23.4753 46.0821 22.8222 45.8149 22.238 45.3069C21.6581 44.7826 21.1748 44.0294 20.7879 43.0472C20.443 42.1379 20.303 41.2834 20.3679 40.4838C20.4268 39.6738 20.6632 38.9554 21.0772 38.3284C21.5016 37.6954 22.0775 37.1689 22.8049 36.7489C23.6155 36.2809 24.3818 36.0602 25.1038 36.0867C25.8258 36.1133 26.482 36.3857 27.0722 36.904C27.6564 37.412 28.1338 38.1548 28.5043 39.1325C28.8552 40.0523 28.9982 40.912 28.9333 41.7116C28.8684 42.5112 28.6268 43.2326 28.2084 43.876C27.7841 44.509 27.2081 45.0355 26.4807 45.4555ZM25.9262 44.2791C26.6225 43.8771 27.0739 43.2909 27.2803 42.5205C27.4911 41.7336 27.4015 40.8224 27.0114 39.7867C26.5973 38.7094 26.0673 38.0315 25.4216 37.7531C24.7803 37.4583 24.0959 37.5209 23.3684 37.9409C22.6721 38.3429 22.2208 38.9291 22.0143 39.6995C21.8183 40.4639 21.9123 41.3588 22.2964 42.3841C22.7165 43.4718 23.2421 44.166 23.873 44.4669C24.504 44.7677 25.1884 44.7051 25.9262 44.2791Z" fill="#343434"/>
<path d="M31.6698 42.5219L30.6542 41.591C30.9591 41.2071 31.1807 40.8228 31.3189 40.4382C31.4675 40.0475 31.5385 39.6186 31.532 39.1512C31.5194 38.6735 31.4359 38.1328 31.2814 37.5292C31.1209 36.9152 30.8848 36.2063 30.5731 35.4024L29.6692 32.9729L35.4525 29.6339L38.7325 38.1948L37.3295 39.0048L34.5015 31.6586L31.4306 33.4316L31.9389 34.7801C32.3138 35.7415 32.5834 36.6043 32.7475 37.3686C32.9161 38.1166 32.989 38.795 32.9665 39.4038C32.9439 40.0127 32.8213 40.5684 32.5988 41.071C32.3867 41.5676 32.077 42.0512 31.6698 42.5219Z" fill="#343434"/>
<path d="M42.4403 40.7723L41.5404 39.7537C41.9837 39.3454 42.3317 38.9643 42.5847 38.6104C42.854 38.2609 43.0496 37.8917 43.1714 37.5026C43.2932 37.1136 43.3582 36.6742 43.3665 36.1845L43.3721 34.9342L43.6361 35.5716L36.8679 28.8167L38.3488 27.9617L43.9114 33.7083L43.4905 33.9513L43.3995 25.0457L44.9272 24.1637L44.8636 35.4656C44.8562 36.1488 44.7957 36.7519 44.6819 37.2749C44.5681 37.7978 44.408 38.2644 44.2014 38.6747C44.0053 39.0789 43.7613 39.4484 43.4696 39.7831C43.1778 40.1178 42.8347 40.4475 42.4403 40.7723Z" fill="#343434"/>
<path d="M54.6754 28.9902L53.3677 25.6091C53.1519 25.9553 52.8892 26.2802 52.5794 26.5838C52.2637 26.8769 51.9136 27.1345 51.5291 27.3565C50.8536 27.7465 50.2212 27.9592 49.6319 27.9945C49.0367 28.0195 48.5053 27.8552 48.0378 27.5015C47.5808 27.1419 47.2054 26.5757 46.9117 25.803L46.0331 23.5252L47.4516 22.7062L48.2829 24.8659C48.5842 25.6758 48.9711 26.166 49.4437 26.3365C49.9207 26.4907 50.5177 26.3608 51.2348 25.9468C51.6089 25.7308 51.9256 25.4994 52.185 25.2526C52.4384 24.9955 52.6648 24.6916 52.8642 24.3409L51.3643 20.4472L52.7673 19.6372L56.0628 28.1892L54.6754 28.9902Z" fill="#343434"/>
<path d="M58.5002 26.7819L55.2203 18.2209L56.4985 17.4829L59.2383 24.5683L58.7772 24.8137L60.9412 14.9179L62.126 14.2339L65.4215 22.7859L64.1276 23.5329L61.4101 16.414L61.8801 16.1841L59.6849 26.0979L58.5002 26.7819Z" fill="#343434"/>
<path d="M67.8472 21.3855L64.5673 12.8245L65.9079 12.0505L68.7359 19.3967L71.9159 17.5607L69.0879 10.2145L70.4285 9.44046L73.2565 16.7867L76.4522 14.9417L73.6242 7.59545L74.9648 6.82146L78.2603 15.3734L67.8472 21.3855Z" fill="#343434"/>
<path d="M80.6955 13.9675L77.4156 5.40649L78.8185 4.59648L79.9841 7.62323L82.1976 6.34523C83.2472 5.73923 84.1305 5.54106 84.8474 5.75071C85.5686 5.94397 86.1099 6.49749 86.4712 7.41127C86.8101 8.31026 86.7974 9.12821 86.433 9.86512C86.079 10.596 85.4136 11.2435 84.4367 11.8075L80.6955 13.9675ZM81.7029 12.0764L83.8541 10.8344C84.4673 10.4804 84.8845 10.0871 85.1059 9.65446C85.3212 9.21144 85.3204 8.70612 85.1036 8.1385C84.8671 7.51293 84.5366 7.15643 84.112 7.06902C83.6814 6.97121 83.1595 7.09931 82.5464 7.45331L80.3952 8.69531L81.7029 12.0764Z" fill="#343434"/>
<path d="M27.1489 68.1637C26.3591 68.6197 25.598 68.8374 24.8656 68.8168C24.1436 68.7903 23.4905 68.5231 22.9062 68.0151C22.3264 67.4908 21.843 66.7376 21.4561 65.7554C21.1112 64.8461 20.9712 63.9916 21.0361 63.192C21.095 62.382 21.3315 61.6636 21.7454 61.0366C22.1698 60.4036 22.7457 59.8771 23.4732 59.4571C24.2838 58.9891 25.0501 58.7684 25.7721 58.7949C26.4941 58.8215 27.1502 59.0939 27.7404 59.6122C28.3247 60.1202 28.8021 60.863 29.1726 61.8407C29.5235 62.7605 29.6665 63.6202 29.6016 64.4198C29.5366 65.2194 29.295 65.9408 28.8767 66.5842C28.4523 67.2172 27.8764 67.7437 27.1489 68.1637ZM26.5944 66.9873C27.2907 66.5853 27.7421 65.9991 27.9485 65.2287C28.1594 64.4418 28.0697 63.5306 27.6796 62.4949C27.2655 61.4176 26.7356 60.7397 26.0898 60.4613C25.4485 60.1665 24.7641 60.2291 24.0366 60.6491C23.3404 61.0511 22.889 61.6373 22.6826 62.4077C22.4865 63.1722 22.5805 64.067 22.9647 65.0923C23.3848 66.18 23.9103 66.8742 24.5412 67.1751C25.1722 67.4759 25.8566 67.4133 26.5944 66.9873Z" fill="#343434"/>
<path d="M34.4399 63.7672L31.6143 56.4611L28.8084 58.0811L28.3385 56.8352L35.3845 52.7672L35.8544 54.0131L33.0329 55.6421L35.8429 62.9572L34.4399 63.7672Z" fill="#343434"/>
<path d="M44.0671 58.2089L40.7872 49.6479L42.1902 48.8379L43.5477 52.3773L44.9195 51.5853L46.0873 46.5879L47.7085 45.6519L46.3749 51.5141L45.78 51.2756C46.0993 51.1328 46.3886 51.0697 46.6476 51.0864C46.9111 51.0867 47.1867 51.1562 47.4746 51.2948C47.7729 51.4275 48.1214 51.635 48.52 51.9176L51.3158 54.0239L49.8504 54.8699L47.4266 53.0477C47.1399 52.8391 46.884 52.6958 46.6589 52.618C46.4338 52.5401 46.2097 52.524 45.9867 52.5696C45.7636 52.6152 45.5118 52.7191 45.2312 52.8811L44.0153 53.5831L45.4701 57.3989L44.0671 58.2089Z" fill="#343434"/>
<path d="M53.8408 57.2842L52.941 56.2656C53.3842 55.8573 53.7323 55.4762 53.9852 55.1223C54.2545 54.7728 54.4501 54.4036 54.5719 54.0145C54.6937 53.6255 54.7588 53.1862 54.767 52.6964L54.7726 51.4461L55.0367 52.0835L48.2684 45.3286L49.7494 44.4736L55.3119 50.2202L54.891 50.4632L54.8 41.5576L56.3277 40.6756L56.2641 51.9775C56.2568 52.6608 56.1962 53.2639 56.0824 53.7868C55.9687 54.3097 55.8085 54.7763 55.6019 55.1866C55.4058 55.5908 55.1618 55.9603 54.8701 56.295C54.5784 56.6297 54.2353 56.9594 53.8408 57.2842Z" fill="#343434"/>
<path d="M62.5016 52.0552L58.5826 41.8471C58.4605 41.5157 58.3199 41.1882 58.1607 40.8644C58.0118 40.5346 57.8526 40.2109 57.683 39.8931L59.0548 39.1011L59.9741 40.9813L59.7403 41.1164C59.6729 40.3516 59.7948 39.6507 60.106 39.0138C60.4216 38.3605 60.9431 37.8238 61.6706 37.4038C62.3981 36.9838 63.105 36.8043 63.7915 36.8652C64.4719 36.9158 65.0968 37.2062 65.6663 37.7365C66.2401 38.2505 66.7093 38.9911 67.0738 39.9584C67.592 41.3359 67.6793 42.5672 67.3359 43.6523C66.9864 44.727 66.3025 45.5584 65.284 46.1464C64.5981 46.5424 63.9223 46.7039 63.2567 46.631C62.5954 46.5416 62.0418 46.2308 61.5959 45.6984L61.7674 45.5994L63.9202 51.2362L62.5016 52.0552ZM64.4801 45.114C65.1868 44.706 65.6434 44.1168 65.8498 43.3464C66.0502 42.5655 65.9554 41.6573 65.5653 40.6216C65.1512 39.5443 64.6264 38.8634 63.9911 38.579C63.3602 38.2782 62.6706 38.3437 61.9223 38.7757C61.2364 39.1717 60.7799 39.761 60.5526 40.5434C60.3358 41.3198 60.4195 42.2207 60.8036 43.246C61.2341 44.3277 61.77 45.0159 62.4113 45.3108C63.0631 45.5996 63.7527 45.534 64.4801 45.114Z" fill="#343434"/>
<path d="M74.2818 40.9515C73.4816 41.4135 72.7071 41.632 71.9583 41.6071C71.2199 41.5761 70.5534 41.3097 69.9588 40.8077C69.3582 40.2954 68.8704 39.5586 68.4955 38.5972C67.9773 37.2198 67.9138 35.9817 68.3048 34.883C68.6958 33.7843 69.4525 32.9109 70.5749 32.2629C71.0633 31.9809 71.576 31.7888 72.1129 31.6867C72.6497 31.5846 73.1455 31.6032 73.6001 31.7426L73.6281 33.0151C73.2079 32.9113 72.7933 32.9012 72.3843 32.9849C71.9694 33.0582 71.6008 33.1879 71.2787 33.3739C70.52 33.8119 70.0219 34.4251 69.7843 35.2135C69.5511 35.9856 69.6235 36.879 70.0016 37.894C70.3917 38.9297 70.9269 39.6045 71.607 39.9185C72.2915 40.2161 73.0287 40.1369 73.8185 39.6809C74.1614 39.4829 74.4892 39.2106 74.8017 38.8639C75.1186 38.5008 75.3563 38.0725 75.5149 37.5792L76.5429 38.3158C76.4008 38.8136 76.1157 39.3038 75.6877 39.7865C75.2701 40.2631 74.8014 40.6515 74.2818 40.9515Z" fill="#343434"/>
<path d="M81.8081 36.6062C81.0911 37.0202 80.3923 37.2019 79.7119 37.1513C79.0254 37.0904 78.4005 36.8 77.837 36.28C77.2676 35.7497 76.7924 34.9987 76.4115 34.0269C75.8934 32.6495 75.809 31.4234 76.1585 30.3487C76.5079 29.2739 77.1919 28.4426 78.2103 27.8546C78.8962 27.4586 79.5668 27.3001 80.2221 27.379C80.8877 27.4519 81.4413 27.7628 81.8828 28.3115L81.7204 28.4261L81.144 26.3479L82.5002 25.5649C82.6075 25.9186 82.7095 26.2754 82.8064 26.6352C82.9136 26.989 83.0283 27.3315 83.1503 27.6629L85.671 34.1889L84.2525 35.0079L83.4957 33.013L83.7295 32.878C83.8133 33.6472 83.6974 34.3584 83.3818 35.0117C83.0601 35.6547 82.5356 36.1862 81.8081 36.6062ZM81.5654 35.2498C82.2617 34.8478 82.7183 34.2586 82.9351 33.4821C83.1459 32.6953 83.0563 31.784 82.6662 30.7483C82.2521 29.6711 81.7221 28.9932 81.0764 28.7148C80.4351 28.42 79.7455 28.4855 79.0076 28.9115C78.3113 29.3135 77.86 29.8998 77.6535 30.6702C77.4471 31.4406 77.5359 32.3385 77.9201 33.3638C78.3402 34.4515 78.8657 35.1457 79.4967 35.4466C80.138 35.7414 80.8276 35.6758 81.5654 35.2498Z" fill="#343434"/>
<path d="M88.2392 28.7571L88.0291 28.2132C87.8935 27.8343 87.7958 27.4611 87.7361 27.0937C87.6868 26.7204 87.6939 26.3006 87.7573 25.8344C87.8311 25.3623 87.9649 24.8139 88.1586 24.1894C88.2672 23.8496 88.3535 23.4949 88.4173 23.1255C88.4915 22.7501 88.5152 22.3831 88.4883 22.0245C88.4718 21.6599 88.3765 21.3269 88.2025 21.0256C87.9925 20.6618 87.6932 20.4674 87.3046 20.4424C86.9204 20.4009 86.4841 20.5212 85.9957 20.8032C85.58 21.0432 85.2077 21.3344 84.8788 21.6767C84.5439 22.0086 84.2568 22.3753 84.0174 22.7767L83.4731 21.3659C83.7288 20.9688 84.0531 20.5945 84.446 20.243C84.8388 19.8915 85.2379 19.5987 85.6432 19.3647C86.1836 19.0527 86.7023 18.871 87.1992 18.8197C87.7005 18.752 88.1503 18.811 88.5485 18.9968C88.9467 19.1825 89.2719 19.4937 89.5239 19.9301C89.7819 20.377 89.9283 20.8467 89.9633 21.3392C89.9982 21.8317 89.958 22.3261 89.8426 22.8222C89.7376 23.3124 89.5968 23.7886 89.4203 24.2508C89.1279 25.1124 88.9547 25.8083 88.9005 26.3384C88.8566 26.8625 88.8938 27.3468 89.0119 27.7913L89.1277 28.2441L88.2392 28.7571ZM89.0607 32.2319L88.3267 30.3485L90.057 29.3495L90.791 31.2329L89.0607 32.2319Z" fill="#343434"/>
<path fill-rule="evenodd" clip-rule="evenodd" d="M68.9461 97.1559C69.654 79.6479 61.5546 63.1482 53.8459 53.3083L54.6331 52.6916C62.4365 62.6524 70.6657 79.3788 69.9453 97.1963C69.2322 114.834 59.7525 133.442 32.6758 147.547L35.8145 148.571C36.077 148.657 36.2204 148.939 36.1347 149.202C36.0491 149.464 35.7668 149.608 35.5043 149.522L31.2263 148.126C30.9638 148.04 30.8204 147.758 30.9061 147.496L32.302 143.218C32.3877 142.955 32.6699 142.812 32.9325 142.897C33.195 142.983 33.3384 143.265 33.2527 143.528L32.234 146.65C59.0215 132.688 68.2496 114.384 68.9461 97.1559Z" fill="url(#paint0_linear_102_7)"/>
<defs>
<linearGradient id="paint0_linear_102_7" x1="73.7886" y1="71.0867" x2="16.0639" y2="133.479" gradientUnits="userSpaceOnUse">
<stop stop-color="#343434" stop-opacity="0"/>
<stop offset="1" stop-color="#343434"/>
</linearGradient>
</defs>
</svg>
