<svg width="170" height="118" viewBox="0 0 170 118" fill="none" xmlns="http://www.w3.org/2000/svg">
<rect y="63.2767" width="170" height="54.5283" rx="8.55346" fill="white"/>
<path d="M35.6465 90.1069V87.8937H30.5947V86.4503L35.9673 78.8003H37.6352V86.322H39.255V87.8937H37.6352V90.1069H35.6465ZM35.6465 86.322V81.2381H36.0314L32.1343 86.8031V86.322H35.6465ZM44.4516 90.1069V82.0079H46.4403V85.1833H50.0969V82.0079H52.0856V90.1069H50.0969V86.723H46.4403V90.1069H44.4516ZM58.0222 90.2673C56.6643 90.2673 55.6005 89.8931 54.8307 89.1447C54.0609 88.3962 53.676 87.3698 53.676 86.0654C53.676 85.2208 53.8417 84.483 54.1731 83.8522C54.5046 83.2214 54.9643 82.7296 55.5524 82.3767C56.1511 82.0239 56.8461 81.8475 57.6373 81.8475C58.4178 81.8475 59.07 82.0132 59.5939 82.3447C60.1178 82.6761 60.5134 83.1412 60.7807 83.7399C61.0587 84.3387 61.1977 85.039 61.1977 85.8409V86.3701H55.2958V85.3116H59.7703L59.4977 85.5362C59.4977 84.7877 59.3373 84.2157 59.0165 83.8201C58.7065 83.4245 58.2521 83.2267 57.6533 83.2267C56.9904 83.2267 56.4772 83.4619 56.1137 83.9324C55.7609 84.4028 55.5844 85.0604 55.5844 85.905V86.1135C55.5844 86.9903 55.7983 87.6478 56.226 88.0862C56.6643 88.5138 57.2791 88.7277 58.0703 88.7277C58.53 88.7277 58.9577 88.6689 59.3533 88.5513C59.7596 88.423 60.1445 88.2198 60.508 87.9418L61.1014 89.289C60.7165 89.5991 60.2568 89.8396 59.7222 90.0107C59.1876 90.1818 58.6209 90.2673 58.0222 90.2673ZM62.0079 92.1918V88.5833H62.9381C63.2589 88.0808 63.4888 87.4928 63.6277 86.8192C63.7774 86.1349 63.8523 85.3009 63.8523 84.3173V82.0079H70.091V88.5833H71.4061V92.1918H69.7061V90.1069H63.7079V92.1918H62.0079ZM64.7344 88.5994H68.2145V83.5154H65.5523V84.7664C65.5523 85.4827 65.4828 86.183 65.3438 86.8673C65.2048 87.5516 65.0016 88.1289 64.7344 88.5994ZM76.5351 90.2673C75.1773 90.2673 74.1134 89.8931 73.3436 89.1447C72.5738 88.3962 72.1889 87.3698 72.1889 86.0654C72.1889 85.2208 72.3546 84.483 72.6861 83.8522C73.0175 83.2214 73.4773 82.7296 74.0653 82.3767C74.664 82.0239 75.359 81.8475 76.1502 81.8475C76.9307 81.8475 77.5829 82.0132 78.1068 82.3447C78.6307 82.6761 79.0263 83.1412 79.2936 83.7399C79.5716 84.3387 79.7106 85.039 79.7106 85.8409V86.3701H73.8087V85.3116H78.2832L78.0106 85.5362C78.0106 84.7877 77.8502 84.2157 77.5295 83.8201C77.2194 83.4245 76.765 83.2267 76.1662 83.2267C75.5034 83.2267 74.9901 83.4619 74.6266 83.9324C74.2738 84.4028 74.0974 85.0604 74.0974 85.905V86.1135C74.0974 86.9903 74.3112 87.6478 74.7389 88.0862C75.1773 88.5138 75.792 88.7277 76.5832 88.7277C77.043 88.7277 77.4707 88.6689 77.8662 88.5513C78.2725 88.423 78.6574 88.2198 79.021 87.9418L79.6144 89.289C79.2295 89.5991 78.7697 89.8396 78.2351 90.0107C77.7005 90.1818 77.1339 90.2673 76.5351 90.2673ZM81.0341 90.3314L80.4086 88.7597C80.7614 88.6314 81.0555 88.4657 81.2907 88.2626C81.5366 88.0487 81.729 87.7814 81.868 87.4607C82.0177 87.1292 82.1246 86.723 82.1888 86.2418C82.2529 85.75 82.285 85.1673 82.285 84.4937V82.0079H88.7322V90.1069H86.7435V83.5475H84.1133V84.5579C84.1133 85.7233 84.0064 86.7016 83.7926 87.4928C83.5787 88.2733 83.2473 88.8934 82.7982 89.3531C82.3492 89.8129 81.7611 90.139 81.0341 90.3314ZM90.6948 90.1069V82.0079H92.5071V88.1343H92.0259L96.6288 82.0079H98.2807V90.1069H96.4684V83.9645H96.9656L92.3467 90.1069H90.6948Z" fill="#343434"/>
<path d="M30.9379 103.145V96.6911H36.6216V103.145H35.4669V97.602H32.0926V103.145H30.9379ZM38.6569 105.916V98.2179C38.6569 97.9698 38.6484 97.7175 38.6313 97.4609C38.6142 97.2043 38.5885 96.9477 38.5543 96.6911H39.6833L39.8245 98.1794H39.6833C39.8116 97.6833 40.0853 97.2941 40.5045 97.0118C40.9236 96.721 41.424 96.5756 42.0056 96.5756C42.5787 96.5756 43.0791 96.7082 43.5067 96.9733C43.9344 97.2385 44.2637 97.6234 44.4947 98.128C44.7342 98.6241 44.8539 99.2186 44.8539 99.9114C44.8539 100.604 44.7342 101.203 44.4947 101.708C44.2637 102.212 43.9344 102.597 43.5067 102.862C43.0791 103.128 42.5787 103.26 42.0056 103.26C41.4325 103.26 40.9364 103.119 40.5173 102.837C40.1067 102.546 39.8287 102.157 39.6833 101.669H39.8245V105.916H38.6569ZM41.7362 102.336C42.3264 102.336 42.7968 102.131 43.1475 101.721C43.4982 101.31 43.6735 100.707 43.6735 99.9114C43.6735 99.116 43.4982 98.5172 43.1475 98.1152C42.7968 97.7132 42.3264 97.5122 41.7362 97.5122C41.146 97.5122 40.6755 97.7132 40.3248 98.1152C39.9827 98.5172 39.8116 99.116 39.8116 99.9114C39.8116 100.707 39.9827 101.31 40.3248 101.721C40.6755 102.131 41.146 102.336 41.7362 102.336ZM49.283 103.26C48.6501 103.26 48.1026 103.128 47.6408 102.862C47.1789 102.589 46.8196 102.204 46.563 101.708C46.3064 101.203 46.1781 100.604 46.1781 99.9114C46.1781 99.2272 46.3064 98.637 46.563 98.1409C46.8196 97.6362 47.1789 97.2513 47.6408 96.9862C48.1026 96.7125 48.6501 96.5756 49.283 96.5756C49.916 96.5756 50.4634 96.7125 50.9253 96.9862C51.3957 97.2513 51.755 97.6362 52.003 98.1409C52.2596 98.637 52.3879 99.2272 52.3879 99.9114C52.3879 100.604 52.2596 101.203 52.003 101.708C51.755 102.204 51.3957 102.589 50.9253 102.862C50.4634 103.128 49.916 103.26 49.283 103.26ZM49.283 102.336C49.8647 102.336 50.3308 102.131 50.6815 101.721C51.0322 101.31 51.2076 100.707 51.2076 99.9114C51.2076 99.116 51.0322 98.5172 50.6815 98.1152C50.3308 97.7132 49.8647 97.5122 49.283 97.5122C48.6928 97.5122 48.2224 97.7132 47.8717 98.1152C47.5296 98.5172 47.3585 99.116 47.3585 99.9114C47.3585 100.707 47.5296 101.31 47.8717 101.721C48.2224 102.131 48.6928 102.336 49.283 102.336ZM53.3876 104.813V102.234H54.0932C54.3841 101.797 54.5936 101.284 54.7219 100.694C54.8588 100.104 54.9272 99.4025 54.9272 98.5899V96.6911H59.5589V102.234H60.5853V104.813H59.5846V103.145H54.4012V104.813H53.3876ZM55.1966 102.247H58.4683V97.5892H55.9536V98.7952C55.9536 99.4453 55.8895 100.078 55.7612 100.694C55.6329 101.301 55.4447 101.819 55.1966 102.247ZM64.6943 103.26C64.0613 103.26 63.5139 103.128 63.052 102.862C62.5901 102.589 62.2309 102.204 61.9743 101.708C61.7177 101.203 61.5894 100.604 61.5894 99.9114C61.5894 99.2272 61.7177 98.637 61.9743 98.1409C62.2309 97.6362 62.5901 97.2513 63.052 96.9862C63.5139 96.7125 64.0613 96.5756 64.6943 96.5756C65.3272 96.5756 65.8747 96.7125 66.3365 96.9862C66.807 97.2513 67.1662 97.6362 67.4143 98.1409C67.6709 98.637 67.7992 99.2272 67.7992 99.9114C67.7992 100.604 67.6709 101.203 67.4143 101.708C67.1662 102.204 66.807 102.589 66.3365 102.862C65.8747 103.128 65.3272 103.26 64.6943 103.26ZM64.6943 102.336C65.2759 102.336 65.7421 102.131 66.0928 101.721C66.4435 101.31 66.6188 100.707 66.6188 99.9114C66.6188 99.116 66.4435 98.5172 66.0928 98.1152C65.7421 97.7132 65.2759 97.5122 64.6943 97.5122C64.1041 97.5122 63.6337 97.7132 63.283 98.1152C62.9408 98.5172 62.7698 99.116 62.7698 99.9114C62.7698 100.707 62.9408 101.31 63.283 101.721C63.6337 102.131 64.1041 102.336 64.6943 102.336ZM69.0328 103.299L68.6222 102.388C68.9216 102.251 69.1696 102.088 69.3664 101.9C69.5717 101.703 69.7299 101.455 69.8411 101.156C69.9608 100.857 70.0464 100.485 70.0977 100.04C70.149 99.595 70.1747 99.0561 70.1747 98.4231V96.6911H74.9347V103.145H73.78V97.602H71.2524V98.4488C71.2524 99.441 71.1754 100.262 71.0215 100.912C70.8761 101.554 70.6408 102.063 70.3158 102.439C69.9993 102.815 69.5717 103.102 69.0328 103.299ZM75.9328 103.145L77.2672 100.848C77.4639 100.532 77.6435 100.279 77.806 100.091C77.9686 99.9029 78.1396 99.7618 78.3192 99.6677C78.5074 99.565 78.7255 99.5009 78.9736 99.4752L78.6913 99.8345L76.2408 96.6911H77.5238L79.6151 99.3597H80.603V96.6911H81.7577V99.3597H82.7328L84.8113 96.6911H86.1072L83.6566 99.8345L83.3615 99.4752C83.6096 99.5009 83.8234 99.565 84.003 99.6677C84.1912 99.7618 84.3708 99.9029 84.5419 100.091C84.713 100.279 84.8926 100.532 85.0808 100.848L86.4151 103.145H85.1706L84.003 101.156C83.8662 100.925 83.7336 100.745 83.6053 100.617C83.477 100.489 83.3316 100.399 83.1691 100.348C83.0151 100.296 82.8184 100.271 82.5789 100.271H81.7577V103.145H80.603V100.271H79.7691C79.5296 100.271 79.3286 100.296 79.166 100.348C79.0121 100.399 78.8709 100.489 78.7426 100.617C78.6229 100.745 78.4903 100.925 78.3449 101.156L77.1902 103.145H75.9328ZM87.4208 103.145V96.6911H88.4857V102.041H88.1393L92.1423 96.6911H93.1174V103.145H92.0525V97.7816H92.4117L88.3959 103.145H87.4208ZM96.4995 103.145V97.6277H94.1773V96.6911H99.9765V97.6277H97.6542V103.145H96.4995ZM103.979 103.26C102.953 103.26 102.14 102.965 101.542 102.375C100.951 101.785 100.656 100.972 100.656 99.9371C100.656 99.2528 100.785 98.6626 101.041 98.1665C101.306 97.6619 101.67 97.2727 102.132 96.999C102.594 96.7167 103.133 96.5756 103.748 96.5756C104.339 96.5756 104.839 96.7039 105.25 96.9605C105.66 97.2086 105.972 97.5635 106.186 98.0254C106.4 98.4873 106.507 99.0347 106.507 99.6677V100.053H101.567V99.3597H105.711L105.493 99.5265C105.493 98.8594 105.344 98.3419 105.044 97.9741C104.753 97.6063 104.321 97.4224 103.748 97.4224C103.124 97.4224 102.641 97.6405 102.299 98.0767C101.956 98.5044 101.785 99.0903 101.785 99.8345V99.9499C101.785 100.737 101.978 101.331 102.363 101.733C102.756 102.135 103.299 102.336 103.992 102.336C104.377 102.336 104.736 102.281 105.07 102.17C105.403 102.058 105.724 101.874 106.032 101.618L106.417 102.426C106.126 102.691 105.763 102.897 105.326 103.042C104.899 103.187 104.45 103.26 103.979 103.26ZM107.824 103.299L107.414 102.388C107.713 102.251 107.961 102.088 108.158 101.9C108.363 101.703 108.521 101.455 108.632 101.156C108.752 100.857 108.838 100.485 108.889 100.04C108.94 99.595 108.966 99.0561 108.966 98.4231V96.6911H113.726V103.145H112.571V97.602H110.044V98.4488C110.044 99.441 109.967 100.262 109.813 100.912C109.667 101.554 109.432 102.063 109.107 102.439C108.791 102.815 108.363 103.102 107.824 103.299ZM115.725 103.145V96.6911H116.88V98.9748H118.778C119.617 98.9748 120.245 99.1545 120.664 99.5137C121.092 99.8644 121.306 100.373 121.306 101.041C121.306 101.468 121.208 101.84 121.011 102.157C120.814 102.473 120.528 102.717 120.151 102.888C119.775 103.059 119.317 103.145 118.778 103.145H115.725ZM116.88 102.336H118.65C119.155 102.336 119.54 102.234 119.805 102.028C120.07 101.815 120.203 101.49 120.203 101.053C120.203 100.617 120.07 100.296 119.805 100.091C119.548 99.8858 119.163 99.7831 118.65 99.7831H116.88V102.336ZM122.804 103.145V96.6911H123.959V99.3597H127.372V96.6911H128.526V103.145H127.372V100.284H123.959V103.145H122.804ZM133.281 103.26C132.648 103.26 132.1 103.128 131.638 102.862C131.177 102.589 130.817 102.204 130.561 101.708C130.304 101.203 130.176 100.604 130.176 99.9114C130.176 99.2272 130.304 98.637 130.561 98.1409C130.817 97.6362 131.177 97.2513 131.638 96.9862C132.1 96.7125 132.648 96.5756 133.281 96.5756C133.914 96.5756 134.461 96.7125 134.923 96.9862C135.393 97.2513 135.753 97.6362 136.001 98.1409C136.257 98.637 136.386 99.2272 136.386 99.9114C136.386 100.604 136.257 101.203 136.001 101.708C135.753 102.204 135.393 102.589 134.923 102.862C134.461 103.128 133.914 103.26 133.281 103.26ZM133.281 102.336C133.862 102.336 134.328 102.131 134.679 101.721C135.03 101.31 135.205 100.707 135.205 99.9114C135.205 99.116 135.03 98.5172 134.679 98.1152C134.328 97.7132 133.862 97.5122 133.281 97.5122C132.69 97.5122 132.22 97.7132 131.869 98.1152C131.527 98.5172 131.356 99.116 131.356 99.9114C131.356 100.707 131.527 101.31 131.869 101.721C132.22 102.131 132.69 102.336 133.281 102.336ZM140.862 103.26C140.221 103.26 139.665 103.128 139.194 102.862C138.724 102.589 138.356 102.199 138.091 101.695C137.834 101.182 137.706 100.574 137.706 99.873C137.706 99.1801 137.839 98.5899 138.104 98.1024C138.369 97.6063 138.737 97.2299 139.207 96.9733C139.678 96.7082 140.229 96.5756 140.862 96.5756C141.281 96.5756 141.688 96.6483 142.081 96.7937C142.475 96.9306 142.795 97.1316 143.043 97.3967L142.646 98.2179C142.398 97.9784 142.124 97.803 141.824 97.6918C141.525 97.5721 141.23 97.5122 140.939 97.5122C140.306 97.5122 139.81 97.7175 139.451 98.128C139.092 98.5301 138.912 99.116 138.912 99.8858C138.912 100.664 139.092 101.263 139.451 101.682C139.81 102.101 140.306 102.311 140.939 102.311C141.221 102.311 141.512 102.255 141.812 102.144C142.111 102.033 142.389 101.857 142.646 101.618L143.043 102.426C142.787 102.7 142.457 102.909 142.055 103.055C141.662 103.192 141.264 103.26 140.862 103.26ZM145.953 103.145V97.6277H143.631V96.6911H149.43V97.6277H147.108V103.145H145.953ZM150.494 103.145V96.6911H151.649V98.9748H153.548C154.386 98.9748 155.015 99.1545 155.434 99.5137C155.861 99.8644 156.075 100.373 156.075 101.041C156.075 101.468 155.977 101.84 155.78 102.157C155.583 102.473 155.297 102.717 154.921 102.888C154.544 103.059 154.087 103.145 153.548 103.145H150.494ZM151.649 102.336H153.419C153.924 102.336 154.309 102.234 154.574 102.028C154.839 101.815 154.972 101.49 154.972 101.053C154.972 100.617 154.839 100.296 154.574 100.091C154.318 99.8858 153.933 99.7831 153.419 99.7831H151.649V102.336Z" fill="#343434"/>
<circle cx="18.1761" cy="83.5912" r="5.34591" fill="url(#paint0_linear_112_262)"/>
<rect y="0.194969" width="170" height="54.5283" rx="8.55346" fill="white"/>
<path d="M31.7173 27.0252V25.3091H34.3154V17.4506H35.3097L31.9739 19.4393V17.4827L34.9088 15.7186H36.3843V25.3091H38.822V27.0252H31.7173ZM47.6431 27.1855C46.9375 27.1855 46.3174 27.0198 45.7828 26.6884C45.2482 26.3462 44.8312 25.8597 44.5318 25.2289C44.2324 24.5981 44.0828 23.8443 44.0828 22.9676C44.0828 22.0909 44.2324 21.3425 44.5318 20.7223C44.8312 20.0915 45.2482 19.6104 45.7828 19.2789C46.3174 18.9368 46.9375 18.7657 47.6431 18.7657C48.3274 18.7657 48.9262 18.9368 49.4394 19.2789C49.9633 19.6104 50.3107 20.0594 50.4818 20.6261H50.3054L50.4818 18.9261H52.4063C52.3743 19.2575 52.3422 19.5943 52.3101 19.9365C52.2887 20.2786 52.278 20.6154 52.278 20.9469V27.0252H50.2894L50.2733 25.3572H50.4658C50.2947 25.9132 49.9472 26.3569 49.4233 26.6884C48.8994 27.0198 48.306 27.1855 47.6431 27.1855ZM48.2045 25.6459C48.8353 25.6459 49.3431 25.4267 49.728 24.9884C50.113 24.5393 50.3054 23.8657 50.3054 22.9676C50.3054 22.0695 50.113 21.4013 49.728 20.9629C49.3431 20.5245 48.8353 20.3053 48.2045 20.3053C47.5736 20.3053 47.0658 20.5245 46.6809 20.9629C46.296 21.4013 46.1035 22.0695 46.1035 22.9676C46.1035 23.8657 46.2906 24.5393 46.6648 24.9884C47.0497 25.4267 47.5629 25.6459 48.2045 25.6459ZM54.2954 27.0252V18.9261H61.8813V27.0252H59.8926V20.4657H56.2841V27.0252H54.2954ZM63.9058 30.4893V20.9469C63.9058 20.6154 63.8951 20.2786 63.8737 19.9365C63.8523 19.5943 63.8202 19.2575 63.7775 18.9261H65.718L65.8945 20.6261H65.718C65.8784 20.0594 66.2152 19.6104 66.7284 19.2789C67.2523 18.9368 67.8564 18.7657 68.5407 18.7657C69.257 18.7657 69.8825 18.9368 70.4171 19.2789C70.9517 19.6104 71.3687 20.0915 71.668 20.7223C71.9674 21.3425 72.1171 22.0909 72.1171 22.9676C72.1171 23.8443 71.9674 24.5981 71.668 25.2289C71.3687 25.8597 70.9517 26.3462 70.4171 26.6884C69.8825 27.0198 69.257 27.1855 68.5407 27.1855C67.8671 27.1855 67.2737 27.0198 66.7605 26.6884C66.2473 26.3569 65.9052 25.9132 65.7341 25.3572H65.9105V30.4893H63.9058ZM67.9794 25.6459C68.6209 25.6459 69.1341 25.4267 69.519 24.9884C69.9039 24.5393 70.0963 23.8657 70.0963 22.9676C70.0963 22.0695 69.9039 21.4013 69.519 20.9629C69.1341 20.5245 68.6209 20.3053 67.9794 20.3053C67.3485 20.3053 66.8407 20.5245 66.4558 20.9629C66.0709 21.4013 65.8784 22.0695 65.8784 22.9676C65.8784 23.8657 66.0709 24.5393 66.4558 24.9884C66.8407 25.4267 67.3485 25.6459 67.9794 25.6459ZM77.6628 27.1855C76.3049 27.1855 75.2411 26.8113 74.4713 26.0629C73.7015 25.3145 73.3165 24.2881 73.3165 22.9836C73.3165 22.139 73.4823 21.4013 73.8137 20.7704C74.1452 20.1396 74.6049 19.6478 75.193 19.295C75.7917 18.9421 76.4867 18.7657 77.2779 18.7657C78.0584 18.7657 78.7106 18.9314 79.2345 19.2629C79.7584 19.5943 80.154 20.0594 80.4213 20.6582C80.6992 21.2569 80.8382 21.9572 80.8382 22.7591V23.2884H74.9364V22.2299H79.4109L79.1382 22.4544C79.1382 21.706 78.9779 21.134 78.6571 20.7384C78.347 20.3428 77.8926 20.145 77.2939 20.145C76.631 20.145 76.1178 20.3802 75.7543 20.8506C75.4015 21.3211 75.225 21.9786 75.225 22.8233V23.0318C75.225 23.9085 75.4389 24.566 75.8665 25.0044C76.3049 25.4321 76.9197 25.6459 77.7109 25.6459C78.1706 25.6459 78.5983 25.5871 78.9939 25.4695C79.4002 25.3412 79.7851 25.1381 80.1486 24.8601L80.742 26.2072C80.3571 26.5173 79.8974 26.7579 79.3628 26.9289C78.8282 27.1 78.2615 27.1855 77.6628 27.1855ZM82.1617 27.2497L81.5363 25.678C81.8891 25.5497 82.1831 25.384 82.4183 25.1808C82.6642 24.967 82.8567 24.6997 82.9957 24.3789C83.1454 24.0475 83.2523 23.6412 83.3165 23.1601C83.3806 22.6682 83.4127 22.0855 83.4127 21.412V18.9261H89.8598V27.0252H87.8712V20.4657H85.241V21.4761C85.241 22.6415 85.1341 23.6198 84.9202 24.411C84.7064 25.1915 84.3749 25.8116 83.9259 26.2714C83.4768 26.7311 82.8888 27.0572 82.1617 27.2497ZM91.1489 27.0252L92.3838 24.8921C92.5976 24.5286 92.8596 24.2399 93.1696 24.0261C93.4904 23.8016 93.8218 23.6893 94.164 23.6893H94.5168L94.5008 23.8657C93.5492 23.8657 92.8168 23.6572 92.3036 23.2403C91.7904 22.8233 91.5338 22.2138 91.5338 21.412C91.5338 20.6208 91.7957 20.0113 92.3196 19.5836C92.8542 19.1453 93.6347 18.9261 94.6611 18.9261H98.6866V27.0252H96.8583V24.1704H95.9442C95.6127 24.1704 95.3187 24.2613 95.0621 24.4431C94.8162 24.6248 94.6077 24.8601 94.4366 25.1487L93.3781 27.0252H91.1489ZM95.046 22.8714H96.8583V20.2252H95.046C94.5008 20.2252 94.0891 20.3428 93.8111 20.578C93.5438 20.8132 93.4102 21.134 93.4102 21.5403C93.4102 21.9679 93.5438 22.2994 93.8111 22.5346C94.0891 22.7591 94.5008 22.8714 95.046 22.8714Z" fill="#343434"/>
<path d="M33.7477 40.1784C33.1062 40.1784 32.5502 40.0458 32.0797 39.7806C31.6093 39.5069 31.2415 39.1177 30.9763 38.6131C30.7197 38.0999 30.5914 37.4926 30.5914 36.7912C30.5914 36.0984 30.724 35.5082 30.9892 35.0206C31.2543 34.5245 31.6221 34.1482 32.0926 33.8916C32.563 33.6264 33.1147 33.4938 33.7477 33.4938C34.1668 33.4938 34.5731 33.5665 34.9665 33.7119C35.36 33.8488 35.6808 34.0498 35.9288 34.315L35.5311 35.1361C35.283 34.8966 35.0093 34.7213 34.7099 34.6101C34.4106 34.4903 34.1155 34.4304 33.8247 34.4304C33.1917 34.4304 32.6956 34.6357 32.3363 35.0463C31.9771 35.4483 31.7975 36.0342 31.7975 36.804C31.7975 37.5824 31.9771 38.1811 32.3363 38.6003C32.6956 39.0194 33.1917 39.2289 33.8247 39.2289C34.1069 39.2289 34.3977 39.1733 34.6971 39.0621C34.9965 38.9509 35.2745 38.7756 35.5311 38.5361L35.9288 39.3444C35.6722 39.6181 35.3429 39.8277 34.9409 39.9731C34.5474 40.1099 34.1497 40.1784 33.7477 40.1784ZM38.8388 40.0629V34.5459H36.5166V33.6093H42.3158V34.5459H39.9936V40.0629H38.8388ZM45.8815 40.1784C45.317 40.1784 44.8209 40.0458 44.3932 39.7806C43.9655 39.5155 43.632 39.1306 43.3925 38.6259C43.153 38.1213 43.0332 37.5225 43.0332 36.8297C43.0332 36.1369 43.153 35.5424 43.3925 35.0463C43.632 34.5416 43.9655 34.1567 44.3932 33.8916C44.8209 33.6264 45.317 33.4938 45.8815 33.4938C46.4546 33.4938 46.9507 33.6392 47.3698 33.9301C47.7975 34.2123 48.0798 34.6015 48.2166 35.0976H48.0627L48.2038 33.6093H49.3328C49.3072 33.8659 49.2815 34.1225 49.2559 34.3791C49.2388 34.6357 49.2302 34.888 49.2302 35.1361V40.0629H48.0627V38.5874H48.2038C48.0669 39.075 47.7847 39.4642 47.357 39.755C46.9379 40.0372 46.446 40.1784 45.8815 40.1784ZM46.151 39.2546C46.7326 39.2546 47.1988 39.0493 47.5494 38.6387C47.9001 38.2282 48.0755 37.6252 48.0755 36.8297C48.0755 36.0342 47.9001 35.4355 47.5494 35.0335C47.1988 34.6314 46.7326 34.4304 46.151 34.4304C45.5693 34.4304 45.0989 34.6314 44.7396 35.0335C44.3889 35.4355 44.2136 36.0342 44.2136 36.8297C44.2136 37.6252 44.3889 38.2282 44.7396 38.6387C45.0903 39.0493 45.5608 39.2546 46.151 39.2546ZM51.3242 42.8342V35.1361C51.3242 34.888 51.3157 34.6357 51.2986 34.3791C51.2815 34.1225 51.2558 33.8659 51.2216 33.6093H52.3506L52.4918 35.0976H52.3506C52.4789 34.6015 52.7527 34.2123 53.1718 33.9301C53.5909 33.6392 54.0913 33.4938 54.6729 33.4938C55.246 33.4938 55.7464 33.6264 56.174 33.8916C56.6017 34.1567 56.931 34.5416 57.162 35.0463C57.4015 35.5424 57.5212 36.1369 57.5212 36.8297C57.5212 37.5225 57.4015 38.1213 57.162 38.6259C56.931 39.1306 56.6017 39.5155 56.174 39.7806C55.7464 40.0458 55.246 40.1784 54.6729 40.1784C54.0998 40.1784 53.6037 40.0372 53.1846 39.755C52.774 39.4642 52.4961 39.075 52.3506 38.5874H52.4918V42.8342H51.3242ZM54.4035 39.2546C54.9937 39.2546 55.4641 39.0493 55.8148 38.6387C56.1655 38.2282 56.3408 37.6252 56.3408 36.8297C56.3408 36.0342 56.1655 35.4355 55.8148 35.0335C55.4641 34.6314 54.9937 34.4304 54.4035 34.4304C53.8133 34.4304 53.3428 34.6314 52.9922 35.0335C52.65 35.4355 52.4789 36.0342 52.4789 36.8297C52.4789 37.6252 52.65 38.2282 52.9922 38.6387C53.3428 39.0493 53.8133 39.2546 54.4035 39.2546ZM60.5775 40.0629V34.5459H58.2552V33.6093H64.0545V34.5459H61.7322V40.0629H60.5775ZM71.2597 40.1784C70.6268 40.1784 70.0794 40.0458 69.6175 39.7806C69.1556 39.5069 68.7963 39.122 68.5397 38.6259C68.2831 38.1213 68.1548 37.5225 68.1548 36.8297C68.1548 36.1454 68.2831 35.5552 68.5397 35.0591C68.7963 34.5545 69.1556 34.1696 69.6175 33.9044C70.0794 33.6307 70.6268 33.4938 71.2597 33.4938C71.8927 33.4938 72.4401 33.6307 72.902 33.9044C73.3724 34.1696 73.7317 34.5545 73.9797 35.0591C74.2363 35.5552 74.3646 36.1454 74.3646 36.8297C74.3646 37.5225 74.2363 38.1213 73.9797 38.6259C73.7317 39.122 73.3724 39.5069 72.902 39.7806C72.4401 40.0458 71.8927 40.1784 71.2597 40.1784ZM71.2597 39.2546C71.8414 39.2546 72.3075 39.0493 72.6582 38.6387C73.0089 38.2282 73.1843 37.6252 73.1843 36.8297C73.1843 36.0342 73.0089 35.4355 72.6582 35.0335C72.3075 34.6314 71.8414 34.4304 71.2597 34.4304C70.6695 34.4304 70.1991 34.6314 69.8484 35.0335C69.5063 35.4355 69.3352 36.0342 69.3352 36.8297C69.3352 37.6252 69.5063 38.2282 69.8484 38.6387C70.1991 39.0493 70.6695 39.2546 71.2597 39.2546ZM78.8413 40.1784C77.8747 40.1784 77.1092 39.8747 76.5447 39.2674C75.9801 38.6601 75.6979 37.7706 75.6979 36.5987V35.4825C75.6979 34.285 75.9502 33.3185 76.4549 32.5829C76.9595 31.8473 77.7422 31.3512 78.8028 31.0946L81.1635 30.5044L81.5099 31.4538L78.8926 32.0825C78.4222 32.1937 78.033 32.3947 77.725 32.6855C77.4171 32.9764 77.1862 33.3185 77.0322 33.7119C76.8868 34.1054 76.8141 34.5245 76.8141 34.9693V35.521H76.6345C76.7371 35.1361 76.8996 34.8025 77.122 34.5203C77.353 34.238 77.6395 34.0242 77.9816 33.8787C78.3238 33.7248 78.7001 33.6478 79.1107 33.6478C79.6667 33.6478 80.1542 33.7761 80.5733 34.0327C80.9925 34.2893 81.3175 34.6614 81.5484 35.1489C81.7879 35.6279 81.9077 36.201 81.9077 36.8682C81.9077 37.5525 81.7794 38.1426 81.5228 38.6387C81.2747 39.1348 80.9198 39.5155 80.4579 39.7806C79.996 40.0458 79.4571 40.1784 78.8413 40.1784ZM78.8028 39.2546C79.4015 39.2546 79.872 39.0579 80.2141 38.6644C80.5648 38.2709 80.7401 37.685 80.7401 36.9067C80.7401 36.1454 80.5648 35.5638 80.2141 35.1618C79.872 34.7597 79.4015 34.5587 78.8028 34.5587C78.204 34.5587 77.7293 34.7555 77.3786 35.1489C77.0365 35.5424 76.8654 36.1026 76.8654 36.8297C76.8654 37.6423 77.0365 38.2496 77.3786 38.6516C77.7293 39.0536 78.204 39.2546 78.8028 39.2546ZM83.2943 42.9753L83.0249 42.0259C83.4269 41.9318 83.7605 41.8206 84.0257 41.6923C84.2908 41.5726 84.5132 41.4143 84.6928 41.2176C84.8725 41.0209 85.0307 40.7728 85.1676 40.4735L85.4883 39.7036L85.4627 40.1912L82.6528 33.6093H83.9102L86.1555 39.1391H85.8219L88.0672 33.6093H89.2732L86.3094 40.5633C86.1298 40.9824 85.9331 41.3331 85.7193 41.6153C85.514 41.8976 85.2873 42.1286 85.0393 42.3082C84.7998 42.4878 84.5346 42.6289 84.2438 42.7316C83.953 42.8342 83.6365 42.9155 83.2943 42.9753ZM94.597 40.0629V37.5097C94.349 37.6465 94.0838 37.7535 93.8016 37.8304C93.5193 37.8989 93.2199 37.9331 92.9035 37.9331C91.9797 37.9331 91.2954 37.7192 90.8506 37.2916C90.4144 36.8553 90.1963 36.201 90.1963 35.3286V33.6093H91.351V35.2387C91.351 35.846 91.4879 36.2865 91.7616 36.5603C92.0438 36.8254 92.4801 36.958 93.0703 36.958C93.3696 36.958 93.6391 36.928 93.8786 36.8682C94.1181 36.7997 94.349 36.6928 94.5714 36.5474V33.6093H95.7389V40.0629H94.597ZM100.722 40.1784C99.6952 40.1784 98.8827 39.8833 98.2839 39.2931C97.6937 38.7029 97.3986 37.8903 97.3986 36.8553C97.3986 36.1711 97.5269 35.5809 97.7835 35.0848C98.0487 34.5801 98.4122 34.1909 98.8741 33.9172C99.336 33.635 99.8749 33.4938 100.491 33.4938C101.081 33.4938 101.581 33.6221 101.992 33.8787C102.402 34.1268 102.715 34.4818 102.928 34.9436C103.142 35.4055 103.249 35.953 103.249 36.5859V36.9708H98.3096V36.278H102.454L102.236 36.4448C102.236 35.7776 102.086 35.2601 101.787 34.8923C101.496 34.5245 101.064 34.3406 100.491 34.3406C99.8663 34.3406 99.383 34.5587 99.0409 34.995C98.6988 35.4226 98.5277 36.0086 98.5277 36.7527V36.8682C98.5277 37.6551 98.7201 38.2496 99.105 38.6516C99.4985 39.0536 100.042 39.2546 100.734 39.2546C101.119 39.2546 101.479 39.199 101.812 39.0878C102.146 38.9766 102.467 38.7927 102.774 38.5361L103.159 39.3444C102.869 39.6096 102.505 39.8148 102.069 39.9603C101.641 40.1057 101.192 40.1784 100.722 40.1784ZM104.874 40.0629V33.6093H106.029V36.278H109.442V33.6093H110.597V40.0629H109.442V37.2018H106.029V40.0629H104.874ZM112.592 40.0629V33.6093H113.657V38.9595H113.311L117.314 33.6093H118.289V40.0629H117.224V34.6999H117.583L113.568 40.0629H112.592ZM119.772 40.0629L120.786 38.3052C120.948 38.0229 121.154 37.7962 121.402 37.6252C121.65 37.4455 121.911 37.3557 122.184 37.3557H122.39L122.377 37.4712C121.65 37.4712 121.081 37.3087 120.67 36.9836C120.26 36.6501 120.055 36.1711 120.055 35.5467C120.055 34.9308 120.256 34.4561 120.658 34.1225C121.06 33.7804 121.658 33.6093 122.454 33.6093H125.392V40.0629H124.314V37.6252H123.39C123.057 37.6252 122.77 37.7107 122.531 37.8818C122.291 38.0443 122.095 38.2624 121.941 38.5361L121.068 40.0629H119.772ZM122.659 36.8169H124.314V34.4048H122.659C122.155 34.4048 121.778 34.5117 121.53 34.7255C121.291 34.9394 121.171 35.2345 121.171 35.6108C121.171 35.9957 121.291 36.2951 121.53 36.5089C121.778 36.7142 122.155 36.8169 122.659 36.8169Z" fill="#343434"/>
<circle cx="18.1761" cy="20.5094" r="5.34591" fill="url(#paint1_linear_112_262)"/>
<defs>
<linearGradient id="paint0_linear_112_262" x1="18.1761" y1="78.2453" x2="18.1761" y2="88.9371" gradientUnits="userSpaceOnUse">
<stop stop-color="#79CAFB"/>
<stop offset="1" stop-color="#678ED1"/>
</linearGradient>
<linearGradient id="paint1_linear_112_262" x1="18.1761" y1="15.1635" x2="18.1761" y2="25.8553" gradientUnits="userSpaceOnUse">
<stop stop-color="#FB79A8"/>
<stop offset="1" stop-color="#F55567"/>
</linearGradient>
</defs>
</svg>
