<svg width="170" height="119" viewBox="0 0 170 119" fill="none" xmlns="http://www.w3.org/2000/svg">
<rect y="63.7766" width="170" height="54.5283" rx="8.55346" fill="white"/>
<path d="M35.6464 90.6069V88.3937H30.5946V86.9503L35.9672 79.3003H37.6351V86.822H39.2549V88.3937H37.6351V90.6069H35.6464ZM35.6464 86.822V81.7381H36.0314L32.1342 87.3032V86.822H35.6464ZM44.4515 90.6069V82.5079H46.4402V85.6833H50.0968V82.5079H52.0855V90.6069H50.0968V87.223H46.4402V90.6069H44.4515ZM58.0221 90.7673C56.6642 90.7673 55.6004 90.3931 54.8306 89.6447C54.0608 88.8962 53.6759 87.8698 53.6759 86.5654C53.6759 85.7208 53.8416 84.983 54.173 84.3522C54.5045 83.7214 54.9642 83.2296 55.5523 82.8767C56.151 82.5239 56.846 82.3475 57.6372 82.3475C58.4177 82.3475 59.0699 82.5132 59.5938 82.8447C60.1177 83.1761 60.5133 83.6412 60.7806 84.24C61.0586 84.8387 61.1976 85.539 61.1976 86.3409V86.8701H55.2957V85.8117H59.7702L59.4976 86.0362C59.4976 85.2878 59.3372 84.7157 59.0164 84.3201C58.7064 83.9245 58.252 83.7267 57.6532 83.7267C56.9903 83.7267 56.4771 83.962 56.1136 84.4324C55.7608 84.9028 55.5844 85.5604 55.5844 86.405V86.6135C55.5844 87.4903 55.7982 88.1478 56.2259 88.5862C56.6642 89.0139 57.279 89.2277 58.0702 89.2277C58.53 89.2277 58.9576 89.1689 59.3532 89.0513C59.7595 88.923 60.1444 88.7198 60.5079 88.4418L61.1013 89.789C60.7164 90.0991 60.2567 90.3396 59.7221 90.5107C59.1875 90.6818 58.6208 90.7673 58.0221 90.7673ZM62.0078 92.6918V89.0833H62.938C63.2588 88.5808 63.4887 87.9928 63.6277 87.3192C63.7773 86.6349 63.8522 85.801 63.8522 84.8173V82.5079H70.0909V89.0833H71.406V92.6918H69.706V90.6069H63.7078V92.6918H62.0078ZM64.7343 89.0994H68.2144V84.0154H65.5522V85.2664C65.5522 85.9827 65.4827 86.683 65.3437 87.3673C65.2047 88.0516 65.0016 88.6289 64.7343 89.0994ZM76.535 90.7673C75.1772 90.7673 74.1133 90.3931 73.3435 89.6447C72.5737 88.8962 72.1888 87.8698 72.1888 86.5654C72.1888 85.7208 72.3545 84.983 72.686 84.3522C73.0174 83.7214 73.4772 83.2296 74.0652 82.8767C74.664 82.5239 75.3589 82.3475 76.1501 82.3475C76.9306 82.3475 77.5828 82.5132 78.1067 82.8447C78.6306 83.1761 79.0262 83.6412 79.2935 84.24C79.5715 84.8387 79.7105 85.539 79.7105 86.3409V86.8701H73.8086V85.8117H78.2831L78.0105 86.0362C78.0105 85.2878 77.8501 84.7157 77.5294 84.3201C77.2193 83.9245 76.7649 83.7267 76.1662 83.7267C75.5033 83.7267 74.9901 83.962 74.6265 84.4324C74.2737 84.9028 74.0973 85.5604 74.0973 86.405V86.6135C74.0973 87.4903 74.3111 88.1478 74.7388 88.5862C75.1772 89.0139 75.7919 89.2277 76.5831 89.2277C77.0429 89.2277 77.4706 89.1689 77.8662 89.0513C78.2724 88.923 78.6574 88.7198 79.0209 88.4418L79.6143 89.789C79.2294 90.0991 78.7696 90.3396 78.235 90.5107C77.7004 90.6818 77.1338 90.7673 76.535 90.7673ZM81.034 90.8315L80.4085 89.2598C80.7613 89.1315 81.0554 88.9657 81.2906 88.7626C81.5365 88.5488 81.729 88.2815 81.8679 87.9607C82.0176 87.6293 82.1246 87.223 82.1887 86.7418C82.2529 86.25 82.2849 85.6673 82.2849 84.9937V82.5079H88.7321V90.6069H86.7434V84.0475H84.1132V85.0579C84.1132 86.2233 84.0063 87.2016 83.7925 87.9928C83.5786 88.7733 83.2472 89.3934 82.7981 89.8532C82.3491 90.3129 81.761 90.639 81.034 90.8315ZM90.6947 90.6069V82.5079H92.507V88.6343H92.0258L96.6287 82.5079H98.2806V90.6069H96.4683V84.4645H96.9655L92.3466 90.6069H90.6947Z" fill="#343434"/>
<path d="M30.9378 103.645V97.1912H36.6215V103.645H35.4668V98.1021H32.0925V103.645H30.9378ZM38.6568 106.416V98.718C38.6568 98.4699 38.6483 98.2176 38.6312 97.961C38.6141 97.7044 38.5884 97.4478 38.5542 97.1912H39.6832L39.8244 98.6795H39.6832C39.8115 98.1834 40.0853 97.7942 40.5044 97.5119C40.9235 97.2211 41.4239 97.0757 42.0055 97.0757C42.5786 97.0757 43.079 97.2083 43.5066 97.4735C43.9343 97.7386 44.2636 98.1235 44.4946 98.6282C44.7341 99.1243 44.8538 99.7187 44.8538 100.412C44.8538 101.104 44.7341 101.703 44.4946 102.208C44.2636 102.712 43.9343 103.097 43.5066 103.363C43.079 103.628 42.5786 103.76 42.0055 103.76C41.4324 103.76 40.9363 103.619 40.5172 103.337C40.1066 103.046 39.8287 102.657 39.6832 102.169H39.8244V106.416H38.6568ZM41.7361 102.836C42.3263 102.836 42.7967 102.631 43.1474 102.221C43.4981 101.81 43.6734 101.207 43.6734 100.412C43.6734 99.6161 43.4981 99.0174 43.1474 98.6153C42.7967 98.2133 42.3263 98.0123 41.7361 98.0123C41.1459 98.0123 40.6754 98.2133 40.3248 98.6153C39.9826 99.0174 39.8115 99.6161 39.8115 100.412C39.8115 101.207 39.9826 101.81 40.3248 102.221C40.6754 102.631 41.1459 102.836 41.7361 102.836ZM49.2829 103.76C48.65 103.76 48.1026 103.628 47.6407 103.363C47.1788 103.089 46.8195 102.704 46.5629 102.208C46.3063 101.703 46.178 101.104 46.178 100.412C46.178 99.7273 46.3063 99.1371 46.5629 98.641C46.8195 98.1363 47.1788 97.7514 47.6407 97.4863C48.1026 97.2126 48.65 97.0757 49.2829 97.0757C49.9159 97.0757 50.4633 97.2126 50.9252 97.4863C51.3956 97.7514 51.7549 98.1363 52.0029 98.641C52.2595 99.1371 52.3878 99.7273 52.3878 100.412C52.3878 101.104 52.2595 101.703 52.0029 102.208C51.7549 102.704 51.3956 103.089 50.9252 103.363C50.4633 103.628 49.9159 103.76 49.2829 103.76ZM49.2829 102.836C49.8646 102.836 50.3307 102.631 50.6814 102.221C51.0321 101.81 51.2075 101.207 51.2075 100.412C51.2075 99.6161 51.0321 99.0174 50.6814 98.6153C50.3307 98.2133 49.8646 98.0123 49.2829 98.0123C48.6927 98.0123 48.2223 98.2133 47.8716 98.6153C47.5295 99.0174 47.3584 99.6161 47.3584 100.412C47.3584 101.207 47.5295 101.81 47.8716 102.221C48.2223 102.631 48.6927 102.836 49.2829 102.836ZM53.3875 105.313V102.734H54.0932C54.384 102.298 54.5935 101.784 54.7218 101.194C54.8587 100.604 54.9271 99.9026 54.9271 99.0901V97.1912H59.5588V102.734H60.5852V105.313H59.5845V103.645H54.4011V105.313H53.3875ZM55.1965 102.747H58.4682V98.0893H55.9535V99.2953C55.9535 99.9454 55.8894 100.578 55.7611 101.194C55.6328 101.802 55.4446 102.319 55.1965 102.747ZM64.6942 103.76C64.0612 103.76 63.5138 103.628 63.0519 103.363C62.59 103.089 62.2308 102.704 61.9742 102.208C61.7176 101.703 61.5893 101.104 61.5893 100.412C61.5893 99.7273 61.7176 99.1371 61.9742 98.641C62.2308 98.1363 62.59 97.7514 63.0519 97.4863C63.5138 97.2126 64.0612 97.0757 64.6942 97.0757C65.3271 97.0757 65.8746 97.2126 66.3365 97.4863C66.8069 97.7514 67.1661 98.1363 67.4142 98.641C67.6708 99.1371 67.7991 99.7273 67.7991 100.412C67.7991 101.104 67.6708 101.703 67.4142 102.208C67.1661 102.704 66.8069 103.089 66.3365 103.363C65.8746 103.628 65.3271 103.76 64.6942 103.76ZM64.6942 102.836C65.2758 102.836 65.742 102.631 66.0927 102.221C66.4434 101.81 66.6187 101.207 66.6187 100.412C66.6187 99.6161 66.4434 99.0174 66.0927 98.6153C65.742 98.2133 65.2758 98.0123 64.6942 98.0123C64.104 98.0123 63.6336 98.2133 63.2829 98.6153C62.9407 99.0174 62.7697 99.6161 62.7697 100.412C62.7697 101.207 62.9407 101.81 63.2829 102.221C63.6336 102.631 64.104 102.836 64.6942 102.836ZM69.0327 103.799L68.6221 102.888C68.9215 102.751 69.1696 102.588 69.3663 102.4C69.5716 102.204 69.7298 101.955 69.841 101.656C69.9608 101.357 70.0463 100.985 70.0976 100.54C70.1489 100.095 70.1746 99.5562 70.1746 98.9233V97.1912H74.9346V103.645H73.7799V98.1021H71.2523V98.9489C71.2523 99.9411 71.1753 100.762 71.0214 101.412C70.876 102.054 70.6408 102.563 70.3157 102.939C69.9992 103.315 69.5716 103.602 69.0327 103.799ZM75.9327 103.645L77.2671 101.348C77.4638 101.032 77.6434 100.779 77.8059 100.591C77.9685 100.403 78.1395 100.262 78.3192 100.168C78.5073 100.065 78.7254 100.001 78.9735 99.9753L78.6912 100.335L76.2407 97.1912H77.5237L79.615 99.8599H80.6029V97.1912H81.7576V99.8599H82.7327L84.8112 97.1912H86.1071L83.6565 100.335L83.3614 99.9753C83.6095 100.001 83.8233 100.065 84.0029 100.168C84.1911 100.262 84.3707 100.403 84.5418 100.591C84.7129 100.779 84.8925 101.032 85.0807 101.348L86.415 103.645H85.1705L84.0029 101.656C83.8661 101.425 83.7335 101.246 83.6052 101.117C83.4769 100.989 83.3315 100.899 83.169 100.848C83.015 100.796 82.8183 100.771 82.5788 100.771H81.7576V103.645H80.6029V100.771H79.769C79.5295 100.771 79.3285 100.796 79.1659 100.848C79.012 100.899 78.8709 100.989 78.7426 101.117C78.6228 101.246 78.4902 101.425 78.3448 101.656L77.1901 103.645H75.9327ZM87.4207 103.645V97.1912H88.4856V102.541H88.1392L92.1422 97.1912H93.1173V103.645H92.0524V98.2818H92.4116L88.3958 103.645H87.4207ZM96.4994 103.645V98.1278H94.1772V97.1912H99.9764V98.1278H97.6541V103.645H96.4994ZM103.979 103.76C102.953 103.76 102.14 103.465 101.541 102.875C100.951 102.285 100.656 101.472 100.656 100.437C100.656 99.753 100.785 99.1628 101.041 98.6667C101.306 98.162 101.67 97.7728 102.132 97.4991C102.594 97.2169 103.132 97.0757 103.748 97.0757C104.338 97.0757 104.839 97.204 105.249 97.4606C105.66 97.7087 105.972 98.0636 106.186 98.5255C106.4 98.9874 106.507 99.5348 106.507 100.168V100.553H101.567V99.8599H105.711L105.493 100.027C105.493 99.3595 105.344 98.842 105.044 98.4742C104.753 98.1064 104.321 97.9225 103.748 97.9225C103.124 97.9225 102.641 98.1406 102.298 98.5769C101.956 99.0045 101.785 99.5904 101.785 100.335V100.45C101.785 101.237 101.978 101.831 102.363 102.233C102.756 102.635 103.299 102.836 103.992 102.836C104.377 102.836 104.736 102.781 105.07 102.67C105.403 102.558 105.724 102.375 106.032 102.118L106.417 102.926C106.126 103.191 105.763 103.397 105.326 103.542C104.899 103.688 104.45 103.76 103.979 103.76ZM107.824 103.799L107.413 102.888C107.713 102.751 107.961 102.588 108.158 102.4C108.363 102.204 108.521 101.955 108.632 101.656C108.752 101.357 108.838 100.985 108.889 100.54C108.94 100.095 108.966 99.5562 108.966 98.9233V97.1912H113.726V103.645H112.571V98.1021H110.044V98.9489C110.044 99.9411 109.967 100.762 109.813 101.412C109.667 102.054 109.432 102.563 109.107 102.939C108.791 103.315 108.363 103.602 107.824 103.799ZM115.725 103.645V97.1912H116.879V99.475H118.778C119.617 99.475 120.245 99.6546 120.664 100.014C121.092 100.365 121.306 100.873 121.306 101.541C121.306 101.968 121.208 102.34 121.011 102.657C120.814 102.973 120.528 103.217 120.151 103.388C119.775 103.559 119.317 103.645 118.778 103.645H115.725ZM116.879 102.836H118.65C119.155 102.836 119.54 102.734 119.805 102.529C120.07 102.315 120.203 101.99 120.203 101.553C120.203 101.117 120.07 100.796 119.805 100.591C119.548 100.386 119.163 100.283 118.65 100.283H116.879V102.836ZM122.804 103.645V97.1912H123.959V99.8599H127.371V97.1912H128.526V103.645H127.371V100.784H123.959V103.645H122.804ZM133.281 103.76C132.648 103.76 132.1 103.628 131.638 103.363C131.176 103.089 130.817 102.704 130.561 102.208C130.304 101.703 130.176 101.104 130.176 100.412C130.176 99.7273 130.304 99.1371 130.561 98.641C130.817 98.1363 131.176 97.7514 131.638 97.4863C132.1 97.2126 132.648 97.0757 133.281 97.0757C133.914 97.0757 134.461 97.2126 134.923 97.4863C135.393 97.7514 135.753 98.1363 136.001 98.641C136.257 99.1371 136.385 99.7273 136.385 100.412C136.385 101.104 136.257 101.703 136.001 102.208C135.753 102.704 135.393 103.089 134.923 103.363C134.461 103.628 133.914 103.76 133.281 103.76ZM133.281 102.836C133.862 102.836 134.328 102.631 134.679 102.221C135.03 101.81 135.205 101.207 135.205 100.412C135.205 99.6161 135.03 99.0174 134.679 98.6153C134.328 98.2133 133.862 98.0123 133.281 98.0123C132.69 98.0123 132.22 98.2133 131.869 98.6153C131.527 99.0174 131.356 99.6161 131.356 100.412C131.356 101.207 131.527 101.81 131.869 102.221C132.22 102.631 132.69 102.836 133.281 102.836ZM140.862 103.76C140.221 103.76 139.665 103.628 139.194 103.363C138.724 103.089 138.356 102.7 138.091 102.195C137.834 101.682 137.706 101.074 137.706 100.373C137.706 99.6802 137.838 99.0901 138.104 98.6025C138.369 98.1064 138.737 97.7301 139.207 97.4735C139.677 97.2083 140.229 97.0757 140.862 97.0757C141.281 97.0757 141.688 97.1484 142.081 97.2938C142.474 97.4307 142.795 97.6317 143.043 97.8969L142.646 98.718C142.397 98.4785 142.124 98.3031 141.824 98.1919C141.525 98.0722 141.23 98.0123 140.939 98.0123C140.306 98.0123 139.81 98.2176 139.451 98.6282C139.092 99.0302 138.912 99.6161 138.912 100.386C138.912 101.164 139.092 101.763 139.451 102.182C139.81 102.601 140.306 102.811 140.939 102.811C141.221 102.811 141.512 102.755 141.812 102.644C142.111 102.533 142.389 102.357 142.646 102.118L143.043 102.926C142.787 103.2 142.457 103.41 142.055 103.555C141.662 103.692 141.264 103.76 140.862 103.76ZM145.953 103.645V98.1278H143.631V97.1912H149.43V98.1278H147.108V103.645H145.953ZM150.494 103.645V97.1912H151.649V99.475H153.548C154.386 99.475 155.015 99.6546 155.434 100.014C155.861 100.365 156.075 100.873 156.075 101.541C156.075 101.968 155.977 102.34 155.78 102.657C155.583 102.973 155.297 103.217 154.92 103.388C154.544 103.559 154.087 103.645 153.548 103.645H150.494ZM151.649 102.836H153.419C153.924 102.836 154.309 102.734 154.574 102.529C154.839 102.315 154.972 101.99 154.972 101.553C154.972 101.117 154.839 100.796 154.574 100.591C154.317 100.386 153.933 100.283 153.419 100.283H151.649V102.836Z" fill="#343434"/>
<circle cx="18.1762" cy="84.0913" r="5.34591" fill="url(#paint0_linear_100_347)"/>
<rect y="0.694824" width="170" height="54.5283" rx="8.55346" fill="white"/>
<path d="M31.717 27.5249V25.8089H34.3151V17.9504H35.3094L31.9736 19.9391V17.9824L34.9085 16.2183H36.3839V25.8089H38.8217V27.5249H31.717ZM40.4833 27.5249V26.0013L44.2362 22.0881C44.7066 21.5963 45.0541 21.1419 45.2786 20.7249C45.5031 20.3079 45.6154 19.8802 45.6154 19.4419C45.6154 18.8966 45.4443 18.485 45.1022 18.207C44.7601 17.929 44.2629 17.79 43.6107 17.79C43.0868 17.79 42.5843 17.8862 42.1031 18.0787C41.622 18.2604 41.1516 18.5491 40.6918 18.9447L40.0182 17.4051C40.478 16.9988 41.0447 16.6727 41.7182 16.4268C42.4025 16.1809 43.1189 16.0579 43.8673 16.0579C45.0862 16.0579 46.0217 16.3306 46.6739 16.8758C47.3261 17.4211 47.6522 18.2016 47.6522 19.2174C47.6522 19.923 47.4865 20.5966 47.155 21.2381C46.8236 21.8689 46.3104 22.5318 45.6154 23.2268L42.488 26.3541V25.8089H48.1013V27.5249H40.4833ZM56.9384 27.6853C56.2328 27.6853 55.6126 27.5196 55.078 27.1881C54.5435 26.846 54.1265 26.3595 53.8271 25.7287C53.5277 25.0979 53.378 24.3441 53.378 23.4674C53.378 22.5906 53.5277 21.8422 53.8271 21.2221C54.1265 20.5913 54.5435 20.1101 55.078 19.7787C55.6126 19.4365 56.2328 19.2655 56.9384 19.2655C57.6227 19.2655 58.2214 19.4365 58.7346 19.7787C59.2585 20.1101 59.606 20.5592 59.7771 21.1258H59.6007L59.7771 19.4258H61.7016C61.6696 19.7573 61.6375 20.0941 61.6054 20.4362C61.584 20.7784 61.5733 21.1152 61.5733 21.4466V27.5249H59.5846L59.5686 25.857H59.7611C59.59 26.413 59.2425 26.8567 58.7186 27.1881C58.1947 27.5196 57.6013 27.6853 56.9384 27.6853ZM57.4997 26.1457C58.1306 26.1457 58.6384 25.9265 59.0233 25.4881C59.4082 25.0391 59.6007 24.3655 59.6007 23.4674C59.6007 22.5692 59.4082 21.901 59.0233 21.4626C58.6384 21.0243 58.1306 20.8051 57.4997 20.8051C56.8689 20.8051 56.3611 21.0243 55.9762 21.4626C55.5913 21.901 55.3988 22.5692 55.3988 23.4674C55.3988 24.3655 55.5859 25.0391 55.9601 25.4881C56.345 25.9265 56.8582 26.1457 57.4997 26.1457ZM63.5907 27.5249V19.4258H71.1766V27.5249H69.1879V20.9655H65.5794V27.5249H63.5907ZM73.2011 30.9891V21.4466C73.2011 21.1152 73.1904 20.7784 73.169 20.4362C73.1476 20.0941 73.1155 19.7573 73.0728 19.4258H75.0133L75.1897 21.1258H75.0133C75.1737 20.5592 75.5105 20.1101 76.0237 19.7787C76.5476 19.4365 77.1517 19.2655 77.836 19.2655C78.5523 19.2655 79.1778 19.4365 79.7124 19.7787C80.247 20.1101 80.664 20.5913 80.9633 21.2221C81.2627 21.8422 81.4124 22.5906 81.4124 23.4674C81.4124 24.3441 81.2627 25.0979 80.9633 25.7287C80.664 26.3595 80.247 26.846 79.7124 27.1881C79.1778 27.5196 78.5523 27.6853 77.836 27.6853C77.1624 27.6853 76.569 27.5196 76.0558 27.1881C75.5426 26.8567 75.2004 26.413 75.0294 25.857H75.2058V30.9891H73.2011ZM77.2746 26.1457C77.9162 26.1457 78.4294 25.9265 78.8143 25.4881C79.1992 25.0391 79.3916 24.3655 79.3916 23.4674C79.3916 22.5692 79.1992 21.901 78.8143 21.4626C78.4294 21.0243 77.9162 20.8051 77.2746 20.8051C76.6438 20.8051 76.136 21.0243 75.7511 21.4626C75.3662 21.901 75.1737 22.5692 75.1737 23.4674C75.1737 24.3655 75.3662 25.0391 75.7511 25.4881C76.136 25.9265 76.6438 26.1457 77.2746 26.1457ZM86.9581 27.6853C85.6002 27.6853 84.5364 27.3111 83.7665 26.5626C82.9967 25.8142 82.6118 24.7878 82.6118 23.4834C82.6118 22.6387 82.7776 21.901 83.109 21.2702C83.4404 20.6394 83.9002 20.1475 84.4882 19.7947C85.087 19.4419 85.782 19.2655 86.5732 19.2655C87.3537 19.2655 88.0059 19.4312 88.5298 19.7626C89.0537 20.0941 89.4493 20.5592 89.7165 21.1579C89.9945 21.7567 90.1335 22.457 90.1335 23.2589V23.7881H84.2316V22.7296H88.7062L88.4335 22.9541C88.4335 22.2057 88.2732 21.6337 87.9524 21.2381C87.6423 20.8425 87.1879 20.6447 86.5892 20.6447C85.9263 20.6447 85.4131 20.8799 85.0496 21.3504C84.6967 21.8208 84.5203 22.4784 84.5203 23.323V23.5315C84.5203 24.4082 84.7342 25.0658 85.1618 25.5041C85.6002 25.9318 86.215 26.1457 87.0062 26.1457C87.4659 26.1457 87.8936 26.0869 88.2892 25.9692C88.6955 25.8409 89.0804 25.6378 89.4439 25.3598L90.0373 26.707C89.6524 27.017 89.1926 27.2576 88.6581 27.4287C88.1235 27.5997 87.5568 27.6853 86.9581 27.6853ZM91.457 27.7494L90.8315 26.1777C91.1844 26.0494 91.4784 25.8837 91.7136 25.6806C91.9595 25.4667 92.152 25.1994 92.291 24.8787C92.4407 24.5472 92.5476 24.1409 92.6117 23.6598C92.6759 23.168 92.708 22.5853 92.708 21.9117V19.4258H99.1551V27.5249H97.1665V20.9655H94.5363V21.9758C94.5363 23.1413 94.4293 24.1196 94.2155 24.9108C94.0017 25.6913 93.6702 26.3114 93.2212 26.7711C92.7721 27.2309 92.1841 27.557 91.457 27.7494ZM100.444 27.5249L101.679 25.3919C101.893 25.0284 102.155 24.7397 102.465 24.5258C102.786 24.3013 103.117 24.1891 103.459 24.1891H103.812L103.796 24.3655C102.844 24.3655 102.112 24.157 101.599 23.74C101.086 23.323 100.829 22.7136 100.829 21.9117C100.829 21.1205 101.091 20.5111 101.615 20.0834C102.15 19.645 102.93 19.4258 103.956 19.4258H107.982V27.5249H106.154V24.6702H105.239C104.908 24.6702 104.614 24.7611 104.357 24.9428C104.111 25.1246 103.903 25.3598 103.732 25.6485L102.673 27.5249H100.444ZM104.341 23.3711H106.154V20.7249H104.341C103.796 20.7249 103.384 20.8425 103.106 21.0777C102.839 21.313 102.705 21.6337 102.705 22.04C102.705 22.4677 102.839 22.7991 103.106 23.0343C103.384 23.2589 103.796 23.3711 104.341 23.3711Z" fill="#343434"/>
<path d="M33.7473 40.678C33.1058 40.678 32.5498 40.5454 32.0794 40.2802C31.609 40.0065 31.2412 39.6173 30.976 39.1127C30.7194 38.5995 30.5911 37.9922 30.5911 37.2908C30.5911 36.598 30.7237 36.0078 30.9888 35.5202C31.254 35.0241 31.6218 34.6478 32.0922 34.3912C32.5627 34.126 33.1144 33.9934 33.7473 33.9934C34.1665 33.9934 34.5727 34.0661 34.9662 34.2116C35.3597 34.3484 35.6804 34.5494 35.9285 34.8146L35.5307 35.6357C35.2827 35.3962 35.009 35.2209 34.7096 35.1097C34.4102 34.9899 34.1151 34.93 33.8243 34.93C33.1914 34.93 32.6953 35.1353 32.336 35.5459C31.9768 35.9479 31.7971 36.5338 31.7971 37.3036C31.7971 38.082 31.9768 38.6807 32.336 39.0999C32.6953 39.519 33.1914 39.7285 33.8243 39.7285C34.1066 39.7285 34.3974 39.6729 34.6968 39.5617C34.9961 39.4506 35.2741 39.2752 35.5307 39.0357L35.9285 39.844C35.6719 40.1177 35.3426 40.3273 34.9405 40.4727C34.5471 40.6095 34.1493 40.678 33.7473 40.678ZM38.8385 40.5625V35.0455H36.5162V34.1089H42.3155V35.0455H39.9932V40.5625H38.8385ZM45.8812 40.678C45.3167 40.678 44.8206 40.5454 44.3929 40.2802C43.9652 40.0151 43.6316 39.6302 43.3921 39.1255C43.1526 38.6209 43.0329 38.0221 43.0329 37.3293C43.0329 36.6365 43.1526 36.042 43.3921 35.5459C43.6316 35.0412 43.9652 34.6563 44.3929 34.3912C44.8206 34.126 45.3167 33.9934 45.8812 33.9934C46.4543 33.9934 46.9504 34.1389 47.3695 34.4297C47.7972 34.7119 48.0794 35.1011 48.2163 35.5972H48.0623L48.2034 34.1089H49.3325C49.3068 34.3655 49.2812 34.6221 49.2555 34.8787C49.2384 35.1353 49.2299 35.3877 49.2299 35.6357V40.5625H48.0623V39.087H48.2034C48.0666 39.5746 47.7843 39.9638 47.3567 40.2546C46.9375 40.5368 46.4457 40.678 45.8812 40.678ZM46.1506 39.7542C46.7323 39.7542 47.1984 39.5489 47.5491 39.1383C47.8998 38.7278 48.0751 38.1248 48.0751 37.3293C48.0751 36.5338 47.8998 35.9351 47.5491 35.5331C47.1984 35.1311 46.7323 34.93 46.1506 34.93C45.569 34.93 45.0985 35.1311 44.7393 35.5331C44.3886 35.9351 44.2133 36.5338 44.2133 37.3293C44.2133 38.1248 44.3886 38.7278 44.7393 39.1383C45.09 39.5489 45.5604 39.7542 46.1506 39.7542ZM51.3239 43.3338V35.6357C51.3239 35.3877 51.3153 35.1353 51.2982 34.8787C51.2811 34.6221 51.2555 34.3655 51.2212 34.1089H52.3503L52.4914 35.5972H52.3503C52.4786 35.1011 52.7523 34.7119 53.1714 34.4297C53.5906 34.1389 54.0909 33.9934 54.6726 33.9934C55.2457 33.9934 55.746 34.126 56.1737 34.3912C56.6014 34.6563 56.9307 35.0412 57.1616 35.5459C57.4011 36.042 57.5209 36.6365 57.5209 37.3293C57.5209 38.0221 57.4011 38.6209 57.1616 39.1255C56.9307 39.6302 56.6014 40.0151 56.1737 40.2802C55.746 40.5454 55.2457 40.678 54.6726 40.678C54.0995 40.678 53.6034 40.5368 53.1843 40.2546C52.7737 39.9638 52.4957 39.5746 52.3503 39.087H52.4914V43.3338H51.3239ZM54.4031 39.7542C54.9933 39.7542 55.4638 39.5489 55.8145 39.1383C56.1651 38.7278 56.3405 38.1248 56.3405 37.3293C56.3405 36.5338 56.1651 35.9351 55.8145 35.5331C55.4638 35.1311 54.9933 34.93 54.4031 34.93C53.8129 34.93 53.3425 35.1311 52.9918 35.5331C52.6497 35.9351 52.4786 36.5338 52.4786 37.3293C52.4786 38.1248 52.6497 38.7278 52.9918 39.1383C53.3425 39.5489 53.8129 39.7542 54.4031 39.7542ZM60.5772 40.5625V35.0455H58.2549V34.1089H64.0541V35.0455H61.7319V40.5625H60.5772ZM71.2594 40.678C70.6264 40.678 70.079 40.5454 69.6171 40.2802C69.1552 40.0065 68.796 39.6216 68.5394 39.1255C68.2828 38.6209 68.1545 38.0221 68.1545 37.3293C68.1545 36.645 68.2828 36.0548 68.5394 35.5587C68.796 35.0541 69.1552 34.6692 69.6171 34.404C70.079 34.1303 70.6264 33.9934 71.2594 33.9934C71.8924 33.9934 72.4398 34.1303 72.9017 34.404C73.3721 34.6692 73.7313 35.0541 73.9794 35.5587C74.236 36.0548 74.3643 36.645 74.3643 37.3293C74.3643 38.0221 74.236 38.6209 73.9794 39.1255C73.7313 39.6216 73.3721 40.0065 72.9017 40.2802C72.4398 40.5454 71.8924 40.678 71.2594 40.678ZM71.2594 39.7542C71.841 39.7542 72.3072 39.5489 72.6579 39.1383C73.0086 38.7278 73.1839 38.1248 73.1839 37.3293C73.1839 36.5338 73.0086 35.9351 72.6579 35.5331C72.3072 35.1311 71.841 34.93 71.2594 34.93C70.6692 34.93 70.1988 35.1311 69.8481 35.5331C69.5059 35.9351 69.3349 36.5338 69.3349 37.3293C69.3349 38.1248 69.5059 38.7278 69.8481 39.1383C70.1988 39.5489 70.6692 39.7542 71.2594 39.7542ZM78.8409 40.678C77.8744 40.678 77.1089 40.3743 76.5443 39.767C75.9798 39.1597 75.6975 38.2702 75.6975 37.0983V35.9821C75.6975 34.7846 75.9499 33.8181 76.4545 33.0825C76.9592 32.3469 77.7418 31.8508 78.8024 31.5942L81.1632 31.004L81.5096 31.9534L78.8923 32.5821C78.4218 32.6933 78.0326 32.8943 77.7247 33.1851C77.4168 33.476 77.1858 33.8181 77.0319 34.2116C76.8865 34.605 76.8138 35.0241 76.8138 35.4689V36.0206H76.6341C76.7368 35.6357 76.8993 35.3021 77.1217 35.0199C77.3526 34.7376 77.6392 34.5238 77.9813 34.3783C78.3235 34.2244 78.6998 34.1474 79.1104 34.1474C79.6663 34.1474 80.1539 34.2757 80.573 34.5323C80.9921 34.7889 81.3172 35.161 81.5481 35.6485C81.7876 36.1275 81.9074 36.7006 81.9074 37.3678C81.9074 38.0521 81.779 38.6422 81.5224 39.1383C81.2744 39.6344 80.9194 40.0151 80.4575 40.2802C79.9957 40.5454 79.4568 40.678 78.8409 40.678ZM78.8024 39.7542C79.4012 39.7542 79.8716 39.5575 80.2138 39.164C80.5645 38.7706 80.7398 38.1846 80.7398 37.4063C80.7398 36.645 80.5645 36.0634 80.2138 35.6614C79.8716 35.2594 79.4012 35.0583 78.8024 35.0583C78.2037 35.0583 77.729 35.2551 77.3783 35.6485C77.0362 36.042 76.8651 36.6022 76.8651 37.3293C76.8651 38.1419 77.0362 38.7492 77.3783 39.1512C77.729 39.5532 78.2037 39.7542 78.8024 39.7542ZM83.294 43.475L83.0246 42.5255C83.4266 42.4314 83.7602 42.3202 84.0253 42.1919C84.2905 42.0722 84.5129 41.9139 84.6925 41.7172C84.8721 41.5205 85.0304 41.2724 85.1672 40.9731L85.488 40.2033L85.4623 40.6908L82.6525 34.1089H83.9099L86.1551 39.6387H85.8216L88.0668 34.1089H89.2729L86.3091 41.0629C86.1295 41.482 85.9328 41.8327 85.7189 42.115C85.5136 42.3972 85.287 42.6282 85.0389 42.8078C84.7994 42.9874 84.5343 43.1285 84.2434 43.2312C83.9526 43.3338 83.6362 43.4151 83.294 43.475ZM94.5967 40.5625V38.0093C94.3487 38.1461 94.0835 38.2531 93.8012 38.33C93.519 38.3985 93.2196 38.4327 92.9031 38.4327C91.9794 38.4327 91.2951 38.2189 90.8503 37.7912C90.4141 37.355 90.196 36.7006 90.196 35.8282V34.1089H91.3507V35.7383C91.3507 36.3456 91.4875 36.7861 91.7612 37.0599C92.0435 37.325 92.4797 37.4576 93.0699 37.4576C93.3693 37.4576 93.6387 37.4277 93.8782 37.3678C94.1177 37.2994 94.3487 37.1924 94.5711 37.047V34.1089H95.7386V40.5625H94.5967ZM100.721 40.678C99.6949 40.678 98.8823 40.3829 98.2836 39.7927C97.6934 39.2025 97.3983 38.3899 97.3983 37.355C97.3983 36.6707 97.5266 36.0805 97.7832 35.5844C98.0484 35.0797 98.4119 34.6905 98.8738 34.4168C99.3357 34.1346 99.8745 33.9934 100.49 33.9934C101.081 33.9934 101.581 34.1217 101.992 34.3783C102.402 34.6264 102.714 34.9814 102.928 35.4433C103.142 35.9051 103.249 36.4526 103.249 37.0855V37.4704H98.3092V36.7776H102.453L102.235 36.9444C102.235 36.2772 102.086 35.7597 101.786 35.3919C101.495 35.0241 101.063 34.8402 100.49 34.8402C99.866 34.8402 99.3827 35.0583 99.0406 35.4946C98.6984 35.9222 98.5274 36.5082 98.5274 37.2523V37.3678C98.5274 38.1547 98.7198 38.7492 99.1047 39.1512C99.4982 39.5532 100.041 39.7542 100.734 39.7542C101.119 39.7542 101.478 39.6986 101.812 39.5874C102.145 39.4762 102.466 39.2923 102.774 39.0357L103.159 39.844C102.868 40.1092 102.505 40.3144 102.068 40.4599C101.641 40.6053 101.192 40.678 100.721 40.678ZM104.874 40.5625V34.1089H106.029V36.7776H109.442V34.1089H110.596V40.5625H109.442V37.7014H106.029V40.5625H104.874ZM112.592 40.5625V34.1089H113.657V39.4591H113.311L117.314 34.1089H118.289V40.5625H117.224V35.1995H117.583L113.567 40.5625H112.592ZM119.772 40.5625L120.786 38.8048C120.948 38.5225 121.153 38.2958 121.401 38.1248C121.65 37.9451 121.91 37.8553 122.184 37.8553H122.389L122.377 37.9708C121.65 37.9708 121.081 37.8083 120.67 37.4833C120.26 37.1497 120.054 36.6707 120.054 36.0463C120.054 35.4304 120.255 34.9557 120.657 34.6221C121.059 34.28 121.658 34.1089 122.454 34.1089H125.392V40.5625H124.314V38.1248H123.39C123.057 38.1248 122.77 38.2103 122.531 38.3814C122.291 38.5439 122.094 38.762 121.94 39.0357L121.068 40.5625H119.772ZM122.659 37.3165H124.314V34.9044H122.659C122.154 34.9044 121.778 35.0113 121.53 35.2251C121.29 35.439 121.171 35.7341 121.171 36.1104C121.171 36.4953 121.29 36.7947 121.53 37.0085C121.778 37.2138 122.154 37.3165 122.659 37.3165Z" fill="#343434"/>
<circle cx="18.176" cy="21.009" r="5.34591" fill="url(#paint1_linear_100_347)"/>
<defs>
<linearGradient id="paint0_linear_100_347" x1="18.1762" y1="78.7454" x2="18.1762" y2="89.4372" gradientUnits="userSpaceOnUse">
<stop stop-color="#79CAFB"/>
<stop offset="1" stop-color="#678ED1"/>
</linearGradient>
<linearGradient id="paint1_linear_100_347" x1="18.176" y1="15.6631" x2="18.176" y2="26.3549" gradientUnits="userSpaceOnUse">
<stop stop-color="#FB79A8"/>
<stop offset="1" stop-color="#F55567"/>
</linearGradient>
</defs>
</svg>
