<svg width="170" height="118" viewBox="0 0 170 118" fill="none" xmlns="http://www.w3.org/2000/svg">
<rect y="63.0818" width="170" height="54.5283" rx="8.55346" fill="white"/>
<path d="M35.6465 89.9119V87.6987H30.5947V86.2553L35.9673 78.6053H37.6352V86.127H39.255V87.6987H37.6352V89.9119H35.6465ZM35.6465 86.127V81.0431H36.0314L32.1343 86.6082V86.127H35.6465ZM44.4516 89.9119V81.8129H46.4403V84.9884H50.0969V81.8129H52.0856V89.9119H50.0969V86.528H46.4403V89.9119H44.4516ZM58.0222 90.0723C56.6643 90.0723 55.6005 89.6981 54.8307 88.9497C54.0609 88.2012 53.676 87.1748 53.676 85.8704C53.676 85.0258 53.8417 84.288 54.1731 83.6572C54.5046 83.0264 54.9643 82.5346 55.5524 82.1818C56.1511 81.8289 56.8461 81.6525 57.6373 81.6525C58.4178 81.6525 59.07 81.8182 59.5939 82.1497C60.1178 82.4811 60.5134 82.9462 60.7807 83.545C61.0587 84.1437 61.1977 84.844 61.1977 85.6459V86.1751H55.2958V85.1167H59.7703L59.4977 85.3412C59.4977 84.5928 59.3373 84.0207 59.0165 83.6251C58.7065 83.2296 58.2521 83.0318 57.6533 83.0318C56.9904 83.0318 56.4772 83.267 56.1137 83.7374C55.7609 84.2079 55.5844 84.8654 55.5844 85.7101V85.9185C55.5844 86.7953 55.7983 87.4528 56.226 87.8912C56.6643 88.3189 57.2791 88.5327 58.0703 88.5327C58.53 88.5327 58.9577 88.4739 59.3533 88.3563C59.7596 88.228 60.1445 88.0248 60.508 87.7468L61.1014 89.094C60.7165 89.4041 60.2568 89.6446 59.7222 89.8157C59.1876 89.9868 58.6209 90.0723 58.0222 90.0723ZM62.0079 91.9968V88.3884H62.9381C63.2589 87.8858 63.4888 87.2978 63.6277 86.6242C63.7774 85.9399 63.8523 85.106 63.8523 84.1223V81.8129H70.091V88.3884H71.4061V91.9968H69.7061V89.9119H63.7079V91.9968H62.0079ZM64.7344 88.4044H68.2145V83.3204H65.5523V84.5714C65.5523 85.2877 65.4828 85.988 65.3438 86.6723C65.2048 87.3566 65.0016 87.934 64.7344 88.4044ZM76.5351 90.0723C75.1773 90.0723 74.1134 89.6981 73.3436 88.9497C72.5738 88.2012 72.1889 87.1748 72.1889 85.8704C72.1889 85.0258 72.3546 84.288 72.6861 83.6572C73.0175 83.0264 73.4773 82.5346 74.0653 82.1818C74.664 81.8289 75.359 81.6525 76.1502 81.6525C76.9307 81.6525 77.5829 81.8182 78.1068 82.1497C78.6307 82.4811 79.0263 82.9462 79.2936 83.545C79.5716 84.1437 79.7106 84.844 79.7106 85.6459V86.1751H73.8087V85.1167H78.2832L78.0106 85.3412C78.0106 84.5928 77.8502 84.0207 77.5295 83.6251C77.2194 83.2296 76.765 83.0318 76.1662 83.0318C75.5034 83.0318 74.9901 83.267 74.6266 83.7374C74.2738 84.2079 74.0974 84.8654 74.0974 85.7101V85.9185C74.0974 86.7953 74.3112 87.4528 74.7389 87.8912C75.1773 88.3189 75.792 88.5327 76.5832 88.5327C77.043 88.5327 77.4707 88.4739 77.8662 88.3563C78.2725 88.228 78.6574 88.0248 79.021 87.7468L79.6144 89.094C79.2295 89.4041 78.7697 89.6446 78.2351 89.8157C77.7005 89.9868 77.1339 90.0723 76.5351 90.0723ZM81.0341 90.1365L80.4086 88.5648C80.7614 88.4365 81.0555 88.2707 81.2907 88.0676C81.5366 87.8538 81.729 87.5865 81.868 87.2657C82.0177 86.9343 82.1246 86.528 82.1888 86.0468C82.2529 85.555 82.285 84.9723 82.285 84.2987V81.8129H88.7322V89.9119H86.7435V83.3525H84.1133V84.3629C84.1133 85.5283 84.0064 86.5066 83.7926 87.2978C83.5787 88.0783 83.2473 88.6984 82.7982 89.1582C82.3492 89.6179 81.7611 89.944 81.0341 90.1365ZM90.6948 89.9119V81.8129H92.5071V87.9393H92.0259L96.6288 81.8129H98.2807V89.9119H96.4684V83.7695H96.9656L92.3467 89.9119H90.6948Z" fill="#343434"/>
<path d="M30.9379 102.95V96.4961H36.6216V102.95H35.4669V97.407H32.0926V102.95H30.9379ZM38.6569 105.721V98.0229C38.6569 97.7748 38.6484 97.5225 38.6313 97.2659C38.6142 97.0093 38.5885 96.7527 38.5543 96.4961H39.6833L39.8245 97.9844H39.6833C39.8116 97.4883 40.0853 97.0991 40.5045 96.8168C40.9236 96.526 41.424 96.3806 42.0056 96.3806C42.5787 96.3806 43.0791 96.5132 43.5067 96.7784C43.9344 97.0435 44.2637 97.4284 44.4947 97.9331C44.7342 98.4292 44.8539 99.0236 44.8539 99.7165C44.8539 100.409 44.7342 101.008 44.4947 101.513C44.2637 102.017 43.9344 102.402 43.5067 102.667C43.0791 102.933 42.5787 103.065 42.0056 103.065C41.4325 103.065 40.9364 102.924 40.5173 102.642C40.1067 102.351 39.8287 101.962 39.6833 101.474H39.8245V105.721H38.6569ZM41.7362 102.141C42.3264 102.141 42.7968 101.936 43.1475 101.526C43.4982 101.115 43.6735 100.512 43.6735 99.7165C43.6735 98.921 43.4982 98.3223 43.1475 97.9202C42.7968 97.5182 42.3264 97.3172 41.7362 97.3172C41.146 97.3172 40.6755 97.5182 40.3248 97.9202C39.9827 98.3223 39.8116 98.921 39.8116 99.7165C39.8116 100.512 39.9827 101.115 40.3248 101.526C40.6755 101.936 41.146 102.141 41.7362 102.141ZM49.283 103.065C48.6501 103.065 48.1026 102.933 47.6408 102.667C47.1789 102.394 46.8196 102.009 46.563 101.513C46.3064 101.008 46.1781 100.409 46.1781 99.7165C46.1781 99.0322 46.3064 98.442 46.563 97.9459C46.8196 97.4412 47.1789 97.0563 47.6408 96.7912C48.1026 96.5175 48.6501 96.3806 49.283 96.3806C49.916 96.3806 50.4634 96.5175 50.9253 96.7912C51.3957 97.0563 51.755 97.4412 52.003 97.9459C52.2596 98.442 52.3879 99.0322 52.3879 99.7165C52.3879 100.409 52.2596 101.008 52.003 101.513C51.755 102.009 51.3957 102.394 50.9253 102.667C50.4634 102.933 49.916 103.065 49.283 103.065ZM49.283 102.141C49.8647 102.141 50.3308 101.936 50.6815 101.526C51.0322 101.115 51.2076 100.512 51.2076 99.7165C51.2076 98.921 51.0322 98.3223 50.6815 97.9202C50.3308 97.5182 49.8647 97.3172 49.283 97.3172C48.6928 97.3172 48.2224 97.5182 47.8717 97.9202C47.5296 98.3223 47.3585 98.921 47.3585 99.7165C47.3585 100.512 47.5296 101.115 47.8717 101.526C48.2224 101.936 48.6928 102.141 49.283 102.141ZM53.3876 104.618V102.039H54.0932C54.3841 101.603 54.5936 101.089 54.7219 100.499C54.8588 99.9089 54.9272 99.2075 54.9272 98.395V96.4961H59.5589V102.039H60.5853V104.618H59.5846V102.95H54.4012V104.618H53.3876ZM55.1966 102.052H58.4683V97.3942H55.9536V98.6002C55.9536 99.2503 55.8895 99.8833 55.7612 100.499C55.6329 101.106 55.4447 101.624 55.1966 102.052ZM64.6943 103.065C64.0613 103.065 63.5139 102.933 63.052 102.667C62.5901 102.394 62.2309 102.009 61.9743 101.513C61.7177 101.008 61.5894 100.409 61.5894 99.7165C61.5894 99.0322 61.7177 98.442 61.9743 97.9459C62.2309 97.4412 62.5901 97.0563 63.052 96.7912C63.5139 96.5175 64.0613 96.3806 64.6943 96.3806C65.3272 96.3806 65.8747 96.5175 66.3365 96.7912C66.807 97.0563 67.1662 97.4412 67.4143 97.9459C67.6709 98.442 67.7992 99.0322 67.7992 99.7165C67.7992 100.409 67.6709 101.008 67.4143 101.513C67.1662 102.009 66.807 102.394 66.3365 102.667C65.8747 102.933 65.3272 103.065 64.6943 103.065ZM64.6943 102.141C65.2759 102.141 65.7421 101.936 66.0928 101.526C66.4435 101.115 66.6188 100.512 66.6188 99.7165C66.6188 98.921 66.4435 98.3223 66.0928 97.9202C65.7421 97.5182 65.2759 97.3172 64.6943 97.3172C64.1041 97.3172 63.6337 97.5182 63.283 97.9202C62.9408 98.3223 62.7698 98.921 62.7698 99.7165C62.7698 100.512 62.9408 101.115 63.283 101.526C63.6337 101.936 64.1041 102.141 64.6943 102.141ZM69.0328 103.104L68.6222 102.193C68.9216 102.056 69.1696 101.893 69.3664 101.705C69.5717 101.508 69.7299 101.26 69.8411 100.961C69.9608 100.662 70.0464 100.29 70.0977 99.8448C70.149 99.4 70.1747 98.8611 70.1747 98.2282V96.4961H74.9347V102.95H73.78V97.407H71.2524V98.2538C71.2524 99.246 71.1754 100.067 71.0215 100.717C70.8761 101.359 70.6408 101.868 70.3158 102.244C69.9993 102.62 69.5717 102.907 69.0328 103.104ZM75.9328 102.95L77.2672 100.653C77.4639 100.337 77.6435 100.084 77.806 99.8961C77.9686 99.7079 78.1396 99.5668 78.3192 99.4727C78.5074 99.3701 78.7255 99.3059 78.9736 99.2802L78.6913 99.6395L76.2408 96.4961H77.5238L79.6151 99.1648H80.603V96.4961H81.7577V99.1648H82.7328L84.8113 96.4961H86.1072L83.6566 99.6395L83.3615 99.2802C83.6096 99.3059 83.8234 99.3701 84.003 99.4727C84.1912 99.5668 84.3708 99.7079 84.5419 99.8961C84.713 100.084 84.8926 100.337 85.0808 100.653L86.4151 102.95H85.1706L84.003 100.961C83.8662 100.73 83.7336 100.55 83.6053 100.422C83.477 100.294 83.3316 100.204 83.1691 100.153C83.0151 100.101 82.8184 100.076 82.5789 100.076H81.7577V102.95H80.603V100.076H79.7691C79.5296 100.076 79.3286 100.101 79.166 100.153C79.0121 100.204 78.8709 100.294 78.7426 100.422C78.6229 100.55 78.4903 100.73 78.3449 100.961L77.1902 102.95H75.9328ZM87.4208 102.95V96.4961H88.4857V101.846H88.1393L92.1423 96.4961H93.1174V102.95H92.0525V97.5867H92.4117L88.3959 102.95H87.4208ZM96.4995 102.95V97.4327H94.1773V96.4961H99.9765V97.4327H97.6542V102.95H96.4995ZM103.979 103.065C102.953 103.065 102.14 102.77 101.542 102.18C100.951 101.59 100.656 100.777 100.656 99.7421C100.656 99.0579 100.785 98.4677 101.041 97.9716C101.306 97.4669 101.67 97.0777 102.132 96.804C102.594 96.5218 103.133 96.3806 103.748 96.3806C104.339 96.3806 104.839 96.5089 105.25 96.7655C105.66 97.0136 105.972 97.3685 106.186 97.8304C106.4 98.2923 106.507 98.8397 106.507 99.4727V99.8576H101.567V99.1648H105.711L105.493 99.3316C105.493 98.6644 105.344 98.1469 105.044 97.7791C104.753 97.4113 104.321 97.2274 103.748 97.2274C103.124 97.2274 102.641 97.4455 102.299 97.8818C101.956 98.3094 101.785 98.8953 101.785 99.6395V99.755C101.785 100.542 101.978 101.136 102.363 101.538C102.756 101.94 103.299 102.141 103.992 102.141C104.377 102.141 104.736 102.086 105.07 101.975C105.403 101.863 105.724 101.679 106.032 101.423L106.417 102.231C106.126 102.496 105.763 102.702 105.326 102.847C104.899 102.992 104.45 103.065 103.979 103.065ZM107.824 103.104L107.414 102.193C107.713 102.056 107.961 101.893 108.158 101.705C108.363 101.508 108.521 101.26 108.632 100.961C108.752 100.662 108.838 100.29 108.889 99.8448C108.94 99.4 108.966 98.8611 108.966 98.2282V96.4961H113.726V102.95H112.571V97.407H110.044V98.2538C110.044 99.246 109.967 100.067 109.813 100.717C109.667 101.359 109.432 101.868 109.107 102.244C108.791 102.62 108.363 102.907 107.824 103.104ZM115.725 102.95V96.4961H116.88V98.7799H118.778C119.617 98.7799 120.245 98.9595 120.664 99.3187C121.092 99.6694 121.306 100.178 121.306 100.846C121.306 101.273 121.208 101.645 121.011 101.962C120.814 102.278 120.528 102.522 120.151 102.693C119.775 102.864 119.317 102.95 118.778 102.95H115.725ZM116.88 102.141H118.65C119.155 102.141 119.54 102.039 119.805 101.833C120.07 101.62 120.203 101.295 120.203 100.858C120.203 100.422 120.07 100.101 119.805 99.8961C119.548 99.6908 119.163 99.5882 118.65 99.5882H116.88V102.141ZM122.804 102.95V96.4961H123.959V99.1648H127.372V96.4961H128.526V102.95H127.372V100.089H123.959V102.95H122.804ZM133.281 103.065C132.648 103.065 132.1 102.933 131.638 102.667C131.177 102.394 130.817 102.009 130.561 101.513C130.304 101.008 130.176 100.409 130.176 99.7165C130.176 99.0322 130.304 98.442 130.561 97.9459C130.817 97.4412 131.177 97.0563 131.638 96.7912C132.1 96.5175 132.648 96.3806 133.281 96.3806C133.914 96.3806 134.461 96.5175 134.923 96.7912C135.393 97.0563 135.753 97.4412 136.001 97.9459C136.257 98.442 136.386 99.0322 136.386 99.7165C136.386 100.409 136.257 101.008 136.001 101.513C135.753 102.009 135.393 102.394 134.923 102.667C134.461 102.933 133.914 103.065 133.281 103.065ZM133.281 102.141C133.862 102.141 134.328 101.936 134.679 101.526C135.03 101.115 135.205 100.512 135.205 99.7165C135.205 98.921 135.03 98.3223 134.679 97.9202C134.328 97.5182 133.862 97.3172 133.281 97.3172C132.69 97.3172 132.22 97.5182 131.869 97.9202C131.527 98.3223 131.356 98.921 131.356 99.7165C131.356 100.512 131.527 101.115 131.869 101.526C132.22 101.936 132.69 102.141 133.281 102.141ZM140.862 103.065C140.221 103.065 139.665 102.933 139.194 102.667C138.724 102.394 138.356 102.005 138.091 101.5C137.834 100.987 137.706 100.379 137.706 99.678C137.706 98.9851 137.839 98.395 138.104 97.9074C138.369 97.4113 138.737 97.035 139.207 96.7784C139.678 96.5132 140.229 96.3806 140.862 96.3806C141.281 96.3806 141.688 96.4533 142.081 96.5987C142.475 96.7356 142.795 96.9366 143.043 97.2018L142.646 98.0229C142.398 97.7834 142.124 97.608 141.824 97.4968C141.525 97.3771 141.23 97.3172 140.939 97.3172C140.306 97.3172 139.81 97.5225 139.451 97.9331C139.092 98.3351 138.912 98.921 138.912 99.6908C138.912 100.469 139.092 101.068 139.451 101.487C139.81 101.906 140.306 102.116 140.939 102.116C141.221 102.116 141.512 102.06 141.812 101.949C142.111 101.838 142.389 101.662 142.646 101.423L143.043 102.231C142.787 102.505 142.457 102.714 142.055 102.86C141.662 102.997 141.264 103.065 140.862 103.065ZM145.953 102.95V97.4327H143.631V96.4961H149.43V97.4327H147.108V102.95H145.953ZM150.494 102.95V96.4961H151.649V98.7799H153.548C154.386 98.7799 155.015 98.9595 155.434 99.3187C155.861 99.6694 156.075 100.178 156.075 100.846C156.075 101.273 155.977 101.645 155.78 101.962C155.583 102.278 155.297 102.522 154.921 102.693C154.544 102.864 154.087 102.95 153.548 102.95H150.494ZM151.649 102.141H153.419C153.924 102.141 154.309 102.039 154.574 101.833C154.839 101.62 154.972 101.295 154.972 100.858C154.972 100.422 154.839 100.101 154.574 99.8961C154.318 99.6908 153.933 99.5882 153.419 99.5882H151.649V102.141Z" fill="#343434"/>
<circle cx="18.1761" cy="83.3962" r="5.34591" fill="url(#paint0_linear_112_262)"/>
<rect width="170" height="54.5283" rx="8.55346" fill="white"/>
<path d="M31.188 26.8302V25.3066L34.9409 21.3934C35.4113 20.9016 35.7588 20.4472 35.9833 20.0302C36.2079 19.6132 36.3201 19.1855 36.3201 18.7472C36.3201 18.2019 36.1491 17.7902 35.8069 17.5123C35.4648 17.2343 34.9676 17.0953 34.3154 17.0953C33.7915 17.0953 33.289 17.1915 32.8079 17.384C32.3267 17.5657 31.8563 17.8544 31.3965 18.25L30.723 16.7104C31.1827 16.3041 31.7494 15.978 32.423 15.7321C33.1072 15.4862 33.8236 15.3632 34.572 15.3632C35.7909 15.3632 36.7264 15.6358 37.3786 16.1811C38.0308 16.7264 38.3569 17.5069 38.3569 18.5226C38.3569 19.2283 38.1912 19.9019 37.8597 20.5434C37.5283 21.1742 37.0151 21.8371 36.3201 22.5321L33.1928 25.6594V25.1141H38.806V26.8302H31.188ZM43.194 26.9906C42.5846 26.9906 41.9805 26.8783 41.3818 26.6538C40.783 26.4185 40.2698 26.1031 39.8422 25.7075L40.5318 24.1679C40.9274 24.5314 41.3551 24.8041 41.8148 24.9858C42.2745 25.1676 42.7396 25.2585 43.2101 25.2585C44.1617 25.2585 44.8887 24.9324 45.3912 24.2802C45.9044 23.628 46.161 22.655 46.161 21.3613V20.1585H46.3535C46.2786 20.6931 46.0969 21.1582 45.8082 21.5538C45.5195 21.9494 45.156 22.2541 44.7176 22.4679C44.29 22.6711 43.8088 22.7726 43.2742 22.7726C42.622 22.7726 42.034 22.6176 41.5101 22.3075C40.9969 21.9975 40.5906 21.5698 40.2912 21.0245C40.0025 20.4685 39.8582 19.8431 39.8582 19.1481C39.8582 18.4104 40.0186 17.7582 40.3393 17.1915C40.6708 16.6248 41.1198 16.1811 41.6865 15.8604C42.2532 15.5289 42.9054 15.3632 43.6431 15.3632C45.0758 15.3632 46.1771 15.855 46.9469 16.8387C47.7274 17.8116 48.1176 19.1909 48.1176 20.9764C48.1176 22.2487 47.9198 23.334 47.5242 24.2321C47.1393 25.1302 46.578 25.8145 45.8403 26.2849C45.1025 26.7553 44.2205 26.9906 43.194 26.9906ZM43.7714 21.1368C44.167 21.1368 44.5145 21.0513 44.8139 20.8802C45.1132 20.7091 45.3484 20.4685 45.5195 20.1585C45.6906 19.8377 45.7761 19.4742 45.7761 19.0679C45.7761 18.6509 45.6906 18.2874 45.5195 17.9774C45.3484 17.6673 45.1132 17.4267 44.8139 17.2557C44.5145 17.0739 44.167 16.983 43.7714 16.983C43.3758 16.983 43.0283 17.0739 42.729 17.2557C42.4296 17.4267 42.1944 17.6673 42.0233 17.9774C41.8629 18.2874 41.7827 18.6509 41.7827 19.0679C41.7827 19.4742 41.8629 19.8377 42.0233 20.1585C42.1944 20.4685 42.4296 20.7091 42.729 20.8802C43.0283 21.0513 43.3758 21.1368 43.7714 21.1368ZM53.7472 26.8302V18.7311H55.4152L58.2057 23.5745L60.9963 18.7311H62.6642V26.8302H60.9001V20.9764H61.2689L58.6708 25.5151H57.7406L55.1425 20.9764H55.5114V26.8302H53.7472ZM67.8162 26.9906C67.1106 26.9906 66.4904 26.8248 65.9558 26.4934C65.4213 26.1513 65.0043 25.6648 64.7049 25.034C64.4055 24.4031 64.2558 23.6494 64.2558 22.7726C64.2558 21.8959 64.4055 21.1475 64.7049 20.5274C65.0043 19.8965 65.4213 19.4154 65.9558 19.084C66.4904 18.7418 67.1106 18.5708 67.8162 18.5708C68.5005 18.5708 69.0992 18.7418 69.6125 19.084C70.1364 19.4154 70.4838 19.8645 70.6549 20.4311H70.4785L70.6549 18.7311H72.5794C72.5474 19.0626 72.5153 19.3994 72.4832 19.7415C72.4618 20.0836 72.4511 20.4204 72.4511 20.7519V26.8302H70.4625L70.4464 25.1623H70.6389C70.4678 25.7182 70.1203 26.1619 69.5964 26.4934C69.0725 26.8248 68.4791 26.9906 67.8162 26.9906ZM68.3775 25.4509C69.0084 25.4509 69.5162 25.2318 69.9011 24.7934C70.286 24.3443 70.4785 23.6708 70.4785 22.7726C70.4785 21.8745 70.286 21.2063 69.9011 20.7679C69.5162 20.3296 69.0084 20.1104 68.3775 20.1104C67.7467 20.1104 67.2389 20.3296 66.854 20.7679C66.4691 21.2063 66.2766 21.8745 66.2766 22.7726C66.2766 23.6708 66.4637 24.3443 66.8379 24.7934C67.2228 25.2318 67.736 25.4509 68.3775 25.4509ZM73.7949 26.8302L75.0298 24.6972C75.2437 24.3336 75.5056 24.045 75.8157 23.8311C76.1364 23.6066 76.4679 23.4943 76.81 23.4943H77.1628L77.1468 23.6708C76.1952 23.6708 75.4628 23.4623 74.9496 23.0453C74.4364 22.6283 74.1798 22.0189 74.1798 21.217C74.1798 20.4258 74.4418 19.8163 74.9657 19.3887C75.5003 18.9503 76.2808 18.7311 77.3072 18.7311H81.3327V26.8302H79.5044V23.9755H78.5902C78.2588 23.9755 77.9647 24.0663 77.7081 24.2481C77.4622 24.4299 77.2537 24.6651 77.0827 24.9538L76.0242 26.8302H73.7949ZM77.6921 22.6764H79.5044V20.0302H77.6921C77.1468 20.0302 76.7352 20.1478 76.4572 20.383C76.1899 20.6182 76.0562 20.939 76.0562 21.3453C76.0562 21.773 76.1899 22.1044 76.4572 22.3396C76.7352 22.5641 77.1468 22.6764 77.6921 22.6764Z" fill="#343434"/>
<path d="M33.7477 39.9834C33.1062 39.9834 32.5502 39.8508 32.0797 39.5857C31.6093 39.3119 31.2415 38.9228 30.9763 38.4181C30.7197 37.9049 30.5914 37.2976 30.5914 36.5962C30.5914 35.9034 30.724 35.3132 30.9892 34.8257C31.2543 34.3296 31.6221 33.9532 32.0926 33.6966C32.563 33.4314 33.1147 33.2989 33.7477 33.2989C34.1668 33.2989 34.5731 33.3716 34.9665 33.517C35.36 33.6538 35.6808 33.8548 35.9288 34.12L35.5311 34.9411C35.283 34.7016 35.0093 34.5263 34.7099 34.4151C34.4106 34.2953 34.1155 34.2355 33.8247 34.2355C33.1917 34.2355 32.6956 34.4407 32.3363 34.8513C31.9771 35.2533 31.7975 35.8392 31.7975 36.6091C31.7975 37.3874 31.9771 37.9862 32.3363 38.4053C32.6956 38.8244 33.1917 39.034 33.8247 39.034C34.1069 39.034 34.3977 38.9784 34.6971 38.8672C34.9965 38.756 35.2745 38.5806 35.5311 38.3411L35.9288 39.1494C35.6722 39.4231 35.3429 39.6327 34.9409 39.7781C34.5474 39.915 34.1497 39.9834 33.7477 39.9834ZM38.8388 39.8679V34.3509H36.5166V33.4143H42.3158V34.3509H39.9936V39.8679H38.8388ZM45.8815 39.9834C45.317 39.9834 44.8209 39.8508 44.3932 39.5857C43.9655 39.3205 43.632 38.9356 43.3925 38.4309C43.153 37.9263 43.0332 37.3275 43.0332 36.6347C43.0332 35.9419 43.153 35.3474 43.3925 34.8513C43.632 34.3467 43.9655 33.9618 44.3932 33.6966C44.8209 33.4314 45.317 33.2989 45.8815 33.2989C46.4546 33.2989 46.9507 33.4443 47.3698 33.7351C47.7975 34.0174 48.0798 34.4065 48.2166 34.9026H48.0627L48.2038 33.4143H49.3328C49.3072 33.6709 49.2815 33.9275 49.2559 34.1841C49.2388 34.4407 49.2302 34.6931 49.2302 34.9411V39.8679H48.0627V38.3924H48.2038C48.0669 38.88 47.7847 39.2692 47.357 39.56C46.9379 39.8423 46.446 39.9834 45.8815 39.9834ZM46.151 39.0596C46.7326 39.0596 47.1988 38.8543 47.5494 38.4438C47.9001 38.0332 48.0755 37.4302 48.0755 36.6347C48.0755 35.8392 47.9001 35.2405 47.5494 34.8385C47.1988 34.4365 46.7326 34.2355 46.151 34.2355C45.5693 34.2355 45.0989 34.4365 44.7396 34.8385C44.3889 35.2405 44.2136 35.8392 44.2136 36.6347C44.2136 37.4302 44.3889 38.0332 44.7396 38.4438C45.0903 38.8543 45.5608 39.0596 46.151 39.0596ZM51.3242 42.6392V34.9411C51.3242 34.6931 51.3157 34.4407 51.2986 34.1841C51.2815 33.9275 51.2558 33.6709 51.2216 33.4143H52.3506L52.4918 34.9026H52.3506C52.4789 34.4065 52.7527 34.0174 53.1718 33.7351C53.5909 33.4443 54.0913 33.2989 54.6729 33.2989C55.246 33.2989 55.7464 33.4314 56.174 33.6966C56.6017 33.9618 56.931 34.3467 57.162 34.8513C57.4015 35.3474 57.5212 35.9419 57.5212 36.6347C57.5212 37.3275 57.4015 37.9263 57.162 38.4309C56.931 38.9356 56.6017 39.3205 56.174 39.5857C55.7464 39.8508 55.246 39.9834 54.6729 39.9834C54.0998 39.9834 53.6037 39.8423 53.1846 39.56C52.774 39.2692 52.4961 38.88 52.3506 38.3924H52.4918V42.6392H51.3242ZM54.4035 39.0596C54.9937 39.0596 55.4641 38.8543 55.8148 38.4438C56.1655 38.0332 56.3408 37.4302 56.3408 36.6347C56.3408 35.8392 56.1655 35.2405 55.8148 34.8385C55.4641 34.4365 54.9937 34.2355 54.4035 34.2355C53.8133 34.2355 53.3428 34.4365 52.9922 34.8385C52.65 35.2405 52.4789 35.8392 52.4789 36.6347C52.4789 37.4302 52.65 38.0332 52.9922 38.4438C53.3428 38.8543 53.8133 39.0596 54.4035 39.0596ZM60.5775 39.8679V34.3509H58.2552V33.4143H64.0545V34.3509H61.7322V39.8679H60.5775ZM71.2597 39.9834C70.6268 39.9834 70.0794 39.8508 69.6175 39.5857C69.1556 39.3119 68.7963 38.927 68.5397 38.4309C68.2831 37.9263 68.1548 37.3275 68.1548 36.6347C68.1548 35.9504 68.2831 35.3602 68.5397 34.8641C68.7963 34.3595 69.1556 33.9746 69.6175 33.7094C70.0794 33.4357 70.6268 33.2989 71.2597 33.2989C71.8927 33.2989 72.4401 33.4357 72.902 33.7094C73.3724 33.9746 73.7317 34.3595 73.9797 34.8641C74.2363 35.3602 74.3646 35.9504 74.3646 36.6347C74.3646 37.3275 74.2363 37.9263 73.9797 38.4309C73.7317 38.927 73.3724 39.3119 72.902 39.5857C72.4401 39.8508 71.8927 39.9834 71.2597 39.9834ZM71.2597 39.0596C71.8414 39.0596 72.3075 38.8543 72.6582 38.4438C73.0089 38.0332 73.1843 37.4302 73.1843 36.6347C73.1843 35.8392 73.0089 35.2405 72.6582 34.8385C72.3075 34.4365 71.8414 34.2355 71.2597 34.2355C70.6695 34.2355 70.1991 34.4365 69.8484 34.8385C69.5063 35.2405 69.3352 35.8392 69.3352 36.6347C69.3352 37.4302 69.5063 38.0332 69.8484 38.4438C70.1991 38.8543 70.6695 39.0596 71.2597 39.0596ZM78.8413 39.9834C77.8747 39.9834 77.1092 39.6797 76.5447 39.0724C75.9801 38.4652 75.6979 37.5756 75.6979 36.4038V35.2875C75.6979 34.0901 75.9502 33.1235 76.4549 32.3879C76.9595 31.6523 77.7422 31.1562 78.8028 30.8996L81.1635 30.3094L81.5099 31.2589L78.8926 31.8875C78.4222 31.9987 78.033 32.1997 77.725 32.4906C77.4171 32.7814 77.1862 33.1235 77.0322 33.517C76.8868 33.9104 76.8141 34.3296 76.8141 34.7743V35.326H76.6345C76.7371 34.9411 76.8996 34.6075 77.122 34.3253C77.353 34.043 77.6395 33.8292 77.9816 33.6838C78.3238 33.5298 78.7001 33.4528 79.1107 33.4528C79.6667 33.4528 80.1542 33.5811 80.5733 33.8377C80.9925 34.0943 81.3175 34.4664 81.5484 34.954C81.7879 35.433 81.9077 36.006 81.9077 36.6732C81.9077 37.3575 81.7794 37.9477 81.5228 38.4438C81.2747 38.9399 80.9198 39.3205 80.4579 39.5857C79.996 39.8508 79.4571 39.9834 78.8413 39.9834ZM78.8028 39.0596C79.4015 39.0596 79.872 38.8629 80.2141 38.4694C80.5648 38.076 80.7401 37.4901 80.7401 36.7117C80.7401 35.9504 80.5648 35.3688 80.2141 34.9668C79.872 34.5648 79.4015 34.3638 78.8028 34.3638C78.204 34.3638 77.7293 34.5605 77.3786 34.954C77.0365 35.3474 76.8654 35.9077 76.8654 36.6347C76.8654 37.4473 77.0365 38.0546 77.3786 38.4566C77.7293 38.8586 78.204 39.0596 78.8028 39.0596ZM83.2943 42.7804L83.0249 41.8309C83.4269 41.7369 83.7605 41.6257 84.0257 41.4974C84.2908 41.3776 84.5132 41.2194 84.6928 41.0226C84.8725 40.8259 85.0307 40.5779 85.1676 40.2785L85.4883 39.5087L85.4627 39.9962L82.6528 33.4143H83.9102L86.1555 38.9441H85.8219L88.0672 33.4143H89.2732L86.3094 40.3683C86.1298 40.7874 85.9331 41.1381 85.7193 41.4204C85.514 41.7026 85.2873 41.9336 85.0393 42.1132C84.7998 42.2928 84.5346 42.434 84.2438 42.5366C83.953 42.6392 83.6365 42.7205 83.2943 42.7804ZM94.597 39.8679V37.3147C94.349 37.4516 94.0838 37.5585 93.8016 37.6355C93.5193 37.7039 93.2199 37.7381 92.9035 37.7381C91.9797 37.7381 91.2954 37.5243 90.8506 37.0966C90.4144 36.6604 90.1963 36.006 90.1963 35.1336V33.4143H91.351V35.0438C91.351 35.6511 91.4879 36.0916 91.7616 36.3653C92.0438 36.6304 92.4801 36.763 93.0703 36.763C93.3696 36.763 93.6391 36.7331 93.8786 36.6732C94.1181 36.6048 94.349 36.4979 94.5714 36.3524V33.4143H95.7389V39.8679H94.597ZM100.722 39.9834C99.6952 39.9834 98.8827 39.6883 98.2839 39.0981C97.6937 38.5079 97.3986 37.6953 97.3986 36.6604C97.3986 35.9761 97.5269 35.3859 97.7835 34.8898C98.0487 34.3852 98.4122 33.996 98.8741 33.7223C99.336 33.44 99.8749 33.2989 100.491 33.2989C101.081 33.2989 101.581 33.4272 101.992 33.6838C102.402 33.9318 102.715 34.2868 102.928 34.7487C103.142 35.2106 103.249 35.758 103.249 36.3909V36.7758H98.3096V36.083H102.454L102.236 36.2498C102.236 35.5826 102.086 35.0652 101.787 34.6974C101.496 34.3296 101.064 34.1457 100.491 34.1457C99.8663 34.1457 99.383 34.3638 99.0409 34.8C98.6988 35.2277 98.5277 35.8136 98.5277 36.5577V36.6732C98.5277 37.4601 98.7201 38.0546 99.105 38.4566C99.4985 38.8586 100.042 39.0596 100.734 39.0596C101.119 39.0596 101.479 39.004 101.812 38.8928C102.146 38.7816 102.467 38.5977 102.774 38.3411L103.159 39.1494C102.869 39.4146 102.505 39.6199 102.069 39.7653C101.641 39.9107 101.192 39.9834 100.722 39.9834ZM104.874 39.8679V33.4143H106.029V36.083H109.442V33.4143H110.597V39.8679H109.442V37.0068H106.029V39.8679H104.874ZM112.592 39.8679V33.4143H113.657V38.7645H113.311L117.314 33.4143H118.289V39.8679H117.224V34.5049H117.583L113.568 39.8679H112.592ZM119.772 39.8679L120.786 38.1102C120.948 37.8279 121.154 37.6013 121.402 37.4302C121.65 37.2506 121.911 37.1607 122.184 37.1607H122.39L122.377 37.2762C121.65 37.2762 121.081 37.1137 120.67 36.7887C120.26 36.4551 120.055 35.9761 120.055 35.3517C120.055 34.7358 120.256 34.2611 120.658 33.9275C121.06 33.5854 121.658 33.4143 122.454 33.4143H125.392V39.8679H124.314V37.4302H123.39C123.057 37.4302 122.77 37.5157 122.531 37.6868C122.291 37.8493 122.095 38.0674 121.941 38.3411L121.068 39.8679H119.772ZM122.659 36.6219H124.314V34.2098H122.659C122.155 34.2098 121.778 34.3167 121.53 34.5306C121.291 34.7444 121.171 35.0395 121.171 35.4158C121.171 35.8007 121.291 36.1001 121.53 36.314C121.778 36.5192 122.155 36.6219 122.659 36.6219Z" fill="#343434"/>
<circle cx="18.1761" cy="20.3145" r="5.34591" fill="url(#paint1_linear_112_262)"/>
<defs>
<linearGradient id="paint0_linear_112_262" x1="18.1761" y1="78.0503" x2="18.1761" y2="88.7421" gradientUnits="userSpaceOnUse">
<stop stop-color="#79CAFB"/>
<stop offset="1" stop-color="#678ED1"/>
</linearGradient>
<linearGradient id="paint1_linear_112_262" x1="18.1761" y1="14.9686" x2="18.1761" y2="25.6604" gradientUnits="userSpaceOnUse">
<stop stop-color="#FB79A8"/>
<stop offset="1" stop-color="#F55567"/>
</linearGradient>
</defs>
</svg>
