<svg width="159" height="110" viewBox="0 0 159 110" fill="none" xmlns="http://www.w3.org/2000/svg">
<rect y="59" width="159" height="51" rx="8" fill="white"/>
<path d="M33.34 84V81.93H28.615V80.58L33.64 73.425H35.2V80.46H36.715V81.93H35.2V84H33.34ZM33.34 80.46V75.705H33.7L30.055 80.91V80.46H33.34ZM41.5754 84V76.425H43.4354V79.395H46.8554V76.425H48.7154V84H46.8554V80.835H43.4354V84H41.5754ZM54.2678 84.15C52.9978 84.15 52.0028 83.8 51.2828 83.1C50.5628 82.4 50.2028 81.44 50.2028 80.22C50.2028 79.43 50.3578 78.74 50.6678 78.15C50.9778 77.56 51.4078 77.1 51.9578 76.77C52.5178 76.44 53.1678 76.275 53.9078 76.275C54.6378 76.275 55.2478 76.43 55.7378 76.74C56.2278 77.05 56.5978 77.485 56.8478 78.045C57.1078 78.605 57.2378 79.26 57.2378 80.01V80.505H51.7178V79.515H55.9028L55.6478 79.725C55.6478 79.025 55.4978 78.49 55.1978 78.12C54.9078 77.75 54.4828 77.565 53.9228 77.565C53.3028 77.565 52.8228 77.785 52.4828 78.225C52.1528 78.665 51.9878 79.28 51.9878 80.07V80.265C51.9878 81.085 52.1878 81.7 52.5878 82.11C52.9978 82.51 53.5728 82.71 54.3128 82.71C54.7428 82.71 55.1428 82.655 55.5128 82.545C55.8928 82.425 56.2528 82.235 56.5928 81.975L57.1478 83.235C56.7878 83.525 56.3578 83.75 55.8578 83.91C55.3578 84.07 54.8278 84.15 54.2678 84.15ZM57.9957 85.95V82.575H58.8657C59.1657 82.105 59.3807 81.555 59.5107 80.925C59.6507 80.285 59.7207 79.505 59.7207 78.585V76.425H65.5557V82.575H66.7857V85.95H65.1957V84H59.5857V85.95H57.9957ZM60.5457 82.59H63.8007V77.835H61.3107V79.005C61.3107 79.675 61.2457 80.33 61.1157 80.97C60.9857 81.61 60.7957 82.15 60.5457 82.59ZM71.5829 84.15C70.3129 84.15 69.3179 83.8 68.5979 83.1C67.8779 82.4 67.5179 81.44 67.5179 80.22C67.5179 79.43 67.6729 78.74 67.9829 78.15C68.2929 77.56 68.7229 77.1 69.2729 76.77C69.8329 76.44 70.4829 76.275 71.2229 76.275C71.9529 76.275 72.5629 76.43 73.0529 76.74C73.5429 77.05 73.9129 77.485 74.1629 78.045C74.4229 78.605 74.5529 79.26 74.5529 80.01V80.505H69.0329V79.515H73.2179L72.9629 79.725C72.9629 79.025 72.8129 78.49 72.5129 78.12C72.2229 77.75 71.7979 77.565 71.2379 77.565C70.6179 77.565 70.1379 77.785 69.7979 78.225C69.4679 78.665 69.3029 79.28 69.3029 80.07V80.265C69.3029 81.085 69.5029 81.7 69.9029 82.11C70.3129 82.51 70.8879 82.71 71.6279 82.71C72.0579 82.71 72.4579 82.655 72.8279 82.545C73.2079 82.425 73.5679 82.235 73.9079 81.975L74.4629 83.235C74.1029 83.525 73.6729 83.75 73.1729 83.91C72.6729 84.07 72.1429 84.15 71.5829 84.15ZM75.7907 84.21L75.2057 82.74C75.5357 82.62 75.8107 82.465 76.0307 82.275C76.2607 82.075 76.4407 81.825 76.5707 81.525C76.7107 81.215 76.8107 80.835 76.8707 80.385C76.9307 79.925 76.9607 79.38 76.9607 78.75V76.425H82.9907V84H81.1307V77.865H78.6707V78.81C78.6707 79.9 78.5707 80.815 78.3707 81.555C78.1707 82.285 77.8607 82.865 77.4407 83.295C77.0207 83.725 76.4707 84.03 75.7907 84.21ZM84.8263 84V76.425H86.5213V82.155H86.0713L90.3763 76.425H91.9213V84H90.2263V78.255H90.6913L86.3713 84H84.8263Z" fill="#343434"/>
<path d="M28.936 97V90.964H34.252V97H33.172V91.816H30.016V97H28.936ZM36.1556 99.592V92.392C36.1556 92.16 36.1476 91.924 36.1316 91.684C36.1156 91.444 36.0916 91.204 36.0596 90.964H37.1156L37.2476 92.356H37.1156C37.2356 91.892 37.4916 91.528 37.8836 91.264C38.2756 90.992 38.7436 90.856 39.2876 90.856C39.8236 90.856 40.2916 90.98 40.6916 91.228C41.0916 91.476 41.3996 91.836 41.6156 92.308C41.8396 92.772 41.9516 93.328 41.9516 93.976C41.9516 94.624 41.8396 95.184 41.6156 95.656C41.3996 96.128 41.0916 96.488 40.6916 96.736C40.2916 96.984 39.8236 97.108 39.2876 97.108C38.7516 97.108 38.2876 96.976 37.8956 96.712C37.5116 96.44 37.2516 96.076 37.1156 95.62H37.2476V99.592H36.1556ZM39.0356 96.244C39.5876 96.244 40.0276 96.052 40.3556 95.668C40.6836 95.284 40.8476 94.72 40.8476 93.976C40.8476 93.232 40.6836 92.672 40.3556 92.296C40.0276 91.92 39.5876 91.732 39.0356 91.732C38.4836 91.732 38.0436 91.92 37.7156 92.296C37.3956 92.672 37.2356 93.232 37.2356 93.976C37.2356 94.72 37.3956 95.284 37.7156 95.668C38.0436 96.052 38.4836 96.244 39.0356 96.244ZM46.0941 97.108C45.5021 97.108 44.9901 96.984 44.5581 96.736C44.1261 96.48 43.7901 96.12 43.5501 95.656C43.3101 95.184 43.1901 94.624 43.1901 93.976C43.1901 93.336 43.3101 92.784 43.5501 92.32C43.7901 91.848 44.1261 91.488 44.5581 91.24C44.9901 90.984 45.5021 90.856 46.0941 90.856C46.6861 90.856 47.1981 90.984 47.6301 91.24C48.0701 91.488 48.4061 91.848 48.6381 92.32C48.8781 92.784 48.9981 93.336 48.9981 93.976C48.9981 94.624 48.8781 95.184 48.6381 95.656C48.4061 96.12 48.0701 96.48 47.6301 96.736C47.1981 96.984 46.6861 97.108 46.0941 97.108ZM46.0941 96.244C46.6381 96.244 47.0741 96.052 47.4021 95.668C47.7301 95.284 47.8941 94.72 47.8941 93.976C47.8941 93.232 47.7301 92.672 47.4021 92.296C47.0741 91.92 46.6381 91.732 46.0941 91.732C45.5421 91.732 45.1021 91.92 44.7741 92.296C44.4541 92.672 44.2941 93.232 44.2941 93.976C44.2941 94.72 44.4541 95.284 44.7741 95.668C45.1021 96.052 45.5421 96.244 46.0941 96.244ZM49.9331 98.56V96.148H50.5931C50.8651 95.74 51.0611 95.26 51.1811 94.708C51.3091 94.156 51.3731 93.5 51.3731 92.74V90.964H55.7051V96.148H56.6651V98.56H55.7291V97H50.8811V98.56H49.9331ZM51.6251 96.16H54.6851V91.804H52.3331V92.932C52.3331 93.54 52.2731 94.132 52.1531 94.708C52.0331 95.276 51.8571 95.76 51.6251 96.16ZM60.5082 97.108C59.9162 97.108 59.4042 96.984 58.9722 96.736C58.5402 96.48 58.2042 96.12 57.9642 95.656C57.7242 95.184 57.6042 94.624 57.6042 93.976C57.6042 93.336 57.7242 92.784 57.9642 92.32C58.2042 91.848 58.5402 91.488 58.9722 91.24C59.4042 90.984 59.9162 90.856 60.5082 90.856C61.1002 90.856 61.6122 90.984 62.0442 91.24C62.4842 91.488 62.8202 91.848 63.0522 92.32C63.2922 92.784 63.4122 93.336 63.4122 93.976C63.4122 94.624 63.2922 95.184 63.0522 95.656C62.8202 96.12 62.4842 96.48 62.0442 96.736C61.6122 96.984 61.1002 97.108 60.5082 97.108ZM60.5082 96.244C61.0522 96.244 61.4882 96.052 61.8162 95.668C62.1442 95.284 62.3082 94.72 62.3082 93.976C62.3082 93.232 62.1442 92.672 61.8162 92.296C61.4882 91.92 61.0522 91.732 60.5082 91.732C59.9562 91.732 59.5162 91.92 59.1882 92.296C58.8682 92.672 58.7082 93.232 58.7082 93.976C58.7082 94.72 58.8682 95.284 59.1882 95.668C59.5162 96.052 59.9562 96.244 60.5082 96.244ZM64.566 97.144L64.182 96.292C64.462 96.164 64.694 96.012 64.878 95.836C65.07 95.652 65.218 95.42 65.322 95.14C65.434 94.86 65.514 94.512 65.562 94.096C65.61 93.68 65.634 93.176 65.634 92.584V90.964H70.086V97H69.006V91.816H66.642V92.608C66.642 93.536 66.57 94.304 66.426 94.912C66.29 95.512 66.07 95.988 65.766 96.34C65.47 96.692 65.07 96.96 64.566 97.144ZM71.0195 97L72.2675 94.852C72.4515 94.556 72.6195 94.32 72.7715 94.144C72.9235 93.968 73.0835 93.836 73.2515 93.748C73.4275 93.652 73.6315 93.592 73.8635 93.568L73.5995 93.904L71.3075 90.964H72.5075L74.4635 93.46H75.3875V90.964H76.4675V93.46H77.3795L79.3235 90.964H80.5355L78.2435 93.904L77.9675 93.568C78.1995 93.592 78.3995 93.652 78.5675 93.748C78.7435 93.836 78.9115 93.968 79.0715 94.144C79.2315 94.32 79.3995 94.556 79.5755 94.852L80.8235 97H79.6595L78.5675 95.14C78.4395 94.924 78.3155 94.756 78.1955 94.636C78.0755 94.516 77.9395 94.432 77.7875 94.384C77.6435 94.336 77.4595 94.312 77.2355 94.312H76.4675V97H75.3875V94.312H74.6075C74.3835 94.312 74.1955 94.336 74.0435 94.384C73.8995 94.432 73.7675 94.516 73.6475 94.636C73.5355 94.756 73.4115 94.924 73.2755 95.14L72.1955 97H71.0195ZM81.7641 97V90.964H82.7601V95.968H82.4361L86.1801 90.964H87.0921V97H86.0961V91.984H86.4321L82.6761 97H81.7641ZM90.2554 97V91.84H88.0834V90.964H93.5074V91.84H91.3354V97H90.2554ZM97.2513 97.108C96.2913 97.108 95.5313 96.832 94.9713 96.28C94.4193 95.728 94.1433 94.968 94.1433 94C94.1433 93.36 94.2633 92.808 94.5033 92.344C94.7513 91.872 95.0913 91.508 95.5233 91.252C95.9553 90.988 96.4593 90.856 97.0353 90.856C97.5873 90.856 98.0553 90.976 98.4393 91.216C98.8233 91.448 99.1153 91.78 99.3153 92.212C99.5153 92.644 99.6153 93.156 99.6153 93.748V94.108H94.9953V93.46H98.8713L98.6673 93.616C98.6673 92.992 98.5273 92.508 98.2473 92.164C97.9753 91.82 97.5713 91.648 97.0353 91.648C96.4513 91.648 95.9993 91.852 95.6793 92.26C95.3593 92.66 95.1993 93.208 95.1993 93.904V94.012C95.1993 94.748 95.3793 95.304 95.7393 95.68C96.1073 96.056 96.6153 96.244 97.2633 96.244C97.6233 96.244 97.9593 96.192 98.2713 96.088C98.5833 95.984 98.8833 95.812 99.1713 95.572L99.5312 96.328C99.2593 96.576 98.9193 96.768 98.5113 96.904C98.1113 97.04 97.6913 97.108 97.2513 97.108ZM100.847 97.144L100.463 96.292C100.743 96.164 100.975 96.012 101.159 95.836C101.351 95.652 101.499 95.42 101.603 95.14C101.715 94.86 101.795 94.512 101.843 94.096C101.891 93.68 101.915 93.176 101.915 92.584V90.964H106.367V97H105.287V91.816H102.923V92.608C102.923 93.536 102.851 94.304 102.707 94.912C102.571 95.512 102.351 95.988 102.047 96.34C101.751 96.692 101.351 96.96 100.847 97.144ZM108.237 97V90.964H109.317V93.1H111.093C111.877 93.1 112.465 93.268 112.857 93.604C113.257 93.932 113.457 94.408 113.457 95.032C113.457 95.432 113.365 95.78 113.181 96.076C112.997 96.372 112.729 96.6 112.377 96.76C112.025 96.92 111.597 97 111.093 97H108.237ZM109.317 96.244H110.973C111.445 96.244 111.805 96.148 112.053 95.956C112.301 95.756 112.425 95.452 112.425 95.044C112.425 94.636 112.301 94.336 112.053 94.144C111.813 93.952 111.453 93.856 110.973 93.856H109.317V96.244ZM114.858 97V90.964H115.938V93.46H119.13V90.964H120.21V97H119.13V94.324H115.938V97H114.858ZM124.657 97.108C124.065 97.108 123.553 96.984 123.121 96.736C122.689 96.48 122.353 96.12 122.113 95.656C121.873 95.184 121.753 94.624 121.753 93.976C121.753 93.336 121.873 92.784 122.113 92.32C122.353 91.848 122.689 91.488 123.121 91.24C123.553 90.984 124.065 90.856 124.657 90.856C125.249 90.856 125.761 90.984 126.193 91.24C126.633 91.488 126.969 91.848 127.201 92.32C127.441 92.784 127.561 93.336 127.561 93.976C127.561 94.624 127.441 95.184 127.201 95.656C126.969 96.12 126.633 96.48 126.193 96.736C125.761 96.984 125.249 97.108 124.657 97.108ZM124.657 96.244C125.201 96.244 125.637 96.052 125.965 95.668C126.293 95.284 126.457 94.72 126.457 93.976C126.457 93.232 126.293 92.672 125.965 92.296C125.637 91.92 125.201 91.732 124.657 91.732C124.105 91.732 123.665 91.92 123.337 92.296C123.017 92.672 122.857 93.232 122.857 93.976C122.857 94.72 123.017 95.284 123.337 95.668C123.665 96.052 124.105 96.244 124.657 96.244ZM131.748 97.108C131.148 97.108 130.628 96.984 130.188 96.736C129.748 96.48 129.404 96.116 129.156 95.644C128.916 95.164 128.796 94.596 128.796 93.94C128.796 93.292 128.92 92.74 129.168 92.284C129.416 91.82 129.76 91.468 130.2 91.228C130.64 90.98 131.156 90.856 131.748 90.856C132.14 90.856 132.52 90.924 132.888 91.06C133.256 91.188 133.556 91.376 133.788 91.624L133.416 92.392C133.184 92.168 132.928 92.004 132.648 91.9C132.368 91.788 132.092 91.732 131.82 91.732C131.228 91.732 130.764 91.924 130.428 92.308C130.092 92.684 129.924 93.232 129.924 93.952C129.924 94.68 130.092 95.24 130.428 95.632C130.764 96.024 131.228 96.22 131.82 96.22C132.084 96.22 132.356 96.168 132.636 96.064C132.916 95.96 133.176 95.796 133.416 95.572L133.788 96.328C133.548 96.584 133.24 96.78 132.864 96.916C132.496 97.044 132.124 97.108 131.748 97.108ZM136.509 97V91.84H134.337V90.964H139.761V91.84H137.589V97H136.509ZM140.756 97V90.964H141.836V93.1H143.612C144.396 93.1 144.984 93.268 145.376 93.604C145.776 93.932 145.976 94.408 145.976 95.032C145.976 95.432 145.884 95.78 145.7 96.076C145.516 96.372 145.248 96.6 144.896 96.76C144.544 96.92 144.116 97 143.612 97H140.756ZM141.836 96.244H143.492C143.964 96.244 144.324 96.148 144.572 95.956C144.82 95.756 144.944 95.452 144.944 95.044C144.944 94.636 144.82 94.336 144.572 94.144C144.332 93.952 143.972 93.856 143.492 93.856H141.836V96.244Z" fill="#343434"/>
<circle cx="17" cy="78" r="5" fill="url(#paint0_linear_91_14)"/>
<rect width="159" height="51" rx="8" fill="white"/>
<path d="M29.665 25V23.395H32.095V16.045H33.025L29.905 17.905V16.075L32.65 14.425H34.03V23.395H36.31V25H29.665ZM41.2691 25.15C40.8091 25.15 40.3491 25.1 39.8891 25C39.4391 24.9 39.0141 24.76 38.6141 24.58C38.2241 24.4 37.8891 24.185 37.6091 23.935L38.2391 22.48C38.7091 22.83 39.1891 23.095 39.6791 23.275C40.1791 23.445 40.6991 23.53 41.2391 23.53C41.8891 23.53 42.3941 23.37 42.7541 23.05C43.1241 22.72 43.3091 22.28 43.3091 21.73C43.3091 21.17 43.1341 20.72 42.7841 20.38C42.4341 20.03 41.9541 19.855 41.3441 19.855C40.9141 19.855 40.5191 19.94 40.1591 20.11C39.8091 20.27 39.4941 20.52 39.2141 20.86H37.9391V14.425H44.5091V16.015H39.7691V19.375H39.3041C39.5641 19.025 39.9091 18.755 40.3391 18.565C40.7791 18.375 41.2691 18.28 41.8091 18.28C42.4891 18.28 43.0791 18.42 43.5791 18.7C44.0791 18.98 44.4691 19.375 44.7491 19.885C45.0291 20.385 45.1691 20.975 45.1691 21.655C45.1691 22.345 45.0091 22.955 44.6891 23.485C44.3791 24.005 43.9291 24.415 43.3391 24.715C42.7591 25.005 42.0691 25.15 41.2691 25.15ZM53.8095 25.15C53.0295 25.15 52.3445 24.99 51.7545 24.67C51.1745 24.35 50.7245 23.895 50.4045 23.305C50.0845 22.705 49.9245 21.995 49.9245 21.175C49.9245 20.355 50.0845 19.655 50.4045 19.075C50.7345 18.495 51.1895 18.05 51.7695 17.74C52.3495 17.43 53.0295 17.275 53.8095 17.275C54.3095 17.275 54.7945 17.355 55.2645 17.515C55.7445 17.665 56.1345 17.885 56.4345 18.175L55.8645 19.48C55.5945 19.23 55.2895 19.045 54.9495 18.925C54.6195 18.795 54.2945 18.73 53.9745 18.73C53.3045 18.73 52.7795 18.94 52.3995 19.36C52.0295 19.78 51.8445 20.39 51.8445 21.19C51.8445 21.99 52.0295 22.605 52.3995 23.035C52.7795 23.465 53.3045 23.68 53.9745 23.68C54.2845 23.68 54.6045 23.62 54.9345 23.5C55.2745 23.38 55.5845 23.195 55.8645 22.945L56.4345 24.235C56.1245 24.525 55.7295 24.75 55.2495 24.91C54.7795 25.07 54.2995 25.15 53.8095 25.15ZM61.4532 25.15C60.1832 25.15 59.1882 24.8 58.4682 24.1C57.7482 23.4 57.3882 22.44 57.3882 21.22C57.3882 20.43 57.5432 19.74 57.8532 19.15C58.1632 18.56 58.5932 18.1 59.1432 17.77C59.7032 17.44 60.3532 17.275 61.0932 17.275C61.8232 17.275 62.4332 17.43 62.9232 17.74C63.4132 18.05 63.7832 18.485 64.0332 19.045C64.2932 19.605 64.4232 20.26 64.4232 21.01V21.505H58.9032V20.515H63.0882L62.8332 20.725C62.8332 20.025 62.6832 19.49 62.3832 19.12C62.0932 18.75 61.6682 18.565 61.1082 18.565C60.4882 18.565 60.0082 18.785 59.6682 19.225C59.3382 19.665 59.1732 20.28 59.1732 21.07V21.265C59.1732 22.085 59.3732 22.7 59.7732 23.11C60.1832 23.51 60.7582 23.71 61.4982 23.71C61.9282 23.71 62.3282 23.655 62.6982 23.545C63.0782 23.425 63.4382 23.235 63.7782 22.975L64.3332 24.235C63.9732 24.525 63.5432 24.75 63.0432 24.91C62.5432 25.07 62.0132 25.15 61.4532 25.15ZM65.856 25V17.425H67.716V20.395H71.136V17.425H72.996V25H71.136V21.835H67.716V25H65.856ZM76.4635 25V18.895H73.8685V17.425H80.9335V18.895H78.3235V25H76.4635ZM81.1641 25L82.3191 23.005C82.5191 22.665 82.7641 22.395 83.0541 22.195C83.3541 21.985 83.6641 21.88 83.9841 21.88H84.3141L84.2991 22.045C83.4091 22.045 82.7241 21.85 82.2441 21.46C81.7641 21.07 81.5241 20.5 81.5241 19.75C81.5241 19.01 81.7691 18.44 82.2591 18.04C82.7591 17.63 83.4891 17.425 84.4491 17.425H88.2141V25H86.5041V22.33H85.6491C85.3391 22.33 85.0641 22.415 84.8241 22.585C84.5941 22.755 84.3991 22.975 84.2391 23.245L83.2491 25H81.1641ZM84.8091 21.115H86.5041V18.64H84.8091C84.2991 18.64 83.9141 18.75 83.6541 18.97C83.4041 19.19 83.2791 19.49 83.2791 19.87C83.2791 20.27 83.4041 20.58 83.6541 20.8C83.9141 21.01 84.2991 21.115 84.8091 21.115ZM93.6038 25.15C92.4138 25.15 91.4638 24.79 90.7538 24.07C90.0538 23.35 89.7038 22.295 89.7038 20.905V19.615C89.7038 18.185 90.0288 17.035 90.6788 16.165C91.3288 15.295 92.3088 14.72 93.6188 14.44L96.3938 13.81L96.9038 15.28L93.7838 15.97C93.2638 16.08 92.8338 16.29 92.4938 16.6C92.1538 16.9 91.8988 17.26 91.7288 17.68C91.5588 18.1 91.4738 18.55 91.4738 19.03V19.825H91.2188C91.3288 19.375 91.5138 18.985 91.7738 18.655C92.0338 18.315 92.3638 18.05 92.7638 17.86C93.1638 17.67 93.6188 17.575 94.1288 17.575C94.7688 17.575 95.3288 17.725 95.8088 18.025C96.2988 18.315 96.6838 18.74 96.9638 19.3C97.2438 19.85 97.3838 20.51 97.3838 21.28C97.3838 22.07 97.2238 22.755 96.9038 23.335C96.5938 23.915 96.1538 24.365 95.5838 24.685C95.0238 24.995 94.3638 25.15 93.6038 25.15ZM93.5438 23.725C94.1638 23.725 94.6438 23.53 94.9838 23.14C95.3338 22.74 95.5088 22.145 95.5088 21.355C95.5088 20.585 95.3338 20 94.9838 19.6C94.6338 19.19 94.1538 18.985 93.5438 18.985C92.9338 18.985 92.4538 19.185 92.1038 19.585C91.7538 19.985 91.5788 20.555 91.5788 21.295C91.5788 22.105 91.7538 22.715 92.1038 23.125C92.4538 23.525 92.9338 23.725 93.5438 23.725ZM98.9201 28.24V19.315C98.9201 19.005 98.9101 18.69 98.8901 18.37C98.8701 18.05 98.8401 17.735 98.8001 17.425H100.615L100.78 19.015H100.615C100.765 18.485 101.08 18.065 101.56 17.755C102.05 17.435 102.615 17.275 103.255 17.275C103.925 17.275 104.51 17.435 105.01 17.755C105.51 18.065 105.9 18.515 106.18 19.105C106.46 19.685 106.6 20.385 106.6 21.205C106.6 22.025 106.46 22.73 106.18 23.32C105.9 23.91 105.51 24.365 105.01 24.685C104.51 24.995 103.925 25.15 103.255 25.15C102.625 25.15 102.07 24.995 101.59 24.685C101.11 24.375 100.79 23.96 100.63 23.44H100.795V28.24H98.9201ZM102.73 23.71C103.33 23.71 103.81 23.505 104.17 23.095C104.53 22.675 104.71 22.045 104.71 21.205C104.71 20.365 104.53 19.74 104.17 19.33C103.81 18.92 103.33 18.715 102.73 18.715C102.14 18.715 101.665 18.92 101.305 19.33C100.945 19.74 100.765 20.365 100.765 21.205C100.765 22.045 100.945 22.675 101.305 23.095C101.665 23.505 102.14 23.71 102.73 23.71ZM107.437 25L108.592 23.005C108.792 22.665 109.037 22.395 109.327 22.195C109.627 21.985 109.937 21.88 110.257 21.88H110.587L110.572 22.045C109.682 22.045 108.997 21.85 108.517 21.46C108.037 21.07 107.797 20.5 107.797 19.75C107.797 19.01 108.042 18.44 108.532 18.04C109.032 17.63 109.762 17.425 110.722 17.425H114.487V25H112.777V22.33H111.922C111.612 22.33 111.337 22.415 111.097 22.585C110.867 22.755 110.672 22.975 110.512 23.245L109.522 25H107.437ZM111.082 21.115H112.777V18.64H111.082C110.572 18.64 110.187 18.75 109.927 18.97C109.677 19.19 109.552 19.49 109.552 19.87C109.552 20.27 109.677 20.58 109.927 20.8C110.187 21.01 110.572 21.115 111.082 21.115Z" fill="#343434"/>
<path d="M31.564 38.108C30.964 38.108 30.444 37.984 30.004 37.736C29.564 37.48 29.22 37.116 28.972 36.644C28.732 36.164 28.612 35.596 28.612 34.94C28.612 34.292 28.736 33.74 28.984 33.284C29.232 32.82 29.576 32.468 30.016 32.228C30.456 31.98 30.972 31.856 31.564 31.856C31.956 31.856 32.336 31.924 32.704 32.06C33.072 32.188 33.372 32.376 33.604 32.624L33.232 33.392C33 33.168 32.744 33.004 32.464 32.9C32.184 32.788 31.908 32.732 31.636 32.732C31.044 32.732 30.58 32.924 30.244 33.308C29.908 33.684 29.74 34.232 29.74 34.952C29.74 35.68 29.908 36.24 30.244 36.632C30.58 37.024 31.044 37.22 31.636 37.22C31.9 37.22 32.172 37.168 32.452 37.064C32.732 36.96 32.992 36.796 33.232 36.572L33.604 37.328C33.364 37.584 33.056 37.78 32.68 37.916C32.312 38.044 31.94 38.108 31.564 38.108ZM36.3258 38V32.84H34.1538V31.964H39.5778V32.84H37.4058V38H36.3258ZM42.9127 38.108C42.3847 38.108 41.9207 37.984 41.5207 37.736C41.1207 37.488 40.8087 37.128 40.5847 36.656C40.3607 36.184 40.2487 35.624 40.2487 34.976C40.2487 34.328 40.3607 33.772 40.5847 33.308C40.8087 32.836 41.1207 32.476 41.5207 32.228C41.9207 31.98 42.3847 31.856 42.9127 31.856C43.4487 31.856 43.9127 31.992 44.3047 32.264C44.7047 32.528 44.9687 32.892 45.0967 33.356H44.9527L45.0847 31.964H46.1407C46.1167 32.204 46.0927 32.444 46.0687 32.684C46.0527 32.924 46.0447 33.16 46.0447 33.392V38H44.9527V36.62H45.0847C44.9567 37.076 44.6927 37.44 44.2927 37.712C43.9007 37.976 43.4407 38.108 42.9127 38.108ZM43.1647 37.244C43.7087 37.244 44.1447 37.052 44.4727 36.668C44.8007 36.284 44.9647 35.72 44.9647 34.976C44.9647 34.232 44.8007 33.672 44.4727 33.296C44.1447 32.92 43.7087 32.732 43.1647 32.732C42.6207 32.732 42.1807 32.92 41.8447 33.296C41.5167 33.672 41.3527 34.232 41.3527 34.976C41.3527 35.72 41.5167 36.284 41.8447 36.668C42.1727 37.052 42.6127 37.244 43.1647 37.244ZM48.0033 40.592V33.392C48.0033 33.16 47.9953 32.924 47.9793 32.684C47.9633 32.444 47.9393 32.204 47.9073 31.964H48.9633L49.0953 33.356H48.9633C49.0833 32.892 49.3393 32.528 49.7313 32.264C50.1233 31.992 50.5913 31.856 51.1353 31.856C51.6713 31.856 52.1393 31.98 52.5393 32.228C52.9393 32.476 53.2473 32.836 53.4633 33.308C53.6873 33.772 53.7993 34.328 53.7993 34.976C53.7993 35.624 53.6873 36.184 53.4633 36.656C53.2473 37.128 52.9393 37.488 52.5393 37.736C52.1393 37.984 51.6713 38.108 51.1353 38.108C50.5993 38.108 50.1353 37.976 49.7433 37.712C49.3593 37.44 49.0993 37.076 48.9633 36.62H49.0953V40.592H48.0033ZM50.8833 37.244C51.4353 37.244 51.8753 37.052 52.2033 36.668C52.5313 36.284 52.6953 35.72 52.6953 34.976C52.6953 34.232 52.5313 33.672 52.2033 33.296C51.8753 32.92 51.4353 32.732 50.8833 32.732C50.3313 32.732 49.8913 32.92 49.5633 33.296C49.2433 33.672 49.0833 34.232 49.0833 34.976C49.0833 35.72 49.2433 36.284 49.5633 36.668C49.8913 37.052 50.3313 37.244 50.8833 37.244ZM56.6578 38V32.84H54.4858V31.964H59.9098V32.84H57.7378V38H56.6578ZM66.6488 38.108C66.0568 38.108 65.5448 37.984 65.1128 37.736C64.6808 37.48 64.3448 37.12 64.1048 36.656C63.8648 36.184 63.7448 35.624 63.7448 34.976C63.7448 34.336 63.8648 33.784 64.1048 33.32C64.3448 32.848 64.6808 32.488 65.1128 32.24C65.5448 31.984 66.0568 31.856 66.6488 31.856C67.2408 31.856 67.7528 31.984 68.1848 32.24C68.6248 32.488 68.9608 32.848 69.1928 33.32C69.4328 33.784 69.5528 34.336 69.5528 34.976C69.5528 35.624 69.4328 36.184 69.1928 36.656C68.9608 37.12 68.6248 37.48 68.1848 37.736C67.7528 37.984 67.2408 38.108 66.6488 38.108ZM66.6488 37.244C67.1928 37.244 67.6288 37.052 67.9568 36.668C68.2848 36.284 68.4488 35.72 68.4488 34.976C68.4488 34.232 68.2848 33.672 67.9568 33.296C67.6288 32.92 67.1928 32.732 66.6488 32.732C66.0968 32.732 65.6568 32.92 65.3288 33.296C65.0088 33.672 64.8488 34.232 64.8488 34.976C64.8488 35.72 65.0088 36.284 65.3288 36.668C65.6568 37.052 66.0968 37.244 66.6488 37.244ZM73.7398 38.108C72.8358 38.108 72.1198 37.824 71.5918 37.256C71.0638 36.688 70.7998 35.856 70.7998 34.76V33.716C70.7998 32.596 71.0358 31.692 71.5078 31.004C71.9798 30.316 72.7118 29.852 73.7038 29.612L75.9118 29.06L76.2358 29.948L73.7878 30.536C73.3478 30.64 72.9838 30.828 72.6958 31.1C72.4078 31.372 72.1918 31.692 72.0478 32.06C71.9118 32.428 71.8438 32.82 71.8438 33.236V33.752H71.6758C71.7718 33.392 71.9238 33.08 72.1318 32.816C72.3478 32.552 72.6158 32.352 72.9358 32.216C73.2558 32.072 73.6078 32 73.9918 32C74.5118 32 74.9678 32.12 75.3598 32.36C75.7518 32.6 76.0558 32.948 76.2718 33.404C76.4958 33.852 76.6078 34.388 76.6078 35.012C76.6078 35.652 76.4878 36.204 76.2478 36.668C76.0158 37.132 75.6838 37.488 75.2518 37.736C74.8198 37.984 74.3158 38.108 73.7398 38.108ZM73.7038 37.244C74.2638 37.244 74.7038 37.06 75.0238 36.692C75.3518 36.324 75.5158 35.776 75.5158 35.048C75.5158 34.336 75.3518 33.792 75.0238 33.416C74.7038 33.04 74.2638 32.852 73.7038 32.852C73.1438 32.852 72.6998 33.036 72.3718 33.404C72.0518 33.772 71.8918 34.296 71.8918 34.976C71.8918 35.736 72.0518 36.304 72.3718 36.68C72.6998 37.056 73.1438 37.244 73.7038 37.244ZM77.9047 40.724L77.6527 39.836C78.0287 39.748 78.3407 39.644 78.5887 39.524C78.8367 39.412 79.0447 39.264 79.2127 39.08C79.3807 38.896 79.5287 38.664 79.6567 38.384L79.9567 37.664L79.9327 38.12L77.3047 31.964H78.4807L80.5807 37.136H80.2687L82.3687 31.964H83.4967L80.7247 38.468C80.5567 38.86 80.3727 39.188 80.1727 39.452C79.9807 39.716 79.7687 39.932 79.5367 40.1C79.3127 40.268 79.0647 40.4 78.7927 40.496C78.5207 40.592 78.2247 40.668 77.9047 40.724ZM88.4761 38V35.612C88.2441 35.74 87.9961 35.84 87.7321 35.912C87.4681 35.976 87.1881 36.008 86.8921 36.008C86.0281 36.008 85.3881 35.808 84.9721 35.408C84.5641 35 84.3601 34.388 84.3601 33.572V31.964H85.4401V33.488C85.4401 34.056 85.5681 34.468 85.8241 34.724C86.0881 34.972 86.4961 35.096 87.0481 35.096C87.3281 35.096 87.5801 35.068 87.8041 35.012C88.0281 34.948 88.2441 34.848 88.4521 34.712V31.964H89.5441V38H88.4761ZM94.2044 38.108C93.2444 38.108 92.4844 37.832 91.9244 37.28C91.3724 36.728 91.0964 35.968 91.0964 35C91.0964 34.36 91.2164 33.808 91.4564 33.344C91.7044 32.872 92.0444 32.508 92.4764 32.252C92.9084 31.988 93.4124 31.856 93.9884 31.856C94.5404 31.856 95.0084 31.976 95.3924 32.216C95.7764 32.448 96.0684 32.78 96.2684 33.212C96.4684 33.644 96.5684 34.156 96.5684 34.748V35.108H91.9484V34.46H95.8244L95.6204 34.616C95.6204 33.992 95.4804 33.508 95.2004 33.164C94.9284 32.82 94.5244 32.648 93.9884 32.648C93.4044 32.648 92.9524 32.852 92.6324 33.26C92.3124 33.66 92.1524 34.208 92.1524 34.904V35.012C92.1524 35.748 92.3324 36.304 92.6924 36.68C93.0604 37.056 93.5684 37.244 94.2164 37.244C94.5764 37.244 94.9124 37.192 95.2244 37.088C95.5364 36.984 95.8364 36.812 96.1244 36.572L96.4844 37.328C96.2124 37.576 95.8724 37.768 95.4644 37.904C95.0644 38.04 94.6444 38.108 94.2044 38.108ZM98.0883 38V31.964H99.1683V34.46H102.36V31.964H103.44V38H102.36V35.324H99.1683V38H98.0883ZM105.307 38V31.964H106.303V36.968H105.979L109.723 31.964H110.635V38H109.639V32.984H109.975L106.219 38H105.307ZM112.022 38L112.97 36.356C113.122 36.092 113.314 35.88 113.546 35.72C113.778 35.552 114.022 35.468 114.278 35.468H114.47L114.458 35.576C113.778 35.576 113.246 35.424 112.862 35.12C112.478 34.808 112.286 34.36 112.286 33.776C112.286 33.2 112.474 32.756 112.85 32.444C113.226 32.124 113.786 31.964 114.53 31.964H117.278V38H116.27V35.72H115.406C115.094 35.72 114.826 35.8 114.602 35.96C114.378 36.112 114.194 36.316 114.05 36.572L113.234 38H112.022ZM114.722 34.964H116.27V32.708H114.722C114.25 32.708 113.898 32.808 113.666 33.008C113.442 33.208 113.33 33.484 113.33 33.836C113.33 34.196 113.442 34.476 113.666 34.676C113.898 34.868 114.25 34.964 114.722 34.964Z" fill="#343434"/>
<circle cx="17" cy="19" r="5" fill="url(#paint1_linear_91_14)"/>
<defs>
<linearGradient id="paint0_linear_91_14" x1="17" y1="73" x2="17" y2="83" gradientUnits="userSpaceOnUse">
<stop stop-color="#79CAFB"/>
<stop offset="1" stop-color="#678ED1"/>
</linearGradient>
<linearGradient id="paint1_linear_91_14" x1="17" y1="14" x2="17" y2="24" gradientUnits="userSpaceOnUse">
<stop stop-color="#FB79A8"/>
<stop offset="1" stop-color="#F55567"/>
</linearGradient>
</defs>
</svg>
