<svg width="384" height="217" viewBox="0 0 384 217" fill="none" xmlns="http://www.w3.org/2000/svg">
<rect y="196" width="342" height="20" fill="#F0D3D3"/>
<path d="M2.484 81.938C2.484 77.978 3.258 74.54 4.806 71.624C6.354 68.672 8.568 66.386 11.448 64.766C14.328 63.146 17.73 62.336 21.654 62.336C25.614 62.336 29.034 63.146 31.914 64.766C34.794 66.386 37.008 68.672 38.556 71.624C40.14 74.54 40.932 77.978 40.932 81.938C40.932 85.862 40.14 89.3 38.556 92.252C37.008 95.204 34.794 97.508 31.914 99.164C29.034 100.784 25.614 101.594 21.654 101.594C17.73 101.594 14.328 100.784 11.448 99.164C8.604 97.508 6.39 95.204 4.806 92.252C3.258 89.3 2.484 85.862 2.484 81.938ZM12.906 81.938C12.906 85.502 13.626 88.292 15.066 90.308C16.506 92.288 18.702 93.278 21.654 93.278C24.606 93.278 26.82 92.288 28.296 90.308C29.772 88.292 30.51 85.502 30.51 81.938C30.51 78.374 29.772 75.602 28.296 73.622C26.82 71.642 24.606 70.652 21.654 70.652C18.702 70.652 16.506 71.642 15.066 73.622C13.626 75.566 12.906 78.338 12.906 81.938ZM44.4804 101V73.568H54.0384V83.396H63.1644V73.568H72.6684V101H63.1644V90.686H54.0384V101H44.4804ZM77.1829 101.918L74.4829 94.412C75.5629 94.124 76.4809 93.728 77.2369 93.224C77.9929 92.684 78.6049 92 79.0729 91.172C79.5769 90.308 79.9369 89.264 80.1529 88.04C80.3689 86.78 80.4769 85.322 80.4769 83.666V73.568H104.777V101H95.2729V80.804H89.1169V83.99C89.1169 87.518 88.6849 90.56 87.8209 93.116C86.9569 95.636 85.6429 97.634 83.8789 99.11C82.1509 100.586 79.9189 101.522 77.1829 101.918ZM120.1 101.594C117.724 101.594 115.636 101.036 113.836 99.92C112.036 98.768 110.614 97.112 109.57 94.952C108.562 92.792 108.058 90.236 108.058 87.284C108.058 84.296 108.562 81.74 109.57 79.616C110.614 77.456 112.036 75.818 113.836 74.702C115.636 73.55 117.724 72.974 120.1 72.974C122.224 72.974 124.132 73.478 125.824 74.486C127.552 75.494 128.686 76.808 129.226 78.428H128.686L129.28 73.568H138.514C138.406 74.792 138.298 76.034 138.19 77.294C138.118 78.554 138.082 79.796 138.082 81.02V101H128.578L128.47 96.356H129.118C128.578 97.94 127.444 99.218 125.716 100.19C124.024 101.126 122.152 101.594 120.1 101.594ZM123.178 94.466C124.798 94.466 126.112 93.908 127.12 92.792C128.128 91.64 128.632 89.804 128.632 87.284C128.632 84.764 128.128 82.946 127.12 81.83C126.112 80.678 124.798 80.102 123.178 80.102C121.558 80.102 120.244 80.678 119.236 81.83C118.228 82.946 117.724 84.764 117.724 87.284C117.724 89.804 118.21 91.64 119.182 92.792C120.19 93.908 121.522 94.466 123.178 94.466ZM142.625 101V73.568H151.265V91.28H149.375L162.767 73.568H170.597V101H161.957V83.288H163.901L150.455 101H142.625ZM156.557 71.246C154.397 71.246 152.543 70.904 150.995 70.22C149.483 69.5 148.295 68.546 147.431 67.358C146.567 66.17 146.009 64.838 145.757 63.362L150.239 61.904C150.815 63.488 151.607 64.64 152.615 65.36C153.623 66.044 154.955 66.386 156.611 66.386C158.303 66.386 159.653 66.008 160.661 65.252C161.669 64.496 162.407 63.398 162.875 61.958L167.195 63.362C166.691 65.738 165.521 67.646 163.685 69.086C161.849 70.526 159.473 71.246 156.557 71.246ZM174.901 101V73.568H184.459V83.396H193.585V73.568H203.089V101H193.585V90.686H184.459V101H174.901ZM207.441 89.822V82.37H225.099V89.822H207.441ZM3.24 153V125.568H12.798V135.396H15.606L22.41 125.568H32.562L22.734 139.77L21.006 136.692C21.978 136.8 22.86 137.106 23.652 137.61C24.48 138.078 25.236 138.69 25.92 139.446C26.604 140.166 27.18 141.012 27.648 141.984L33.588 153H23.382L19.17 145.062C18.846 144.45 18.504 143.982 18.144 143.658C17.82 143.298 17.442 143.046 17.01 142.902C16.578 142.758 16.074 142.686 15.498 142.686H12.798V153H3.24ZM45.0023 153.594C42.6263 153.594 40.5383 153.036 38.7383 151.92C36.9383 150.768 35.5163 149.112 34.4723 146.952C33.4643 144.792 32.9603 142.236 32.9603 139.284C32.9603 136.296 33.4643 133.74 34.4723 131.616C35.5163 129.456 36.9383 127.818 38.7383 126.702C40.5383 125.55 42.6263 124.974 45.0023 124.974C47.1263 124.974 49.0343 125.478 50.7263 126.486C52.4543 127.494 53.5883 128.808 54.1283 130.428H53.5883L54.1823 125.568H63.4163C63.3083 126.792 63.2003 128.034 63.0923 129.294C63.0203 130.554 62.9843 131.796 62.9843 133.02V153H53.4803L53.3723 148.356H54.0203C53.4803 149.94 52.3463 151.218 50.6183 152.19C48.9263 153.126 47.0543 153.594 45.0023 153.594ZM48.0803 146.466C49.7003 146.466 51.0143 145.908 52.0223 144.792C53.0303 143.64 53.5343 141.804 53.5343 139.284C53.5343 136.764 53.0303 134.946 52.0223 133.83C51.0143 132.678 49.7003 132.102 48.0803 132.102C46.4603 132.102 45.1463 132.678 44.1383 133.83C43.1303 134.946 42.6263 136.764 42.6263 139.284C42.6263 141.804 43.1123 143.64 44.0843 144.792C45.0923 145.908 46.4243 146.466 48.0803 146.466ZM67.7434 164.664V133.02C67.7434 131.796 67.7074 130.554 67.6354 129.294C67.5634 128.034 67.4554 126.792 67.3114 125.568H76.5994L77.1934 130.428H76.6534C77.1574 128.808 78.2734 127.494 80.0014 126.486C81.7294 125.478 83.6554 124.974 85.7794 124.974C88.1554 124.974 90.2434 125.55 92.0434 126.702C93.8434 127.818 95.2474 129.456 96.2554 131.616C97.2994 133.74 97.8214 136.296 97.8214 139.284C97.8214 142.236 97.2994 144.792 96.2554 146.952C95.2474 149.112 93.8434 150.768 92.0434 151.92C90.2434 153.036 88.1554 153.594 85.7794 153.594C83.6914 153.594 81.8014 153.126 80.1094 152.19C78.4174 151.218 77.3014 149.94 76.7614 148.356H77.3554V164.664H67.7434ZM82.7014 146.466C84.3574 146.466 85.6714 145.908 86.6434 144.792C87.6514 143.64 88.1554 141.804 88.1554 139.284C88.1554 136.764 87.6514 134.946 86.6434 133.83C85.6714 132.678 84.3574 132.102 82.7014 132.102C81.0814 132.102 79.7674 132.678 78.7594 133.83C77.7514 134.946 77.2474 136.764 77.2474 139.284C77.2474 141.804 77.7514 143.64 78.7594 144.792C79.7674 145.908 81.0814 146.466 82.7014 146.466ZM101.069 153V125.568H110.627V133.938H116.567C120.383 133.938 123.245 134.73 125.153 136.314C127.061 137.862 128.015 140.166 128.015 143.226C128.015 145.17 127.547 146.88 126.611 148.356C125.675 149.832 124.343 150.984 122.615 151.812C120.923 152.604 118.907 153 116.567 153H101.069ZM110.627 147.006H114.947C116.351 147.006 117.431 146.7 118.187 146.088C118.979 145.476 119.375 144.576 119.375 143.388C119.375 142.164 118.997 141.282 118.241 140.742C117.521 140.202 116.423 139.932 114.947 139.932H110.627V147.006ZM145.079 153.594C140.111 153.594 136.241 152.316 133.469 149.76C130.733 147.204 129.365 143.694 129.365 139.23C129.365 136.458 129.941 133.992 131.093 131.832C132.245 129.672 133.865 127.998 135.953 126.81C138.041 125.586 140.489 124.974 143.297 124.974C146.069 124.974 148.373 125.586 150.209 126.81C152.081 127.998 153.485 129.654 154.421 131.778C155.357 133.866 155.825 136.296 155.825 139.068V141.12H137.411V136.584H148.751L147.833 137.34C147.833 135.288 147.437 133.776 146.645 132.804C145.889 131.796 144.809 131.292 143.405 131.292C141.785 131.292 140.543 131.904 139.679 133.128C138.851 134.316 138.437 136.116 138.437 138.528V139.5C138.437 141.912 139.031 143.676 140.219 144.792C141.407 145.908 143.117 146.466 145.349 146.466C146.789 146.466 148.139 146.304 149.399 145.98C150.695 145.656 151.919 145.134 153.071 144.414L155.555 150.678C154.187 151.614 152.603 152.334 150.803 152.838C149.003 153.342 147.095 153.594 145.079 153.594ZM159.244 164.664V133.02C159.244 131.796 159.208 130.554 159.136 129.294C159.064 128.034 158.956 126.792 158.812 125.568H168.1L168.694 130.428H168.154C168.658 128.808 169.774 127.494 171.502 126.486C173.23 125.478 175.156 124.974 177.28 124.974C179.656 124.974 181.744 125.55 183.544 126.702C185.344 127.818 186.748 129.456 187.756 131.616C188.8 133.74 189.322 136.296 189.322 139.284C189.322 142.236 188.8 144.792 187.756 146.952C186.748 149.112 185.344 150.768 183.544 151.92C181.744 153.036 179.656 153.594 177.28 153.594C175.192 153.594 173.302 153.126 171.61 152.19C169.918 151.218 168.802 149.94 168.262 148.356H168.856V164.664H159.244ZM174.202 146.466C175.858 146.466 177.172 145.908 178.144 144.792C179.152 143.64 179.656 141.804 179.656 139.284C179.656 136.764 179.152 134.946 178.144 133.83C177.172 132.678 175.858 132.102 174.202 132.102C172.582 132.102 171.268 132.678 170.26 133.83C169.252 134.946 168.748 136.764 168.748 139.284C168.748 141.804 169.252 143.64 170.26 144.792C171.268 145.908 172.582 146.466 174.202 146.466ZM203.585 153.594C201.209 153.594 199.121 153.036 197.321 151.92C195.521 150.768 194.099 149.112 193.055 146.952C192.047 144.792 191.543 142.236 191.543 139.284C191.543 136.296 192.047 133.74 193.055 131.616C194.099 129.456 195.521 127.818 197.321 126.702C199.121 125.55 201.209 124.974 203.585 124.974C205.709 124.974 207.617 125.478 209.309 126.486C211.037 127.494 212.171 128.808 212.711 130.428H212.171L212.765 125.568H221.999C221.891 126.792 221.783 128.034 221.675 129.294C221.603 130.554 221.567 131.796 221.567 133.02V153H212.063L211.955 148.356H212.603C212.063 149.94 210.929 151.218 209.201 152.19C207.509 153.126 205.637 153.594 203.585 153.594ZM206.663 146.466C208.283 146.466 209.597 145.908 210.605 144.792C211.613 143.64 212.117 141.804 212.117 139.284C212.117 136.764 211.613 134.946 210.605 133.83C209.597 132.678 208.283 132.102 206.663 132.102C205.043 132.102 203.729 132.678 202.721 133.83C201.713 134.946 201.209 136.764 201.209 139.284C201.209 141.804 201.695 143.64 202.667 144.792C203.675 145.908 205.007 146.466 206.663 146.466ZM3.24 205V177.568H19.548C23.292 177.568 25.974 178.216 27.594 179.512C29.214 180.772 30.024 182.5 30.024 184.696C30.024 186.388 29.448 187.81 28.296 188.962C27.18 190.114 25.704 190.852 23.868 191.176V190.366C26.352 190.618 28.17 191.356 29.322 192.58C30.474 193.768 31.05 195.316 31.05 197.224C31.05 199.636 30.096 201.544 28.188 202.948C26.316 204.316 23.598 205 20.034 205H3.24ZM12.042 199.438H18.738C19.962 199.438 20.88 199.204 21.492 198.736C22.14 198.268 22.464 197.548 22.464 196.576C22.464 195.64 22.14 194.938 21.492 194.47C20.88 194.002 19.962 193.768 18.738 193.768H12.042V199.438ZM12.042 188.206H18.09C19.134 188.206 19.944 187.99 20.52 187.558C21.096 187.126 21.384 186.478 21.384 185.614C21.384 184.714 21.096 184.066 20.52 183.67C19.944 183.274 19.134 183.076 18.09 183.076H12.042V188.206ZM45.2292 212.02V197.872H48.6312C49.4952 196.36 50.1072 194.614 50.4672 192.634C50.8272 190.654 51.0072 188.134 51.0072 185.074V177.568H74.3352V197.872H78.9792V212.02H70.8792V205H53.2752V212.02H45.2292ZM56.9472 197.926H65.4792V184.642H58.9992V187.558C58.9992 189.43 58.8192 191.302 58.4592 193.174C58.0992 195.046 57.5952 196.63 56.9472 197.926ZM95.4539 205.594C90.4859 205.594 86.6159 204.316 83.8439 201.76C81.1079 199.204 79.7399 195.694 79.7399 191.23C79.7399 188.458 80.3159 185.992 81.4679 183.832C82.6199 181.672 84.2399 179.998 86.3279 178.81C88.4159 177.586 90.8639 176.974 93.6719 176.974C96.4439 176.974 98.7479 177.586 100.584 178.81C102.456 179.998 103.86 181.654 104.796 183.778C105.732 185.866 106.2 188.296 106.2 191.068V193.12H87.7859V188.584H99.1259L98.2079 189.34C98.2079 187.288 97.8119 185.776 97.0199 184.804C96.2639 183.796 95.1839 183.292 93.7799 183.292C92.1599 183.292 90.9179 183.904 90.0539 185.128C89.2259 186.316 88.8119 188.116 88.8119 190.528V191.5C88.8119 193.912 89.4059 195.676 90.5939 196.792C91.7819 197.908 93.4919 198.466 95.7239 198.466C97.1639 198.466 98.5139 198.304 99.7739 197.98C101.07 197.656 102.294 197.134 103.446 196.414L105.93 202.678C104.562 203.614 102.978 204.334 101.178 204.838C99.3779 205.342 97.4699 205.594 95.4539 205.594ZM109.403 205V177.568H118.961V187.396H121.769L128.573 177.568H138.725L128.897 191.77L127.169 188.692C128.141 188.8 129.023 189.106 129.815 189.61C130.643 190.078 131.399 190.69 132.083 191.446C132.767 192.166 133.343 193.012 133.811 193.984L139.751 205H129.545L125.333 197.062C125.009 196.45 124.667 195.982 124.307 195.658C123.983 195.298 123.605 195.046 123.173 194.902C122.741 194.758 122.237 194.686 121.661 194.686H118.961V205H109.403ZM140.365 216.664V185.02C140.365 183.796 140.329 182.554 140.257 181.294C140.185 180.034 140.077 178.792 139.933 177.568H149.221L149.815 182.428H149.275C149.779 180.808 150.895 179.494 152.623 178.486C154.351 177.478 156.277 176.974 158.401 176.974C160.777 176.974 162.865 177.55 164.665 178.702C166.465 179.818 167.869 181.456 168.877 183.616C169.921 185.74 170.443 188.296 170.443 191.284C170.443 194.236 169.921 196.792 168.877 198.952C167.869 201.112 166.465 202.768 164.665 203.92C162.865 205.036 160.777 205.594 158.401 205.594C156.313 205.594 154.423 205.126 152.731 204.19C151.039 203.218 149.923 201.94 149.383 200.356H149.977V216.664H140.365ZM155.323 198.466C156.979 198.466 158.293 197.908 159.265 196.792C160.273 195.64 160.777 193.804 160.777 191.284C160.777 188.764 160.273 186.946 159.265 185.83C158.293 184.678 156.979 184.102 155.323 184.102C153.703 184.102 152.389 184.678 151.381 185.83C150.373 186.946 149.869 188.764 149.869 191.284C149.869 193.804 150.373 195.64 151.381 196.792C152.389 197.908 153.703 198.466 155.323 198.466ZM188.378 205.594C183.41 205.594 179.54 204.316 176.768 201.76C174.032 199.204 172.664 195.694 172.664 191.23C172.664 188.458 173.24 185.992 174.392 183.832C175.544 181.672 177.164 179.998 179.252 178.81C181.34 177.586 183.788 176.974 186.596 176.974C189.368 176.974 191.672 177.586 193.508 178.81C195.38 179.998 196.784 181.654 197.72 183.778C198.656 185.866 199.124 188.296 199.124 191.068V193.12H180.71V188.584H192.05L191.132 189.34C191.132 187.288 190.736 185.776 189.944 184.804C189.188 183.796 188.108 183.292 186.704 183.292C185.084 183.292 183.842 183.904 182.978 185.128C182.15 186.316 181.736 188.116 181.736 190.528V191.5C181.736 193.912 182.33 195.676 183.518 196.792C184.706 197.908 186.416 198.466 188.648 198.466C190.088 198.466 191.438 198.304 192.698 197.98C193.994 197.656 195.218 197.134 196.37 196.414L198.854 202.678C197.486 203.614 195.902 204.334 194.102 204.838C192.302 205.342 190.394 205.594 188.378 205.594ZM208.321 205V184.966H199.573V177.568H226.627V184.966H217.825V205H208.321ZM242.382 205.594C237.414 205.594 233.544 204.316 230.772 201.76C228.036 199.204 226.668 195.694 226.668 191.23C226.668 188.458 227.244 185.992 228.396 183.832C229.548 181.672 231.168 179.998 233.256 178.81C235.344 177.586 237.792 176.974 240.6 176.974C243.372 176.974 245.676 177.586 247.512 178.81C249.384 179.998 250.788 181.654 251.724 183.778C252.66 185.866 253.128 188.296 253.128 191.068V193.12H234.714V188.584H246.054L245.136 189.34C245.136 187.288 244.74 185.776 243.948 184.804C243.192 183.796 242.112 183.292 240.708 183.292C239.088 183.292 237.846 183.904 236.982 185.128C236.154 186.316 235.74 188.116 235.74 190.528V191.5C235.74 193.912 236.334 195.676 237.522 196.792C238.71 197.908 240.42 198.466 242.652 198.466C244.092 198.466 245.442 198.304 246.702 197.98C247.998 197.656 249.222 197.134 250.374 196.414L252.858 202.678C251.49 203.614 249.906 204.334 248.106 204.838C246.306 205.342 244.398 205.594 242.382 205.594ZM282.471 205.594C280.779 205.594 279.087 205.414 277.395 205.054C275.703 204.73 274.137 204.262 272.697 203.65C271.257 203.038 270.033 202.318 269.025 201.49L272.049 194.146C273.633 195.226 275.289 196.054 277.017 196.63C278.745 197.17 280.491 197.44 282.255 197.44C284.091 197.44 285.513 197.044 286.521 196.252C287.565 195.46 288.087 194.344 288.087 192.904C288.087 191.464 287.601 190.33 286.629 189.502C285.657 188.674 284.343 188.26 282.687 188.26C281.463 188.26 280.329 188.476 279.285 188.908C278.241 189.304 277.251 189.916 276.315 190.744H270.159V166.93H295.107V174.976H279.447V183.454H277.233C278.097 182.446 279.231 181.69 280.635 181.186C282.039 180.646 283.587 180.376 285.279 180.376C287.727 180.376 289.869 180.898 291.705 181.942C293.541 182.95 294.963 184.372 295.971 186.208C297.015 188.044 297.537 190.186 297.537 192.634C297.537 195.226 296.925 197.512 295.701 199.492C294.477 201.436 292.731 202.948 290.463 204.028C288.231 205.072 285.567 205.594 282.471 205.594ZM299.082 205V195.172H309.072V205H299.082ZM325.512 205.594C320.832 205.594 317.232 203.884 314.712 200.464C312.228 197.008 310.986 192.13 310.986 185.83C310.986 179.458 312.228 174.616 314.712 171.304C317.232 167.992 320.832 166.336 325.512 166.336C330.228 166.336 333.828 167.992 336.312 171.304C338.796 174.616 340.038 179.44 340.038 185.776C340.038 192.112 338.778 197.008 336.258 200.464C333.774 203.884 330.192 205.594 325.512 205.594ZM325.512 197.656C327.24 197.656 328.518 196.72 329.346 194.848C330.21 192.976 330.642 189.97 330.642 185.83C330.642 181.654 330.21 178.684 329.346 176.92C328.518 175.12 327.24 174.22 325.512 174.22C323.784 174.22 322.488 175.12 321.624 176.92C320.796 178.684 320.382 181.636 320.382 185.776C320.382 189.952 320.796 192.976 321.624 194.848C322.488 196.72 323.784 197.656 325.512 197.656Z" fill="#343434"/>
<rect width="163" height="39" rx="8" fill="white"/>
<path d="M21.1121 19.705C21.1121 18.595 21.3121 17.635 21.7121 16.825C22.1221 16.015 22.7071 15.39 23.4671 14.95C24.2271 14.5 25.1321 14.275 26.1821 14.275C27.2221 14.275 28.1221 14.5 28.8821 14.95C29.6421 15.39 30.2271 16.015 30.6371 16.825C31.0571 17.635 31.2671 18.59 31.2671 19.69C31.2671 20.8 31.0571 21.765 30.6371 22.585C30.2271 23.395 29.6421 24.025 28.8821 24.475C28.1221 24.925 27.2221 25.15 26.1821 25.15C25.1321 25.15 24.2271 24.925 23.4671 24.475C22.7171 24.025 22.1371 23.395 21.7271 22.585C21.3171 21.765 21.1121 20.805 21.1121 19.705ZM23.1371 19.705C23.1371 20.895 23.3921 21.825 23.9021 22.495C24.4121 23.165 25.1721 23.5 26.1821 23.5C27.1621 23.5 27.9171 23.165 28.4471 22.495C28.9771 21.825 29.2421 20.895 29.2421 19.705C29.2421 18.505 28.9771 17.575 28.4471 16.915C27.9271 16.255 27.1721 15.925 26.1821 15.925C25.1721 15.925 24.4121 16.255 23.9021 16.915C23.3921 17.575 23.1371 18.505 23.1371 19.705ZM33.8638 25V14.425H35.7988V18.835H41.2138V14.425H43.1488V25H41.2138V20.44H35.7988V25H33.8638ZM46.065 25.255L45.12 23.83C45.54 23.6 45.91 23.33 46.23 23.02C46.55 22.71 46.815 22.325 47.025 21.865C47.235 21.395 47.39 20.82 47.49 20.14C47.6 19.45 47.655 18.62 47.655 17.65V14.425H55.335V25H53.415V16H49.44V18.13C49.44 19.14 49.365 20.03 49.215 20.8C49.065 21.57 48.845 22.245 48.555 22.825C48.265 23.395 47.91 23.88 47.49 24.28C47.08 24.67 46.605 24.995 46.065 25.255ZM57.0969 25L61.8819 14.425H63.5019L68.3469 25H66.3819L65.0919 22.03L65.8719 22.555H59.5269L60.3369 22.03L59.0469 25H57.0969ZM62.6769 16.495L60.5619 21.505L60.1719 21.04H65.2119L64.8969 21.505L62.7369 16.495H62.6769ZM70.1169 25V14.425H71.9019V22.405H71.5419L77.6619 14.425H79.1169V25H77.3169V17.02H77.6769L71.5419 25H70.1169ZM74.6169 13.6C74.0769 13.6 73.5969 13.515 73.1769 13.345C72.7569 13.175 72.4119 12.935 72.1419 12.625C71.8719 12.305 71.6769 11.93 71.5569 11.5L72.5169 11.17C72.7069 11.66 72.9719 12.015 73.3119 12.235C73.6519 12.455 74.0869 12.565 74.6169 12.565C75.1569 12.565 75.5919 12.455 75.9219 12.235C76.2619 12.015 76.5369 11.665 76.7469 11.185L77.6769 11.5C77.4569 12.2 77.0769 12.725 76.5369 13.075C76.0069 13.425 75.3669 13.6 74.6169 13.6ZM82.0401 25V14.425H83.9751V18.835H89.3901V14.425H91.3251V25H89.3901V20.44H83.9751V25H82.0401ZM94.0913 21.61V20.125H98.6513V21.61H94.0913ZM101.433 25V14.425H103.338V18.925H105.138L104.748 19.18L107.868 14.425H109.998L106.518 19.54L105.783 19C106.463 19.1 107.028 19.335 107.478 19.705C107.938 20.065 108.338 20.575 108.678 21.235L110.553 25H108.468L107.013 21.955C106.763 21.425 106.463 21.05 106.113 20.83C105.773 20.61 105.338 20.5 104.808 20.5H103.338V25H101.433ZM114.01 25L115.87 21.475L115.9 22.075L111.01 14.425H113.08L116.845 20.395H116.47L119.605 14.425H121.6L116.02 25H114.01ZM123.171 25V14.425H127.866C129.026 14.425 129.911 14.705 130.521 15.265C131.131 15.825 131.436 16.595 131.436 17.575C131.436 18.545 131.131 19.315 130.521 19.885C129.911 20.455 129.026 20.74 127.866 20.74H125.106V25H123.171ZM125.106 19.21H127.641C128.281 19.21 128.761 19.07 129.081 18.79C129.401 18.5 129.561 18.095 129.561 17.575C129.561 17.055 129.401 16.655 129.081 16.375C128.761 16.085 128.281 15.94 127.641 15.94H125.106V19.21ZM138.534 25.15C137.434 25.15 136.489 24.93 135.699 24.49C134.919 24.04 134.319 23.41 133.899 22.6C133.479 21.78 133.269 20.815 133.269 19.705C133.269 18.595 133.479 17.635 133.899 16.825C134.319 16.015 134.919 15.39 135.699 14.95C136.489 14.5 137.434 14.275 138.534 14.275C139.274 14.275 139.939 14.38 140.529 14.59C141.129 14.8 141.644 15.11 142.074 15.52L141.444 17.05C140.974 16.67 140.519 16.4 140.079 16.24C139.649 16.07 139.154 15.985 138.594 15.985C137.524 15.985 136.704 16.31 136.134 16.96C135.574 17.6 135.294 18.515 135.294 19.705C135.294 20.895 135.574 21.815 136.134 22.465C136.704 23.115 137.524 23.44 138.594 23.44C139.154 23.44 139.649 23.36 140.079 23.2C140.519 23.03 140.974 22.75 141.444 22.36L142.074 23.89C141.644 24.29 141.129 24.6 140.529 24.82C139.939 25.04 139.274 25.15 138.534 25.15Z" fill="#343434"/>
</svg>
