<svg width="48" height="48" viewBox="0 0 48 48" fill="none" xmlns="http://www.w3.org/2000/svg">
<rect width="48" height="48" rx="24" fill="#F0ECD3"/>
<path d="M27.7734 23.0533L22.12 17.4C21.9961 17.275 21.8486 17.1758 21.6861 17.1081C21.5237 17.0405 21.3494 17.0056 21.1734 17.0056C20.9974 17.0056 20.8231 17.0405 20.6606 17.1081C20.4981 17.1758 20.3507 17.275 20.2267 17.4C19.9784 17.6498 19.839 17.9878 19.839 18.34C19.839 18.6922 19.9784 19.0302 20.2267 19.28L24.9467 24L20.2267 28.72C19.9784 28.9698 19.839 29.3078 19.839 29.66C19.839 30.0122 19.9784 30.3502 20.2267 30.6C20.3513 30.7236 20.4991 30.8213 20.6615 30.8877C20.824 30.954 20.9979 30.9877 21.1734 30.9867C21.3489 30.9877 21.5228 30.954 21.6853 30.8877C21.8477 30.8213 21.9955 30.7236 22.12 30.6L27.7734 24.9467C27.8984 24.8227 27.9975 24.6752 28.0652 24.5128C28.1329 24.3503 28.1678 24.176 28.1678 24C28.1678 23.824 28.1329 23.6497 28.0652 23.4872C27.9975 23.3247 27.8984 23.1773 27.7734 23.0533Z" fill="#343434"/>
</svg>
