<svg width="432" height="76" viewBox="0 0 432 76" fill="none" xmlns="http://www.w3.org/2000/svg">
<path d="M89.788 35L102.988 6.8H108.988L122.268 35H114.868L111.468 27.24L114.308 29.28H97.748L100.548 27.24L97.188 35H89.788ZM105.948 14.4L101.268 25.56L100.148 23.68H111.868L110.868 25.56L106.148 14.4H105.948ZM122.81 35V14.68H134.89C137.663 14.68 139.65 15.16 140.85 16.12C142.05 17.0533 142.65 18.3333 142.65 19.96C142.65 21.2133 142.223 22.2667 141.37 23.12C140.543 23.9733 139.45 24.52 138.09 24.76V24.16C139.93 24.3467 141.277 24.8933 142.13 25.8C142.983 26.68 143.41 27.8267 143.41 29.24C143.41 31.0267 142.703 32.44 141.29 33.48C139.903 34.4933 137.89 35 135.25 35H122.81ZM129.33 30.88H134.29C135.197 30.88 135.877 30.7067 136.33 30.36C136.81 30.0133 137.05 29.48 137.05 28.76C137.05 28.0667 136.81 27.5467 136.33 27.2C135.877 26.8533 135.197 26.68 134.29 26.68H129.33V30.88ZM129.33 22.56H133.81C134.583 22.56 135.183 22.4 135.61 22.08C136.037 21.76 136.25 21.28 136.25 20.64C136.25 19.9733 136.037 19.4933 135.61 19.2C135.183 18.9067 134.583 18.76 133.81 18.76H129.33V22.56ZM150.781 35V20.16H144.301V14.68H164.341V20.16H157.821V35H150.781ZM176.052 35.44C173.785 35.44 171.825 35.0133 170.172 34.16C168.519 33.3067 167.239 32.0933 166.332 30.52C165.425 28.92 164.972 27.0267 164.972 24.84C164.972 22.6267 165.425 20.7333 166.332 19.16C167.239 17.5867 168.519 16.3733 170.172 15.52C171.825 14.6667 173.785 14.24 176.052 14.24C178.292 14.24 180.239 14.6667 181.892 15.52C183.545 16.3733 184.825 17.6 185.732 19.2C186.639 20.7733 187.092 22.6533 187.092 24.84C187.092 27 186.639 28.88 185.732 30.48C184.825 32.08 183.545 33.3067 181.892 34.16C180.239 35.0133 178.292 35.44 176.052 35.44ZM176.052 30.16C177.225 30.16 178.159 29.7467 178.852 28.92C179.545 28.0667 179.892 26.7067 179.892 24.84C179.892 22.9733 179.545 21.6267 178.852 20.8C178.159 19.9467 177.225 19.52 176.052 19.52C174.852 19.52 173.905 19.9467 173.212 20.8C172.519 21.6267 172.172 22.9733 172.172 24.84C172.172 26.7067 172.519 28.0667 173.212 28.92C173.905 29.7467 174.852 30.16 176.052 30.16ZM190.283 43.64V20.2C190.283 19.2933 190.256 18.3733 190.203 17.44C190.149 16.5067 190.069 15.5867 189.963 14.68H196.843L197.283 18.28H196.883C197.256 17.08 198.083 16.1067 199.363 15.36C200.643 14.6133 202.069 14.24 203.643 14.24C205.403 14.24 206.949 14.6667 208.283 15.52C209.616 16.3467 210.656 17.56 211.403 19.16C212.176 20.7333 212.563 22.6267 212.563 24.84C212.563 27.0267 212.176 28.92 211.403 30.52C210.656 32.12 209.616 33.3467 208.283 34.2C206.949 35.0267 205.403 35.44 203.643 35.44C202.096 35.44 200.696 35.0933 199.443 34.4C198.189 33.68 197.363 32.7333 196.963 31.56H197.403V43.64H190.283ZM201.363 30.16C202.589 30.16 203.563 29.7467 204.283 28.92C205.029 28.0667 205.403 26.7067 205.403 24.84C205.403 22.9733 205.029 21.6267 204.283 20.8C203.563 19.9467 202.589 19.52 201.363 19.52C200.163 19.52 199.189 19.9467 198.443 20.8C197.696 21.6267 197.323 22.9733 197.323 24.84C197.323 26.7067 197.696 28.0667 198.443 28.92C199.189 29.7467 200.163 30.16 201.363 30.16ZM226.13 35V14.68H233.21V21.96H235.29L240.33 14.68H247.85L240.57 25.2L239.29 22.92C240.01 23 240.664 23.2267 241.25 23.6C241.864 23.9467 242.424 24.4 242.93 24.96C243.437 25.4933 243.864 26.12 244.21 26.84L248.61 35H241.05L237.93 29.12C237.69 28.6667 237.437 28.32 237.17 28.08C236.93 27.8133 236.65 27.6267 236.33 27.52C236.01 27.4133 235.637 27.36 235.21 27.36H233.21V35H226.13ZM249.745 44.08L248.065 38.56C249.345 38.32 250.412 38.0533 251.265 37.76C252.145 37.4933 252.865 37.12 253.425 36.64C253.985 36.16 254.425 35.5333 254.745 34.76L255.745 32.44L255.585 35.12L246.705 14.68H254.225L259.425 28.16H258.105L263.465 14.68H270.505L261.385 35.44C260.665 37.0667 259.892 38.4 259.065 39.44C258.265 40.48 257.385 41.3067 256.425 41.92C255.492 42.5333 254.465 42.9867 253.345 43.28C252.252 43.6 251.052 43.8667 249.745 44.08ZM271.712 43.64V20.2C271.712 19.2933 271.686 18.3733 271.632 17.44C271.579 16.5067 271.499 15.5867 271.392 14.68H278.272L278.712 18.28H278.312C278.686 17.08 279.512 16.1067 280.792 15.36C282.072 14.6133 283.499 14.24 285.072 14.24C286.832 14.24 288.379 14.6667 289.712 15.52C291.046 16.3467 292.086 17.56 292.832 19.16C293.606 20.7333 293.992 22.6267 293.992 24.84C293.992 27.0267 293.606 28.92 292.832 30.52C292.086 32.12 291.046 33.3467 289.712 34.2C288.379 35.0267 286.832 35.44 285.072 35.44C283.526 35.44 282.126 35.0933 280.872 34.4C279.619 33.68 278.792 32.7333 278.392 31.56H278.832V43.64H271.712ZM282.792 30.16C284.019 30.16 284.992 29.7467 285.712 28.92C286.459 28.0667 286.832 26.7067 286.832 24.84C286.832 22.9733 286.459 21.6267 285.712 20.8C284.992 19.9467 284.019 19.52 282.792 19.52C281.592 19.52 280.619 19.9467 279.872 20.8C279.126 21.6267 278.752 22.9733 278.752 24.84C278.752 26.7067 279.126 28.0667 279.872 28.92C280.619 29.7467 281.592 30.16 282.792 30.16ZM307.438 35.44C305.198 35.44 303.238 35.0133 301.558 34.16C299.878 33.3067 298.571 32.0933 297.638 30.52C296.704 28.92 296.238 27.0133 296.238 24.8C296.238 22.5867 296.704 20.6933 297.638 19.12C298.571 17.5467 299.878 16.3467 301.558 15.52C303.238 14.6667 305.198 14.24 307.438 14.24C308.824 14.24 310.184 14.4267 311.518 14.8C312.851 15.1733 313.931 15.7067 314.758 16.4L312.758 21.24C312.118 20.7067 311.384 20.3067 310.558 20.04C309.758 19.7467 308.971 19.6 308.198 19.6C306.731 19.6 305.584 20.04 304.758 20.92C303.958 21.8 303.558 23.0933 303.558 24.8C303.558 26.5067 303.958 27.8133 304.758 28.72C305.584 29.6 306.731 30.04 308.198 30.04C308.944 30.04 309.731 29.9067 310.558 29.64C311.384 29.3467 312.118 28.9467 312.758 28.44L314.758 33.28C313.904 33.9467 312.811 34.48 311.478 34.88C310.171 35.2533 308.824 35.44 307.438 35.44ZM325.447 35.44C323.687 35.44 322.14 35.0267 320.807 34.2C319.473 33.3467 318.42 32.12 317.647 30.52C316.9 28.92 316.527 27.0267 316.527 24.84C316.527 22.6267 316.9 20.7333 317.647 19.16C318.42 17.56 319.473 16.3467 320.807 15.52C322.14 14.6667 323.687 14.24 325.447 14.24C327.02 14.24 328.433 14.6133 329.687 15.36C330.967 16.1067 331.807 17.08 332.207 18.28H331.807L332.247 14.68H339.087C339.007 15.5867 338.927 16.5067 338.847 17.44C338.793 18.3733 338.767 19.2933 338.767 20.2V35H331.727L331.647 31.56H332.127C331.727 32.7333 330.887 33.68 329.607 34.4C328.353 35.0933 326.967 35.44 325.447 35.44ZM327.727 30.16C328.927 30.16 329.9 29.7467 330.647 28.92C331.393 28.0667 331.767 26.7067 331.767 24.84C331.767 22.9733 331.393 21.6267 330.647 20.8C329.9 19.9467 328.927 19.52 327.727 19.52C326.527 19.52 325.553 19.9467 324.807 20.8C324.06 21.6267 323.687 22.9733 323.687 24.84C323.687 26.7067 324.047 28.0667 324.767 28.92C325.513 29.7467 326.5 30.16 327.727 30.16Z" fill="#343434"/>
<path fill-rule="evenodd" clip-rule="evenodd" d="M148.459 67.4631C147.441 68.6763 146.907 69.1429 146 69.1429V76C149.018 76 150.84 73.8951 151.98 72.5369C153.267 71.0039 153.48 70.8571 153.85 70.8571C154.663 70.8571 154.972 71.1747 155.925 72.4244C155.946 72.4511 155.966 72.4783 155.987 72.5058C157.002 73.8365 158.651 76 161.701 76C164.719 76 166.541 73.8951 167.681 72.5369C168.968 71.0039 169.181 70.8571 169.551 70.8571C170.363 70.8571 170.672 71.1747 171.626 72.4244C171.647 72.4511 171.667 72.4783 171.688 72.5058C172.703 73.8365 174.352 76 177.402 76C180.38 76 182.166 73.8311 183.247 72.4874C184.505 70.9232 184.664 70.8571 184.925 70.8571C185.611 70.8571 185.868 71.1014 186.798 72.3722C186.82 72.4032 186.843 72.4347 186.867 72.4668C187.827 73.7823 189.446 76 192.449 76C195.467 76 197.288 73.8951 198.428 72.5369C199.716 71.0039 199.929 70.8571 200.299 70.8571C201.111 70.8571 201.42 71.1747 202.374 72.4244C202.394 72.4511 202.415 72.4783 202.436 72.5058C203.45 73.8365 205.099 76 208.15 76C211.167 76 212.989 73.8951 214.129 72.5369C215.416 71.0039 215.63 70.8571 216 70.8571C216.812 70.8571 217.121 71.1747 218.075 72.4244C218.095 72.4511 218.116 72.4783 218.137 72.5058C219.151 73.8365 220.8 76 223.85 76C226.868 76 228.69 73.8951 229.83 72.5369C231.117 71.0039 231.331 70.8571 231.701 70.8571C232.513 70.8571 232.822 71.1747 233.776 72.4244C233.796 72.4511 233.817 72.4783 233.838 72.5058C234.852 73.8365 236.501 76 239.551 76C242.529 76 244.315 73.8311 245.396 72.4874C246.655 70.9232 246.813 70.8571 247.075 70.8571C247.761 70.8571 248.018 71.1014 248.947 72.3722C248.97 72.4032 248.993 72.4347 249.016 72.4668C249.977 73.7823 251.596 76 254.598 76C257.616 76 259.438 73.8951 260.578 72.5369C261.865 71.0039 262.078 70.8571 262.449 70.8571C263.261 70.8571 263.57 71.1747 264.523 72.4244C264.544 72.4511 264.565 72.4783 264.586 72.5058C265.6 73.8365 267.249 76 270.299 76C273.317 76 275.139 73.8951 276.279 72.5369C277.566 71.0039 277.779 70.8571 278.15 70.8571C278.962 70.8571 279.271 71.1747 280.224 72.4244L280.287 72.5058C281.301 73.8365 282.95 76 286 76V69.1429C285.188 69.1429 284.879 68.8253 283.925 67.5756L283.863 67.4942C282.849 66.1635 281.2 64 278.15 64C275.599 64 273.914 66.0556 272.982 67.192C272.902 67.2898 272.828 67.3808 272.758 67.4631C271.74 68.6763 271.206 69.1429 270.299 69.1429C269.487 69.1429 269.178 68.8253 268.224 67.5756C268.204 67.5489 268.183 67.5217 268.162 67.4942C267.148 66.1635 265.499 64 262.449 64C259.898 64 258.213 66.0556 257.281 67.192C257.201 67.2898 257.127 67.3808 257.057 67.4631C256.039 68.6763 255.505 69.1429 254.598 69.1429C253.912 69.1429 253.655 68.8986 252.726 67.6278C252.703 67.5968 252.68 67.5653 252.657 67.5332C251.696 66.2177 250.077 64 247.075 64C244.549 64 242.889 66.1179 242.008 67.242C241.931 67.3405 241.86 67.4314 241.794 67.5126C240.806 68.7403 240.335 69.1429 239.551 69.1429C238.739 69.1429 238.43 68.8253 237.477 67.5756C237.456 67.5489 237.435 67.5217 237.414 67.4942C236.4 66.1635 234.751 64 231.701 64C229.15 64 227.465 66.0556 226.534 67.192C226.454 67.2898 226.379 67.3808 226.31 67.4631C225.291 68.6763 224.758 69.1429 223.85 69.1429C223.038 69.1429 222.729 68.8253 221.776 67.5756C221.755 67.5489 221.734 67.5217 221.713 67.4942C220.699 66.1635 219.05 64 216 64C213.45 64 211.764 66.0556 210.833 67.192C210.753 67.2898 210.678 67.3808 210.609 67.4631C209.59 68.6763 209.057 69.1429 208.15 69.1429C207.337 69.1429 207.028 68.8253 206.075 67.5756C206.054 67.5489 206.034 67.5217 206.013 67.4942C204.998 66.1635 203.349 64 200.299 64C197.749 64 196.063 66.0556 195.132 67.192C195.052 67.2898 194.977 67.3808 194.908 67.4631C193.889 68.6763 193.356 69.1429 192.449 69.1429C191.763 69.1429 191.506 68.8986 190.576 67.6278C190.554 67.5968 190.531 67.5653 190.507 67.5332C189.547 66.2177 187.928 64 184.925 64C182.399 64 180.739 66.1179 179.858 67.242C179.781 67.3405 179.71 67.4314 179.645 67.5126C178.657 68.7403 178.186 69.1429 177.402 69.1429C176.59 69.1429 176.281 68.8253 175.327 67.5756C175.307 67.5489 175.286 67.5217 175.265 67.4942C174.251 66.1635 172.602 64 169.551 64C167.001 64 165.316 66.0556 164.384 67.192C164.304 67.2898 164.229 67.3808 164.16 67.4631C163.142 68.6763 162.608 69.1429 161.701 69.1429C160.889 69.1429 160.58 68.8253 159.626 67.5756C159.606 67.5489 159.585 67.5217 159.564 67.4942C158.55 66.1635 156.901 64 153.85 64C151.3 64 149.615 66.0556 148.683 67.192C148.603 67.2898 148.528 67.3808 148.459 67.4631Z" fill="#B7B39A"/>
</svg>
